<svg xmlns="http://www.w3.org/2000/svg" width="93" height="26" fill="none" xmlns:v="https://vecta.io/nano"><g clip-path="url(#A)" fill="#3a3c51"><path d="M24.598 9.82l4.163-.59 4.154-.51 4.163-.43 4.205-.36 25.113-1.643 8.385-.71 16.703-1.864-1.45-1.443c.17 3.487.17 7.013.076 10.48s-.195 7.104-.093 10.71l1.39-1.613L74.85 20.72l-16.61-1.273-16.584-1.202-16.61-.892c-.225-.013-.445.08-.612.258s-.267.428-.278.694a1.12 1.12 0 0 0 .218.723c.15.197.362.316.587.33l16.55 1.443 16.592 1.503 16.567 1.463 16.635 1.212c.345.008.68-.14.93-.418s.405-.658.425-1.065v-.13c-.093-3.477.22-7.014.288-10.53l.05-10.76c-.055-.435-.25-.83-.543-1.1s-.664-.397-1.034-.354h-.12L74.604 2.625c-5.562.6-11.166 1.062-16.745 1.503L41.097 5.57l-4.197.49-4.188.57-4.146.66-4.18.72a.79.79 0 0 0-.445.374c-.105.185-.15.408-.124.63a.97.97 0 0 0 .259.568c.142.146.324.225.512.223l.008.01z"/><path d="M23.65 2.825l.05 10.1-.068 6.012-.093 6 1.348-1.002c-3.72-2.093-7.207-4.267-10.887-6.462L3.132 10.87v4.158l5.375-2.885 5.57-3.006 2.73-1.683L19.53 5.73a80.43 80.43 0 0 0 2.688-1.824c.483-.34.95-.72 1.433-1.082zm.5-2.745a38.48 38.48 0 0 0-3.001 1.002c-.992.35-1.967.76-2.95 1.152s-1.94.842-2.908 1.262L12.458 4.85c-1.908.932-3.78 1.924-5.655 2.936L3.98 9.308 1.2 10.87h-.085a2.04 2.04 0 0 0-.797.848 2.55 2.55 0 0 0-.279 1.224c.01.43.123.85.33 1.206s.495.634.83.8c3.798 1.874 7.63 3.657 11.47 5.43l11.463 5.46h.05a.81.81 0 0 0 .357.086.81.81 0 0 0 .357-.082.94.94 0 0 0 .304-.238 1.12 1.12 0 0 0 .203-.357 1.3 1.3 0 0 0 .076-.461l-.093-6-.068-6.012L25.37.84a1.14 1.14 0 0 0-.118-.394c-.062-.12-.146-.223-.244-.302a.78.78 0 0 0-.327-.159.72.72 0 0 0-.353.013l-.186.08zm4.2 12.614s2.976-.46 7.436-.7l7.63-.53 8.75-.42 8.75-.43 7.63-.52 5.384-.6 2.035-.3c.067-.014.128-.055.17-.116a.38.38 0 0 0 .068-.219.38.38 0 0 0-.068-.219c-.044-.06-.104-.103-.17-.116h-2.052l-5.4.1-7.63.47-8.733.73-8.724.76-7.63.56-7.435.47c-.16 0-.28.4-.27.57s.136.54.297.54l-.034-.03zm51.658-5.4a1.54 1.54 0 0 0-.085.291c-.037.184-.037.377 0 .56.044.178.125.34.237.47a.98.98 0 0 0 .212.17.52.52 0 0 0 .444.023c.144-.06.265-.182.336-.343a1.32 1.32 0 0 0 .076-.291c.022-.183.005-.37-.05-.54s-.15-.335-.27-.46a1.19 1.19 0 0 0-.169-.15.47.47 0 0 0-.41-.038c-.135.052-.25.16-.32.3zm2.722-.272a1.12 1.12 0 0 0-.127.36 1.91 1.91 0 0 0 0 .812c.068.264.194.503.365.7a1.03 1.03 0 0 0 .28.21.46.46 0 0 0 .225.04.46.46 0 0 0 .217-.079.56.56 0 0 0 .168-.182.68.68 0 0 0 .086-.25v-.08a2.67 2.67 0 0 0 0-.31 2.01 2.01 0 0 0-.093-.551c-.06-.18-.14-.348-.237-.5l-.178-.25c-.077-.088-.177-.142-.284-.153s-.213.022-.302.092l-.06.08-.06.07zm2.66.08c-.01.08-.027.156-.05.23a.74.74 0 0 0 0 .311c.03.095.088.176.16.23l.144.15h.127a.51.51 0 0 0 .374.067.57.57 0 0 0 .33-.217.84.84 0 0 0 .127-.271 1.04 1.04 0 0 0 0-.59.86.86 0 0 0-.365-.401.58.58 0 0 0-.178-.08h-.16c-.128.01-.248.073-.34.178a.7.7 0 0 0-.168.394z"/></g><defs><clipPath id="A"><path fill="#fff" transform="matrix(-1 0 0 1 93 0)" d="M0 0h93v26H0z"/></clipPath></defs></svg>