<svg xmlns="http://www.w3.org/2000/svg" width="93" height="26" fill="none" xmlns:v="https://vecta.io/nano"><g clip-path="url(#A)" fill="#3a3c51"><path d="M68.402 9.82l-4.163-.59-4.154-.51-4.163-.43-4.205-.36L34.99 6.844l-8.385-.56-8.385-.71L1.516 3.708l1.45-1.443c-.17 3.487-.17 7.013-.076 10.48s.195 7.104.093 10.71l-1.4-1.613L18.15 20.72l16.61-1.273 16.584-1.202 16.61-.892c.225-.013.445.08.612.258s.267.428.278.694a1.12 1.12 0 0 1-.218.723c-.15.197-.362.316-.587.33L51.488 20.8l-16.592 1.503-16.567 1.463L1.694 24.98c-.345.008-.678-.14-.93-.418s-.405-.658-.425-1.065v-.13C.43 19.89.117 16.352.05 12.835l-.05-10.76c.055-.435.25-.83.543-1.1S1.205.578 1.575.622h.12l16.703 2.004c5.562.6 11.166 1.062 16.745 1.503L51.903 5.57l4.197.49c1.4.17 2.79.38 4.188.57l4.146.66 4.18.72a.79.79 0 0 1 .445.374c.105.185.15.408.124.63a.97.97 0 0 1-.259.568c-.142.146-.324.225-.513.223l-.008.01z"/><path d="M69.35 2.825l-.05 10.1.068 6.012.093 6-1.348-1.002C71.835 21.86 75.32 19.687 79 17.493l10.87-6.623v4.158l-2.645-1.423-2.73-1.463-5.57-3.006-2.73-1.683L73.47 5.73a80.43 80.43 0 0 1-2.688-1.824c-.483-.34-.95-.72-1.433-1.082zM68.86.08a38.48 38.48 0 0 1 3.001 1.002c.992.35 1.967.76 2.95 1.152s1.94.842 2.908 1.262l2.823 1.353c1.908.932 3.78 1.924 5.655 2.936l2.823 1.523 2.8 1.563h.085a2.04 2.04 0 0 1 .797.848 2.55 2.55 0 0 1 .279 1.224c-.01.43-.123.85-.33 1.206s-.495.634-.83.8c-3.798 1.874-7.63 3.657-11.47 5.43l-11.463 5.46h-.05a.81.81 0 0 1-.357.086.81.81 0 0 1-.357-.082.94.94 0 0 1-.303-.238 1.12 1.12 0 0 1-.203-.357 1.3 1.3 0 0 1-.076-.461l.093-6 .068-6.012L67.63.84a1.14 1.14 0 0 1 .118-.394c.062-.12.146-.223.244-.302a.78.78 0 0 1 .327-.159.72.72 0 0 1 .353.013l.186.08zm-4.2 12.614s-2.976-.46-7.436-.7l-7.63-.53-8.75-.42-8.75-.43-7.63-.52-5.384-.6-2.035-.3c-.067-.014-.128-.055-.17-.116a.38.38 0 0 1-.068-.219.38.38 0 0 1 .068-.219c.044-.06.104-.103.17-.116h2.052l5.4.1 7.63.47 8.733.73 8.724.76 7.63.56 7.435.47c.16 0 .28.4.27.57s-.136.54-.297.54l.034-.03zm-51.658-5.4a1.54 1.54 0 0 1 .085.291c.037.184.037.377 0 .56-.044.178-.125.34-.237.47a.98.98 0 0 1-.212.17.52.52 0 0 1-.444.023c-.144-.06-.265-.182-.336-.343a1.32 1.32 0 0 1-.076-.291c-.022-.183-.005-.37.05-.54s.15-.335.27-.46a1.19 1.19 0 0 1 .17-.15.47.47 0 0 1 .41-.038c.135.052.25.16.32.3zM10.3 7.012a1.12 1.12 0 0 1 .127.36 1.91 1.91 0 0 1 0 .812c-.068.264-.194.503-.365.7a1.03 1.03 0 0 1-.28.21.46.46 0 0 1-.225.04c-.077-.006-.15-.034-.217-.08a.56.56 0 0 1-.168-.182.66.66 0 0 1-.085-.25v-.08a2.52 2.52 0 0 1 0-.311 2.01 2.01 0 0 1 .093-.551c.06-.18.14-.348.237-.5l.178-.25c.077-.088.177-.142.284-.153a.41.41 0 0 1 .3.092l.06.08.06.07zm-2.66.08c.01.08.027.156.05.23a.74.74 0 0 1 0 .311c-.03.095-.088.176-.16.23l-.144.15H7.25a.51.51 0 0 1-.374.067.57.57 0 0 1-.33-.217.84.84 0 0 1-.127-.271 1.04 1.04 0 0 1 0-.59.86.86 0 0 1 .365-.401.58.58 0 0 1 .178-.08h.16c.128.01.248.073.34.178a.7.7 0 0 1 .167.394z"/></g><defs><clipPath id="A"><path fill="#fff" d="M0 0h93v26H0z"/></clipPath></defs></svg>