<svg width="186" height="112" viewBox="0 0 186 112" fill="none" xmlns="http://www.w3.org/2000/svg">
<path d="M61.175 94.015C60.825 93.9217 60.545 93.7117 60.335 93.385C60.1483 93.0583 60.1133 92.8017 60.23 92.615L60.545 91.775C60.7083 91.2617 60.8483 90.9 60.965 90.69C61.1283 90.3867 61.2567 90.0367 61.35 89.64C61.4667 89.2433 61.5483 88.9867 61.595 88.87C62.0383 87.4933 62.435 86.4433 62.785 85.72C62.9017 85.4867 63.0767 85.0433 63.31 84.39C63.3567 84.25 63.415 84.0867 63.485 83.9C63.555 83.7133 63.6367 83.5033 63.73 83.27C62.82 83.83 62.1783 84.32 61.805 84.74C61.0817 85.4633 60.3233 86.1283 59.53 86.735C58.9467 87.1783 58.34 87.68 57.71 88.24C57.6867 88.31 57.185 88.66 56.205 89.29C55.225 89.92 54.4433 90.41 53.86 90.76C53.2533 91.1333 52.8217 91.425 52.565 91.635C51.865 92.1483 51.2233 92.545 50.64 92.825C50.3367 93.0117 50.08 93.105 49.87 93.105C49.73 93.105 49.555 93.0583 49.345 92.965C49.135 92.8483 48.9367 92.755 48.75 92.685C48.75 92.615 48.6917 92.4983 48.575 92.335C48.4817 92.1717 48.435 92.0317 48.435 91.915C48.435 91.7983 48.5167 91.67 48.68 91.53C48.82 91.3667 49.5433 90.865 50.85 90.025C51.1067 89.8617 51.3983 89.675 51.725 89.465C52.0517 89.255 52.355 89.045 52.635 88.835L53.825 88.1C53.9883 88.0067 54.4317 87.75 55.155 87.33C55.8783 86.8867 56.3333 86.5717 56.52 86.385C56.5433 86.3617 56.7883 86.175 57.255 85.825L61.315 82.745C61.8983 82.3483 62.3067 81.8117 62.54 81.135C62.4233 80.9017 62.085 80.3417 61.525 79.455C60.965 78.545 60.5683 77.9267 60.335 77.6C59.0517 76.06 58.445 75.325 58.515 75.395C58.4683 75.325 58.025 74.695 57.185 73.505C56.3683 72.2917 55.9367 71.6383 55.89 71.545C55.61 71.195 55.3883 70.9033 55.225 70.67C55.085 70.4133 55.0033 70.1333 54.98 69.83C55.12 69.5967 55.33 69.48 55.61 69.48C55.7267 69.48 55.8317 69.5033 55.925 69.55C56.065 69.62 56.2983 69.7133 56.625 69.83C56.975 69.9467 57.2317 70.1217 57.395 70.355C57.535 70.5183 57.6983 70.6933 57.885 70.88C58.095 71.0667 58.305 71.335 58.515 71.685L63.065 78.125C63.1817 78.265 63.4033 78.5917 63.73 79.105C64.0567 79.595 64.255 79.91 64.325 80.05C64.3717 80.19 64.4417 80.26 64.535 80.26C64.6283 80.26 64.7333 80.1783 64.85 80.015C64.9667 79.8517 65.0483 79.7467 65.095 79.7C65.0717 79.3967 65.1533 78.9183 65.34 78.265L65.55 77.6C66.11 75.92 66.46 74.7417 66.6 74.065C66.67 73.645 66.81 73.3067 67.02 73.05C67.1133 72.8867 67.1833 72.6767 67.23 72.42C67.2767 72.1633 67.3117 71.965 67.335 71.825C67.3583 71.7317 67.405 71.4633 67.475 71.02C67.5683 70.5533 67.7317 70.1217 67.965 69.725C68.035 69.7017 68.14 69.69 68.28 69.69C68.5133 69.69 68.7117 69.76 68.875 69.9C69.0617 70.04 69.225 70.215 69.365 70.425C69.505 70.635 69.6333 70.7983 69.75 70.915L69.785 71.3C69.785 71.6033 69.715 71.8483 69.575 72.035L69.085 73.68C69.0383 73.9367 68.9217 74.3567 68.735 74.94C68.5717 75.5233 68.3967 76.0717 68.21 76.585C68.1633 76.725 68.1167 76.8767 68.07 77.04C68.0233 77.18 67.9767 77.3317 67.93 77.495C67.86 77.985 67.7433 78.3817 67.58 78.685C67.4867 79.1983 67.3233 79.8167 67.09 80.54L66.81 81.555C66.81 81.5783 66.81 81.6017 66.81 81.625C66.8333 81.6483 66.845 81.66 66.845 81.66C66.9383 81.66 67.1367 81.4617 67.44 81.065L68.84 79.735C71.92 76.655 73.9033 74.8 74.79 74.17C76.3067 72.6533 77.5783 71.72 78.605 71.37C78.745 71.4867 78.9083 71.6267 79.095 71.79C79.305 71.93 79.48 72.0817 79.62 72.245C79.76 72.385 79.8533 72.56 79.9 72.77C79.55 73.4233 79.1767 73.8783 78.78 74.135C78.1733 74.4383 77.5433 74.8467 76.89 75.36C76.2367 75.8733 75.8283 76.2 75.665 76.34C75.2217 76.62 74.5333 77.1917 73.6 78.055C72.69 78.895 72.0017 79.5483 71.535 80.015C71.395 80.155 71.0567 80.4467 70.52 80.89C69.9833 81.31 69.4817 81.8467 69.015 82.5C69.0617 82.57 69.1783 82.7917 69.365 83.165C69.645 83.7717 69.9017 84.1917 70.135 84.425C70.3217 84.7517 70.6833 85.3233 71.22 86.14C71.78 86.9567 72.2583 87.6567 72.655 88.24C72.8183 88.6133 73.075 88.9983 73.425 89.395C73.7517 89.815 73.9733 90.1417 74.09 90.375C74.2067 90.4683 74.3583 90.6317 74.545 90.865C74.755 91.075 74.965 91.2267 75.175 91.32C75.3383 91.39 75.4667 91.5183 75.56 91.705C75.6767 91.8683 75.8167 92.1483 75.98 92.545C75.84 92.9417 75.7 93.175 75.56 93.245C75.42 93.3383 75.0467 93.4083 74.44 93.455C74.0667 93.3617 73.6583 93.1283 73.215 92.755C72.7717 92.3583 72.4217 91.9383 72.165 91.495C71.5583 90.6317 70.8117 89.465 69.925 87.995L68.665 86C68.6183 85.7667 68.49 85.51 68.28 85.23C68.0933 84.9267 67.9767 84.705 67.93 84.565C67.8833 84.425 67.825 84.32 67.755 84.25C67.685 84.18 67.58 84.1333 67.44 84.11C67.2767 84.0867 67.1367 84.0167 67.02 83.9C66.9033 83.7833 66.7867 83.6433 66.67 83.48C66.5533 83.2933 66.4367 83.13 66.32 82.99C66.11 83.7133 65.8067 84.5417 65.41 85.475L64.955 86.595C64.9317 86.665 64.85 86.7933 64.71 86.98C64.5933 87.1433 64.535 87.295 64.535 87.435C64.535 87.4817 64.3133 88.17 63.87 89.5C63.2867 91.1333 62.9017 92.265 62.715 92.895C62.6917 92.9883 62.645 93.1167 62.575 93.28C62.5283 93.4433 62.4817 93.56 62.435 93.63C62.3883 93.7233 62.3183 93.7933 62.225 93.84C61.9917 94.0033 61.7583 94.085 61.525 94.085C61.4317 94.085 61.315 94.0617 61.175 94.015ZM95.096 92.895C94.956 92.825 94.781 92.7083 94.571 92.545C94.361 92.3583 94.1627 92.2067 93.976 92.09C93.9293 91.9033 93.836 91.6117 93.696 91.215C93.5793 90.795 93.5327 90.4217 93.556 90.095C93.556 89.9783 93.521 89.7917 93.451 89.535C93.4044 89.255 93.416 89.045 93.486 88.905L93.451 88.485C93.451 87.645 93.6494 86.3383 94.046 84.565C93.976 84.4717 93.906 84.4133 93.836 84.39C93.7893 84.3667 93.7193 84.4017 93.626 84.495C93.3227 84.775 92.8793 85.2533 92.296 85.93C92.2493 85.9767 92.156 86.0583 92.016 86.175C91.876 86.2683 91.806 86.3967 91.806 86.56L90.546 88.24C90.4527 88.38 90.2777 88.625 90.021 88.975C89.7643 89.3017 89.5777 89.64 89.461 89.99C89.391 90.1767 89.2743 90.34 89.111 90.48C88.971 90.5967 88.8893 90.6667 88.866 90.69C88.7493 90.6433 88.6093 90.5967 88.446 90.55C88.306 90.5033 88.1893 90.445 88.096 90.375C88.0027 90.2817 87.886 90.165 87.746 90.025C87.2793 89.5817 87.0927 89.1617 87.186 88.765C87.1627 88.5317 87.151 88.2983 87.151 88.065C87.1743 87.8317 87.186 87.6217 87.186 87.435C87.2093 87.155 87.221 86.735 87.221 86.175C87.221 85.1017 87.1627 84.4367 87.046 84.18C86.7893 84.2033 86.6143 84.2383 86.521 84.285C86.4277 84.3317 86.311 84.4717 86.171 84.705C86.1243 84.7983 85.9843 85.02 85.751 85.37C85.541 85.6967 85.261 86.105 84.911 86.595C84.561 87.1317 84.106 87.82 83.546 88.66C83.0093 89.5 82.7527 89.9083 82.776 89.885C82.496 90.2117 82.2627 90.6317 82.076 91.145C81.8193 91.7283 81.5627 91.8917 81.306 91.635C80.816 91.3783 80.4543 91.1567 80.221 90.97C80.011 90.5967 79.8943 90.2233 79.871 89.85C79.941 89.8267 80.0227 89.7917 80.116 89.745C80.2093 89.675 80.2793 89.6167 80.326 89.57C80.3727 89.5233 80.4077 89.465 80.431 89.395L83.091 85.51L83.546 84.845C83.6627 84.6117 83.9777 84.1683 84.491 83.515C84.5377 83.3983 84.7593 83.0833 85.156 82.57C85.576 82.0567 85.856 81.765 85.996 81.695C86.1127 81.625 86.206 81.5083 86.276 81.345C86.3693 81.1583 86.4277 81.0417 86.451 80.995C86.521 80.6217 86.766 80.435 87.186 80.435C87.326 80.435 87.431 80.4467 87.501 80.47L88.866 81.52C88.8427 81.6133 88.831 81.765 88.831 81.975C88.831 82.3017 88.9243 82.7917 89.111 83.445C89.0877 83.515 89.076 83.62 89.076 83.76C89.076 83.9467 89.0877 84.1333 89.111 84.32C89.1577 84.4833 89.181 84.6583 89.181 84.845C89.181 84.985 89.1693 85.09 89.146 85.16C89.146 85.6033 89.2627 85.825 89.496 85.825C89.6593 85.825 89.8577 85.7083 90.091 85.475C90.7443 84.6583 91.981 83.34 93.801 81.52C94.4777 80.8433 94.8393 80.47 94.886 80.4C94.956 80.2833 95.0727 80.225 95.236 80.225C95.3527 80.225 95.446 80.2483 95.516 80.295C95.8427 80.4583 96.0877 80.5983 96.251 80.715C96.4377 80.8317 96.6593 81.0183 96.916 81.275C97.056 81.4383 97.126 81.6133 97.126 81.8C97.126 81.9167 97.091 82.0333 97.021 82.15C96.811 82.64 96.531 83.6083 96.181 85.055C95.831 86.4783 95.6443 87.4817 95.621 88.065C95.621 88.2283 95.5977 88.485 95.551 88.835C95.5277 89.1617 95.516 89.4533 95.516 89.71C95.516 90.2233 95.5627 90.6783 95.656 91.075C95.7727 91.5183 95.831 91.8917 95.831 92.195C95.831 92.4283 95.7727 92.5917 95.656 92.685C95.5627 92.7783 95.376 92.8483 95.096 92.895ZM108.508 92.93C107.948 92.3933 107.528 91.6 107.248 90.55C107.201 90.41 107.178 90.165 107.178 89.815C107.178 89.465 107.178 89.22 107.178 89.08C107.038 89.43 106.781 89.745 106.408 90.025C105.871 90.5617 105.334 90.9583 104.798 91.215C103.981 91.7517 103.316 92.02 102.803 92.02C102.336 92.02 101.893 91.7633 101.473 91.25C101.169 90.9933 100.936 90.7367 100.773 90.48C100.633 90.2233 100.563 89.9083 100.563 89.535C100.563 89.2783 100.598 88.9983 100.668 88.695C100.714 87.8317 100.831 87.0033 101.018 86.21C101.228 85.4167 101.613 84.4017 102.173 83.165C102.919 81.695 103.456 80.715 103.783 80.225C103.899 80.1783 104.051 80.155 104.238 80.155C104.471 80.155 104.658 80.225 104.798 80.365C104.961 80.505 105.054 80.6917 105.078 80.925C105.148 81.0183 105.183 81.1467 105.183 81.31C105.183 81.8933 104.833 82.85 104.133 84.18C103.223 86.3733 102.768 87.89 102.768 88.73C102.768 89.22 102.908 89.5117 103.188 89.605C103.304 89.675 103.433 89.71 103.573 89.71C104.156 89.71 104.856 89.3133 105.673 88.52C106.489 87.7267 107.271 86.455 108.018 84.705C108.344 83.9117 108.543 83.095 108.613 82.255C108.589 82.185 108.578 82.08 108.578 81.94C108.578 81.52 108.788 81.1817 109.208 80.925C109.301 80.785 109.429 80.68 109.593 80.61C109.756 80.5167 109.861 80.5167 109.908 80.61L110.468 80.575C110.538 80.5517 110.608 80.6217 110.678 80.785C110.748 80.925 110.818 81.0183 110.888 81.065C111.051 81.205 111.133 81.4617 111.133 81.835C111.133 82.605 110.794 83.7833 110.118 85.37C109.674 86.3033 109.371 87.0267 109.208 87.54C109.068 88.03 108.986 88.5083 108.963 88.975C108.963 89.8617 109.301 90.5967 109.978 91.18C110.211 91.3433 110.351 91.5183 110.398 91.705C110.444 91.8917 110.456 92.1483 110.433 92.475C110.386 92.685 110.246 92.86 110.013 93C109.803 93.1167 109.569 93.175 109.313 93.175C109.009 93.175 108.741 93.0933 108.508 92.93ZM128.748 92.195C128.025 92.195 127.547 92.16 127.313 92.09C127.08 91.9967 126.812 91.81 126.508 91.53C126.275 91.0633 126.042 90.7133 125.808 90.48C125.715 90.2233 125.668 89.8383 125.668 89.325C125.668 88.7417 125.738 88.1117 125.878 87.435C126.018 86.735 126.205 86.0817 126.438 85.475C126.532 85.2883 126.602 85.1133 126.648 84.95C126.718 84.7867 126.765 84.6817 126.788 84.635C126.788 84.4717 127.08 83.97 127.663 83.13C128.27 82.2667 128.748 81.6717 129.098 81.345C129.262 81.1583 129.507 80.96 129.833 80.75C130.183 80.54 130.487 80.3883 130.743 80.295C131.397 80.0617 131.968 79.945 132.458 79.945C133.135 79.945 133.707 80.26 134.173 80.89C134.687 81.4033 134.943 81.975 134.943 82.605C134.943 82.8383 134.908 83.095 134.838 83.375C134.605 84.3083 134.267 84.775 133.823 84.775C133.52 84.775 133.228 84.6 132.948 84.25C132.855 84.0167 132.808 83.865 132.808 83.795C132.808 83.725 132.855 83.5267 132.948 83.2C132.995 82.9667 133.018 82.8033 133.018 82.71C133.018 82.43 132.972 82.185 132.878 81.975C132.785 81.765 132.657 81.66 132.493 81.66C131.957 81.66 131.257 82.1267 130.393 83.06C130.09 83.3867 129.693 83.9 129.203 84.6C128.737 85.3 128.387 85.93 128.153 86.49C127.92 87.19 127.733 87.7617 127.593 88.205C127.453 88.6483 127.36 88.9283 127.313 89.045C127.313 89.0917 127.337 89.1733 127.383 89.29C127.453 89.4067 127.488 89.5 127.488 89.57C127.488 89.7333 127.523 89.8617 127.593 89.955C127.663 90.0483 127.792 90.1417 127.978 90.235C128.235 90.4217 128.538 90.515 128.888 90.515C129.262 90.515 129.693 90.3983 130.183 90.165C130.487 90.025 130.918 89.7217 131.478 89.255L132.318 88.625C132.482 88.5083 132.622 88.415 132.738 88.345C132.878 88.2517 132.983 88.1933 133.053 88.17C133.123 88.1233 133.158 88.1233 133.158 88.17C133.158 88.2633 133.193 88.31 133.263 88.31C133.333 88.31 133.415 88.2633 133.508 88.17C133.718 87.89 133.987 87.75 134.313 87.75C134.5 87.75 134.593 87.785 134.593 87.855L134.558 88.03C134.558 88.1467 134.617 88.2633 134.733 88.38C134.733 88.4733 134.698 88.6017 134.628 88.765C134.582 88.905 134.512 89.0217 134.418 89.115C134.278 89.325 134.033 89.5817 133.683 89.885C133.357 90.165 133.135 90.3517 133.018 90.445H132.983C132.867 90.445 132.703 90.55 132.493 90.76C132.143 91.0867 131.84 91.25 131.583 91.25C131.49 91.2967 131.385 91.355 131.268 91.425C131.152 91.4717 131.093 91.53 131.093 91.6C130.86 91.8333 130.58 91.9967 130.253 92.09C129.927 92.16 129.425 92.195 128.748 92.195ZM144.344 88.205C144.134 88.5083 144.029 88.7183 144.029 88.835C144.029 88.905 144.052 88.9983 144.099 89.115C144.169 89.2083 144.169 89.3483 144.099 89.535C144.052 89.7217 144.029 89.885 144.029 90.025C144.029 90.445 144.157 90.9 144.414 91.39C144.67 91.8567 144.997 92.2417 145.394 92.545C145.79 92.825 146.187 92.9417 146.584 92.895C147.05 92.8483 147.47 92.7433 147.844 92.58C151.32 90.9933 153.525 88.5433 154.459 85.23C154.505 85.1133 154.529 84.8917 154.529 84.565C154.552 84.2383 154.61 83.9933 154.704 83.83V83.445C154.587 83.2117 154.505 82.8733 154.459 82.43C154.389 82.01 154.295 81.6833 154.179 81.45C154.062 81.2167 153.805 80.995 153.409 80.785C153.245 80.6917 153.059 80.575 152.849 80.435C152.639 80.295 152.44 80.19 152.254 80.12C152.09 80.05 151.915 80.015 151.729 80.015C150.329 80.015 149.092 80.5517 148.019 81.625C146.969 82.6983 145.977 84.0633 145.044 85.72H142.979L142.804 85.615C142.85 84.985 143.422 83.6667 144.519 81.66L144.974 80.75C144.81 80.4 144.46 80.015 143.924 79.595C143.737 79.4783 143.597 79.42 143.504 79.42C143.317 79.42 143.154 79.5133 143.014 79.7C142.897 79.8867 142.769 80.1433 142.629 80.47C142.582 80.54 142.524 80.6567 142.454 80.82C142.384 80.9833 142.314 81.1 142.244 81.17C142.22 81.38 142.15 81.59 142.034 81.8C141.917 82.01 141.835 82.1617 141.789 82.255C141.322 83.165 140.925 84.1217 140.599 85.125C140.272 86.1283 139.957 87.2717 139.654 88.555C139.584 88.8117 139.525 89.0567 139.479 89.29C139.455 89.5233 139.42 89.7333 139.374 89.92C139.187 91.0867 139 91.8917 138.814 92.335C138.86 92.405 138.919 92.5217 138.989 92.685C139.059 92.8483 139.175 92.9767 139.339 93.07C139.479 93.07 139.665 93.105 139.899 93.175C140.132 93.2683 140.307 93.315 140.424 93.315H140.494C140.634 93.315 140.75 93.28 140.844 93.21C140.937 93.14 140.984 93.035 140.984 92.895C140.984 92.3583 141.077 91.5067 141.264 90.34C141.45 89.1733 141.66 88.24 141.894 87.54H144.134L144.344 88.205ZM152.219 82.5C152.359 82.85 152.429 83.2467 152.429 83.69C152.429 84.6933 152.079 85.8133 151.379 87.05C150.702 88.2633 149.909 89.2783 148.999 90.095C148.089 90.8883 147.354 91.215 146.794 91.075C146.747 91.0517 146.642 91.0283 146.479 91.005C146.339 90.9583 146.234 90.8767 146.164 90.76C145.954 90.41 145.86 90.1067 145.884 89.85C145.977 89.08 146.28 88.135 146.794 87.015C147.307 85.895 147.937 84.8917 148.684 84.005C149.43 83.095 150.165 82.5233 150.889 82.29C151.005 82.2433 151.145 82.22 151.309 82.22C151.449 82.22 151.612 82.255 151.799 82.325C151.985 82.395 152.125 82.4533 152.219 82.5ZM169.016 76.34C169.343 77.0633 169.506 77.8333 169.506 78.65C169.506 79.3733 169.413 80.0967 169.226 80.82C169.04 81.5433 168.76 82.4067 168.386 83.41L167.861 85.055C167.838 85.1483 167.756 85.3117 167.616 85.545C167.476 85.755 167.418 85.93 167.441 86.07L166.986 86.98C166.31 88.38 165.668 89.5 165.061 90.34C164.478 91.1567 163.661 91.81 162.611 92.3C162.378 92.44 162.063 92.58 161.666 92.72C161.293 92.8367 161.025 92.86 160.861 92.79C160.768 92.7667 160.663 92.755 160.546 92.755C160.43 92.755 160.325 92.7433 160.231 92.72C158.948 91.88 158.306 90.7017 158.306 89.185C158.306 88.205 158.563 87.085 159.076 85.825C159.1 85.755 159.181 85.545 159.321 85.195C159.461 84.845 159.613 84.53 159.776 84.25C159.94 83.97 160.115 83.7367 160.301 83.55C160.535 83.0367 161.013 82.4533 161.736 81.8C162.483 81.1467 163.148 80.6917 163.731 80.435C163.918 80.3417 164.14 80.2483 164.396 80.155C164.676 80.0383 164.898 79.9333 165.061 79.84C165.598 79.84 165.995 79.91 166.251 80.05C166.508 80.19 166.695 80.47 166.811 80.89C166.835 80.75 166.928 80.2833 167.091 79.49C167.255 78.6967 167.301 78.16 167.231 77.88C167.208 77.7867 167.161 77.67 167.091 77.53C167.021 77.3667 167.045 77.2267 167.161 77.11C167.068 76.9933 166.881 76.48 166.601 75.57C166.368 74.8233 165.948 74.2633 165.341 73.89C164.735 73.5167 164.035 73.33 163.241 73.33C162.775 73.33 162.296 73.4 161.806 73.54C161.69 73.5867 161.55 73.6217 161.386 73.645C161.223 73.6683 161.083 73.6917 160.966 73.715C160.523 73.5517 160.208 73.155 160.021 72.525C159.998 72.105 160.138 71.8133 160.441 71.65C160.745 71.4633 161.165 71.3233 161.701 71.23C162.075 71.1833 162.343 71.1133 162.506 71.02C162.786 71.09 163.066 71.125 163.346 71.125C163.86 71.1717 164.233 71.2533 164.466 71.37C164.91 71.5333 165.166 71.6267 165.236 71.65C165.633 71.79 165.948 71.93 166.181 72.07C166.438 72.21 166.671 72.4317 166.881 72.735C166.998 72.9217 167.208 73.1667 167.511 73.47C167.838 73.7967 168.071 74.0883 168.211 74.345C168.258 74.4383 168.41 74.73 168.666 75.22C168.923 75.6867 169.04 76.06 169.016 76.34ZM163.066 89.78C163.86 88.9867 164.595 87.7617 165.271 86.105C165.971 84.425 166.391 82.9433 166.531 81.66L165.761 82.01C164.431 82.4767 163.381 83.1417 162.611 84.005C161.865 84.8683 161.141 86.0467 160.441 87.54C160.301 87.8433 160.196 88.2167 160.126 88.66C160.08 89.1033 160.033 89.43 159.986 89.64V89.78C159.986 90.1067 160.091 90.3983 160.301 90.655C160.441 90.8183 160.64 90.9 160.896 90.9C161.176 90.9 161.491 90.83 161.841 90.69C162.191 90.5267 162.425 90.375 162.541 90.235C162.775 90.0483 162.95 89.8967 163.066 89.78ZM173.816 91.845C173.396 91.9383 172.941 91.81 172.451 91.46C171.961 91.11 171.67 90.725 171.576 90.305C171.553 90.2117 171.541 90.06 171.541 89.85C171.541 88.9867 171.868 87.8783 172.521 86.525C173.198 85.1483 174.015 83.8883 174.971 82.745C175.928 81.5783 176.803 80.8433 177.596 80.54C178.086 80.2833 178.401 80.155 178.541 80.155C178.681 80.155 178.996 80.2833 179.486 80.54C179.813 80.6333 180.058 80.7383 180.221 80.855C180.385 80.9717 180.595 81.205 180.851 81.555C181.155 82.1617 181.376 82.9083 181.516 83.795C181.656 84.285 181.726 84.635 181.726 84.845C181.726 85.0317 181.656 85.195 181.516 85.335C181.493 85.3583 181.446 85.405 181.376 85.475C181.33 85.545 181.306 85.6033 181.306 85.65C181.306 85.6733 181.33 85.685 181.376 85.685C181.376 85.7083 181.365 85.7667 181.341 85.86C181.318 85.93 181.271 86.035 181.201 86.175C180.921 87.0617 180.781 87.82 180.781 88.45C180.781 88.66 180.805 88.8817 180.851 89.115C181.085 89.7217 181.481 90.025 182.041 90.025C182.508 90.025 182.951 89.815 183.371 89.395C183.745 89.1383 184.013 88.9633 184.176 88.87C184.363 88.7533 184.456 88.7767 184.456 88.94C184.48 88.9633 184.526 88.9983 184.596 89.045C184.666 89.0917 184.736 89.115 184.806 89.115C184.97 89.115 185.051 89.22 185.051 89.43C185.051 89.64 184.97 89.8733 184.806 90.13C184.643 90.2933 184.515 90.4333 184.421 90.55C184.328 90.6667 184.281 90.76 184.281 90.83L183.756 91.32C183.313 91.5767 182.788 91.705 182.181 91.705C181.551 91.705 181.05 91.5767 180.676 91.32C180.35 91.0867 180.035 90.7483 179.731 90.305C179.428 89.8617 179.23 89.465 179.136 89.115L178.961 88.765L177.946 89.43C177.713 89.6633 177.445 89.9083 177.141 90.165C176.838 90.3983 176.64 90.5617 176.546 90.655C176.36 90.8883 176.196 91.005 176.056 91.005H175.706C175.706 91.1683 175.473 91.355 175.006 91.565C174.563 91.7517 174.166 91.845 173.816 91.845ZM173.466 89.955C173.723 89.955 174.376 89.5933 175.426 88.87C176.476 88.1233 177.141 87.575 177.421 87.225L178.436 86.175C178.81 85.755 179.101 85.2767 179.311 84.74C179.545 84.2033 179.661 83.7133 179.661 83.27C179.661 82.8733 179.603 82.5933 179.486 82.43C179.393 82.15 179.253 82.01 179.066 82.01C178.973 82.01 178.705 82.0917 178.261 82.255C177.818 82.535 177.188 83.1767 176.371 84.18C175.578 85.1833 174.866 86.2217 174.236 87.295C173.606 88.345 173.291 89.115 173.291 89.605C173.291 89.675 173.315 89.745 173.361 89.815C173.408 89.885 173.443 89.9317 173.466 89.955Z" fill="#3A3C51"/>
<g clip-path="url(#clip0)">
<path d="M61.7387 11L60.2687 11.3C59.2687 11.5 57.8887 11.78 56.1287 12.2L53.3187 13.05C52.1891 13.3634 51.0802 13.7475 49.9987 14.2L46.3087 15.7L42.3587 17.7C39.4537 19.2725 36.6604 21.0434 33.9987 23C31.0221 25.1839 28.2385 27.6196 25.6787 30.28L24.6787 31.28L23.6787 32.38L21.7687 34.61C21.0987 35.34 20.5487 36.17 19.9587 36.96L18.1887 39.37C17.1087 41.06 16.0387 42.77 15.0187 44.51L13.6187 47.2C13.1462 48.1087 12.7255 49.0436 12.3587 50C11.5887 51.87 10.6987 53.68 10.1287 55.61L9.12873 58.44C8.83873 59.39 8.61873 60.36 8.36873 61.31C8.11873 62.26 7.84873 63.2 7.65873 64.16L7.19873 67L6.93873 68.41L6.86873 68.76V68.94C6.86873 68.8 6.86873 68.94 6.86873 68.94V69.08L6.77873 69.82C6.66873 70.82 6.52873 71.82 6.49873 72.69C6.22961 76.215 6.29658 79.7576 6.69873 83.27C7.02676 86.4065 7.65634 89.5042 8.57873 92.52C9.32961 95.058 10.3347 97.5138 11.5787 99.85L11.9687 100.63L12.3987 101.35L13.2287 102.72L14.7787 105C15.3287 105.65 15.7787 106.24 16.2487 106.77C16.7187 107.3 17.1087 107.66 17.4187 108.02L18.4187 109.08L18.5187 109.19C18.7305 109.428 18.8514 109.733 18.86 110.051C18.8686 110.37 18.7643 110.681 18.5657 110.93C18.367 111.179 18.0867 111.349 17.7743 111.412C17.462 111.474 17.1377 111.424 16.8587 111.27L15.4887 110.47C14.194 109.691 12.9694 108.801 11.8287 107.81C11.1387 107.13 10.3087 106.41 9.51873 105.53L8.32873 104.11L7.70873 103.35L7.12873 102.53C5.36279 100.023 3.93076 97.2967 2.86873 94.42C1.59594 91.0652 0.746062 87.5649 0.338735 84C-0.0868698 80.0113 -0.0868698 75.9886 0.338735 72C0.428735 70.91 0.598735 70 0.738735 69L0.848735 68.26V68V67.81L0.998735 67.42L1.33873 65.88L1.99873 62.78C2.25873 61.78 2.62873 60.78 2.94873 59.72C3.26873 58.66 3.56873 57.66 3.94873 56.66L5.19873 53.66C6.03942 51.6685 6.98406 49.7225 8.02873 47.83C8.53028 46.8572 9.08443 45.9125 9.68873 45L11.3887 42.26C12.6087 40.5 13.8687 38.78 15.1387 37.1L17.1387 34.68C17.8187 33.89 18.4487 33.06 19.1887 32.34L21.3287 30.13L22.3287 29.03L23.4387 28.03C24.9387 26.7 26.3287 25.31 27.8787 24.17C29.4287 23.03 30.8087 21.75 32.3587 20.77C35.1623 18.7898 38.0993 17.0055 41.1487 15.43L45.2487 13.43L49.0787 11.89C50.2064 11.4284 51.3581 11.0279 52.5287 10.69L55.5287 9.68997C57.3087 9.21997 58.7087 8.93997 59.6587 8.68997L61.1187 8.32997C61.4728 8.24112 61.8477 8.29656 62.1608 8.4841C62.474 8.67164 62.6999 8.9759 62.7887 9.32997C62.8776 9.68403 62.8221 10.0589 62.6346 10.3721C62.4471 10.6853 62.1428 10.9111 61.7887 11H61.7387Z" fill="#3A3C51"/>
<path d="M59.4977 0.449953C59.7477 0.729953 59.9976 0.999953 60.2576 1.26995L60.9977 1.99995C61.5408 2.44157 62.1083 2.85222 62.6977 3.22995C63.2885 3.61226 63.8994 3.96276 64.5276 4.27995C65.1576 4.58995 65.8177 4.85995 66.4677 5.10995C67.1227 5.34419 67.7904 5.54117 68.4677 5.69995C69.1587 5.83568 69.8563 5.93582 70.5576 5.99995C71.246 6.05851 71.9369 6.08188 72.6276 6.06995C73.3076 6.06995 73.9876 6.00995 74.6276 5.93995C75.1074 5.89888 75.5883 6.00555 76.0057 6.24564C76.4231 6.48574 76.757 6.84776 76.9627 7.28313C77.1685 7.7185 77.2361 8.20638 77.1565 8.68129C77.0769 9.15619 76.854 9.5954 76.5176 9.93995L75.9576 10.49L73.1477 13.23C72.2077 14.13 71.2676 15.02 70.3076 15.88C69.3518 16.7646 68.3288 17.5737 67.2477 18.3C66.6847 18.6621 66.1039 18.9958 65.5077 19.3C65.1877 19.45 64.8877 19.62 64.5077 19.76C64.4377 19.76 64.2877 19.9 64.3677 19.76C64.4433 19.5238 64.4838 19.2779 64.4876 19.03C64.4762 18.7241 64.3676 18.4299 64.1777 18.19L64.0377 18.01L63.9977 18.07C63.8033 17.8934 63.5649 17.7724 63.3077 17.72C63.0275 17.6625 62.7362 17.6976 62.4776 17.82C62.221 17.9424 62.0157 18.1512 61.8977 18.41C61.8081 18.5835 61.7572 18.7744 61.7486 18.9695C61.74 19.1646 61.7738 19.3592 61.8476 19.54C61.914 19.7128 62.0163 19.8695 62.1477 20C62.2471 20.098 62.362 20.179 62.4877 20.24C62.5703 20.2804 62.6576 20.3107 62.7477 20.33H62.9477C62.7633 20.3224 62.5825 20.2772 62.4163 20.1971C62.2501 20.117 62.1022 20.0036 61.9815 19.8641C61.8608 19.7245 61.77 19.5617 61.7147 19.3857C61.6595 19.2097 61.6408 19.0243 61.66 18.8408C61.6792 18.6573 61.7357 18.4797 61.8262 18.3189C61.9167 18.1582 62.0392 18.0177 62.1861 17.9061C62.333 17.7945 62.5012 17.7142 62.6803 17.6701C62.8595 17.6261 63.0457 17.6192 63.2276 17.65H63.4677C63.5683 17.6702 63.6659 17.7038 63.7576 17.75C63.8905 17.8173 64.0119 17.9051 64.1177 18.01C64.2563 18.15 64.3652 18.3167 64.4377 18.5C64.5174 18.7009 64.5524 18.9168 64.5403 19.1327C64.5282 19.3485 64.4693 19.5592 64.3677 19.75C64.2057 20.084 63.9338 20.3523 63.5976 20.51C63.2858 20.6568 62.9339 20.6955 62.5976 20.62C62.3182 20.5624 62.0593 20.4312 61.8476 20.24L61.7776 20.17L61.6277 19.99C61.4234 19.6992 61.3087 19.3551 61.2976 19C61.2994 18.5836 61.4061 18.1743 61.6077 17.81C61.6943 17.689 61.7586 17.5535 61.7976 17.41C61.9176 17.05 62.0676 16.71 62.2076 16.41C62.5107 15.7498 62.8651 15.1145 63.2677 14.51C64.0554 13.3212 64.9931 12.2389 66.0576 11.29C67.1047 10.3109 68.2209 9.40859 69.3977 8.58995C70.5792 7.80113 71.8045 7.07997 73.0676 6.42995L74.3977 11C73.5777 10.85 72.7776 10.66 71.9876 10.44L70.8176 10.08L69.6777 9.66995L68.5576 9.22995L67.4576 8.74995L66.3776 8.24995L65.3176 7.71995C64.6177 7.35995 63.9377 6.95995 63.2677 6.55995C62.5977 6.15995 61.9477 5.70995 61.2677 5.27995C60.5877 4.84995 59.9977 4.35995 59.4277 3.87995L58.4977 3.11995C58.2177 2.86995 57.9276 2.63995 57.6376 2.39995C57.3592 2.17452 57.1817 1.84769 57.1441 1.49137C57.1066 1.13506 57.2122 0.778431 57.4376 0.499954C57.6631 0.221476 57.9899 0.0439579 58.3462 0.00645059C58.7025 -0.0310567 59.0592 0.0745194 59.3377 0.299953L59.4977 0.449953Z" fill="#3A3C51"/>
</g>
<defs>
<clipPath id="clip0">
<rect width="77.25" height="111.47" fill="white"/>
</clipPath>
</defs>
</svg>
