<svg xmlns="http://www.w3.org/2000/svg" width="72" height="141" fill="#c1cebe" xmlns:v="https://vecta.io/nano"><path d="M57.35 8.13a7.34 7.34 0 0 0-4.76 3.7 10.59 10.59 0 0 0-1.36 6.11 16.26 16.26 0 0 0 2 6.21 38.51 38.51 0 0 0 3.65 5.56 38.95 38.95 0 0 1 3.82 5.83 12.39 12.39 0 0 1 1.65 7 7.25 7.25 0 0 1-4.47 5.83 13.15 13.15 0 0 1-7.21.43 27.95 27.95 0 0 1-3.43-.84l-3.25-1a17.56 17.56 0 0 0-6.4-.82 7 7 0 0 0-2.85.89 6.39 6.39 0 0 0-2.08 2 8.06 8.06 0 0 0-.68 5.86 17.09 17.09 0 0 0 2.53 5.85c.28.46.63.87.94 1.3s.66.8 1.07 1.22l2.36 2.43a54.23 54.23 0 0 1 4.7 5.2 16.33 16.33 0 0 1 3.3 6.67 10.71 10.71 0 0 1 .12 3.93 7.12 7.12 0 0 1-.67 2l-.13.25-.07.12v.06l-.1.13-.25.35a6.56 6.56 0 0 1-.75.85 7.63 7.63 0 0 1-3.82 1.83 14.63 14.63 0 0 1-3.82.17 32.17 32.17 0 0 1-3.57-.48l-1.65-.27-1.57-.16a21 21 0 0 0-6.28.37 8.68 8.68 0 0 0-4.88 2.64l-.4.5-.3.56a2.8 2.8 0 0 0-.24.6l-.1.3v.08c0 .12 0-.12 0-.08v.2l-.16.82c-.04.25 0 .36 0 .54.003.434.05.866.14 1.3a12.63 12.63 0 0 0 2.81 5.17c1.37 1.67 2.9 3.16 4.6 4.85l.6.62.63.73c.43.5.78 1 1.15 1.5a20.39 20.39 0 0 1 1.7 3.35 14.3 14.3 0 0 1 1.17 3.74 9.12 9.12 0 0 1-.21 4.25 6.17 6.17 0 0 1-.41 1.06 5.03 5.03 0 0 1-.56 1c-.194.323-.425.62-.7.9l-.6.6-.14.12-.08.07c-.247.207-.507.398-.78.57a6.9 6.9 0 0 1-1 .57c-.322.157-.656.287-1 .4a7.49 7.49 0 0 1-1 .27c-2.417.335-4.866.365-7.3.1H15l-.85.1a7.12 7.12 0 0 0-.81.1l-.66.16c-.474.1-.938.258-1.4.44-1.904.747-3.613 1.916-5 3.42a13.87 13.87 0 0 0-3.226 5.26 13.86 13.86 0 0 0-.624 6.14l-2.14.17.52-5.57c.01-.22.108-.425.27-.572a.83.83 0 0 1 .276-.166c.102-.036.2-.053.32-.047a.81.81 0 0 1 .313.078.81.81 0 0 1 .259.192.81.81 0 0 1 .166.276c.036.102.053.2.047.32v5.6a1.08 1.08 0 0 1-2.12.24v-.07a14.81 14.81 0 0 1 .18-7.37 17.38 17.38 0 0 1 3.32-6.55 16.41 16.41 0 0 1 6-4.5 12.97 12.97 0 0 1 1.85-.66l1-.26c.34-.1.58-.1.88-.15l.85-.12 1-.06h1.8a26.72 26.72 0 0 0 6.35-.18 5.11 5.11 0 0 0 .64-.18 3.26 3.26 0 0 0 .58-.23 3.32 3.32 0 0 0 .46-.25 5.57 5.57 0 0 0 .6-.44l.08-.07h-.06l.3-.33a1.8 1.8 0 0 0 .35-.46c.118-.152.213-.32.28-.5a2.59 2.59 0 0 0 .2-.54c.48-1.5 0-3.47-.8-5.28-.376-.907-.827-1.78-1.35-2.6l-.93-1.22-.48-.57-.6-.63-4.76-5.1c-1.7-1.947-2.927-4.276-3.55-6.8-.14-.7-.207-1.395-.2-2.1 0-.4.05-.78.1-1.17s.1-.57.17-.85v-.57l.18-.5a5.74 5.74 0 0 1 .41-1l.53-.93.65-.85a9.84 9.84 0 0 1 3.48-2.5 14.4 14.4 0 0 1 3.67-1.22 24.01 24.01 0 0 1 7.33-.3c.6 0 1.22.15 1.83.23l1.72.32a26.64 26.64 0 0 0 3.2.5c2.07.22 4.16 0 5.3-1 .1-.14.2-.12.4-.4l.26-.34s.08-.12 0 0v-.06l.07-.13a4.14 4.14 0 0 0 .42-1.19 7.88 7.88 0 0 0 0-2.87 13.59 13.59 0 0 0-2.55-5.6 52.08 52.08 0 0 0-4.34-5.06l-2.33-2.55c-.826-.885-1.575-1.84-2.24-2.85a19.3 19.3 0 0 1-2.74-6.7 10.14 10.14 0 0 1 1.09-7.37 6.23 6.23 0 0 1 .62-.82l.34-.4.32-.3.56-.5.1-.1h.05l.82-.52a9 9 0 0 1 3.65-1.08 19.29 19.29 0 0 1 7.08 1 56.93 56.93 0 0 0 6.48 1.88 11.56 11.56 0 0 0 6.28-.27 5.63 5.63 0 0 0 3.51-4.49 10.88 10.88 0 0 0-1.44-6.11 37.48 37.48 0 0 0-3.66-5.6c-1.437-1.826-2.7-3.773-3.8-5.82a18.29 18.29 0 0 1-2.14-6.75 12.13 12.13 0 0 1 1.47-7.08 10.09 10.09 0 0 1 2.36-2.84 9.19 9.19 0 0 1 1.58-1l.92-.4.8-.25c.104-.03.212-.04.32-.028a.82.82 0 0 1 .306.097c.095.052.178.122.246.206a.8.8 0 0 1 .148.285c.03.105.04.212.028.32a.83.83 0 0 1-.097.306c-.052.096-.122.178-.206.246a.82.82 0 0 1-.285.148l.01.01zm5.37 1.9l-1.46-2.08-1.4-2.1c-.97-1.4-1.8-2.83-2.64-4.3a.85.85 0 0 1 .87-1.27h.1a27.66 27.66 0 0 0 5.79.35c1 0 1.92-.12 2.87-.2l2.83-.4a1.71 1.71 0 0 1 1.712.801 1.71 1.71 0 0 1-.072 1.889l-.08.1-1.52 2-1.62 1.92a23.09 23.09 0 0 1-1.8 1.78 15.6 15.6 0 0 1-2 1.6.79.79 0 0 1-1.18-.93 15.58 15.58 0 0 1 1.06-2.35 24.84 24.84 0 0 1 1.3-2.17c.46-.7 1-1.37 1.47-2l1.58-2 1.57 2.8a25.72 25.72 0 0 1-3.13.08 30.23 30.23 0 0 1-3.09-.25c-2.026-.3-4.03-.73-6-1.3l1-1.25c.66 1.497 1.414 2.95 2.26 4.35l1.36 2 1.52 1.94a.76.76 0 0 1-.07 1.07.76.76 0 0 1-1.07-.07v-.06l-.16.04z"/></svg>