<svg xmlns="http://www.w3.org/2000/svg" width="146" height="147" fill="#c1cebe" xmlns:v="https://vecta.io/nano"><path d="M92.185 1.444l-1.247.96-3.5 2.782-5.274 4.63-3.048 2.977-3.243 3.473c-2.2 2.478-4.543 5.198-6.784 8.27-2.38 3.197-4.596 6.512-6.642 9.93a123.4 123.4 0 0 0-6.027 11.286 120 120 0 0 0-5.004 12.257c-1.447 4.182-2.66 8.442-3.63 12.76a112.41 112.41 0 0 0-2.103 12.724c-.202 2.08-.412 4.124-.465 6.154l-.2 5.877c-.033 1.895.096 3.783.12 5.565s.25 3.54.456 5.223.355 3.25.638 4.756l.77 4.253.873 3.68c.28 1.137.64 2.196.87 3.1a24.35 24.35 0 0 0 .77 2.478l.63 1.808.545 1.496a.97.97 0 0 0 .156.337.95.95 0 0 0 .273.252c.107.065.225.108.35.128a.94.94 0 0 0 .37-.015.97.97 0 0 0 .337-.156.94.94 0 0 0 .252-.274.95.95 0 0 0 .113-.719l-.248-1.555c-.153-1-.464-2.472-.714-4.352l-.475-3.102-.456-3.66c-.317-2.608-.57-5.562-.8-8.785-.107-1.612-.136-3.288-.243-5.027s-.102-3.535-.047-5.38c-.025-3.698.204-7.595.53-11.606.08-1.004.2-2.016.318-3.035s.224-2.045.38-3.07l.43-3.106.544-3.12c.776-4.225 1.77-8.408 2.98-12.53a117 117 0 0 1 4.163-12.246 105.55 105.55 0 0 1 5.454-11.276c.498-.915 1.024-1.8 1.508-2.617l1.543-2.54c1.088-1.624 2.113-3.256 3.258-4.7 2.12-3.093 4.377-5.798 6.508-8.276 1.083-1.222 2.174-2.337 3.18-3.424l3.012-2.956 2.74-2.495c.873-.754 1.683-1.36 2.45-2.006 1.437-1.2 2.684-2.085 3.508-2.7l1.247-.904a.95.95 0 0 0-1.117-1.529l-.02.007zm-53.95 125.092l2.243 1.842c.73.612 1.413 1.316 2.103 1.998a49.34 49.34 0 0 1 3.846 4.331l1.722 2.325 1.58 2.4 2.754 5.05a1.71 1.71 0 0 0 .627.732c.275.18.594.276.922.28a1.72 1.72 0 0 0 1.571-.977l.126-.255 1.085-2.388 1.12-2.34 1.1-2.346 1.078-2.353 1.95-4.8c.607-1.66 1.078-3.368 1.4-5.105.04-.27-.028-.543-.185-.764a1.06 1.06 0 0 0-.662-.427 1.01 1.01 0 0 0-.48.004 1 1 0 0 0-.423.227 23.3 23.3 0 0 0-1.715 2.1l-1.48 2.22a38.92 38.92 0 0 0-2.474 4.686l-2.02 4.88-1.673 5.03 3.202-.263-1.808-2.438-1.892-2.353-1.956-2.288-2.005-2.24-2.06-2.183-6.394-6.333a1 1 0 0 0-.73-.227.99.99 0 0 0-.677.354 1 1 0 0 0 .007 1.414l.192.204z"/></svg>