<svg xmlns="http://www.w3.org/2000/svg" width="74" height="121" fill="#c1cebe" xmlns:v="https://vecta.io/nano"><path d="M56.628 96.03l-3.96-9.9c-1.393-3.265-2.626-6.588-3.992-9.865a1.59 1.59 0 0 0-.853-.853L29.188 67.62l.934 2.7 9.736-16.755a2 2 0 0 0-1.236-2.898L17.842 44.9l1.2 2.993a56.21 56.21 0 0 0 4.611-9.578c1.247-3.324 2.17-6.762 2.753-10.264a1.87 1.87 0 0 0-1.453-2.131A70.65 70.65 0 0 1 8.68 20.214l.728 2.266L17.22 6.546a1.28 1.28 0 0 0-.55-1.722 1.28 1.28 0 0 0-1.722.55L6.4 20.985a1.64 1.64 0 0 0 .654 2.221l.02.046a74.22 74.22 0 0 0 17.103 6.271l-1.44-2.18c-.318 1.625-.697 3.233-1.2 4.856s-.986 3.117-1.565 4.7-1.26 3.06-2 4.54-1.52 2.932-2.386 4.345a2 2 0 0 0 1.167 2.992l20.8 5.742-1.244-2.916-9.472 16.838a1.87 1.87 0 0 0 .71 2.556l.244.113 18.823 7.32-.87-.9c1.393 3.265 2.902 6.47 4.36 9.708l4.414 9.685c.12.284.35.5.637.624a1.17 1.17 0 0 0 .892-.01c.285-.122.508-.35.624-.637a1.16 1.16 0 0 0-.01-.892l-.024.02zm-12.255 3.793l4.152 2.903 3.98 3.14 1.93 1.645 1.896 1.7 3.676 3.52a2.29 2.29 0 0 0 2.173.559 2.28 2.28 0 0 0 1.008-.571 2.29 2.29 0 0 0 .6-.99l.176-.608 1.26-4.7c.4-1.588.688-3.153.94-4.75a28.12 28.12 0 0 0 .408-4.828c-.002-.826-.05-1.652-.142-2.473a15.22 15.22 0 0 0-.461-2.532 1.5 1.5 0 0 0-2.64-.428 13.93 13.93 0 0 0-1.283 2.243c-.35.748-.657 1.515-.923 2.296-.527 1.533-.92 3.1-1.176 4.7l-.617 4.797-.302 4.847 3.96-1.624-2.238-1.22-2.23-1.223-2.174-1.247c-.724-.398-1.46-.877-2.16-1.34l-4.2-2.84-4.03-3.075a1.34 1.34 0 0 0-1.914.156 1.34 1.34 0 0 0 .208 1.909l.12.025z"/></svg>