<svg xmlns="http://www.w3.org/2000/svg" width="186" height="112" fill="none" xmlns:v="https://vecta.io/nano"><path d="M61.175 94.015c-.35-.093-.63-.303-.84-.63-.187-.327-.222-.583-.105-.77l.315-.84c.163-.513.303-.875.42-1.085a4.27 4.27 0 0 0 .385-1.05l.245-.77 1.2-3.15c.117-.233.292-.677.525-1.33l.175-.5.245-.63c-.9.56-1.552 1.05-1.925 1.47a22.83 22.83 0 0 1-2.275 1.995L57.7 88.24c-.023.07-.525.42-1.505 1.05l-2.345 1.47-1.295.875c-.7.513-1.342.9-1.925 1.2-.303.187-.56.28-.77.28-.14 0-.315-.047-.525-.14-.2-.117-.408-.2-.595-.28 0-.07-.058-.187-.175-.35-.093-.163-.14-.303-.14-.42s.082-.245.245-.385c.14-.163.863-.665 2.17-1.505l.875-.56.9-.63 1.2-.735 1.33-.77c.723-.443 1.178-.758 1.365-.945a25.73 25.73 0 0 1 .735-.56l4.06-3.08c.583-.397.992-.933 1.225-1.6-.117-.233-.455-.793-1.015-1.68l-1.2-1.855-1.82-2.205-1.33-1.9-1.295-1.96-.665-.875c-.14-.257-.222-.537-.245-.84.14-.233.35-.35.63-.35.117 0 .222.023.315.07.14.07.373.163.7.28.35.117.607.292.77.525l.5.525c.2.187.42.455.63.805l4.55 6.44c.117.14.338.467.665.98l.595.945c.047.14.117.2.2.2s.198-.082.315-.245l.245-.315c-.023-.303.058-.782.245-1.435l.2-.665 1.05-3.535c.07-.42.2-.758.42-1.015.093-.163.163-.373.2-.63l.105-.595c.023-.093.07-.362.14-.805.093-.467.257-.898.5-1.295.07-.023.175-.035.315-.035.233 0 .432.07.595.2.187.14.35.315.5.525s.268.373.385.5l.035.385c0 .303-.07.548-.2.735l-.5 1.645c-.047.257-.163.677-.35 1.26l-.525 1.645-.28.9c-.07.5-.187.887-.35 1.2-.093.513-.257 1.132-.5 1.855l-.28 1.015v.07l.035.035c.093 0 .292-.198.595-.595l1.4-1.33 5.95-5.565c1.517-1.517 2.788-2.45 3.815-2.8l.5.42c.2.14.385.292.525.455.14.14.233.315.28.525-.35.653-.723 1.108-1.12 1.365-.607.303-1.237.712-1.9 1.225l-1.225.98c-.443.28-1.132.852-2.065 1.715l-2.065 1.96c-.14.14-.478.432-1.015.875-.537.42-1.038.957-1.505 1.6.047.07.163.292.35.665.28.607.537 1.027.77 1.26l1.085 1.715 1.435 2.1c.163.373.42.758.77 1.155.327.42.548.747.665.98.117.093.268.257.455.5.2.2.42.362.63.455.163.07.292.198.385.385.117.163.257.443.42.84-.14.397-.28.63-.42.7-.14.093-.513.163-1.12.2-.373-.093-.782-.327-1.225-.7-.443-.397-.793-.817-1.05-1.26l-2.24-3.5L68.665 86c-.047-.233-.175-.5-.385-.77-.187-.303-.303-.525-.35-.665s-.105-.245-.175-.315-.175-.117-.315-.14c-.163-.023-.303-.093-.42-.2s-.233-.257-.35-.42a4.45 4.45 0 0 0-.35-.49c-.2.723-.513 1.552-.9 2.485l-.455 1.12c-.023.07-.105.198-.245.385-.117.163-.175.315-.175.455 0 .047-.222.735-.665 2.065l-1.155 3.395c-.023.093-.07.222-.14.385-.047.163-.093.28-.14.35a.46.46 0 0 1-.21.21c-.233.163-.467.245-.7.245a1.15 1.15 0 0 1-.35-.07zm33.92-1.12a3.37 3.37 0 0 1-.525-.35c-.2-.187-.408-.338-.595-.455a10.93 10.93 0 0 0-.28-.875c-.117-.42-.163-.793-.14-1.12 0-.117-.035-.303-.105-.56-.047-.28-.035-.5.035-.63l-.035-.42c0-.84.198-2.147.595-3.92-.07-.093-.14-.152-.2-.175-.047-.023-.117.012-.2.105-.303.28-.747.758-1.33 1.435a4.98 4.98 0 0 1-.28.245.44.44 0 0 0-.21.385l-1.26 1.68-.525.735a3.37 3.37 0 0 0-.56 1.015 1.19 1.19 0 0 1-.35.49l-.245.2a4.41 4.41 0 0 0-.42-.14c-.14-.047-.257-.105-.35-.175l-.35-.35c-.467-.443-.653-.863-.56-1.26l-.035-.7.035-.63c.023-.28.035-.7.035-1.26 0-1.073-.058-1.738-.175-1.995-.257.023-.432.058-.525.105s-.2.187-.35.42c-.047.093-.187.315-.42.665l-.84 1.225-1.365 2.065-.77 1.225c-.28.327-.513.747-.7 1.26-.257.583-.513.747-.77.5-.5-.257-.852-.478-1.085-.665-.2-.373-.327-.747-.35-1.12a1.91 1.91 0 0 0 .245-.105 2.05 2.05 0 0 0 .21-.175.44.44 0 0 0 .105-.175l3.115-4.55c.117-.233.432-.677.945-1.33.047-.117.268-.432.665-.945.42-.513.7-.805.84-.875.117-.07.2-.187.28-.35l.175-.35c.07-.373.315-.56.735-.56.14 0 .245.012.315.035l1.365 1.05c-.023.093-.035.245-.035.455 0 .327.093.817.28 1.47-.023.07-.035.175-.035.315 0 .187.012.373.035.56a1.9 1.9 0 0 1 .07.525c0 .14-.012.245-.035.315 0 .443.117.665.35.665.163 0 .362-.117.595-.35.653-.817 1.9-2.135 3.7-3.955l1.085-1.12c.07-.117.187-.175.35-.175.117 0 .2.023.28.07.327.163.572.303.735.42.187.117.408.303.665.56.14.163.2.338.2.525 0 .117-.035.233-.105.35-.2.5-.5 1.458-.84 2.905-.35 1.423-.537 2.427-.56 3 0 .163-.023.42-.07.77l-.035.875c0 .513.047.968.14 1.365.117.443.175.817.175 1.12 0 .233-.058.397-.175.5-.093.093-.28.163-.56.2zm13.412.035c-.56-.537-.98-1.33-1.26-2.38-.047-.14-.07-.385-.07-.735v-.735c-.14.35-.397.665-.77.945-.537.537-1.074.933-1.6 1.2-.817.537-1.482.805-1.995.805-.467 0-.9-.257-1.33-.77-.304-.257-.537-.513-.7-.77-.14-.257-.2-.572-.2-.945 0-.257.035-.537.105-.84.046-.863.163-1.692.35-2.485.2-.793.595-1.808 1.155-3.045l1.6-2.94c.116-.047.268-.07.455-.07.233 0 .42.07.56.2.163.14.256.327.28.56.07.093.105.222.105.385 0 .583-.35 1.54-1.05 2.87-.9 2.193-1.365 3.7-1.365 4.55 0 .5.14.782.42.875.116.07.245.105.385.105.583 0 1.283-.397 2.1-1.2s1.598-2.065 2.345-3.815c.326-.793.525-1.6.595-2.45a1.04 1.04 0 0 1-.035-.315c0-.42.2-.758.63-1.015a.85.85 0 0 1 .385-.315c.163-.093.268-.093.315 0l.56-.035c.07-.023.14.047.2.2.07.14.14.233.2.28.163.14.245.397.245.77 0 .77-.34 1.948-1.015 3.535l-.9 2.17a6.36 6.36 0 0 0-.245 1.435c0 .887.338 1.622 1.015 2.205.233.163.373.338.42.525s.058.443.035.77c-.047.2-.187.385-.42.525a1.42 1.42 0 0 1-.7.175c-.304 0-.572-.082-.805-.245zm20.24-.735c-.723 0-1.2-.035-1.435-.105-.233-.093-.5-.28-.805-.56-.233-.467-.466-.817-.7-1.05-.093-.257-.14-.642-.14-1.155 0-.583.07-1.213.2-1.9.14-.7.327-1.353.56-1.96a2.97 2.97 0 0 0 .21-.525l.14-.315c0-.163.292-.665.875-1.505.607-.863 1.085-1.458 1.435-1.785.164-.187.41-.385.735-.595a5.49 5.49 0 0 1 .91-.455c.654-.233 1.225-.35 1.715-.35.677 0 1.25.315 1.715.945.514.513.77 1.085.77 1.715 0 .233-.035.5-.105.77-.233.933-.57 1.4-1.015 1.4-.303 0-.595-.175-.875-.525-.093-.233-.14-.385-.14-.455s.047-.268.14-.595c.047-.233.07-.397.07-.5 0-.28-.046-.525-.14-.735s-.22-.315-.385-.315c-.536 0-1.236.467-2.1 1.4-.303.327-.7.84-1.2 1.54-.466.7-.816 1.33-1.05 1.9l-.56 1.715-.28.84c0 .047.024.128.07.245.07.117.105.2.105.28 0 .163.035.292.105.385s.2.187.385.28c.257.187.56.28.9.28.374 0 .805-.117 1.295-.35.304-.14.735-.443 1.295-.9l.84-.63.42-.28c.14-.093.245-.152.315-.175.07-.047.105-.047.105 0 0 .093.035.14.105.14s.152-.047.245-.14c.2-.28.48-.42.805-.42.187 0 .28.035.28.105l-.035.175c0 .117.06.233.175.35 0 .093-.035.222-.105.385-.046.14-.116.257-.2.35-.14.2-.385.467-.735.77l-.665.56h-.035c-.116 0-.28.105-.5.315-.35.327-.653.5-.9.5l-.315.175c-.116.047-.175.105-.175.175-.233.233-.513.397-.84.5-.326.07-.828.105-1.505.105zm15.596-4c-.2.303-.315.513-.315.63a.8.8 0 0 0 .07.28c.07.093.07.233 0 .42a2.04 2.04 0 0 0-.07.49c0 .42.128.875.385 1.365.256.467.583.852.98 1.155.396.28.793.397 1.2.35.466-.047.886-.152 1.26-.315 3.476-1.587 5.68-4.037 6.615-7.35.046-.117.07-.338.07-.665.023-.327.08-.572.175-.735v-.385c-.117-.233-.2-.572-.245-1.015-.07-.42-.164-.747-.28-.98s-.374-.455-.77-.665l-.56-.35c-.2-.14-.41-.245-.595-.315-.164-.07-.34-.105-.525-.105-1.4 0-2.637.537-3.7 1.6-1.05 1.073-2.042 2.438-2.975 4.095h-2.065l-.175-.105c.046-.63.618-1.948 1.715-3.955l.455-.9c-.164-.35-.514-.735-1.05-1.155-.187-.117-.327-.175-.42-.175-.187 0-.35.093-.5.28-.117.187-.245.443-.385.77a2.34 2.34 0 0 0-.175.35c-.07.163-.14.28-.2.35a1.7 1.7 0 0 1-.21.63l-.245.455c-.467.9-.864 1.867-1.2 2.87l-.945 3.43-.175.735c-.024.233-.06.443-.105.63-.187 1.167-.374 1.972-.56 2.415a2.44 2.44 0 0 1 .175.35c.07.163.186.292.35.385.14 0 .326.035.56.105.233.093.408.14.525.14h.07c.14 0 .256-.035.35-.105s.14-.175.14-.315c0-.537.093-1.388.28-2.555s.396-2.1.63-2.8h2.24l.2.665zm7.875-5.705c.14.35.2.747.2 1.2 0 1.003-.35 2.123-1.05 3.36-.677 1.213-1.47 2.228-2.38 3.045-.9.793-1.645 1.12-2.205.98-.047-.023-.152-.047-.315-.07a.56.56 0 0 1-.315-.245c-.2-.35-.304-.653-.28-.9.093-.77.396-1.715.9-2.835s1.143-2.123 1.9-3c.746-.9 1.48-1.482 2.205-1.715.116-.047.256-.07.42-.07.14 0 .303.035.5.105l.42.175zm16.797-6.16c.327.723.5 1.493.5 2.3a8.64 8.64 0 0 1-.28 2.17c-.186.723-.466 1.587-.84 2.6l-.525 1.645c-.023.093-.105.257-.245.5-.14.2-.198.385-.175.525l-.455.9c-.676 1.4-1.318 2.52-1.925 3.36-.583.817-1.4 1.47-2.45 1.96-.233.14-.548.28-.945.42-.373.117-.64.14-.805.07a1.3 1.3 0 0 0-.315-.035 1.31 1.31 0 0 1-.315-.035c-1.283-.84-1.925-2.018-1.925-3.535 0-.98.257-2.1.77-3.36l.245-.63c.14-.35.292-.665.455-.945s.34-.513.525-.7c.234-.513.712-1.097 1.435-1.75.747-.653 1.412-1.108 1.995-1.365.187-.093.41-.187.665-.28l.665-.315c.537 0 .934.07 1.2.2s.444.42.56.84l.28-1.4c.164-.793.2-1.33.14-1.6a1.78 1.78 0 0 0-.14-.35.35.35 0 0 1 .07-.42c-.093-.117-.28-.63-.56-1.54-.233-.747-.653-1.307-1.26-1.68s-1.306-.56-2.1-.56c-.466 0-.945.07-1.435.2-.116.047-.256.082-.42.105l-.42.07c-.443-.163-.758-.56-.945-1.2-.023-.42.117-.712.42-.875.304-.187.724-.327 1.26-.42.374-.047.642-.117.805-.2a3.45 3.45 0 0 0 .84.105c.514.047.887.128 1.12.245l.77.28c.397.14.712.28.945.42.257.14.5.362.7.665.117.187.327.432.63.735.327.327.56.618.7.875l.455.875c.257.467.374.84.35 1.12zm-5.95 13.44c.794-.793 1.53-2.018 2.205-3.675.7-1.68 1.12-3.162 1.26-4.445l-.77.35c-1.33.467-2.38 1.132-3.15 1.995-.746.863-1.47 2.042-2.17 3.535-.14.303-.245.677-.315 1.12l-.14.98v.14c0 .327.105.618.315.875.14.163.34.245.595.245.28 0 .595-.07.945-.2.35-.163.584-.315.7-.455l.525-.455zm10.75 2.065c-.42.093-.875-.035-1.365-.385s-.78-.735-.875-1.155c-.023-.093-.035-.245-.035-.455 0-.863.327-1.972.98-3.325a18.8 18.8 0 0 1 2.45-3.78c.957-1.167 1.832-1.902 2.625-2.205.5-.257.805-.385.945-.385s.455.128.945.385c.327.093.572.198.735.315s.374.35.63.7c.304.607.525 1.353.665 2.24.14.5.2.84.2 1.05a.67.67 0 0 1-.21.49l-.14.14c-.046.07-.07.128-.07.175 0 .023.024.035.07.035 0 .023-.01.082-.035.175-.023.07-.07.175-.14.315-.28.887-.42 1.645-.42 2.275 0 .2.024.432.07.665.234.607.63.9 1.2.9.467 0 .9-.2 1.33-.63l.805-.525c.187-.117.28-.093.28.07.024.023.07.058.14.105s.14.07.2.07c.164 0 .245.105.245.315s-.08.443-.245.7l-.385.42c-.093.117-.14.2-.14.28l-.525.5c-.443.257-.968.385-1.575.385-.63 0-1.13-.128-1.505-.385-.326-.233-.64-.572-.945-1.015s-.5-.84-.595-1.2l-.175-.35-1.015.665-.805.735-.595.5c-.186.233-.35.35-.5.35h-.35c0 .163-.233.35-.7.56-.443.187-.84.28-1.2.28zm-.35-1.9c.257 0 .9-.362 1.96-1.085 1.05-.747 1.715-1.295 1.995-1.645l1.015-1.05c.374-.42.665-.898.875-1.435.234-.537.35-1.027.35-1.47 0-.397-.058-.677-.175-.84-.093-.28-.233-.42-.42-.42-.093 0-.36.082-.805.245-.443.28-1.073.922-1.9 1.925a27.35 27.35 0 0 0-2.135 3.115c-.63 1.05-.945 1.82-.945 2.3 0 .07.024.14.07.2s.082.117.105.14z" fill="#3a3c51"/><g clip-path="url(#A)" fill="#3a3c51"><path d="M61.74 11l-1.47.3-4.14.9-2.8.85a27.71 27.71 0 0 0-3.32 1.15l-3.7 1.5-3.95 2c-2.906 1.573-5.7 3.343-8.36 5.3a64.47 64.47 0 0 0-8.32 7.28l-1 1-1 1.1-1.9 2.23c-.67.73-1.22 1.56-1.8 2.35l-1.77 2.4-3.17 5.14-1.4 2.7a27.12 27.12 0 0 0-1.26 2.8l-2.23 5.6-1 2.83-.76 2.87-.7 2.85L7.2 67l-.26 1.4-.07.35v.18c0-.14 0 0 0 0v.14l-.1.74-.28 2.87a55.72 55.72 0 0 0 .2 10.58 49.08 49.08 0 0 0 1.88 9.25 39.28 39.28 0 0 0 3 7.33l.4.78.43.72.83 1.37 1.55 2.28 1.47 1.77 1.17 1.25 1 1.06.1.1a1.35 1.35 0 0 1-.743 2.222 1.35 1.35 0 0 1-.916-.142l-1.37-.8a26.09 26.09 0 0 1-3.66-2.66l-2.3-2.28-1.2-1.42-.62-.76-.58-.82a35.33 35.33 0 0 1-4.26-8.11A43.2 43.2 0 0 1 .339 84a56.55 56.55 0 0 1 0-12l.5-3.74v-.45l.15-.4.34-1.54.66-3.1.95-3.06 1-3.06 1.25-3c.84-2 1.785-3.937 2.83-5.83A30.14 30.14 0 0 1 9.689 45l1.7-2.74 3.75-5.16 2-2.42 2.05-2.34 2.14-2.2 1-1.1 1.1-1 4.44-3.86 4.48-3.4a73.95 73.95 0 0 1 8.8-5.34l4.1-2 3.83-1.54c1.128-.462 2.28-.862 3.45-1.2l3-1 4.13-1 1.46-.36c.354-.1.73-.033 1.042.154s.54.492.628.846a1.38 1.38 0 0 1-.154 1.042c-.187.312-.492.54-.846.628h-.05zM59.498.45l.76.82.74.73a18.5 18.5 0 0 0 1.7 1.23 19.77 19.77 0 0 0 1.83 1.05 23.56 23.56 0 0 0 1.94.83c.655.234 1.323.43 2 .6.7.136 1.4.236 2.1.3a20.29 20.29 0 0 0 2.07.07c.68 0 1.36-.06 2-.13a2.36 2.36 0 0 1 1.89 4l-.56.55-2.8 2.74-2.84 2.65a25.2 25.2 0 0 1-3.06 2.42 20.13 20.13 0 0 1-1.74 1l-1 .46c-.07 0-.22.14-.14 0a2.52 2.52 0 0 0 .12-.73 1.44 1.44 0 0 0-.31-.84l-.14-.18-.04.06a1.46 1.46 0 0 0-.69-.35 1.32 1.32 0 0 0-.83.1 1.21 1.21 0 0 0-.58.59 1.35 1.35 0 0 0-.05 1.13 1.31 1.31 0 0 0 .3.46 1.28 1.28 0 0 0 .34.24 1.13 1.13 0 0 0 .26.09h.2a1.35 1.35 0 0 1-1.288-1.489 1.35 1.35 0 0 1 1.567-1.191h.24a1.39 1.39 0 0 1 .3.1 1.42 1.42 0 0 1 .36.26 1.46 1.46 0 0 1 .32.49 1.49 1.49 0 0 1-.07 1.25 1.62 1.62 0 0 1-.77.76 1.55 1.55 0 0 1-1 .11 1.6 1.6 0 0 1-.75-.38l-.07-.07-.15-.18a1.82 1.82 0 0 1-.33-.99 2.48 2.48 0 0 1 .31-1.19 1.25 1.25 0 0 0 .19-.4c.12-.36.27-.7.4-1a13.86 13.86 0 0 1 1.06-1.9c.788-1.2 1.725-2.27 2.8-3.22a29.84 29.84 0 0 1 3.34-2.7 37.57 37.57 0 0 1 3.67-2.16l1.33 4.57-2.4-.56-1.17-.36-1.14-.4-1.12-.44-1.1-.48-1.08-.5-1.06-.53-2.05-1.16-2-1.28c-.68-.43-1.27-.92-1.84-1.4l-.93-.76-.86-.72a1.35 1.35 0 0 1-.2-1.9 1.35 1.35 0 0 1 1.9-.2l.16.15z"/></g><defs><clipPath id="A"><path fill="#fff" d="M0 0h77.25v111.47H0z"/></clipPath></defs></svg>