<svg xmlns="http://www.w3.org/2000/svg" width="74" height="76" fill="#c1cebe" xmlns:v="https://vecta.io/nano"><path d="M60.787 2.823l.108 4.233-.093 4.297-.318 4.253-.522 4.206-.728 4.25-.95 4.165-1.157 4.108c-.37 1.37-.92 2.696-1.384 4.054s-1.084 2.65-1.62 3.962-1.244 2.57-1.865 3.862-1.404 2.494-2.106 3.74-1.532 2.378-2.356 3.58l-2.6 3.446-2.836 3.254-3.08 3.03-3.32 2.765-.07-2.03c2.544 1.64 4.9 3.403 7.444 4.14a1.34 1.34 0 0 1 .002 2.66l-.05.01c-4.612 1.473-9.3 2.7-14.047 3.644-4.775.82-9.594 1.365-14.432 1.63a1.84 1.84 0 0 1-1.949-2.055l-.015-.068a109.74 109.74 0 0 0 .82-11.34c.06-3.788-.013-7.58-.308-11.352a2.16 2.16 0 0 1 3.105-2.104c1.846.92 3.694 1.8 5.586 2.884a49.87 49.87 0 0 1 2.766 1.673l2.655 1.677-3.166.736 1.33-2.56 1.132-2.62.984-2.78.784-2.8c.246-.943.427-1.903.608-2.863s.343-1.865.464-2.914l.334-2.947.256-2.93.12-2.993.016-3-.058-3.057-.116-3.044-.146-3.038-.555-9.088a.95.95 0 0 1 1.881-.244c.423 1.955.8 4.022 1.154 6.043a127.36 127.36 0 0 1 .912 6.105c.258 2.042.47 4.104.6 6.18l.153 3.118.043 3.132c.02 1.1-.075 2.063-.108 3.144s-.173 2.084-.255 3.125-.27 2.105-.4 3.16-.408 2.135-.62 3.132-.575 2.07-.822 3.104-.7 2.016-1.036 3.1-.84 1.982-1.27 2.966l-1.508 2.864a2.15 2.15 0 0 1-2.877.889l-.188-.113-.07-.046-2.547-1.7c-.846-.554-1.652-1.065-2.495-1.506-1.7-.95-3.56-1.9-5.382-2.836l3.14-2.08a104.97 104.97 0 0 1 .066 11.793 113.69 113.69 0 0 1-1.264 11.651l-1.942-2.117c4.7-.13 9.4-.508 14.08-1.133a127.97 127.97 0 0 0 13.84-2.995l-.026 2.574a18.63 18.63 0 0 1-4.3-2.139c-1.3-.813-2.517-1.747-3.705-2.513a1.24 1.24 0 0 1-.091-2.027l3.24-2.573 3.06-2.882 2.808-3.053 2.58-3.26c.846-1.104 1.55-2.3 2.323-3.45s1.424-2.354 2.085-3.603a86.22 86.22 0 0 0 1.852-3.736c.588-1.253 1.105-2.552 1.624-3.84s.957-2.622 1.4-3.935.8-2.678 1.176-4.02l.915-4.045.716-4.114.493-4.2.278-4.153.06-4.167-.16-4.232a.96.96 0 0 1 .264-.683c.174-.183.416-.3.67-.296s.5.1.683.264.3.416.296.67l.002.01zM35.433 57.708l1.168-1.174 1.318-1.38 1.644-1.86 1.794-2.3c.655-.848 1.218-1.747 1.843-2.7s1.215-1.95 1.765-3l1.6-3.203L48 38.815l1.236-3.224c.408-1 .748-2.075 1.027-3.056l.867-2.756 1.3-4.16.536-1.6a.48.48 0 0 1 .926.168s.012.622-.062 1.7c-.015.546-.1 1.198-.203 1.947a25.13 25.13 0 0 1-.482 2.499c-.18.92-.475 1.873-.774 2.9s-.7 2.067-1.12 3.148a30.79 30.79 0 0 1-1.463 3.263l-1.72 3.257c-.595 1.08-1.26 2.124-1.944 3.122L44.13 48.97l-2.006 2.644-1.888 2.3-1.64 1.88-1.312 1.4-1.162 1.203a.49.49 0 0 1-.152.106c-.057.026-.12.038-.18.04s-.125-.01-.183-.033-.1-.057-.156-.1-.08-.095-.106-.152-.038-.12-.04-.18.01-.125.033-.183.057-.1.1-.156l.003-.032zM53.117 19.4a1.26 1.26 0 0 1 .254-.29 1.24 1.24 0 0 1 .606-.274 1.11 1.11 0 0 1 .645.096 1.13 1.13 0 0 1 .313.219 1.15 1.15 0 0 1 .145 1.38 1.14 1.14 0 0 1-.257.28 1.11 1.11 0 0 1-.604.233 1.25 1.25 0 0 1-.646-.147 1.26 1.26 0 0 1-.316-.228 1.06 1.06 0 0 1-.142-1.269zm.476-3.634a1.73 1.73 0 0 1 1.087-.604 1.12 1.12 0 0 1 .894.13 1.09 1.09 0 0 1 .332.32 1.12 1.12 0 0 1-.382 1.608 1.12 1.12 0 0 1-.441.136l-.156.034a1.52 1.52 0 0 1-1.187-.285 1 1 0 0 1-.195-1.329l.06-.013a1.52 1.52 0 0 1 1.09-.543l.245 2.22a1.73 1.73 0 0 1-1.207-.424.88.88 0 0 1-.172-1.221l.035-.028zm-.15-3.484a1 1 0 0 1 .374-.306 1.84 1.84 0 0 1 .977-.212 1.74 1.74 0 0 1 .824.262 1.24 1.24 0 0 1 .349.334 1 1 0 0 1-.252 1.293l-.098.02a1.59 1.59 0 0 1-.36.18 1.58 1.58 0 0 1-.677.085 1.86 1.86 0 0 1-.668-.203 3.94 3.94 0 0 1-.357-.23.87.87 0 0 1-.254-1.173l.142-.05z"/></svg>