<svg xmlns="http://www.w3.org/2000/svg" width="71" height="136" fill="#c1cebe" xmlns:v="https://vecta.io/nano"><path d="M56.787 5.54l-.85-.22-1-.27-.67-.16-.74-.1a25.76 25.76 0 0 0-9.35.12 35.15 35.15 0 0 0-6.49 1.9 42.66 42.66 0 0 0-7.08 3.72 49.73 49.73 0 0 0-13.66 13.44 29.48 29.48 0 0 0-4.44 9.86l-.26 1.36-.17 1.42a20.13 20.13 0 0 0 0 2.83 18.4 18.4 0 0 0 1.24 5.64 16.25 16.25 0 0 0 1.33 2.61c.523.836 1.13 1.617 1.8 2.33a13.99 13.99 0 0 0 1.08 1 10.49 10.49 0 0 0 1.26.86 11.06 11.06 0 0 0 2.72 1.14 12.37 12.37 0 0 0 6 .2c.982-.233 1.928-.6 2.8-1.1a9.12 9.12 0 0 0 2.3-1.91 5.5 5.5 0 0 0 1.4-5.31 6.14 6.14 0 0 0-1.62-2.39 9.73 9.73 0 0 0-1.2-1l-.28-.2-.38-.2-.75-.43a16 16 0 0 0-12.62-.38 18.48 18.48 0 0 0-5.7 3.33l-.75.7-.08.08-.93.96-.52.63c-.7.863-1.36 1.775-1.94 2.73a30.28 30.28 0 0 0-3.94 13c-.1 1.13-.14 2.32-.13 3.4l.06 1.78.13 1.68a33.82 33.82 0 0 0 1.35 6.68 24.15 24.15 0 0 0 6.92 11.12c.4.38.84.67 1.26 1l.24.18s.13.1 0 0l.37.23.74.47a4.49 4.49 0 0 0 .7.38l.66.32c.43.22 1 .38 1.45.58a17.8 17.8 0 0 0 6.18.94c4.15-.08 8.23-1.74 10.56-4.78l.8-1.17a5.52 5.52 0 0 0 .52-1.12 2.12 2.12 0 0 0 .11-.86 2.86 2.86 0 0 0-.29-.93l-.14-.26-.08-.13s-.1-.15 0 0l-.06-.08-.48-.67a6.54 6.54 0 0 0-.8-.78 6.48 6.48 0 0 0-2.22-1.19 9.66 9.66 0 0 0-5.23-.12 9.19 9.19 0 0 0-2.4 1 3.8 3.8 0 0 0-.54.33c-.16.1-.4.24-.48.34l-.6.5c-.18.16-.3.3-.45.43a17.83 17.83 0 0 0-4.67 9.47c-.16.9-.3 1.77-.4 2.66v.25s0-.13 0 0v1.06l-.06 1.4a18.23 18.23 0 0 0 .05 2.62c-.01.852.04 1.705.15 2.55.875 6.202 3.217 12.105 6.83 17.22 2.797 3.98 6.277 7.435 10.28 10.2.85.54 1.64 1.1 2.42 1.55l2.25 1.18a19.44 19.44 0 0 0 2 .88l1.7.7 3.2 1h.08a.84.84 0 0 1 .296.144.85.85 0 0 1 .218.247c.056.096.092.2.107.3a.84.84 0 0 1-.164.624.83.83 0 0 1-.246.217.82.82 0 0 1-.311.107c-.1.015-.22.008-.328-.02l-3.45-.77a38.45 38.45 0 0 1-9.14-4 41.64 41.64 0 0 1-19.46-28.999 21.44 21.44 0 0 1-.31-2.89 22.63 22.63 0 0 1-.11-2.92v-2.95c.1-1 .24-2 .42-3a21.65 21.65 0 0 1 5.79-11.65l.68-.62.76-.56a8.09 8.09 0 0 1 .8-.56 6.9 6.9 0 0 1 .79-.48c1.076-.585 2.226-1.02 3.42-1.3a13.57 13.57 0 0 1 7.4.25 10.39 10.39 0 0 1 3.47 1.89 9.83 9.83 0 0 1 1.5 1.53l.48.67.06.08.14.22.13.23a10.53 10.53 0 0 1 .25.47 6.7 6.7 0 0 1 .57 2.24 6 6 0 0 1-.28 2.42c-.223.668-.522 1.3-.9 1.9-.35.54-.73 1.06-1.1 1.6a15.56 15.56 0 0 1-6.09 4.61 19.58 19.58 0 0 1-7.41 1.56 20.89 20.89 0 0 1-7.49-1.25c-.6-.25-1.2-.44-1.8-.75l-.9-.47c-.287-.14-.565-.302-.83-.48l-1.1-.72a1.38 1.38 0 0 1-.17-.12l-.1-.07-.2-.15c-.5-.4-1-.77-1.47-1.22a27.55 27.55 0 0 1-7.7-12.83 37 37 0 0 1-1.36-7.35C.08 68.3.07 67.67.01 67s0-1.2 0-1.8c0-1.3.1-2.5.22-3.75a33.12 33.12 0 0 1 4.63-14.08 25.96 25.96 0 0 1 2.26-3l.64-.73.62-.63.3-.32.08-.08.12-.1.18-.16.72-.62a21 21 0 0 1 6.55-3.71 18.24 18.24 0 0 1 14.55.74 10.2 10.2 0 0 1 5.12 5.48 6.52 6.52 0 0 1 0 4 8.94 8.94 0 0 1-1.87 3.28 11.12 11.12 0 0 1-2.86 2.31 13.41 13.41 0 0 1-3.37 1.2 14.24 14.24 0 0 1-6.9-.28 14.61 14.61 0 0 1-9.36-9 21 21 0 0 1-.81-12.28 31.15 31.15 0 0 1 4.71-10.44 51.33 51.33 0 0 1 14.13-13.82 45.92 45.92 0 0 1 7.33-3.85 36.74 36.74 0 0 1 6.78-2 27.34 27.34 0 0 1 10-.17l.82.12.68.16 1 .26.85.2a.85.85 0 0 1 .707 1.048.85.85 0 0 1-1.117.592l.04-.02zm-.55 3.6c.695-.5 1.363-1.06 2-1.64a4.65 4.65 0 0 0 1.3-2 7.87 7.87 0 0 0 .15-2.44l-.07-1.3a2.2 2.2 0 0 1 .03-.76c0-.12.06-.23.1-.35l.07-.2c.02-.056.048-.1.08-.16l.1-.1a.62.62 0 0 1 .28-.2.59.59 0 0 1 .53.17.6.6 0 0 1 .15.28v.2l-.13-.4a48.6 48.6 0 0 0 4.57 4.38 47.39 47.39 0 0 1 4.7 4.54 1.22 1.22 0 0 1-.06 1.68 1.21 1.21 0 0 1-.73.35h-.08c-2.173 0-4.343-.043-6.5-.13l-3.25-.3a31.74 31.74 0 0 1-3.25-.53.54.54 0 0 1 0-1 31.68 31.68 0 0 1 3.26-.42l3.26-.16 6.5.13-.92 1.87-.94-1.22-1-1.2-2.15-2.4L59.957 1l-.13-.4a.34.34 0 0 0 0 .07v.06a.56.56 0 0 0 .2.28.59.59 0 0 0 .52.16.54.54 0 0 0 .2-.16l.1-.1V1c0 .1-.07.18-.1.27a1 1 0 0 0-.05.48v1.3a9.31 9.31 0 0 1-.27 2.74 5.59 5.59 0 0 1-1.54 2.35c-.63.64-1.32 1.22-2 1.77a.52.52 0 0 1-.67-.79l.03-.01z"/></svg>