<svg width="149" height="237" viewBox="0 0 149 237" fill="none" xmlns="http://www.w3.org/2000/svg">
<path d="M27.064 163.365C28.3865 165.459 29.8322 167.473 31.3937 169.395C32.2047 170.389 33.0419 171.357 33.9183 172.312C34.7947 173.267 35.3179 173.843 36.0635 174.562L38.0518 176.472C39.2421 177.61 40.4194 178.748 41.6359 179.86C44.579 182.567 47.5484 185.262 50.3346 188.114C50.9493 188.755 51.5511 189.422 52.1397 190.089C51.7769 191.809 51.5928 193.563 51.5903 195.321C51.5754 196.12 51.6059 196.919 51.6819 197.715C51.7996 198.565 51.9304 199.415 52.1266 200.266C52.5108 202.087 53.0222 203.879 53.6571 205.629C54.2457 207.133 54.9651 208.611 55.6192 210.076L55.8415 210.56C55.3177 211.979 54.6699 213.349 53.9056 214.654C52.8176 216.358 51.5358 217.929 50.086 219.337C48.6836 220.734 47.1306 221.971 45.4555 223.026C45.2154 223.146 44.966 223.247 44.7099 223.327C44.3511 223.389 43.9882 223.424 43.6241 223.432C43.1663 223.432 42.7085 223.366 42.2376 223.314C41.8209 223.252 41.3965 223.354 41.0529 223.598C40.7092 223.841 40.4729 224.208 40.3932 224.622C40.3283 225.039 40.4286 225.465 40.6729 225.81C40.9172 226.154 41.2861 226.39 41.7013 226.466C42.6822 226.631 43.6805 226.667 44.6706 226.571C45.1522 226.515 45.626 226.405 46.0833 226.244C46.5364 226.047 46.9737 225.815 47.3914 225.551C48.9751 224.555 50.4446 223.388 51.7734 222.071C53.1655 220.787 54.4314 219.372 55.5538 217.846C56.3406 216.795 57.0447 215.684 57.6598 214.524L57.8821 215.008C58.5689 216.525 59.146 218.09 59.6088 219.691C59.7609 220.284 59.8702 220.887 59.9358 221.496C59.9358 222.124 59.9358 222.738 59.9358 223.353C59.9135 223.848 59.8655 224.341 59.7919 224.831C59.7134 225.328 59.5826 225.838 59.4518 226.336C58.947 227.986 58.2673 229.578 57.4243 231.084C57.1836 231.451 56.9123 231.796 56.6133 232.117C56.2445 232.449 55.846 232.747 55.4229 233.007C54.8239 233.313 54.1977 233.562 53.5524 233.752C53.2595 233.875 53.0093 234.081 52.8334 234.345C52.6574 234.609 52.5635 234.92 52.5635 235.237C52.5635 235.554 52.6574 235.865 52.8334 236.129C53.0093 236.393 53.2595 236.599 53.5524 236.722C53.9474 236.878 54.387 236.878 54.782 236.722C55.8689 236.416 56.8985 235.934 57.8298 235.296C58.5328 234.812 59.1553 234.22 59.6742 233.543C60.0303 233.057 60.3495 232.546 60.6291 232.013C61.2376 230.888 61.7538 229.715 62.1726 228.507C62.6883 227.145 63.0183 225.719 63.1536 224.269C63.1536 223.471 63.1536 222.686 63.1536 221.901C63.127 221.219 63.0395 220.54 62.892 219.874C62.5424 218.147 62.0074 216.463 61.2962 214.851C60.6422 213.333 59.9881 211.829 59.2556 210.351C60.1758 207.422 60.5569 204.351 60.3805 201.286C60.2819 199.386 59.9119 197.509 59.2818 195.714C58.6318 193.945 57.7522 192.269 56.6656 190.73C56.3255 190.259 55.9593 189.814 55.6061 189.356C55.7846 188.906 55.9944 188.469 56.234 188.048C56.5049 187.595 56.8019 187.159 57.1234 186.74C57.5159 186.256 57.9344 185.785 58.4315 185.341C59.032 184.771 59.67 184.242 60.3413 183.758C61.0084 183.287 61.6494 182.868 62.395 182.45C64.3149 181.506 66.2943 180.689 68.3205 180.004C70.3742 179.284 72.454 178.696 74.56 178.094L76.4567 177.688C77.0715 177.571 77.7648 177.492 78.3273 177.361C79.813 177.086 81.2773 176.706 82.7093 176.223C83.4941 175.949 84.279 175.661 85.0507 175.321C85.8225 174.981 86.7905 174.536 87.6669 174.117C88.5433 173.699 89.2366 173.332 89.9822 172.901C91.2622 172.222 92.4868 171.443 93.6448 170.572C94.6601 169.717 95.6171 168.795 96.5094 167.812C97.0719 167.211 97.6344 166.609 98.1576 165.968C98.7486 165.259 99.2988 164.516 99.8058 163.744C100.342 162.92 100.839 162.057 101.336 161.207C101.559 160.814 101.755 160.396 101.938 159.99C102.181 159.459 102.378 158.907 102.527 158.342C102.646 157.85 102.703 157.344 102.697 156.838C102.697 155.974 102.697 155.111 102.697 154.222C102.605 152.377 102.461 150.533 102.317 148.702C102.064 145.301 101.829 141.895 101.611 138.486L101.964 138.381C102.545 138.168 103.032 137.755 103.338 137.217C103.593 136.698 103.689 136.115 103.612 135.542C103.337 134.275 102.822 133.072 102.095 131.997L101.781 131.474C102.073 131.548 102.379 131.548 102.67 131.474L107.654 129.852C111.003 128.767 114.365 127.681 117.687 126.53C119.388 125.941 121.101 125.339 122.789 124.725L126.124 123.521C128.437 122.693 130.685 121.692 132.848 120.526C134.038 119.872 135.176 119.218 136.301 118.394C137.426 117.569 138.224 117.085 139.153 116.379C140.081 115.673 141.088 114.823 142.004 113.985C142.897 113.213 143.692 112.335 144.372 111.369C145.356 109.842 146.23 108.246 146.988 106.595C147.367 105.771 147.694 104.96 148.021 104.122C148.239 103.547 148.418 102.957 148.558 102.357C148.718 101.756 148.831 101.144 148.898 100.525C149.034 99.2208 149.034 97.9056 148.898 96.6011C148.648 94.6193 148.21 92.6659 147.59 90.7671C146.891 88.2362 145.889 85.7987 144.607 83.5073C143.965 82.4343 143.225 81.4228 142.397 80.4856L141.429 79.4523C140.783 78.7224 140.064 78.0606 139.283 77.4771C138.507 76.9204 137.674 76.4469 136.798 76.0644C136.61 75.9892 136.418 75.9237 136.222 75.8682C135.679 75.6672 135.112 75.5353 134.535 75.4757C133.312 75.4164 132.087 75.5043 130.886 75.7374C129.431 76.0231 128.023 76.5073 126.7 77.1762C125.91 77.5472 125.153 77.9848 124.437 78.4843C123.602 79.1474 122.819 79.8733 122.095 80.6557C120.927 81.9725 119.763 83.2718 118.603 84.5537C117.465 85.8618 116.314 87.1699 115.241 88.478C114.168 89.786 113.122 91.2249 112.167 92.6769C111.212 94.1288 110.44 95.4892 109.603 96.7973L108.452 98.6547C108.361 98.0007 108.269 97.3467 108.177 96.7057C107.981 95.3977 107.837 93.998 107.641 92.6376C107.366 90.5447 107.013 88.478 106.569 86.4243C106.565 86.2408 106.53 86.0593 106.464 85.888C106.377 85.513 106.289 85.138 106.202 84.763L105.954 83.7166V83.5204V83.3372L105.574 82.0292C105.339 81.192 105.077 80.381 104.816 79.5569C104.1 77.4233 103.053 75.415 101.716 73.6052C100.891 72.4803 100.002 71.4469 99.0994 70.4004C98.7986 70.0603 98.4846 69.7464 98.1707 69.4194C97.6271 68.7853 97.0176 68.2109 96.3525 67.7058C95.2514 66.9803 94.0708 66.3834 92.8338 65.9268C91.8742 65.545 90.857 65.3283 89.8252 65.2859C89.2758 65.2859 88.7264 65.2859 88.164 65.2859C87.3627 65.3117 86.5657 65.4124 85.7833 65.5867C84.8919 65.7559 84.0167 66.001 83.1671 66.3192C82.2894 66.6389 81.4368 67.0237 80.6164 67.4704C80.2335 67.6691 79.8662 67.8965 79.5176 68.1505C79.2037 68.386 78.9159 68.6215 78.615 68.8831C77.0426 70.3497 75.9178 72.2319 75.371 74.3116C74.8678 76.0128 74.5821 77.7708 74.5208 79.5438C74.441 81.3448 74.4716 83.1489 74.6123 84.9462C74.7431 86.699 74.9132 88.4387 75.1617 90.1785C75.4105 91.9462 75.782 93.6946 76.2736 95.4107C76.5352 96.3133 76.8099 97.2028 77.0977 98.0269C77.2546 98.4847 77.4639 98.9295 77.634 99.335C77.804 99.7404 77.9348 100.028 78.0918 100.368C78.4319 101.14 78.772 101.912 79.1644 102.657C79.5569 103.403 80.0932 104.423 80.5902 105.274C81.4274 106.778 82.3561 108.23 83.3241 109.656C84.2921 111.081 85.0246 112.389 86.0318 113.802C87.039 115.215 87.9678 116.523 88.9226 117.91C89.4066 118.603 89.9168 119.296 90.3746 120.002L91.6827 122.082C92.5852 123.482 93.4224 124.908 94.2988 126.294C95.1752 127.681 96.0909 128.91 97.0458 130.218C97.3728 130.65 97.6736 131.095 97.9745 131.527L97.5167 131.958C97.1242 132.351 96.7318 132.73 96.3656 133.135C95.8639 133.63 95.5456 134.28 95.463 134.98C95.4193 135.262 95.4509 135.551 95.5546 135.817L95.62 136.039C95.7192 136.237 95.8283 136.429 95.947 136.615C96.1902 136.912 96.4667 137.179 96.7711 137.413C97.2207 137.727 97.7086 137.982 98.223 138.172C98.441 141.59 98.6765 145.008 98.9294 148.427C99.034 149.826 99.1517 151.226 99.2433 152.626C99.3349 154.025 99.4395 155.556 99.4134 157.034C99.3836 157.277 99.3355 157.518 99.2695 157.753C98.8749 158.795 98.3844 159.798 97.8044 160.749C97.4643 161.298 97.1112 161.848 96.758 162.397C96.3684 163.022 95.9448 163.624 95.4892 164.202C94.5866 165.288 93.6055 166.295 92.5983 167.276C91.2476 168.439 89.7686 169.444 88.1901 170.272C86.8166 170.991 85.4301 171.684 84.0043 172.299C82.5848 172.909 81.125 173.42 79.6353 173.83L78.5366 174.078C77.6994 174.248 76.8491 174.379 76.012 174.536C75.1748 174.693 74.1153 174.928 73.1735 175.177C71.4468 175.635 69.7463 176.158 68.0327 176.733C64.6328 177.74 61.3982 179.239 58.4315 181.181C57.768 181.655 57.1386 182.175 56.5479 182.738C55.8571 183.361 55.2224 184.044 54.6512 184.778C54.176 185.382 53.7392 186.016 53.3431 186.675C52.1659 185.367 50.9363 184.203 49.6805 183.012C48.4248 181.822 47.2475 180.684 46.0179 179.546C44.7883 178.408 43.4018 177.178 42.0937 175.962L39.6345 173.607C39.0328 173.032 38.418 172.456 37.8294 171.867C35.9669 169.963 34.2197 167.95 32.5971 165.837C31.0118 163.755 29.5655 161.57 28.2674 159.297C26.6168 156.129 25.3688 152.768 24.5525 149.29L23.5453 145.104C23.2575 143.705 22.9697 142.292 22.6819 140.892C22.4727 139.898 22.3157 138.878 22.1718 137.871C21.9596 136.135 21.8765 134.386 21.9233 132.638C21.9233 132.516 21.9233 132.394 21.9233 132.272C21.9233 132.351 21.9233 132.429 21.9233 132.508C21.9586 130.301 22.2527 128.106 22.7997 125.967C23.1584 125.059 23.5961 124.183 24.1077 123.351C24.4217 122.789 24.7225 122.213 25.0496 121.664C25.7624 120.433 26.5716 119.261 27.4695 118.158C28.3328 117.151 29.2354 116.183 30.1772 115.254C31.8123 113.698 33.5782 112.272 35.3048 110.833C36.7437 109.629 38.1433 108.387 39.4776 107.079C40.2768 106.334 41.0079 105.52 41.662 104.646C42.0188 104.18 42.3216 103.675 42.5646 103.141C42.7216 102.749 42.8786 102.344 43.0224 101.938C43.6777 100.009 44.1635 98.0261 44.4744 96.0125C44.654 94.913 44.7633 93.8033 44.8014 92.6899C44.8738 91.54 44.8738 90.3866 44.8014 89.2366C44.5861 87.3748 44.2408 85.5303 43.768 83.7166C43.9375 83.7357 44.1087 83.7357 44.2782 83.7166C44.8861 83.6751 45.4539 83.3982 45.861 82.9448C46.2126 82.5408 46.4318 82.0385 46.4888 81.5059C46.5213 81.136 46.5213 80.764 46.4888 80.3941C46.4888 80.1586 46.4103 79.9232 46.358 79.6877C46.3057 79.4523 46.188 78.9814 46.0964 78.6282C46.0048 78.275 45.8871 77.8172 45.7694 77.4248C45.3116 75.8682 44.8276 74.3246 44.3436 72.7811C44.6052 72.5195 44.8407 72.2448 45.1023 71.9963C47.3072 69.9176 49.7278 68.0802 52.3228 66.5155L56.1031 64.2394L65.1419 59.3996C66.6985 58.5624 68.229 57.6467 69.7725 56.7834C72.6128 55.1901 75.3479 53.4162 77.961 51.4726C78.9944 50.6878 80.0147 49.8768 81.035 49.0658C82.0553 48.2548 82.9578 47.5223 83.8735 46.6982C84.7891 45.8741 85.8487 44.8538 86.7643 43.8597C87.5935 42.9986 88.3668 42.0854 89.0796 41.1258C90.5059 39.0551 91.6579 36.8083 92.5068 34.4416C92.9123 33.3428 93.2785 32.244 93.6448 31.1321C94.2203 29.3881 94.7566 27.644 95.2537 25.8999L95.463 25.1673C95.6402 24.6427 95.7501 24.0977 95.79 23.5453C95.7991 22.2666 95.6229 20.9932 95.2668 19.765C94.65 17.3368 93.7956 14.9753 92.716 12.7145C92.0489 11.4064 91.3164 10.0984 90.5708 8.7903C89.8336 7.39719 88.9571 6.0824 87.9547 4.86609C87.066 3.86621 86.0021 3.03722 84.8153 2.42C84.0108 1.99797 83.1808 1.62662 82.33 1.30814C81.1396 0.820419 79.8977 0.469355 78.6281 0.261682C77.5293 0.117794 76.4436 6.78982e-05 75.3318 6.78982e-05H74.39C73.708 -0.00186443 73.0266 0.0374495 72.3494 0.117794C71.1053 0.263699 69.8728 0.495342 68.6606 0.811072C66.2744 1.42001 63.9723 2.32065 61.8063 3.49262C60.6088 4.1278 59.4512 4.83547 58.3399 5.61169C57.375 6.30011 56.4533 7.04711 55.5799 7.84849C53.7307 9.54629 52.0727 11.4412 50.6354 13.4994C49.9291 14.5196 49.3273 15.5661 48.6471 16.6256C47.7751 18.0994 46.9336 19.5993 46.1226 21.1254C45.2723 22.8128 44.4744 24.4871 43.6111 26.1615C43.2841 26.8417 42.9701 27.535 42.6562 28.2282C42.2245 27.0248 41.8059 25.8214 41.3481 24.6441C40.3132 22.2992 39.0235 20.0752 37.5024 18.0122C34.6019 14.0085 31.1843 10.4061 27.3387 7.2991C25.769 6.0826 24.1601 4.97074 22.5511 3.92428C21.8448 3.44029 21.1123 2.96939 20.3667 2.61621C19.4176 2.00211 18.4044 1.49332 17.345 1.09885C16.1168 0.830671 14.8452 0.830671 13.617 1.09885C13.1199 1.17733 12.6229 1.28198 12.1258 1.38662C11.2363 1.55667 10.3599 1.75288 9.50967 1.98834C8.85292 2.16057 8.20655 2.3702 7.57373 2.61621C7.0856 2.80999 6.60949 3.03276 6.14793 3.28332C5.59946 3.55574 5.07823 3.87987 4.59133 4.2513C4.08405 4.67102 3.64305 5.16493 3.28326 5.71634C2.93236 6.23262 2.61347 6.76993 2.32837 7.32526C2.10599 7.79617 1.85746 8.25399 1.66125 8.73798C1.16118 9.94854 0.767275 11.2003 0.483986 12.4791C0.296585 13.2628 0.161123 14.0581 0.0784842 14.8597C0 15.867 0 16.8611 0 17.8552C0 18.2869 0 18.7186 0 19.1633C0 19.608 0 20.0005 0.104646 20.406L0.313937 21.8841C0.313937 22.2765 0.470905 22.6558 0.54939 23.0483C0.758681 24.0686 1.0203 25.0496 1.29499 26.0568C1.56968 27.064 1.79206 27.7181 2.06675 28.5422C2.34145 29.3663 2.61614 30.0857 2.96932 30.8444C3.3225 31.6031 3.54487 32.2832 3.87189 33.0027C4.19891 33.7221 4.65673 34.7947 5.17996 35.6188L6.67116 38.4181C7.06358 39.1245 7.49524 39.8177 7.91383 40.511C8.78587 42.0109 9.70588 43.4978 10.6739 44.9715C11.5691 46.428 12.6411 47.768 13.8655 48.9612C16.4032 51.3288 18.967 53.6833 21.4654 56.0901C22.7735 57.2936 23.9639 58.5362 25.2588 59.7135C26.5538 60.8908 27.7834 61.911 29.0915 62.9706C31.6802 65.015 34.1561 67.1983 36.5082 69.5109C36.9922 70.0342 37.4762 70.5312 37.934 71.0806C38.3919 71.63 38.7581 72.114 39.1375 72.6503C38.7974 73.3305 38.405 73.9584 38.0649 74.6909C37.5909 75.6069 37.218 76.5719 36.953 77.5686C36.6912 78.5706 36.7789 79.6318 37.2015 80.5772C37.4508 81.0865 37.8413 81.5133 38.3265 81.8068C38.6666 82.0161 39.0197 82.2123 39.3729 82.3954C39.7978 82.6041 40.2346 82.7875 40.681 82.9448C40.6482 82.9868 40.6177 83.0305 40.5894 83.0756C40.4398 83.4718 40.4398 83.909 40.5894 84.3052L40.7856 85.077C41.0641 86.2687 41.2824 87.4736 41.4397 88.6873C41.574 89.8113 41.6308 90.9433 41.6097 92.0752C41.5056 94.6304 41.0972 97.1642 40.3932 99.6227C40.2362 100.146 40.0531 100.669 39.87 101.192C39.7248 101.601 39.5499 101.999 39.3468 102.383C38.6684 103.325 37.9019 104.201 37.0576 104.999C35.8935 106.111 34.6769 107.183 33.4343 108.217C31.8777 109.525 30.2818 110.833 28.7906 112.141C27.2073 113.586 25.7338 115.147 24.3824 116.811C23.401 118.043 22.5258 119.355 21.7663 120.735C21.2823 121.611 20.7591 122.488 20.3405 123.351C19.5494 125.226 19.0764 127.22 18.9409 129.251C18.8101 130.637 18.7446 132.024 18.7316 133.41C18.7018 134.672 18.7499 135.935 18.8755 137.191C19.0455 138.682 19.281 140.147 19.5818 141.612C19.9742 143.469 20.3536 145.34 20.8114 147.184C21.5181 150.359 22.4358 153.484 23.5584 156.537C24.5068 158.919 25.6807 161.206 27.064 163.365ZM40.0139 78.7198C40.0346 78.5083 40.0695 78.2986 40.1185 78.0919C40.413 77.2713 40.7626 76.4715 41.165 75.6981C41.3887 75.6353 41.5977 75.5285 41.7798 75.3842C41.9237 75.842 42.0675 76.3129 42.1984 76.7838C42.5254 77.8826 42.8655 78.9814 43.1532 80.1063V80.3679L42.6823 80.2371C41.778 79.964 40.902 79.6048 40.0662 79.1645H40.0008C40.027 78.9552 40.0139 78.8375 40.0139 78.7198ZM44.4744 68.2552C43.8073 68.8438 43.1663 69.4586 42.5515 70.0734C42.4286 69.9554 42.2872 69.8582 42.1329 69.7856C41.9306 69.6982 41.7124 69.6537 41.492 69.6548C41.3041 69.6565 41.118 69.692 40.9426 69.7595C39.567 68.0836 38.0625 66.5179 36.4428 65.0766C35.4618 64.174 34.4546 63.2976 33.4474 62.4604C32.4401 61.6233 31.3937 60.7861 30.465 59.9751C29.1569 58.8632 27.8488 57.7252 26.5408 56.5349C25.939 55.9855 25.3766 55.4099 24.7879 54.8475L22.8128 52.9508C21.5047 51.7473 20.1966 50.5439 18.967 49.3536C17.7374 48.1632 16.6648 47.2607 15.5791 46.1619C13.9938 44.2446 12.58 42.1918 11.3541 40.027C10.7 38.9806 10.046 37.908 9.44427 36.8615C8.84256 35.815 8.26701 34.7293 7.67837 33.6698L7.84842 34.0099L6.54035 31.1321C6.12177 30.2296 5.80783 29.2878 5.44157 28.3721C5.07531 27.4565 4.83986 26.5539 4.55209 25.6383C4.26431 24.7226 4.12042 24.0947 3.92421 23.323C3.64589 22.1023 3.4406 20.8662 3.30942 19.6211C3.21785 18.4046 3.19169 17.1881 3.20477 15.9716C3.20477 15.5792 3.20477 15.1737 3.3225 14.7813C3.44023 14.3888 3.47947 13.9049 3.55795 13.4732C3.71492 12.7014 3.89805 11.9297 4.10734 11.171C4.47431 10.041 4.96106 8.95346 5.5593 7.92698C5.7613 7.60414 5.98876 7.29796 6.2395 7.01133C6.58406 6.7206 6.95151 6.45813 7.33828 6.22648C8.03988 5.83885 8.78098 5.5275 9.54891 5.29775L10.6869 4.98382L12.2959 4.63064C13.4903 4.35186 14.7073 4.18112 15.9323 4.12049C16.1435 4.13637 16.3533 4.16697 16.5602 4.21206C17.4151 4.57034 18.2493 4.97649 19.0586 5.42856C20.3667 6.2134 21.5701 7.03749 22.7735 7.92698C23.6238 8.55485 24.474 9.15656 25.2981 9.82368C27.0084 11.216 28.6374 12.7053 30.1772 14.2842C32.9485 17.1345 35.3522 20.3205 37.3323 23.7677C37.7371 24.5455 38.0996 25.3446 38.418 26.1615C38.9151 27.4695 39.3729 28.673 39.8307 29.9287L40.1839 30.9359C40.3598 31.5387 40.5874 32.1251 40.8641 32.6888C41.0441 33.0263 41.3246 33.2996 41.6668 33.4707C42.009 33.6417 42.3959 33.7022 42.7739 33.6436C43.0451 33.5897 43.3018 33.4791 43.5272 33.3191C43.7526 33.159 43.9417 32.9531 44.082 32.7149C44.391 32.192 44.6578 31.6452 44.8799 31.0798C45.22 30.295 45.5601 29.5101 45.9264 28.7253C47.4045 25.5728 49.0134 22.4858 50.6747 19.4249L52.2443 16.8088C52.8624 15.8027 53.5439 14.8372 54.2849 13.9179C55.1477 12.8435 56.0737 11.8214 57.058 10.8571C57.9175 10.0312 58.8261 9.25807 59.7788 8.54177C62.8004 6.30306 66.2378 4.68887 69.8902 3.79347C71.5425 3.41483 73.2312 3.21745 74.9263 3.20484C75.6326 3.20484 76.339 3.27024 77.0454 3.33565C77.8545 3.3855 78.6565 3.51697 79.4391 3.72807L80.1847 3.92428C81.437 4.3648 82.6529 4.90275 83.8212 5.53321C84.3437 5.87124 84.8341 6.25656 85.2862 6.68431C86.6573 8.41289 87.8576 10.2703 88.8703 12.2305C89.6521 13.6662 90.3381 15.1519 90.924 16.678C91.4348 18.1064 91.8714 19.5603 92.2321 21.0338C92.4129 21.7978 92.518 22.5777 92.546 23.3622C92.5359 23.6446 92.4965 23.9252 92.4283 24.1994L92.2059 24.9973L92.0751 25.4682L91.7742 26.5147C91.3557 27.8227 90.9371 29.1308 90.4662 30.4389C90.1915 31.2499 89.9298 32.074 89.629 32.8719C88.9784 34.684 88.1686 36.4349 87.2091 38.1042C85.9967 39.9459 84.5792 41.6442 82.984 43.1664C81.9114 44.1867 80.7864 45.1416 79.6353 46.0703C78.4842 46.999 77.4509 47.8362 76.3259 48.6865C75.201 49.5367 73.906 50.4524 72.6502 51.3026C71.3945 52.1528 70.4658 52.7284 69.3277 53.3693L64.0955 56.391L54.7689 61.3486C54.0364 61.741 53.3431 62.1857 52.6368 62.6567L50.0206 64.2132C49.0657 64.7888 48.1632 65.4298 47.2606 66.0707C46.2943 66.7402 45.3642 67.4607 44.4744 68.229V68.2552ZM99.034 135.098C99.2695 134.836 99.5311 134.574 99.7927 134.326C99.9981 134.69 100.182 135.065 100.342 135.451C100.065 135.42 99.7894 135.372 99.518 135.307L99.034 135.098ZM101.559 128.453C101.302 128.544 101.074 128.703 100.9 128.913C100.725 129.122 100.609 129.374 100.564 129.643C100.172 129.08 99.7796 128.505 99.3741 127.942C97.4513 125.326 95.7769 122.54 94.0372 119.806C93.5663 119.074 93.1215 118.328 92.6376 117.609L91.2641 115.634C90.2699 114.221 89.2889 112.808 88.2817 111.408C87.2745 110.009 86.3327 108.57 85.3254 107.262C84.3182 105.954 83.5203 104.436 82.7093 102.958C81.8315 101.336 81.0412 99.6681 80.3417 97.9615C79.9606 97.0468 79.6288 96.1124 79.3476 95.1622C79.099 94.2858 78.8636 93.3963 78.6281 92.5461C77.8622 88.5407 77.4768 84.472 77.477 80.3941C77.4956 79.5626 77.5611 78.7328 77.6732 77.9088C77.8054 77.0278 77.9845 76.1545 78.2095 75.2926C78.4999 74.3866 78.8766 73.5105 79.3345 72.6765C79.6608 72.2084 80.0285 71.7706 80.4333 71.3684C80.6997 71.1212 80.9839 70.8939 81.2835 70.6882L82.0945 70.1781C83.281 69.629 84.5159 69.1911 85.7833 68.87L87.4576 68.5953C87.9758 68.5588 88.496 68.5588 89.0142 68.5953C89.6654 68.6133 90.3136 68.6922 90.9501 68.8307C91.9814 69.1768 92.9795 69.6146 93.9325 70.1388C94.2769 70.3529 94.6009 70.5981 94.9005 70.8713L95.3453 71.3161C95.9993 72.0094 96.6533 72.6895 97.255 73.409C98.5074 74.8325 99.6118 76.3797 100.551 78.0265C101.53 80.086 102.289 82.2432 102.814 84.4622C102.809 84.5406 102.809 84.6193 102.814 84.6976L103.338 86.6336L103.874 89.3936C104.031 90.2046 104.122 91.0287 104.253 91.8528C104.502 93.4879 104.711 95.136 104.907 96.7711C105.012 97.5691 105.13 98.3539 105.247 99.1518C105.247 99.5704 105.391 99.989 105.457 100.46C105.522 100.931 105.561 101.114 105.627 101.441C105.678 101.755 105.753 102.066 105.849 102.37C105.928 102.566 106.006 102.749 106.098 102.932C106.261 103.323 106.567 103.635 106.954 103.806C107.342 103.976 107.779 103.991 108.177 103.848C108.58 103.718 108.938 103.478 109.211 103.155C109.355 102.984 109.486 102.827 109.616 102.657L110.061 102.016C110.297 101.663 110.532 101.297 110.754 100.931C111.238 100.159 111.722 99.3873 112.193 98.6024C113.083 97.1374 113.998 95.6593 114.953 94.2204C115.908 92.7815 116.876 91.6042 117.883 90.2962C118.891 88.9881 120.159 87.5754 121.337 86.2542C122.514 84.9331 123.757 83.5204 125.052 82.2385C125.72 81.5838 126.462 81.0088 127.262 80.5249C128.469 79.8481 129.745 79.3042 131.069 78.9029C132.021 78.7127 132.988 78.6077 133.96 78.589C134.286 78.6101 134.609 78.6583 134.927 78.7328C135.296 78.8415 135.655 78.9815 136 79.1514L136.798 79.5831C137.198 79.8534 137.582 80.146 137.949 80.4595C138.315 80.7865 138.669 81.1266 139.022 81.4667C139.375 81.8068 139.82 82.3039 140.186 82.7748C140.986 83.7318 141.695 84.7608 142.305 85.8487C142.736 86.6956 143.112 87.5695 143.43 88.4649C143.626 88.9881 143.835 89.4983 144.005 90.0346C144.437 91.3426 144.869 92.7423 145.222 94.1157C145.599 95.719 145.788 97.3609 145.784 99.0079C145.734 100.047 145.571 101.078 145.3 102.082C145.024 102.976 144.687 103.85 144.293 104.698C143.678 106.006 143.064 107.314 142.318 108.622C141.757 109.567 141.09 110.445 140.33 111.238C138.992 112.487 137.571 113.645 136.079 114.705C134.6 115.738 133.109 116.758 131.54 117.661C128.857 119.023 126.076 120.182 123.22 121.127C119.937 122.305 116.68 123.508 113.357 124.581L101.559 128.453ZM54.8474 193.856C54.9259 193.987 55.0305 194.118 55.109 194.262C55.8153 195.576 56.3683 196.967 56.7572 198.408C57.1223 200.101 57.2848 201.831 57.2412 203.562C57.2412 204.255 57.1365 204.949 57.045 205.629C56.7179 204.844 56.4171 204.046 56.1555 203.235C55.8939 202.424 55.7107 201.665 55.5145 200.88C55.3183 200.096 55.0829 198.945 54.939 197.95C54.8291 196.96 54.7767 195.964 54.782 194.968C54.782 194.497 54.8343 194.144 54.8605 193.791L54.8474 193.856Z" fill="#3A3C51"/>
<path d="M80.6023 11.6562H80.7462C81.0299 11.6645 81.3041 11.7605 81.531 11.9309C82.3853 12.4652 83.2065 13.0505 83.9902 13.6838C84.8115 14.4111 85.5134 15.263 86.0701 16.2083C86.3448 16.6792 86.5933 17.1763 86.8287 17.6603C87.0642 18.1443 87.3127 18.589 87.5089 19.073C87.6886 19.5829 87.7943 20.1159 87.8229 20.6558C87.8552 21.1851 87.8245 21.7165 87.7313 22.2385C87.516 23.5096 87.1966 24.7608 86.7764 25.9796C86.4333 26.9768 85.9487 27.9195 85.3375 28.7789C85.1224 29.0409 84.814 29.2091 84.4772 29.2482C84.1405 29.2872 83.8018 29.194 83.5324 28.9882C83.2704 28.7731 83.1022 28.4646 83.0631 28.1279C83.0241 27.7912 83.1173 27.4524 83.3231 27.183L83.5978 26.7906C83.9932 26.0406 84.3215 25.257 84.5789 24.4492L84.7881 23.6905C84.9177 23.2167 85.0225 22.7364 85.1021 22.2516C85.1734 21.8971 85.2258 21.5391 85.259 21.179C85.2539 20.8458 85.2233 20.5134 85.1675 20.1849C85.0222 19.7549 84.8383 19.339 84.6181 18.9422C84.4088 18.5367 84.2257 18.1443 84.0164 17.7388C83.6444 17.1093 83.2059 16.5217 82.7083 15.986C82.3418 15.6239 81.9434 15.2955 81.518 15.0049L79.896 13.9061C79.634 13.691 79.4657 13.3826 79.4267 13.0458C79.3876 12.7091 79.4808 12.3704 79.6867 12.101C79.8018 11.9694 79.9422 11.8623 80.0995 11.7859C80.2567 11.7095 80.4277 11.6654 80.6023 11.6562Z" fill="#3A3C51"/>
<path d="M11.5248 38.1176C11.1193 37.5159 10.6745 36.9534 10.2167 36.3909C9.80906 35.8275 9.45437 35.2276 9.15715 34.5989C8.88594 34.0565 8.65 33.4972 8.45079 32.9245C8.22842 32.2574 8.04529 31.6165 7.84908 30.9232C7.52073 29.5988 7.28903 28.2523 7.1558 26.8943C6.95268 25.4342 6.86956 23.9598 6.90726 22.4861C6.91625 21.606 7.01709 20.7292 7.20812 19.87C7.41741 19.0067 7.73135 18.1564 8.01912 17.2538C8.11326 17.0215 8.27689 16.8239 8.48762 16.6881C8.69835 16.5523 8.9459 16.4849 9.19639 16.4952C9.37173 16.4955 9.54522 16.5311 9.70654 16.5998C10.0163 16.7381 10.2602 16.9914 10.3867 17.3062C10.514 17.6208 10.514 17.9726 10.3867 18.2872C10.2036 18.8366 10.0205 19.386 9.85042 19.9354C9.63057 20.7909 9.50771 21.6685 9.48416 22.5515C9.49585 24.2287 9.62699 25.9029 9.87658 27.5614C9.87658 27.9146 9.96815 28.2678 10.0336 28.621L10.2952 29.929C10.4783 30.5831 10.6614 31.2371 10.8707 31.8519C11.0866 32.4705 11.3444 33.0736 11.6425 33.657C11.8785 34.0672 12.1361 34.4646 12.4142 34.8474C12.8197 35.3706 13.2252 35.8938 13.6046 36.4432C13.7453 36.574 13.8555 36.7342 13.9273 36.9124C13.9991 37.0906 14.0308 37.2824 14.0201 37.4742C14.0094 37.666 13.9566 37.8531 13.8654 38.0222C13.7742 38.1913 13.6469 38.3383 13.4925 38.4526C13.3381 38.5669 13.1604 38.6458 12.9721 38.6837C12.7837 38.7216 12.5894 38.7176 12.4028 38.6719C12.2162 38.6261 12.0419 38.5399 11.8925 38.4192C11.743 38.2985 11.6219 38.1464 11.5378 37.9737L11.5248 38.1176Z" fill="#3A3C51"/>
<path d="M18.313 46.4502C17.9796 46.4808 17.6473 46.3825 17.3842 46.1755C17.1222 45.9604 16.954 45.6519 16.915 45.3152C16.8759 44.9784 16.9691 44.6397 17.1749 44.3703C17.2789 44.2327 17.4107 44.1185 17.5617 44.0351C17.7127 43.9517 17.8795 43.901 18.0514 43.8864C18.3847 43.8557 18.7171 43.954 18.9801 44.161C19.2421 44.3762 19.4103 44.6846 19.4494 45.0213C19.4884 45.3581 19.3952 45.6968 19.1894 45.9662C19.0854 46.1038 18.9537 46.218 18.8027 46.3014C18.6517 46.3848 18.4848 46.4355 18.313 46.4502Z" fill="#3A3C51"/>
<path d="M65.0524 49.5372C65.8104 49.093 66.544 48.6083 67.25 48.0852C67.904 47.6143 68.558 47.1434 69.1859 46.6463C69.8138 46.1493 70.3763 45.7438 70.9387 45.2598L72.9793 43.5462L72.7439 43.7817L75.1507 41.4533L74.9153 41.6888C75.1769 41.4402 75.4254 41.1655 75.6739 40.9039C75.8956 40.6391 76.2081 40.4665 76.5503 40.4199H76.6681C76.9088 40.4247 77.1435 40.4958 77.3464 40.6254C77.5492 40.755 77.7124 40.9381 77.8179 41.1545C77.9234 41.3709 77.9671 41.6123 77.9443 41.8519C77.9214 42.0916 77.8329 42.3203 77.6884 42.5128C76.7204 43.5331 75.687 44.5011 74.6798 45.4822L74.7845 45.3906L74.6798 45.4952L74.549 45.626L74.6536 45.5214C73.9996 46.1231 73.3456 46.6856 72.6131 47.2611C71.8805 47.8367 71.4096 48.216 70.7948 48.7C70.18 49.184 69.6045 49.6026 69.0028 50.0081C68.2355 50.5845 67.4363 51.1173 66.609 51.6039C66.3267 51.7996 65.9817 51.8835 65.641 51.8394C65.3132 51.7844 65.0185 51.6067 64.817 51.3423C64.6139 51.0633 64.5292 50.7154 64.5815 50.3743C64.5983 50.2099 64.6488 50.0508 64.7298 49.9067C64.8108 49.7627 64.9206 49.6369 65.0524 49.5372Z" fill="#3A3C51"/>
<path d="M60.6412 53.6305C60.9745 53.5999 61.3069 53.6982 61.5699 53.9052C61.8319 54.1203 62.0002 54.4287 62.0392 54.7655C62.0783 55.1022 61.985 55.441 61.7792 55.7103C61.6753 55.848 61.5435 55.9622 61.3925 56.0456C61.2415 56.1289 61.0747 56.1796 60.9028 56.1943C60.5695 56.2249 60.2371 56.1266 59.9741 55.9196C59.7121 55.7045 59.5438 55.3961 59.5048 55.0593C59.4658 54.7226 59.559 54.3838 59.7648 54.1145C59.8688 53.9768 60.0005 53.8626 60.1515 53.7792C60.3025 53.6959 60.4693 53.6452 60.6412 53.6305Z" fill="#3A3C51"/>
<path d="M134.534 103.258C134.816 102.949 135.07 102.617 135.293 102.263C135.601 101.703 135.859 101.116 136.065 100.511C136.191 100.04 136.27 99.558 136.3 99.0717C136.3 98.2607 136.3 97.4367 136.209 96.6257C136.155 95.2273 135.985 93.8358 135.699 92.466C135.558 91.9187 135.37 91.3847 135.136 90.8701C134.875 90.2815 134.574 89.706 134.286 89.1435C134.159 88.8289 134.159 88.4771 134.286 88.1624C134.424 87.8527 134.678 87.6088 134.992 87.4822C135.142 87.4229 135.302 87.3919 135.463 87.3907C135.643 87.3892 135.821 87.4249 135.986 87.4953C136.292 87.6401 136.533 87.8912 136.667 88.2017C137.033 88.908 137.399 89.6275 137.7 90.36C138.047 91.2721 138.292 92.2196 138.432 93.1854C138.631 94.5113 138.749 95.848 138.786 97.1881C138.929 98.5001 138.85 99.8269 138.55 101.112C138.282 102.031 137.895 102.91 137.399 103.728C137.197 104.068 136.969 104.391 136.719 104.696C136.455 104.999 136.166 105.279 135.856 105.534C135.649 105.672 135.406 105.749 135.157 105.754C134.908 105.76 134.663 105.694 134.45 105.565C134.237 105.436 134.066 105.248 133.955 105.025C133.845 104.802 133.801 104.552 133.828 104.304C133.883 103.976 134.061 103.681 134.325 103.48L134.534 103.258Z" fill="#3A3C51"/>
<path d="M131.446 80.4469C131.779 80.4163 132.112 80.5146 132.375 80.7216C132.637 80.9367 132.805 81.2451 132.844 81.5819C132.883 81.9186 132.79 82.2574 132.584 82.5267C132.48 82.6644 132.348 82.7786 132.197 82.862C132.046 82.9453 131.879 82.996 131.708 83.0107C131.374 83.0414 131.042 82.943 130.779 82.736C130.517 82.5209 130.349 82.2125 130.309 81.8757C130.27 81.539 130.364 81.2002 130.569 80.9309C130.673 80.7933 130.805 80.679 130.956 80.5957C131.107 80.5123 131.274 80.4616 131.446 80.4469Z" fill="#3A3C51"/>
<path d="M91.4854 111.657C91.1708 111.784 90.819 111.784 90.5043 111.657C90.1946 111.518 89.9507 111.265 89.8241 110.95C89.471 110.244 89.0916 109.564 88.7254 108.87C88.3591 108.177 88.1629 107.706 87.8882 107.118C87.2996 105.888 86.7109 104.672 86.1877 103.416L84.5265 99.4916C83.964 98.1835 83.4931 96.7969 83.0614 95.4235C82.6297 94.05 82.3681 93.0559 82.0673 91.8394C81.7829 90.6279 81.6078 89.3934 81.544 88.1506C81.544 87.5489 81.4656 86.9472 81.4394 86.3324V85.3644C81.3924 84.4603 81.4672 83.554 81.6618 82.6698C81.9888 81.2832 82.3158 79.8967 82.6428 78.5101C82.6978 78.1822 82.8755 77.8876 83.1399 77.686C83.3643 77.5235 83.6346 77.4365 83.9117 77.4375H84.1079C84.4391 77.4983 84.7341 77.6846 84.9315 77.9575C85.1289 78.2304 85.2134 78.5689 85.1674 78.9025C84.9712 79.7266 84.7881 80.5507 84.5918 81.3617C84.3082 82.355 84.1069 83.37 83.9901 84.3964C83.9901 85.5606 84.0555 86.7117 84.134 87.8759C84.134 88.4122 84.2256 88.9616 84.2779 89.4979C84.3302 90.0342 84.4349 90.492 84.5265 90.9891C85.1461 93.5728 85.9639 96.1048 86.9725 98.5628L88.6992 102.631C89.2224 103.861 89.8111 105.077 90.3997 106.28C90.6744 106.856 90.936 107.432 91.2238 107.994C91.5115 108.556 91.9301 109.302 92.2702 109.982C92.388 110.308 92.3715 110.668 92.2244 110.982C92.0772 111.296 91.8114 111.539 91.4854 111.657Z" fill="#3A3C51"/>
<path d="M95.4918 118.538C95.1585 118.569 94.8261 118.471 94.5631 118.264C94.4287 118.156 94.317 118.022 94.2344 117.871C94.1517 117.72 94.0998 117.554 94.0816 117.382C94.0633 117.211 94.0791 117.037 94.1281 116.872C94.1771 116.707 94.2582 116.553 94.3669 116.419C94.4708 116.282 94.6026 116.167 94.7536 116.084C94.9046 116.001 95.0714 115.95 95.2433 115.935C95.5766 115.905 95.909 116.003 96.172 116.21C96.434 116.425 96.6023 116.733 96.6413 117.07C96.6803 117.407 96.5871 117.746 96.3813 118.015C96.2798 118.161 96.1477 118.284 95.9941 118.374C95.8405 118.465 95.6691 118.521 95.4918 118.538Z" fill="#3A3C51"/>
</svg>
