<svg xmlns="http://www.w3.org/2000/svg" width="149" height="237" fill="#3a3c51" xmlns:v="https://vecta.io/nano"><path d="M27.064 163.365a62.44 62.44 0 0 0 4.33 6.03l2.525 2.917 2.145 2.25 1.988 1.9 3.584 3.388c2.943 2.707 5.913 5.402 8.7 8.254.615.64 1.216 1.308 1.805 1.975a25.53 25.53 0 0 0-.549 5.232 21.02 21.02 0 0 0 .092 2.394c.118.85.248 1.7.445 2.55a39.84 39.84 0 0 0 1.53 5.363c.6 1.504 1.308 2.982 1.962 4.447l.222.484c-.524 1.42-1.172 2.8-1.936 4.094a26.13 26.13 0 0 1-3.82 4.683 26.79 26.79 0 0 1-4.63 3.689 5.01 5.01 0 0 1-.746.301 7.32 7.32 0 0 1-1.086.105c-.458 0-.916-.066-1.386-.118a1.63 1.63 0 0 0-1.844 1.308 1.62 1.62 0 0 0 1.308 1.844c.98.165 1.98.2 2.97.105a6.53 6.53 0 0 0 1.413-.327c.453-.197.9-.43 1.308-.693a25.54 25.54 0 0 0 4.382-3.48 29.67 29.67 0 0 0 3.78-4.225 25.4 25.4 0 0 0 2.106-3.322l.222.484a34.76 34.76 0 0 1 1.727 4.683c.152.593.26 1.196.327 1.805v1.857a14.27 14.27 0 0 1-.144 1.478c-.078.497-.2 1.007-.34 1.505a24.24 24.24 0 0 1-2.027 4.748c-.24.367-.512.712-.8 1.033-.37.332-.767.63-1.2.9a10.84 10.84 0 0 1-1.87.745 1.63 1.63 0 0 0-.72.593 1.61 1.61 0 0 0 .72 2.377c.395.156.835.156 1.23 0a10.36 10.36 0 0 0 3.048-1.426 8.14 8.14 0 0 0 1.844-1.753 12.15 12.15 0 0 0 .955-1.53 23.66 23.66 0 0 0 1.544-3.506 16.23 16.23 0 0 0 .981-4.238V221.9a11.44 11.44 0 0 0-.262-2.027 24.53 24.53 0 0 0-1.596-5.023c-.654-1.518-1.308-3.022-2.04-4.5.92-2.93 1.3-6 1.125-9.065a20 20 0 0 0-1.1-5.572c-.65-1.77-1.53-3.445-2.616-4.984-.34-.47-.706-.916-1.06-1.374a10.39 10.39 0 0 1 .628-1.308 13.69 13.69 0 0 1 .889-1.308c.393-.484.8-.955 1.308-1.4a19.39 19.39 0 0 1 1.9-1.583 22.76 22.76 0 0 1 2.054-1.308 48.98 48.98 0 0 1 5.925-2.446c2.054-.72 4.133-1.308 6.24-1.9l1.897-.406c.615-.117 1.308-.196 1.87-.327 1.486-.275 2.95-.655 4.382-1.138.785-.274 1.57-.562 2.34-.902a98.51 98.51 0 0 0 2.616-1.204 31.5 31.5 0 0 0 2.315-1.216 27.65 27.65 0 0 0 3.663-2.329c1.015-.855 1.972-1.777 2.865-2.76.563-.6 1.125-1.203 1.648-1.844.6-.7 1.14-1.452 1.648-2.224.536-.824 1.033-1.687 1.53-2.537.223-.393.42-.8.602-1.217a10.23 10.23 0 0 0 .589-1.648c.12-.492.176-.998.17-1.504v-2.616c-.092-1.845-.236-3.7-.38-5.52l-.706-10.216.353-.105a2.62 2.62 0 0 0 1.374-1.164 2.92 2.92 0 0 0 .274-1.675c-.275-1.267-.8-2.47-1.517-3.545l-.314-.523a1.81 1.81 0 0 0 .889 0l4.984-1.622 10.033-3.322 5.102-1.805 3.335-1.204a48.91 48.91 0 0 0 6.724-2.995c1.2-.654 2.328-1.308 3.453-2.132s1.923-1.3 2.852-2.015a42.47 42.47 0 0 0 2.851-2.394 14.46 14.46 0 0 0 2.368-2.616 38.37 38.37 0 0 0 2.616-4.774c.38-.824.706-1.635 1.033-2.473a13.87 13.87 0 0 0 .537-1.765 12.21 12.21 0 0 0 .34-1.832 18.92 18.92 0 0 0 0-3.924c-.25-1.982-.688-3.935-1.308-5.834a32.7 32.7 0 0 0-2.983-7.26 20.33 20.33 0 0 0-2.21-3.022l-.968-1.033c-.646-.73-1.365-1.392-2.146-1.975a13.6 13.6 0 0 0-2.485-1.413 5.82 5.82 0 0 0-.576-.196c-.543-.2-1.1-.333-1.687-.392a15.27 15.27 0 0 0-3.649.262 16.19 16.19 0 0 0-4.186 1.439c-.8.37-1.547.8-2.263 1.308a21.1 21.1 0 0 0-2.342 2.17l-3.492 3.898-3.362 3.924c-1.073 1.308-2.12 2.747-3.074 4.2s-1.727 2.812-2.564 4.12l-1.15 1.857-.275-1.95c-.196-1.308-.34-2.708-.536-4.068a76.54 76.54 0 0 0-1.072-6.213c-.004-.184-.04-.365-.105-.536l-.262-1.125-.248-1.046v-.38l-.38-1.308c-.235-.837-.497-1.648-.758-2.472-.716-2.134-1.763-4.142-3.1-5.952-.825-1.125-1.714-2.158-2.617-3.205-.3-.34-.615-.654-.93-.98a11.75 11.75 0 0 0-1.818-1.714c-1.1-.725-2.282-1.322-3.52-1.78a9.09 9.09 0 0 0-3.01-.64h-1.66a12.85 12.85 0 0 0-2.381.301 15.93 15.93 0 0 0-2.616.733 18.76 18.76 0 0 0-2.551 1.151 8.82 8.82 0 0 0-1.1.68 15.47 15.47 0 0 0-.903.733 11.38 11.38 0 0 0-3.244 5.429 20.95 20.95 0 0 0-.85 5.232 44.17 44.17 0 0 0 .092 5.402c.13 1.753.3 3.492.55 5.232a38.47 38.47 0 0 0 1.112 5.232 51.62 51.62 0 0 0 .824 2.616c.157.458.366.903.536 1.308a29.07 29.07 0 0 0 .458 1.033c.34.772.68 1.544 1.073 2.3l1.426 2.617c.837 1.504 1.766 2.956 2.734 4.382s1.7 2.733 2.708 4.146l2.9 4.108c.484.693.994 1.386 1.452 2.092l1.308 2.08c.903 1.4 1.74 2.826 2.616 4.212s1.792 2.616 2.747 3.924c.327.432.628.877.93 1.3l-.458.43c-.392.393-.785.772-1.15 1.177a3.1 3.1 0 0 0-.903 1.845 1.62 1.62 0 0 0 .092.837l.065.222c.1.198.208.4.327.576a5.01 5.01 0 0 0 .824.798 6.42 6.42 0 0 0 1.452.759l.706 10.255.314 4.2c.092 1.4.196 2.93.17 4.408a4.84 4.84 0 0 1-.144.719 17.99 17.99 0 0 1-1.465 2.996l-1.046 1.648a20.04 20.04 0 0 1-1.269 1.805c-.903 1.086-1.884 2.093-2.9 3.074a23.45 23.45 0 0 1-4.408 2.996c-1.374.72-2.76 1.412-4.186 2.027-1.42.6-2.88 1.12-4.37 1.53l-1.1.248c-.837.17-1.687.3-2.525.458a42.29 42.29 0 0 0-2.838.641 83.08 83.08 0 0 0-5.141 1.556 36.41 36.41 0 0 0-9.601 4.448c-.663.474-1.293.994-1.884 1.557a15.88 15.88 0 0 0-1.897 2.04 18.39 18.39 0 0 0-1.308 1.897c-1.177-1.308-2.407-2.472-3.663-3.663l-3.663-3.466-3.924-3.584-2.46-2.355-1.805-1.74c-1.862-1.904-3.6-3.917-5.232-6.03a59.55 59.55 0 0 1-4.33-6.54 42.84 42.84 0 0 1-3.715-10.007l-1.007-4.186-.863-4.212c-.2-.994-.366-2.014-.5-3.02-.212-1.736-.295-3.485-.248-5.233v-.13a28.22 28.22 0 0 1 .876-6.541 16.73 16.73 0 0 1 1.308-2.616l.942-1.687a27 27 0 0 1 2.42-3.506 47.53 47.53 0 0 1 2.708-2.904c1.635-1.556 3.4-2.982 5.128-4.42 1.44-1.204 2.84-2.446 4.173-3.754a18.39 18.39 0 0 0 2.184-2.433 7.77 7.77 0 0 0 .903-1.505c.157-.392.314-.797.458-1.203a35.05 35.05 0 0 0 1.452-5.925 26.16 26.16 0 0 0 .327-3.323 27.48 27.48 0 0 0 0-3.453 40.18 40.18 0 0 0-1.033-5.52 2.28 2.28 0 0 0 .51 0 2.34 2.34 0 0 0 1.583-.772 2.62 2.62 0 0 0 .628-1.44 6.35 6.35 0 0 0 0-1.112c0-.235-.078-.47-.13-.706s-.17-.706-.262-1.06l-.327-1.203-1.426-4.644c.262-.262.497-.536.76-.785a42.57 42.57 0 0 1 7.221-5.481l3.78-2.276 9.04-4.84c1.557-.837 3.087-1.753 4.63-2.616 2.84-1.593 5.575-3.367 8.2-5.3l3.074-2.407c1.02-.8 1.923-1.544 2.84-2.368s1.975-1.844 2.9-2.84c.83-.86 1.602-1.774 2.315-2.734a29.11 29.11 0 0 0 3.427-6.684 98.79 98.79 0 0 0 1.138-3.309 133.25 133.25 0 0 0 1.609-5.232l.2-.733a6.54 6.54 0 0 0 .327-1.622 13.2 13.2 0 0 0-.523-3.78 38.17 38.17 0 0 0-2.551-7.051c-.667-1.308-1.4-2.616-2.145-3.924a23.32 23.32 0 0 0-2.616-3.924 10.97 10.97 0 0 0-3.14-2.446c-.804-.422-1.634-.793-2.485-1.112C81.14.82 79.898.47 78.628.262 77.53.118 76.444 0 75.332 0H74.4c-.682-.002-1.363.037-2.04.118a27.21 27.21 0 0 0-3.689.693 29.98 29.98 0 0 0-6.854 2.682 33.32 33.32 0 0 0-3.466 2.119c-.965.688-1.887 1.435-2.76 2.237a34.44 34.44 0 0 0-4.945 5.651c-.706 1.02-1.308 2.067-1.988 3.126a112.64 112.64 0 0 0-2.525 4.5l-2.5 5.036c-.327.68-.64 1.374-.955 2.067l-1.308-3.584a34.94 34.94 0 0 0-3.846-6.632A56.04 56.04 0 0 0 27.339 7.299c-1.57-1.216-3.18-2.328-4.788-3.375-.706-.484-1.44-.955-2.184-1.308a15.55 15.55 0 0 0-3.022-1.517 8.74 8.74 0 0 0-3.728 0c-.497.078-.994.183-1.5.288-.9.17-1.766.366-2.616.602-.657.172-1.303.382-1.936.628a13.19 13.19 0 0 0-1.426.667 9.63 9.63 0 0 0-1.557.968 6.54 6.54 0 0 0-1.308 1.465 15.32 15.32 0 0 0-.955 1.61c-.222.47-.47.93-.667 1.413C1.16 9.95.767 11.2.484 12.48a18.31 18.31 0 0 0-.406 2.381C0 15.867 0 16.86 0 17.855v1.308c0 .445 0 .837.105 1.243l.2 1.478c0 .392.157.772.235 1.164.2 1.02.47 2 .746 3.008s.497 1.66.772 2.485a21.09 21.09 0 0 0 .903 2.302c.353.76.576 1.44.903 2.158s.785 1.792 1.308 2.616l1.5 2.8c.392.706.824 1.4 1.243 2.093a96.15 96.15 0 0 0 2.76 4.46 20.72 20.72 0 0 0 3.192 3.99l7.6 7.13c1.308 1.203 2.5 2.446 3.793 3.623s2.525 2.197 3.833 3.257c2.6 2.044 5.065 4.228 7.417 6.54.484.523.968 1.02 1.426 1.57a24.17 24.17 0 0 1 1.204 1.57c-.34.68-.733 1.308-1.073 2.04a14.2 14.2 0 0 0-1.112 2.878 4.55 4.55 0 0 0 .248 3.009 2.96 2.96 0 0 0 1.125 1.23c.34.2.693.406 1.046.6a11.98 11.98 0 0 0 1.308.55c-.033.042-.063.086-.092.13a1.74 1.74 0 0 0 0 1.23l.196.772a36.45 36.45 0 0 1 .654 3.61 24.68 24.68 0 0 1 .17 3.388c-.104 2.555-.512 5.1-1.216 7.547-.157.523-.34 1.046-.523 1.57-.145.4-.32.807-.523 1.2-.678.942-1.445 1.818-2.3 2.616-1.164 1.112-2.38 2.184-3.623 3.218l-4.644 3.924a43.16 43.16 0 0 0-4.408 4.67c-.98 1.232-1.857 2.544-2.616 3.924-.484.876-1.007 1.753-1.426 2.616a18.36 18.36 0 0 0-1.4 5.9 49.92 49.92 0 0 0-.21 4.16c-.03 1.262.018 2.525.144 3.78a50.16 50.16 0 0 0 .706 4.421l1.23 5.572a73.16 73.16 0 0 0 2.747 9.353 40.27 40.27 0 0 0 3.506 6.828zm12.95-84.645a4.71 4.71 0 0 1 .105-.628 19.34 19.34 0 0 1 1.047-2.394 1.76 1.76 0 0 0 .615-.314l.42 1.4.955 3.323v.262l-.47-.13a14.78 14.78 0 0 1-2.616-1.073H40c.026-.2.013-.327.013-.445zm4.46-10.465c-.667.6-1.308 1.203-1.923 1.818a1.57 1.57 0 0 0-.419-.288c-.202-.087-.42-.132-.64-.13a1.57 1.57 0 0 0-.549.105 41.59 41.59 0 0 0-4.5-4.683c-.98-.903-1.988-1.78-2.995-2.616l-2.982-2.485-3.924-3.44c-.602-.55-1.164-1.125-1.753-1.687l-1.975-1.897-3.846-3.597c-1.23-1.2-2.302-2.093-3.388-3.192-1.585-1.917-3-3.97-4.225-6.135a101.49 101.49 0 0 1-1.91-3.166c-.602-1.047-1.177-2.132-1.766-3.192l.17.34-1.308-2.878c-.42-.902-.733-1.844-1.1-2.76s-.602-1.818-.9-2.734-.432-1.544-.628-2.315a31.5 31.5 0 0 1-.615-3.702c-.092-1.216-.118-2.433-.105-3.65 0-.392 0-.798.118-1.2s.157-.876.235-1.308c.157-.772.34-1.543.55-2.302a16.67 16.67 0 0 1 1.452-3.244 7.17 7.17 0 0 1 .68-.916c.345-.3.712-.553 1.1-.785a11.25 11.25 0 0 1 2.21-.93l1.138-.314 1.6-.353a19.38 19.38 0 0 1 3.636-.5 4.55 4.55 0 0 1 .628.092 24.7 24.7 0 0 1 2.498 1.217c1.308.785 2.512 1.6 3.715 2.498.85.628 1.7 1.23 2.525 1.897 1.7 1.392 3.34 2.882 4.88 4.46a47.65 47.65 0 0 1 7.155 9.484 24.3 24.3 0 0 1 1.086 2.394l1.413 3.767.353 1.007a10.92 10.92 0 0 0 .68 1.753 1.85 1.85 0 0 0 1.91.955 1.96 1.96 0 0 0 .753-.325 1.98 1.98 0 0 0 .555-.604c.3-.523.576-1.07.798-1.635l1.047-2.354c1.478-3.152 3.087-6.24 4.748-9.3l1.57-2.616a27.77 27.77 0 0 1 2.041-2.891 34.71 34.71 0 0 1 2.773-3.061 29.6 29.6 0 0 1 2.721-2.315c3.022-2.24 6.46-3.853 10.1-4.748 1.652-.38 3.34-.576 5.036-.6.706 0 1.413.065 2.12.13.8.05 1.6.18 2.394.392l.746.196a25.42 25.42 0 0 1 3.636 1.609c.522.338 1.013.723 1.465 1.15a34.14 34.14 0 0 1 3.584 5.546c.782 1.436 1.468 2.92 2.054 4.448a44.02 44.02 0 0 1 1.308 4.356c.18.764.286 1.544.314 2.328a4.07 4.07 0 0 1-.118.837l-.352 1.268-.3 1.047-1.308 3.924-.837 2.433a32.51 32.51 0 0 1-2.42 5.232 29.16 29.16 0 0 1-4.225 5.062c-1.073 1.02-2.198 1.975-3.35 2.904l-3.3 2.616a89.32 89.32 0 0 1-3.676 2.616c-1.256.85-2.184 1.426-3.323 2.067l-5.232 3.022-9.327 4.958c-.733.392-1.426.837-2.132 1.308l-2.616 1.556c-.955.576-1.857 1.217-2.76 1.858a33.16 33.16 0 0 0-2.786 2.158v.026zm54.56 66.843c.235-.262.497-.524.76-.772.205.364.4.74.55 1.125a6.76 6.76 0 0 1-.824-.144l-.484-.2zm2.525-6.645a1.51 1.51 0 0 0-.659.46 1.53 1.53 0 0 0-.336.73l-1.2-1.7c-1.923-2.616-3.597-5.402-5.337-8.136l-1.4-2.197-1.374-1.975-2.982-4.226c-1.007-1.4-1.95-2.838-2.956-4.146s-1.805-2.826-2.616-4.304a51.67 51.67 0 0 1-2.368-4.996c-.38-.915-.713-1.85-.994-2.8l-.72-2.616a64.69 64.69 0 0 1-1.15-12.152c.02-.83.084-1.66.196-2.485a25.11 25.11 0 0 1 .536-2.616 14.86 14.86 0 0 1 1.125-2.616 9.51 9.51 0 0 1 1.099-1.308c.266-.247.55-.474.85-.68l.8-.5a21.15 21.15 0 0 1 3.689-1.308l1.674-.275a11.08 11.08 0 0 1 1.557 0c.65.018 1.3.097 1.936.235a18.21 18.21 0 0 1 2.982 1.308 6.69 6.69 0 0 1 .968.733l.445.445c.654.693 1.308 1.373 1.9 2.093a27.94 27.94 0 0 1 3.296 4.617 32.33 32.33 0 0 1 2.263 6.436 1.85 1.85 0 0 0 0 .235l.524 1.936.536 2.76c.157.8.248 1.635.38 2.46.25 1.635.458 3.283.654 4.918l.34 2.38c0 .42.144.837.2 1.308s.104.654.17.98c.05.314.126.625.222.93a7.18 7.18 0 0 0 .25.562 1.65 1.65 0 0 0 .856.874c.388.17.825.185 1.223.042a2.27 2.27 0 0 0 1.034-.693c.144-.17.275-.328.405-.498l.445-.64a31.73 31.73 0 0 0 .693-1.085l1.44-2.33 2.76-4.382c.955-1.44 1.923-2.616 2.93-3.924s2.276-2.72 3.454-4.042 2.42-2.734 3.715-4.016c.668-.655 1.4-1.23 2.2-1.714 1.207-.677 2.483-1.22 3.807-1.622a16.36 16.36 0 0 1 2.891-.314 5.91 5.91 0 0 1 .967.144 6.74 6.74 0 0 1 1.073.419l.798.432a12.72 12.72 0 0 1 1.15.876c.366.327.72.667 1.073 1.007a13.22 13.22 0 0 1 1.164 1.308 20.18 20.18 0 0 1 2.119 3.074c.43.847.807 1.72 1.125 2.616.196.523.405 1.033.575 1.57a64.06 64.06 0 0 1 1.217 4.081 21.15 21.15 0 0 1 .562 4.892 14.47 14.47 0 0 1-.484 3.074c-.276.894-.613 1.768-1.007 2.616-.615 1.308-1.23 2.616-1.975 3.924a14.42 14.42 0 0 1-1.988 2.616 41.19 41.19 0 0 1-4.251 3.467c-1.48 1.033-2.97 2.053-4.54 2.956-2.683 1.362-5.464 2.52-8.32 3.466l-9.863 3.454-11.798 3.872zm-46.712 65.403c.078.13.183.262.262.406a19.44 19.44 0 0 1 1.648 4.146 21.84 21.84 0 0 1 .484 5.154c0 .693-.105 1.387-.196 2.067-.327-.785-.628-1.583-.9-2.394s-.445-1.57-.64-2.355a32.25 32.25 0 0 1-.575-2.93 25.79 25.79 0 0 1-.157-2.982c0-.47.052-.824.08-1.177l-.013.065zm25.755-182.2h.144a1.37 1.37 0 0 1 .785.275 25.23 25.23 0 0 1 2.46 1.753c.82.727 1.523 1.58 2.08 2.525l.76 1.452.68 1.413c.18.5.285 1.043.314 1.583a6.69 6.69 0 0 1-.092 1.583 23.54 23.54 0 0 1-.955 3.741 11.01 11.01 0 0 1-1.439 2.799 1.31 1.31 0 0 1-1.805.209 1.31 1.31 0 0 1-.209-1.805l.275-.392c.395-.75.724-1.534.98-2.34l.2-.76a14.13 14.13 0 0 0 .314-1.439 10.18 10.18 0 0 0 .157-1.073 6.75 6.75 0 0 0-.09-.994 7.53 7.53 0 0 0-.55-1.243l-.602-1.203a10.2 10.2 0 0 0-1.308-1.753 8.58 8.58 0 0 0-1.19-.981l-1.622-1.1a1.31 1.31 0 0 1-.469-.86c-.04-.337.054-.675.26-.945.115-.132.255-.24.413-.315a1.31 1.31 0 0 1 .503-.13zM11.525 38.118c-.405-.602-.85-1.164-1.308-1.727a11.29 11.29 0 0 1-1.06-1.792 14.29 14.29 0 0 1-.706-1.674l-.602-2c-.328-1.324-.56-2.67-.693-4.03-.203-1.46-.286-2.934-.25-4.408a12.65 12.65 0 0 1 .301-2.616c.2-.863.523-1.714.8-2.616.094-.232.258-.43.47-.566a1.22 1.22 0 0 1 .71-.193 1.31 1.31 0 0 1 .51.105 1.31 1.31 0 0 1 .68 1.687l-.536 1.648a11.77 11.77 0 0 0-.366 2.616 35.32 35.32 0 0 0 .392 5.01c0 .353.092.706.157 1.06l.262 1.308.575 1.923a14.3 14.3 0 0 0 .772 1.805c.236.4.494.808.772 1.2l1.2 1.596a1.31 1.31 0 0 1-.113 2.009 1.31 1.31 0 0 1-1.955-.479l-.013.144zm6.788 8.332a1.31 1.31 0 0 1-.929-.275 1.31 1.31 0 0 1-.209-1.805 1.23 1.23 0 0 1 .877-.484 1.31 1.31 0 0 1 .929.275 1.31 1.31 0 0 1 .209 1.805 1.23 1.23 0 0 1-.876.484zm46.74 3.087a24.49 24.49 0 0 0 2.198-1.452l1.936-1.44 1.753-1.386 2.04-1.714-.235.236 2.407-2.328-.235.236.76-.785a1.39 1.39 0 0 1 .876-.484h.118a1.31 1.31 0 0 1 1.021 2.093l-3 2.97.105-.092-.13.13-2.04 1.74-1.818 1.44-1.792 1.308a25.4 25.4 0 0 1-2.394 1.596 1.38 1.38 0 0 1-.968.235 1.31 1.31 0 0 1-1.059-1.465c.017-.164.067-.323.148-.468a1.18 1.18 0 0 1 .323-.37zM60.64 53.63a1.31 1.31 0 0 1 1.398 1.135 1.31 1.31 0 0 1-.26.945 1.23 1.23 0 0 1-.876.484 1.31 1.31 0 0 1-1.398-1.135 1.31 1.31 0 0 1 .26-.945 1.23 1.23 0 0 1 .876-.484zm73.894 49.628a7.05 7.05 0 0 0 .759-.995 10.98 10.98 0 0 0 .772-1.752 7.31 7.31 0 0 0 .235-1.439l-.1-2.446a25.09 25.09 0 0 0-.51-4.16 9.7 9.7 0 0 0-.563-1.596l-.85-1.727a1.31 1.31 0 0 1 0-.981 1.31 1.31 0 0 1 1.177-.772c.18-.001.358.034.523.105a1.39 1.39 0 0 1 .681.706l1.033 2.158a13.32 13.32 0 0 1 .732 2.825 33.13 33.13 0 0 1 .354 4.003 11.69 11.69 0 0 1-.236 3.924c-.268.92-.655 1.798-1.15 2.616-.202.34-.43.663-.68.968a7.27 7.27 0 0 1-.863.838 1.31 1.31 0 0 1-.699.22c-.25.006-.494-.06-.707-.2a1.32 1.32 0 0 1-.495-.54 1.31 1.31 0 0 1-.127-.721 1.31 1.31 0 0 1 .497-.824l.2-.222zm-3.088-22.81a1.31 1.31 0 0 1 1.399 1.135c.04.337-.054.675-.26.945a1.23 1.23 0 0 1-.876.484 1.31 1.31 0 0 1-1.399-1.135 1.31 1.31 0 0 1 .26-.945 1.23 1.23 0 0 1 .877-.484zm-39.96 31.2a1.31 1.31 0 0 1-.981 0 1.31 1.31 0 0 1-.68-.707l-1.1-2.08-.837-1.752-1.7-3.702-1.66-3.924c-.562-1.308-1.033-2.695-1.465-4.068l-.994-3.584a20.81 20.81 0 0 1-.523-3.689c0-.602-.078-1.203-.105-1.818v-.968a10.16 10.16 0 0 1 .222-2.695l.98-4.16a1.31 1.31 0 0 1 1.269-1.073h.196a1.31 1.31 0 0 1 1.06 1.465l-.576 2.46c-.284.993-.485 2.008-.602 3.035l.144 3.48c0 .536.092 1.086.144 1.622s.157.994.25 1.5a51.72 51.72 0 0 0 2.446 7.574l1.727 4.068 1.7 3.65.824 1.714 1.046 1.988a1.31 1.31 0 0 1-.785 1.675zm4.007 6.88c-.333.03-.666-.067-.93-.274a1.31 1.31 0 0 1-.329-.393 1.29 1.29 0 0 1-.153-.49 1.24 1.24 0 0 1 .047-.5 1.31 1.31 0 0 1 .239-.453 1.23 1.23 0 0 1 .387-.335 1.24 1.24 0 0 1 .49-.149 1.31 1.31 0 0 1 1.399 1.135 1.31 1.31 0 0 1-.26.945 1.23 1.23 0 0 1-.387.359 1.21 1.21 0 0 1-.502.164z"/></svg>