<svg xmlns="http://www.w3.org/2000/svg" width="76" height="44" fill="#fff" xmlns:v="https://vecta.io/nano"><path d="M75 19.686a24.78 24.78 0 0 1-4.112-2.722.83.83 0 0 0-.373-1.089 12.08 12.08 0 0 1 3.195-4.298.7.7 0 0 0-.301-1.161 6.4 6.4 0 0 0-2.636-.085c-.875.155-1.708.5-2.447.985a6.27 6.27 0 0 0-1.842 1.888 6.41 6.41 0 0 0-.925 2.47H62.5a10.43 10.43 0 0 0-.301-5.731C58.26-1.088 43.26-.085 37.43 8.397c-1.202-2.676-3.202-4.915-5.725-6.4S26.256-.187 23.332.044c-5.086.5-10.03 3.754-11.1 9.012a14.04 14.04 0 0 0 .502 6.748c-1.82 0-3.653.13-5.46.244a.56.56 0 0 0-.387.186c0-.917 0-1.82.086-2.722a.79.79 0 0 0-1.003-.759 43.27 43.27 0 0 0-5.587 2.278c-.105.06-.195.145-.263.246a.79.79 0 0 0-.088.696.79.79 0 0 0 .193.304c1.5 1.475 3.345 2.574 5.358 3.2.14.047.3.047.43 0a.43.43 0 0 0 .574-.358 26.62 26.62 0 0 0 .244-2.178.53.53 0 0 0 .444.258c2 .13 3.997.2 6.003.258a47.41 47.41 0 0 0 6.361 10.588 58.74 58.74 0 0 0 16.676 15.759.6.6 0 0 0 .329.086c.14.08.3.113.458.098a.77.77 0 0 0 .43-.184c6.72-5.03 13.5-10.215 18.74-16.848a34.8 34.8 0 0 0 5.587-9.198h3.8c-.003.038-.003.076 0 .115.864 1.6 2.304 2.8 4.028 3.388s3.603.478 5.256-.28a.67.67 0 0 0 .372-.227c.095-.115.15-.258.155-.408a.67.67 0 0 0-.128-.417c-.088-.12-.213-.2-.356-.25zM2.315 15.9a40.7 40.7 0 0 1 3.08-1.246v3.2c-1.003-.616-2.063-1.247-3.08-1.963zm58.066-.344c-3.983 0-7.966.115-11.92.272a7.16 7.16 0 0 0-.129-2.12c-.2-.946-1.576-.53-1.433.387a7.94 7.94 0 0 1 0 2.493 7.42 7.42 0 0 1-.86 2.464c-.344.616.516 1.075.93.544a7.16 7.16 0 0 0 1.16-2.235c3.797.158 7.636.272 11.46.287a29.71 29.71 0 0 1-1.218 2.436c-5.043 9.17-13.754 15.63-21.877 21.863-6.948-5.888-13.395-11.9-18.224-19.742-.954-1.5-1.792-3.1-2.507-4.728l10.588-.115c.062.008.124.008.186 0a5.73 5.73 0 0 0 1.06 2.335c.387.5 1.003-.143.802-.616a6.23 6.23 0 0 1-.301-4.198.74.74 0 1 0-1.433-.387 5.11 5.11 0 0 0-.287 1.433h-.086a225.03 225.03 0 0 0-11.218-.1c-1.547-4.67-1.433-9.585 4.012-12.45 6.5-3.438 13.625-.143 16.762 6.046a.79.79 0 0 0 .946.43.56.56 0 0 0 .167.245c.077.065.168.1.267.13a.48.48 0 0 0 .295-.02.57.57 0 0 0 .245-.166c3.123-3.94 7.665-6.82 12.894-6.418a11.36 11.36 0 0 1 9.097 5.731c.998 1.9 1.22 4.134.616 6.203zm11.375-3.97a10.73 10.73 0 0 0-2.178 4.083.41.41 0 0 0 0 .086l-2.564-.1a5 5 0 0 1 4.742-4.054v-.014zm-4.413 6l2.693-.1a17.68 17.68 0 0 0 3.037 2.636c-1.096.143-2.2-.018-3.22-.465a6.03 6.03 0 0 1-2.51-2.071zM57 8.44a8.44 8.44 0 0 0-5.831-3.095c-.373 0-.444.573-.086.645 2.035.446 3.847 1.598 5.115 3.252.46.587 1.26-.23.802-.802zm-3.984-.673a6.36 6.36 0 0 0-1.834-.817l-2.235-.817a.32.32 0 0 0-.243 0c-.078.032-.14.094-.172.172a.32.32 0 0 0 0 .243c.032.078.094.14.172.172.688.387 1.433.702 2.135 1.046a6.42 6.42 0 0 0 1.877.76c.087-.002.17-.03.243-.08s.126-.12.158-.2.04-.17.022-.255a.44.44 0 0 0-.122-.224zM34.063 37.194c-1.732-1.5-3.386-3.088-4.957-4.756-.186-.186-.544 0-.387.3a38.88 38.88 0 0 0 4.628 5.186c.458.473 1.218-.33.716-.73zm2.037-.488l-3.825-3.553c-.258-.258-.745.086-.516.4 1.005 1.468 2.2 2.806 3.524 3.983.544.458 1.347-.244.817-.83z"/></svg>