<svg xmlns="http://www.w3.org/2000/svg" width="299" height="414" fill="#3a3c51" xmlns:v="https://vecta.io/nano"><path d="M198.56 157.45l-7.065 21.842h.106l9.75-25.76 2.632-6.885c.247-.678.106-1.3-.813-1.357s-.812.44-.918 1c-.618 3.95-2.544 7.428-3.692 11.16zm3.017 161.652c-1.945 4.15-4.3 8.168-5.038 12.595 2.976-3.823 3.443-8.364 5.038-12.595zm21.295-46.415a1.98 1.98 0 0 0-.012-1.356c-.163-.437-.475-.802-.88-1.032a1.68 1.68 0 0 0-2.205.151 7.79 7.79 0 0 1-3.236 1.35c-1.168.198-2.365.128-3.5-.206-.506-.118-.876-1.093-1.382 0s.152 1.463.944 1.513h4.38c.6 0 1.398-.387 1.516.52a4.25 4.25 0 0 1-.472 1.783c-.337.9-.825.387-1.448.252-7.73-1.68-15.395-3.48-23.3-4.32L165.78 268.5c-3.014-.286-6.5.32-8.943-1-3.453-1.883-3.723.303-4.464 2.236-1.684 4.625-4.463 8.862-5.507 13.772a3.02 3.02 0 0 0-.244 1.185 3.01 3.01 0 0 0 .244 1.186c.556.773 1.5.538 2.274.185a6.31 6.31 0 0 1 3.991-.101c10.982 2.102 21.997 4.07 33.097 5.448 5.936.483 11.84 1.297 17.685 2.438 3.2.774 4.497-.622 5.8-2.54a23.43 23.43 0 0 0 2.745-5.667c.64-1.866 1.684-2.034 3.234-1.462-1.13 4.725-3.588 8.962-5.053 13.536-.438 1.278-1.33.958-2.004.857-10.106-1.43-20.448-2.287-30.47-4.742l-17.096-3.968c-6.82-1.68-13.878-2.42-20.935-3.582l.42-1.547c2.105-7.196 6.265-13.57 8.185-20.833.388-1.463 1.415-1.278 2.476-1.245 11.992.22 23.715 2.707 35.6 3.935 8.742.908 17.45 2.22 26.174 3.363l.168-.622a15.15 15.15 0 0 0-2.644-.925l-33.517-5.297c-8.927-1.26-17.904-2.203-26.95-3.1-1.145-.117-2.728-.437-3.368 1.682-2.83 8.408-5.946 16.58-8.877 24.87-.454 1.295-1.1 3.162 1.045 3.6 2.88.588 5.406 2.135 8.253 2.64 7.663 1.396 15.478 2 23.007 4.052 12 3.262 24.338 4.507 36.667 5.55 1.684.152 4.8 1.38 5.844-1.95 2.914-9.383 8.304-17.892 10.258-27.745zm-18.342 18.496a18.35 18.35 0 0 1-1.886-.185l-30.52-4.556c-6.57-.8-12.97-2.64-19.605-2.96-2.2-.1-2.947-1.16-1.684-3.363a33.28 33.28 0 0 0 3.03-6.238 4.39 4.39 0 0 1 .649-1.671 4.4 4.4 0 0 1 1.263-1.273c.504-.333 1.072-.558 1.668-.662s1.206-.085 1.793.058c7.815.74 15.715.84 23.395 2.54s15.664 1.8 23.36 3.548c5.053 1.143 5.053 1.06 3.133 7.113a19.69 19.69 0 0 0-1.263 4.842c-.017 2.708-1.45 2.993-3.352 2.892l.017-.084zm9.533-8.407c.86-1.396-1-3.834 1.45-4.5.623-.168 2.054.303 2.02 1.06-.068 2-2.325 2.17-3.487 3.43h.017z"/><path d="M252.988 405.614a100.7 100.7 0 0 1 11.089 1.028c-5.292-.81-9.707-3.37-14.375-6.403 3.74-.725 6.623.6 9.892 1.432-1.904-2.342-5.055-1.45-7.044-3.37 5.51-.152 10.246 2.612 16.06 2.932l-14.2-4.38c5.2-.303 9.96 1.567 14.965 2.14-5.696-2.764-12.2-3.016-18.32-5.696a121.2 121.2 0 0 1 17.527 2.562l.1-.792-16.398-4.415c11.342.303 21.37 3.286 32.19 4.314-4.416-2.275-8.95-1.938-13.112-3.202-6.2-1.87-12.74-2.646-19.127-3.926-4.13-.843-4.247-1.18-2.292-5.056 2.696-5.307 2.612-5.223-1.01-9.57l-12.86-15.84a4.45 4.45 0 0 1-1.313-2.366c-.18-.906-.075-1.845.302-2.69l8.965-26.49c3.37-9.555 6.354-19.2 10.112-28.647 3.413-8.53 6.366-17.238 8.848-26.085 1.112-3.926 1.887-4.752 5.055-4.128.143-.004.282-.042.405-.113a.86.86 0 0 0 .303-.291c.826-2.376 2.376-.81 3.674-.742s2.932 0 4.382 0c0 0 .253.49.202.708-.472 2.376 0 2.68 1.87 1.01.155-.146.34-.257.542-.324s.417-.1.63-.066.415.094.597.205.338.26.456.438c1.062 1.23 2.444.505 3.37 0a4.88 4.88 0 0 1 1.803-.304c2.342-.42 4.533.49 7.146.405-.826-1.23-2.31-1.685-1.686-3.488 2.023-5.056 3.37-10.498 5.915-15.3 1.467-2.797 1.08-4.347-.758-6.25-.6-.607-1.112-1.247-1.685-1.837-4.668-4.516-9.674-8.746-13.988-13.582-10.97-12.284-22.515-24.012-33.705-36.094-.994-1.08-3.893-1.5-2.258-4.078.944-1.5.505-3.37 2.09-4.836 5.51-5.308 10.72-10.937 16.516-15.958 4.033-3.838 8.275-7.45 12.707-10.818 3.9-2.68 8.14-4.938 11.493-8.29 2.9-2.898 6.472-5.342 7.466-9.824 1.55-7.077-1.517-12.436-6.572-16.564-6.084-5.055-12.185-9.942-18.707-14.408a133.73 133.73 0 0 0-32.121-16.648c-.893-.303-2.4-.657-2.494-1.146-.49-3.202-3.37-3.91-5.4-5.274-4.466-3.033-8.763-6.336-14.46-7.28-8.848-1.466-17.797-2.494-26.358-5.662-6.303-2.325-13.094-3-19.7-4.263-9.935-2.13-20.03-3.42-30.182-3.86-7.112-.152-14.342-.404-21.167 2.292-3.832 1.376-8.005 1.476-11.898.286-2.242-.573-5.966.69-6.438-2.056-.388-2.19 1.685-4.853 2.764-7.23l12.47-26.96c1.827-4.478 2.215-9.413 1.112-14.12-.787-3.334-2.22-6.482-4.213-9.268-1.197-1.938-1.685-3.556-4.517-4.145-5.41-1.146-10.263-1.5-15.083 2.056-8.14 5.982-12.572 13.48-11.797 23.878.404 5.493 1.685 10.953.96 16.547-.6 4.364-.944 8.78-1.33 13.177-.37 4.078-.438 4.23-4.415 3.05-1.534-.455-2.848.6-2.528 1.213 1.685 3.134-.674 5.932-.42 8.948.168 2.056.354 2.797 2.562 2.63 4.095-.32 4.095-.22 3.286 3.842a6.74 6.74 0 0 1-.287 1.23c-1.062 2.63.22 3.707 2.612 3.47a10.25 10.25 0 0 1 5.747 1.281c.39.224.825.353 1.273.376a2.85 2.85 0 0 0 1.305-.242c3.017-1.062 3.37-3.673 3.37-6.117 0-2.04.826-2.157 2.19-1.92s3.202 1.483 3.842.994c2.83-2.157 5.242-.168 7.82.22 1.45.22 2.174.708 1.955 2.477a13.86 13.86 0 0 0 .219 5.881c2.68 8.038 3.37 16.447 4.938 24.687l6.387 36.33c.978 5.46.742 5.763-4.72 4.38a6.87 6.87 0 0 0-1.23-.236c-15.302-.893-30.335-4.145-45.704-4.65-4.618-.15-9.218-.64-13.836-.69-1.264 0-3.202-.47-3.74 1.854a33.23 33.23 0 0 1-4.449 10.987c-1.904 2.864-1.23 8.78 1.112 11.172a60.79 60.79 0 0 1 9.084 11.677c1.315 2.258 6.168 3.927 2.865 8.005 0 0 0 .202.084.286 2.19 3.117 0 5.982-.994 8.577-5.258 15.166-10.297 30.332-15 45.683-1.938 6.32-4.65 12.385-6.168 18.84-.117.852-.5 1.643-1.118 2.252s-1.4 1-2.252 1.118c.708 3.37-1.904 1.685-2.78 1.567-4.685-.6-9.353-1.432-14.004-2.292-1.078-.202-2.494-.707-2.562.658-.1 2.106-1.6 3.64-1.887 5.308-1.018 4.26-2.5 8.39-4.45 12.317a2.19 2.19 0 0 1-1.141 1.51c-.29.15-.612.234-.94.244s-.653-.054-.953-.186c-11.578-2.713-22.818-6.522-34.194-9.91L-39 270.724c4.34 2.215 8.85 4.085 13.482 5.594.775.27 1.483.573 1.416 1.28-.118 1.163-1.045.674-1.685.49s-.977-.354-1.466-.523c1.483.6 1.466 3.22 3.6 3.1 5.68-.304 10.398 2.847 15.59 4.364 1.045.303.742 1.23.674 1.854-.1.977-.927.455-1.416.387a40.58 40.58 0 0 1-3.724-.775c-1.23-.32-2.208-1.028-2.865 0s1.18 1.415 1.33 2.31c-.64 1.18-1.77-.203-2.51.623 10.027 2.292 19.195 6.74 28.835 9.925-5.855-.727-11.636-1.968-17.274-3.707 6.067 4.162 13.937 3.808 19.718 8.628l-21.504-5.746c6.994 2.797 14.274 4.7 21.05 8.02l-17.61-3.725-.168.86c4.382 1.685 9.252 1.685 13.785 3.842-4.5.556-8.157-2.848-13.196-1.55a40.05 40.05 0 0 1 8.325 2.443c-1.163.842-2.73-.927-3.37.876a1.01 1.01 0 0 0 1.011.657c6.876.64 13.162 3.185 19.414 5.848.758.32 1.5.825 1.196 1.584s-1.28.455-1.955.185a131.97 131.97 0 0 0-12.707-3.909c-.657-.203-1.685-1.146-1.99.337-.22 1.213.86.775 1.517.926a64.4 64.4 0 0 1 14.746 4.803c-4.4.303-8.09-1.28-12.555-.826 6.74 1.803 12.926 2.56 18.538 5.847a1.87 1.87 0 0 1-2.343.472c-5.595-2.325-11.982-2.325-17.173-5.83-.506-.337-1.264-.624-1.685 0s.236 1.146.758 1.415c.77.347 1.557.65 2.36.9l9.185 3.37a41.1 41.1 0 0 1-7.264-.556c-.455 0-1.13-.472-1.196.388s.152 1.382 1.062 1.146c2.68-.725 5.056.758 7.38 1.348 4.878 1.102 9.568 2.913 13.92 5.375a5.06 5.06 0 0 1-2.309-.185l-14.2-4.28c-.472-.135-1.18-.876-1.45.253-.168.707 0 1.398.826 1.348 3.185-.236 5.848 1.583 8.83 2.156a9.54 9.54 0 0 1 6.016 2.916c-4.617-1.414-9.398-2.224-14.224-2.4 7.33 2.022 14.83 3.37 21.588 6.825-.152.42-.303.86-.286.86L20 333.358a8.4 8.4 0 0 0-.371 1.062l22.566 8.19-.455 1.298c-7.516-1.685-15.167-2.78-22.347-5.713-.607-.253-1.315-.505-1.685.186s.472 1.044.9 1.38a3.53 3.53 0 0 0 1.163.472L35.22 344.8l8.426 2.527-.253.86-13.18-3.9c-3.37-1.13-6.59-1.988-8.982 1.686 12.285 2.493 26.813 7.8 27.807 10.1-8.898-1.264-16.853-5.915-25.87-6.892 8.544 2.696 16.987 5.662 25.28 9.167-4.01-.944-7.92-2.14-12.083-1.837 3.135 1.062 6.404 1.685 9.488 2.882 7.904 2.965 7.87 3.05 8.426 4.465-9.286-1.685-17.813-6.504-27.385-7.246 5.73 1.55 11.09 4.112 16.667 6.033 1.146.404 1.483.842 1.163 2.224-.404 1.786-1.298.927-2.073.742l-14.68-3.758c9.396 3.687 19.095 6.55 28.987 8.56a10.29 10.29 0 0 1 5.056 1.685c.89.797 2.042 1.235 3.236 1.23 5.915.6 11.797 1.685 17.763 1.87 3.724.168 6.96 1.685 10.432 2.443 9.2 2.224 18.723 2.005 28.042 4.33s18.858 3.59 28.144 6.1c11.595 3.15 23.46 5.055 35.172 7.7s23.51 4.415 35.12 7.38c9.927 2.528 20.09 4.145 30.116 6.32 5.578 1.213 11.106 2.713 16.65 4.095-5.258-3.067-11.375-3.657-16.717-6.488l19.127 3.202c-4.702-2.275-10.297-2.36-16.11-4.668zM102.19 13.193a3.38 3.38 0 0 1 .104-1.361 3.37 3.37 0 0 1 1.698-2.065c.41-.2.857-.335 1.316-.365 1.887-.118 1.92 1.955 2.056 3.37a37.38 37.38 0 0 1-.337 11.795c-2.546-3.323-4.2-7.236-4.837-11.374zm.49 23.305c.045 1.106-.255 2.198-.86 3.125s-1.482 1.643-2.512 2.048c.522-2.258.69-4.348 3.37-5.173zM95.096 63.34c1.197-6.572 1.904-13.363 5.46-19.26.455.135.304 0 1.365.42l-6.825 18.84zM109.54 9.25c-.17-.792 0-1.213.69-1.33.156-.027.316-.017.466.032s.288.132.4.245a.98.98 0 0 1 .239.402c.046.15.055.312.025.467-.9 2.63 1.196 4.45 1.584 6.74.624 3.556-1.567 6.52-2.292 9.807-1.078-5.56.084-11.02-1.095-16.38l-.017.017zm-8.578 44.554c-.927-4.044 2.19-12.638 4.82-13.262l-4.82 13.262zm2.865-16.26c1.348-2.292 1.685-4.415 4.095-5.055.506 2.848-1.432 3.825-4.078 5.055h-.017zm5.056 33.33c-2.343-.49-4.702-.876-7.062-1.297a1.42 1.42 0 0 1-1.042-.64c-.115-.178-.188-.38-.215-.59s-.006-.423.06-.624c.185-.96.86-1.028 1.685-.927l7.13.86c.64.084 1.685.1 1.18 1.264-.37.81.034 2.325-1.752 1.955h.017zm-92.7 214.005l-.792-.303a20.52 20.52 0 0 1 4.567-7.937l-3.775 8.24zm4.466 3.724a15.57 15.57 0 0 1 3.236-7.212 12.74 12.74 0 0 1-3.303 7.229l.067-.017zm250.278-36.616c-.977-.422-1.82-.64-1.23-2.19s1.45-1.432 2.646-1.163c1.904.438.54 1.55.556 1.685-.22 2.056-1.01 2.056-2.04 1.618l.067.05zm-34.21 80.883l11.325-36.16 5.798-18.3a27.35 27.35 0 0 0 .977-3.977c.287-1.685.607-3.758 3.185-3.37 1.888.303 1.214-2.764 3.37-2.225a158.06 158.06 0 0 1-7.264 23.372c-5.342 13.06-10.11 26.338-14.73 39.634l-8.426 24.753c-.303.877-.22 2.275-1.92 1.685s-.792-1.685-.506-2.527l8.123-22.85.067-.034zm-9.066 3.792c-1.13 3.37-1.062 7.23-3.05 10.414.407-3.603 1.415-7.112 2.983-10.38l.068-.034zm-8.95 20.036c-1.112-.085-1.45-.708-1.095-1.686.766-2.593 1.677-5.142 2.73-7.633 2.106-4.364 3.606-8.948 5.29-13.48.09-.307.263-.585.497-.804s.522-.372.835-.443c-1.28 7.988-5.46 15.166-6.303 23.372-.202 1.247-1.28.776-2.022.708l.067-.033zm14.038-34.9l-2.258 6.218c-.42-2.123-.17-5.324.303-5.73 2.36-1.955 0-4.364 1.28-6.37 1.15-2.26 2.058-4.63 2.713-7.078l2.646-7.465 8.95-27.67c.462-1.603 1.18-3.122 2.123-4.5.27 7.853-4.347 14.56-4.786 22.327l7.584-20.878c-1.887 5.173-2.63 10.835-4.483 16.093-2.31 6.538-3.842 13.33-6.1 19.867s-4.298 13.48-6.303 20.34c-1.623 4.832-2.713 9.827-3.253 14.896-.253 3.505-2.46 6.875-3.825 10.296-.658 1.685-1.416 3.27-2.124 4.92l-.843-.185c2.528-11.678 5.258-23.372 8.31-35.05l.067-.034zm-34.362 38.134c-1.146-.472-.118-1.365 0-1.837l7.87-18.435 2.73-6.302.303.202-5.46 14.998c-1.298 3.37-2.747 6.74-4.146 10.1-.252.725-.387 1.72-1.38 1.314l.084-.05zm13.263-36.314c.77-1.444 1.154-3.064 1.112-4.7.023 1.656-.4 3.29-1.196 4.735l.084-.034zm-1.685 2.63v.05-.05zm.252 1.33v-.893c.012.07.044.133.092.184s.1.087.178.103h-.152l-1.163.27.557.202.252.102c-2.056 3.066-2.63 6.74-4.246 10.1-1.096 2.24-2.1 4.516-3.37 6.74 1.566-5.39 3.52-10.663 5.848-15.772.472-1.13 1.33-.708 2.005-.994v-.05zm-.202-1.01v.337c0 .118.017-.185 0-.303v-.034zm6.74-14.205c-.81-.792-2.646-.253-3.674 0-4.418.76-8.963.172-13.044-1.685-3.37-1.685-6.185-.17-9.285-1.078-8.427-2.494-17.29-3.792-25.97-5.595-.438-.084-1.08.607-1.348-.573-.32-1.483-.523-1.415-1.972-.455-.304.202-.86.405-1.13.287-4.433-2.19-9.438-1.685-14.106-2.932-6.623-1.837-13.482-3.034-20.223-4.33-1.23-.236-1.365-1.483-2.477-1.685s-2.46-2.494-3.64.22a.76.76 0 0 1-.366.283c-.15.054-.31.06-.463.017a.76.76 0 0 1-.387-.255c-.1-.124-.157-.275-.166-.433 0-2.814-.69-2.09-2.09-.573s-3 .388-4.365 0c-1.685-.488-.354-1.853 0-2.645 1.932-5.56 3.955-11.088 6.067-16.58 1.297-3.37.22-7.044 2.005-10.414 2.056-3.893 2.545-8.527 5.056-12.318-.74 6.437-3.64 12.3-4.297 18.772l2.83-7.785 3.37-8.83c.44-1.13.894-1.904 2.444-1.82 5.848.303 11.662.792 17.493 1.264 9.336.74 18.538 2.68 27.74 3.707 8.578.96 17.2 1.87 25.7 3.54 9.808 1.92 19.7 3.538 29.542 5.308 3.893.707 7.77 1.55 11.68 2.14 1.837.286 1.298 1.314 1.028 2.275l-6.505 21.906c-2.292 7.313-4.702 14.104-7.145 21.13-.287.826 0 2.444-1.686 2.022s-1.685-1.685-1.264-3.033c.9-2.797 1.938-5.56 2.933-8.34l2.797-7.684-.236-.1-7.213 15.67c.69-7.38 3.994-14.036 5.713-21.62-1.28.823-2.218 2.08-2.645 3.538-1.837 6.05-5.4 11.375-7.112 17.475-.472 1.5-1.08 3.724-3.573 1.264l-.017-.05zm-23.358 47.03c4.365-15.368 11.376-29.675 17.544-44.25a328.69 328.69 0 0 1-17.544 44.251zm-1.264-2.798c-.387.9-.134 2.932-2.224 2.326-2.427-.69-.876-2.19-.506-3.252l7.146-20.306c.303-.876 1.297-1.685.438-2.83-2.292 2.63-2.63 6.084-3.842 9.167-2.023 5.056-3.876 10.262-5.798 15.385-.134.337-.135.725-1.297.657l12.184-33.567-.86-.337c-5.056 11.14-8.646 22.968-14.275 34.31a3.38 3.38 0 0 1 0-3.371c3.826-13.143 9.472-25.613 14.207-38.42 1.062-2.848 1.82-4.095 4.837-2.545 1.685.876 4.5-.64 5.46 1.18s-.708 3.79-1.415 5.645c-3.034 8.054-5.697 16.244-9.42 24.046-1.854 3.842-3 7.97-4.65 11.964l.016-.05zm-12.942-1.263c-.304.775-.69 2.14-1.905 1.685s-.135-1.45.118-2.157l4.382-12.1c3.236-7.802 5.056-15.62 7.685-23.204.708-2.09 1.685-4.06 2.342-6.167.506-1.786 1.685-1.33 2.73-1.112 1.686.37.54 1.55.287 2.207l-13.196 33.702c-.927 2.376-1.55 4.836-2.426 7.195l-.017-.05zm10.398-43.914c.455 2.292-.725 4.163-1.298 6.168-2.342 8.088-4.45 16.26-7.23 24.198-1.6 4.55-3.37 9.048-5.056 13.598-.623 1.685-1.685 1.567-3.1 1.28 6.303-14.846 11.358-30.045 16.667-45.194l.017-.05zm-16.718 42.498c-.69 2.342-5.208 3.27-7.06 1.533-.944-.876-.152-2.022.303-2.544 3-3.37 4.854-7.532 6.994-11.256 1.938-3.37 5.56-7.482 3.134-12.436-.084-.185 0-.49-.168-.607-3.37-3-1.247-5.948 0-8.914 1.18-2.645 2.528-5.24 3.6-7.937 1.18-2.965 3.218-1.82 5.224-1.398 2.46.522 1.382 2.308 1.13 3.488a91.48 91.48 0 0 1-2.309 8.863c-.876 2.814-1.988 5.544-2.983 8.308-1.87 7.987-5.595 15.2-7.87 22.967l.017-.067zm-8.426-.54c-.64.927-1.13 1.87-2.36 1.432-1.483-.54-.472-1.685-.202-2.36.994-2.544 2.14-5.055 3.22-7.532l.86.253c-2.544 2.527.337 5.66-1.5 8.273l-.016-.067zm1.685-15.166c-4.163-.994-5.4-2.36-4.82-4.92.876-3.724 5.224-7.415 8.123-6.572 1.095.32 3.168.893 1.837 3.134a9.88 9.88 0 0 0-.455 3c1.264-1.685 1.08-3.37 2.4-4.483a5.95 5.95 0 0 1 1.465 3.91c0 1.437-.52 2.826-1.465 3.91-.845 1.007-1.974 1.737-3.24 2.094a6.55 6.55 0 0 1-3.856-.089v.017zm-13.482-26.338c.724-1.97 1.584-3.91 2.31-5.88.252-.7.354-1.77 1.18-1.6 1.197.252.658 1.33.422 2.106l-4.702 14.643c-1.247 3.69-2.646 7.33-3.978 10.987l.944.37 4.87-13.48a112.8 112.8 0 0 1 4.55-11.964c.438-.876.657-2.528 1.955-1.955s.1 1.854-.17 2.713c-3.067 9.7-6.252 19.328-10.11 28.647-.27.64-.472 1.297-.81 2.24 1.685-.202 1.567-1.365 1.837-2.073 3.606-9.268 7.65-18.35 10.55-27.888.69-2.258 1.686-3.774 4.77-2.696a77.33 77.33 0 0 0 10.718 2.595c1.466.286 1.685.758 1.23 2.123-1.348 4.803-3.572 9.25-5.393 14.19-2.578-2.68-5.29-2.107-7.887-.69-3.775 2.056-7.027 4.33-7.786 9.352-.623 4.112-2.005 8.14-1.988 12.385 1.247-.202.32-2.612 2.208-2.325s1.516 1.887 2.14 2.848a9.35 9.35 0 0 1 1.095 4.111c.186 1.887-.185 3.86-3.606 3.37-10.112-1.584-20.055-3.825-30.25-4.718-1.87-.168-1.247-1.432-.943-2.325 1.196-3.6 2.443-7.196 3.808-10.734l12.117-31.14c.9-2.375 1.686-3.454 4.837-2.73 7.365 1.685 7.483 1.365 4.972 8.627-1.686 5.055-3.624 10.11-4.938 15.166 2.46-4.552 4.476-9.332 6.016-14.273h.034zm-41.424-13.143c.086-.415.2-.82.37-1.214.32-.758.573-1.786 1.685-1.297s.405 1.247.17 1.904c-.44 1.298-.86 2.612-1.433 3.86-2.056 4.516-2.073 9.42-2.578 14.222l8.426-19.597 1.28.47c-2.966 8.24-6.74 16.21-8.814 24.77 3.9-8.072 6.74-16.632 11.123-24.518-1.467 10.92-7.062 20.524-9.775 30.955 4.377-9.275 8.23-18.788 11.544-28.495.657-1.853 1.214-2.308 3.084-1.685 4.702 1.483 4.854 1.45 3.22 6.302-3.37 9.84-6.488 19.733-10.465 29.338-1.028 2.494-2.04 5.055-2.933 7.566a6.03 6.03 0 0 0 0 4.179l15.168-41.925.86.303c-1.46 6.322-3.416 12.52-5.848 18.536-2.78 7.448-4.836 15.166-8.038 22.445-.354.81-.304 1.567.556 1.803s.876-.657 1.044-1.23c3.472-12.334 8.83-24.03 12.573-36.28.758-2.51 2.527-4.634 2.763-7.364 0-.775.388-1.483 1.433-1.062s.607 1.01.32 1.55c-3.168 6.033-3.6 12.975-6.438 19.16-3.05 7.254-5.705 14.668-7.954 22.21a2.19 2.19 0 0 0 .421 2.376c5.562-15.166 10.752-29.994 17.038-44.368.64 2.426-.775 4.297-1.5 6.285l-13.785 37.426c-1.062 2.95-2.528 3.59-5.545 3.15-6.86-.994-13.364-3.37-20.223-4.314-3.758-.472-2.056-3.74-1.534-5.544 1.5-5.156 3.488-10.1 5.308-15.165 3-8.392 6.6-16.33 8.477-24.754zm-14.476 1.685a2.17 2.17 0 0 1 1.085-1.152c.493-.234 1.057-.274 1.578-.112l-5.207 14.306c-.202.54-.27 1.433-1.112 1.23s-.9-1.213-.506-1.786c1.685-2.292.9-5.5 3.168-7.684 1.18-1.196.05-3.286 1.01-4.886l-.017.084zm2.83-8.038c.522-3.185 2.595-6.016 2.696-9.42 0-.37.17-1.567 1.045-.943s2.376.825 1.6 2.746c-1.685 4.33-3.235 8.763-4.904 13.346-3.185-2.258-.69-4.196-.438-5.813v.084zm-4.87-30.33c-1.08-1.365-2.393-2.258-1.685-3.96.202-.472.573-.455 1.01-.203 1.72.81 1.13 2.225.69 3.994l-.017.17zm14.174-40.442c2.494 2.763 0 4.11-1.113 6.454-.286-2.276.107-4.586 1.13-6.64l-.016.186zM81.462 296c.607 1.112 2.1 1.82 1.685 3.37 0 .337-.438 1.01-.81.657-.944-.876-2.258-1.685-1.972-3.235.067-.388.303-.977 1.096-.792zm-2.797 6.32c.27-.522.64-1.33 1.33-.556 1.062 1.213 2.528 2.443.624 4.364-.843-1.264-3.15-1.516-2.005-3.79l.05-.017zm28.295-88.315c8.73.657 17.595-.54 26.156 2.04a154.17 154.17 0 0 1-26.206-2.022l.05-.017zm-4.23 7.212c-.9-2.308.44-4.33.81-6.52 2.14 2.595-.792 4.347-.81 6.52zm-27.62 77.97c-1.938-1.146-1.685-2.646-.725-4.415 2.225 1.415 1.753 2.898.725 4.482v-.067zm28.33-89.3c3.843-.86 16.853.6 21.167 2.343-3.775 1.196-7.095-.49-10.465-.607s-7.4 1.18-10.77-1.6l.067-.135zm-18.605-15.62c.32-.64.152-1.483 1.483-1.197a6.59 6.59 0 0 1 .927 4.533c-.253 1.972-.657 3.927-1.028 5.88-.1.54.1 1.45-.86 1.247-.37 0-.96-.893-.86-1.112 1.33-3.15-1.213-6.336.337-9.352zm0-9.234c5.287-.942 10.72-.683 15.892.758-5.393-.455-10.836.74-15.993-.826l.1.068zm5.898 4.853c-1.112 0-2.73.202-2.696-1.365s1.584-.64 2.342-.69a49.92 49.92 0 0 1 15.168 1.061c.22 0 .354.455.64.86-5.325.6-10.448-.084-15.555.05l.1.085zm89.606 13.48l2.713-4.044c.472-.708 1.062-.54 1.685-.253.86.438.455 1.096.135 1.567a22.43 22.43 0 0 0-3.101 5.056.9.9 0 0 1-.638.653c-.155.04-.32.04-.473-.004s-.295-.128-.406-.245c-1.23-.977.22-1.72-.016-2.814l.1.084zm-8.292-9.756l.27-1.045c5.056.42 9.64 3.202 14.712 3.808l-.236.96-14.746-3.724zm5.983 10.852c-.17.657-.69.7-1.247.47a.73.73 0 0 1-.27-.142c-.08-.066-.144-.147-.2-.24s-.072-.192-.077-.295a.74.74 0 0 1 .048-.301c.674-2.68 2.393-4.55 4.803-6.926-.6 3.236-2.528 5.005-3.15 7.347l.084.085zm-6.286-8.813c1.837.758 3.96.438 5.898 1.685-.74 1.213-1.314 2.342-2.073 3.37s-.54 3.1-1.82 2.95a11.49 11.49 0 0 1-5.73-2.326c-.556-.438-.573-.724-.202-1.23.893-1.264 1.787-2.544 2.63-3.842.337-.64.657-.9 1.214-.69l.084.085zm9.977 13.716c8.426 3.033 17.442 3.606 26.3 4.77a2.38 2.38 0 0 0 1.256-.054 2.37 2.37 0 0 0 1.052-.688c-.808-1.027-2.376.236-3.218-1.28 2.36-.337 4.617-.843 6.892-.944 5.764-.27 11.426-1.112 17.123-1.955a15.68 15.68 0 0 1 7.55.152c.96.337 1.044.876 1.264 1.5.353 1.01-.742.876-1.113 1.028a41.45 41.45 0 0 1-9.471 2.982c-6.522.995-12.926 2.696-19.43 3.9-11.304 1.877-22.858 1.643-34.076-.69-2.595-.49-5.224-.775-7.77-1.466-12.774-3.488-23.964-10.11-34.464-17.963-1.685-1.264-3.27-2.646-4.634-3.74l8.527-4.28c.634-.225 1.313-.293 1.98-.2a4.18 4.18 0 0 1 1.847.738c1.196.657 2.342 1.416 3.54 2.073 2.056 1.112 4.618 2.005 3.893 3.673 1.6-1.348 4.13.304 6.336 1.517 8.376 4.6 17.5 7.616 26.543 10.835l.085.084zm4.078-2.258c-.135.573-.758.64-1.315.455s-.505-.607-.42-1.01c.135-.69.32-1.382.573-2.46l2.983-3.943c.11-.182.284-.314.49-.367s.423-.025.606.08c.49.287.287.69.135 1.08-.96 2.022-2.578 3.774-3.134 6.083l.084.084zm3.37-2.342c.96-1.786 1.365-4.01 3.9-4.77a6.57 6.57 0 0 1-1.443 2.851c-.71.817-1.608 1.447-2.618 1.834l.15.084zm3.877 2.982c0-2.898 3.218-3.993 3.1-6.892l.826.37c-.842 2.342-1.786 4.65-2.51 7.027-.337 1.112-1.01 1.45-1.803.96-1.365-.825.236-1.13.236-1.466h.152zm6.892-2.392l-.842 2.696c-.186.573-.337 1.584-.995 1.247s-1.567-1.584-1.398-2.04c.758-1.904 1.095-4.044 2.645-5.595.557-.556 1.13-1.146 1.837-.556s0 1.112-.27 1.685c-.354.86-.742 1.685-1.113 2.562h.135zm5.51-1.6a11.97 11.97 0 0 1-.708 2.022c-.842.96.388 3.91-2.882 3.37-1.078-.202-1.213-.573-.876-1.4.674-1.685 1.433-3.235 2.073-4.886.506-1.28 1.534-1.99 2.663-1.416s-.304 1.416-.422 2.225l.152.084zm.674 4.364c.927-2.342.624-5.476 4.264-7.094-1.348 2.966-1.264 5.847-4.416 7l.152.084zm7.567-7.347a12.25 12.25 0 0 1-3.758 7.684c.758-3.067 1.196-5.342 3.606-7.785l.152.1zm18.538-20.844c3.37-2.31 5.426-5.713 7.97-8.678 3.973-4.883 8.22-9.536 12.724-13.936 1.112-1.01.387-4.128 3.27-2.983-2.073 3.977-27.318 32.017-31.076 34.528 2.123-3.623 5.477-5.696 7.247-9l-.135.068zm15.79-12.874a330.32 330.32 0 0 1-28.262 31.376l-.742-.81 29.004-30.567zM221.49 204.67c-.242.185-.495.353-.76.505a5.45 5.45 0 0 1 .135-1.247c.54-1.264-.118-3.067 1.584-3.825.337-.152 1.01 0 .944.42a6.74 6.74 0 0 1-2.14 4.044l.236.102zm-3.37-3.74c1.365.185.792 1.213.742 1.97-.152 2.545-1.584 3.943-4.635 4.702.624-2.14 1.18-3.724 1.517-5.342s1.112-1.584 2.225-1.432l.15.1zm29.155 45.935a2.49 2.49 0 0 1 1.028 2.999l-2.78 7.398c-.27.74-.54 1.415-1.533 1.045s-.624-1.146-.388-1.803c1.08-3.168 2.225-6.32 3.472-9.74l.202.1zm-3.37-5.68c-2.747-3.37-4.972-7.23-8.073-10.397-.438-.455-1.77-1.786-.623-2.696s1.55.708 2.04 1.28c3.893 4.735 7.348 9.824 11.797 14.643-3.27.472-4.213-1.584-5.31-2.932l.17.1zm-3.034 16.85c-1.13-.32-.606-1.18-.42-1.82l2.174-6.858c.236-.69.1-1.988 1.365-1.533.86.303.49 1.263.236 1.954l-2.663 7.38c0-.236.354 1.13-.86.724l.168.152zm4.01-14.525c-1.196.893-2.04.488-2.848-.6l-9.505-12.706.624-.505 11.73 13.8zm-12.538 16.85c1.028-1.686 2.696-.152 4.078-.388.674-.118 1.23.253 1.28 1.146-1.028 1.162-3.067-.287-3.944 1.382.573-1.787-2.308-1.247-1.584-2.36l.17.22zm5.056-15.604l1.483.657-3.37 11.3c-.253.86-.927 1.045-1.685.775s-.742-.944-.455-1.685c1.196-3.893 2.494-7.617 3.825-11.256l.203.22zm2.915 3.033l.843.27-2.9 9.52-.86-.253c.21-3.406 1.133-6.73 2.713-9.756l.202.22zm-17.274-20.07c-1.533-1.06-.404-2.527-.337-3.808-.015-.172.014-.345.085-.502a1 1 0 0 1 .319-.398c.138-.103.3-.17.472-.19s.346-.001.506.063c.893 1.28-.202 2.68 0 4.028-.17.354-.792.893-1.247.59l.202.22zm-13.482-.27c0-.69.303-1.483 1.4-1.298 1.28.893.49 2.258.556 3.37s-1.062 1.06-1.685.825c-1.77-.876-.422-2.14-.422-3.117l.152.22zm-12.774 4.23c-1.28-2.645-2.966-.842-4.112-.606a14.73 14.73 0 0 1-5.275.101c-2.966-.472-3.37-2.1-2.393-4.668.556-1.516 1.112-1.904 2.696-1.382a31.82 31.82 0 0 0 5.562 1.113c3.994.37 3.994.32 3.37 5.223l.152.22zm-19.516-2.88c-.54-.118-1.078-.354-.808-1.045.64-1.685.404-3.623 2.207-5.56l-.387 5.78c-.186.422-.523.742-1.163.607l.15.22zm-21.25-11.425c-.084-2.022 1.466-1.264 2.73-.842 5.258 1.786 10.112 4.566 15.79 5.324.27 0 .76.354.742.472-.1 1.754-.43 3.488-.978 5.157-.438 1.01-1.685-.135-2.09-.253-5.206-1.23-10.328-2.788-15.336-4.668-3.792-1.634-.927-3.74-1.01-5.41l.15.22zm-3.202-2.157c0-.168.506-.202.843-.32.994 1.415 0 2.882.22 4.263 0 .657 0 1.803-1.095 1.92-.304 0-.658-.42-.978-.657 1.146-1.786.32-3.74.86-5.443l.15.236zm-3.943 1.753c-.978-.994-.27-2.51.168-3.74.152-.42.37-1.685.86-1.146a3.92 3.92 0 0 1 .576 2.047c0 .723-.2 1.43-.576 2.048-.034.22-.22 1.567-1.028.792zm-11.797 2.24c2.798 0 4.92 1.264 7.38 1.87-9.707-.522-19.414-.977-28.935-3.37 5.055.42 10.212 0 15.167 1.23 2.108.37 4.254.465 6.387.287v-.017zm-2.376-13.48c.22-.69.49-1.365.792-2.2l2.258 1.38c3.9 2.208 4.382 3.674 2.713 7.7-.354.826-.606 1.146-1.567.86-.794-.218-1.535-.597-2.178-1.112a6.03 6.03 0 0 1-1.557-1.884 6.02 6.02 0 0 1-.682-2.347c-.065-.82.04-1.647.305-2.426l-.084.017zm-2.9-15.856h.1c-2.443-.152-4.516 1.33-7.196 1.685 4.112-3.27 10.314-5.056 12.404-3.623l-5.1 1.87 1.905.42a12.53 12.53 0 0 1-7.197 2.764c1.467-2.31 4.096-1.45 5.292-3.185l-.22.068zM70.727 268.55a6.61 6.61 0 0 1 1.622 2.116c.39.81.613 1.688.653 2.585-2.107-.9-3.202-2.106-3.1-4.078.084-.438.607-.96.893-.64l-.067.017zm.438-3.22a.71.71 0 0 1 .261-.296c.113-.072.245-.1.38-.1s.266.038.38.1a.71.71 0 0 1 .261.296c.826 1.45 3.168 2.58 1.28 4.752-.725 0-.843-.623-1.112-.994-.674-1.196-2.393-1.988-1.382-3.79l-.067.033zm3.472-1.533a4.62 4.62 0 0 0-.758-1.011c-1.01-1.028-1.854-2.106-.944-3.606a.62.62 0 0 1 .531-.296.62.62 0 0 1 .531.296c.86 1.45 2.848 2.258 2.696 4.33-.607.404-1.028 1.988-1.972.252l-.084.034zm46.614-85.08l-6.083 2.562c-1.163.54-2.326.404-2.714-.624-.522-1.382 1.045-.9 1.686-1.146 3.1-1.162 6.252-2.207 9.774-3.37a3.93 3.93 0 0 1-.978 1.588 3.94 3.94 0 0 1-1.6.957l-.085.033zm5.63.186l.253.758-9.387 4.685c-1.078.54-1.567-.186-2.04-.877-.81-1.213.455-1.095.977-1.33a25.87 25.87 0 0 1 10.28-3.269l-.084.034zm-14.392 16.85v1.027l-17.712-.842c6.033-2.073 11.864 0 17.78-.27l-.067.085zM78.95 240.29c.792 1.685 3.505 2.31 2.983 5.46-.44-.353-.853-.742-1.23-1.163-.843-1.247-2.46-2.022-2.393-3.808.084-.253.49-.405.708-.573l-.067.084zm15.52-37.173c2.005 1.955 2.005 1.955-.826 12.773-1.668-4.92.506-8.745.893-12.857l-.067.084zm-16.735 55.086c-2.326-1.483-2.342-4.348-4.483-5.747.723-.09 1.457.005 2.132.278s1.27.714 1.726 1.282a4.26 4.26 0 0 1 .692 4.102l-.068.085zm17.898-58.978c4.503-.488 9.058.013 13.348 1.466-4.348-.96-8.983.657-13.28-1.618l-.067.152zm12.842-.455c2.494.775 5.51-1.685 7.5 1.466-2.68.54-5.292.623-7.432-1.618l-.068.152zm9.808-12.706c3.817-1.894 7.76-3.527 11.797-4.886l.49.96c-3.27 1.685-6.505 3.505-9.825 5.055-.877.32-1.618-.472-2.376-1.28l-.085.15zm24.47-45.26c2.848 7.398 1.416 15.166 1.686 22.934a220.28 220.28 0 0 1-1.601-23.086l-.085.152zm-2.308 37.476c.606 0 .876.826.522 1.163-1.08 1.028-1.365 2.797-2.73 3.37-.826-.32-1.28-.792-.86-1.28 1.062-1.112 1.28-3.016 3.068-3.252zm1.803-16.53h-.978L139.2 138.9c.207-.11.44-.163.674-.152a1.29 1.29 0 0 1 .656.215c.196.13.352.3.453.52s.143.446.122.68l1.213 21.586h-.067zm-7.5 15.94c.472-.894.81-2.073 2.225-1.686.977.337 1.146 1.062.37 2.697-.17.572-1.113 1.13-2.377.707s-.488-1.078-.15-1.718h-.068zm18.724-32.607c-.102.64-.337 1.315-1.197.944a3.77 3.77 0 0 1-1.38-.746c-.403-.342-.73-.765-.958-1.242a3.77 3.77 0 0 1-.37-1.524c-.016-.53.08-1.054.28-1.543 2.562.606 4.08 1.6 3.69 4.094l-.067.017zm-3.405-8.122c1.938 1.062 4.18 1.534 3.185 4.836-1.18-1.786-4.38-1.466-3.185-4.836zm1.686 9.403c1.432.472 1.82 1.685 1.77 3.168l-.69 24.787c0 .658.388 1.685-.657 1.803-.323-.004-.64-.08-.932-.218s-.548-.34-.753-.6c-.506-.573-.523-1.803 0-2.006 1.685-.707 1.18-1.196.118-2.005-.172-.2-.3-.434-.38-.686a1.94 1.94 0 0 1-.076-.78c.455-7.448-1.365-14.846-.573-22.294.22-1.836.354-1.988 2.157-1.18h.017zM150.44 184c.472.42.17.96-.22 1.348-1.264 1.28-2.107 3.083-4.415 3.52.728-1.788 1.812-3.4 3.185-4.768a1.09 1.09 0 0 1 1.432-.101h.017zm-5.477 2.426c-.573.775-.927 1.33-1.887.522s-1.28-1.247-.49-2.04 1.365-2.342 3.05-3.016c.264.753.337 1.56.213 2.347a4.82 4.82 0 0 1-.921 2.169l.034.017zm4.72 4.263c2.207-5.442 3.084-5.948 6.74-3.86-3.27-.32-3.81 3.623-6.775 3.86h.034zm6.27-12.537c-1.197 0-1.382-1.247-1.567-2.376a59.95 59.95 0 0 1-.253-11.964l.708-20.086c2.056.303 3.1.96 2.966 3.455-.54 9.554-.76 19.125-1.113 28.646-.084.893.607 2.258-.775 2.325h.034zm.54-34.797a2.56 2.56 0 0 1-1.685-2.965c.035-.128.104-.245.2-.337a.74.74 0 0 1 .343-.189.73.73 0 0 1 .391.013.74.74 0 0 1 .331.209c.792.81 2.578 1.01 1.87 2.696-.27 1.214-.944.81-1.484.573h.034zm-1.533-7.717l.74-13.093c3.017.707 2.865.707 2.697 3.892-.236 4.45.337 8.914-.506 13.295-2.865-.033-3.1-1.92-2.983-4.094h.05zm-3.202-1.803c.775.9 2.292 1.567 1.803 3.134-.354 1.13-.96 0-1.5 0-1.028-.573-2.46-.893-2.022-2.578a1.04 1.04 0 0 1 .247-.454c.12-.128.27-.225.435-.28a1.05 1.05 0 0 1 .516-.037 1.04 1.04 0 0 1 .47.215h.05zm-3.186 7.144c0 1.096.152 2.124-1.483 1.854.49.5.863 1.084 1.093 1.737s.312 1.35.24 2.038c-.202 5.746 0 11.492 0 17.238 0 .657.606 1.685-.405 1.887s-1.685-.792-1.82-1.77 0-2.292 0-3.37l-.472-16.33c0-1.365.1-1.82 1.433-1.23-.624-1.432-2.4-2.527-1.197-4.566 1.315.168 2.68.438 2.562 2.5h.05zm-.455-2.645c-1.078-.843-2.814-1.028-2.477-3.05.084-.54.438-1.163 1.028-.708 1.096.876 2.764 1.635 1.4 3.758h.05zm-.657-4.18c-1.13-.472-2.14-1.028-1.803-2.477.152-.674.74-.573 1.432-.236s1.888 1.095 1.55 2.528c-.253.792-.758.37-1.23.168l.05.017zm-15.05-26.237l17.93 12.183c-4.146 0-16.633-8.594-17.982-12.2l.05.017zm5.157 27.113c-1.686-.81-3.27-1.685-2.983-4.38 1.87.96 3.758 1.533 2.915 4.364l.068.017zm-8.005-2.174l1.5 10.903c.006.42.12.832.334 1.196s.515.665.88.876l-1.685-13.75c3.876 1.18 3.74 4.466 4.095 7.11.27 2.073-.303 4.247 1.33 6.32h-.303c.623-3.184-.354-6.42-.455-9.62 2.393.15 2.814 1.685 2.966 3.555.404 4.786.657 9.554 1.23 14.306.337 2.83-.842 1.466-1.87.826 1.044 1.685 2.848 3.22 2.056 5.932-1.99-1.686-3.826-3.084-2.023-5.848-2.09-2.123-.81-5.055-1.685-7.397-.22-.6 0-1.348-.6-1.87v-.118c-1.264 2.326.287 4.702-.1 7.297-3.74-1.112-1.854-4.617-3-6.74-2.14.792.506 2.612-.9 3.623a3.37 3.37 0 0 1-1.713-1.176 3.38 3.38 0 0 1-.697-1.958l-1.77-16.682c2.207.168 2.14 1.803 2.342 3.202l.068.016zm-8.157 41.436c-3.286 2.124-6.42 2.663-9.235 3.994-.6.287-1.264.96-1.87 0s.27-1.4.843-1.685c3.05-1.247 6.033-3.084 10.196-2.325l.067.016zm-28.65 17.003l14.998.775c.927 0 1.686.287 1.686 1.517-5.477-1.062-10.988.22-16.448-.573-.69-.1-1.685.202-1.685-.742s.64-1.044 1.415-.994l.034.017zM57.363 291.4l3.37 4.28a1.08 1.08 0 0 1 .294.9c-.023.162-.082.318-.174.454a1.08 1.08 0 0 1-.356.331c-.725.606-1.264.15-1.45-.472-.438-1.837-3.64-2.73-1.652-5.5l-.034.017zm10.314-13.48a4.78 4.78 0 0 1 .691.489c1.062 1.18 2.174 2.376 1.33 4.128-.185.388-.81.303-1.08 0-1.01-1.33-2.696-2.527-.9-4.583l-.034-.034zm-2.19 6.91c.354-.64.86-.523 1.28-.17a2.81 2.81 0 0 1 1.376 2.208c.035.452-.04.905-.218 1.322s-.454.784-.804 1.07c-1.33-1.146-2.78-2.326-1.6-4.382l-.034-.05zM83.198 245.8c.036-.1.1-.188.18-.256a.6.6 0 0 1 .287-.127c.105-.015.213-.002.312.04a.59.59 0 0 1 .248.193 2.95 2.95 0 0 1 .708 4.094c-1.045-1.28-2.51-2.106-1.702-3.91l-.034-.034zm-2.528 12.706c.294.223.534.508.706.834a2.51 2.51 0 0 1 .093 2.132 2.52 2.52 0 0 1-.63.893c-.775-1.298-2.275-2.107-1.685-3.81.404-.86 1.13-.438 1.55-.016l-.034-.034zm-3.152 5.527c1.82 1.23 2.494 2.528 1.332 4.5-1.348-1.196-2.343-2.4-1.28-4.465l-.05-.034zm22.65-59.837c-.472 0-1.163.202-1.112-.624.003-.13.034-.26.09-.378a.92.92 0 0 1 .582-.489c.126-.036.258-.045.388-.026 1.347-.023 2.694.062 4.028.253 1.92.587 3.985.455 5.814-.37.777-.26 1.607-.32 2.412-.168s1.56.504 2.19 1.028c-.64.893-1.382.353-1.854.556-4.163 1.752-8.376-.49-12.538.22zm.708 6.84c.994 3.724-.877 7.162-1.13 10.768-1.432-3.74-.472-7.33 1.13-10.7v-.068zm39.57 14.02c8.898 1.584 17.728 3.488 26.542 5.443a114 114 0 0 0 22.819 3.37c10.11.17 20.34 1.87 30.334-.758 4.803-1.28 8.427-1.01 11.073 3.37.32.54 1.196.74 1.837 1.078v-.084a23.34 23.34 0 0 0-3.641-5.055c-.32-.37-1.314-.708-.556-1.45s1.5-.944 2.208 0c2.827 3.71 5.865 7.255 9.1 10.616a.82.82 0 0 1 .275.379c.053.15.062.313.024.47s-.12.296-.235.405a.82.82 0 0 1-.417.213c-.978.354-2.107.775-2.73-.54-1.027-1.92-2.398-3.633-4.044-5.056v.118c.236 2.19 2.123 3.37 3.37 5.41-7.196-.792-14.173-.69-21.133-1.685l-19.296-2.932c-9.438-1.432-18.926-2.63-28.397-3.774s-18.976-2.36-28.514-3.033c-6.404-.455-12.54-2.225-18.926-2.798-3.724-.337-5.36-4.297-7.937-7.23 9.48.577 18.913 1.753 28.245 3.522zm93.8 19.75l-4.23 11.66c.447-4.154 1.586-8.204 3.37-11.98l.86.32zm-3.977 5.544l-1.685 4.77c-.253.708-.405 1.382-1.467 1.196-1.567-.252-.488-1.213-.37-1.685.876-3 2.022-5.93 2.78-8.964.337-1.365 1.062-1.5 1.955-1.247 1.416.387.405 1.348.22 2.005-.438 1.398-.96 2.662-1.432 3.96v-.034zm-5.747 4.752c-.185.506-.472.96-1.112.876s-.6-.472-.523-.927a21.23 21.23 0 0 1 4.197-10.784 33.96 33.96 0 0 1-2.579 10.869l.017-.034zm-2.528-4.28h.152l-1.5 4.095c-.185.472-.388.86-1.062.64s-.404-.893-.354-1.4a28.02 28.02 0 0 1 3.236-9.251c.253-.522.607-.943 1.214-.674s.22 1.23 0 1.685c-.472 1.6-.54 1.753-1.686 4.938v-.034zm-88.29-5.29v.135c-2.915-1.028-6.134-.32-8.88-2.157 2.95.842 6.252-.523 9.05 1.685 0-1.18.64-.64 1.4-.54 9.552 1 19.042 2.535 28.43 4.566 3.54.843 7.23.86 10.702 2.157a37.67 37.67 0 0 1-10.904-.876 96.44 96.44 0 0 0-18.386-2.005c-2.865 0-5.595-2.124-8.612-2.545-.904-.152-1.8-.395-2.646-.725l-.152.304zm-13.482 11.307a14.97 14.97 0 0 1-1.971 7.313c-.186-2.646 1.162-4.904 1.97-7.313zm17.915-20.912a52.64 52.64 0 0 1-1.062 5.173c-.1.42-.1 1.146-.893.977s-.54-.724-.607-1.23c-.032-1.537.28-3.063.9-4.465 0-.287 0-.6.1-.69.725-.624-.337-2.56 1.28-2.258s.388 1.65.27 2.477v.017zm6.42-2.1c2.224.506 5.156 0 6.64 1.214 1.686 1.5-.59 4.18-.455 6.386.186 3.117-1.28 3.724-3.994 2.983-1.685-.438-3.37-.556-4.97-.843-4.028-.725-4.028-.74-2.663-4.786.17-.505.354-.994.674-1.853.034-2.898 1.753-3.808 4.786-3.117l-.016.016zm10.617 1.584c.105 1.2-.058 2.407-.478 3.535s-1.086 2.148-1.95 2.987c.048-2.39.903-4.695 2.427-6.54v.017zm3.606.135c.96.354.624.826.186 1.365-.995 1.247-.81 3.27-2.9 4.196.573-1.803 1.062-3.252 1.466-4.735.202-.758.42-1.163 1.247-.86v.034zm11.29 12.47c-1.23-.186-1.685-.657-1.213-1.888.202-.488.337-.994.522-1.5 2.495-7.027 2.495-7.11 9.64-6.336 10.735 1.163 21.437 2.68 32.104 4.347 2.68.422 3.64 1.08 2.242 3.674-.322.78-.56 1.594-.708 2.426l-.32.893c-1.854 4.904-2.444 5.056-7.685 3.96-5.545-1.146-11.173-1.853-16.752-2.746l-17.83-2.848v.017zm11.51 5.527l23.256 3.083c3.758.6 7.92-.1 11.308 2.612-1.028.9-1.938.337-2.848.22-10.7-1.33-21.2-4.162-32.02-4.7-.674 0-1.078-.286-.994-.843.152-.926.607-.488 1.298-.404v.034zm31.16-.69a17.7 17.7 0 0 1 3.371-6.471c-.657 2.275-1.247 4.567-2.023 6.74-.185.505-.134 1.77-1.247 1.415s-.202-1.146-.1-1.72v.034zm7.146-7.263l-2.562 8.426c-.185.59-.286 1.28-1.213.994s-.708-.843-.506-1.433l1.584-4.398h-.084c.775-2.123.994-2.628 1.4-3.926.185-.573 0-1.382 1.062-1.078s.47.842.32 1.365v.05zm-97.392-7c-.034.128-.094.247-.177.35s-.185.19-.302.25a.95.95 0 0 1-.378.108.96.96 0 0 1-.39-.052c-.724-.252-.286-.86-.1-1.28l2.83-6.47c.44 2.68-.96 4.735-1.483 7.06v.033zm-1.146-6.976l-1.904 6.285c-.472 1.685-1.887 1.01-2.865 1.062-1.382 0-.944-1.112-.826-1.854.17-1.67.53-3.316 1.08-4.903.843-1.972 2.95.54 4.5-.624l.016.034zm-29.458 85.552c1.13.42.455 1.685.202 2.527a41.97 41.97 0 0 0-2.157 6.993c-.96 2.63-1.904 5.055-2.63 7.38-.253.825-.506 1.06-1.247.775s-1.146-.42-.826-1.33l5.056-14.526c.27-.758.354-2.308 1.584-1.853l.017.034zm12.387-38.757c1.685-4.01 2.696-8.308 5.865-12.47-1.18 5.746-4.264 10.23-3.81 16.278-1.87-1.4-2.764-2.123-2.073-3.79l.017-.017zm10.617-19.766l-1.685 8.324-.893-.185c-.523-2.966 1.314-5.494 2.56-8.14h.017zM100 300.566c2.14-5.577 4.18-11.24 6.135-16.85 1.39-4.132 3-8.188 4.82-12.15-.47 6.235-3.067 11.796-4.937 17.643-1.686 5.29-4.08 10.346-6.253 15.452a6.74 6.74 0 0 0-.607 4.954h.236c.6-4.246 3.15-7.734 4.752-11.576-1.348 3.96-1.685 8.274-4.634 11.6v.22a.85.85 0 0 1 0-.101c-3.994 3.05-3.37 7.853-4.533 11.947-.135.455.135 1.028-.236 1.483-2.63 3.37-1.685 7.836-3.69 11.442-.27.488-.17 1.28.944 1.567 6.74-21.485 15.47-42.21 23.425-64.033 1.13 2.73-.32 4.23-.724 5.746a315.59 315.59 0 0 1-9.741 30.652c-3.472 9.234-6.74 18.536-9.892 27.905-.607 1.77-.843 2.5-2.9 1.364-4.095-2.274-4.33-2.173-2.814-6.437L100 300.566zm149.988-49.27a16.29 16.29 0 0 1-2.46 7.431c-.556-2.915 1.382-5.005 2.46-7.43zm-43.63 94.617l10.482-25.596c.37-.877.573-2.663 1.55-2.326 1.45.506.37 1.803 0 2.9-3.994 13.194-10.702 25.276-15.673 38.05-.287.724-.64 1.685-1.685 1.314l5.325-14.34zm-1.87 11.93c3.472-3.808 5.056-8.644 7.18-13.21 2.393-5.055 4.45-10.21 6.64-15.35 1.55-3.64 2.865-7.397 4.55-10.987a3.11 3.11 0 0 1 1.577-1.222c.646-.222 1.348-.225 1.996-.008 1.938.37.7 1.685.556 2.477-2.478 14.51-9.252 27.5-14.494 41.05a1.88 1.88 0 0 1-.328.704 1.89 1.89 0 0 1-.584.513c-.23.128-.48.207-.742.233a1.87 1.87 0 0 1-.772-.085 14.18 14.18 0 0 0-3.371-.758c-2.848.202-3.354-.86-2.208-3.354zm40.177-86.276a276.39 276.39 0 0 1-14.274 43.661c3.775-14.812 9.353-29.152 14.308-43.66h-.034zm6.455-13.615c.47-3.118 2.207-5.797 3.252-8.746 0-.118.6-.236.758-.118.316.193.55.495.66.85s.084.735-.07 1.072c-.775 2.4-1.466 4.853-2.308 7.65-.17.286 0 1.466-1.298 1.247s-.994-1.702-.944-1.938l-.05-.017zm7.77-8.61c-.152-.81-.675-1.685.54-2.09h.236c.303.86-.49 1.482-.775 2.258l-3.37 9.487c-1.213-3.27.893-5.68 2.258-8.325.203-.438 1.28-.606 1.146-1.33h-.033zm-12.59 44.065c.9 2.966-5.562 24.905-11.275 37.072 3.556-12.386 6.708-24.872 11.308-37.055l-.033-.017zm18.672-32.118c-1.13-.42-.606-.96-.252-1.685 1.042-2.65 2.406-5.163 4.06-7.482l.775.32-2.915 8.054c-.287.944-.792 1.163-1.635.81l-.034-.017zm5.545.96l5.51-13.228c.758 4.213-2.107 11.12-5.477 13.245l-.034-.017zm9.64 1.685l5.055-12.2a32.21 32.21 0 0 1-5.022 12.2h-.033zm10.195.96a1.17 1.17 0 0 1-.526.753c-.134.085-.282.142-.438.17a1.19 1.19 0 0 1-.468-.012c-.9-.118-.843-.943-.54-1.466 1.685-2.864 2.157-6.336 4.803-9.116-1.062 3.454-1.905 6.555-2.747 9.672h-.085zm-39.637-59.635c.388.405.455 1.28 1.5 1.045-1.045-3.37-4.348-5.325-5.713-8.93 2.46 1.466 2.95 4.718 5.865 4.584a17.72 17.72 0 0 0 5.443 6.74c-1.36-2.447-3.167-4.62-5.325-6.403-.9-1.247-1.87-2.4-2.78-3.657 3.22 1.685 5.224 4.668 7.803 6.993 9.15 8.24 16.852 17.912 25.464 26.675l10.87 10.92c1.095 1.112 3.286 2.78 1.837 4.112-1.13 1.045-3.69.842-5.46-.978-3.287-3.37-6.876-6.42-10.33-9.62-.455-.422-.86-1.332-1.28-1.315-1.112 0-.152 1.23-.32 1.264-1.298.32-1.382-1.23-2.932-2.123 2.056 4.432 6.42 6.134 7.6 10.313l-7.128-7.566c1.466 3.808 4.65 6.403 6.993 10.295-3.707-.674-6.555-1.55-8.24-4.802-.387 1.803 1.28 2.46 1.366 3.876l-21.52-2.427c-1.787-.185-2.36-1.584-3.37-2.544-1.28-1.23-2.376-2.663-3.556-4.01-.168 1.685 1.686 2.528 1.955 4.65a21.12 21.12 0 0 1-5.275-6.74c-2.595-2.04-3.54-5.376-5.915-7.6-.54-.506-.725-1.382.152-1.365 1.5 0 2.51-2.814 4.314-.657s3.623 4.162 5.595 6.1c-.977-3.067-3.74-5.055-4.786-8.038 4.33 3.724 7.533 8.425 11.915 12.183l-6.842-9.386c1.685-.37 1.685 1.08 2.342 1.685 1.45 1.517 2.73 3.202 4.196 4.685.44.438.135 2.308 1.45 1.196.842-.707-.287-1.516-.826-2.056-1.83-1.74-3.23-3.88-4.095-6.25l7.145 8.19c1.112-1.483-.54-2.106-1.095-2.83-3.623-4.65-6.74-9.57-10.112-14.424a2.68 2.68 0 0 1-.496-1.721 2.67 2.67 0 0 1 .699-1.649 3.82 3.82 0 0 0 .783-1.741 3.81 3.81 0 0 0-1.224-3.489 3.8 3.8 0 0 0-1.7-.87c-4.146-1.45-8.09-8.02-7.482-12.42 0-.556.15-1.08.74-1.247a1.89 1.89 0 0 1 1.093.083c.348.135.648.37.862.675l9.86 10.6h-.034zm-9.91-24.484c7.112-6.74 12.47-15.03 20.51-20.726-6.623 7.06-12.84 14.593-20.51 20.726zm-19.313-82.57c-1.686-.118-2.056-.54-1.23-2.14 1.045-2.022 1.28-5.055 2.865-6.016s4.4.17 6.977.42l-.758 2.393c-1.786 5.342-2.19 5.61-7.853 5.24v.1zm-5.393 13.48c.27-.9 1.685 0 2.174.657.775 1.095-.49.977-.944 1.382-1.786 1.55-3.1 1.45-3.876-1.01.81-1.028 2.073.758 2.63-1.18l.017.152zM229.41 126.7c-2.157 0-3.05.607-3.7 1.988a2.36 2.36 0 0 1-.643.895 2.37 2.37 0 0 1-.979.505c-.362.09-.74.09-1.102.005s-.7-.254-.984-.495c-2.224-1.314-1.685-3.134-1.095-4.954s1.584-1.18 2.983-.825c2.03.437 3.92 1.376 5.494 2.73l.016.152zm-.252-8.072c.54-.707.455-2.072 1.685-1.482 1.887.9 1.685 2.696 1.348 4.347-.168.96-.758 1.33-1.82.944-2.292-.994-.944-2.73-1.23-4.01l.017.202zm-3.37 17.104a5.05 5.05 0 0 1-2.697 1.148c-.993.108-1.995-.08-2.88-.54-1.33-.6-1.18-1.803-1.264-2.916 0-.47-.236-1.18.472-1.263s1.365.202 1.4.42c.522 2.51 3.016 2.14 5.022 3l-.05.152zm-3.472-15.772c-.252-2.95 1.922-4.483 5.78-4.533-1.028 2.24-2.14 4.18-1.28 6.74-1.753-.86-4.264-.253-4.45-2.36l-.05.152zm7.112-7.263c-.354.893-1.297.623-1.92.49-1.106-.24-2.24-.325-3.37-.253-.515.068-1.038-.005-1.514-.212a2.86 2.86 0 0 1-1.186-.964c-.3-.423-.478-.92-.516-1.438a2.84 2.84 0 0 1 .3-1.498c.128-.448.388-.85.745-1.15a2.34 2.34 0 0 1 1.261-.536c2.78-.472 4.533 1.146 6.2 2.865.775.623.337 1.685.05 2.544l-.05.152zm-30.874 3.37c-.265-.217-.474-.495-.61-.8a2.14 2.14 0 0 1-.168-.999c.024-.342.13-.673.3-.965s.426-.537.72-.714a29.72 29.72 0 0 1 5.578-3.37c.174-.122.37-.208.577-.252s.42-.046.63-.005.406.124.58.243a1.57 1.57 0 0 1 .438.452c.505.775.54 1.567-.388 2.983-.084.168-.556.977-.944 1.836-2.123 4.685-2.78 4.82-6.673 1.534l-.05.067zm0 3.033c-.606.742-1.112 1.382-1.685 2.006s-.893 2.56-2.107 1.685-.1-2.393.658-3.253a2.17 2.17 0 0 1 .633-.636 2.15 2.15 0 0 1 .838-.322c.3-.048.605-.032.897.046a2.16 2.16 0 0 1 .8.407l-.034.067zm10.45-23.71c-1.264-.505-2.73-1.382-2.258-3.202s1.028-3.185 1.533-4.786c.6-1.887 1.854-.64 2.83-.623 1.35 0 1.484.81 1.113 1.92s-.607 2.207-.944 3.454a8.02 8.02 0 0 1-.506 1.331c-.42.725-.15 2.477-1.752 1.837l-.017.067zm-6.74 27.77c2.224.54.9 2.562 1.062 3.606-.337 1.4-1.13 2.562-1.955 1.82-1.264-1.095-4.028-1.28-3.37-3.825.64-2.224 2.882-2.04 4.33-1.685l-.067.084zm5.865-16.85a2.98 2.98 0 0 1-1.989-3.135c.236-1.297 1.92-.825 2.966-.64 2.595.49 5.056 1.264 6.185 4.668-2.477-.927-4.82 0-7.095-.995l-.067.102zm2.645 7.987c.354-.253.76-.1 1.062.303 1.062 1.45.54 3.016.388 4.533a1.31 1.31 0 0 1-.119.54 1.32 1.32 0 0 1-.33.443c-.14.123-.305.214-.483.27s-.366.07-.55.046c-1.517 0-.405-1.028-.556-1.568a3.24 3.24 0 0 1 0-.623c-.102-1.5-.843-2.983.657-4.06l-.068.118zm2.545 13.7c-1.887.658-3.37 1.28-4.314-.775-.27-.64-.69-2.022.202-2.207 2.022-.556 2.83 1.348 4.18 2.88l-.068.1zm-4.044 2.292a5.05 5.05 0 0 0 3.673.253c1.13-.337 2.023-.623 2.444.893.27.96 1.23 1.837.22 2.882s-1.938.64-3.1.118c-2.19-.978-4.516-1.686-7.128-2.646 1.348-1.955 2.477-2.292 3.96-1.567l-.067.067zm11.274-14.104c1.264.876.32 1.938-.236 2.663a10.61 10.61 0 0 1-3.539 3.37c-.893-2.208-1.23-4.028.404-5.78.194-.264.44-.484.725-.646a2.33 2.33 0 0 1 .924-.297 2.34 2.34 0 0 1 .966.103c.31.102.597.267.84.486l-.084.1zm-7.954-38.52c6.96.977 12.353 5.055 17.93 8.762.438.287.876.624.573 1.264a1.25 1.25 0 0 1-.519.581c-.23.133-.497.2-.762.16-3.202-.084-6.438.657-9.42-1.685-.825-.64-3 .118-4.55-.286a39.15 39.15 0 0 1-16.077-9.015 35.56 35.56 0 0 1 12.892.118l-.067.1zm-11.68 21.906c-2.832-1.045 0-3.117-.64-4.65-.253-.54.523-.86 1.062-.607a2.3 2.3 0 0 1 .897.511c.257.236.457.527.585.85a2.31 2.31 0 0 1-.151 2.008c-.674.354.034 2.4-1.685 1.77l-.067.118zm-9.42 1.315a6.26 6.26 0 0 1 3.657.758c1.416.927 3.876 1.028 3.81 3.15s-4.534 4.567-6.54 4.347c-3.893-.438-5.797-2.78-4.5-5.982-.185-2.595 1.82-2.376 3.64-2.392l-.068.118zm-2.545 22.596c-.707 0-1.28-.606-1.685-1.297-.49-.977 0-1.466.81-2.04.892-.945 2.03-1.622 3.286-1.955.354 1.483-.623 2.4-.54 3.623.185.877-.96 1.668-1.87 1.668zm-4.752-1.567c-.42 1.685-1.685 1.315-2.798.9s-1.87-1.13-1.264-2.392 1.18-1.972 2.006-1.854c1.972.876 2.393 2.04 2.123 3.37l-.067-.034zm13.482-46.777a2.14 2.14 0 0 1-2.444 1.281c-8.14-.86-16.128-2.544-24.133-4.18s-16.498-2.95-24.773-4.246c-5.764-.893-11.56-1.533-17.88-2.36 9.556-3.067 48.705 3.286 69.298 9.537l-.067-.034zm-84.078-3.37c1.922-2.898 1.99-2.814 4.955-2.275 5.983 1.095 12.083 1.55 17.864 3.674.876.32 2.275-.404 1.314 1.517-.202.404.32 1.567.826 1.887 1.213.758.81-1.028 1.264-1.08 3.1-.354 6.488-1.45 9.286-.623 6.218 1.854 12.673 1.82 18.89 3.37a141.82 141.82 0 0 0 20.51 3.758c.635.05 1.262.168 1.87.354 1.5.49 3.825.927 3.657 2.51s-2.427.607-3.623.522a197.7 197.7 0 0 1-21.134-3.016c-10.33-1.837-20.644-3.64-31.093-4.786-4.836-.54-9.623-1.685-15.066-2.696 2.14-1.348 3.455-.1 5.595-.22-5.123-2.983-10.482-1.13-15.134-2.932l.017.034zm54.822 41.386c1.078-1.292 2.48-2.275 4.06-2.848 1.062-.387 1.82 0 1.972 1.28-.026.62.104 1.236.378 1.792s.683 1.035 1.19 1.393c.776.47 2.495.825 1.686 2.005a3.05 3.05 0 0 1-3.927 1.314l-4.887-2.63c-1.045-.606-1.247-1.432-.49-2.342l.017.034zm2.83-9.285c.202-2.797 2.764-2.78 4.938-3.1 0 2.29.337 4.87-2.326 5.73-1.264.354-2.696-1.55-2.63-2.663l.017.034zm7.803-4.398c.994.354 2.4.843 1.685 2.393-.247.718-.652 1.37-1.186 1.9s-1.183.953-1.898 1.207c0-1.432 0-2.73.202-3.993.068-.725-.337-2.073 1.18-1.567l.017.05zm-23.813-.573c-.156-.272-.21-.6-.155-.898a1.33 1.33 0 0 1 .458-.787c2.1-2.005 4.416-3.572 7.534-2.528a3.37 3.37 0 0 1 1.917 1.723c.385.806.435 1.732.14 2.574-.472 1.298-2.393 1.92-4.247.506-1.247 0-2.612-1.095-4.23-.303a1.5 1.5 0 0 1-.758.027c-.25-.056-.483-.176-.675-.347l.017.034zm-4.955 8.426c-.603-.04-1.184-.24-1.682-.583s-.897-.8-1.152-1.358a3.38 3.38 0 0 1-.298-1.756 3.37 3.37 0 0 1 .638-1.662c.912-1.052 1.89-2.042 2.933-2.966.056 1.987.594 3.93 1.567 5.662 1.23 2.123-.742 2.56-2.022 2.578l.016.085zm9.994-2.14c.472-.253 1.23-1.467 1.854.117.223.403.306.868.236 1.322a2.07 2.07 0 0 1-.624 1.189c-.69.742-1.483.978-2.157.253s-2.292-1.078-2.915-2.578c1.348-.54 2.46.185 3.59-.405l.017.102zm-16.465-11.745c1.685 2.14 3.253 3.91.6 6.016-.506.404-1.112.792-1.685.337s-.118-1.078.387-1.45c1.67-1.264.084-2.95.708-4.904zm-9.724-5.83c2.073-.792 3.758.69 5.68.556 1.028 0 1.163 1.297 1.214 2.258 0 1.466.118 2.932.185 4.398 0 .775.742 1.685-.42 2.207s-1.685-.42-2.36-1.078c-1.272-1.274-2.23-2.826-2.798-4.533-.37-1.264-.944-2.477-1.466-3.79l-.034-.017zm-3.876 7.077c-1.685-1.466-1.92-3.977-4.13-5.055a4.28 4.28 0 0 1 5.612-.438c2.225 1.483.81 3.808 1.163 5.713.185.96-1.382.893-2.612-.22h-.034zm-13.128-9.05c.41-.144.86-.133 1.264.032a1.79 1.79 0 0 1 .927.861c2.7 3.633 5.85 6.9 9.37 9.757 3.1 2.78 6.64 5.056 9.993 7.566 8.005 6 16.853 10.448 25.583 15.42 13.886 7.97 29.02 12.655 43.985 17.727 8.308 2.814 17.24 3.774 25.8 5.898 3.37.86 7.095.69 10.33 2.46.424.22.89.346 1.365.372a3.36 3.36 0 0 0 1.399-.221c.852-.418 1.8-.61 2.747-.553s1.865.357 2.662.874c2.107 1.06 3.64-.792 5.63-.708 7.317.542 14.674-.055 21.807-1.77 6.74-1.803 8.882-4.65 7.972-11.577-.438-3.37-.76-6.74-2.832-9.588-.387-.54-.1-.977.152-1.45-2.477.404-4.28-1.264-6.623-2.36.37 2.005 2.865 1.45 2.9 3.27-1 .41-2.096.44-3.11.1a4.38 4.38 0 0 1-2.385-1.994c-.9-1.315-1.686-1.045-2.78-.944-1.685.135-1.365 1.4-1.584 2.31l-2.46 10.632c-.202.826-.505 2.107-1.77 1.685-.826-.252-.96-1.213-.775-2.173.842-4.6 2.46-9.05 2.83-13.75 0-.842 1.5-1.836 0-2.493s-2.562.54-2.798 1.97a52.58 52.58 0 0 1-3.37 10.111c-.32.842 0 2.797-1.904 2.156s-.472-2.123-.236-3.083c.842-3.472 2.292-6.74 3.218-10.23s-1.685-4.617-2.645-6.824c-.186-.438-1.062-.22-1.35.236-1.095 1.685-1.567 2.022-2.814-.152-.843-1.45-1.28.354-1.45 1.163-.624 2.88-1.28 5.763-1.686 8.678-.337 2.073-1.297 3.185-3.37 2.4a3.12 3.12 0 0 1-1.186-.615 3.11 3.11 0 0 1-.82-1.056 3.1 3.1 0 0 1-.303-1.301c-.006-.45.086-.897.27-1.31l2.848-8.054c.927-2.578-.37-3.792-2.63-4.752-1.045-.438-2.494-.455-2.747-2.444s-2.36-1.82-3.893-1.836-3.084 0-3.185 2.325a65.91 65.91 0 0 1-2.107 10.111c-.522 2.494-2.56 2.173-4.06 2.713-.607.22-1.82-.658-1.466-1.87 1.028-3.7 2.005-7.397 3.252-11.02.674-1.955 2.107-4.65.42-5.51-1.314-.674-1.685 2.797-2.814 4.297s-.573 4.7-1.87 5.61-3.37-1.466-5.275-1.955c-4.482-1.13-4.465-1.213-6.37 3.252-.32.742-.472 1.92-1.685 1.18s.37-1.112.42-1.685c0-.1.135-.186.135-.287.303-6.925 5.443-6.218 10-6.25 1.568 0 2.58-.37 2.916-2.056.522-2.544 1.18-5.055 1.786-7.65 1.028 1.247 1.55 2.292 3.76 2.4a32.46 32.46 0 0 1 17.61 6.471c.32.236.76.455.506.994-.438.9-1.432-.185-1.92.523 1.854 1.937 2.056 1.97 3.81.202.943-.96 1.685-.27 2.544.135 6.034 2.847 11.073 7.16 16.263 11.24 3.27 2.578 6.185 4.786 9.54 7.263l-.49-.186a34.44 34.44 0 0 1 5.966 6.134c2.898 3.876 4.13 8.24 1.77 12.8-.42.825-.792 1.955-1.533 2.275-4.146 1.685-7.887 4.313-12.32 5.493-4.296 1.24-8.687 2.125-13.128 2.646-5.056.505-10.196.808-15.302 1.112-.64 0-1.45-.775-1.685.488-.17.978.49 1.315 1.33 1.365 1.13 0 2.477-.168 2.916 1.28s-.995 2.073-1.686 2.966l-17.543 20.676c-.455.703-.818 1.462-1.08 2.258-3.792 1.55-5.207 5.577-8.2 7.936-.64.506-1.264 1.062-1.904 1.6a7.69 7.69 0 0 1 .707-1.685l21.37-29.118c.64-.86 1.686-1.685.675-3.37-2.04 3.084-3.81 5.982-5.798 8.712l-20.307 27.584c-.27.37-.22.995-.303 1.5-1.197 1.685-3.186 2.46-4.08 4.516-.556 1.264-2.325.708-3.505.624-4.18-.304-8.325-.76-12.623-1.18l6.556-15.08c4.196-9.336 7.938-18.856 11.5-28.428.253-.69.523-1.398.725-2.106s.202-1.5-.792-1.685-1.348.337-1.5 1.163c-2.326 11.947-7.718 22.765-12.302 33.887-1.483 3.59-3.1 7.127-4.67 10.683-.37.843-.59 2.106-1.887 1.45s-.22-1.516 0-2.2l13.752-33.382 3.623-8.712c.286-.707.556-1.533-.32-1.92s-1.23.523-1.433 1.18c-3.876 12.217-9.336 23.8-13.785 35.79-1.146 3.067-1.685 6.52-4.82 9.302 0-2.916 1.567-4.904 2.4-6.943 5.174-12.588 10-25.276 14.83-38.032.438-1.163 1.6-2.022 1.433-3.37 0-.506.084-1.113-.607-1.28s-.86.472-1.01.944c-.674 1.97-1.247 3.976-1.972 5.914l-15.487 40.796c-.253.657-.506 1.685-1.4 1.298-1.28-.64-.186-1.686 0-2.444l10.533-30.483 5.95-16.413c-.74.318-1.395.808-1.908 1.43a5.06 5.06 0 0 0-1.042 2.144l-9.134 26.96-5.29 16.143c-.337.977-.32 2.24-2.242 1.786-8.426-2.056-16.515-5.41-24.723-8.273.354-1.01 1.686.1 1.686-1.045-3.944-1.28-4.028-1.298-3.69-5.746l3.994-50.99c0-.81 1.163-2.426-.69-2.494-1.55 0-1.028 1.517-1.095 2.46l-3.05 46.205c-.15 2.208-.404 4.398-.674 6.59 0 .623 0 1.685-1.23 1.13-.758-.32-.843-.674-.49-1.432 1.274-2.656 1.67-5.648 1.13-8.544-1.786-7.33 0-14.49 0-21.703a170.12 170.12 0 0 1 1.163-22.53c.69-4.836-1.6-6.437-5.056-8.425-12.32-7.297-24.082-15.385-33.57-26.305-2.056-2.393-4.314-4.988-4.415-8.594h-.017zm124.052 19.8c.505 2.713-1.28 5.173-.674 7.886-.02.176-.073.346-.16.5a1.31 1.31 0 0 1-.344.396c-.14.107-.3.185-.473.227s-.35.05-.524.022c-.657-.168-.6-.758-.337-1.28 1.247-2.46 1.045-5.36 2.528-7.752h-.017zm-4.146 13.127c.6 0 .405-.556.506-.9.32-1.06.842-.54 1.28-.1s.96.893 0 1.432l-4.162 2.528c-.118-2.662-.118-2.662 2.393-2.966l-.017.017zm2.528 3.1c1.146 0 .22 1.13.27 1.853-.81 1.197-1.382 2.848-3.37 2.258-.54-.15-1.466-.438-.944-1.196.927-1.466 2.157-2.966 4.062-2.915h-.017zm-4.33 9.57a15.81 15.81 0 0 1 .135 1.87c.387 3-.455 3.674-3.37 2.612a2.56 2.56 0 0 1-2.275-2.224 7.09 7.09 0 0 1 1.045-5.055c.81-1.045 4.095 1.01 4.5 2.797h-.034zm11.207-.152c.758.337.505 1.786.286 2.68s-1.398.607-2.14.843c-1.4.42-1.112-.775-1.33-1.483-.64-1.988-2.865-2.36-4.247-4.213 3.202-.775 5.224 1.18 7.466 2.157l-.034.017zm-3.927-10.75c.472-1.5 2.242-1.263 2.478-.54.488 1.55 1.685 1.685 2.696 2.393a2.59 2.59 0 0 1 .744.701c.198.28.34.6.412.935s.08.684.017 1.022a2.57 2.57 0 0 1-.381.948c-1.01 1.938-1.837 0-2.713-.27-.472-.134-.877-.674-1.332-.74-2.966-.455-2.443-2.393-1.887-4.465l-.034.016zm13.145 14.222c2.343 1.972-.252 3.9-.42 5.966-.135-2.157-4.904-2.31-2.343-5.494.146-.223.335-.415.558-.56s.472-.247.735-.293a1.93 1.93 0 0 1 .79.026c.26.063.503.178.715.34l-.034.016zm1.146-3.37c2.14.455 4.55-1.516 4.702 2.107 0 .47.6.505.994.37 2.714-.96 2.764 1.685 3.69 2.9s.438 1.55-1.517 3.168c-3.488-1.854-5.123-5.258-7.904-8.594l.034.05zm-4.5-.337c-1.484-.303-1.163-1.685-.894-2.898.405-1.685 1.467-1.382 2.865-1.18 1.922.287.6 1.332.826 2.056-.54 1.18-1.5 2.224-2.78 1.972l-.016.05zm-4.466 8.527c.337 2.56-.674 3.15-2.832 2.763-.98-.034-1.925-.38-2.698-.985a4.63 4.63 0 0 1-1.599-2.385c0-.185.236-.6.472-.708s.708 0 .725.22c1.06 4.365 3.59 1.787 5.95 1.045l-.017.05zm19.48 1.55c1.382-1.045 1.197-4.078 4.062-2.4.623.37 1.466.49.994 1.534-1.18 2.527-3.017 1.466-5.056.826v.05zm11.797 0a30.76 30.76 0 0 0 5.848-11.071c2.83 5.426.573 9.925-5.797 11.02l-.05.05zm-154.724-39.11c2.225 1.87 4.92 3.1 6.86 5.36l-.54.725-6.74-5.443.42-.64zm-3.134 33.702v-.152c-1.686-3.37-1.686-6.91-1.837-10.48.455 3.522 2.865 6.74 1.837 10.48v.1c2.04.253.674 1.955 1.078 2.9.526 1.427.666 2.967.405 4.465-.9-2.494-1.99-4.718-1.433-7.414l-.05.1zm2.83-7.263c0-.472 0-.943.472-.96.27-.016.536.07.745.243s.346.416.384.684c.9 6.05 1.584 12.115 1.938 18.215l-1.062.135-2.427-18.418-.05.1zm0 24.4l-1.55-6.74.76-.236c1.174 2.1 1.494 4.554.893 6.875l-.1.1zm-7.13 19.042l-6.86 3.673c-.74.388-1.685.792-2.207-.253s.522-1.45 1.18-1.685a13.49 13.49 0 0 1 7.988-1.837l-.1.102zm-5.056-3.927c-1.836.54-3.37 1.685-5.595 1.685 2.158-3.387 3.978-3.842 5.713-1.77l-.118.084zM81.63 180.302c5.73.81 11.932-1.33 17.02 2.427-5.663-.472-11.645.253-16.903-2.51l-.118.084zm12.117-7.92c.16-.005.316.024.463.083s.28.15.39.265a1.12 1.12 0 0 1 .248.4 1.13 1.13 0 0 1 .063.466c0 1.112-.826.657-1.365.657l-15.37.168c-2.174 0-2.326-2.29-3.37-3.79l19.06 1.72-.118.033zm-20.712-4a60.56 60.56 0 0 1 21.908 1.062c-7.28.9-14.527-.64-21.908-1.062zm6.74 7.465c5.056.657 10.112-.17 15.05 1.078.758.203 1.584.152 1.584.995 0 1.196-1.028.657-1.685.623l-15.167-.842a1.27 1.27 0 0 1-.579-.433c-.147-.198-.233-.434-.247-.68 0-.758.607-.86 1.045-.724v-.017zm21.487-15.587c-3.016 1.028-5.83.37-8.662.303-7.853-.22-15.723-.657-23.594-1.028l-2.19-.134a1.59 1.59 0 0 1-.991-.459c-.265-.265-.428-.617-.46-.99-.1-1.145 1.08-.893 1.685-.86 3.775.22 7.533.657 11.29.86l26.3 1.197a9.34 9.34 0 0 1 1.685.438c-1.77 1.516-3.9.32-4.988.69l-.068-.017zm-28.38-10.11v.792l-11.24-.27c3.185 1.23 6.64.472 9.79 1.685-2.646.758-5.24-.42-7.87.893 9.278 1.354 18.634 2.108 28.01 2.258-.64-1.517-.725-1.146-1.685-1.18a66.27 66.27 0 0 1-8.966-1.129 88.97 88.97 0 0 1 23.594 1.062 23.26 23.26 0 0 1-6.927.472c-2.005-.253-5.056-1.685-5.983.775l-.438 1.213-.236-.084.202-.573c4.837.354 9.892-.32 14.61.944v.96l-13.853-.354c-7.837-.37-15.656-1.297-23.476-1.685-4.82-.22-6.9-3-9.64-6.875l14.106 1.095zM54 153.644l-2.14 9.605c-1.416-2.696-.573-6.757 2.208-9.588l-.067-.017zm2.427-.42c.084 4.584-1.433 8.948-1.972 13.48-1.348-4.752.506-9.1 2.04-13.464l-.067-.017zm2.073 3.606l1.062.253-1.685 11.458a15.65 15.65 0 0 1 .691-11.694l-.067-.017zm1.28 12.857c.792-1.685.185-4.398.69-6.605.185-.792 0-2.24 1.416-1.99s.6 1.382.506 2.124l-1.45 11.492c-1.4-1.87-2.107-2.78-1.096-5.005l-.067-.017zm3.37 7.617c.758-4.112-.657-8.425 1.382-12.402l1.112.202-1.685 12.284-.81-.084zm4.82-16.177c10.28-.168 20.61.657 31.582 1.23-.802.604-1.723 1.03-2.703 1.247a7.03 7.03 0 0 1-2.977.017l-16.044-.792c-1.163 0-2.78-.977-3.236.69-.54 1.988 1.92 1.01 2.528 2.005-4.196 1.264-7.466.202-9.15-4.38v-.017zm-42.502 137.03l4.06-8.34.826.404c-1.567 2.797-2.022 6.117-4.87 7.954l-.017-.017zm6.185-17.66c2.73.253 5.544-.135 8.072 1.33-2.663-.522-5.63.76-8.056-1.314l-.017-.017zM75.48 180.454c1.854 3.994.674 7.987-.303 11.998-3.252-4.028.674-7.937.287-11.964l.017-.034zM32.9 310.525c.725-3.774 3.05-6.403 4.382-9.487-.556 3.507-2.072 6.79-4.382 9.487zm46.345-126.162c1.938 2.023 1.955 5.982 0 12.588-2.747-2.443-2.747-5.173 0-12.604v.016zm-37.413 106.43c3.15.253 5.578-.404 7.398 1.685-2.24-.168-4.77.944-7.398-1.702v.017zm-3.37 21.754c-.152 1.787-1.213 2.848-1.517 4.095s-3.37 2.865 0 4.364c-.276 1.147-.63 2.273-1.062 3.37-2.46-2.056-1.163-7.988 2.528-11.846l.05.016zm5.966-12.604a1.2 1.2 0 0 1-.535-.103c-.168-.075-.317-.188-.434-.33s-.2-.31-.243-.488-.043-.366-.001-.545c.135-.758.86-.876 1.517-.758a45.53 45.53 0 0 0 9.033 1.297.81.81 0 0 1 .809.809c.084.758-.573.843-1.045.81-3.063-.024-6.12-.26-9.15-.708l.05.017zm12.37 3.252v.927l-9.86-.9c3.354-1.82 6.556-.623 9.808-.034l.05.017zm2.865 4.836c-3.472.337-6.842-.438-10.28-.168-1.33.1-1.348-1.685-2.747-3 4.988.725 9.353.354 12.91 3.152l.118.016zm-12.623 6.993c-2.174 1.837-2.4 4.92-4.5 6.74.596-2.918 1.74-5.697 3.37-8.2.64.32 1.33 1.23 1.096 1.433l.034.016zm-5.056 20.22c.152-7.026 3.185-12.082 6.236-17.17l-6.236 17.17zm7.33-25.276c3.81-1.095 11.595 0 13.06 1.786-4.72.826-11.257-.067-13.078-1.87l.017.084zm2.073 3.657c4.72-.32 9.438-.758 13.482 2.207-4.635-.252-9.623 1.685-13.5-2.29l.017.084zm2.932 3.977c4.702.488 9.59-.102 13.954 2.36-4.668-.893-9.86 1.415-13.97-2.444l.017.085zm-5.68 21.08a29.59 29.59 0 0 1 3.64-9.942c-.554 3.5-1.797 6.857-3.657 9.875l.017.067zm-24.217 6.47c7.82.54 15.168 3.252 22.313 6.218-7.904-.405-14.847-4.33-22.33-6.303l.017.085zm25.87.252c-.69-4.684 2.1-12.35 5.814-16.008l-5.814 16.008zm6.74-23.995c.118-1.028 1.365-.438 2.14-.405a73.74 73.74 0 0 1 10.6 1.686l-.17.758-10.314-.32c-1.18-.186-2.393-.607-2.258-1.803v.084zm2.19 3.37c7.06-1.078 11.628-.185 13 2.713-3.472 0-6.893 0-10.297-.1-1.685-.135-2.24-1.4-2.713-2.73v.118zm2.814 4.112c3.877-.28 7.772-.17 11.628.32v.81l-11.612-.32c-.034-.388-.017-.64-.017-.927v.118zm1.112 2.123l10.112.724c.812.178 1.6.456 2.343.826-3.37.843-6.74.337-10 1.08-1.5.235-1.82-1.214-2.444-2.747v.118zm2.477 3.673c3.775.236 7.297-.286 10.836.506 1.08.236 2.056.623 1.972 1.516-.118 1.214-1.365.893-2.292.86a50.97 50.97 0 0 0-6.859 0c-2.1.017-3-.81-3.657-3v.118zM61.6 357.033c.22-4.28 2.95-7.667 4.314-11.542-.636 4.064-2.105 7.954-4.314 11.425v.117zm6.876-17.137c2.477-1.382 4.685-.792 6.86-.488-2.107.404-4.163 1.97-6.86.353v.135zm2.258 2.562l8.157-1.45c-3.893 3.118-6.42 3.64-8.14 1.332l-.017.118zm6.387 13.598c-1.772 3.8-4.445 7.107-7.786 9.64l6.252-10.734c.27-.438.9-1.348 1.803-.708s.017 1.13-.253 1.685l-.017.118zm4.078-.118l-4.567 7.617c-1.13-1.685 0-2.696.556-3.674.843-1.55 1.87-3.016 2.798-4.533a.87.87 0 0 1 .223-.321c.098-.088.215-.153.343-.19a.86.86 0 0 1 .749.14c.54.22.152.505-.1.842v.118zm-2.24 14.896c-.927-.674-.202-1.33 0-1.92 1.992-4.175 4.337-8.172 7.01-11.947 1.095-1.685 2.208.27 3.37-.32a51.46 51.46 0 0 1-5.814 9.049c-.472.69-.944 1.398-1.382 2.123s-1.18 1.432-.168 2.19 1.416-.37 2.005-.843c.236-.185.522-.337 1.18-.775-1.197 2.56-4.365 3.623-6.185 2.31l-.017.134zm7.044-3.016a7.16 7.16 0 0 1 .817-3.806c.62-1.17 1.55-2.144 2.688-2.816l-3.505 6.622zm4.06-3.235c.9-2.733 2.56-5.152 4.786-6.977-.89 2.756-2.56 5.196-4.803 7.027l.017-.05zm2.932 1.685a21.71 21.71 0 0 1 5.561-7.886 17.48 17.48 0 0 1-5.578 7.886h.017zm6.9 7.144c2.225-4.667 5.932-8.324 8.426-12.756.405-.707 1.062-1.213 1.804-.74s.084 1.045-.203 1.567l-5.864 10.75c-1.012 2.005-2.208 2.645-4.18 1.18h.017zm.354-6.74a41.88 41.88 0 0 1 4.179-6.74c.405-.69.995-.893 1.55-.42.876.724-.27 1.01-.523 1.364a16.65 16.65 0 0 1-5.224 5.848l.017-.05zm4.803 7.313a43.01 43.01 0 0 1 8.224-13.632l.69.42-8.24 13.616-.674-.405zm7.466.54c-.44.758-2.275-.253-3.758 1.196.252-3.235 2.072-4.28 3.2-5.965.894 1.163-.522 1.685.203 3.016 1.938-2.376 2.174-5.46 4.92-7.97-1.702 3.757-2.933 6.892-4.584 9.756l.017-.033zm1.77.86c-.438-.286-.286-.758 0-1.112 2.242-3.994 3.893-8.426 7.13-11.796a1.57 1.57 0 0 1 .427-.448 1.58 1.58 0 0 1 .567-.251 1.59 1.59 0 0 1 .619-.014c.206.036.402.112.578.225a138.89 138.89 0 0 1-7.584 12.992 1.16 1.16 0 0 1-.765.656c-.17.044-.346.05-.517.014a1.16 1.16 0 0 1-.471-.215l.017-.05zm4.045.758c-1.247-.758-.118-1.685.27-2.392 2.056-3.54 4.247-6.977 6.337-10.482.42-.707.843-1.297 1.685-.994 1.264.455.186 1.146.186 1.348l-6.253 11.358c-.455.876-1.163 1.887-2.24 1.263l.017-.1zm3.792.708c1.095-5.325 4.668-9.302 7.448-13.717-1.466 5.207-4.685 9.37-7.448 13.784v-.067zm2.83.354c-1.5-.758 0-1.45.354-1.92 2.174-3.808 4.516-7.516 6.74-11.3.438-.725.96-1.264 1.685-.775s.084 1.095 0 1.314a90.3 90.3 0 0 1-6.792 11.711c-.59.826-1.162 1.45-1.988 1.028v-.067zm4.078.708c-.96-.624-.1-1.685.236-2.19 2.19-3.808 4.517-7.532 6.74-11.273.472-.758 1.214-.624 2.545-.455a131.79 131.79 0 0 0-7.685 12.908c-.404.893-.977 1.65-1.854 1.027l.017-.016zm12.7-13.92l-8.645 15.014c-.287-3.556 4.5-11.83 8.628-14.947l.017-.067zm3.017 3.016l-5.51 10.65c-.42.775-.876 1.685-2.107 1.6-.623 0-1.314.168-1.685-.422s.186-.943.27-1.466l7.128-11.475c.49-.792 1.113-1.466 2.04-.977 1.146.69.185 1.516-.135 2.157v-.068zm-1.584 7.735c.81-3.455 3.37-6.016 4.65-9.268.067 4.027-2.713 6.437-4.65 9.318v-.05zm3.926 4.667c-.54 1.534-.792 1.4-1.837 1.18s-1.314-.876-.86-1.854c2.058-4.132 4.39-8.124 6.977-11.947.13-.243.342-.43.6-.53s.54-.102.8-.01c1.078.42.42 1.01 0 1.685-2.167 3.707-4.065 7.564-5.68 11.543v-.068zm4.736.27c-.944 1.415-1.904 1.533-3.6 1.314 2.73-4.027 3.708-8.51 6.505-11.997.607-.742.826-2.343 2.174-1.686 1.062.54.455 1.938 0 2.612-1.954 3.202-3 6.74-5.106 9.808l.017-.05zm9.387-9.757c-2.182 4.197-4.648 8.24-7.382 12.1-.26-.526-.388-1.108-.373-1.695s.17-1.162.458-1.675l5.392-9.605c.455-.826 1.012-1.685 1.888-1.23 1.146.573.337 1.584 0 2.157l.017-.05zm1.685 7.128c1.348-2.36 2.814-4.667 4.23-6.993.405-.657.523-1.87 1.685-1.13s-.135 1.23-.404 1.685l-6.32 10.7a4.3 4.3 0 0 1-.199-2.202c.127-.74.446-1.432.924-2l.084-.05zm3.606 4.786c-.556 1.045-1.112 1.988-2.342 1.415-1.685-.792-.152-2.055.17-2.578 2.2-3.673 4.634-7.195 6.96-10.784a1.11 1.11 0 0 1 .279-.379 1.12 1.12 0 0 1 .41-.229 1.13 1.13 0 0 1 .469-.039 1.1 1.1 0 0 1 .443.158c.81.455.286 1.045-.186 1.483l-6.286 11.02.084-.067zm4.163 1.533a1.02 1.02 0 0 1-.272.386c-.12.105-.263.18-.417.22s-.316.04-.472.006a1.02 1.02 0 0 1-.423-.207c-.994-.6-.118-1.01.236-1.4 1.13-1.264 1.685-3 3.623-4.213-.408 1.9-1.205 3.697-2.342 5.275l.067-.068zm-1.264-3.252c2.73-4 3.573-8.425 8.005-9.8-1.887 3.74-4.735 6.42-8.09 9.84l.084-.05zm12.15-8.02c-1.888 3.134-3.472 6.504-7.702 8.543l6.033-9.453a1.03 1.03 0 0 1 .281-.373 1.02 1.02 0 0 1 .416-.211c.153-.038.313-.04.467-.005s.298.103.42.202c.606.387.286.893.016 1.348l.068-.05zm3.707.843c-1.685 2.443-3.134 5.055-5.83 6.908 1.382-2.712 2.393-5.678 4.567-7.987.44-.455.81-1.095 1.517-.64 1.028.758.034 1.247-.337 1.77l.084-.05zm-2.426 7.886a51.43 51.43 0 0 1 6.1-9.538c-.303 3.05-2.528 6.437-6.168 9.588l.068-.05zm9.724-6.252l-5.78 10.8c-.505.995-1.045 1.686-2.123 1.163-1.382-.657 0-1.348.1-2.056l6.37-10.784c.337-.556.775-1.483 1.685-.927s-.134 1.365-.32 1.786l.068.017zm3.977.253a38.08 38.08 0 0 1-6.067 7.532c1.21-3.068 2.917-5.915 5.056-8.425.286-.37.556-.624 1.028-.405.657.472.168 1.028-.085 1.365l.068-.067zm2.342 12.217c-.455.623-.792 1.432-1.685.893s0-1.213.337-1.685c.826-1.466 2.393-2.494 2.848-4.65-1.483.42-1.18 1.988-3 1.92 2.545-3.168 3.624-6.976 7.045-9.2.202.388.303.54.286.573-2.78 3.674-3.134 8.5-5.898 12.217l.067-.067zm9.286-10.498a18.53 18.53 0 0 1-5.342 6.74l4.196-7.6c.27-.488.624-.927 1.214-.522s.1 1.078-.118 1.45l.05-.067zm4.382 1.06c-1.743 2.7-3.9 5.11-6.387 7.145.9-3.117 3.084-5.46 4.584-8.206.064-.172.166-.328.298-.456s.29-.225.465-.285.36-.08.54-.06.36.08.516.177c1.23.624.22 1.28-.085 1.753l.068-.068zm-2.242 7.768c1.686-3.757 3.877-6.1 5.58-8.998.185 1.837-1.72 4.92-5.646 9.066l.067-.068zm4.28 5.056c-.337.758-.843.893-1.5.488s0-.792.22-1.162c.27-.84.71-1.613 1.288-2.276s1.288-1.202 2.083-1.583c-.725 1.618-1.466 3.117-2.1 4.634v-.1zm-.236-5.258c2.157-2.797 3.017-5.914 5.713-8.3a9.48 9.48 0 0 1-5.78 8.391l.067-.1zm5.056.523c.492-2.998 2.122-5.7 4.55-7.516-.472 3.354-2.63 5.443-4.668 7.617l.118-.1zm8.56-6.74l-4.432 6.86c.196-1.37.684-2.684 1.43-3.85a9.67 9.67 0 0 1 2.9-2.909l.1-.1zm-6.252 13.21c-.337-1.937 1.18-4.465 4.466-7.397a40.44 40.44 0 0 1-4.568 7.498l.102-.1zm5.2-.556c-.286.742-.792 1.416-1.685.944s-.303-1.264 0-1.685c1.314-1.33 1.33-3.522 3.74-5.173-.893 2.662-1.533 4.347-2.157 6.015l.1-.1zm9-9.57c-1.48 3.054-3.54 5.79-6.067 8.055a28.92 28.92 0 0 1 4.213-9.133c.505-.826 1.078-1.382 2.005-.792s-.017 1.415-.253 1.97l.102-.1zm-1.264 7.684a16.19 16.19 0 0 1 4.567-8.324c-.726 3.142-2.307 6.023-4.567 8.324zm4.567-.472a21.05 21.05 0 0 1 3.808-8.189l.725.404-4.533 7.785zm9.59-11.694c-.843.943-1.584 1.887-3.135 1.483-2.48-.433-4.927-1.024-7.33-1.77-2.717-1.398-5.87-1.688-8.797-.81-2.207.776-4.466-.185-6.437-.876-4.01-1.415-8.258-.708-12.252-1.853-.978-.287-2.19 0-2.26-1.567 0-.337-.438-1.096-.674-.76-1.685 2.326-3.673-.27-5.392.455-.186 0-.523.27-.557.236-2.056-2.966-5.055-.42-7.533-1.213-2.966-.927-6.286-.69-9.285-1.55s-6-1.01-8.983-1.685c-4.112-.96-8.426-1.197-12.59-1.837l-30.924-4.836c-4.72-.877-9.455-1.264-14.2-1.955-1.6-.236-3.674.556-4.45-1.837 0-.202-.843-.42-1.096-.27-3.724 2.022-7.06-.001-10.398-1.146-1.517-.49-2.427.775-3.876.337l-17.34-4.92a7 7 0 0 0-2.713 0 3.25 3.25 0 0 1-3.37-2.308c-.893-1.854.725-2.225 1.685-2.78 2.764-1.685 5.612-3.083 8.275-5.055 1.685-1.23 5.056-.657 7.55.388 1.213.522.54 1.904-.388 2.36-1.567.792-1.045 1.988-.623 2.898s1.6.624 2.545.388c3.792-.978 7.432.236 11.073.926 14.442 2.713 28.733 6.252 43.328 8.207a26.27 26.27 0 0 0 6.555.32c2.225-.27 3.64 2.005 6.135 1.23 1.06-.337.792 1.685.1 2.646-.337.488-.978.893-.455 1.584.522.235.893 0 .994-.422.876-4.145 3.54-3.184 6.27-2.29 1.298.42 2.275 2.342 4.095.792.405-.337 1.517 0 1.247 1.196-.185.792-.775 1.584.304 2.51.37-4.398 2.882-3.876 5.68-2.528.876.42 1.685-.168 2.477-.1 1.686.135 3.37.152 2.882 2.578-.118.624.084 1.096.657 1.197.2-.003.396-.048.576-.132a1.39 1.39 0 0 0 .469-.357c2.444-2.747 4.702-2.983 7.618-.657.286.236.37.758.893.6 5.646-1.803 10.954.943 16.448 1.297a2.36 2.36 0 0 0 1.594-.167c.496-.24.892-.646 1.12-1.147a5.63 5.63 0 0 1 2.757-2.628c1.196-.53 2.54-.624 3.8-.27 3.674.86 7.533.64 11.156 1.904.506.186 1.433.793 2.19-.673.49-.944 2.865-.76 4.01.623l9.707 11.998c.556.623 2.04 1.06.877 2.275l-.017-.017z"/></svg>