<svg xmlns="http://www.w3.org/2000/svg" width="182" height="331" fill="none" xmlns:v="https://vecta.io/nano"><path fill-rule="evenodd" d="M70.532 314.545l-.216.846.216-.846zm-3.937 6.692c-8.007 0-19.42 1.657-20.08-6.3 4.222-.094 13.774-1.968 21.263-1.968-.486 2.084-1.18 5.824-1.18 8.267zm3.937-6.692v-1.97h1.18c-.334 1.433-.217 1.263-1.18 1.97zm57.88 1.18c-5.82 0-16.025-3.327-24.968-4.562-8.6-1.188-18.17-.95-27.794-.95 1.874-3.54 9.95-26.672 11.56-32.14 4.146-14.075 6.002-20.545 8.196-35.897 2.1-14.686 3.68-32.23 5.717-47.43 2.037-15.195 2.58-31.64 4.96-47.794 1.344-9.132 2.86-21.65 4.777-30.26 2.14-9.62 3.415-19.98 6.753-28.678 1.267-3.3 3.7-10.06 6.074-11.642 4.3 3.142 3.166 40.42 3.15 47.634-.007 2.954.38 4.626.4 7.07l.362 14.204.783 13.783c.18 2.172-.023 4.85.005 7.082.1 8.234 1.227 18.75 1.187 28.337-.04 10.095 4.006 38.318 5.106 46.073.595 4.2 1.217 8.72 1.586 12.98l.82 13.747c.725 8.763 2.64 32.438-.645 41.913-1.34 3.864-3.016 6.53-8.038 6.53zm-27.17-150.777c0 7.13-2.67 31.618-3.767 39.537-1.865 13.487-2.785 26.434-4.62 39.08-.9 6.204-1.984 12.54-3.343 18.31-1.95 8.278-7.178 24.044-10.547 32.758-1.88 4.863-3.893 11.433-6.072 15.975h-1.97c.64-2.744.92-6.144 1.35-9.278l1.424-9.6c.8-5.904 4.664-20.483 6.362-26.707 5.332-19.54 9.138-43.74 13.405-63.758l7.14-34.197a33.83 33.83 0 0 1 .211-.97l.192-.595c.027-.08.09-.217.114-.28s.066-.2.12-.274zm0 0v-1.575c.468.736.443-.88.325.788-.06.84-.048.35-.325.787zm4.726-37.793l-13.777 68.897c-.912 3.724-1.62 7.373-2.463 11.317l-2.496 11.676-4.386 23.172c-3.203 18.868-9.452 33.81-12.876 56.02l-.894 6.192c-.296 2.05-.87 4.397-.908 6.178-2.715.632-12.375 1.13-16.464 1.648-1.04.13-1.466.26-2.855.34l-2.403-.415.116-2.28c.12-.944.45-2.5.65-3.317.963-3.956 11.856-34.624 13.72-40.215l11.417-34.645L83.61 196.92c2.952-10.685 9.212-29.174 12.864-40.678l5.708-17.52c.667-1.988 1.162-3.92 1.768-5.712.534-1.576 1.215-4.694 2.02-5.854zm0 0c0-2.01-.006-.653.393-1.18 0 2.082-.002.587-.393 1.18zm7.087-36.61l.117.117c-.007-.008-.156-.078-.117-.117zM44.15 312.97l-32.276 2.376c-2.2.074-9.462.07-9.462-2.376 0-3.803 4.896-11.39 6.768-14.492 5.877-9.733 9.64-17.118 15.014-26.718l6.834-14.425c4.94-9.88 10.175-22.353 14.954-32.3 8.84-18.386 15.723-37.138 23.746-54.994 7.35-16.355 13.075-27.16 20.62-42.37 1.253-2.526 2.383-4.37 3.676-6.954l10.09-21.407c1.173-2.744 2.218-4.71 3.434-7.195.644-1.317 2.593-6.002 3.54-7.09 0 3.837-3.805 30.47-4.38 32.233l-13.192 41.926-4.396 14.107c-2.105 7.614-4.397 13.808-6.525 21.034l-11.128 34.933c-6.85 20.542-15.718 48.577-23.547 68.97-1.406 3.663-3.77 10.097-3.77 14.734zM116.6 83.46c.096-4.31 1.575-9.062 1.575-14.96 7.842 0 8.3-.698 14.348 2.19 1.42.678 1.842.832 2.894 1.83 4.37 4.15 4.745 12.954 4.795 20.008.043 6.12 3.74 27.718 4.67 34.305 1.6 11.354 3.414 22.758 4.41 34.564.468 5.55 1.813 11.497 2.317 16.974.538 5.835 1.548 11.81 2.33 17.354l5.615 33.36c2.174 10.898 3.483 22.23 5.707 33.266 2.213 10.978 4.687 21.158 7.693 31.283 1.452 4.892 2.627 10.252 3.895 15.396 1.634 6.634 2.358 12.288 2.358 19.688-3.537 0-17.123-5.078-23.307-6.617-4.127-1.028-8.157-1.58-12.745-2.217-8.4-1.167-27.348-1.292-36.41-1.02l-31.087 1.988c-2.416-.022-3.325.237-5.126.387.12-1.434 3.747-9.054 5.12-9.054 10.95 0 17.577-.174 28.632 1.292 11.704 1.553 26.27 8.858 32.08 1.537 6.32-7.962 3.8-25.666 3.87-35.51l-1.853-27.673-3.547-25.98c-.33-2.283-.672-4.504-.87-6.6l-2.02-20.42-.365-14.594c-.068-2.286-.416-3.835-.398-6.688l-.775-14.185c-.196-2.366.154-5.072-.042-7.438-1.337-16.15-1.554-41.168-1.554-57.497 0-6.772.406-24.802-5.12-24.802-3.207 0-5.866 8.085-7.087 9.842zm-8.663-15.747c.887-1.2-.253-.635 1.575-.787-.917 1.25.272.594-1.575.787zm11.42-16.14c.393-.14-.212-1.1.788.787-1.53-.408-.774-.76-.788-.787zm2.362-2.756c-.14-.745.496-1.4.25-.25-.006.027.01 1.624-.25.25zm-1.18-3.937c1.17.857 1.17.718 0 1.575-.344-.745-.483-.833 0-1.575zm-13.78.394l.847.217-.847-.217zM91.4 42.517c2.272.53 4.28 1.35 6.466 2.196 7.266 2.81 11.038 3.808 17.946 8.433-.507.758-1.236 1.68-1.88 2.452-.857 1.03-1.226 1.676-1.997 2.727-1.043 1.422-3.155 3.767-3.605 5.45-1.943-.162-4.62-2.457-5.816-3.633-1.573-1.545-2.98-3.297-4.248-5.2L91.4 42.517zm31.893 0l.118.117c-.008-.008-.157-.078-.118-.117zm-5.906-3.15c3.866 2.588 1.416 6.075 0 0h0zm16.144 28.738c-3.68-.306-3.625-2.8-11.023-2.758-4.53.03-10.894-.785-12.602-.785 1.298-1.94 6.066-9.2 7.48-10.235 3.198 2.14 5.052 4.724 6.3 4.724 2.736 0 .945-3.3.926-3.987-.043-1.58 1.613-1.388-.093-8.318-.4-1.588-.72-1.342 1.256-3.714 1.608-1.93 3.473-4.776 5.404-6.016 4.856-3.122 11.658-7.097 17.707-7.097-.045 2.03-2.55 6.355-3.828 9.557l-3.71 9.677-7.82 18.952zm1.575-35.824c.706-.964.536-.847 1.97-1.18-.707.964-.536.847-1.97 1.18zM76.045 29.92c.706-.964.536-.847 1.97-1.18.916.613 4.74 5.54 5.512 6.692l-6.765-4.26c-1.198-1.244-.123-.124-.716-1.253zm30.713 15.353L90.77 39.605c-1.8-.73-2.063-.917-3.08-2.432-.866-1.29-1.434-2.01-2.27-3.242-1.34-1.972-4.26-4.912-4.65-6.374 2.243-.523 1.554-.668 6.4 3.837 3 2.8 9.395 7.43 12.662 9.386 1.862 1.114 5.894 3.084 6.926 4.492zm33.47-18.896l-.394.394.394-.394zM118.176 50.4c-1.936-.16-3.096-1.7-4.233-2.854-6.562-6.662-15.965-9.224-26.818-19.687-1.004-.968-1.852-1.324-.408-1.766 3.226-.99 9.003-.3 12.476.77 4.017 1.24 11.72 4.197 13.372 8.283l4.264 9.908c1.03 2.488 1.926 2.86 1.348 5.345zM78.8 24.014c1.568.13 1.284.16 1.97 1.18-1.617.377-1.703.89-1.97-1.18zm-2.756-3.937l.118.117c-.008-.008-.157-.078-.118-.117zm.394-3.937c8.694 0 22.493-2.29 30.4 3.866 2.263 1.764 3.408 6.222 3.473 9.126-3.124-2.092-7.75-3.764-11.94-5-4.797-1.405-10.228-.807-14.835.266-.964-1.44-2.412-2.46-3.544-3.937-1.164-1.52-2.416-2.646-3.544-4.33zm63.788 10.236c1.848-2.76 9.617-9.432 12.593-11.424 1.573-1.053 4.248-3.248 4.338.795-1.2.32-15.365 10.21-16.93 10.63zM61.082 3.15c1.38.924 4.838 6.1 6.393 7.78.618.664 3.3 3.107 3.513 3.578 1.082 2.29-1.53.24 1.513 4.783-2.437-.568-5.636-2.297-8.103-3.315-2.134-.88-6.263-3.623-8.04-3.77.424-1.82 3.997-6.327 4.725-9.054zm75.994 27.95c1.3-1.76 14.09-9.3 16.797-10.763 2.185-1.18 3.77-2.546 5.646-3.803 0-17.126-24.414 13.527-27.633 15.677-2.048 1.368-3.282 2.322-5.22 3.836l-4.948 4.108c-6.8-10.152-6.614-3.112-9.763-15.827-.393-1.585-.75-3.648-1.57-4.73-4.267-5.642-19.42-6.8-25.787-5.926-2.02.277-4.154.06-6.21.093-3.03.046-3.448 1.267-5.217-.653L64.4 2.587C62.845.484 63.152 0 60.295 0c-1.406 2.1-2.26 4.384-3.615 6.62-1.468 2.42-3.815 4.48-3.866 6.764 1.538.813 1.612.5 3.26 1.07 3.38 1.168 9.675 5.092 16.285 7.338 2.47.84 3.86 2.348 4.473 4.976-2.077.484-4.926 2.558-3.026 5.376 1.186 1.76 9.205 6.38 11.43 7.48 6.67 3.29 8.705 19.94 21.126 26.513-.514 2.206-2.983 4.938-1.575 7.873 2.38-.198 1.97-1.108 1.97-3.543 3.01 0 3.572-.735 5.906-.787 0 8.333-2.648 11.594-6.3 18.896-1.41 2.82-2.63 5.543-4.073 8.525-2.816 5.815-4.977 11.946-7.87 17.72-1.478 2.95-2.562 5.602-4.064 8.534l-8.798 16.792-4.2 8.4-2.102 4.197c-5.044 10-9.338 20.524-13.497 30.99l-27.314 62.054c-2.796 5.825-5.764 11.356-8.24 17.352-2.534 6.138-5.786 11.126-8.692 16.898l-4.54 8.06C10 293-.285 308.17.006 313.38c.225 4.034 5.05 4.32 8.314 4.32l5.905-.4c4.3.016 28.242-1.553 29.926-2.36 2.465 10.58 10.92 8.38 20.506 8.63 2.94.076 1.145.148 2.725.895 1.842.87 1.187.116 2.143-.665 1.013-.828 5.344-.87 6.543-.963 4.94-.38 9.122-.55 14.153-.81L103.773 321c3.37-.5 7.033.02 10.467-.165 1.512-.082 1.933-.395 3.545-.424l6.7.424c4.88-.02 9.493-.126 14.463.498 10.627 1.335 20.167 3.464 29.8 6.828 14.095 4.928 14.375 4.413 12.38-9.622-2.394-16.838-7.853-31.02-11.588-47.465-3.667-16.142-5.937-32.856-8.985-49.674-4.54-25.04-7.867-51.608-10.826-77.36-1.002-8.724-2.42-17.17-3.642-25.884-1.058-7.54-3.265-18.36-3.492-26.035-.155-5.26-.225-8.925-1.19-13.377-1.5-6.978-3.597-5.953-5.885-9.076.726-3.117 12.13-30.595 14.442-35.163 2.96-5.844.507-8.46-6.127-6.126-2.065.727-4.597 2.2-6.74 2.71z" fill="#fefefe"/></svg>