<svg xmlns="http://www.w3.org/2000/svg" width="247" height="332" fill="none" xmlns:v="https://vecta.io/nano"><path fill-rule="evenodd" d="M65.55 322.78c0-3.434.855-4.097 2.326-7.188.715-1.5.607-1.443 2.404-1.795 6.3-1.235 12.46-2.557 19.08-2.764 5.323-.167 10.65-.824 16.257-.83 1.732-.002 2.17-.297 3.902-.3 10.31-.015 24.457-1.18 34.243 1.07 5.903 1.36 10.198 2.103 16.072 4.37 5.275 2.036 4.7.66 5.64 7.796.313 2.384.362 3.96.362 6.63-3.084.738-6.473-.825-10.306-1.737-2.802-.666-6.63-1.168-9.662-1.54-10.1-1.24-29.633-.943-41.1-.927l-12.326.84c-6.252.422-17.348 2.97-23.77.258-1.577-.666-3.113-1.59-3.113-3.884zm4.202-10.63l6.736-12.015c.37-.634.62-.978 1.017-1.782.283-.57 7.263-13.894 7.655-13.894 1.356 0 12.737 1.15 14.044 1.64 8.71 3.275 29.716 4.934 41.257 6.635l14.187 1.778c1.548.214 3.115.575 4.746.575.144 1.726 4.442 18.055 4.482 19.86-7.997-4.225-27.423-7.272-35.296-7.272-2.794 0-5.187.067-7.578.265-3.476.287-9.838-.235-15.19.497-1.26.173-2.574.03-3.855.068-1.5.044-2.098.31-3.912.29-4.04-.046-10.36.86-14.567 1.118-4.6.282-9.69 1.3-13.726 2.238zm91.042-18.74c4.478 0 20.144 1.515 24.98 2.19 14.222 1.983 16.074 3.68 28.507 7.898 1.8.6 1.276.48 1.864 2.614.192.7 1.744 6.04-.166 6.04-4.837 0-20.05-8.052-26.57-10.672-9.424-3.788-15.275-4.966-24.995-6.93-1.637-.33-2.8-.033-3.62-1.14zm-8.124-.84c2.154 0 4.234.4 6.163.56l-5.962-.48c-.047-.015-.14-.04-.2-.08zm0 0c-3.62 0-32.983-4.254-38.673-5.02-1.768-.238-3.937-.854-5.588-.854v-.28c1.892 0 3.936.117 5.84.32l16.976 2.07 10.84 1.763 10.604 2zM35.577 325.296c2.072-3.09 3.388-4.21 5.972-8.58.66-1.116 1.236-2.04 1.925-3.113 2.648-4.122 5.074-7.996 7.99-11.88.744-.99 1.208-1.807 1.958-2.8l12.466-17.48c.56-.84 1.482-2.343 2.183-2.855 1.125 4.822 2.656 3.47 10.845 4.834 1.207.2 3.26.65 4.562.76l-7.745 14.363c-.542.998-7.603 13.52-8.364 14.026-.53.35-3.292 1.046-4.062 1.258-3.748 1.035-8.95 3.062-12.368 4.434-3.556 1.426-13.545 6.884-15.364 7.035zm63.87-41.956l6.83-2.69c11.057-3.678 16.96-6.163 27.346-10.736 3.615-1.592 11.42-6.53 14.85-8.947.9-.64 2.22-1.73 3.08-1.96.106 1.282.543 2.927.77 3.984l.84 4.197 5.113 24.265c-9.6-.798-25.098-4.665-35.906-5.825-7.132-.766-14.28-1.59-21.266-1.702-1.443-.023-1.08.2-1.656-.585zm-7.564-37.48l-.28.28.28-.28zm.28-.28l-.28.28.28-.28zm.28-.56l-.28.56.28-.56zm.56-.56c-.17.915.357.39-.56.56l.56-.56zm.28-.28l-.28.28.28-.28zm.28-.28l-.28.28.28-.28zm0-3.077l-.28.28.28-.28zm0 3.077c.242-.903 4.805-5.954 5.516-6.8.975-1.16 5.167-5.07 6.8-5.508l-12.325 12.307zm12.605-12.587l-.28.28.28-.28zm.28-.28l-.28.28.28-.28zm3.362-.56c-.388 1.662-24.877 51.23-24.932 51.466-2.156 0-3.95-.43-5.675-.767-7.936-1.547-11.895.397-6.534-8.626 3.18-5.354 10.006-14.252 14.1-18.648l4.628-5.168c.702-.726.828-1.102 1.53-1.83l14.768-14.622c.192-.16.116-.092.308-.253.708-.594 1.11-1.086 1.807-1.552zm-3.362.56l.547-.322-.547.322zm.84-3.077l-.28.28.28-.28zm56.306-8.67l19.4 18.39a34.4 34.4 0 0 0 2.928 2.671c1.75 1.46 3.664 3.633 5.335 5.302l3 2.89c.04.04.1.1.14.14l.28.28.698.702 11.848 12.784 9.8 11.752 12.015 15.135c2.505 3.49 14.996 20.552 15.525 22.818-5.21 0-14.862-4.9-20.417-6.746-1.115-.37-2.04-.796-3.233-1.247l-3.523-1.237c-.1-1.09-1.783-4.912-2.278-6.117-.356-.867-.8-1.97-1.267-2.93l-4.295-8.578c-2.227-4.302-14.322-21.612-17.41-25.7l-28.534-40.317zm-46.502 1.12l1.68-3.077c.714.478.875.48 1.12 1.4-1.234.33-1.568 1.35-2.802 1.678zm-9.804 7.552c.67-.998 7.94-8.917 9.244-9.8-.212.794-2.193 4.42-2.963 5.153-.928.883-5.416 4.406-6.28 4.637zm48.182-13.146c1.3-.303 2.236-.205 3.134.786.19.2.72.966.95 1.29l16.042 22.58c3.683 4.972 7.937 11.64 11.366 16.342l11.368 16.06c7.027 10.6 10.174 14.295 14.927 26.212.43 1.077 1.08 2.414 1.32 3.437-1.107-.092-4.6-1.543-5.847-1.993-1.948-.703-3.976-1.33-6.1-2.03-9.67-3.21-23.892-4.7-34.562-5.208-2.486-.12-4.754-.557-7.566-.557-.665-2.85-1.24-5.453-1.844-8.51-.6-3.034-1.29-5.642-1.96-8.672l-3.76-17.223c5.175-3.46 9.805-10.268 9.805-17.342 0-12.01-7.284-17.983-7.284-25.173zm-35.296 0h.56c.114 1.363.01.307.377 1.343.072.2.054-.143.202.57.015.07.026.268.028.323l-.047.28s.087.622-.935-.736c-.715-.95-.453-.665-.185-1.78zM2.52 299.284c1.666-2.484 13.518-11.935 16.405-14.108l17.998-12.797c3.83-2.585 17-12.937 20.87-16.082l20.36-16.31c9.244-7.21 18.076-15.028 28.17-21.1 3.996-2.403 5.018-2.954 9.367-2.954-1.28 1.91-6.843 7.1-8.684 9.5l-4.285 4.952c-3.308 3.926-4.127 4.3-8.002 7.393l-19.09 14.783c-.68.52-.952.82-1.73 1.348-4.35 2.948-12.236 9.35-17.433 13.082-4.866 3.493-9.492 6.977-14.506 10.13l-11.092 7.386c-1.3.866-2.46 1.537-3.754 2.405l-7.6 4.72c-2.935 1.568-13.816 7.573-16.996 7.644zM126.9 207.82c0 2.62-1.12 4.576-1.12 7.552-1.69-.14-.734-.475-2.522-4.195l3.642-3.357zm.28-3.636c.19-.798-.042-.42.56-.84-.192.798.042.42-.56.84zm.56-.84l.154-.6-.154.6zm2.52-2.517c.813-3.483 1.29-4.027 3.76-7.435 5.05-6.97 5.402-8.468 10.586-.735 1.526 2.275 2.764 4.35 4.196 6.718l8.07 13.48c-5.135 0-3.004 5.357-1.494 8.485 4.015 8.318 9.145 18.093 3.338 27.48-1.048 1.695-4.535 6.352-6.326 6.83l-6.655-28.878c-1.572-7.337-3.91-17.19-6.97-24.087-.586-1.32-.586-2.074-2.06-2.417-.34.505-.56.492-.56 1.12 0 1.306 1.546 5.376 2.043 6.63 2.228 5.624 4.806 14.594 6.25 20.33.24.95 6.553 27.547 6.553 28.98-.756.202-6.157 4.32-7.24 5.076l-4.718 2.842c-8.887 4.938-18.415 8.766-28.064 11.977l-7.564 2.517c-1.867.617-5.687 1.69-6.198 3.88-3.29-.273-7.98-.713-10.925-1.398.305-1.307 6.772-13.816 7.937-16.13.704-1.4 1.2-2.695 1.866-4 .702-1.39 1.383-2.63 2-4.156.574-1.415 1.28-2.68 2.017-4.14.742-1.47 1.217-2.72 1.96-4.198l5.843-12.067c.29-.6.648-1.328 1.027-2.05 4.23-8.064 2.767-7.148 10.8-13.55.702-.56 1.026-1.017 1.845-1.235.04.156 2.123 3.657 3.112 3.885.267.06.797.03 1.1.03.145-.625.267-1.17.527-1.71.522-1.084.414-.402.622-1.896.18-1.282.3-3.04.48-4.275.3-2.055 1.498-10.665 2.36-11.9l.64-.76.13-.15.128-.152.13-.15c.437-.5.708-.817 1.2-1.31 3.468-3.407 6.348-4.365 3.58-6.216-2.213.514-3.473 3.518-5.323 4.755zm-24.93-35.243c.284.375.28-.588.28.84-.26-.342-.182.314-.28-.84zm0 0c-.284-.375-.28.588-.28-.84.26.342.182-.315.28.84zm-17.928-38.6c.676.495 1.03 1.15 1.12 2.237-1.088-.796-.624-1.127-1.12-2.237zm43.14-74.402l-.204-.356-.18-.38c-.16-.384-.143-.4-.285-.835-2.03-6.097-3.534-4.1-3.534-3.743l2.468 6.765c.26.964.32 1.87.64 2.718.34.903.717 1.1 1.065 2.014.31.812.467 1.68.765 2.593.567 1.74.974 3.348 1.47 4.965 1.995 6.507 4.425 12.91 6.72 19.025 1.217 3.245 2.093 6.275 3.227 9.644l2.383 7.13c.27.748.788 1.707.973 2.4.195.728-.696 4.04-.917 5.142-2.343 11.696-3.883 21.154-5.542 32.787-.295 2.074-.65 3.6-.908 5.526-1.168 8.78-4.287 23.036-6.06 32.548l-3.252 16.05c-.643 2.66-3.14 5.752-4.62 8.254-.447.755-.806 1.225-1.196 1.882-.442.745-.737 1.45-1.414 1.944l-11.52-30.732c-3.502-10.5-8.775-32.704-11.787-44.73-.442-1.767-.983-3.692-1.37-5.625-1.346-6.718-1.724-5.434.185-12.174.583-2.058 1.155-3.856 1.802-5.753.64-1.876 1.1-3.54 1.843-5.432l5.968-16.417c1.318-3.633 2.776-7.21 4.195-10.636l8.926-20.736 3.043-7.87c1.023-2.642 3.93-12.177 4.88-14.148 1.786.04 3.898.698 5.602.84-1.282 5.498-2.84 11.1-3.36 17.34zm-35.857 68.248c0 3.89 1.288 8.57 2.3 12.25l5.432 20.867 1.29 5.147c.366 1.476 1.212 3.775 1.345 5.37-.72-.826-2.063-5.484-2.416-6.54l-2.31-6.644c-1.33-4.04-3.472-9.105-5.157-13.032l-4.216-9.212c-.202-.786.63-2.216.966-3.14 2.566-7.06 5.523-19.333 8.335-27.76 2.92-8.754 6.686-18.523 9.182-26.914.8-2.693 4.3-12.2 4.3-14.167 0-5.51-12.53-18.532-12.886-19.86l8.166-3.594c4.17-1.694 2.842-.653 6.68-.6 1.5.02 2.18.19 3.634.288 2.25.15 4.825.648 7.013.83l-9.844 26.813c-5.484 13.36-9.6 22.66-14.7 37.347L97.87 109.2c-.993 2.977-3.187 8.657-3.187 11.642zm44.54-99.295v13.426c-.623-.145-2.522-.85-3.082-1.12l3.082-12.307zM126.9 32.446c-2.385-.555-9.462-1.184-12.046-1.398.612-.834 2.43-1.492 3.48-2.12 2.083-1.246 10.055-4.997 11.927-5.153-.216.927-.365 1.223-.745 2.053-.8 1.752-1.67 4.834-2.616 6.618zm7.564 1.12c-.746-.357-4.388-.84-5.603-.84l2.72-7.073.626-1.612c.462-1.207.02-.945 1.08-1.44.568-.265 3.08-1.043 3.978-1.063-.033 1.47-1.003 4.567-1.344 5.93-.425 1.698-1.325 4.503-1.457 6.097zm6.723-15.104v-3.916c.7.33 6.84.84 8.123.84-.05.043-.134.037-.158.12l-1.57.95c-1.33.625-5.142 1.9-6.396 2.004zm-3.082.84c-.98.228-3.68 1.015-4.482 1.4.6-2.53 2.375-5.446 2.8-7.272.888.074 2.146.525 2.802.84-.285.592-1.1 4.146-1.12 5.035zm1.12-7.272c-.68-.158-1.124-.293-1.68-.56.067-.8 1.26-3.95 1.96-4.755 0 2.188-.28 3.42-.28 5.314zm-61.35-9.5c13.075 0 31.732 3.46 44.373 6.6l12.494 3.47-2.877 7.197c-1.014 2.67-1.592 1.752-6.53 3.83-1.792.754-3.107 1.374-4.787 2.213l-4.387 2.332c-5.452 2.922-3.902 2.873-10.7 1.927-2.102-.292-4.476-.383-6.362-.64-4.204-.572-9.374.367-12.584-1.14-3.79-1.78-5.006-11.425-9.308-18.397-3.556-5.764-4.36-7.4.678-7.4zm15.407 238.588c-.312 1.166-3.08 4.07-3.883 5.073-7.5 9.393-10.85 13.958-17.517 23.906l-1.906 2.852c-1.268 1.907-2.584 3.56-3.864 5.372l-3.87 5.365c-1.276 1.885-2.49 3.358-3.75 5.206l-17.046 24.377c-.596.997-1.204 1.792-1.858 2.9-1.72 2.908-3.602 5.405-5.78 7.935-1.137 1.32-1.51 1.113-1.033 3.164 3.212.747 5.877-.798 8.626-2.295l9.578-4.702c.717-.322 1.08-.565 1.93-.87 1.42-.5 2.852-1.137 4.273-1.607 2.654-.88 6.078-2.595 8.93-2.832-.558 2.39-1.974 3.857-2.42 6.542-1.51 9.088 11.875 8.488 18.158 7.773 11.89-1.353 21.52-2.288 33.846-2.288 6.163 0 11.42.287 17.648.28 5.607-.007 11.68.682 16.688 1.518 2.938.5 13.636 3.357 14.93 3.224 4.45-.46 2.828-6.575 2.327-10.106-.195-1.38-.582-2.91-.61-4.146.828-.22.454-.114 1.12-.56 0-4.31-2.13-6.76-3.4-10.592l-3.044-10.945c2.848 0 6.36.996 9.02 1.622 8.502 2 16.6 4.607 24.22 8.264l7.287 3.353c3.617 1.81 7.394 3.66 11.26 4.98 1.346.46 3.17.923 4.574.016 2.463-1.59 1.086-6.242.507-8.725.842.196.834.314 1.6.64 3.735 1.584 7.674 2.8 11.292 4.388 2.038.894 16.213 7.976 15.88 1.725-.114-2.137-4.048-6.737-5.243-8.428-4.338-6.14-8.607-12.413-13.357-18.27l-1.984-2.494-5.984-7.45c-.7-.9-1.343-1.795-2.134-2.625l-24.674-27.388c-1.974-1.796-3.66-3.725-5.812-5.385-2.514-1.938-5.383-5.287-7.962-7.434l-.307-.253a15.31 15.31 0 0 1-1.167-1.072l-4.76-4.48-4.477-4.48-7.255-6.462c-1.368-1.08-2.383-2.016-3.272-3.445-3.024-4.862-13.5-23.69-17.14-25.96-4.705-2.936-7.002 5.148-9.525 6.994.042-1.868 7.173-38.265 7.6-40.8 1.676-9.944 5.38-36.688 8.213-46.074.736-2.438.027-2.49-.725-4.55-2.15-5.886-3.795-12.134-6.12-17.943-1.287-3.213-9.215-24.17-8.82-27.233.223-1.72.27-3.936.404-5.497.32-3.73.923-6.996 1.813-10.496.333-1.31.83-3.95 1.276-4.88 2.248.523 2.822 1.678 5.323 1.678.78-1.624.346-1.41.274-3.343-.053-1.446.006-3.027.006-4.488 0-1.553-.226-7.63 0-8.67.268-1.24 1.71-.954 2.9-1.298 1.526-.44 8.968-2.576 8.304-5.135-.423-1.628-3.548-1.358-5.045-1.396-1.748-.044-4.46-.42-6.16-.562.1-1.08.434-1.85.673-2.963s.426-2.205.61-3.306c.342-2.034 1.284-5.78-.724-6.317-.752.55-.678 1.165-1.42 1.66-.686.46.19-.44-.687.432-1 .99-3.776 7.6-4.057 8.816-1.235-.287-2.042-.577-3.26-.94-12.632-3.78-44.49-10.27-56.376-9.096-2.78.275-4.44 1.505-3.206 4.533 1.71 4.195 4.026 7.35 5.88 11.47.923 2.05 1.58 4.435 2.375 6.58.727 1.963 1.635 4.125 3.102 5.574 1.722 1.7 3.51 1.87 6.658 2.023 1.382.067 2.157.286 3.925.276 1.422-.007 3.1-.078 4.485-.003 2.552.137 5.65.84 8.123.84l-3.173 1.586c-1.107.513-2.213 1.004-3.368 1.407-3.392 1.185-3.202-2.453-6.345-2.714-1.163.3-.886.912-1.186 1.893-.022.07-.04.147-.065.215-.232.653-.01.043-.273.567-.534 1.067-.165-.206-.438.962 1.968 2.26 4.35.846 6.1 2.02s4.854 5.563 6.388 7.607c1.933 2.574 6.864 8.98 6.547 12.146-.143 1.428-3.262 11.384-3.73 12.81l-4.064 12.445c-3.695 10.205-7.022 20.634-10.088 31.044-.554 1.88-2.662 11.124-4.234 12.274-.737-2.756-7.485-7.67-3.247 2.403.948 2.252 1.464 3.64 3.807 2.073.33 1.414 1.447 3.286 2.042 4.674 4.194 9.79 6.115 15.653 9.605 25.093.675 1.826 1.04 3.487 1.717 5.278 1.947 5.153 3.42 10.33 5.16 15.546l5.525 15.46c1.25 3.353 4.983 12.508 5.645 15.342l-2.307 2.17c-3.76-.216-3.944-1.362-9.65 1.832-.79.442-1.26.607-1.997 1.083l-13.138 9.26c-7.294 5.4-14.25 11.383-21.333 17.018l-21.327 17.025-7.283 5.595c-9.094 6.803-18.804 12.798-27.694 19.897-.65.52-1.237.898-1.912 1.447-1.3 1.048-2.218 1.856-3.572 2.866-2.755 2.056-5.002 4.477-7.524 6.752-.184.167-.313.273-.447.393l-.293.267c-.922.842-1.136.9-1.136 2.5 2.185 1.46 4.722.297 7.17-.673 2.105-.835 4.303-2.12 6.37-3.15 1.24-.616 1.93-1.062 3.08-1.68 1.187-.638 1.96-.95 3.112-1.648l40.536-27.214c.954-.718 1.853-1.293 2.765-1.994l30.25-22.94z" fill="#fefefe"/></svg>