<svg xmlns="http://www.w3.org/2000/svg" width="211" height="240" fill="none" xmlns:v="https://vecta.io/nano"><path fill-rule="evenodd" d="M160.034 217.904c6.123 0 12.185.862 17.82 1.337 0 2.12.33 2.79.33 5.015 0 3.827.538 7.955-1.895 10.783-1.308 1.52-1.87 2.408-4.045 2.922-3.507-2.38-10.223-15.556-12.21-20.057zm18.81-8.023c2.136 0 5.443.96 7.457 1.47l7.06 1.872c-.054 2.462-1.486 3.176-3.5 3.81-3.237 1.018-6.584.87-10.03.87 0-.976-.77-7.528-.99-8.023zm-23.428-1.002l16.45.048c1.302.146 3.658.507 4.998.62.053 2.432.66 4.173.66 8.023l-13.518-1.014c-1.6-.05-3.337.01-4.96.01l-3.196-6.457c-.206-.468-.334-1.006-.434-1.23zm-78.862 3.677c-3.617 0-6.063.208-9.534-1.038-2.292-.823-3.004-1.895-3.004-4.31 0-4.93 8.208-15.994 10.795-19.483l4.94-6.36c.69-.87 1.165-1.394 1.8-2.188l12.24-14.342c.684-.75 1.264-1.264 1.988-1.998l7.312-7.97c.886-1.16 13.782-14.754 15.37-15.183.418 1.818.997 2.545 1.645 4.016l13.394 26.88c1.453 2.46 2.448 4.934 3.908 7.406l13.783 26.484c1.16 1.926 2 2.973.887 3.337l-24.03 1.428c-7.17.557-17.38 1.482-24.114 1.645l-27.38 1.678zm-5.28-48.805l-.33.668.33-.668zm.33-.334l-.33.334.33-.334zm94.04-15.377c1.214 1.414 12.36 23.71 13.53 26.074l9.126 19.836c3.756 8.515 3.564 9.652 5.392 17.603-2.64-.06-10.16-3.01-14.848-3.01-1.477-6.423-2.064-19.666-5.013-31.692l-8.186-28.812zm0 0l-.38-.652.38.652zm-46.196-9.694l25.408-26.074c.487.932.825 1.376 1.384 2.275l13.482 22.444c1.84 3.214 6.967 19.444 8.162 23.822 3.984 14.6 6.646 24.082 7.998 40.034.213 2.515.65 4.55.65 7.363-5.036-1.19-15.742-.668-22.108-.668l-32.885-64.63c-.804-1.602-1.32-3.087-2.092-4.566zm-57.414 69.196c0 8.563 13.637 6.65 18.48 6.687 3.533.026 8.814-.492 11.968-.912l54.673-4.115c2.625.007 3.876-.323 6.28-.323l3.75 7.627c-33.457.2-61.327 13.767-105.71 13.767-3.087 0-8.365-.57-10.61-1.285-7.024-2.237-1.628-12.7.492-16.99 4.144-8.384 17.585-29.12 23.698-37.5l15.835-20.73c3.664-4.558 7.262-8.998 11.422-13.165 1.654-1.657 3.656-4.45 5.97-6.32l7.9-7.384c.578-.542.9-.97 1.477-1.513.75-.705 2.772-2.543 3.55-2.753.163 1.987 5.836 13.492 6.27 15.377-1.244 1.88-5.777 6.02-7.672 7.94L89.18 168.187c-.707.743-1.323 1.227-1.972 2.014l-3.477 4.166c-1.295 1.402-2.508 2.736-3.694 4.28-5.48 7.14-8.05 9.97-13.32 17.928-1.076 1.625-1.907 2.99-2.82 4.833-.63 1.275-1.866 4.486-1.866 6.133zm98.66-74.545l3.376 4.27c1.25 1.55 2.228 2.968 3.478 4.5l6.82 8.802c2.28 3.072 4.5 5.838 6.828 8.794 9.44 11.985 27.674 35.54 27.674 51.188 0 5.915-11.32 2.193-13.53 1.67 0-9.993-7.338-22.557-11.028-31.615l-9.324-18.968c-3.104-5.618-6.988-13.87-9.866-18.754l-3.655-6.993c-.39-1.107-.624-1.713-.774-2.894zm-3.3-4.01c.032-.033.098.053.098.1l-.098-.1zm-.66-1.003l.098.1c-.006-.007-.13-.067-.098-.1zm-1.32-5.348l.38.65-.38-.65zm-83.812 40.782c.35-1.518 20.272-32.858 22.7-36.504l2.228-3.426c1.51-2.284 7.444-12.268 8.728-13.22.704 3.062 4.887 8.516 4.95 11.366-1.125.304-6.466 5.756-7.968 6.97l-21.625 23.554-9.013 11.26zm-49.165 29.416c.342-4.16 13.074-27.39 16.165-32.094 5.53-8.412 10.2-15.742 16.262-23.973l3.488-4.823 6.7-9.258c1.163-1.594 2.12-3.107 3.296-4.683 1.004-1.346 2.737-4.153 3.583-4.727-.302 1.147-2.075 4.03-2.745 5.24-.54.978-.793 1.675-1.323 2.672-.553 1.04-.885 1.442-1.435 2.557l-13.948 26.318-3.005 5.312c-6.535 11.047-10.553 16.81-17.804 26.423-1.195 1.585-8.206 10.337-9.235 11.035zm49.825-80.227l-.33.67.33-.67zm46.526 24.068c-2.047-3.918-4.477-11.312-6.6-15.376 1.17-.794 2.56-2.24 3.728-3.243 1.394-1.194 2.597-2.138 3.946-3.357 2.638-2.383 14.04-12.3 17.152-11.513 1.886.478 4.123 3.89 5.34 5.602.592.832 1 1.36 1.5 2.148l-4.375 4.927c-.37.386-.427.454-.784.878l-19.918 19.934zm36.626-14.04c-.964-.654-3.733-4.708-4.667-5.97l-2.262-3.057-1.128-1.532-1.182-1.476 4.95-6.017c.105 4.74 4.24 15.822 4.3 18.05zm-43.886-2.675c-.45-1.96-4.012-9.448-5.28-11.365 1.365-2.614 8.576-12.44 10.66-14.94 1.526-1.83 4.28-5.37 6.022-6.62 1.68-1.207 2.53-.677 4.633 1.3l.17.163c2.07 2.028 9.034 10.582 9.53 12.742-2.214 0-2.64.35-4.07 1.225-5.482 3.347-10.58 8.322-15.588 12.287-2.218 1.756-3.79 3.654-6.08 5.207zM88.43 72.827l-.33-.334.33.334zM101.3 43.41l-3.9-3.736c-.05-.046-.127-.108-.178-.154l-4.187-3.78c-.828-.67-.646-.12-.972-1.355 2.02-.17 2.893-1.498 4.95-1.67.053 2.426 3.55 7.484 4.3 10.697zM88.1 72.493c-1.08-.732-1.504-1.575-2.395-2.588-.895-1.02-1.51-1.844-2.367-2.95L71.685 52.687c-2.853-2.848-.873-1.403-5.112-5.184l-12.99-12.92c-.91-1.354-1.152-2.543.17-3.57.774-.6 2.567-1.277 3.992-1.31 2.502 3.786 5.44 7.19 7.78 10.504L76.93 56.066C78.126 57.67 87.717 71.033 88.1 72.493zm22.768 13.705c-.556-.39-.66-.048-.66-1.003 0-2.484.334-11.586 0-13.037-1.205.027-12.932 4.258-16.828 4.346-.343-1.492-3.038-4.693-3.958-6.02l-4.242-6.066-4.15-5.823c-4.502-6.07-10.544-14.854-15.114-20.457-.81-.994-1.347-1.835-2.157-2.83-.82-1.005-1.34-1.8-2.16-2.827-.913-1.133-1.54-1.838-2.207-3.113 1.428-.032 1.81-.344 3.618-.346 11.342-.008 13.395-1.12 26.366 1.058.638.107 1.424.234 2.204.442 1.088.3 1.195.49 2.458.518v.67c-.837.198-1.885.664-2.693.95-4.428 1.56-.416 3.804 1.844 5.594C97.14 41.38 104.6 51.64 104.6 46.085c0-2.29-5.146-11.26-5.94-14.708 1.4-.33 7.353-4.248 9.015-5.242 6.478-3.875 20.988-16.692 26.622-15.483-.317 3.854-9.033 13.895-12.665 24.275-4.42 12.638-5.034 15.247-7.318 29.69L112.57 75.22l-1.702 10.98zm-93.38 114.658l-2.113 7.887c-.71 2.867-1.405 5.423-1.9 8.44-.648 3.95-3.234 15.64 4.485 13.928 2.314-.513 4.83-2.29 6.383-3.587 4.498-3.757 9.122-8.245 12.846-12.726.708-.85 1.66-2.355 2.407-2.9-.964 4.192-10.032 17.297 2.768 19.26l9.44.822 9.38-.552c2.974-.455 6.25-.173 9.29-.615l17.86-2.297c11.4-1.68 22.386-4.185 33.56-6.45 12.382-2.51 23.222-4.15 36.16-4.15.91 1.74 1.77 3.58 2.64 5.35 2.048 4.172 5.992 12.297 9.14 15.477 3.705 3.744 8.072-1.705 9.2-4.577 1.705-4.306 1.21-9.766.788-14.912 2.072 0 3.058.465 4.8.205 6.097-.908 7.993.182 10.71-5.553 3.398.802 10.877 3.516 14.284.096 4.348-4.365-2.85-19.37-4.605-22.94-5.4-10.973-12.707-20.517-20.287-29.924l-14.376-18.53c-3.014-4.093-10.97-13.104-12.264-17.327-1.938-6.314-3.68-12.6-4.847-19.158-.365-2.048-.416-3.27-1.79-4.203-2.5.674-4.12 5.562-6.27 7.02-.837-.62-3.605-4.938-4.426-6.213l-4.348-6.626c-2.515-3.686-6.6-9.37-10.567-11.374-2.744-1.387-5.044 1.425-6.477 3.073-.56.646-.604.84-1.166 1.492l-8.323 10.957c-1.077 1.66-3.108 5.23-4.62 6.35-7.665-14.675-8.674-8.592-6.513-6.105 1.556 1.8 5.922 6.382 4.95 8.827-.173.436-1.146 1.906-1.402 2.296l-1.456 2.202L73 158.136c-.98 1.477-1.774 2.864-2.703 4.28l-19.67 30.885c-3.378 5.133-6.63 10.077-10.407 14.862-4.782 6.058-9.797 11.83-15.69 16.863-11.5 9.82-11.123 1.372-9.15-9.27.75-4.055 1.684-7.902 2.818-11.52.734-2.34 1.408-6 3.174-7.816.82-.85.938-1.178 1.658-1.998 12.493-14.24 23.154-29.833 32.2-46.604l2.54-4.78c3.506-6.11 6.597-12.57 9.993-18.96l19.598-34.65c.67-1.205.72-1.27.422-2.565-1.77.15-2.327 1.767-3.16 3.15-9.453 15.668-18.414 29.155-29.267 43.892-7.564 10.272-14.73 20.59-21.253 31.62-3.318 5.61-6.588 11.382-9.278 17.343-1.43 3.165-2.72 6.155-3.977 9.34-1.776 4.5-2.1 4.96-5.075 8.23-3.63 3.976-7.616 8.045-11.702 11.545-.767.657-.93 1.017-1.75 1.572 1.002-4.36 7.075-13.623 9.02-17.606l9.27-17.686c3.14-5.742 5.885-12.015 8.77-17.86 7.598-15.394 16.34-29.914 26.542-43.644.556-.748.87-1.2 1.43-1.895 6.947-8.516 13.812-17.788 19.874-27 .888-1.35 1.7-2.642 2.686-3.964 1.042-1.398 1.98-2.63 2.923-4.058 4.527 0 9.085-1.14 13.448-2.087 3.564-.774 8.98-1.653 12.29-3.26 0 1.226.084 2.778-.048 3.962-.36 3.258-.615 8.08 1.368 11.08h1.65c1.567-2.37 1.832-7.7 2.255-10.752 1.572-11.287 2.6-22.914 5.953-33.75 2.617-8.486 5.565-15.79 10.2-22.76 1.68-2.524 8.2-10.23 5.722-13.005-1.966-2.2-7.514.547-9.4 1.602-1.42.798-2.608 1.72-3.983 2.65-6.566 4.435-12.653 9.304-19.475 13.364-1.508.897-4.508 3.376-6.134 2.85-.764-.247-1.636-.75-2.4-.952-5.815-1.57-18.2-2.87-24.195-1.95-2.18.334-4.17.07-6.4.192-2.018.11-3.744.336-6.268.336-.598-2.268-8.782-11.246-10.5-13.42L35.06 1.543C32.89-.7 30.39-.527 32.397 2.2c1.064 1.45 3.11 3.016 3.57 4.764 1.317-.03 1.22-.154 1.98-.67 1.17 1.77 7.32 7.883 9.38 10.554.716.928 1.495 1.868 2.254 2.73 1.213 1.38 6.153 7.074 6.514 8.443-3.048.257-6.126 2.66-4.934 5.985.925 2.58 3.487 4.437 5.496 6.148 4.23 3.604 7.927 7.33 11.894 11.35.965.977 1.92 1.83 2.802 2.844 5.194 5.97 10.836 14.617 15.507 19.724 1.014 1.108 2.092 1.878 2.89 3.088-1.58.133-3.58.67-5.28.67.338-.51 1.28-1.545.175-2.19-1.705-.993-2.83 2.31-3.367 3.3-2.1 3.88-4.835 6.94-7.138 10.82-.873 1.47-1.84 2.735-2.8 4.184-.963 1.457-2.03 2.954-3.035 4.28l-6.178 8.115c-4.003 5.436-8.45 10.744-12.306 16.28-1.97 2.83-3.767 5.563-5.74 8.56-4.77 7.247-6.635 11.255-10.617 17.992L23.948 168.3c-.695 1.706-1.47 3.067-2.28 4.71-5.464 11.07-11.304 22.046-17.57 32.678C2.55 208.304 0 212.726 0 215.9c2.314.546 3.474-.987 5.033-2.6 2.3-2.366 10.974-11.448 12.455-12.453z" fill="#fefefe"/></svg>