<svg width="347" height="331" viewBox="0 0 347 331" fill="none" xmlns="http://www.w3.org/2000/svg">
<path fill-rule="evenodd" clip-rule="evenodd" d="M92.3504 300.661C91.5285 301.793 81.3133 307.097 76.1815 312.641C73.4002 315.644 73.6974 314.622 69.1693 314.242C69.2993 312.665 69.9228 312.498 70.9367 311.499C73.2395 309.228 76.453 307.55 79.3888 306.069C81.6261 304.94 90.1141 300.849 92.3504 300.661ZM77.7687 313.865C80.6666 309.499 93.144 302.414 98.0776 299.65C112.663 291.477 107.309 293.424 117.774 298.776C119.171 299.491 119.522 299.351 120.392 300.661C112.552 302.505 85.143 313.699 77.7687 313.865ZM93.0981 300.284L92.3504 300.661L93.0981 300.284ZM93.0981 300.284L93.8271 299.85L93.0981 300.284ZM94.2198 299.53L94.3313 299.642C94.3241 299.635 94.1827 299.567 94.2198 299.53ZM158.529 311.602C151.74 311.602 145.235 309.497 139.97 307.692L125.38 301.287C124.631 300.834 125.001 301.097 124.505 300.661L141.627 295.68C151.787 292.868 167.057 289.457 177.501 287.361L195.917 283.686C194.865 288.242 190.263 295.435 187.06 299.27C179.698 308.081 170.448 311.602 158.529 311.602ZM139.46 279.913L139.572 280.026C139.564 280.018 139.423 279.951 139.46 279.913ZM140.208 279.536C140.606 279.135 141.626 280.135 140.624 279.732C140.616 279.729 139.582 280.168 140.208 279.536ZM142.077 279.159L141.348 279.593L142.077 279.159ZM143.199 278.782C142.787 279.167 143.853 279.159 142.077 279.159C142.49 278.773 141.423 278.782 143.199 278.782ZM143.947 278.404L143.199 278.782L143.947 278.404ZM145.069 278.027C144.656 278.413 145.723 278.404 143.947 278.404C144.359 278.019 143.293 278.027 145.069 278.027ZM145.069 278.027C145.839 277.351 145.631 277.382 146.938 277.273C146.167 277.949 146.375 277.917 145.069 278.027ZM199.282 281.422C199.595 280.071 200.028 279.014 200.406 277.652C201.469 273.819 202.549 268.416 202.647 264.446C202.778 259.118 202.522 260.914 215.778 256.947C221.465 255.245 243.898 250.488 250.505 250.488C250.627 251.968 251.272 253.975 251.627 255.392C252.703 259.688 253.87 266.795 253.87 271.237C253.87 274.196 253.011 275.333 250.841 276.103C248.928 276.782 246.022 277.065 243.756 277.253C238.565 277.683 233.234 277.245 228.092 277.67L199.282 281.422ZM111.419 292.74L116.869 290.694C122.384 288.585 127.169 286.366 133.058 284.394C136.641 283.194 140.435 281.529 143.993 280.337L155.006 276.359C158.77 274.893 162.307 273.671 166.057 272.419C173.887 269.804 180.486 267.395 188.655 265.041C190.641 264.469 192.503 263.905 194.373 263.265C196.022 262.702 198.655 261.84 200.404 261.428C200.404 266.006 199.342 272.037 198.369 275.974C196.391 283.981 196.849 281.833 189.038 283.535C168.041 288.11 145.069 292.509 124.824 299.117C122.34 299.928 123.017 300.156 119.112 297.803C118.088 297.185 117.464 296.969 116.437 296.352C114.288 295.062 111.803 294.193 111.419 292.74ZM146.938 277.273C147.94 276.394 151.775 275.176 153.24 274.577C159.445 272.045 197.197 258.105 200.404 258.033V259.542C194.787 260.863 173.319 268.227 166.987 270.34C163.661 271.451 148.798 277.116 146.938 277.273ZM253.122 250.111C263.964 250.111 275.056 248.546 285.391 252.637L289.041 254.235C293.446 256.718 296.12 258.453 296.12 264.069C296.12 272.518 280.016 283.214 273.613 287.384C265.001 292.993 262.876 294 254.242 298.397C250.886 300.106 247.225 301.79 243.722 303.249C214.564 315.391 176.595 324.374 145.408 327.411C128.276 329.079 121.959 329.332 105.062 329.332C96.4943 329.332 75.1513 326.472 75.1513 319.523L75.5255 316.505L86.5842 313.706C90.4126 312.617 93.4025 311.552 97.0706 310.328C104.084 307.989 110.519 305.428 117.542 303.067C125.578 300.366 121.153 301.717 136.951 308.098C149.48 313.159 160.876 315.736 174.376 310.993C182.471 308.149 188.633 302.101 192.999 295.077C194.647 292.426 197.839 286.321 198.535 283.308C203.178 282.217 208.345 281.715 213.424 280.978C214.446 280.83 215.729 280.694 217.063 280.5L229.189 279.531C234.982 279.564 239.929 279.127 246.023 279.164C260.416 279.251 256.924 268.295 254.086 255.175C253.682 253.304 253.122 252.158 253.122 250.111ZM203.021 258.788C203.021 256.943 202.778 257.09 204.145 256.526L224.631 250.79C228.364 249.848 232.334 248.826 236.452 248.004L249.01 245.584C249.291 246.804 249.645 247.239 249.757 248.602C246.116 248.602 240.706 249.616 237.151 250.218C227.549 251.843 217.839 254.426 208.5 257.147C206.573 257.709 204.776 258.375 203.021 258.788ZM193.674 198.429C193.704 198.795 197.83 219.442 198.566 225.936C198.949 229.313 200.043 237.501 200.034 240.676C200.027 243.473 200.412 245.126 200.404 248.225C200.398 250.991 200.404 253.758 200.404 256.524C187.114 259.648 134.626 280.48 125.637 284.451L110.433 291.41C109.131 291.876 109.129 291.98 108.195 291.487C107.807 291.283 106.888 290.563 106.4 290.259C98.7562 285.494 84.8643 275.484 78.4332 269.812L73.3764 265.483C72.5415 264.7 72.5265 264.656 71.5703 263.91C69.4 262.216 66.988 259.396 64.9615 257.375C58.1686 250.601 53.6287 239.659 57.9581 229.745C58.928 227.525 61.1552 223.072 62.9011 221.529C64.8002 219.851 87.4446 213.92 92.4433 212.858C114.038 208.272 124.418 206.202 146.959 202.977C150.727 202.438 154.358 202.156 158.315 201.609C160.457 201.313 161.946 201.24 164.07 201.002C170.557 200.275 187.676 198.429 193.674 198.429ZM1.8694 291.985C1.8694 279.848 9.80948 260.027 14.3673 248.386C15.7964 244.735 15.623 245.264 19.5157 242.641C21.4167 241.36 31.3145 235.072 32.902 234.644L25.6782 249.99C23.1134 255.161 20.7616 259.897 18.1957 265.075C16.8889 267.713 15.8277 270.028 14.455 272.618C12.9124 275.529 1.8694 297.694 1.8694 291.985ZM339.864 254.638C338.643 254.309 338.958 254.221 337.985 253.516L331.758 249.613C313.53 239.326 294.887 240.089 274.796 240.668C273.263 240.712 270.369 241.029 268.663 241.271L256.699 242.78C254.655 243.083 252.614 243.552 250.879 243.698C250.008 239.925 248.253 235.892 247.002 232.142C245.738 228.35 244.077 224.674 242.654 221.063L234.437 202.192C233.634 200.462 233.438 200.776 233.306 199.184C235.974 199.811 239.179 199.932 242.122 200.474L258.656 204.163C259.858 204.492 260.942 204.941 262.335 205.355C284.68 211.995 321.677 231.782 337.674 251.567C338.531 252.626 339.23 253.428 339.864 254.638ZM196.291 198.429L206.76 198.052C208.756 198.052 210.752 198.058 212.747 198.047L229.493 198.882C231.158 199.222 230.945 199.658 231.232 200.144L233.058 204.338C233.91 206.178 234.809 208.095 235.497 209.799C236.291 211.768 237.037 213.304 237.846 215.351C240.905 223.091 243.938 230.045 246.625 238.182C247.248 240.069 247.899 242.525 248.636 244.075C244.599 244.414 229.175 248.136 225.231 249.131L208.583 253.837C207.101 254.299 204.568 255.263 203.021 255.393C203.021 244.8 202.231 235.22 201.085 225.658L197.693 205.313C197.276 203.191 196.585 200.738 196.291 198.429ZM65.0563 219.177C66.0794 217.636 71.0918 213.476 72.7422 212.22C94.0794 195.986 124.636 190.623 150.248 186.302C162.874 184.171 174.155 182.962 188.44 182.962C189.741 182.962 189.954 185.059 190.36 186.306L192.722 194.512C193.221 196.338 193.824 197.23 191.486 197.335C184.49 197.65 178.351 198.362 171.628 198.82L162.105 199.774C158.759 200.25 156.057 200.446 152.759 200.907C128.072 204.351 105.652 207.733 81.5847 214.351L65.0563 219.177ZM36.267 231.626L41.3749 220.181C43.2935 216.372 44.7064 212.688 46.611 208.866C48.5048 205.066 50.1405 201.368 51.9705 197.675C53.8399 193.902 55.7093 190.13 57.5787 186.357C59.3803 182.722 61.0376 178.884 63.0282 175.257C65.0348 171.6 66.4946 167.772 68.5794 164.259C72.6718 157.364 78.7334 143.826 82.9311 136.866L87.365 128.891C88.3164 127.233 90.0743 125.625 91.0706 124.33C91.9186 123.229 92.0747 123.081 93.0104 122.138C93.9409 121.2 94.0634 120.804 94.8769 119.871C102.363 111.295 119.095 94.3199 126.266 88.9203C128.676 87.1058 138.935 79.1754 142.549 82.492C145.013 84.7542 145.059 86.2596 146.938 86.7657C148.074 85.9977 148.02 86.2905 148.06 84.5022C149.331 84.8449 151.523 87.2972 152.394 88.4283C153.1 89.3453 153.485 89.8863 154.155 90.8007C155.205 92.2317 158.397 97.5273 158.751 98.9896C159.05 100.223 159.103 101.273 159.364 102.521C159.606 103.679 159.989 104.977 160.348 106.056C161.714 110.168 163.273 114.487 165.131 118.205C166.164 120.273 167.006 121.901 168.007 123.98L181.552 161.619C182.401 163.87 183.149 165.902 183.897 167.93C184.729 170.188 185.419 171.97 186.253 174.229C186.984 176.209 187.916 178.429 188.44 180.699C163.696 180.699 125.59 187.49 101.745 195.459C95.6216 197.505 89.62 200.186 84.1249 202.956C79.0009 205.539 66.5076 213.689 62.233 219.347C60.7553 221.302 60.5663 220.786 58.2175 221.708C50.294 224.817 43.713 227.651 36.267 231.626ZM207.882 183.339C205.109 183.106 200.862 180.699 191.057 180.699C190.909 178.909 189.771 176.416 189.241 174.986L182.971 158.3C181.6 154.423 180.181 150.822 178.722 147.12L175.673 138.88C175.28 137.823 174.912 137.133 174.606 135.807C175.577 136.525 175.932 137.499 176.633 138.665C181.776 147.221 187.655 154.953 192.779 162.74L203.502 177.573C204.964 179.566 206.791 181.26 207.882 183.339ZM81.5075 135.807C81.0988 137.577 79.0834 140.689 78.018 142.849C76.7193 145.482 75.5897 147.366 74.2792 150.016L49.1087 200.446C47.8976 202.992 46.5937 205.18 45.5065 207.751L35.1413 229.736C32.9346 234.307 34.4572 232.423 29.7518 235.238C27.2696 236.723 25.3986 237.833 22.9651 239.33C21.7592 240.072 20.8819 240.755 19.7946 241.413C18.5272 242.18 17.6417 242.893 16.4512 243.698C16.9521 241.529 22.059 230.883 23.0609 228.864C23.7169 227.542 24.0777 226.423 24.6712 225.208C25.2868 223.946 25.937 222.708 26.5514 221.446L33.647 207.103C34.2806 205.813 34.8972 204.932 35.5242 203.715C39.1744 196.635 45.234 185.949 49.4291 179.643L55.8612 169.912C56.7278 168.658 57.2206 167.756 58.1106 166.523L71.7348 147.827C72.9948 146.12 80.4304 136.535 81.5075 135.807ZM91.9766 120.717L91.771 121.528L91.9766 120.717ZM160.772 96.9511C163.864 97.6779 167.388 101.062 169.588 103.523C175.724 110.392 176.206 111.55 181.623 118.164L195.096 136.259C196.578 138.455 198.042 140.528 199.6 142.654L211.976 161.855C218.716 173.742 222.377 181.152 228.201 193.394C228.889 194.84 229.251 195.982 229.941 197.297C227.609 197.297 226.473 197.089 224.687 196.94C222.811 196.783 220.625 196.99 218.712 196.932L207.508 196.543C203.151 196.543 200.232 196.92 195.917 196.92L194.094 190.084C193.579 188.318 192.316 184.628 192.178 182.962C198.226 182.962 208.667 185.61 212.061 188.176L218.457 194.177C221.492 196.662 224.1 194.579 219.384 190.219C216.672 187.71 215.029 187.078 212.001 185.219C210.755 184.454 209.966 183.124 208.92 181.914C204.179 176.427 199.313 169.655 195.167 163.726C190.3 156.765 173.725 133.413 171.007 125.103C169.903 121.726 168.925 118.779 167.832 115.48L160.772 96.9511ZM91.9766 120.717L95.8308 113.666C97.2661 111.076 98.556 109.107 99.9565 106.512C103.584 99.7872 122.862 66.8781 125.252 65.2629C125.072 67.4508 124.055 68.3144 124.582 71.5959C125.457 77.0474 132.316 76.2294 136.213 77.9696C137.426 78.5113 137.582 78.9162 138.712 79.2207C137.559 80.8097 136.528 79.4516 131.453 82.836L122.203 89.7242C118.886 92.4241 109.067 102.538 105.338 106.282C102.167 109.465 94.5946 118.948 91.9766 120.717ZM123.757 43.3829C123.757 41.2901 123.632 40.6912 124.505 38.8559C125.983 39.8544 131.753 47.1817 132.357 49.7961C126.56 51.1584 123.757 47.3201 123.757 43.3829ZM109.175 43.7601L108.802 43.3829L109.175 43.7601ZM108.802 43.3829L108.427 43.0056L108.802 43.3829ZM108.427 43.0056L108.054 42.6284L108.427 43.0056ZM108.054 42.6284L107.68 42.2511L108.054 42.6284ZM107.68 42.2511L107.306 41.8739L107.68 42.2511ZM107.306 41.8739L106.932 41.4966L107.306 41.8739ZM106.932 41.4966L106.558 41.1194L106.932 41.4966ZM95.3413 30.1795C97.6184 31.7178 105.092 38.9105 106.558 41.1194C104.795 40.6445 99.9675 34.74 97.9586 33.1975C96.9242 32.4029 95.7252 31.6293 95.3413 30.1795ZM94.2198 29.0478L95.3413 30.1795C94.215 29.8759 94.5207 30.1841 94.2198 29.0478ZM94.2198 29.0478L93.846 28.6705L94.2198 29.0478ZM85.6204 12.8261C91.7856 12.8261 101.799 19.9695 106.238 23.3345C107.738 24.4718 109.029 25.3575 110.569 26.51C112.085 27.6444 113.358 28.6942 114.79 29.7953L118.801 33.2939C120.129 34.6568 121.61 35.4251 122.635 36.9696L121.887 43.0056C121.887 56.105 146.134 56.6027 128.343 38.7562C127.327 37.737 126.384 36.9789 125.627 35.8379C126.146 33.8744 138.217 14.1272 141.081 8.42608C141.682 7.23119 142.709 5.1657 143.573 4.52698C143.573 17.8149 144.695 28.8129 144.695 42.2511C144.695 43.7568 144.662 45.2928 144.68 46.7929C144.706 48.8883 145.058 49.1945 145.084 51.2899C145.103 52.9233 145.034 54.5908 145.054 56.2241C145.079 58.3192 145.432 58.6257 145.457 60.7208C145.54 67.4373 145.817 73.0858 145.817 79.9753C140.289 79.5112 140.329 77.4608 135.833 75.7127C133.105 74.6513 126.374 74.8638 126.374 70.5444C126.374 67.358 128.168 66.665 127.496 63.7539C128.902 64.7038 129.204 66.0174 130.861 66.0174C135.048 66.0174 127.212 59.4989 126.279 58.5685L106.037 37.118L87.5668 20.6707C85.8541 19.1887 85.7551 19.2324 84.9126 16.9301C84.4312 15.6148 83.4998 12.8261 85.6204 12.8261ZM124.131 34.3289L107.007 21.0502C103.925 18.9831 86.5845 5.48143 82.5546 12.3995C81.7291 13.8167 82.2554 14.3427 82.2554 16.2213L71.8919 8.57046C69.9551 7.10685 64.5955 3.53238 62.1965 2.50852C61.2882 2.12075 60.9225 2.26348 59.8223 2.26348C59.878 4.79897 62.1069 4.93316 64.061 5.90868C69.1556 8.45173 73.5557 12.1811 78.0359 15.5744C79.6684 16.8104 80.8508 17.7507 82.4679 19.0249L86.314 23.0664C92.2748 31.1586 102.645 40.179 110.012 47.0655L118.242 54.6056C120.86 57.2473 124.329 59.5407 126.374 62.6222C122.394 62.7116 119.222 70.0468 117.519 72.9269L92.5649 116.03C87.6636 124.368 87.748 126.086 81.0506 133.837C75.0135 140.823 69.4962 148.449 63.9887 155.855L56.0261 167.061C50.4541 174.63 39.7157 192.18 35.6396 200.437C30.8657 210.107 25.5573 219.695 21.0605 229.487L14.951 242.939C13.4636 246.343 13.1953 246.018 10.2423 247.996L6.02929 250.913C5.1891 251.509 5.16497 251.224 4.86057 252.375C6.47414 252.338 6.13586 252.29 7.07577 251.592C8.92399 250.217 10.7794 248.092 13.0862 247.47C10.1452 253.078 7.75235 261.301 5.56062 267.416C2.63658 275.576 0 283.768 0 292.74C0 296.025 2.84876 296.312 4.39421 294.532C6.30208 292.336 7.92573 289.588 9.22708 286.96L13.4173 278.738C18.6096 267.745 24.3404 256.886 29.4145 245.837L33.281 237.29C34.1945 235.217 34.6684 233.517 36.7503 232.491C40.4686 230.658 43.7303 228.908 47.6392 227.256C51.5155 225.618 55.3753 223.53 59.4481 222.572C59.1027 223.878 56.9657 227.121 56.1864 229.09C52.9094 237.373 54.1648 245.779 59.0707 252.756C59.8777 253.903 61.018 255.531 61.9739 256.616C66.533 261.793 72.284 267.032 77.7622 271.243C86.6754 278.096 95.3902 285.429 105.082 291.211L106.698 292.221C107.594 292.905 106.734 292.238 107.306 292.74C103.854 293.551 84.8891 301.345 82.5015 302.419C78.4674 304.233 68.5585 308.366 66.9238 312.774C65.4357 316.787 70.6108 317.134 73.2819 316.505C73.2819 319.95 72.6311 321.936 75.8289 324.499C91.6139 337.151 153.83 327.953 171.454 325.021C180.455 323.523 188.908 321.346 197.444 319.555C201.82 318.636 205.684 317.435 209.974 316.353L222.23 312.875C230.167 310.267 237.73 307.791 245.281 304.444C255.651 299.849 261.709 297.075 271.422 291.21C281.747 284.975 308.588 268.715 294.913 255.101C288.285 248.503 274.095 247.334 264.324 247.455C262.396 247.479 262.265 247.759 260.602 247.85C259.271 247.922 257.815 247.795 256.475 247.835C254.568 247.892 254.423 248.225 252.375 248.225C251.934 247.298 251.657 246.592 251.627 245.207C256.224 244.126 261.318 243.886 266.472 243.209C279.479 241.501 297.094 241.439 309.927 244.102C318.896 245.963 327.883 249.385 335.223 254.795C336.674 255.865 344.962 262.56 345.846 262.56C349.494 262.56 343.38 255.6 342.781 254.713C339.921 250.471 336.354 245.939 332.229 242.725C330.864 241.662 330.484 241.051 329.285 240.037L323.301 235.135C318.086 230.875 312.12 227.445 306.332 223.962C303.876 222.484 301.742 221.236 299.226 219.816L288.395 214.145C287.005 213.438 285.803 213.03 284.523 212.392C274.165 207.228 263.132 203.448 251.627 200.692C248.631 199.975 245.188 199.425 242.174 198.913C239.296 198.425 235.164 197.675 232.185 197.675C231.991 195.333 226.533 185.138 225.455 182.962C221.856 175.7 218.275 168.791 214.167 161.908L210.054 155.119C204.495 146.383 198.448 137.943 192.285 129.663C191.429 128.513 190.923 127.812 190.089 126.598C184.933 119.085 178.875 112.239 173.327 105.032C171.83 103.088 164.455 95.0649 161.52 95.0649C160.51 95.0649 160.489 95.2451 159.65 95.4421C157.38 91.1138 154.635 87.0137 151.152 83.6458C149.06 81.6234 148.602 82.9189 148.409 79.2458C148.207 75.4154 147.646 70.3766 147.688 66.392C147.718 63.6487 147.287 62.6291 147.304 59.9897C147.337 54.6533 146.556 46.2311 146.564 39.9876C146.569 35.5107 146.989 30.5189 146.348 26.2479C146.019 24.0541 146.377 21.8403 146.136 19.6718C145.682 15.5974 145.815 10.3709 145.817 6.03597C145.817 4.88942 145.84 3.75012 145.849 2.60818C145.862 0.856793 146.021 0 144.321 0C142.249 0 135.256 14.3732 133.98 16.7282C130.766 22.6618 127.021 28.2508 124.131 34.3289Z" fill="#FEFEFE"/>
</svg>
