<svg xmlns="http://www.w3.org/2000/svg" width="347" height="331" fill="none" xmlns:v="https://vecta.io/nano"><path fill-rule="evenodd" d="M92.35 300.66c-.822 1.132-11.037 6.436-16.17 11.98-2.78 3.003-2.484 1.98-7.012 1.6.13-1.577.753-1.744 1.767-2.743 2.303-2.27 5.516-3.95 8.452-5.43 2.237-1.13 10.725-5.22 12.962-5.408zM77.77 313.865c2.898-4.366 15.375-11.45 20.31-14.215 14.585-8.173 9.23-6.226 19.696-.874 1.397.715 1.748.575 2.618 1.885-7.84 1.844-35.25 13.038-42.623 13.204zm15.33-13.58l-.748.377.748-.377zm0 0l.73-.434-.73.434zm1.122-.754l.11.112c-.007-.007-.15-.075-.11-.112zm64.31 12.072c-6.79 0-13.294-2.105-18.56-3.9l-14.6-6.405c-.75-.453-.38-.2-.875-.626l17.122-4.98c10.16-2.812 25.43-6.223 35.874-8.32l18.416-3.675c-1.052 4.556-5.654 11.75-8.857 15.584-7.362 8.81-16.612 12.332-28.53 12.332zm-19.07-31.69l.112.113c-.008-.008-.15-.075-.112-.113zm.748-.377c.398-.4 1.418.6.416.196-.008-.003-1.042.436-.416-.196zm1.87-.377l-.73.434.73-.434zm1.122-.377c-.412.385.654.377-1.122.377.413-.386-.654-.377 1.122-.377zm.748-.378l-.748.378.748-.378zm1.122-.377c-.413.386.654.377-1.122.377.412-.385-.654-.377 1.122-.377zm0 0c.77-.676.562-.645 1.87-.754-.77.676-.563.644-1.87.754zm54.213 3.395c.313-1.35.746-2.408 1.124-3.77 1.063-3.833 2.143-9.236 2.24-13.206.13-5.328-.125-3.532 13.13-7.5 5.687-1.702 28.12-6.46 34.727-6.46.122 1.48.767 3.487 1.122 4.904 1.076 4.296 2.243 11.403 2.243 15.845 0 2.96-.86 4.096-3.03 4.866-1.913.68-4.82.962-7.085 1.15-5.19.43-10.522-.008-15.664.417l-28.8 3.752zM111.42 292.74l5.45-2.046c5.515-2.11 10.3-4.328 16.19-6.3 3.583-1.2 7.377-2.865 10.935-4.057l11.013-3.978c3.764-1.466 7.3-2.688 11.05-3.94 7.83-2.615 14.43-5.024 22.598-7.378 1.986-.572 3.848-1.136 5.718-1.776 1.65-.563 4.282-1.425 6.03-1.837 0 4.578-1.062 10.61-2.035 14.546-1.978 8.007-1.52 5.86-9.33 7.56-20.997 4.575-43.97 8.974-64.214 15.582-2.484.81-1.807 1.04-5.712-1.314-1.024-.618-1.648-.834-2.675-1.45-2.15-1.3-4.634-2.16-5.018-3.612zm35.52-15.467c1.002-.88 4.837-2.097 6.302-2.696 6.205-2.532 43.957-16.472 47.164-16.544v1.51c-5.617 1.32-27.085 8.685-33.417 10.798-3.326 1.11-18.19 6.776-20.05 6.933zm106.184-27.162c10.842 0 21.934-1.565 32.27 2.526l3.65 1.598c4.405 2.483 7.08 4.218 7.08 9.834 0 8.45-16.104 19.145-22.507 23.315-8.612 5.61-10.737 6.616-19.37 11.013-3.356 1.71-7.017 3.393-10.52 4.852-29.158 12.142-67.127 21.125-98.314 24.162-17.132 1.668-23.45 1.92-40.346 1.92-8.568 0-29.91-2.86-29.91-9.81l.374-3.018 11.06-2.8c3.828-1.09 6.818-2.154 10.486-3.378 7.013-2.34 13.448-4.9 20.47-7.26 8.036-2.7 3.61-1.35 19.41 5.03 12.53 5.06 23.925 7.638 37.425 2.895 8.095-2.844 14.257-8.892 18.623-15.916 1.648-2.65 4.84-8.756 5.536-11.77 4.643-1.09 9.8-1.593 14.89-2.33l3.64-.478 12.126-.97c5.793.033 10.74-.404 16.834-.367 14.393.087 10.9-10.87 8.063-23.99-.404-1.87-.964-3.017-.964-5.064zm-50.1 8.677c0-1.845-.243-1.698 1.124-2.262l20.486-5.736c3.733-.942 7.703-1.964 11.82-2.786l12.558-2.42c.28 1.22.635 1.655.747 3.018-3.64 0-9.05 1.014-12.606 1.616-9.602 1.625-19.312 4.208-28.65 6.93-1.927.562-3.724 1.228-5.48 1.64zm-9.347-60.36c.03.366 4.156 21.013 4.892 27.507.383 3.377 1.477 11.565 1.468 14.74-.007 2.797.378 4.45.37 7.55v8.3c-13.3 3.124-65.778 23.956-74.767 27.927l-15.204 6.96c-1.302.466-1.304.57-2.238.077-.388-.204-1.307-.924-1.795-1.228-7.644-4.765-21.536-14.775-27.967-20.447l-5.057-4.33c-.835-.783-.85-.827-1.806-1.573-2.17-1.694-4.582-4.514-6.61-6.535-6.793-6.774-11.333-17.716-7.003-27.63.97-2.22 3.197-6.673 4.943-8.216 1.9-1.678 24.543-7.61 29.542-8.67 21.595-4.586 31.975-6.656 54.516-9.88 3.768-.54 7.4-.82 11.356-1.368 2.142-.296 3.63-.37 5.755-.607 6.487-.727 23.606-2.573 29.604-2.573zM1.87 291.985c0-12.137 7.94-31.958 12.498-43.6 1.43-3.65 1.256-3.122 5.148-5.745 1.9-1.28 11.8-7.57 13.386-7.997L25.678 250l-11.223 22.628c-1.543 2.91-12.586 25.076-12.586 19.367zm337.995-37.347c-1.22-.33-.906-.417-1.88-1.122l-6.227-3.903c-18.228-10.287-36.87-9.524-56.962-8.945-1.533.044-4.427.36-6.133.603l-11.964 1.51c-2.044.303-4.085.772-5.82.918-.87-3.773-2.626-7.806-3.877-11.556-1.264-3.792-2.925-7.468-4.348-11.08l-8.217-18.87c-.803-1.73-1-1.416-1.13-3.008 2.668.627 5.873.748 8.816 1.3l16.534 3.69c1.202.33 2.286.778 3.68 1.192 22.345 6.64 59.342 26.427 75.34 46.212.857 1.06 1.556 1.86 2.2 3.07zM196.29 198.43l10.47-.377 5.987-.005 16.746.835c1.665.34 1.452.776 1.74 1.262l1.826 4.194c.852 1.84 1.75 3.757 2.44 5.46.794 1.97 1.54 3.505 2.35 5.552 3.06 7.74 6.092 14.694 8.78 22.83.623 1.887 1.274 4.343 2.01 5.893-4.037.34-19.46 4.06-23.405 5.056l-16.648 4.706c-1.482.462-4.015 1.426-5.562 1.556 0-10.593-.8-20.173-1.936-29.735l-3.392-20.345c-.417-2.122-1.108-4.575-1.402-6.884zM65.056 219.177c1.023-1.54 6.036-5.7 7.686-6.957 21.337-16.234 51.894-21.597 77.506-25.918 12.626-2.13 23.907-3.34 38.192-3.34 1.3 0 1.514 2.097 1.92 3.344l2.362 8.206c.5 1.826 1.102 2.718-1.236 2.823-6.996.315-13.135 1.027-19.858 1.485l-9.523.954c-3.346.476-6.048.672-9.346 1.133-24.687 3.444-47.107 6.826-71.174 13.444l-16.528 4.826zm-28.79 12.45l5.108-11.445c1.92-3.81 3.332-7.493 5.236-11.315 1.894-3.8 3.53-7.498 5.36-11.19l5.608-11.318c1.802-3.635 3.46-7.473 5.45-11.1 2.007-3.657 3.466-7.485 5.55-10.998 4.092-6.895 10.154-20.433 14.352-27.393l4.434-7.975c.95-1.658 2.71-3.266 3.706-4.56.848-1.1 1.004-1.25 1.94-2.192.93-.938 1.053-1.334 1.867-2.267 7.486-8.576 24.218-25.55 31.39-30.95 2.4-1.814 12.67-9.745 16.283-6.428 2.464 2.262 2.5 3.768 4.39 4.274 1.136-.768 1.082-.475 1.122-2.263 1.27.343 3.463 2.795 4.334 3.926.706.917 1.09 1.458 1.76 2.372 1.05 1.43 4.242 6.727 4.596 8.19.3 1.233.352 2.283.613 3.53.242 1.158.625 2.456.984 3.535 1.366 4.112 2.925 8.43 4.783 12.15l2.876 5.775 13.545 37.64 2.345 6.31 2.356 6.3c.73 1.98 1.663 4.2 2.187 6.47-24.744 0-62.85 6.79-86.695 14.76-6.123 2.046-12.125 4.727-17.62 7.497-5.124 2.583-17.617 10.733-21.892 16.39-1.478 1.955-1.667 1.44-4.015 2.36-7.924 3.11-14.504 5.943-21.95 9.918zm171.615-48.287c-2.773-.233-7.02-2.64-16.825-2.64-.148-1.8-1.286-4.283-1.816-5.713l-6.27-16.686c-1.37-3.877-2.8-7.478-4.25-11.18l-3.05-8.24c-.393-1.057-.76-1.747-1.067-3.073.97.718 1.326 1.692 2.027 2.858 5.143 8.556 11.022 16.288 16.146 24.075l10.723 14.833c1.462 1.993 3.29 3.687 4.38 5.766zM81.508 135.807c-.41 1.77-2.424 4.882-3.49 7.042-1.3 2.633-2.428 4.517-3.74 7.167l-25.17 50.43c-1.21 2.546-2.515 4.734-3.602 7.305L35.14 229.736c-2.207 4.57-.684 2.687-5.4 5.502l-6.787 4.092c-1.206.742-2.083 1.425-3.17 2.083-1.267.767-2.153 1.48-3.343 2.285.5-2.17 5.608-12.815 6.6-14.834.656-1.322 1.017-2.44 1.6-3.656l1.88-3.762 7.096-14.343c.634-1.3 1.25-2.17 1.877-3.388 3.65-7.08 9.7-17.766 13.905-24.072l6.432-9.73c.867-1.254 1.36-2.156 2.25-3.39l13.624-18.696c1.26-1.707 8.696-11.292 9.773-12.02zm10.47-15.1l-.206.81.206-.81zm68.795-23.766c3.092.727 6.616 4.11 8.816 6.572 6.136 6.87 6.618 8.027 12.035 14.64l13.473 18.095c1.482 2.196 2.946 4.27 4.504 6.395l12.376 19.2c6.74 11.887 10.4 19.297 16.225 31.54.688 1.446 1.05 2.588 1.74 3.903-2.332 0-3.468-.208-5.254-.357-1.876-.157-4.062.05-5.975-.008l-11.204-.39c-4.357 0-7.276.377-11.59.377l-1.823-6.836c-.515-1.766-1.778-5.456-1.916-7.122 6.048 0 16.49 2.648 19.883 5.214l6.396 6c3.035 2.485 5.643.402.927-3.958-2.712-2.51-4.355-3.14-7.383-5-1.246-.765-2.035-2.095-3.08-3.305-4.74-5.487-9.607-12.26-13.753-18.188-4.867-6.96-21.442-30.313-24.16-38.623l-3.175-9.623-7.06-18.53zm-68.795 23.766l3.854-7.05c1.435-2.6 2.725-4.56 4.126-7.154 3.627-6.725 22.905-39.634 25.295-41.25-.18 2.188-1.197 3.052-.67 6.333.875 5.45 7.734 4.633 11.63 6.374 1.213.542 1.37.947 2.5 1.25-1.153 1.59-2.184.23-7.26 3.615l-9.25 6.888c-3.317 2.7-13.136 12.814-16.865 16.558-3.17 3.183-10.743 12.666-13.36 14.435zm31.78-77.334c0-2.093-.125-2.692.748-4.527 1.478 1 7.248 8.326 7.852 10.94-5.797 1.362-8.6-2.476-8.6-6.413zm-14.582.377l-.373-.377.373.377zm-.373-.377l-.375-.377.375.377zm-.375-.377l-.373-.377.373.377zm-.373-.377l-.374-.377.374.377zm-.374-.377l-.374-.377.374.377zm-.374-.377l-.374-.377.374.377zm-.374-.377l-.374-.377.374.377zM95.34 30.18c2.277 1.538 9.75 8.73 11.217 10.94-1.763-.475-6.59-6.38-8.6-7.922-1.034-.795-2.233-1.568-2.617-3.018zm-1.12-1.132l1.12 1.132c-1.126-.304-.82.005-1.12-1.132zm0 0l-.374-.377.374.377zm-8.6-16.222c6.165 0 16.18 7.143 20.618 10.508 1.5 1.137 2.79 2.023 4.33 3.176 1.516 1.134 2.79 2.184 4.22 3.285l4.01 3.5c1.328 1.363 2.81 2.13 3.834 3.676l-.748 6.036c0 13.1 24.247 13.597 6.456-4.25-1.016-1.02-1.96-1.777-2.716-2.918.52-1.963 12.6-21.71 15.454-27.412.6-1.195 1.628-3.26 2.492-3.9 0 13.288 1.122 24.286 1.122 37.724l-.015 4.542c.026 2.095.378 2.402.404 4.497.02 1.633-.05 3.3-.03 4.934.025 2.095.378 2.402.403 4.497l.36 19.255c-5.528-.464-5.488-2.514-9.984-4.263-2.728-1.06-9.46-.85-9.46-5.168 0-3.186 1.794-3.88 1.122-6.8 1.406.95 1.708 2.263 3.365 2.263 4.187 0-3.65-6.518-4.582-7.45l-20.242-21.45-18.47-16.447c-1.713-1.482-1.812-1.438-2.654-3.74-.48-1.315-1.413-4.104.708-4.104zm38.51 21.503l-17.124-13.28c-3.082-2.067-20.422-15.57-24.452-8.65-.825 1.417-.3 1.943-.3 3.822L71.892 8.57c-1.937-1.464-7.296-5.038-9.695-6.062-.908-.388-1.274-.245-2.374-.245.056 2.535 2.285 2.67 4.24 3.645 5.095 2.543 9.495 6.272 13.975 9.666l4.432 3.45 3.846 4.042c5.96 8.092 16.33 17.113 23.698 24l8.23 7.54c2.618 2.642 6.087 4.935 8.132 8.017-3.98.09-7.152 7.425-8.855 10.305L92.565 116.03c-4.9 8.338-4.817 10.056-11.514 17.807-6.037 6.986-11.554 14.612-17.062 22.018l-7.963 11.206c-5.572 7.57-16.3 25.12-20.386 33.376-4.774 9.67-10.082 19.258-14.58 29.05l-6.1 13.452c-1.487 3.404-1.756 3.08-4.71 5.057l-4.213 2.917c-.84.596-.864.31-1.17 1.462 1.614-.037 1.275-.085 2.215-.783 1.848-1.375 3.704-3.5 6-4.122-2.94 5.608-5.334 13.83-7.526 19.946C2.637 275.576 0 283.768 0 292.74c0 3.285 2.85 3.572 4.394 1.792 1.908-2.196 3.532-4.944 4.833-7.572l4.2-8.222 15.997-32.9 3.866-8.547c.913-2.073 1.387-3.773 3.47-4.8 3.718-1.833 6.98-3.583 10.89-5.235 3.876-1.638 7.736-3.726 11.81-4.684-.345 1.306-2.482 4.55-3.262 6.518-3.277 8.283-2.022 16.69 2.884 23.666.807 1.147 1.947 2.775 2.903 3.86 4.56 5.177 10.3 10.416 15.788 14.627 8.913 6.853 17.628 14.186 27.32 19.968l1.616 1c.896.684.036.017.608.52-3.452.81-22.417 8.605-24.805 9.68-4.034 1.814-13.943 5.947-15.578 10.355-1.488 4.013 3.687 4.36 6.358 3.73 0 3.445-.65 5.43 2.547 7.994 15.785 12.652 78 3.454 95.625.522 9-1.498 17.454-3.675 26-5.466 4.376-.92 8.24-2.12 12.53-3.202l12.256-3.478c7.937-2.608 15.5-5.084 23.05-8.43 10.37-4.595 16.428-7.37 26.14-13.234 10.325-6.235 37.166-22.495 23.49-36.11-6.628-6.598-20.818-7.767-30.59-7.646-1.928.024-2.06.304-3.722.395-1.33.072-2.787-.055-4.127-.015-1.907.057-2.052.4-4.1.4-.44-.927-.718-1.633-.748-3.018 4.597-1.08 9.69-1.32 14.845-1.998 13.007-1.708 30.622-1.77 43.455.893 8.97 1.86 17.956 5.283 25.296 10.693 1.45 1.07 9.74 7.765 10.623 7.765 3.648 0-2.466-6.96-3.065-7.847-2.86-4.242-6.427-8.774-10.552-11.988-1.365-1.063-1.745-1.674-2.944-2.688l-5.984-4.902c-5.215-4.26-11.18-7.7-16.97-11.173l-7.106-4.146-10.83-5.67c-1.4-.707-2.592-1.115-3.872-1.753-10.358-5.164-21.39-8.944-32.896-11.7-2.996-.717-6.44-1.267-9.453-1.78-2.878-.488-7-1.238-9.99-1.238-.194-2.342-5.652-12.537-6.73-14.713-3.6-7.262-7.18-14.17-11.288-21.054l-4.113-6.79c-5.56-8.736-11.606-17.176-17.77-25.456a85.92 85.92 0 0 1-2.196-3.065c-5.156-7.513-11.214-14.36-16.762-21.566-1.497-1.944-8.872-9.967-11.807-9.967-1 0-1.03.18-1.87.377-2.27-4.328-5.015-8.428-8.498-11.796-2.092-2.022-2.55-.727-2.743-4.4-.202-3.83-.763-8.87-.72-12.854.03-2.743-.4-3.763-.384-6.402.033-5.336-.748-13.76-.74-20.002.005-4.477.425-9.47-.216-13.74-.33-2.194.03-4.408-.212-6.576-.454-4.074-.32-9.3-.32-13.636l.032-3.428C145.862.857 146.02 0 144.32 0c-2.072 0-9.065 14.373-10.34 16.728-3.214 5.934-6.96 11.523-9.85 17.6z" fill="#fefefe"/></svg>