<svg xmlns="http://www.w3.org/2000/svg" width="214" height="331" fill="none" xmlns:v="https://vecta.io/nano"><path fill-rule="evenodd" d="M129.938 286.3c5.074 0 3.192-1.826 4.984 10.963 1.18 8.422 4.448 23.84 8.38 31.358-1.89 0-4.55-1-6.327-1.427-2.194-.54-4.334-.948-6.617-1.49-23.292-5.514-56.7-17.395-78.164-17.345l-7.727-.366h-8.1c1.13-4.285 5.344-4.373 8.864-5.263l22.48-6.43c17.855-5.355 43.528-10 62.214-10zm-95.67 21.338H23.365c1.298-1.14 4.383-1.22 5.886-1.517l6.425-.972c-.273 1.035-.83 1.385-1.407 2.49zm5.628-4.98c1.225-2.34 2.675-4.52 4.074-6.906 1.82-3.103 5.643-11.54 7.28-15.4 4.875-11.502 8.147-21.82 12.416-32.967 3.512-9.17.028-6.318 11.353-10.926l48.6-19.153c1.407-.565 2.475-1.08 3.97-1.677 1.248-.5 2.892-1.42 4.12-1.524 0 15.25-.517 38.625.685 53.364l.363 8.525c-.012 2.74.71 5.95.71 8.528-2.63 0-4.14.343-6.317.37-14.494.177-29.245 2.804-43.074 5.88-15.535 3.456-28.982 8.3-44.168 11.887zm-21.455 5.7c1.796 1.217 3.21.695 6.695.7 2.475.003 4.444.367 7.374.367-1.392 2.1-5.202 5.23-7.45 6.692-9.336 6.072-23.5 4.152-23.5-2.424 0-4.4 12.28-17.084 15.874-21.647 13.052-16.57 18.275-25.346 29.15-42.72 1.434-2.3 11.454-5.712 14.27-6.91 1.21-.514 1.726-.984 2.96-1.275-1.508 6.546-12.595 33.78-15.42 40.954-2.928 7.433-5.91 12.005-9.44 18.55-1.918 3.558-3.093 2.856-10.114 4-2.176.354-3.92.59-6.033 1.012-2.182.436-4.18.46-4.364 2.7zm114.662-94.955c3.586-1.92 19.53-8.293 23.77-9.396 4.74-1.233 7.378-.417 9.644-1.63l19.998 58.375c3.406 8.625 9.493 20.987 14.32 28.91l.815 1.3c.587.906.433.207.743 1.383-3.784-.32-18.495-7.824-37.986-7.824h-29.193l-1.067-12.436c-.244-8.618-.692-13.166-.692-22.417l-.352-36.275zm0-1.78c1.064-4.615.352-22.45.352-28.806 0-5.06.376-9 .347-14.23l1.263-27.885c.808-5.398.852-36.747.852-42.882.99 1.44 4.17 15.9 4.425 17.22 1.642 8.487 3.793 17.877 6.168 26.127 4.043 14.04 8.507 27.573 13.105 41.518.938 2.845 4.045 13.93 4.523 17.205.394 2.696-1.353.29-7.604 2.352-6.026 1.986-22.008 9.264-23.43 9.383zm25.324-37.697c0-.9.557-.057.21 0-.004 0-.21.992-.21 0zm-71.75-5.69c-.192 2.325-5.436 18.537-6.48 22.256-2.938 10.474-7.38 23.013-10.403 33.224-1.044 3.526-2.43 7.192-3.65 10.89-2.092 6.348-1.008 4.803-12.228 9.33-1.708.69-3.727 1.383-5.225 2.185L62.52 220.6c.51-.923.868-1.74 1.294-2.603l20.553-44.656c.382-.973.614-1.6 1.02-2.524l1.288-2.6zm0 0l.193-.764-.193.764zm11.96-35.563l.105.106c-.007-.007-.14-.07-.105-.106zm.35-1.067c0-.9.557-.058.21 0-.004 0-.21.992-.21 0zm.704-1.78c0 1.815.005.6-.352 1.067 0-1.88.003-.53.352-1.067zM26.882 251.793c0-2.697 3.044-6.97 4.287-8.825 1.817-2.7 3.772-5.063 5.63-7.82 1.8-2.67 3.628-4.95 5.42-7.68 6.906-10.517 11.413-17.312 18-28.378l12.093-21.203c.896-1.488 1.458-2.84 2.272-4.46l6.688-13.153c1.558-3.124 2.664-6.122 4.222-9.245.717-1.437 1.347-2.928 1.975-4.404l2.015-4.72 11.953-28.457c-.034 1.547-.7 4.083-.965 5.426-1.715 8.715-4.5 18.164-6.925 26.783-.537 1.91-1.048 3.535-1.565 5.175-.582 1.848-.9 3.31-1.596 5.144L65.572 211.96l-4.455 9-4.572 8.89c-1.514 3.118-3.273 5.59-4.81 8.652-.74 1.476-4.144 7.672-5.147 8.3-1.09.694-19.707 8.64-19.707 4.97zm74.566-139.055l.105.106c-.007-.007-.14-.07-.105-.106zm4.572-16.715l.105.106c-.007-.007-.14-.07-.105-.106zm.704-1.778c0 1.815.005.6-.352 1.067 0-1.88.003-.53.352-1.067zm0 0c0-2.788 3.165-14.205 3.165-16.715h.352c0 4.566-1.208 8.42-2.25 12.663l-1.155 3.812c-.022.053-.066.166-.113.24zm2.1-23.117c.408-.412 2.005.602.44.145-.042-.012-1.05.472-.44-.145zm10.552-1.067c.65 1.243 1.108 1.602 1.76 2.845-1.695-.4-2.534-1.298-4.573-1.778.607-.838 1.492-.956 2.814-1.067zm13.014-2.134c1.94.163 1.292.404 1.49 2.406.118 1.2.285 1.934.278 3.63l-.01 7.832h-.35c0-3.32-1.407-9.148-1.407-13.87zm-19.345 2.134c-.99 0-.652-.154-1.055-.71 1.995-.47 3.2-1.96 5.276-2.134.348 1.32.355.46.703 1.778-1.814.153-2.883 1.067-4.924 1.067zm7.034-1.778c-.728-1.1-1.052-.8-1.407-2.134l10.552-4.98c.344 1.492.704 3.145.704 4.98-2.81 0-7.296 1.533-9.85 2.134zm-17.938 1.423c1.148-1.583 9.502-5.467 11.96-6.046.656.486 1.517 1.573 1.76 2.49-1.772.418-4.055 1.855-5.736 2.736-1.355.7-1.423.832-3.4.84-1.525.006-3.064-.02-4.592-.02zm29.194-9.602c1.044-.56 2.12-.864 3.165-1.423l.704 8.18c-1.62-.382-.96-.71-3.166-.71 0-2.298-.648-3.994-.703-6.046zm4.924-2.134c.907.672.523-.424.998 3.26l1.564 11.222c3.245 24.735 11.737 59.417 16.988 85.958l1.507 12-.965-2.936c-.672-2.017-1.182-3.948-1.848-5.956-3.797-11.46-7.586-24.542-10.292-36.538-2.608-11.56-4.198-20.25-7.397-31.64-1.357-4.83-.92-9.017-.906-14.732.007-3.142-.353-4.806-.353-7.824l.935-.202c1.874-1-.096-7.653-.23-12.6zm-18.993 7.113l-1.407-2.134c2.032-.986 4.57-1.656 6.725-2.447l4.98-1.762c1.244-.395.45-.625 1.66-.06-.348 1.32-1.262 1.367-2.578 2.017l-3.044 1.545-6.336 2.84zm14.07-6.757v-1.067c1.355-.32 1.972-.786 3.165-1.067-.335 1.27-1.535 1.75-3.165 2.134zm4.924-2.49c-.126-.673.443-1.265.222-.225-.005.024.01 1.466-.222.225zm1.758-.356c0-1.58-.182-2.075.352-3.2 1.263.855 1.056 1.147 1.76 2.5-.823.44-.916.61-2.11.71zM89.49 29.162c1.96.53 14.39 11.772 32.95 2.375l9.6-4.865c0 2.617.144 4.52.45 7.012.257 2.078.404 4.305.66 6.8.47 4.57 1 8.642 1 13.926-.86.46-1.613.655-2.462 1.067 0-1.445.118-1.145-.35-2.134-3.222.073-1.685 1.856-2.806 3.21l-9.02 3.327c-1.758.582-3.06 1.255-4.706 1.643L89.49 29.162zm43.614-3.2c.834-.446 1.434-.825 2.462-1.067 0 8.283 3.034 21.015 1.668 24.802L136 52.552c-.51-1.146-.403-1.252-.438-2.402-.054-1.774-.202-1.998-.338-3.57l-2.12-20.617zm-.352-3.556V10.67c0-3.113.704-5.21.704-7.824h.352c0 3.346 1.407 16.057 1.407 20.27-1.306.698-2.463 1.893-2.463-.71zM66.98 238.278l12.085-38.28 12.964-43.795c3.044-11.06 8.53-23.47 11.253-33.432.413-1.51.93-2.88 1.41-4.62l4.147-15.012c1.177-4.497 3.177-13.178 4.85-17.532.504-1.313.706-1.052.072-2.387-1.34.36-1.238.45-1.57 1.968-1.96 8.938-7.754 30.788-10.432 38.886-.564 1.703-1.2 4.5-2.066 5.735l4.268-21.3a42.98 42.98 0 0 1 1.756-7.115c2.485-7.52 5.24-15.78 5.975-23.852.2-2.205.6-1.664-.392-3.578-2.683.06-2.768 2.97-3.308 5.546l-4.53 23.16c-1.404 8.59-14.24 38.924-19.24 49.184-.508 1.042-1.02 1.926-1.514 3.093-2.692 6.38-6.02 12.443-9.043 18.596-2.966 6.035-6.29 11.714-9.737 17.54l-14.04 22.79-3.658 5.547L31 240.665c-12.82 17.366-2.305 15.5 11.26 9.607 1.063-.462 2.28-1.093 3.263-1.324-.614 2.326-2.525 4.473-3.8 6.47l-4.008 6.26c-1.38 2.09-2.642 4.2-4.097 6.17-4.37 5.948-8.38 12.045-12.915 17.88L8.996 299.857c-3.142 3.98-10.923 10.507-8.555 16 2.818 6.55 16.223 6.488 22.932 3.15 3.538-1.76 9.483-6.24 11.247-9.61 5.434 0 11.145-.175 16.543-.01 5.04.152 10.113.89 15.01 1.54 9.44 1.25 18.577 3.636 27.19 5.938 12.893 3.447 25.74 7.85 38.76 10.953 10.897 2.597 16.052 6.484 12.24-2.06-2.204-4.94-3.872-10.5-5.017-15.91-.776-3.664-1.624-7.654-2.27-11.574-.61-3.708-1.507-8.373-1.507-12.347l17.588-.001c2.44-.01 3.65.31 5.615.368 1.824.056 3.802-.004 5.64-.014 12.042-.062 27.597 4.282 38.843 8.737 4.153 1.644 4.442 5.24 8.632 6.242 1.194.285 1.052.174 2.116-.395-.076-3.44-5.6-5.2-7.797-7.053-.455-.387-1.718-2.098-2.206-2.748-6.403-8.524-16.59-31.55-19.5-40.386l-15.062-44.517c-4.612-11.78-6.09-18.667-8.632-31.46l-6.507-33.253-10.61-49.375c-1.06-5.375-2.262-11.43-2.845-17.04-.572-5.51-2.462-12.318-2.462-17.782 1.194-.58 2.564-.455 3.05-1.934.908-2.762-2.41-3.45-2.364-7.65.055-5.11-.844-9.236-1.456-14.176-.35-2.84-.746-6.7-.99-9.668 2.267-.612 9.42-5.62 11.973-7.097 1.5-.867 3.02-1.037 3.502-2.86-1.276-.62-.758-.528-1.907.168l-5.598 3.624c-2.31 1.263-5.505 3.807-7.97 4.388 0-1.848-.347-3.305-.34-5.7.005-2.29-.4-3.176-.367-5.675.033-3.513-.226-8.424-1.403-10.673-2.463.056-2.594 2.06-2.8 4.292l-.38 13.85c-.015 2.7.356 3.957.356 6.752-4.844 2.592-10.708 5.705-16.17 7.12-12.15 3.15-21.513-1.772-30.303-8.852-1.17-.942-2.138-1.706-3.21-2.8-3.005-3.074-5.7-5.99-8.07-9.622-.882-1.35-1.284-2.763-3.095-2.916-1.14 1.72-.735 1.74.29 4.33.577 1.456 1.29 2.704 2.117 3.905 1.99 2.894 4.34 5.987 7.087 8.126 3.8 2.95 4.6 3.74 7.997 7.206 4.906 4.99.033-1.25 8.805 9.6l5.512 6.874c2.543 3.43 8.466 10.693 10.397 14.383-3.426 1.833-7.587 2.714-10.767 5.118-2.828 2.138-2.8 4.477.443 4.06 1.075-.138 1.642-.287 3.29-.287-1.037 1.43-6.888 4.086-7.245 5.195-.91 2.824 6.274-1.74 7.642-2.304 1.705-.703 2.82-.998 4.703-1.648 2.454-.847 2.79-.67 5.058.223 1.6.625 2.645 1.343 4.15 2.206 1.897 1.087 2.367 1.65 4.334.597-.217-2.64-2.183-4.03-3.517-6.046l9.144-1.778c0 5.306 1.135 11.57 2.196 16.63 2.045 9.754 2.025 6.135 2.025 17.156 0 13.024-.323 24.875-.692 37.354-.124 4.19-.73 8.774-.707 13.155.012 2.18-.316 2.748-.37 4.604-.045 1.52.044 3.12.026 4.65-.025 2.018-.375 2.46-.378 4.597l.024 4.647c-.003 2.137-.353 2.58-.378 4.598l-.338 37.71L83.3 232c-2.84 1.02-5.35 2.05-8.12 3.17-1.686.682-6.736 2.976-8.19 3.098z" fill="#fefefe"/></svg>