<svg xmlns="http://www.w3.org/2000/svg" width="132" height="333" fill="none" xmlns:v="https://vecta.io/nano"><path fill-rule="evenodd" d="M42.413 331.08c-1.406-.957-3.752-6.973-2.77-8.603 1.147-1.903 6.25-3.064 9.052-3.3-1.178 5.142-2.537 9.354-6.283 11.904zm37.98-13.936l.085.086c-.006-.005-.114-.058-.085-.086zm-15.135-1.452c1.54 0 2.42-.432 3.835-.747 4.255-.946 3.57-.296 9.123 1.51l1.698.596c.043.02.133.055.193.094-2.218 0-5.22-.533-7.217-.792-2.522-.327-4.94-.37-7.632-.37v-.3zm-13.993 1.16c0-2.046.667-4.73.973-6.852.394-2.74-.9-2.68 7.347.136l2.995 1.02c1.516.514 4.712 1.805 6.105 1.923-1.248 1.73-16.04 3.1-17.42 3.774zm-2 0c-3.368.285-4.29.58-8.282.58-3.058 0 .824-12.435.857-13.936 1.26.298 3.225 1.254 4.528 1.783.978.398 3.532 1.6 4.6 1.7-.188.4-1.714 9.036-1.714 9.87zm-47.69-22.356c0-2.863 4.602-2.613 6.568-2.613 3.22 0 16.197 4.375 19.134 5.807l-2.446 6.514c-2.352 5.997-4.617 9.508-7.45 14.78-.598 1.113-1.25 1.89-1.526 3.094L7.87 309c-1.908-3.36-6.296-11.12-6.296-14.504zm39.695 6.388c-1.3-.1-1.74-.508-2.773-.956-1.016-.44-1.896-.706-2.898-1.12-1.774-.73-4.027-1.44-5.753-2.28l9.952-27.625c4.772-13.036 9.02-23.7 13.43-37.157l3.178-9.544c-.032 1.45-.61 3.45-.854 4.94-.277 1.695-.622 2.973-.938 4.853-.536 3.188-1.372 6.61-1.918 9.954l-7.357 39.555-4.068 19.38zm15.135-79.263c0-.742.452-.046.17 0-.004.001-.17.81-.17 0zm40.266-13.065c-1.064-4.643.857-8.16.857-11.613h.285c0 2.37-.122 4.173-.27 6.114-.112 1.48.14 4.312-.874 5.5zm11.423-21.485l2.805 16.6 1.75 17.965c.264 3.254.25 10.656.75 14.043l1.2 13.578c1.756 14.342 5.144 27.197 7.84 41.388 1.388 7.315 2.814 17.524 5.1 24.428.38 1.147.732 2.45 1.225 3.69.44 1.106 1.2 2.375 1.3 3.604-6.507 0-9.627-.704-14.85-.87l-14.33-1.4c-4.646-.573-16.564-3.94-21.902-5.604-1.417-.442-1.994-.8-3.176-.836.618-.858.866-.6 3.447-1.14l4.055-.813c10.616-1.882 23.038-1.356 32.02 4.746 1.48 1.006 1.037.836 2.743.692.722-3.065-.356-1.98-.566-4.65l-.29-21.77c.001-2.772-.078-5.96-.45-8.543-.2-1.395-.215-2.73-.39-3.958l-1.527-11.803c-1.52-10.507-2.993-20.748-3.907-31.45-.114-1.33-.192-2.528-.375-3.974-.733-5.78-.82-14.826-1.553-20.487l-1.46-16.228c-.44-4.192-1.023-5.4.523-7.21zm-4.57 4.645c0-4.453.57-8.03.57-12.484h.286c0 5.813 2.084 9.044-.857 12.484zm-38.838-3.774c0 1.482.004.482-.285.87 0-1.535.002-.433.285-.87zM51.266 304.95l-8.853-3.484c.948-2.01 5.766-28.44 6.118-30.362l5.67-30.82c.378-2.25.9-5.084 1.46-7.516l3.006-15.235c2.154-10.973 4.47-18.322 7.698-29.046l2.32-6.93c0 1.525-.166 2.474-.337 4.012-1.047 9.397-1.61 18.042-2.927 27.8l-4.242 31.108-2.57 14.806-1.22 7.47-3.8 22.86-1.777 11.258c-.174 1.316-.556 2.677-.556 4.08zm13.422-117.006l3.427-18c.73 1.07 1.31 3.305 1.044 4.524-.18.83-.518 1.343-.795 2.117l-3.676 11.36zm35.983-14.807c-.102-.55.36-1.032.18-.184-.004.02.008 1.197-.18.184zm-31.128-10.743h.286v5.517c-1.656-1.234-.286-3.368-.286-5.517zm33.984 6.097c-2.06.047-2.285 1.1-2.285 3.194h-.285c0-11.993 6.282-45.34 6.282-49.357h.286c0 13.83-2.187 22.016-3.12 34.282-.304 3.996-.878 7.776-.878 11.88zm-44.55-59.52c-.025 1.132-.606 2.848-.916 4.005l-1.084 3.834-1.04 3.877c-.233.814-.344 1.17-.553 2.05-.07.296-.133.63-.23.927l-.46.984c-.64-2.786.598-5.933 1.392-8.166l2.892-7.512zm0 0c0-1.482-.004-.482.285-.87 0 1.535-.002.433-.285.87zm48.548.3l-3.51 23.723c-1.254 7.74-2.233 15.803-3.36 23.877l-1.968 18.322c-.252 3.132-.094 10.64-.603 13.033-.602 2.835-6.384 22.664-1.41 22.664 3.112 0 2.393-4.532 2.977-8.587 1.088-7.554-.447-11.98 1.48-20.56.617-2.75 1.54-6.394 1.54-9.468l-1.458 26.118c-.137 1.525-.852 2.153.887 2.625 1.047-.78 1.248-3.1 1.675-4.394l1.086-3.25c.27-.615.334-.677.666-1.065.018.825.232 2.61.367 3.692l2.566 34.264c.285 2.172.637 5.27.78 7.627.93 15.37 5.6 37.505 6.007 51.67l-.013 20.627c-.01 1.834.29 2.593.29 4.06-4.44-2.388-8.752-3.81-14.76-4.736-8.12-1.25-17.986.42-25.796 2.41-2.297.586-1.74.804-5.42-.58L52.98 305.82c0-1.862 1.92-13.222 2.332-16.2 1.37-9.934 3.537-22.236 5.215-32.442l3.788-24.31 1.062-8.212c.82-5.64 1.275-11.036 2.047-16.79l3.275-31.8c.52-1.72.844-.58.844-2.046 0-1.517-.55-1.618-.55-2.894-.005-3.227 1.51-11.767-.306-14.526-1.663.14-1.587 1.093-1.884 2.73-.275 1.515-.687 2.416-.687 3.947h-.57c-.267-1.166-.648-1.845-1.038-3.01l-4.794-15.74c-.623-2.23-1.335-4.13-2.056-6.33-.378-1.152-3.013-8.2-2.733-8.956L77.94 96.313l6.985-9.448 3.714-4.644 3.75-4.607c.93.633 1.71 2.223 2.453 3.312l4.8 7.025c1.38 2.1 6.424 9.108 7.123 10.76.593 1.4.88 3.07.598 4.863-.337 2.15.162 3.602.162 5.687zm-5.997-21.775L93.53 75.873c.654-.764 2.015-2.166 2.285-3.194l5.712 14.807zM90.675 64.55c-.1-1.24-1.713-5.39-1.713-6.097 0-.427 2.185-7.728 2.856-8.7 0 7.218.083 6.672-.554 13.373-.143 1.505.34.743-.588 1.434zm-28.272-8.7l8.496-9.364c1.66-1.692 7.986-7.566 10.352-7.767l5.556 17.89c.55 2.133-.386 3.805-1.447 6.9-1.95 5.685-1.655 3.765.77 5.38l5.115 6.703c-.332 1.45-3.492 4.973-4.45 6.22l-2.4 3.066c-5.907 7.836-14.772 20.85-19.646 29.093l-6.376 10.068c-.678.99-1.374 2.584-2.245 3.233.184-2.247 10.92-40.156 12.457-44.82l4.288-12.2c.174-.363 1.9-2.312.214-3.782-.385-.336-1.67-.602-2.287-.868-1.796-.776-3.974-4.332-5.746-6.353-.97-1.106-1.862-2.223-2.644-3.41zm-1.428-1.452c3.72-5.65 8.586-14.58 12.796-21.25.452-.716 1.586-2.443 1.768-3.138 1.555.132 2.35 1.556 2.958 2.8l1.897 3.878c-1.834 1.25-3.72 2.295-5.354 3.848-.91.866-1.577 1.292-2.43 2.173l-2.427 2.178c-2.095 1.97-7.678 9.097-9.206 9.512zm20.562-19.162l.628.523c-.8-.142-.376.166-.628-.523zm-5.14-9.58c-2.598-4.992 5.163-9.2 6.57-9.58-1 1.518-5.61 8.93-6.568 9.58zM87.82 54.968l-2.534-8.747c-.79-2.414-1.858-6.395-2.892-8.383 2.86-1.947 2.133-2.906-1.496-6.32-.787-.74-1.258-.883-2.007-1.733-2.394-2.716-1.304-2.73 2.2-8.1 3.28-5.03 4.135-6.763 8.782-10.234 1.836-1.37 3.542-2.858 5.382-4.1 0 13.032-2.312 20.66-3.126 31.082-.6 7.678.138 4.646-2.336 11.56-.428 1.198-1.04 4.285-1.963 4.973zm3.14-46.745l-.285.3.285-.3zm-68.538-.3c0-2.44 7.58.76 8.367 1.074 2.25.9 4.302 1.73 6.66 2.52 8.893 2.987 18.146 5.06 26.218 9.928 2.92 1.762 5.703 3.315 8.405 5.4.872.67 1.756 1.4 2.61 1.992-1.926 2.923-14.232 23.637-14.85 24.098-.94-.64-3.913-4.39-4.778-5.305-2.87-3.032-6.926-6.746-9.474-9.82-.286-.345-.337-.414-.67-.772l-4.985-5.384c-.48-.585-.47-.705-1.01-1.297-.463-.508-.83-.79-1.292-1.3l-4.838-5.533C30.613 20.9 22.423 10.51 22.423 7.933zm71.394 29.905l1.266-10.326c.85-5.846 1.126-11.326 1.755-15.636.252-1.725-.06-4.18.313-5.49.58-2.034 5.484-4.137 7.233-4.55.83 3.62-.555 7.35-1.677 11.07-.87 2.883-1.9 5.7-2.856 8.42-.484 1.368-1.014 2.623-1.5 3.99-.498 1.4-.9 2.82-1.475 4.307l-2.2 6.183c-.134.35-.208.592-.392 1.054l-.467.977zM90.96 8.224c.194-.738 3.348-5.17 4.284-5.807V5.32c-.803.218-1.405.847-2.082 1.368-.742.57-1.35 1.304-2.202 1.536zm5.997-4.645c0-1.683-.125-3.484-1.713-3.484-1.168 0-2.14 1.824-2.777 2.693-1.653 2.254-5.216 8.173-7.04 9.682-3.386 2.8-14.508 6.265-10.458 14.046-1.553-.422-3.89-2.598-5.37-3.54-3.814-2.432-7.69-4.333-11.86-6.233L51.04 14.26c-7.49-2.08-13.247-4.335-20.3-6.943-1.604-.593-5.107-1.995-7.176-1.995-7.45 0 1.49 10.75 3.302 13.192.503.678.654.805 1.147 1.447.464.604.785 1.124 1.218 1.665.498.622.824.84 1.35 1.53.612.8.672.848 1.338 1.543.653.682.702.928 1.284 1.598L50.1 44.84c1.57 1.742 3.482 3.302 4.93 5.15 1.2 1.516 2.9 3.07 3.956 4.69l-1.313 1.858c-1.83 3.05-.57 4.824 1.998 2.03.78-.85.572-1.165 1.886-1.277.22.84 5.45 7.24 6.525 8.464.79.9 2.117 1.414 3.185 1.988l-4.533 14.264c-.783 2.397-1.61 4.424-2.43 6.82l-7.56 20.768c-1.346 3.382-2.887 6.973-3.686 10.48l-.925 3.996c0 1.112 1.713 3.345 1.713 4.064 0 4.287-3.998 9.034-3.998 11.324 0 .665.097.337.285 1.16 2.372 0 2.5-1.872 3.175-3.74l2.537-5.26c.8 3.487 4.77 14.416 6.28 20.327 1.07 4.194 2.585 8.387 4.034 12.448.23.642.8 1.882.946 2.53.398 1.78-6.287 34.573-7.65 39.21-4.985 16.96-10.355 33.97-16.75 50.33l-9.22 24.305c-1.438 3.747-4.5 11.18-5.34 14.894-4.35-.1-20.126-9.06-26.58-4.376-4.792 3.48 2.783 14.647 5.324 19.016l4.028 7.228c5.84 10.626 5.233 8.134 12.322-5.37l4.418-10.025c.48-1.253.825-2.473 1.343-3.57 3.587.303 8 3.48 11.71 4.355-.58 1.23-2.57 10.008-2.57 11.904 0 1.8.51 4.18 2.57 4.355-1.628 2.26-4.258 1.595-2.472 7.158 2.187 6.8 4.2 9.51 8.798 2.758 1.737-2.556 2.65-5.867 3.42-9.007.47-1.923.585-1.35 2.655-1.656 9.425-1.4 19.135-.58 28.45.73 11.475 1.616 13.395 1.634 25.08 5.57 2.766.932 9.39 3.738 12.03 3.738 1.264 0 1.516-1.575.078-2.393-.98-.56-7.512-1.616-10.383-3.1-.055-.028-.136-.076-.185-.102l18.528 1.487c8.93 1.03 4.213-4.756 2.704-9.136-2.684-7.786-3.99-16.716-5.436-24.96-2.52-14.375-6.333-28.34-8.11-42.856-.664-5.43-1.786-17.697-1.76-23.47.01-2.03-.3-2.814-.3-4.932.046-4.72-1.03-13.888-1.797-18.496l-2.644-15.312c-.278-1.428-.076-.95-.702-1.9-.974.082-1.246.356-1.768 1.106l-.23.345c-.027-1.247-.4-3.773-.525-4.98l-1.21-9.827.887-10.44c.823-12.364 3.477-23.704 3.41-36.31-.01-2.06.305-3.007.294-5.217-.018-3.555-.095-7.658.283-11.035.14-1.234.093-2.692.437-3.912.206-.73.42-.4.42-1.605 0-.5-1.615-2.68-1.963-3.52-.33-.794-.546-1.355-.856-2.034-.365-.798-.545-1.093-.95-1.937-2.62-5.447-4.567-10.245-6.474-16.064-.507-1.546-.92-2.82-1.5-4.282-2.658-6.687-4.592-.61-6.532.835l-4.403-5.976c-2.822-3.65-1.54-1.093-.166-7.1 1.813 1.35.307 5.3 3.713 6.097 1.82-1.61 1.606-5.53 1.92-7.918.6-4.55-.25-10.06.085-14.72.164-2.276 2.78-8.965 3.62-11.126 1.52-3.9 9.507-24.87 9.507-29.82 0-7.42-6.86-2.23-9.71-.3z" fill="#fefefe"/></svg>