<svg width="247" height="332" viewBox="0 0 247 332" fill="none" xmlns="http://www.w3.org/2000/svg">
<path fill-rule="evenodd" clip-rule="evenodd" d="M65.5505 322.779C65.5505 319.345 66.4052 318.682 67.8764 315.591C68.5909 314.09 68.483 314.148 70.2805 313.796C76.58 312.561 82.7419 311.239 89.3619 311.032C94.6845 310.865 100.013 310.208 105.619 310.202C107.351 310.2 107.789 309.905 109.521 309.903C119.832 309.888 133.978 308.722 143.764 310.974C149.667 312.333 153.962 313.077 159.836 315.345C165.111 317.381 164.536 316.005 165.475 323.141C165.788 325.525 165.837 327.102 165.837 329.771C162.753 330.509 159.364 328.946 155.531 328.034C152.729 327.368 148.9 326.866 145.869 326.493C135.779 325.253 116.236 325.55 104.759 325.566L92.4331 326.405C86.1811 326.827 75.0855 329.374 68.6631 326.663C67.0858 325.997 65.5505 325.074 65.5505 322.779ZM69.7525 312.15L76.4881 300.135C76.8567 299.501 77.1069 299.157 77.505 298.353C77.7881 297.782 84.7682 284.459 85.1597 284.459C86.5161 284.459 97.8971 285.609 99.2036 286.1C107.913 289.375 128.92 291.034 140.461 292.735L154.648 294.513C156.196 294.727 157.763 295.088 159.394 295.088C159.538 296.814 163.836 313.143 163.876 314.947C155.879 310.722 136.453 307.675 128.58 307.675C125.786 307.675 123.393 307.742 121.002 307.94C117.526 308.227 111.164 307.705 105.813 308.437C104.554 308.61 103.239 308.467 101.958 308.505C100.457 308.549 99.8604 308.814 98.0456 308.794C94.0056 308.748 87.6856 309.655 83.4789 309.912C78.8783 310.194 73.7874 311.211 69.7525 312.15ZM160.795 293.41C165.273 293.41 180.939 294.925 185.775 295.599C199.997 297.582 201.849 299.28 214.282 303.497C216.083 304.107 215.558 303.976 216.146 306.111C216.338 306.812 217.89 312.15 215.98 312.15C211.143 312.15 195.929 304.098 189.411 301.478C179.987 297.69 174.136 296.512 164.416 294.549C162.779 294.219 161.606 294.516 160.795 293.41ZM152.671 292.571C154.825 292.571 156.905 292.97 158.834 293.13L152.872 292.65C152.825 292.635 152.732 292.609 152.671 292.571ZM152.671 292.571C149.051 292.571 119.688 288.317 113.998 287.551C112.23 287.313 110.061 286.697 108.41 286.697V286.417C110.302 286.417 112.346 286.534 114.251 286.738L131.227 288.809C134.943 289.396 138.543 289.994 142.067 290.572L152.671 292.571ZM35.5765 325.296C37.6483 322.207 38.9642 321.085 41.5486 316.715C42.2085 315.599 42.7843 314.675 43.4739 313.602C46.1224 309.48 48.5477 305.606 51.4653 301.722C52.2095 300.731 52.6732 299.915 53.4233 298.922L65.8891 281.441C66.4488 280.602 67.371 279.098 68.0717 278.586C69.1969 283.408 70.7277 282.056 78.9172 283.42C80.1237 283.621 82.1782 284.071 83.4789 284.18C80.9113 289.024 78.3826 293.669 75.734 298.543C75.1924 299.541 68.1313 312.063 67.3704 312.569C66.8415 312.92 64.0784 313.615 63.3083 313.827C59.5602 314.862 54.3594 316.889 50.9407 318.261C47.3851 319.687 37.396 325.145 35.5765 325.296ZM99.4463 283.34L106.275 280.649C117.332 276.971 123.234 274.486 133.621 269.913C137.236 268.321 145.041 263.383 148.471 260.966C149.381 260.325 150.69 259.236 151.551 259.006C151.657 260.288 152.094 261.933 152.322 262.99C152.64 264.46 152.905 265.906 153.161 267.187L158.274 291.452C148.673 290.654 133.176 286.787 122.368 285.627C115.236 284.861 108.087 284.038 101.102 283.925C99.6589 283.902 100.021 284.124 99.4463 283.34ZM91.8827 245.86L91.6026 246.14L91.8827 245.86ZM92.1628 245.58L91.8827 245.86L92.1628 245.58ZM92.443 245.021L92.1628 245.58L92.443 245.021ZM93.0032 244.462C92.8336 245.377 93.3599 244.851 92.443 245.021L93.0032 244.462ZM93.2834 244.182L93.0032 244.462L93.2834 244.182ZM93.5635 243.902L93.2834 244.182L93.5635 243.902ZM93.5635 240.825L93.2834 241.105L93.5635 240.825ZM93.5635 243.902C93.805 242.999 98.3683 237.948 99.0794 237.103C100.054 235.943 104.246 232.033 105.889 231.595L93.5635 243.902ZM106.169 231.315L105.889 231.595L106.169 231.315ZM106.449 231.036L106.169 231.315L106.449 231.036ZM109.811 230.476C109.423 232.138 84.9342 281.707 84.8795 281.942C82.7235 281.942 80.9307 281.511 79.2046 281.175C71.269 279.628 67.3095 281.572 72.6709 272.549C75.8522 267.195 82.6767 258.297 86.7698 253.901L91.3981 248.733C92.0998 248.007 92.2261 247.631 92.9276 246.903L107.696 232.281C107.888 232.12 107.812 232.189 108.004 232.028C108.712 231.434 109.115 230.942 109.811 230.476ZM106.449 231.036L106.996 230.714L106.449 231.036ZM107.29 227.959L107.01 228.239L107.29 227.959ZM163.596 219.288L182.996 237.677C184.117 238.809 184.691 239.32 185.924 240.348C187.673 241.808 189.588 243.981 191.259 245.65L194.249 248.539C194.29 248.579 194.348 248.638 194.388 248.679L194.668 248.959C194.875 249.165 195.14 249.421 195.366 249.661L207.214 262.445C210.561 266.435 213.656 270.213 217.014 274.197L229.029 289.332C231.534 292.821 244.025 309.884 244.554 312.15C239.345 312.15 229.692 307.25 224.137 305.404C223.022 305.034 222.097 304.608 220.904 304.157L217.381 302.92C217.291 301.831 215.598 298.008 215.103 296.803C214.747 295.936 214.302 294.833 213.836 293.873L209.541 285.295C207.314 280.993 195.219 263.683 192.13 259.605L163.596 219.288ZM117.094 220.407C117.669 219.323 118.201 218.414 118.775 217.33C119.489 217.808 119.65 217.81 119.896 218.729C118.662 219.058 118.328 220.078 117.094 220.407ZM107.29 227.959C107.959 226.961 115.229 219.042 116.534 218.169C116.322 218.963 114.341 222.588 113.571 223.322C112.643 224.205 108.155 227.728 107.29 227.959ZM155.472 214.813C156.772 214.51 157.708 214.608 158.606 215.599C158.797 215.809 159.325 216.565 159.557 216.888C165.046 224.543 169.762 231.587 175.599 239.469C179.282 244.441 183.536 251.108 186.965 255.811L198.333 271.872C205.36 282.472 208.507 286.167 213.26 298.084C213.689 299.161 214.341 300.498 214.58 301.521C213.473 301.429 209.981 299.978 208.733 299.528C206.785 298.825 204.757 298.198 202.643 297.497C192.973 294.286 178.751 292.796 168.081 292.289C165.595 292.17 163.327 291.732 160.515 291.732C159.85 288.882 159.276 286.279 158.671 283.223C158.071 280.189 157.38 277.581 156.712 274.551L152.951 257.328C158.126 253.868 162.756 247.06 162.756 239.986C162.756 227.975 155.472 222.003 155.472 214.813ZM120.176 214.813H120.736C120.85 216.176 120.745 215.12 121.113 216.156C121.185 216.357 121.167 216.013 121.315 216.726C121.33 216.796 121.341 216.994 121.343 217.049L121.296 217.33C121.296 217.33 121.383 217.952 120.361 216.594C119.646 215.644 119.908 215.929 120.176 214.813ZM2.52122 299.284C4.18685 296.8 16.0395 287.349 18.9261 285.176L36.9246 272.379C40.7539 269.794 53.9145 259.442 57.7949 256.297L78.1563 239.986C87.4003 232.777 96.2322 224.958 106.327 218.886C110.323 216.483 111.345 215.932 115.694 215.932C114.413 217.841 108.851 223.033 107.01 225.442L102.725 230.394C99.4173 234.32 98.5976 234.693 94.7227 237.787L75.6321 252.57C74.9526 253.09 74.6804 253.39 73.9009 253.918C69.5499 256.866 61.6649 263.269 56.468 267C51.6016 270.493 46.9757 273.977 41.9619 277.129L34.5683 282.054C33.2339 282.942 32.1755 283.645 30.8702 284.515C29.5703 285.381 28.4105 286.052 27.1158 286.92L19.5171 291.64C16.582 293.208 5.70099 299.213 2.52122 299.284ZM126.899 207.82C126.899 210.441 125.779 212.396 125.779 215.372C124.09 215.232 125.045 214.897 123.257 211.177L126.899 207.82ZM127.179 204.184C127.37 203.386 127.137 203.763 127.74 203.345C127.548 204.143 127.782 203.766 127.179 204.184ZM127.74 203.345L127.894 202.744L127.74 203.345ZM130.26 200.828C131.073 197.345 131.551 196.801 134.02 193.393C139.07 186.423 139.422 184.925 144.606 192.658C146.132 194.933 147.37 197.007 148.802 199.376L156.873 212.855C151.738 212.855 153.869 218.212 155.379 221.34C159.394 229.658 164.524 239.433 158.717 248.82C157.669 250.515 154.182 255.172 152.391 255.65C150.159 246.084 147.793 236.372 145.736 226.772C144.164 219.435 141.825 209.581 138.765 202.685C138.179 201.366 138.179 200.611 136.704 200.268C136.365 200.773 136.143 200.76 136.143 201.387C136.143 202.693 137.689 206.763 138.186 208.018C140.414 213.642 142.992 222.612 144.437 228.349C144.676 229.298 150.99 255.896 150.99 257.328C150.234 257.53 144.833 261.647 143.749 262.404L139.031 265.246C130.144 270.184 120.616 274.012 110.967 277.223C108.494 278.046 105.966 278.893 103.403 279.74C101.536 280.357 97.716 281.431 97.2053 283.62C93.9163 283.347 89.2252 282.907 86.2802 282.222C86.5851 280.915 93.0524 268.406 94.2174 266.092C94.9219 264.693 95.4185 263.397 96.0836 262.082C96.786 260.693 97.4662 259.452 98.085 257.926C98.6589 256.511 99.3651 255.247 100.102 253.787C100.844 252.317 101.319 251.066 102.061 249.589L107.904 237.522C108.195 236.912 108.552 236.194 108.931 235.471C113.16 227.407 111.698 228.323 119.732 221.922C120.434 221.362 120.758 220.905 121.577 220.687C121.618 220.843 123.7 224.344 124.689 224.572C124.956 224.633 125.486 224.603 125.779 224.603C125.924 223.978 126.046 223.433 126.306 222.892C126.828 221.808 126.72 222.49 126.928 220.996C127.107 219.714 127.228 217.957 127.409 216.721C127.71 214.666 128.907 206.056 129.768 204.811L130.408 204.051C130.445 204.007 130.499 203.944 130.537 203.901C130.575 203.857 130.627 203.793 130.665 203.749C130.703 203.705 130.756 203.642 130.794 203.598C131.231 203.088 131.502 202.781 132.004 202.289C135.472 198.882 138.352 197.924 135.583 196.073C133.37 196.587 132.11 199.591 130.26 200.828ZM105.329 165.585C105.613 165.96 105.609 164.997 105.609 166.424C105.35 166.082 105.427 166.738 105.329 165.585ZM105.329 165.585C105.045 165.21 105.049 166.173 105.049 164.746C105.308 165.088 105.231 164.431 105.329 165.585ZM87.4007 126.986C88.077 127.481 88.4305 128.136 88.5213 129.223C87.4328 128.427 87.8975 128.096 87.4007 126.986ZM130.541 52.5843L130.337 52.2282C130.312 52.174 130.19 51.9254 130.158 51.8481C129.999 51.464 130.015 51.4384 129.873 51.0131C127.842 44.9162 126.339 46.9122 126.339 47.27L128.807 54.0355C129.067 54.9998 129.128 55.907 129.446 56.754C129.785 57.6571 130.163 57.8525 130.511 58.7676C130.82 59.5794 130.978 60.4462 131.276 61.3602C131.843 63.0992 132.25 64.7078 132.746 66.3254C134.741 72.8328 137.171 79.2363 139.465 85.35C140.682 88.595 141.558 91.6246 142.692 94.9944L145.075 102.125C145.345 102.873 145.863 103.832 146.048 104.525C146.243 105.253 145.352 108.565 145.131 109.667C142.788 121.363 141.248 130.821 139.589 142.454C139.294 144.528 138.938 146.044 138.681 147.98C137.513 156.759 134.394 171.016 132.62 180.528L129.368 196.579C128.725 199.239 126.228 202.331 124.747 204.833C124.3 205.588 123.941 206.058 123.551 206.715C123.109 207.46 122.814 208.164 122.137 208.659L110.616 177.927C107.114 167.437 101.841 145.223 98.8294 133.196C98.3871 131.429 97.8463 129.504 97.4591 127.571C96.1131 120.853 95.7349 122.137 97.6442 115.397C98.2271 113.339 98.7995 111.541 99.4463 109.644C100.086 107.768 100.556 106.103 101.289 104.212L107.257 87.7947C108.575 84.1622 110.033 80.5856 111.452 77.1587C114.252 70.3958 117.779 62.9338 120.378 56.4228L123.421 48.5519C124.444 45.91 127.352 36.3753 128.3 34.4035C130.086 34.4434 132.198 35.1011 133.902 35.2428C132.62 40.7404 131.061 46.3428 130.541 52.5843ZM94.684 120.832C94.684 124.721 95.9717 129.402 96.9826 133.082L102.415 153.949C102.882 155.813 103.251 157.271 103.704 159.096C104.07 160.572 104.916 162.871 105.049 164.466C104.33 163.64 102.986 158.982 102.633 157.927C101.84 155.55 101.047 153.478 100.324 151.283C98.9931 147.244 96.8518 142.178 95.1665 138.251L90.95 129.039C90.7478 128.253 91.5803 126.823 91.9158 125.9C94.4817 118.841 97.4388 106.567 100.251 98.1406C103.172 89.3871 106.937 79.6177 109.433 71.2265C110.234 68.5332 113.733 59.0252 113.733 57.0596C113.733 51.5502 101.202 38.5279 100.847 37.2005L109.013 33.6069C113.183 31.9129 111.855 32.9539 115.692 33.0066C117.202 33.0273 117.871 33.1972 119.326 33.2945C121.575 33.4451 124.151 33.9421 126.339 34.124L116.495 60.9368C111.011 74.298 106.895 83.5978 101.795 98.2838C100.493 102.033 99.1463 105.369 97.8711 109.19C96.8781 112.167 94.684 117.847 94.684 120.832ZM139.225 21.5372V34.963C138.602 34.8181 136.703 34.1122 136.143 33.8442L139.225 21.5372ZM126.899 32.4456C124.514 31.8907 117.437 31.2618 114.853 31.0471C115.465 30.2134 117.283 29.5555 118.333 28.9275C120.416 27.6818 128.388 23.9305 130.26 23.7749C130.044 24.7021 129.895 24.9975 129.515 25.8278C128.714 27.5796 127.844 30.6617 126.899 32.4456ZM134.463 33.5644C133.717 33.2072 130.075 32.7253 128.86 32.7253L131.581 25.6524C131.822 25.0497 132.007 24.5641 132.207 24.0404C132.669 22.8336 132.226 23.0954 133.286 22.6004C133.854 22.3351 136.366 21.5572 137.264 21.5372C137.231 23.0071 136.261 26.1044 135.92 27.4674C135.495 29.1652 134.595 31.9703 134.463 33.5644ZM141.186 18.4604V14.5447C141.876 14.8753 148.027 15.3838 149.309 15.3838C149.259 15.4273 149.175 15.4211 149.151 15.5048L147.582 16.4561C146.252 17.0807 142.44 18.3563 141.186 18.4604ZM138.104 19.2995C137.123 19.5278 134.424 20.314 133.622 20.6981C134.212 18.1687 135.997 15.2517 136.423 13.4258C137.311 13.4995 138.569 13.9508 139.225 14.2649C138.94 14.8569 138.124 18.4107 138.104 19.2995ZM139.225 12.0272C138.546 11.8693 138.101 11.7347 137.544 11.4679C137.611 10.6681 138.804 7.51787 139.505 6.71292C139.505 8.90113 139.225 10.1322 139.225 12.0272ZM77.8762 2.51727C90.9515 2.51727 109.608 5.97584 122.249 9.11795L134.743 12.5866L131.866 19.7839C130.852 22.4533 130.274 21.5357 125.336 23.6131C123.544 24.3673 122.229 24.9874 120.549 25.8259L116.162 28.1581C110.71 31.0804 112.26 31.0314 105.452 30.0854C103.35 29.7932 100.976 29.7021 99.0897 29.4454C94.886 28.8732 89.7153 29.8128 86.5056 28.3047C82.7169 26.5246 81.4993 16.8795 77.1977 9.90774C73.6417 4.14423 72.8365 2.51727 77.8762 2.51727ZM93.2834 241.105C92.9716 242.271 90.2029 245.174 89.4002 246.178C81.8897 255.571 78.5505 260.136 71.8831 270.084C71.1803 271.133 70.6574 271.912 69.9768 272.936C68.7091 274.843 67.3928 276.496 66.1126 278.308L62.2414 283.673C60.9649 285.558 59.7527 287.031 58.4917 288.879L41.4461 313.256C40.8499 314.253 40.242 315.048 39.5877 316.155C37.869 319.063 35.9857 321.56 33.8081 324.09C32.6711 325.41 32.2967 325.203 32.7751 327.254C35.9867 328.001 38.6526 326.456 41.4014 324.959L50.979 320.257C51.6959 319.935 52.058 319.692 52.9085 319.386C54.3275 318.876 55.7609 318.249 57.181 317.779C59.8349 316.9 63.2587 315.184 66.1107 314.947C65.5528 317.338 64.1367 318.804 63.6908 321.489C62.1814 330.577 75.5663 329.977 81.8485 329.262C93.7394 327.909 103.368 326.974 115.694 326.974C121.857 326.974 127.114 327.261 133.342 327.254C138.949 327.247 145.023 327.936 150.03 328.772C152.968 329.262 163.666 332.129 164.96 331.996C169.409 331.536 167.788 325.421 167.287 321.89C167.092 320.51 166.705 318.979 166.678 317.744C167.506 317.523 167.132 317.63 167.798 317.185C167.798 312.874 165.668 310.424 164.399 306.593L161.355 295.648C164.203 295.648 167.716 296.644 170.375 297.27C178.877 299.271 186.976 301.877 194.594 305.534L201.881 308.887C205.498 310.696 209.275 312.546 213.141 313.866C214.487 314.325 216.311 314.789 217.715 313.882C220.178 312.291 218.801 307.64 218.222 305.157C219.064 305.353 219.056 305.471 219.823 305.796C223.558 307.38 227.497 308.597 231.115 310.184C233.153 311.078 247.328 318.16 246.994 311.909C246.88 309.772 242.946 305.172 241.751 303.481C237.413 297.34 233.144 291.068 228.394 285.211C227.661 284.306 227.136 283.603 226.41 282.717C225.024 281.026 223.73 279.417 222.424 277.746C221.765 276.904 221.116 276.131 220.426 275.266C219.716 274.376 219.083 273.471 218.292 272.641L193.618 245.253C191.644 243.457 189.958 241.528 187.806 239.868C185.292 237.93 182.423 234.581 179.844 232.434L179.537 232.181C179.055 231.775 178.843 231.581 178.37 231.109L173.611 226.63C172.051 225.072 170.699 223.696 169.134 222.15L161.879 215.688C160.511 214.607 159.496 213.672 158.607 212.243C155.583 207.381 145.108 188.554 141.466 186.282C136.761 183.346 134.464 191.43 131.941 193.276C131.983 191.408 139.114 155.011 139.542 152.475C141.218 142.531 144.922 115.787 147.755 106.401C148.491 103.963 147.782 103.91 147.03 101.851C144.88 95.965 143.235 89.7166 140.909 83.9083C139.622 80.6949 131.694 59.738 132.09 56.6748C132.313 54.9533 132.359 52.7384 132.494 51.178C132.814 47.4491 133.417 44.1819 134.307 40.6819C134.64 39.3732 135.136 36.7321 135.583 35.8021C137.831 36.3252 138.405 37.4803 140.906 37.4803C141.686 35.8565 141.252 36.0695 141.18 34.137C141.127 32.691 141.186 31.1103 141.186 29.6487C141.186 28.0954 140.96 22.0199 141.186 20.9777C141.454 19.7391 142.897 20.0235 144.087 19.6793C145.613 19.2384 153.055 17.1032 152.391 14.5447C151.968 12.9165 148.843 13.1868 147.346 13.1486C145.598 13.1043 142.885 12.7278 141.186 12.5866C141.276 11.5076 141.62 10.7368 141.859 9.62327C142.1 8.50548 142.285 7.41864 142.47 6.31685C142.812 4.28251 143.754 0.535421 141.746 0C140.994 0.549932 141.068 1.16537 140.327 1.66025C139.641 2.11906 140.518 1.22172 139.64 2.0926C138.641 3.08321 135.864 9.70266 135.583 10.9084C134.348 10.6211 133.541 10.3313 132.324 9.96707C119.692 6.18711 87.8347 -0.304312 75.9477 0.871523C73.1686 1.14638 71.5068 2.37663 72.7419 5.40457C74.453 9.59937 76.7676 12.7551 78.623 16.8757C79.5465 18.9265 80.2029 21.3103 80.9976 23.4552C81.725 25.4183 82.6325 27.5805 84.0994 29.0288C85.8214 30.729 87.6102 30.899 90.757 31.0523C92.1391 31.1197 92.9139 31.3378 94.6821 31.3286C96.104 31.3214 97.7726 31.2503 99.1675 31.3254C101.72 31.4628 104.819 32.166 107.29 32.166L104.117 33.7524C103.01 34.265 101.904 34.7561 100.749 35.1598C97.3574 36.3446 97.5467 32.7068 94.4039 32.4456C93.2413 32.7465 93.5178 33.3576 93.218 34.3382C93.1962 34.4091 93.1776 34.4852 93.1535 34.5535C92.9218 35.2065 93.1421 34.5966 92.8806 35.1201C92.347 36.1871 92.7156 34.9138 92.443 36.0819C94.4114 38.3431 96.7939 36.9276 98.5442 38.1013C100.293 39.2742 103.398 43.6646 104.932 45.7082C106.865 48.2826 111.796 54.6872 111.479 57.8538C111.336 59.2821 108.217 69.2381 107.748 70.663L103.684 83.1076C99.9886 93.3126 96.6623 103.742 93.596 114.152C93.0421 116.032 90.9342 125.276 89.3615 126.426C88.6247 123.67 81.8767 118.755 86.115 128.829C87.0627 131.081 87.5794 132.468 89.9218 130.902C90.2519 132.316 91.3692 134.188 91.9637 135.576C96.1574 145.367 98.079 151.229 101.569 160.669C102.244 162.495 102.609 164.156 103.286 165.947C105.233 171.1 106.706 176.276 108.446 181.493L113.971 196.954C115.222 200.307 118.954 209.462 119.616 212.296L117.309 214.467C113.55 214.251 113.365 213.105 107.658 216.299C106.869 216.741 106.398 216.906 105.661 217.382L92.5233 226.641C85.2298 232.042 78.2732 238.024 71.1899 243.659C66.3802 247.485 61.6863 251.337 56.8646 255.088L49.8631 260.684C47.4543 262.563 45.0327 264.444 42.5798 266.279C33.486 273.082 23.7762 279.077 14.8854 286.176C14.2347 286.696 13.6484 287.074 12.973 287.623C11.6828 288.671 10.7547 289.479 9.40064 290.489C6.64567 292.545 4.39883 294.966 1.87655 297.241C1.69257 297.408 1.56372 297.514 1.42953 297.634L1.13635 297.901C0.214752 298.743 0 298.801 0 300.402C2.18509 301.863 4.7217 300.699 7.16876 299.729C9.27351 298.894 11.4714 297.609 13.5396 296.58C14.7781 295.964 15.4711 295.518 16.6196 294.9C17.8066 294.262 18.5803 293.95 19.7314 293.252L60.2674 266.038C61.2211 265.32 62.1209 264.745 63.0327 264.044L93.2834 241.105Z" fill="#FEFEFE"/>
</svg>
