<svg xmlns="http://www.w3.org/2000/svg" width="96" height="100" fill="#3a3c51" stroke="#000" xmlns:v="https://vecta.io/nano"><path d="M15.547 49.256v-.001c-3.03-7.335-1.043-17.414 3.56-26.407 4.6-8.987 11.72-16.702 18.7-19.36 2.12-.8 4.016.133 5.182 1.785 1.178 1.67 1.525 3.966.6 5.714-1.853 3.37-4.333 6.447-6.94 9.486l-1.67 1.932c-2.068 2.382-4.145 4.774-5.952 7.27h-.001a135.82 135.82 0 0 0-11.89 19.896c-.186.326-.47.4-.783.343-.348-.076-.678-.34-.8-.663zm40.95-9.68c3.886-1.08 7.797-.473 11.32 2.707a4.33 4.33 0 0 1 .998 1.661 4.32 4.32 0 0 1 .17 1.946 4.33 4.33 0 0 1-2.134 3.151l-.012.007-.01.008c-1.93 1.253-3.9 2.413-5.9 3.58l-1.907 1.122c-2.623 1.554-5.238 3.17-7.718 5.06l.302.397-.302-.397-.265.2c-2.076 1.577-4.763 3.618-7.213 5.874-2.546 2.344-4.887 4.965-6.004 7.585h0c-.235.55-.84.807-1.524.7-.7-.098-1.233-.527-1.337-1.1-.605-3.36.232-7.72 2.1-12.206a44.63 44.63 0 0 1 8.172-12.707c3.418-3.7 7.332-6.515 11.253-7.605zM70.115 63.9h0c2.794-1.33 7.7-3.012 12.3-3.338 4.643-.328 8.73.723 10.3 4.545l.001.001c.786 1.885.553 3.246-.204 4.292-.788 1.1-2.203 1.914-3.942 2.557-1.727.638-3.7 1.068-5.527 1.412l-1.593.3c-1.183.2-2.243.4-3.008.603h0C73.84 75.505 69.6 77.8 65.46 80.03l-.494.267c-4.33 2.335-8.585 4.576-13.222 5.606h0l-.01.002c-.353.085-.722.067-1.064-.054a1.88 1.88 0 0 1-.864-.625 1.89 1.89 0 0 1-.384-.995c-.03-.362.047-.724.22-1.043l.012-.022.01-.023c1.7-4.037 4.822-7.908 8.538-11.247s7.984-6.118 11.9-7.985z"/></svg>