<svg xmlns="http://www.w3.org/2000/svg" width="75" height="136" fill="#3a3c51" stroke="#000" xmlns:v="https://vecta.io/nano"><path d="M11.8 18.585h-.032a5.88 5.88 0 0 1-5.721-8.225c3.058-6.887 9.476-9.3 16.7-9.538C29.977.584 37.9 2.536 43.694 4.256l1.078.32c5.168 1.532 12.395 3.675 18.373 6.998 6.415 3.566 11.198 8.38 10.68 15.096a6.63 6.63 0 0 1-5.867 5.295l-.01.001-.01.002c-3.953.56-8.497-1.04-13.094-3.14-1.448-.662-2.88-1.363-4.294-2.055l-2.458-1.194c-2.186-1.045-4.302-1.987-6.253-2.585h0l-.007-.002a111.25 111.25 0 0 0-30.027-4.406zm51.616 36.39h.001c1.328 1.78 1.176 4.35.016 6.326-1.15 1.96-3.197 3.182-5.543 2.46-4.347-1.344-9.24-.917-13.916.377s-9.194 3.46-12.808 5.68c-4.308 2.594-7.6 5.945-10.745 9.346l-1.385 1.513c-2.65 2.903-5.262 5.766-8.4 8.223a5.88 5.88 0 0 1-8.055-1.359C-.82 81.447.153 75.005 3.88 69.05c3.73-5.977 10.2-11.418 17.685-15.383s15.894-6.427 23.476-6.492 14.258 2.262 18.374 7.8zm-41.623 73.568h0c-.475-11.95 6.236-22.8 14.255-31.53 3.057-3.33 7.486-7.234 12.324-9.778 4.844-2.548 10.003-3.686 14.6-1.663a3.49 3.49 0 0 1 1.675 4.572c-1.112 1.77-2.53 3.207-4.052 4.606l-1.218 1.1c-1.155 1.034-2.34 2.093-3.428 3.272h0l-.008.01a71.71 71.71 0 0 0-7.837 10.75c-1.6 2.53-2.983 5.1-4.347 7.635l-2.685 4.856c-2.33 4.022-4.937 7.808-8.685 11.124-1.88 1.66-4.456 1.66-6.64.587-2.192-1.078-3.864-3.178-3.954-5.54z"/></svg>