<svg xmlns="http://www.w3.org/2000/svg" width="151" height="197" fill="#3a3c51" xmlns:v="https://vecta.io/nano"><path d="M124.58 65.716a1.27 1.27 0 0 0-.912-.147 34.54 34.54 0 0 0-4.336 1.255 28.21 28.21 0 0 0-3.683 1.71l-2.87 1.63-3.08 1.8-1.7 1.157c-.578.404-1.076.913-1.467 1.5a1.62 1.62 0 0 0-.291.602c-.054.22-.062.446-.024.668a1.63 1.63 0 0 0 .722 1.092 1.45 1.45 0 0 0 2.036-.374 1.44 1.44 0 0 0 .246-.718c.603-.528 1.246-1.007 1.923-1.434l3.407-1.972 2.298-1.255a28.69 28.69 0 0 1 5.134-2.2l2.15-.554a1.47 1.47 0 0 0 .93-.573c.225-.304.324-.682.276-1.057a1.53 1.53 0 0 0-.241-.659 1.52 1.52 0 0 0-.51-.482zM120.3 90.44l1.043-.375.978-.4c.6-.28 1.2-.607 1.76-.978a10.74 10.74 0 0 0 2.119-1.728l1.63-1.825c.88-1.027 1.63-2.135 2.477-3.26L133 78.086c.217-.317.3-.706.233-1.084a1.47 1.47 0 0 0-.59-.937h-.115c-.314-.176-.682-.23-1.034-.152a1.46 1.46 0 0 0-.872.576l-5.803 7.774-.88.815a10.9 10.9 0 0 1-1.63 1.271c-.442.265-.9.504-1.37.717l-1.907.733c-.313.176-.55.46-.667.8a1.47 1.47 0 0 0 .032 1.042 1.48 1.48 0 0 0 .798.794c.36.15.764.15 1.125.005zm-4.728-34.486a1.47 1.47 0 0 0 1.206-1.63c-.04-.218-.128-.425-.258-.606s-.298-.33-.492-.437c-.276-.16-.6-.218-.913-.163l-9.78 2.086c-1.57.345-3.086.893-4.514 1.63a18.82 18.82 0 0 0-2.054 1.288 13.03 13.03 0 0 0-1.858 1.76c-.302.34-.564.7-.782 1.108a1.63 1.63 0 0 0-.244 1.059 1.45 1.45 0 0 0 1.63 1.206 1.4 1.4 0 0 0 .536-.203c.163-.104.302-.24.4-.4a6.62 6.62 0 0 1 .896-1.222 13.38 13.38 0 0 1 1.988-1.63 19.79 19.79 0 0 1 1.418-.766 11.95 11.95 0 0 1 1.467-.57l5.004-1.222 6.34-1.288zm16.412 52.724a35.68 35.68 0 0 0 4.792-3.504l4.303-4.074c1.415-1.385 2.707-2.9 3.862-4.5l.114-.163 1.402-2.12.3-.538c.47-.768.894-1.563 1.27-2.38l1-2.657v-.163a18.24 18.24 0 0 0 .946-3.83 25.21 25.21 0 0 0 0-6.014l-.294-2.07a11.64 11.64 0 0 0-.358-1.63 6.76 6.76 0 0 0-.587-1.255c-.617-1.12-1.292-2.2-2.02-3.26l-.473-.684a1.32 1.32 0 0 0-.488-.456c-.163-.1-.34-.15-.522-.18l.147-.685a22.33 22.33 0 0 0 .228-2.608 14.74 14.74 0 0 0-.114-2.722c-.384-1.957-1.4-3.73-2.918-5.036a8.18 8.18 0 0 0-1.466-1.043c-.3-.18-.636-.326-.962-.473a7.78 7.78 0 0 0-1.891-.456l-.326-.212-.163-.098c-.227-.127-.475-.2-.733-.244l-1.63-1.9c-.505-.652-1.108-1.288-1.63-1.874a16.3 16.3 0 0 0-3.651-2.869c-.527-.28-1.07-.524-1.63-.733-1.826-.676-3.76-1.013-5.705-.994-1.973.007-3.944.143-5.9.407a106.32 106.32 0 0 0-11.31 2.217 36.1 36.1 0 0 0-5.688 1.891 13.09 13.09 0 0 0-1.173.587H98.6l-.473.277c-.115.053-.225.12-.326.196a5.1 5.1 0 0 0-.554.342l-.228.163a19.69 19.69 0 0 0-2.428 1.825 21.91 21.91 0 0 0-2.168 2.314 12.2 12.2 0 0 0-1.63 2.624 8.75 8.75 0 0 0-.75 3.374 41.39 41.39 0 0 0 .163 5.444c0 .62.163 1.24.26 1.858v.684a22.6 22.6 0 0 0 .733 2.852c.227.712.5 1.404.847 2.07a15.07 15.07 0 0 0 .831 1.532l-.245-.13-1-.293-.342-.098-.424-.114-2.25-.603a6.59 6.59 0 0 0-1.63-.212 7.54 7.54 0 0 0-.929 0c-.216.037-.43.1-.636.163h-.228a3.64 3.64 0 0 0-.766.456l-.114.114a2.1 2.1 0 0 0-.587.815 3.78 3.78 0 0 0 0 2.119 12.33 12.33 0 0 0 .587 1.63 9.6 9.6 0 0 0 .864 1.45 10.69 10.69 0 0 0 1.874 1.956 22.34 22.34 0 0 0 2.412 1.711l1.14.668a33.65 33.65 0 0 0 3.65 1.76l-.228.13-.44.342-2.15 1.858-.896.88-.114.147c-.093.056-.175.128-.245.212a1.94 1.94 0 0 0-.75.342l-4.58 3.423-.505.4-1.043.782-.505.4-2.77 2.184-.36.277-.994.815-1.108.88-3.048 2.494-5.378 4.58c-.473.392-.913.815-1.353 1.24l-.554.538-1.14 1.06-1.125 1.06-.5.505-.228.26-1.548 1.613-1.842 1.972-4.32 5.134-1.63 2.005.244-.538.326-.424.114-.374.342-1.076 1.402-4.124 2.33-6.2.57-.783 3.52-4.4 1.2-1.434 2.56-3.097a99.35 99.35 0 0 0 3.39-4.531l3.162-4.9.522-.848 2.363-3.912c2.053-3.534 3.652-7.312 4.76-11.246.383-1.3.634-2.618.75-3.96a4.89 4.89 0 0 0-.066-1.939c-.15-.635-.428-1.234-.815-1.76a1.84 1.84 0 0 0-.505-.424 1.96 1.96 0 0 0-.489-.196 3.03 3.03 0 0 0-1.157 0c-.32.045-.63.15-.913.3a3.65 3.65 0 0 0-.522.31l-.228.163a6.21 6.21 0 0 0-1.108.994l-.3.326c-1.45 1.467-2.803 3.015-4.075 4.466l-3.75 4.303a17.42 17.42 0 0 0-1.255 1.744l.4-2.885.293-2.526 1.092-9.47c.147-1.206.245-2.363.342-3.52v-.473l.08-.994.44-4.9.098-1.206.13.098a1.63 1.63 0 0 0 .407.163 3.54 3.54 0 0 0 1.369 0 4.36 4.36 0 0 0 .815-.18h.26l.88-.277a9.74 9.74 0 0 0 1.5-.636 26.45 26.45 0 0 0 2.477-1.451l.13-.08.245-.163a22.81 22.81 0 0 0 4.596-4.058 21.01 21.01 0 0 0 3.26-5.02 14.79 14.79 0 0 0 .717-1.76 15.04 15.04 0 0 0 .44-2.184l.082-.538c.147-.93.26-1.874.375-2.82.196-1.793.228-3.618.245-5.232v-3.146c0-.978 0-1.972-.18-3.015-.147-1.63-.375-3.34-.766-5.688-.13-.782-.3-1.63-.554-2.673s-.538-2.054-.83-2.934-.782-2.15-1-2.738l-.444-1.01-.098-.18a31.2 31.2 0 0 0-.522-1.222l-.212-.456V7.94l-.18-.424A15.66 15.66 0 0 0 82.8 5.69 9.52 9.52 0 0 0 79.66.8l-.424-.375a3.57 3.57 0 0 0-1.532-.424 5.05 5.05 0 0 0-1.94.342 3.65 3.65 0 0 0-.636.326L74.9.816c-.228.147-.473.293-.684.44l-.228.163-.375.212c-.8.603-1.516 1.2-2.168 1.793-2.996 2.628-5.75 5.52-8.23 8.638-1.23 1.523-2.366 3.118-3.406 4.775-.913 1.5-1.825 3.146-2.803 5.02l-.375.7-1.108 2.12-.36.717c-.326.652-.636 1.288-.896 1.956l-.082.212a16.68 16.68 0 0 0-.684 1.907 46.14 46.14 0 0 0-.391 1.63v.375a12.96 12.96 0 0 0 0 5.558c.297 1.338.85 2.605 1.63 3.732a21.28 21.28 0 0 0 1.385 1.842c.587.684 1.2 1.32 1.8 1.972s.8.782 1.206 1.157l.505.473 1.255 1.2.668.62a96.63 96.63 0 0 0 4.45 3.912l.196.13.098.3.114.326v.196c.024.152.067.3.13.44l-.098 1.157-.375 4.286-.163 2.02-.375 4.058-1.353 11.882-.424 3.65c-.505 4.53-1.027 9.2-1.842 13.772a100.43 100.43 0 0 1-1.385 5.28c-.455 1.548-1.157 3.44-1.63 4.9v-9.1l-.244-1.907c0-.18 0-.375-.098-.554l-.098-.456-.4-2.005a66.71 66.71 0 0 0-1.304-5.33c-1.255-4.384-2.477-8.15-3.732-11.67-.717-1.956-1.532-3.928-2.33-5.786s-1.483-3.488-2.233-5.02a46.3 46.3 0 0 0-3.455-5.444l-.62-.93-.5-.652a3.83 3.83 0 0 0-1.108-1.076l-.375-.163a2.28 2.28 0 0 0-2.135.342 3.26 3.26 0 0 0-.978 1.94 17.22 17.22 0 0 0-.147 4.303c0 1.288.212 2.6.342 3.75l.08.7v.8l.228 1.63.962 6.682 1.565 11.588c.277 1.8.57 3.732 1 5.6a39.99 39.99 0 0 0 1.972 5.9l.962 2.282c1.027 2.233 2.005 4.465 2.657 6.73.4 1.37.7 2.6.945 3.732s.62 2.77.847 4.303.4 2.95.5 4.1c0 .375.08.75.13 1.124v.538a29.82 29.82 0 0 1 .228 2.07v.5a2.15 2.15 0 0 0 0 .8l-.864 2.5-.277.782c-.44 1.27-.994 2.836-1.63 4.27-.717 1.7-1.353 3.13-1.972 4.433l-.782 1.027c-.83 1.108-1.63 2.314-2.738 3.88l-.163-1.744-.57-4.9-.163-2.494-.782-6.112c-.196-1.45-.456-2.836-.782-4.498l-.196-.978c-.212-1.14-.5-2.282-.766-3.406l-1-4.026c-.342-1.32-.668-2.38-1.076-3.635l-.44-1.255-.163-.5v-.195a5.4 5.4 0 0 0-1.108-2.119 1.71 1.71 0 0 0-.522-.456l-.26-.13a1.81 1.81 0 0 0-.7-.14 1.82 1.82 0 0 0-.7.14l-.245.147a2.54 2.54 0 0 0-.538.342 3.74 3.74 0 0 0-.636.734 6.13 6.13 0 0 0-.685 1.955 34.99 34.99 0 0 0-.83 7.612v9.355l.3 2.82.163 1.092.293 1.94v.147a35.56 35.56 0 0 0 1.288 5.884 39.52 39.52 0 0 0 2.477 5.688l.36.684.13.228-.098-.212a31.21 31.21 0 0 0-1.63-.945l-.945-.554-.685-.44-1.304-.766-.293-.163-2.25-1.288c-1.2-.668-2.233-1.222-3.26-1.63a64.72 64.72 0 0 0-5.264-2.33c-1.118-.472-2.28-.827-3.47-1.06-.608-.104-1.226-.137-1.842-.098a4.4 4.4 0 0 0-1.711.423 10.65 10.65 0 0 0-3.26 2.608c-.782.848-1.516 1.793-2.168 2.624a26.94 26.94 0 0 0-2.56 3.814c-.913 1.76-1.63 3.537-2.608 5.835l-.228.554c-.57 1.434-1.222 3.048-1.728 4.678a16.88 16.88 0 0 0-.652 3.047 6.03 6.03 0 0 0 .505 3.39c.272.542.65 1.024 1.108 1.418a2.73 2.73 0 0 0 .489.343 5.1 5.1 0 0 0 1.532.489 9.81 9.81 0 0 0 1.858.163h.554c.592.03 1.185.03 1.777 0 .782 0 1.63-.196 2.314-.3l.636-.098c1.63-.26 3.178-.554 4.76-.847l.717-.13 2.738-.52.815-.147h.228c.603-.098 1.206-.212 1.776-.375l1.206-.342.3-.098h.147l1.108-.326 1.255-.44c2.2-.75 4.352-1.63 6.438-2.575l.7-.293.456-.196 1.63-.668.8-.408-.407.522-.342.505-2.64 4.042-6.52 10.138-3.78 5.834-2.347 3.602-3.765 5.803a49.03 49.03 0 0 0-1.63 2.624l-2.25 3.487a1.91 1.91 0 0 0-.313 1.353c.07.474.315.905.688 1.206l.147.082c.404.226.877.294 1.33.192s.85-.368 1.116-.746c.62-.913 1.206-1.858 1.793-2.804l1.418-2.233 1.092-1.63 8.9-13.69 2.836-4.433.62-.962 2.87-4.433 3.113-4.775-.587 1.222-.44.93-2.46 5.134-1.288 2.543-.163.342c-.293.57-.587 1.14-.913 1.63l-.505.896-1.043 1.842-1.043 1.8-1.988 3.504a120.25 120.25 0 0 0-2.706 4.987l-.668 1.255-.848 1.63-.293.57c-.064.103-.12.212-.163.326v.146a65.69 65.69 0 0 0-3.26 6.894 1.89 1.89 0 0 0 .848 2.266l.244.114a1.89 1.89 0 0 0 2.396-1.108 52.81 52.81 0 0 1 2.33-5.053l.36-.717.26-.5.212-.4c.127-.216.24-.44.342-.668.053-.082.097-.17.13-.26l.195-.375.717-1.336.147-.26 4.612-8.377.766-1.32c.684-1.157 1.483-2.5 2.184-3.846l.375-.733.228-.424 2.217-4.303 2.657-5.54.326-.7.114-.228v.603c0 .93.147 1.858.277 2.852a27.07 27.07 0 0 0 1.32 5.851 50.06 50.06 0 0 0 2.331 5.183 63.65 63.65 0 0 0 5.525 9.583 21.74 21.74 0 0 0 2.705 2.934c.864.8 1.728 1.63 2.624 2.363a12.04 12.04 0 0 0 1.825 1.288 8.64 8.64 0 0 0 .913.456 7.4 7.4 0 0 0 1.988.456 3.26 3.26 0 0 0 2.168-.57 5.59 5.59 0 0 0 1.63-2.021l.62-1.2 2.282-4.335.326-.603 2.38-4.53a49.03 49.03 0 0 0 1.2-2.56l.522-1.385c.196-.522.375-1.076.522-1.63a6.41 6.41 0 0 0 .13-2.429 6.52 6.52 0 0 0-.44-1.629 7.37 7.37 0 0 0-1.01-1.793c-.56-.714-1.212-1.35-1.94-1.9l-.326-.277-2.428-1.94-.114-.098c-1.32-1.043-2.673-2.02-4.286-3.26l-12.436-8.817a6.43 6.43 0 0 0-1.043-.717l-.733-.392-.93-.44.293-.114a17.15 17.15 0 0 0 1.63-.684l.44-.196 2.608-1.14.244-.114.277.098 2.054-.88c2.054-.913 3.7-1.63 5.167-2.412l4.922-2.478a138.22 138.22 0 0 0 5.297-2.803 51.18 51.18 0 0 0 2.689-1.63l.424-.26c.685-.44 1.385-.897 2.037-1.386l.228-.212c.766-.57 1.467-1.092 2.12-1.63s1.548-1.352 2.298-2.037c1.76-1.63 3.618-3.26 5.362-5.183a12.03 12.03 0 0 0 1.141-1.418 3.63 3.63 0 0 0 .684-1.792c.015-.383-.06-.763-.218-1.1a2.44 2.44 0 0 0-.695-.894l-.293-.196a3.07 3.07 0 0 0-1.891-.261 6.83 6.83 0 0 0-1.14.245l-.326.08-1.37.375a41.04 41.04 0 0 0-5.672 1.972c-3.26 1.435-6.4 3.26-8.948 4.63l-1.304.717a155.55 155.55 0 0 0-5.688 3.26c-1.434.83-2.836 1.728-4.53 2.803l-.913.587-.407.26c-.44.277-.864.538-1.27.847l-1.956 1.435.098-.3 6.682-8.736c2.184-2.836 4.596-5.77 7.595-9.24l.896-.946.147-.162c.766-.815 1.63-1.728 2.5-2.543l.7-.652h5.362l2.33.082h1c.994 0 1.923.08 2.82 0a30.63 30.63 0 0 0 3.129-.261c.858-.135 1.707-.32 2.543-.554l1.63-.424a4.19 4.19 0 0 0 1.776-.782 2.17 2.17 0 0 0 .603-2.478 2.32 2.32 0 0 0-1.01-1.076 5.17 5.17 0 0 0-.62-.277 6.34 6.34 0 0 0-.864-.18h-.326l-1.353-.228a21.65 21.65 0 0 0-3.26-.147c-1.385 0-2.754 0-4.123.098h-1l-2.054.082 1.027-.8 1.14-.945 1.255-1.027.44-.342 3.357-2.706c1.5-1.222 3.26-2.542 5.558-4.32-.004.25.035.497.114.733a3.26 3.26 0 0 0 .594 1.137c.27.336.607.614.987.82a3.66 3.66 0 0 0 1.288.44 6.27 6.27 0 0 0 2.526-.277 15.75 15.75 0 0 0 1.63-.521 52.46 52.46 0 0 0 2.64-1.06l.473-.212-.196.424a17.53 17.53 0 0 0-.603 2.233c-.7 3.4-.277 5.704 1.304 7.1.148.122.306.23.473.326a2.97 2.97 0 0 0 .668.261 4.19 4.19 0 0 0 1.63.13 4.37 4.37 0 0 0 1.27-.342 7.06 7.06 0 0 0 1.63-.946 9.34 9.34 0 0 0 2.705-3.585c.797.896 1.646 1.745 2.543 2.542a15.32 15.32 0 0 0 2.233 1.728l.586.342a23.63 23.63 0 0 0 2.184 1.06c1.848.736 3.814 1.128 5.803 1.157 4.32.212 8.23-1.858 11.506-3.896zm-71.126-66.3a26.5 26.5 0 0 1-3.26-3.846 12.14 12.14 0 0 1-.848-1.809 12.13 12.13 0 0 1-.342-2.233 16.84 16.84 0 0 1 .375-2.95v-.195l.147-.668a10.8 10.8 0 0 1 .505-1.434c.26-.668.522-1.222.766-1.76a41.25 41.25 0 0 1 1.337-2.689l.114-.228v-.13a72.1 72.1 0 0 1 3.96-6.65 62.86 62.86 0 0 1 5.052-6.373c.815-.864 1.532-1.63 2.233-2.298-.75.93-1.45 1.907-2.037 2.754l-.668.93c-.228.3-.424.62-.636.945l-.13.212-.342.522-1.19 1.858-.114.196a36.59 36.59 0 0 0-2.33 4.205c-.594 1.424-1.084 2.9-1.467 4.384l-1.125 4.27a27.06 27.06 0 0 0-.701 4.694 26.29 26.29 0 0 0 .18 4.89c.13 1.108.277 2.282.522 3.47v-.065zm2.25-6.422a26.82 26.82 0 0 1 .505-5.525c.358-1.532.766-2.982 1.255-4.726v-.212c.245-.896.473-1.63.766-2.445a24.45 24.45 0 0 1 1.239-2.412c1.328-2.387 2.787-4.7 4.368-6.927l1.092-1.532-.114.26-.18.456c-.26.668-.538 1.353-.75 2.02-.603 1.793-1.288 3.814-1.874 5.867s-1.06 3.553-1.63 5.15l-1.972 5.9c-.636 1.972-1.108 3.78-1.516 5.574a22.5 22.5 0 0 0-.538 3.863 38.45 38.45 0 0 1-.652-5.248v-.065zm4.4 4.172a20.81 20.81 0 0 1 .473-2.56c.847-3.44 2.037-6.878 3.08-9.9l.36-1.027.962-2.95.326-1.14v-.26c.114-.375.212-.75.342-1.125.554-1.825 1.157-3.765 1.858-5.623v-.228l.196-.522.7-1.858-.245 1-.93 4.9-.098.554-.587 3.26v.587L73.32 26.6c-.245 1.125-.8 2.77-1.304 4.172s-1.06 2.787-1.548 3.977l-.114.277-.847 2.135-.196.52-.228.57-.407 1.043c-.407 1.043-.782 2.102-1.157 3.146l-.13.375a26.17 26.17 0 0 1 .13-2.624v-.065zm5.28 5.5a23.45 23.45 0 0 1-1.076 1.63l-.375.538-.538.782-.163.245-.375.538a1.63 1.63 0 0 0-.733-.913 1.86 1.86 0 0 0-.717-.212h-.18a3.95 3.95 0 0 1 .244-.7c.18-.44.342-.88.505-1.32l.244-.636.7-2.005.4-1.076.147-.4.245-.636 1.63-4.22.652-1.9c.342-.847.684-1.63 1-2.526.554-1.402 1-2.917 1.37-4.123a39.72 39.72 0 0 0 .962-4.449v-.36l1.63-9.192 1.06-5.427v1.9c0 3.26-.18 6.943-.456 11.4a78.72 78.72 0 0 1-1.451 10.936l-.098.424-.228.864a40.36 40.36 0 0 1-1.288 3.895 44.4 44.4 0 0 1-2.07 4.612c-.18.782-.603 1.516-1.043 2.314zm8.834-12.484v-.163l.147-.815c.677-3.66 1.08-7.364 1.206-11.083l.196-1.777v-.4l.358 2.12v.244c.362 2.157.6 4.334.684 6.52v5.933c0 1.027-.098 1.63-.26 3.048s-.342 2.575-.538 3.537a14.29 14.29 0 0 1-1.043 2.5c-.42.74-.877 1.458-1.37 2.15-.97 1.38-2.14 2.604-3.472 3.635-.717.538-1.467 1.06-2.265 1.63-.5.277-.978.57-1.483.815l-.196.098.5-.7c.538-.782 1.076-1.63 1.63-2.38a44.78 44.78 0 0 0 2.787-5.134 47.45 47.45 0 0 0 2.07-5.313c.293-.864.522-1.744.75-2.624.082-.62.228-1.27.326-1.923l-.016.065zM51.138 101.38l-.945-2.298-.18-.407-.163-.4c-.7-1.63-1.63-3.667-2.233-5.656a74.84 74.84 0 0 1-1.923-10.545v-.4l-.3-2.314-1.288-9.42-.163-1.076v-.326l-.375-2.673-.13-1.027v-.245c-.18-1.402-.358-2.836-.424-4.254.163.4.358.75.554 1.108l.114.195c1.483 2.787 2.722 5.72 3.814 8.312l.44 1.027c1.63 3.683 2.754 7.416 3.863 10.92l.52 1.63.293.994c.26.847.505 1.63.7 2.575l.277 1.173.668 3.015.407 2.102v.326a15.08 15.08 0 0 1 .212 1.5l.08.8c0 .505.098 1 .13 1.516v3.2c0 1.793 0 3.456-.114 5.053 0 .896-.18 1.793-.293 2.673s-.212 1.63-.375 2.33l-.244 1.1a58.8 58.8 0 0 0-2.917-10.545zm21.188-12.5l-.782 1.287c-.685 1.125-1.37 2.25-2.103 3.26a100.24 100.24 0 0 1-3.537 4.89L65.4 99l.424-1.923.228-1 .18-.668.18-.636 1.14-4.107a81.26 81.26 0 0 1 .88-2.852 22.45 22.45 0 0 1 1.255-3.26 21.93 21.93 0 0 1 1.793-2.754c.456-.603.962-1.173 1.45-1.728l.522-.587 3.944-4.515 1.124-1.2.212-.228.114-.13v.196c0 .407-.147.815-.244 1.24a52.29 52.29 0 0 1-1.94 5.54 40.04 40.04 0 0 1-1.63 3.912l-2.738 4.596.033-.016zm-40.892 63.77l-.4.147a70.21 70.21 0 0 1-2.836 1.206 87.23 87.23 0 0 1-4.971 1.842l-.8.244-.44.13c-.75.212-1.516.358-2.265.505h-.375l-.848.163-5.036.945-2.754.5c-1.173.196-2.445.408-3.7.505a16.48 16.48 0 0 1-2.869-.163l-.114-.146-.13-.3c-.012-.2-.012-.38 0-.57.016-.548.076-1.093.18-1.63a50.53 50.53 0 0 1 2.021-5.721l1.304-3.26a19.46 19.46 0 0 1 1.076-2.33l.196-.375a25.8 25.8 0 0 1 2.363-3.472c.8-1.043 1.483-1.9 2.15-2.624a10.24 10.24 0 0 1 1.63-1.336c.1.002.217.007.326.016.547-.018 1.093.026 1.63.13a29.22 29.22 0 0 1 3.504 1.32l.62.26c1.174.5 2.445 1.076 3.895 1.793l2.037 1.125c1.76.978 3.504 2.005 5.232 3.03.782.457 1.63.93 2.347 1.418l-.277-.097-2.673-.26-1.092-.114-1.63-.163a24.19 24.19 0 0 0-2.706-.098h-1.744c-.487.016-.97.098-1.434.244a2.41 2.41 0 0 0-1.548 1.5 2.9 2.9 0 0 0 0 1.075 2.24 2.24 0 0 0 .52 1.092l.505.506.212.195a2.18 2.18 0 0 0 .391.277l.407.196c.975.444 2 .793 3.032 1.043a124.43 124.43 0 0 0 5.036 1.2c.177.038.36.038.538 0l-.52.08zm6.112-2.705l-.4.195a15.17 15.17 0 0 1-1.63.717l-.456.196-2.347 1h-.098a1.81 1.81 0 0 0 .603-1.19 1.83 1.83 0 0 0-.075-.72c-.073-.233-.2-.448-.35-.634l-.147-.147h.228l.7.082h.18c1.157.13 2.33.228 3.504.326h.424l-.147.163zm8.964 6.65h.5a1.87 1.87 0 0 0-.261 2.607l6.096 8.508a1.74 1.74 0 0 0 .131 2.119l.342.375c.456.505.913 1 1.402 1.466l.7.67.766.717a1.23 1.23 0 0 0 .261.195c.317.158.66.257 1 .294a1.83 1.83 0 0 0 1.63-.783c.18-.26.292-.564.326-.88a1.86 1.86 0 0 0-.147-.929c-.126-.34-.296-.664-.505-.96L58 168.87c-.277-.44-.587-.88-.88-1.32l-.13-.18-2.053-2.918-5.444-7.578a1.62 1.62 0 0 0-.521-.489 1.76 1.76 0 0 0-.685-.212 4.22 4.22 0 0 0 .896-.505l1.108.814 8.263 5.868c2.77 1.988 5.916 4.237 8.77 6.747a6.48 6.48 0 0 1 .717.799 7.4 7.4 0 0 1 .456 1.027c0 .26.098.52.114.782a4.78 4.78 0 0 1 0 .505 36.98 36.98 0 0 1-2.836 6.52l-.978 1.825-2.037 3.863c-.505.912-.994 1.825-1.467 2.754a10.16 10.16 0 0 1-.652 1.108h-.147a7.05 7.05 0 0 1-.93-.342 20.31 20.31 0 0 1-3.113-2.493l-.26-.23c-1.726-1.7-3.237-3.604-4.498-5.67-1.2-1.973-2.282-4.06-3.26-5.868a56.19 56.19 0 0 1-2.673-5.98 44.01 44.01 0 0 1-1.32-9.779v-1.63a4.54 4.54 0 0 0 2.07.293v.017zm.7-11.67l2.5-2.15c.26-.23.522-.424.8-.62l.163-.114.13-.098.26-.146.897-.67 1.956-1.45a16.35 16.35 0 0 1 1.157-.799L59.54 136l1.385-.8 3.26-1.874 5.802-3.26c1.923-1.043 3.472-1.858 4.9-2.56.88-.423 1.76-.815 2.657-1.2s1.63-.57 2.33-.832h.36l.407-.13h.212l-4.254 3.88-.93.83c-1.8 1.556-3.698 2.973-5.704 4.238-1.63 1.026-3.26 1.94-4.9 2.803l-4.9 2.494-5.264 2.6c-.766.36-1.548.685-2.314 1.027l-.424.18-2.38 1.043-.733.326h-.163l-.326.13-1.206.52-.75.342.08-.244v-.147l.505-.456zM94.77 72.66a30.62 30.62 0 0 1-.945-6.633 19.36 19.36 0 0 1 .147-3.439c.14-.47.314-.926.52-1.37a12.89 12.89 0 0 1 2.999-3.586c.554-.456 1.108-.88 1.63-1.288l.228-.147.163-.098a10.52 10.52 0 0 1 .977-.538 31.5 31.5 0 0 1 4.124-1.63c2.396-.684 5.004-1.288 8.426-1.956 2.797-.55 5.63-.905 8.475-1.06 1.273-.027 2.545.072 3.798.293.82.217 1.62.5 2.396.847a16.3 16.3 0 0 1 2.738 1.923c.766.75 1.516 1.63 2.12 2.298l.472.538h-.244l-5.02 1.548-1.125.358c-1.352.424-2.7.848-4.025 1.337l-5.967 2.183-.52.196c-1.14.424-2.25.847-3.34 1.32a27.99 27.99 0 0 0-3.537 2.005 31.12 31.12 0 0 0-1.532 1.01c-.568.426-1.112.883-1.63 1.37a22.52 22.52 0 0 0-4.123 5.2l-1.63 2.803a17.5 17.5 0 0 0-.848 1.972l-.163.538-.147-.08-.52-.212a10.35 10.35 0 0 1-1.255-.913 14.91 14.91 0 0 1-1.19-1.499c-.6-1.043-1.085-2.147-1.45-3.292zm7.97 33.28c-.24.23-.496.443-.766.636a5.47 5.47 0 0 1-.701.31h-.147c.018-.06.018-.12 0-.18-.077-.365-.132-.735-.163-1.108a15.15 15.15 0 0 1 .277-2.265c.26-1 .603-2.005.913-2.934.262-.72.437-1.47.52-2.233a2.63 2.63 0 0 0-1.01-2.298l-.18-.098a2.48 2.48 0 0 0-1.369-.277 3.73 3.73 0 0 0-.978.212c-.433.143-.853.323-1.255.538h-.13l-.407.196-1.092.505-.44.196c-.962.407-1.858.75-2.706 1.027-.487.137-.982.24-1.483.3 0-.4 0-.62.114-.864a6.56 6.56 0 0 1 .293-.782 9.93 9.93 0 0 1 .815-1.108l.587-.587.212-.228a32.89 32.89 0 0 1 2.983-2.559l.978-.766.36-.293.44-.36a3.11 3.11 0 0 0 .8-1.01 2.31 2.31 0 0 0 .196-1.336c-.047-.22-.118-.432-.212-.636a2.25 2.25 0 0 0-.717-.831l-.26-.163-.57-.277-.326-.114-.326-.098-.326-.114c-1.207-.43-2.384-.94-3.52-1.532-1.384-.75-2.693-1.628-3.912-2.624a9.67 9.67 0 0 1-1.173-1.353 9.15 9.15 0 0 1-.36-.782h.13a50.07 50.07 0 0 1 3.618 1.01l1.9.62a1.71 1.71 0 0 0 .831 1.108l.293.13 2.542.83a1.89 1.89 0 0 0 2.249-.815v.26a12.48 12.48 0 0 0 .456 2.184l.636 1.907a27.57 27.57 0 0 0 2.396 5.444c.326.564.685 1.108 1.075 1.63.482.602 1.03 1.148 1.63 1.63a1.36 1.36 0 0 0-.326.831v1.255a16.41 16.41 0 0 0 0 1.63v.36c0 .244-.114.52-.163.782v.424c-.266 1.072-.637 2.114-1.108 3.113a9.94 9.94 0 0 1-1.108 1.548zm7.448-11.213a17.84 17.84 0 0 1-2.738-1.956c-.54-.566-1.027-1.183-1.45-1.842a24.66 24.66 0 0 1-1.385-2.771c-.424-1-.864-2.2-1.336-3.602a13.54 13.54 0 0 1-.538-2.706 13.4 13.4 0 0 1 .212-2.217 13.31 13.31 0 0 1 .766-1.923l.114-.212a28.77 28.77 0 0 1 3.797-5.574c.6-.608 1.2-1.184 1.858-1.728a16.81 16.81 0 0 1 1.94-1.385 26.65 26.65 0 0 1 4.726-2.347l6.666-2.455 1.728-.62c1.043-.4 2.102-.717 3.162-1.06h.212l.83-.26 1.874-.603 4.042-1.27 1.8-.538a7.52 7.52 0 0 0 1.223.261l.603.098a8.89 8.89 0 0 1 .994.359 7.61 7.61 0 0 1 1.059.75 9.69 9.69 0 0 1 1.027 1.288 7.82 7.82 0 0 1 .473 1.043c.085.403.145.812.18 1.222a34.76 34.76 0 0 1-.913 7.514 21.93 21.93 0 0 1-1.059 2.771c-.424 1.027-.93 2.02-1.418 2.934-.962 1.793-1.842 3.26-2.7 4.66a24.47 24.47 0 0 1-1.549 2.249c-.586.733-1.2 1.45-1.8 2.15a29.8 29.8 0 0 1-2.787 2.673c-1.157.945-2.38 1.76-3.422 2.445a35.53 35.53 0 0 1-6.911 3.26c-.603.163-1.206.3-1.825.456s-1.243.28-1.875.36a13.79 13.79 0 0 1-2.33-.196c-.538-.147-1.06-.3-1.63-.5-.556-.22-1.1-.47-1.63-.75zm7.628 13.82a19.75 19.75 0 0 1-3.26-1.288 16.37 16.37 0 0 1-2.754-2.037c-.814-.78-1.556-1.63-2.217-2.542a7.1 7.1 0 0 1-.473-1.011 11.48 11.48 0 0 1-.228-1.222 24.79 24.79 0 0 1 .408-.994l.114-.277.08-.212.18-.44a11.16 11.16 0 0 0 1.76.7 20.13 20.13 0 0 0 2.086.489 10.51 10.51 0 0 0 1.842.114c2.154-.054 4.285-.462 6.307-1.206a15.5 15.5 0 0 0 1.874-.815l.554-.26c.88-.407 1.744-.847 2.64-1.337s1.874-1.125 2.7-1.63a28.47 28.47 0 0 0 2.298-1.63 35.49 35.49 0 0 0 4.335-4.156c.766-.88 1.337-1.63 1.858-2.298s.848-1.24 1.24-1.858l.212-.342c.994-1.63 1.956-3.26 3.015-5.4a24.96 24.96 0 0 0 2.07-5.085l.522.864a10.59 10.59 0 0 1 .88 1.63 32.96 32.96 0 0 1 .652 5.2c.022 1.4-.093 2.818-.343 4.205-.228.864-.554 1.76-.83 2.543v.342c-.27.75-.58 1.484-.93 2.2-.635 1.092-1.32 2.25-2.102 3.374-.408.587-.832 1.2-1.288 1.744l-.968 1.158-.228.277c-1.434 1.5-3 3.015-4.9 4.76-.815.733-1.63 1.45-2.706 2.2s-1.63 1.14-2.445 1.63a29.54 29.54 0 0 1-5.492 2.608 15.52 15.52 0 0 1-2.722.472 19.44 19.44 0 0 1-3.716-.456h-.016z"/></svg>