<svg width="151" height="197" viewBox="0 0 151 197" fill="none" xmlns="http://www.w3.org/2000/svg">
<path d="M124.58 65.7164C124.305 65.5547 123.98 65.5023 123.668 65.5697C122.197 65.8929 120.749 66.3122 119.332 66.8247C118.065 67.3058 116.834 67.8777 115.649 68.536C114.687 69.0575 113.726 69.5628 112.78 70.1658C111.835 70.7688 110.727 71.3556 109.7 71.9749C109.113 72.3335 108.527 72.7246 107.989 73.1321C107.411 73.5364 106.913 74.0449 106.522 74.6316C106.384 74.8101 106.285 75.0153 106.231 75.2341C106.177 75.4528 106.169 75.6805 106.207 75.9025C106.246 76.1246 106.33 76.3364 106.454 76.5244C106.578 76.7124 106.74 76.8726 106.929 76.9948C107.14 77.143 107.386 77.2323 107.643 77.2537C107.9 77.2751 108.157 77.2278 108.39 77.1166C108.622 77.0054 108.821 76.8344 108.965 76.6211C109.109 76.4078 109.194 76.1598 109.211 75.9028C109.814 75.3751 110.457 74.8955 111.134 74.4686C112.259 73.784 113.383 73.1321 114.541 72.4965L116.839 71.2415C118.474 70.343 120.194 69.6061 121.973 69.0412C122.69 68.8294 123.407 68.6501 124.124 68.4871C124.496 68.4229 124.829 68.2177 125.054 67.9141C125.279 67.6105 125.378 67.2319 125.33 66.8573C125.302 66.6221 125.219 66.3966 125.089 66.1987C124.959 66.0007 124.785 65.8356 124.58 65.7164Z" fill="#3A3C51"/>
<path d="M120.309 90.4407L121.352 90.0658C121.678 89.9517 122.004 89.805 122.33 89.6747C122.941 89.3946 123.53 89.0676 124.09 88.6968C124.867 88.2136 125.579 87.633 126.209 86.9691C126.763 86.3661 127.317 85.7631 127.839 85.1437C128.719 84.1169 129.469 83.0086 130.316 81.8841C131.164 80.7595 132.109 79.3578 132.989 78.0865C133.206 77.7697 133.289 77.3807 133.222 77.0029C133.155 76.6251 132.943 76.2886 132.631 76.0655H132.516C132.202 75.8897 131.834 75.8357 131.482 75.9138C131.131 75.992 130.82 76.1968 130.61 76.4893C128.768 79.1459 126.894 81.7863 124.807 84.2636L123.927 85.0785C123.425 85.5528 122.88 85.9784 122.297 86.3498C121.855 86.6145 121.398 86.8539 120.928 87.0669C120.293 87.344 119.657 87.5559 119.021 87.8003C118.708 87.9763 118.471 88.261 118.354 88.6004C118.237 88.9399 118.248 89.3105 118.386 89.6421C118.537 90.0011 118.824 90.2862 119.184 90.4357C119.544 90.5851 119.948 90.5869 120.309 90.4407Z" fill="#3A3C51"/>
<path d="M115.582 55.9538C115.954 55.8896 116.287 55.6844 116.512 55.3808C116.736 55.0772 116.835 54.6986 116.788 54.3239C116.748 54.1054 116.66 53.8984 116.53 53.718C116.401 53.5376 116.232 53.3883 116.038 53.2808C115.762 53.1207 115.439 53.063 115.125 53.1179C111.866 53.7698 108.606 54.4054 105.346 55.2041C103.777 55.5495 102.26 56.0974 100.832 56.8339C100.12 57.2187 99.4343 57.6487 98.7781 58.1215C98.1025 58.6458 97.4802 59.2354 96.9201 59.8817C96.6182 60.2203 96.3558 60.5921 96.1377 60.99C95.9374 61.3047 95.8511 61.6786 95.8933 62.0494C95.9536 62.4234 96.1579 62.759 96.4625 62.9844C96.767 63.2098 97.1477 63.3071 97.5231 63.2554C97.7137 63.2254 97.896 63.1563 98.0587 63.0526C98.2213 62.9488 98.3608 62.8126 98.4684 62.6524C98.7199 62.2122 99.0206 61.8022 99.3648 61.43C99.9736 60.824 100.64 60.2782 101.353 59.8002C101.81 59.5231 102.282 59.2786 102.771 59.0342C103.247 58.812 103.737 58.6214 104.238 58.4637C105.868 57.9911 107.498 57.6162 109.242 57.2413C111.377 56.7524 113.479 56.3612 115.582 55.9538Z" fill="#3A3C51"/>
<path d="M131.994 108.678C133.686 107.645 135.289 106.473 136.786 105.174C138.269 103.854 139.671 102.518 141.089 101.1C142.504 99.7148 143.796 98.2097 144.951 96.6014L145.065 96.4384C145.538 95.7538 146.043 95.053 146.467 94.3196L146.777 93.7818C147.246 93.0138 147.671 92.2192 148.048 91.4022C148.423 90.5384 148.733 89.6746 149.058 88.7456V88.5826C149.511 87.3437 149.828 86.0596 150.004 84.7525C150.244 82.755 150.244 80.7359 150.004 78.7384C149.922 78.0539 149.825 77.353 149.71 76.6685C149.63 76.1174 149.51 75.5727 149.352 75.0387C149.2 74.6014 149.003 74.1809 148.765 73.7837C148.148 72.6631 147.473 71.5751 146.744 70.524L146.271 69.8395C146.15 69.6479 145.982 69.4908 145.783 69.3832C145.62 69.2942 145.444 69.2336 145.261 69.2039L145.408 68.5193C145.535 67.6553 145.611 66.7846 145.636 65.9116C145.682 65.0028 145.644 64.0916 145.522 63.1898C145.138 61.2329 144.111 59.4603 142.604 58.1536C142.155 57.7528 141.663 57.403 141.138 57.1105C140.828 56.9312 140.502 56.7845 140.176 56.6379C139.567 56.4072 138.932 56.2539 138.285 56.1815L137.959 55.9696L137.796 55.8718C137.569 55.745 137.321 55.6621 137.063 55.6274C136.492 55.0243 135.938 54.3887 135.433 53.7368C134.928 53.0848 134.325 52.4492 133.803 51.8624C132.729 50.737 131.5 49.771 130.152 48.9939C129.625 48.715 129.081 48.4701 128.523 48.2605C126.697 47.5847 124.764 47.2478 122.818 47.2663C120.845 47.2729 118.874 47.409 116.918 47.6738C113.111 48.2082 109.335 48.9481 105.607 49.8904C103.662 50.3619 101.759 50.9942 99.919 51.781C99.5116 51.9602 99.1204 52.1558 98.7456 52.3677H98.5989L98.1262 52.6448C98.0109 52.6981 97.9016 52.7637 97.8003 52.8403C97.6084 52.9425 97.4234 53.0568 97.2461 53.1826L97.0179 53.3456C96.1627 53.8906 95.3507 54.5009 94.5895 55.171C93.812 55.8891 93.0875 56.6626 92.4218 57.4854C91.7696 58.2875 91.2219 59.1692 90.792 60.1094C90.3203 61.173 90.0654 62.3199 90.0423 63.4832C89.977 65.2993 90.0315 67.1178 90.2052 68.9268C90.2052 69.5461 90.3682 70.1655 90.466 70.7848V70.9478V71.1108V71.4693C90.6482 72.435 90.8932 73.3878 91.1994 74.3215C91.426 75.0331 91.7094 75.7253 92.0469 76.3914C92.2942 76.9177 92.5718 77.4293 92.8782 77.9235L92.6337 77.7931L91.6232 77.4997L91.2809 77.4019L90.8572 77.2878C90.1237 77.076 89.374 76.8641 88.608 76.6848C88.0756 76.5467 87.5281 76.4755 86.9782 76.4729C86.6688 76.4538 86.3585 76.4538 86.0492 76.4729C85.8331 76.5094 85.6205 76.5639 85.4135 76.6359H85.1854C84.9119 76.7553 84.6545 76.9086 84.4193 77.0923L84.3052 77.2064C84.0467 77.4266 83.8454 77.7062 83.7185 78.0213C83.5166 78.7131 83.5166 79.4482 83.7185 80.14C83.8754 80.6965 84.0715 81.2411 84.3052 81.7699C84.5498 82.2779 84.8389 82.7634 85.1691 83.2204C85.7084 83.9492 86.3382 84.6064 87.0434 85.1762C87.8087 85.7993 88.6145 86.371 89.4555 86.8876L90.5964 87.5558C91.7772 88.2148 92.9963 88.8026 94.2472 89.316L94.0191 89.4464L93.579 89.7887C92.8782 90.3428 92.1447 90.9784 91.4276 91.6467C91.118 91.9237 90.8246 92.2171 90.5312 92.5268L90.4171 92.6735C90.3244 92.73 90.2418 92.8016 90.1726 92.8853C89.9011 92.9444 89.6454 93.0611 89.4229 93.2276L84.8431 96.6503L84.3378 97.0414L83.2947 97.8237L82.7895 98.2149C81.8605 98.932 80.9315 99.6654 80.0188 100.399L79.6602 100.676L78.666 101.491L77.5577 102.371C76.5309 103.186 75.5041 104.001 74.5099 104.865L69.1315 109.444C68.6589 109.836 68.2188 110.259 67.7787 110.683L67.2246 111.221L66.0837 112.28L64.9591 113.34L64.4702 113.845L64.242 114.106L63.4597 114.921L62.6937 115.719C62.0743 116.371 61.455 117.023 60.8519 117.691C59.4014 119.321 57.9508 121.098 56.5329 122.825C55.995 123.477 55.4572 124.146 54.9031 124.83L55.1475 124.292L55.4735 123.868L55.5876 123.494L55.9299 122.418C56.3699 121.049 56.8263 119.663 57.3315 118.294C57.9671 116.485 58.7169 114.513 59.6622 112.085L60.2326 111.302C61.3083 109.836 62.4655 108.434 63.7531 106.902L64.9428 105.468C65.8066 104.441 66.6705 103.414 67.5017 102.371C68.5937 101.002 69.7019 99.5188 70.8917 97.84C72.0815 96.1613 72.9942 94.7434 74.0536 92.9505L74.5751 92.103C75.3738 90.7992 76.205 89.4953 76.9384 88.1914C78.9914 84.6579 80.5904 80.8794 81.6975 76.9456C82.0805 75.6541 82.3317 74.3272 82.4472 72.9851C82.5551 72.3409 82.5328 71.6816 82.3816 71.0462C82.2305 70.4107 81.9535 69.812 81.5671 69.2854C81.4256 69.1149 81.2544 68.9713 81.0619 68.8616C80.9085 68.7747 80.744 68.7089 80.5729 68.666C80.1908 68.5917 79.7979 68.5917 79.4157 68.666C79.0948 68.7113 78.7852 68.8163 78.503 68.9757C78.3209 69.0643 78.1465 69.1678 77.9815 69.2854L77.7533 69.4483C77.3453 69.7341 76.9733 70.0679 76.645 70.4426L76.3354 70.7685C74.8848 72.2354 73.532 73.7837 72.2608 75.2343C70.9895 76.6848 69.7834 78.0539 68.5122 79.537C68.0584 80.0919 67.6392 80.6744 67.2572 81.2809L67.6484 78.3961L67.9417 75.8699L68.3166 72.6102C68.5448 70.5403 68.7892 68.4705 69.0337 66.4006C69.1804 65.1945 69.2782 64.0373 69.376 62.8801V62.4075L69.4575 61.4133L69.8975 56.5238L69.9953 55.3177L70.1257 55.4155C70.2535 55.4879 70.3906 55.5428 70.5332 55.5785C70.9852 55.6676 71.4502 55.6676 71.9022 55.5785C72.1789 55.5448 72.4518 55.4847 72.7171 55.3992H72.9779L73.858 55.1221C74.3748 54.9527 74.8764 54.7401 75.3575 54.4865C76.2089 54.0482 77.0359 53.5639 77.8348 53.0359L77.9652 52.9544L78.2097 52.7915C79.9173 51.6516 81.4633 50.2865 82.8058 48.7332C84.1271 47.2246 85.2249 45.534 86.0655 43.7133C86.342 43.1425 86.5816 42.5546 86.7826 41.9531C86.9831 41.2369 87.1301 40.507 87.2226 39.7691L87.3041 39.2312C87.4508 38.3022 87.5649 37.3569 87.679 36.4116C87.8746 34.6188 87.9072 32.7934 87.9235 31.1799V30.8376C87.9235 30.1531 87.9235 29.4848 87.9235 28.8003V28.0343C87.9235 27.0564 87.9235 26.0622 87.7442 25.0191C87.5975 23.3893 87.3693 21.6779 86.9782 19.331C86.8478 18.5487 86.6685 17.7012 86.424 16.6581C86.1796 15.615 85.8862 14.6045 85.5928 13.7244C85.2994 12.8442 84.8105 11.573 84.5823 10.9862L84.1586 9.95944L84.0608 9.78016C83.8815 9.34011 83.7185 8.94895 83.5392 8.55779L83.3273 8.10143V7.93845L83.1481 7.5147C83.0698 6.89884 82.95 6.28898 82.7895 5.68928C82.2861 3.77113 81.1912 2.06032 79.6602 0.799784L79.2365 0.424923C78.7641 0.170307 78.2405 0.0254636 77.7044 0.0011661C77.0417 -0.0130737 76.3827 0.103224 75.7649 0.343431C75.5429 0.431047 75.33 0.540225 75.1293 0.669398L74.9011 0.816083C74.6729 0.962768 74.4285 1.10945 74.2166 1.25614L73.9884 1.41912L73.6135 1.631C72.8149 2.23404 72.0978 2.82078 71.4459 3.42382C68.4496 6.05137 65.695 8.94232 63.2152 12.0619C61.9864 13.585 60.849 15.1796 59.8089 16.8373C58.8961 18.3368 57.9834 19.9829 57.0055 21.8572L56.6307 22.5581C56.2558 23.2589 55.881 23.9597 55.5224 24.6768L55.1638 25.394C54.8379 26.0459 54.5282 26.6815 54.2674 27.3498L54.1859 27.5616C53.9193 28.1828 53.6907 28.8196 53.5014 29.4685C53.3547 30.0227 53.2243 30.5931 53.1102 31.0984V31.4732C52.7083 33.304 52.7083 35.2002 53.1102 37.031C53.407 38.3688 53.9605 39.6363 54.7401 40.7633C55.1683 41.4018 55.6307 42.0166 56.1254 42.605C56.7122 43.2895 57.3152 43.9252 57.9345 44.5771C58.5539 45.229 58.7332 45.3594 59.1406 45.7343L59.6459 46.2069L60.9008 47.3967L61.5691 48.016C62.8566 49.2221 64.3072 50.5097 66.0185 51.9276L66.2141 52.058L66.3119 52.3677L66.426 52.6937V52.8892C66.4497 53.0411 66.4935 53.1891 66.5564 53.3293L66.4586 54.4865C66.3445 55.9207 66.2141 57.355 66.0837 58.7729L66.0022 59.7834L65.9207 60.7939C65.8066 62.1467 65.6926 63.4995 65.5459 64.8522L65.0243 69.4483C64.7527 71.8822 64.4756 74.3107 64.1931 76.7337C64.0464 77.9561 63.916 79.1785 63.7693 80.3845C63.2641 84.9155 62.7426 89.5931 61.9276 94.1566C61.455 96.1613 60.9986 97.8889 60.5423 99.4373C60.0859 100.986 59.3851 102.876 58.9124 104.327V103.544C58.9124 102.469 58.9124 101.246 58.9124 99.7958C58.9124 99.2091 58.9124 98.6224 58.9124 98.0356V97.7911V97.1881V96.2428C58.9124 96.0472 58.9124 95.8679 58.9124 95.6724V95.216L58.668 93.3091C58.668 93.1298 58.668 92.9342 58.5702 92.755L58.4724 92.2986L58.0812 90.2939C57.7553 88.6641 57.3315 86.9039 56.7774 84.9644C55.5224 80.5801 54.3 76.8152 53.045 73.2948C52.3279 71.339 51.513 69.3669 50.7144 67.5088C49.9158 65.6508 49.2312 64.021 48.4815 62.489C47.4577 60.5963 46.3031 58.7774 45.0263 57.0453L44.4069 56.1163L43.918 55.4644C43.6254 55.0343 43.2483 54.6683 42.8097 54.3887L42.4348 54.2257C42.0784 54.1018 41.6968 54.0681 41.3242 54.1279C40.9516 54.1876 40.5996 54.3388 40.2998 54.568C39.7616 55.0837 39.4165 55.7682 39.3219 56.5075C39.0932 57.9299 39.0439 59.3755 39.1752 60.8102C39.1752 62.0978 39.387 63.4017 39.5174 64.5589L39.5989 65.2597V65.6019V66.0583L39.8271 67.6881C40.1531 69.8612 40.4736 72.0887 40.7887 74.3704C41.0006 75.821 41.1962 77.2715 41.3754 78.7221L41.4895 79.5696C41.7666 81.7047 42.0437 83.8398 42.3533 85.9586C42.6304 87.7677 42.9238 89.6909 43.3638 91.5489C43.867 93.5638 44.5263 95.5364 45.3359 97.4489L46.2975 99.7306C47.3243 101.964 48.3022 104.196 48.9542 106.462C49.3453 107.831 49.655 109.053 49.8995 110.194C50.1439 111.335 50.5188 112.965 50.747 114.497C50.9752 116.029 51.1381 117.447 51.2359 118.588C51.2359 118.963 51.3174 119.338 51.3663 119.712V120.087V120.25C51.4641 120.935 51.5456 121.636 51.5945 122.32C51.5945 122.483 51.5945 122.646 51.5945 122.809C51.5454 123.073 51.5454 123.344 51.5945 123.608C51.3174 124.423 51.0241 125.238 50.7307 126.118L50.4536 126.9C50.0136 128.171 49.4594 129.736 48.8238 131.17C48.1067 132.881 47.471 134.299 46.8517 135.603L46.0694 136.63C45.2381 137.738 44.4395 138.944 43.3312 140.509L43.1683 138.765L42.5978 133.876L42.4348 131.382C42.1904 129.345 41.9296 127.307 41.6525 125.27C41.4569 123.82 41.1962 122.434 40.8702 120.772L40.6746 119.794C40.4627 118.653 40.1857 117.512 39.9086 116.388C39.5663 115.002 39.2404 113.682 38.8981 112.362C38.5558 111.042 38.2299 109.982 37.8224 108.727L37.3824 107.472L37.2194 106.983V106.788C37.0131 106.008 36.6344 105.284 36.1111 104.669C35.9702 104.483 35.7927 104.328 35.5895 104.213L35.3288 104.082C35.1069 103.989 34.8686 103.941 34.6279 103.941C34.3873 103.941 34.149 103.989 33.9271 104.082L33.6826 104.229C33.4896 104.32 33.3089 104.435 33.1448 104.571C32.9019 104.787 32.6882 105.034 32.5092 105.305C32.1719 105.913 31.9404 106.574 31.8246 107.26C31.2704 109.76 30.9916 112.312 30.9934 114.872V118.36C30.9934 118.865 30.9934 119.37 30.9934 119.875V120.169V121.228V121.701C30.9934 122.01 30.9934 122.32 30.9934 122.614V123.428V124.227C31.0912 125.221 31.1727 126.134 31.3031 127.047L31.4661 128.139L31.7594 130.078V130.225C32.0213 132.219 32.4521 134.187 33.047 136.109C33.7225 138.067 34.5509 139.968 35.5243 141.797L35.8829 142.481L36.0133 142.709L35.9155 142.497C35.394 142.171 34.8561 141.862 34.2857 141.552L33.5359 141.112L33.3404 140.998L32.6558 140.558L31.352 139.792L31.0586 139.629L28.8094 138.341C27.6197 137.673 26.5766 137.119 25.5498 136.712C23.9199 135.897 22.0782 135.082 20.2854 134.381C19.1677 133.909 18.0044 133.554 16.8139 133.322C16.2058 133.218 15.5878 133.185 14.9721 133.224C14.379 133.248 13.7968 133.392 13.2608 133.647C12.0128 134.293 10.9049 135.179 10.0012 136.255C9.21884 137.103 8.48542 138.048 7.83348 138.879C6.8725 140.075 6.01639 141.351 5.27465 142.693C4.36194 144.453 3.64481 146.23 2.66691 148.528L2.43874 149.082C1.86829 150.516 1.21636 152.13 0.711113 153.76C0.400304 154.753 0.182063 155.774 0.0591799 156.807C-0.103844 157.962 0.0716627 159.14 0.564428 160.197C0.83644 160.739 1.21314 161.221 1.67271 161.615C1.82282 161.747 1.98677 161.862 2.16166 161.958C2.64318 162.201 3.16032 162.366 3.69371 162.447C4.30644 162.56 4.9286 162.615 5.55172 162.61H6.10586C6.69764 162.64 7.29059 162.64 7.88238 162.61C8.6647 162.61 9.51221 162.414 10.1967 162.3L10.8324 162.202C12.4622 161.941 14.0105 161.648 15.5915 161.355L16.3086 161.224L19.0467 160.703L19.8616 160.556H20.0898C20.6929 160.458 21.2959 160.344 21.8663 160.181L23.0724 159.839L23.3821 159.741H23.5288L24.0829 159.578L24.6371 159.415L25.892 158.975C28.0923 158.225 30.2437 157.345 32.3299 156.4L33.0307 156.107L33.4871 155.911L35.1169 155.243L35.9155 154.835L35.508 155.357L35.1658 155.862L32.5255 159.904C30.3252 163.278 28.1575 166.652 26.0061 170.042C24.7566 171.997 23.4962 173.942 22.2249 175.876L19.8779 179.478L16.113 185.281C15.5426 186.144 14.9884 187.024 14.4832 187.905C13.7498 189.078 13.0001 190.252 12.234 191.392C11.9636 191.788 11.8519 192.271 11.9214 192.745C11.9909 193.219 12.2363 193.65 12.6089 193.951L12.7556 194.033C13.1596 194.259 13.6329 194.327 14.0842 194.225C14.5356 194.122 14.9331 193.857 15.2003 193.479C15.8197 192.566 16.4064 191.621 16.9931 190.675C17.5799 189.73 17.9221 189.176 18.4111 188.442L19.5031 186.813L21.6219 183.553L24.9793 178.386L28.402 173.122L31.2379 168.689L31.8572 167.727C32.8188 166.212 33.7641 164.745 34.7257 163.294L37.8387 158.519L37.252 159.741L36.8119 160.67C36.0133 162.381 35.1821 164.109 34.3509 165.804L33.0633 168.347L32.9003 168.689C32.6069 169.259 32.3136 169.83 31.9876 170.319L31.4824 171.215L30.4393 173.057L29.3962 174.866L27.4078 178.37C26.4788 180 25.5824 181.63 24.7023 183.357L24.034 184.612L23.1865 186.242L22.8931 186.813C22.8288 186.916 22.7742 187.025 22.7302 187.139V187.285C21.511 189.518 20.4226 191.82 19.4705 194.179C19.3248 194.597 19.3297 195.052 19.4846 195.465C19.6394 195.879 19.9343 196.226 20.318 196.445L20.5625 196.559C21.0275 196.723 21.5383 196.699 21.9859 196.492C22.4334 196.285 22.7824 195.911 22.9583 195.451C23.6452 193.727 24.4232 192.04 25.289 190.398L25.6476 189.681L25.9083 189.192L26.1202 188.801C26.247 188.585 26.3613 188.362 26.4625 188.133C26.5159 188.051 26.5597 187.964 26.5929 187.872L26.7884 187.497L27.5056 186.161L27.6523 185.9C29.0539 183.292 30.6348 180.326 32.2647 177.523L33.0307 176.202C33.7152 175.045 34.5138 173.692 35.2147 172.356L35.5895 171.623L35.8177 171.199C36.5674 169.765 37.3172 168.347 38.0343 166.896C38.9307 165.054 39.8271 163.213 40.6909 161.355L41.0169 160.654L41.131 160.426V161.029C41.131 161.958 41.2777 162.887 41.408 163.881C41.63 165.874 42.0728 167.837 42.7282 169.732C43.4063 171.502 44.1844 173.233 45.0589 174.915C46.6191 178.264 48.4678 181.47 50.584 184.498C51.394 185.557 52.2997 186.539 53.2895 187.432C54.1533 188.231 55.0171 189.062 55.9136 189.795C56.4809 190.28 57.092 190.711 57.739 191.083C58.034 191.253 58.3388 191.405 58.6517 191.539C59.2903 191.782 59.9594 191.936 60.6401 191.995C61.4073 192.068 62.1753 191.865 62.8077 191.425C63.5021 190.889 64.0604 190.196 64.4376 189.404L65.0569 188.214C65.8392 186.78 66.589 185.329 67.3387 183.879L67.6646 183.276C68.4796 181.76 69.2945 180.261 70.0442 178.745C70.4028 178.028 70.8428 177.115 71.234 176.186L71.7555 174.801C71.9511 174.279 72.1304 173.725 72.2771 173.171C72.4752 172.377 72.5195 171.553 72.4075 170.742C72.332 170.182 72.1841 169.635 71.9674 169.113C71.7159 168.471 71.3758 167.867 70.9569 167.32C70.3972 166.606 69.7449 165.971 69.0174 165.429L68.6914 165.152L66.263 163.213L66.1489 163.115C64.8287 162.072 63.476 161.094 61.8624 159.855C57.7444 156.889 53.5992 153.95 49.4268 151.038C49.1032 150.765 48.7539 150.525 48.3837 150.321L47.6503 149.929L46.7213 149.489L47.0147 149.375C47.5694 149.175 48.1134 148.947 48.6445 148.691L49.0846 148.495L51.6923 147.354L51.9368 147.24L52.2138 147.338L54.2674 146.458C56.321 145.545 57.9671 144.828 59.434 144.046L61.895 142.807L64.3561 141.568C66.1163 140.688 67.8928 139.743 69.653 138.765C70.468 138.309 71.3807 137.755 72.3423 137.135L72.766 136.875C73.4506 136.434 74.1514 135.978 74.8033 135.489L75.0315 135.277C75.7975 134.707 76.4983 134.185 77.1503 133.647C77.8022 133.11 78.6986 132.295 79.4483 131.61C81.2086 129.98 83.0666 128.351 84.8105 126.427C85.2259 125.984 85.6073 125.51 85.9514 125.009C86.3361 124.484 86.5725 123.865 86.6359 123.217C86.6512 122.834 86.5766 122.454 86.4181 122.106C86.2596 121.757 86.0216 121.451 85.7232 121.212L85.4298 121.016C84.8435 120.73 84.1811 120.639 83.5392 120.755C83.1527 120.804 82.771 120.886 82.3983 121L82.0724 121.081L80.7033 121.456C78.7671 121.974 76.8714 122.633 75.0315 123.428C71.7718 124.863 68.6425 126.688 66.0837 128.057L64.7798 128.774C62.8729 129.817 60.9823 130.893 59.0917 132.034C57.6575 132.865 56.2558 133.762 54.5608 134.837L53.6481 135.424L53.2406 135.685C52.8006 135.962 52.3768 136.223 51.9694 136.532L50.0136 137.967L50.1113 137.657C52.2845 134.745 54.5119 131.833 56.7937 128.921C58.9776 126.085 61.3898 123.151 64.3887 119.68L65.2851 118.734L65.4318 118.572C66.1978 117.757 67.0616 116.844 67.9417 116.029L68.6426 115.377C70.3702 115.377 72.2282 115.377 74.0047 115.377L76.3354 115.459H77.1177H77.3459C78.34 115.459 79.2691 115.54 80.1655 115.459C81.2124 115.426 82.2568 115.338 83.2947 115.198C84.1524 115.063 85.0014 114.878 85.8373 114.644L87.4671 114.22C88.1124 114.102 88.7209 113.834 89.2436 113.438C89.593 113.141 89.8396 112.742 89.9479 112.297C90.0562 111.852 90.0208 111.384 89.8467 110.96C89.6363 110.501 89.2814 110.123 88.8362 109.884C88.6382 109.774 88.431 109.682 88.2168 109.607C87.9335 109.528 87.6448 109.468 87.353 109.428H87.0271L85.6743 109.2C84.593 109.069 83.5033 109.02 82.4146 109.053C81.0293 109.053 79.6602 109.053 78.2912 109.151H77.2807L75.2271 109.233L76.2539 108.434L77.3948 107.489L78.6497 106.462L79.0898 106.12L82.4472 103.414C83.9467 102.192 85.7069 100.872 88.005 99.095C88.0015 99.3442 88.0401 99.5921 88.119 99.8284C88.2399 100.243 88.4419 100.629 88.7133 100.965C88.9847 101.301 89.3201 101.579 89.7 101.784C90.098 102.01 90.5347 102.159 90.9876 102.224C91.8397 102.305 92.6994 102.211 93.5138 101.947C94.0662 101.803 94.6103 101.629 95.1436 101.426C96.04 101.1 96.9038 100.741 97.784 100.366L98.2566 100.154L98.061 100.578C97.8111 101.308 97.6097 102.054 97.458 102.811C96.7572 106.201 97.1809 108.515 98.7619 109.901C98.9095 110.023 99.0677 110.132 99.2345 110.227C99.4458 110.341 99.6702 110.428 99.9027 110.488C100.432 110.638 100.986 110.682 101.533 110.618C101.971 110.569 102.4 110.454 102.804 110.276C103.387 110.035 103.935 109.717 104.434 109.33C105.614 108.373 106.542 107.142 107.139 105.745C107.936 106.641 108.785 107.49 109.682 108.287C110.371 108.93 111.119 109.509 111.915 110.015L112.501 110.357C113.21 110.748 113.939 111.102 114.685 111.417C116.533 112.153 118.499 112.545 120.488 112.574C124.807 112.786 128.718 110.716 131.994 108.678ZM60.8682 42.3768C59.6619 41.2012 58.5704 39.9132 57.6086 38.5304C57.2769 37.9517 56.9934 37.3466 56.7611 36.7213C56.5778 35.9893 56.4632 35.2417 56.4188 34.4884C56.4568 33.496 56.5822 32.5088 56.7937 31.5384V31.3429L56.9404 30.6746C57.0749 30.1853 57.2437 29.706 57.4456 29.2404C57.7064 28.5721 57.9671 28.018 58.2116 27.4801C58.6191 26.5674 59.0754 25.671 59.5481 24.7909L59.6622 24.5627V24.4324C60.8617 22.1461 62.1838 19.9263 63.6227 17.7826C65.1672 15.5514 66.8549 13.4227 68.6751 11.41C69.4901 10.5462 70.2072 9.78016 70.908 9.11193C70.1583 10.0409 69.4575 11.0188 68.8707 11.8663L68.2025 12.7954C67.9743 13.105 67.7787 13.4147 67.5669 13.7407L67.4365 13.9525L67.0942 14.4741L66.6868 15.1097L65.9044 16.3321L65.7903 16.5277C64.922 17.8766 64.1434 19.2813 63.4597 20.7326C62.8661 22.1569 62.3759 23.6221 61.9928 25.1169C61.6017 26.5348 61.2105 27.9528 60.8682 29.3871C60.4976 30.9281 60.2631 32.4988 60.1674 34.081C60.0752 35.7128 60.1353 37.3497 60.3467 38.9705C60.4771 40.0788 60.6238 41.2522 60.8682 42.442V42.3768ZM63.1174 35.9553C63.0945 34.1011 63.2639 32.2495 63.6227 30.4301C63.9812 28.8981 64.3887 27.4476 64.8776 25.7036V25.4918C65.1221 24.5953 65.3503 23.8619 65.6437 23.047C66.0116 22.2207 66.4251 21.4154 66.8823 20.6348C68.2106 18.2478 69.6688 15.9354 71.2503 13.7081L72.3423 12.176L72.2282 12.4368L72.0489 12.8931C71.7881 13.5614 71.5111 14.2459 71.2992 14.9141C70.6961 16.707 70.0116 18.7279 69.4249 20.7815C68.8381 22.8351 68.3655 24.3346 67.795 25.9318C67.1105 27.8876 66.4586 29.8597 65.8229 31.8318C65.1873 33.8039 64.7147 35.613 64.3072 37.4058C64.0164 38.6754 63.8365 39.9678 63.7693 41.2685C63.4318 39.5362 63.214 37.7827 63.1174 36.0205V35.9553ZM67.518 40.1277C67.622 39.2657 67.7799 38.4111 67.9906 37.5688C68.8381 34.1299 70.0279 30.6909 71.071 27.6594L71.4296 26.6326C71.7555 25.6547 72.0978 24.6605 72.3912 23.6826L72.7171 22.5418V22.281C72.8312 21.9061 72.929 21.5313 73.0594 21.1564C73.6135 19.331 74.2166 17.3915 74.9174 15.5335V15.3053L75.113 14.7837C75.3412 14.1644 75.5693 13.5451 75.8138 12.9257L75.5693 13.9362C75.2434 15.5661 74.9337 17.1959 74.6403 18.8257L74.5425 19.3799C74.347 20.4664 74.1514 21.553 73.9558 22.6395V22.9818V23.2263C73.7602 24.3509 73.5646 25.4755 73.3202 26.6C73.0757 27.7246 72.5216 29.3708 72.0163 30.7724C71.5111 32.1741 70.9569 33.5594 70.468 34.7492L70.3539 35.0263C70.0605 35.7434 69.7834 36.4442 69.5064 37.1614L69.3108 37.6829L69.0826 38.2533L68.6751 39.2964C68.2677 40.3395 67.8928 41.3989 67.518 42.442L67.3876 42.8169C67.3876 41.8716 67.4365 41.0078 67.518 40.1928V40.1277ZM72.7986 45.6365C72.4564 46.2069 72.0978 46.7448 71.7229 47.2663L71.3481 47.8042L70.9895 48.3257L70.8102 48.5865L70.6472 48.831L70.2724 49.3688C70.1494 48.9842 69.888 48.659 69.539 48.4561C69.3167 48.3376 69.0728 48.2655 68.8218 48.2442H68.6426C68.7021 48.0035 68.784 47.7689 68.887 47.5434C69.0663 47.1033 69.2293 46.6633 69.3923 46.2232L69.4738 46.0113L69.6367 45.5876C69.8812 44.9194 70.1094 44.2511 70.3376 43.5829C70.468 43.2243 70.5984 42.8658 70.7287 42.5072L70.8754 42.116L71.1199 41.4804C71.6523 40.0679 72.1956 38.6608 72.7497 37.2591L73.4017 35.3685C73.7439 34.521 74.0862 33.7387 74.4122 32.8423C74.9663 31.4406 75.4227 29.9249 75.7812 28.7188C76.1865 27.2553 76.5076 25.7697 76.7428 24.2694V24.1227V23.9108C77.297 20.8467 77.8348 17.7663 78.3727 14.7186L79.432 9.29121V9.64978C79.432 10.1713 79.432 10.6766 79.432 11.1818C79.432 14.4415 79.2528 18.1249 78.9757 22.5906C78.7485 26.2655 78.2638 29.9198 77.5251 33.5268L77.4274 33.9506L77.1992 34.8144C76.7428 36.4442 76.3354 37.6177 75.9116 38.7097C75.3097 40.2852 74.6186 41.8251 73.8417 43.3221C73.6624 44.1044 73.2387 44.8379 72.7986 45.6365ZM81.6323 33.152V32.989L81.779 32.1741C82.4561 28.5149 82.8592 24.8103 82.9851 21.0912L83.1807 19.3147V18.4835V18.9235L83.5392 21.0423V21.2868C83.9015 23.4437 84.1301 25.621 84.2237 27.8061V28.3929C84.2237 29.1426 84.2237 29.9086 84.2237 30.6583C84.2237 31.6851 84.2237 32.7119 84.2237 33.7387C84.2237 34.7655 84.126 35.3685 83.963 36.7865C83.8 38.2044 83.6207 39.3616 83.4251 40.3232C83.1559 41.1904 82.8067 42.0306 82.382 42.8332C81.9619 43.5727 81.505 44.2907 81.013 44.9846C80.0445 46.3633 78.8743 47.5885 77.5414 48.6191C76.8243 49.1569 76.0746 49.6785 75.276 50.2489C74.787 50.526 74.2981 50.8194 73.7928 51.0638L73.5972 51.1616L74.0862 50.4608C74.624 49.6785 75.1619 48.831 75.716 48.0812C76.7558 46.4324 77.6867 44.7174 78.503 42.9473C79.2989 41.2193 79.9902 39.445 80.5729 37.634C80.8663 36.7702 81.0945 35.8901 81.3226 35.01C81.4041 34.3906 81.5508 33.7387 81.6486 33.0868L81.6323 33.152ZM51.1381 101.377C50.8285 100.611 50.5025 99.8447 50.1928 99.0787L50.0136 98.6712L49.8506 98.2801C49.1497 96.6503 48.2207 94.613 47.6177 92.6246C46.7254 89.1601 46.0827 85.636 45.6945 82.0796V81.6884L45.3848 79.374C44.9774 76.2285 44.5536 73.0829 44.0973 69.9536L43.9343 68.8779V68.5519C43.8039 67.6718 43.6735 66.7754 43.5594 65.879L43.429 64.8522V64.6077C43.2498 63.2061 43.0705 61.7718 43.0053 60.3539C43.1683 60.745 43.3638 61.1036 43.5594 61.4622L43.6735 61.6577C45.1567 64.4448 46.3953 67.3785 47.4873 69.9699L47.9274 70.9967C49.5572 74.6801 50.6818 78.4124 51.7901 81.9166L52.3116 83.5464L52.605 84.5406C52.8658 85.3881 53.1102 86.1704 53.3058 87.1157L53.5829 88.2892C53.8111 89.2997 54.0555 90.2939 54.2511 91.3044L54.6586 93.4069V93.7329C54.7564 94.2218 54.8216 94.7271 54.8705 95.2323L54.952 96.0309C54.952 96.5362 55.0497 97.0414 55.0823 97.5467V98.166V98.5898V99.258V100.334V100.757C55.0823 102.55 55.0823 104.213 54.9683 105.81C54.9683 106.706 54.789 107.603 54.6749 108.483C54.5608 109.363 54.463 110.113 54.3 110.813L54.0555 111.922C53.4136 108.324 52.4369 104.793 51.1381 101.377ZM72.326 88.876L71.5437 90.1635C70.8591 91.2881 70.1746 92.4127 69.4412 93.4232C68.3981 94.9552 67.2735 96.5362 65.9044 98.3127L65.3992 98.9972L65.8229 97.074L66.0511 96.0635L66.2304 95.3953L66.4097 94.7597C66.7845 93.3906 67.1594 92.0215 67.5506 90.6525C67.8276 89.6909 68.121 88.7456 68.4307 87.8003C68.7637 86.6828 69.1833 85.5929 69.6856 84.5406C70.2135 83.5789 70.8128 82.6582 71.4785 81.7862C71.9348 81.1831 72.4401 80.6127 72.929 80.0586L73.4506 79.4718C74.7544 77.9561 76.0583 76.4403 77.3948 74.9572L78.5193 73.7674L78.7312 73.5392L78.8453 73.4088V73.6044C78.8453 74.0119 78.6986 74.4193 78.6008 74.8431C78.0576 76.7248 77.4101 78.5748 76.6613 80.3845C76.1875 81.7162 75.6434 83.0219 75.0315 84.2961C74.1677 85.7467 73.2876 87.2461 72.2934 88.8923L72.326 88.876ZM31.4335 152.651L31.0423 152.798C30.097 153.222 29.1517 153.629 28.2064 154.004C26.381 154.738 24.7511 155.341 23.2354 155.846L22.4368 156.09L21.9967 156.221C21.247 156.433 20.481 156.579 19.7313 156.726H19.5357H19.3564L18.5089 156.889C17.2702 157.133 16.0315 157.378 14.7766 157.59L13.4727 157.834L10.7183 158.323C9.54481 158.519 8.27354 158.731 7.01857 158.828C6.05948 158.857 5.09971 158.803 4.15006 158.665L4.03597 158.519L3.90559 158.209C3.89402 158.019 3.89402 157.829 3.90559 157.639C3.92187 157.091 3.98182 156.546 4.08487 156.009C4.64333 154.063 5.31821 152.153 6.10586 150.288C6.54591 149.18 6.96967 148.137 7.40973 147.028C7.84978 145.92 8.11055 145.399 8.48542 144.698L8.68099 144.323C9.37261 143.103 10.163 141.942 11.0443 140.851C11.8429 139.808 12.5274 138.961 13.1956 138.227C13.6915 137.727 14.2376 137.279 14.8255 136.891C14.9343 136.893 15.043 136.898 15.1514 136.907C15.6979 136.889 16.2446 136.933 16.7813 137.038C17.9762 137.403 19.1467 137.843 20.2854 138.358L20.9047 138.618C22.0782 139.107 23.3495 139.694 24.8 140.411L26.8373 141.536C28.5976 142.514 30.3415 143.541 32.0691 144.567C32.8514 145.024 33.6989 145.496 34.4161 145.985L34.139 145.888L31.4661 145.627L30.3741 145.513L28.7442 145.35C27.8449 145.267 26.9417 145.234 26.0387 145.252C25.452 145.252 24.8815 145.252 24.2948 145.252C23.8079 145.268 23.3254 145.35 22.8605 145.496C22.5039 145.609 22.1783 145.803 21.9096 146.064C21.6409 146.324 21.4363 146.643 21.3122 146.996C21.2455 147.351 21.2455 147.716 21.3122 148.071C21.383 148.476 21.5634 148.854 21.8337 149.163L22.339 149.669L22.5509 149.864C22.6709 149.971 22.802 150.063 22.942 150.141L23.3495 150.337C24.3242 150.781 25.3394 151.13 26.381 151.38C28.0108 151.804 29.6406 152.195 31.4172 152.57C31.5944 152.608 31.7778 152.608 31.955 152.57L31.4335 152.651ZM37.5453 149.946L37.1542 150.141C36.6489 150.402 36.1274 150.63 35.5243 150.858L35.068 151.054L32.721 152.065H32.6232C32.9685 151.759 33.1841 151.334 33.2263 150.875C33.2494 150.632 33.2239 150.388 33.1511 150.156C33.0783 149.923 32.9598 149.708 32.8025 149.522L32.6558 149.375H32.884L33.5848 149.457H33.7641C34.9213 149.587 36.0948 149.685 37.2683 149.783H37.692L37.5453 149.946ZM46.5094 156.596H46.9984C46.6228 156.91 46.3852 157.359 46.3365 157.846C46.2877 158.334 46.4317 158.821 46.7376 159.203L49.3779 162.887L52.0182 166.57L52.4257 167.141L52.8332 167.711C52.6187 168.029 52.5153 168.409 52.5389 168.792C52.5624 169.176 52.7117 169.54 52.9636 169.83L53.3058 170.205C53.7622 170.71 54.2185 171.215 54.7075 171.671L55.4083 172.34L56.1743 173.057C56.2521 173.133 56.3398 173.199 56.4351 173.252C56.7518 173.41 57.094 173.509 57.4456 173.546C57.7618 173.568 58.0784 173.508 58.3642 173.371C58.6499 173.233 58.8951 173.024 59.0754 172.763C59.2557 172.502 59.3678 172.199 59.4014 171.883C59.433 171.566 59.3825 171.246 59.2547 170.954C59.1286 170.613 58.9587 170.29 58.7495 169.993L58.4887 169.602L57.9997 168.868C57.7227 168.428 57.413 167.988 57.1196 167.548L56.9892 167.369C56.3156 166.391 55.631 165.418 54.9357 164.451L51.2359 159.301L49.492 156.873C49.3565 156.673 49.1784 156.506 48.9705 156.384C48.7592 156.267 48.5262 156.195 48.2859 156.172C48.6043 156.041 48.9053 155.871 49.1823 155.667L50.2906 156.481C52.8169 158.258 55.3594 160.051 57.8694 161.86L58.5539 162.349C61.3246 164.337 64.4702 166.586 67.3224 169.096C67.583 169.342 67.8228 169.609 68.0395 169.895C68.2173 170.225 68.3698 170.568 68.4959 170.922C68.4959 171.183 68.5937 171.443 68.61 171.704C68.6189 171.872 68.6189 172.041 68.61 172.209C67.8763 174.468 66.9266 176.652 65.774 178.729L65.2851 179.641L64.7961 180.554C64.1659 181.738 63.5412 182.923 62.9218 184.107L62.7589 184.417C62.2536 185.329 61.7647 186.242 61.292 187.171C61.0982 187.554 60.8804 187.924 60.6401 188.279H60.4934C60.176 188.187 59.8656 188.073 59.5644 187.937C58.4473 187.21 57.4046 186.375 56.4514 185.444L56.1906 185.215C54.4644 183.516 52.9536 181.611 51.6923 179.544C50.5025 177.571 49.4105 175.485 48.4326 173.676C47.4263 171.736 46.5338 169.739 45.7597 167.695C44.9544 164.495 44.5116 161.215 44.4395 157.916C44.4395 157.378 44.4395 156.824 44.4395 156.286C45.0973 156.543 45.806 156.644 46.5094 156.579V156.596ZM47.2102 144.926L48.4652 143.85L49.7202 142.775C49.981 142.546 50.2417 142.351 50.5188 142.155L50.6818 142.041L50.8122 141.943L51.0729 141.797L51.9694 141.128L53.9252 139.678C54.3163 139.384 54.6912 139.124 55.0823 138.879L59.5481 136.011L60.9334 135.212C62.0254 134.576 63.1011 133.941 64.1931 133.338L69.9953 130.078C71.9185 129.035 73.4669 128.22 74.8848 127.519C75.7649 127.096 76.645 126.704 77.5414 126.33C78.4378 125.955 79.1713 125.759 79.8721 125.498H80.084H80.2307L80.6381 125.368H80.85C79.4646 126.655 78.0141 127.976 76.5961 129.247L75.6671 130.078C73.8766 131.634 71.9696 133.051 69.9627 134.316C68.3329 135.342 66.703 136.255 65.0732 137.119L62.7752 138.292L62.5144 138.423L61.8135 138.781L60.1837 139.613C58.3257 140.558 56.647 141.405 54.9194 142.204C54.1533 142.563 53.371 142.889 52.605 143.231L52.1812 143.41L49.8017 144.453L49.0683 144.779H48.9053L48.5793 144.91L47.3732 145.431L46.6235 145.773L46.705 145.529V145.382L47.2102 144.926ZM94.7688 72.6591C94.212 70.4892 93.895 68.2648 93.8235 66.0257C93.7702 64.8773 93.8193 63.7264 93.9702 62.5868C94.1095 62.118 94.2839 61.6604 94.4917 61.2177C95.2645 59.8497 96.2808 58.6345 97.4906 57.6321C98.0447 57.1757 98.5989 56.7519 99.1204 56.3445L99.3486 56.1978L99.5116 56.1C99.8278 55.9035 100.154 55.724 100.489 55.5622C101.824 54.9227 103.202 54.378 104.613 53.9323C107.009 53.2478 109.617 52.6448 113.039 51.9765C115.836 51.4254 118.668 51.0714 121.514 50.9171C122.787 50.8903 124.059 50.9886 125.312 51.2105C126.132 51.4274 126.933 51.7108 127.708 52.058C128.684 52.6035 129.602 53.2479 130.446 53.9812C131.212 54.731 131.962 55.6111 132.565 56.2793L133.037 56.8171H132.793C131.033 57.3387 129.403 57.8439 127.773 58.3655L126.648 58.724C125.296 59.1478 123.959 59.5716 122.623 60.0605L121.824 60.3539L116.657 62.2445L116.136 62.4401C114.995 62.8638 113.887 63.2876 112.795 63.7602C111.567 64.3394 110.385 65.0095 109.258 65.7649C108.736 66.0909 108.231 66.4169 107.726 66.7754C107.158 67.2019 106.614 67.6589 106.096 68.1445C104.473 69.6648 103.083 71.4168 101.973 73.3437C101.321 74.4356 100.832 75.2831 100.343 76.147C100.02 76.7865 99.7374 77.445 99.4953 78.1191L99.3323 78.6569L99.1856 78.5754L98.6641 78.3635C98.2235 78.0911 97.804 77.786 97.4091 77.4508C96.9808 76.977 96.5834 76.4762 96.2193 75.9514C95.6206 74.9084 95.1344 73.8048 94.7688 72.6591ZM102.739 105.94C102.499 106.171 102.243 106.383 101.973 106.576C101.747 106.696 101.512 106.799 101.272 106.886H101.125C101.143 106.827 101.143 106.765 101.125 106.706C101.048 106.341 100.993 105.971 100.962 105.598C100.997 104.837 101.09 104.08 101.239 103.333C101.5 102.322 101.842 101.328 102.152 100.399C102.414 99.678 102.589 98.9284 102.673 98.166C102.71 97.729 102.637 97.2897 102.461 96.8883C102.284 96.4868 102.01 96.136 101.663 95.8679L101.484 95.7701C101.063 95.5484 100.588 95.4522 100.115 95.4931C99.7806 95.5195 99.4517 95.5908 99.1367 95.705C98.7039 95.8483 98.2841 96.0282 97.8818 96.2428H97.7514L97.3439 96.4384L96.2519 96.9436L95.8119 97.1392C94.8503 97.5467 93.9539 97.8889 93.1063 98.166C92.6197 98.3031 92.1241 98.4066 91.6232 98.4757C91.6232 98.0845 91.6232 97.8563 91.7373 97.6119C91.8185 97.3452 91.9165 97.0839 92.0307 96.8295C92.2767 96.442 92.549 96.0717 92.8456 95.7213L93.0737 95.4931L93.2693 95.2975L93.4323 95.1345L93.6442 94.9063C94.5865 93.9947 95.5825 93.1402 96.6268 92.3475L97.6047 91.5815L97.784 91.4348L97.9632 91.2881L98.4033 90.9295C98.7374 90.6524 99.0095 90.3081 99.2019 89.919C99.3986 89.5029 99.4666 89.0376 99.3975 88.5826C99.3502 88.3636 99.2791 88.1505 99.1856 87.9469C99.0189 87.6149 98.7725 87.3293 98.4685 87.1157L98.2077 86.9528L97.6373 86.6757L97.3113 86.5616L96.9853 86.4638L96.6594 86.3497C95.4521 85.9205 94.2758 85.4086 93.1389 84.8177C91.7554 84.068 90.4457 83.1895 89.2273 82.1936C88.7952 81.78 88.4023 81.3271 88.0539 80.8409C87.9235 80.5964 87.8094 80.3356 87.6953 80.0586H87.8257C89.0644 80.3519 90.2052 80.6779 91.4439 81.0691L93.3345 81.6884C93.3882 81.9209 93.4898 82.1395 93.633 82.3304C93.7761 82.5213 93.9576 82.6801 94.1657 82.7967L94.4591 82.9271L97.0016 83.7583C97.413 83.9026 97.8616 83.9003 98.2715 83.7518C98.6814 83.6033 99.0273 83.3177 99.2508 82.9434V83.2041C99.3374 83.9443 99.4902 84.6752 99.7072 85.3881C99.8539 85.8445 100.001 86.3008 100.164 86.7572L100.343 87.295C100.943 89.1907 101.746 91.0159 102.739 92.7387C103.065 93.3027 103.424 93.847 103.814 94.3685C104.296 94.97 104.843 95.5165 105.444 95.9983C105.245 96.2305 105.13 96.5236 105.118 96.8295C105.118 96.9925 105.118 97.1555 105.118 97.3185C105.118 97.4815 105.118 97.8237 105.118 98.0845C105.091 98.6274 105.091 99.1714 105.118 99.7143V100.073C105.118 100.317 105.004 100.594 104.955 100.855V101.051V101.279C104.689 102.351 104.318 103.393 103.847 104.392C103.528 104.942 103.157 105.461 102.739 105.94ZM110.187 94.7271C109.215 94.1629 108.298 93.508 107.449 92.7713C106.908 92.2051 106.422 91.5884 105.998 90.9295C105.479 90.036 105.016 89.1106 104.613 88.1588C104.189 87.1483 103.749 85.9586 103.277 84.5569C103.006 83.6757 102.825 82.7692 102.739 81.8514C102.748 81.1079 102.819 80.3665 102.951 79.6348C103.156 78.975 103.412 78.332 103.717 77.7116L103.831 77.4997C104.874 75.4992 106.148 73.6284 107.628 71.9257C108.217 71.3181 108.837 70.7414 109.486 70.1981C110.099 69.6911 110.747 69.2282 111.426 68.8127C112.92 67.8759 114.503 67.0898 116.152 66.4658L119.412 65.276L122.818 64.021L124.546 63.4017C125.589 63.0105 126.648 62.6845 127.708 62.3423H127.92L128.751 62.0815L130.625 61.4785C131.962 61.0547 133.314 60.6147 134.667 60.2072L136.476 59.6693C136.876 59.7901 137.285 59.8773 137.699 59.9301L138.302 60.0279C138.64 60.1276 138.972 60.2473 139.296 60.3865C139.67 60.6059 140.024 60.8567 140.355 61.1362C140.733 61.5354 141.077 61.9662 141.382 62.4238C141.565 62.7595 141.723 63.1081 141.855 63.4669C141.94 63.8701 142 64.2784 142.034 64.6892C142.004 67.2195 141.698 69.739 141.121 72.2028C140.831 73.1493 140.477 74.075 140.062 74.9735C139.638 76.0003 139.133 76.9945 138.644 77.9072C137.682 79.7 136.802 81.1668 135.955 82.5685C135.481 83.3463 134.964 84.0972 134.406 84.8177C133.82 85.5511 133.217 86.2682 132.597 86.9691C131.727 87.9192 130.796 88.812 129.81 89.642C128.653 90.5873 127.431 91.4022 126.388 92.0867C124.208 93.4186 121.891 94.5115 119.477 95.3464C118.874 95.5094 118.271 95.6561 117.652 95.8027C117.035 95.9625 116.409 96.0822 115.777 96.1613C114.996 96.1622 114.217 96.0967 113.447 95.9657C112.909 95.819 112.387 95.6561 111.817 95.4768C111.261 95.2562 110.716 95.0059 110.187 94.7271ZM117.815 108.548C116.692 108.216 115.601 107.785 114.555 107.26C113.569 106.679 112.646 105.996 111.801 105.223C110.987 104.444 110.245 103.593 109.584 102.681C109.4 102.357 109.242 102.019 109.111 101.67C109.013 101.267 108.937 100.859 108.883 100.448C108.997 100.138 109.144 99.7958 109.291 99.4536L109.405 99.1765L109.486 98.9646L109.665 98.5246C110.231 98.8073 110.82 99.0418 111.426 99.2254C112.112 99.4252 112.808 99.5884 113.512 99.7143C114.121 99.8065 114.737 99.8447 115.354 99.8284C117.508 99.7743 119.639 99.3669 121.661 98.6224C122.303 98.3922 122.929 98.12 123.535 97.8074L124.089 97.5467C124.97 97.1392 125.833 96.6992 126.73 96.2102C127.626 95.7213 128.604 95.0856 129.419 94.5804C130.212 94.0758 130.979 93.5319 131.717 92.9505C133.277 91.6901 134.727 90.2997 136.052 88.7945C136.818 87.9144 137.389 87.1646 137.91 86.4964C138.432 85.8282 138.758 85.2577 139.149 84.6384L139.361 84.2961C140.355 82.6663 141.317 81.0365 142.376 78.8851C143.251 77.2713 143.945 75.566 144.446 73.8L144.968 74.6638C145.308 75.1801 145.603 75.7255 145.848 76.2936C146.203 78.0066 146.421 79.7452 146.5 81.4928C146.522 82.9022 146.407 84.3105 146.157 85.6978C145.929 86.5616 145.603 87.458 145.326 88.2403V88.4033V88.5826C145.057 89.3326 144.747 90.0671 144.397 90.7829C143.762 91.8748 143.077 93.032 142.295 94.1566C141.887 94.7434 141.463 95.3464 141.007 95.9005L140.339 96.6992L140.029 97.0577L139.801 97.3348C138.367 98.8342 136.802 100.35 134.912 102.094C134.097 102.827 133.282 103.544 132.206 104.294C131.13 105.044 130.576 105.435 129.761 105.924C128.025 106.98 126.184 107.854 124.269 108.532C123.377 108.77 122.466 108.928 121.547 109.004C120.296 108.972 119.052 108.819 117.831 108.548H117.815Z" fill="#3A3C51"/>
</svg>
