<svg xmlns="http://www.w3.org/2000/svg" width="363" height="123" fill="none" xmlns:v="https://vecta.io/nano"><path d="M314.16 28.276c-.08.056-.153.12-.22.19-17.54-5.664-34.096 2.244-49.256 14.23a44.36 44.36 0 0 0-2.573.657c9.77-12.205 4.844-29.554-2.736-42.497-.712-1.23-3.065-1.177-3.31.438-1.86 11.958-14.613 21.235-13.135 33.877a12.07 12.07 0 0 0 11.685 11.329v.4a1.89 1.89 0 0 0 .547.848c.1.267.24.5.44.71a1.83 1.83 0 0 0 .709.44l.657.19c-13.217 11.822-25.203 25.695-35.574 34.59-4.587 3.89-9.514 7.362-14.722 10.37-2.237.557-4.403 1.365-6.458 2.408 10.015-14.996 1.067-44.25-2.053-58.943-.074-.276-.21-.532-.4-.746s-.426-.383-.7-.49-.55-.155-.837-.135a1.86 1.86 0 0 0-.809.25 45.84 45.84 0 0 0-15.521 19.261c-3.31 7.722-4.435 16.204-3.25 24.522.547 3.94 4.925 18.39 10.727 22.55-16.39 5.512-33.933 6.654-50.9 3.31A79.5 79.5 0 0 1 110.32 95.1a47.1 47.1 0 0 0 22.193-16.802c9.25-13.272 9.523-33.795-3.558-44.878-2.602-2.208-5.617-3.877-8.87-4.91s-6.678-1.408-10.077-1.105-6.704 1.28-9.723 2.87a25.75 25.75 0 0 0-7.861 6.401C77.62 50.96 81.012 74.276 94.42 88.67c1.98 2.113 4.11 4.08 6.376 5.883-10.696 2.253-21.84.804-31.606-4.108S51.62 77.448 47.053 67.517c1.368-12.56 0-40.226-17.376-41.047-11.603-.575-12.26 11.274-9.96 20.304-1.993-1.34-4.293-2.155-6.686-2.366a14.2 14.2 0 0 0-6.996 1.162c-2.394 1.48-4.23 3.71-5.22 6.346s-1.08 5.522-.253 8.213c4.734 17.76 32.1 17.376 45.26 11.794 8.21 22.795 35.218 31.032 58.232 25.203 18.088 12.67 42.853 16.42 64.06 13.874a99.35 99.35 0 0 0 25.258-6.458c7.725 9.55 18.724 15.888 30.86 17.784s24.544-.785 34.815-7.522c.266-.165.485-.394.637-.667s.232-.58.232-.893-.08-.62-.232-.893-.37-.503-.637-.667c-12.643-8.757-28.733-18.663-44.194-18.663 7.916-5.558 15.25-11.903 21.89-18.936 6.103-6.403 13-13.682 20.497-20.633 0 14.476 41.046 12.67 48.298 12.944.318-.003.63-.1.905-.252a1.8 1.8 0 0 0 .885-1.582c-.004-.318-.093-.63-.257-.903a37.88 37.88 0 0 0-14.393-16.225c-6.277-3.9-13.554-5.86-20.935-5.667 12.998-8.893 27.364-14.038 42.333-9.277-5.172 24.136 33.412 23.205 45.15 33.248.93.794 2.737.657 3.01-.794 4.296-26.46-22.795-50.077-48.08-36.668zM12.49 68.12C8.332 65.656 1.135 59.335 4.42 53.67c1.27-2.22 3.36-3.854 5.818-4.554s5.095-.41 7.344.805c1.382.66 2.71 1.428 3.968 2.3 0 .3.246.602.383.848a1.12 1.12 0 0 0 .693.536c.146.038.297.047.446.025s.292-.073.42-.15l.684.438c1.478.903 3.23-1.26 1.888-2.435-.903-.794-1.916-1.615-2.983-2.38a27.94 27.94 0 0 1-1.56-8.948c.164-9.386 9.085-12.177 15.38-5.473 7.963 8.456 7.662 23.37 6.43 34.096-.056.297-.015.604.118.876s.35.492.62.63c-10.29 2.38-22.056 3.202-31.58-2.162zm82.942-30.895a23.64 23.64 0 0 1 21.878-5.682c3.83.955 7.362 2.854 10.27 5.525s5.102 6.027 6.38 9.762c5.6 15.38-2.3 31.25-15.105 40.062-3.72 2.56-7.758 4.62-12.013 6.13-18.8-13.463-30.84-34.726-11.41-55.796zm84.42 38.31c-.28-8.898 2.133-17.673 6.924-25.176 1.122-1.724 5.2-8.565 8.756-7.388 1.204.4 2.08 11.137 2.408 13.244 1.943 12.177 7.416 34.917-5.664 42.963l5.31-24.245c.492-2.244-2.928-3.174-3.42-.958l-5.883 26.242c-5.172-4.953-8.374-22.357-8.43-24.7v.027zm75.09 37.736c-8.923 5.082-19.288 7.035-29.448 5.547a46.03 46.03 0 0 1-26.622-13.756l27.063 2.435c2.354.22 2.326-3.42 0-3.667l-25.257-2.408c3.046-1.514 6.03-3.165 8.948-4.953 15.543-2.19 32.126 7.498 45.316 16.802zm3.092-82.586c.657-2.08-2.517-2.928-3.256-.903a24.62 24.62 0 0 0-.739 14.722c-17.732-2.736-.958-26.16 4.214-38.3 6.184 12.122 9.33 26.626-.903 36.97-.943-4.15-.706-8.482.684-12.506v.027zM302.53 62.92c-5.774-.22-11.52-.52-17.294-.958s-27.365-.274-25.34-10.672l1.012-.876 17.568 5.473c2.08.63 2.956-2.6.904-3.256l-15.297-5.035 1.943-1.56a34.86 34.86 0 0 1 20.932 2.647c6.537 3.023 11.976 7.997 15.572 14.237zm56.535-1.396c-13.956-8.21-44.522-8.045-42.962-28.103a46.79 46.79 0 0 1 9.085 4.625c1.806 1.177 3.366-1.642 1.67-2.736-2.58-1.85-5.33-3.453-8.21-4.79 21.07-5.91 42.442 7.772 40.417 30.867v.137z" fill="#f4f4f4"/></svg>