<svg xmlns="http://www.w3.org/2000/svg" width="43" height="40" fill="none" xmlns:v="https://vecta.io/nano"><path d="M31.527 15.33c3.257-2.893 5.46-6.73 1.897-9.974-4.628-4.23-9.66-.58-11.877 4.218C18.956 3.39 13.026-3.79 6.975 2.33c-3.54 3.58 1.157 8.632 5.785 11.727-6.022-.746-14.51-.347-12.444 6.12.966 3.043 6.27 2.777 10.905 1.956-4.686 3.963-8.62 9.75-2.256 13.492 3.8 2.227 6.942-.73 9.054-4.594.503 4.1 2.02 7.85 5.583 8.048 8.678.48 7.41-8.678 4.94-15.268 5.368 3.587 12.502 6.844 13.78-1.5.885-5.635-5.207-7.093-10.795-6.972zm-8.834-1.608c.24-1.3.725-2.52 1.43-3.627 1.647-3.834 4.27-3.593 7.868.723-1.088 2.372-4.223 4.19-6.78 5.248a6.69 6.69 0 0 0-2.626-2.1c.04-.077.07-.16.093-.243h.017zM7.502 19.67a9.71 9.71 0 0 1-1.157 0c.136-.237.184-.514.136-.783s-.19-.512-.402-.686l-.04-.052v-.422c0-.457.046-.914 0-1.37 0-.052 0-.104-.03-.156l.272-.098c3.055-1.04 7.272-.035 10.384.84-.1.49-.133.993-.098 1.493a46.85 46.85 0 0 1-9.083 1.238h.017zm10.54 4.322a19.3 19.3 0 0 1-4.229 7.782L9.95 27.44a20.03 20.03 0 0 1 3.274-3.604c1.24-1.13 2.616-2.1 4.096-2.893a5.57 5.57 0 0 0 .989 1.284c-.116.515-.208 1.1-.278 1.765h.012zm-.503-9.176c-2.95-1.533-5.554-4.183-7.474-6.77l-.7-1.157c4.038-3.977 6.944-3.998 8.718-.064 1.285 1.95 2.08 4.18 2.314 6.503a2.57 2.57 0 0 0-1.279.214c-.637.267-1.188.705-1.59 1.267l.012.006zm3.68.51a4.63 4.63 0 0 1 2.025 2.071c-.095.26-.128.536-.095.8s.13.535.286.764c-.174.764-1.11 1.018-1.776 1.157-.178.022-.358-.001-.525-.067s-.314-.172-.43-.31c-1.07-1.047-1.278-3.71.503-4.426h.012zm.58 18.23c-1.232-2.94-1.458-6.885-.972-10.154.728.058 1.46-.042 2.147-.29a5.11 5.11 0 0 0 1.833-1.155c.34.613.665 1.238.983 1.874.716 1.5 1.27 3.074 1.65 4.692 1.516 3.81-.366 5.49-5.646 5.034h.006zM35.68 24.68c-1.28-.47-2.507-1.077-3.656-1.81a48.01 48.01 0 0 1-5.374-3.87c3.197-.746 6.52-.764 9.725-.052 3.224.64 2.99 2.55-.7 5.728l.006.006z" fill="#3a3c51"/></svg>