<svg xmlns="http://www.w3.org/2000/svg" width="75" height="94" fill="#c1cebe" xmlns:v="https://vecta.io/nano"><path d="M29.575 83.987c2.15 4.215 5.562 7.587 9.917 4.736 5.7-3.7 3.264-9.976-1.157-13.63 7.198-1.017 16.363-5.265 11.57-13.298-2.785-4.694-9.372-1.165-13.892 2.85 2.48-6.116 4.355-15.125-3-14.745-3.454.182-4.636 5.786-5.05 10.902-2.868-5.984-7.85-11.7-13.537-6.033-3.38 3.38-1.14 7.438 2.33 10.744-4.363-.578-8.735-.025-9.925 3.694-2.9 8.968 7.04 10.125 14.653 9.348-5.24 4.653-10.62 11.232-2.207 14.877 5.686 2.463 8.892-3.562 10.297-9.447zm4.132-8.827a11.1 11.1 0 0 1 3.413 2.48c3.57 2.755 2.598 5.44-2.917 8.058-2.2-1.793-3.23-5.58-3.636-8.554 1.135-.46 2.136-1.2 2.9-2.15a1.23 1.23 0 0 0 .215.165h.017zM31.65 57.6a10.56 10.56 0 0 1 .331-1.207 1.23 1.23 0 0 0 1.653.124h.165l.372.083c.488.124.942.298 1.438.397h.174v.314c.248 3.496-1.96 7.645-3.735 10.662-.487-.24-1.004-.412-1.537-.512.052-3.318.428-6.624 1.124-9.868l.017.008zm-7.438 9.877a20.94 20.94 0 0 1-7-6.612l5.6-2.86a21.71 21.71 0 0 1 2.884 4.43 22.04 22.04 0 0 1 1.884 5.133c-.582.145-1.14.377-1.653.686-.47-.273-1.058-.53-1.735-.785l.008.008zm9.768 1.992a25.25 25.25 0 0 1 9.157-5.984l1.43-.413c3.063 5.328 2.286 8.383-2.33 9.166a15.7 15.7 0 0 1-7.438.661 2.79 2.79 0 0 0 .124-1.397 4.04 4.04 0 0 0-.95-2.041l.008.008zm-1.545 3.72a5.04 5.04 0 0 1-2.727 1.554c-.245-.17-.527-.28-.823-.32s-.597-.01-.88.1c-.752-.397-.76-1.446-.72-2.182a1.16 1.16 0 0 1 .212-.533 1.17 1.17 0 0 1 .44-.368c1.364-.818 4.215-.306 4.48 1.76h.017zm-19.297-4.41a21.92 21.92 0 0 1 10.917 1.769 5.54 5.54 0 0 0 .421 4.57c-.735.2-1.48.355-2.24.513-1.77.34-3.57.5-5.372.446-4.435.55-5.678-1.882-3.727-7.298zm5.496 17a20.42 20.42 0 0 1 2.901-3.306 52.07 52.07 0 0 1 5.537-4.571 23.78 23.78 0 0 1-2.62 10.224c-1.56 3.185-3.5 2.405-5.826-2.34l.008-.008zm35.374-52.622c-.744 3.14-.463 6.397 3.074 6.852 4.6.595 6.107-3.744 5.42-7.596 4.2 2.653 10.834 4.496 11.9-1.785.628-3.67-4.355-4.752-8.48-4.66 3.967-2.1 8.95-5.934 4.96-8.992-1.876-1.438-4.96.975-7.438 3.43 1.157-4.372 1.1-9.554-4.372-9.1-3.248.256-3.9 3.38-3.545 6.612-2.033-2.265-4.554-3.9-6.793-2.48-5.48 3.397-.826 8.4 3.47 11.356-4.777.1-10.48 1.14-7.72 6.753 1.85 3.752 6.165 2.05 9.512-.397zm6.04-2.794a7.57 7.57 0 0 1 .669 2.81c.628 3.025-1.066 3.992-5.082 2.9-.347-1.9.826-4.33 1.892-6.058a4.95 4.95 0 0 0 2.48.165.87.87 0 0 0 .04.182zm6.694-10.042c.225-.174.46-.334.703-.48.012.204.1.396.244.54s.338.228.54.238h.04l.157.207c.198.273.355.57.57.826l.083.083-.124.174c-1.413 1.926-4.396 3.108-6.653 3.893-.15-.34-.344-.66-.578-.95a34.66 34.66 0 0 1 5.025-4.513l-.008-.017zm-8.264 1.843c-.744-2.085-.993-4.315-.727-6.513l4.182.992a14.82 14.82 0 0 1-.455 3.57 15.04 15.04 0 0 1-1.231 3.538 4.13 4.13 0 0 0-1.14-.355 11.39 11.39 0 0 0-.587-1.207l-.04-.025zm4.2 5.356a17.22 17.22 0 0 1 7.438.942l.926.422c-.766 4.122-2.52 5.367-5.264 3.736-1.595-.64-3.013-1.655-4.132-2.96a1.9 1.9 0 0 0 .686-.669 2.76 2.76 0 0 0 .397-1.446l-.05-.025zM60.2 28.77a3.44 3.44 0 0 1-2.107-.397 1.29 1.29 0 0 0-.785-.876c-.215-.537.24-1.083.587-1.446a.83.83 0 0 1 .346-.18.87.87 0 0 1 .4-.002c1.165.207 2.42 1.736 1.645 2.926l-.074-.025zm-8-10.802a14.96 14.96 0 0 1 4.892 5.785 3.79 3.79 0 0 0-1.18 1.085 3.78 3.78 0 0 0-.623 1.477l-1.388-.72a17.19 17.19 0 0 1-2.992-2.149c-2.53-1.692-2.1-3.518 1.3-5.48zm-4.66 11.265a13.93 13.93 0 0 1 2.983-.455 35.62 35.62 0 0 1 4.9.074 16.21 16.21 0 0 1-5.876 4.133c-2.23 1.008-2.9-.237-2.008-3.736v-.017zM32 2.62c-2.33-3.38-6.653-3.223-9.785-1.033s-4.6 6.455-4.463 10.232C14.13 8.462 10.164 5.974 4.9 7.57.7 8.875-.57 13.24.222 17.14c1.1 5.4 6.256 8.76 10.925 10.835a38.7 38.7 0 0 0 9.173 2.479c1.52.265 4.025.884 5.496 0a.75.75 0 0 0 .777-.455c2.372-5.215 5.72-10.075 6.76-15.794.653-3.678.8-8.44-1.364-11.587zm0 4.33c1.47 8.455-3.942 15.067-6.768 22.522a.82.82 0 0 0 0 .14c-1.372.355-3.545-.364-4.744-.612-2.217-.394-4.408-.92-6.562-1.578-4.537-1.488-9.438-4.273-11.57-8.728-1.653-3.446-1.107-7.876 2.48-9.72 5.1-2.58 10.182 1.554 13.355 5.182a.7.7 0 0 0 1.132-.169c.068-.134.1-.286.067-.433-.653-4.215.826-9.14 4.653-11.422 4.2-2.504 7.264.96 7.942 4.818H32z"/></svg>