<svg xmlns="http://www.w3.org/2000/svg" width="80" height="74" fill="#3a3c51" xmlns:v="https://vecta.io/nano"><path d="M19.9 60.17c1.8-1.614 3.037-3.743 1.053-5.548-2.568-2.337-5.368-.312-6.618 2.355-1.44-3.437-4.738-7.434-8.1-4.05-1.967 2 .642 4.802 3.217 6.52-3.35-.416-8.064-.2-6.942 3.402.538 1.7 3.47 1.545 6.063 1.088-2.592 2.2-4.8 5.415-1.232 7.52 2.117 1.238 3.853-.405 5.033-2.557.278 2.274 1.122 4.362 3.107 4.472 4.836.266 4.12-4.814 2.748-8.487 2.985 1.996 6.942 3.807 7.665-.84.515-3.124-2.88-3.934-5.993-3.876zm-4.9-.897c.135-.7.404-1.387.793-1.996.914-2.133 2.372-2 4.373.4-.578 1.32-2.35 2.314-3.772 2.893a3.72 3.72 0 0 0-1.464-1.157.65.65 0 0 0 .069-.127v-.012zm-8.446 3.3a5.29 5.29 0 0 1-.642 0 .63.63 0 0 0-.145-.816V60.68l.15-.058c1.7-.58 4.05 0 5.785.463-.055.274-.073.554-.052.833a26.06 26.06 0 0 1-5.097.677v-.012zm5.86 2.4a10.76 10.76 0 0 1-2.354 4.328L7.9 66.898a11.14 11.14 0 0 1 1.805-1.996 11.3 11.3 0 0 1 2.314-1.597 3.1 3.1 0 0 0 .579.712c-.104.278-.156.607-.197.978v-.012zm-.278-5.103a12.94 12.94 0 0 1-4.156-3.76l-.393-.66c2.245-2.2 3.86-2.222 4.848-.035a8.03 8.03 0 0 1 1.302 3.616 1.43 1.43 0 0 0-.712.116 2.07 2.07 0 0 0-.891.735v-.012zm2.048.283c.5.255.885.66 1.128 1.157-.052.144-.07.298-.05.45s.074.297.16.424c-.098.422-.62.58-1 .642a.58.58 0 0 1-.532-.208c-.6-.573-.712-2.054.283-2.46v-.006zm.324 10.136c-.66-1.805-.844-3.75-.538-5.647a2.84 2.84 0 0 0 2.21-.804l.55 1.04a12.92 12.92 0 0 1 .92 2.609c.84 2.137-.206 3.074-3.14 2.812v-.01zm7.717-4.924a10.49 10.49 0 0 1-2.03-1.007 26.71 26.71 0 0 1-2.985-2.152 12.18 12.18 0 0 1 5.409-.029c1.793.355 1.662 1.417-.393 3.188zM79.2 4.506C77.453-.927 71.003-.7 67.994 3.077 67.624-.805 60.4-.568 57.523 1.34c-7.243 4.82 1.157 14.233 6.462 15.962C70.262 19.352 81.44 11.7 79.2 4.506zM66.3 15.9c-4.674.318-8.84-4.08-9.412-8.54a49.86 49.86 0 0 0 17.754 4.709 14.46 14.46 0 0 1-8.342 3.83zm10.992-8.262a7.57 7.57 0 0 1-1.192 2.696c-.063-.025-.13-.042-.197-.052-6.526-.422-12.956-1.787-19.1-4.05 0-.518.056-1.034.168-1.54.95-4.05 10.332-4.883 9.5.353a.58.58 0 0 0 .301.619.76.76 0 0 0 .29.352c.13.085.282.13.438.125s.306-.055.43-.146.22-.22.27-.366c1.903-5.72 10.523-4.796 9.106 2.008h-.023zm-39.977 3.685c-2.713-3.946-7.764-3.76-11.414-1.203-3.54 2.482-5.386 7.52-5.207 11.94-4.212-3.917-8.845-6.815-15-4.964C.815 18.582-.648 23.72.25 28.285c1.28 6.295 7.3 10.223 12.727 12.64 3.43 1.522 7.035 2.204 10.702 2.847 1.776.312 4.692 1.03 6.4-.035a.88.88 0 0 0 .902-.526c2.765-6.087 6.67-11.756 7.9-18.433.798-4.2.978-9.766-1.556-13.446zm0 5.05c1.736 9.864-4.628 17.582-7.897 26.278a1 1 0 0 0-.058.15c-1.597.417-4.13-.428-5.536-.712a65.54 65.54 0 0 1-7.659-1.846C10.858 38.542 5.15 35.3 2.638 30.084c-1.944-4.02-1.3-9.187 2.94-11.34 5.953-3.026 11.93 1.794 15.62 6.046a.81.81 0 0 0 .452.247.78.78 0 0 0 .5-.073c.148-.08.285-.206.364-.364s.105-.336.074-.5c-.758-4.918.972-10.67 5.426-13.307 4.906-2.945 8.498 1.082 9.28 5.6h.023z"/></svg>