<svg xmlns="http://www.w3.org/2000/svg" width="223" height="23" fill="none" xmlns:v="https://vecta.io/nano"><g clip-path="url(#A)" fill="#3a3c51"><path d="M111.175.2c33.872-.44 68.8-.02 103.804.23 1.97.072 3.916.273 5.8.6.52.038 1.008.16 1.403.35s.68.443.817.723.12.577-.046.852-.477.517-.892.695c-.853.485-1.877.867-3.008 1.123a15.45 15.45 0 0 1-3.568.367c-4.642 0-9.285 0-13.928-.07l-78.043-.5-81.475.27c-11.616.1-23.235-.108-34.812-.65a156.32 156.32 0 0 1-4.823-.36c-.457-.02-.897-.105-1.277-.247S.44 3.23.235 3c-.434-.56-.36-1 .94-1.13 2.312-.14 4.625-.3 6.937-.33L111.175.2zm-9.32 11.115l-67.475.44h-9.394a5.87 5.87 0 0 1-2.33-.25c-.245-.122-.415-.283-.488-.46a.2.2 0 0 1 .015-.142.28.28 0 0 1 .117-.127.69.69 0 0 1 .199-.091 1.05 1.05 0 0 1 .248-.04 39.72 39.72 0 0 1 2.421-.14c30.043-.8 60.104-1 90.164-1.1l64.404.65 12.52.3c2.873.1 4.426.65 3.83 1.34-.795.92-2.565.6-3.974.57l-90.255-.97zM121 19.723v.545c-.105 1.796-.896 2.538-2.873 2.68-1.014.14-2.066.002-2.946-.385s-1.526-.994-1.8-1.702c-.495-1.23-.495-2.532 0-3.76.474-1.43 1.212-1.984 2.635-2.087.895-.06 1.792.092 2.554.432s1.346.85 1.663 1.45a6.4 6.4 0 0 1 .777 2.83zM103.603 17.6c-1.806-.08-3.1-.67-3.035-1.45a.81.81 0 0 1 .188-.559c.138-.176.346-.333.607-.46a3.19 3.19 0 0 1 .907-.268 4.13 4.13 0 0 1 1.026-.024c.805.044 1.556.242 2.127.56s.923.735.998 1.18c-.072.66-1.246 1.08-2.818 1.02zm25.76-2.593c.858-.033 1.72.056 2.392.248s1.105.47 1.2.776c.074.13.058.263-.047.4s-.295.242-.555.336-.58.165-.933.205-.73.05-1.095.026c-.43.018-.864.004-1.275-.044a5.71 5.71 0 0 1-1.104-.23c-.316-.104-.564-.232-.727-.375s-.236-.295-.214-.45c-.02-.57.7-.875 2.36-.883z"/></g><defs><clipPath id="A"><path fill="#fff" d="M0 0h223v23H0z"/></clipPath></defs></svg>