<svg width="469" height="413" viewBox="0 0 469 413" fill="none" xmlns="http://www.w3.org/2000/svg">
<path fill-rule="evenodd" clip-rule="evenodd" d="M363.304 381.15C358.648 381.572 354.014 382.082 349.357 382.481C342.506 383.08 335.632 383.613 328.781 384.234C327.916 384.234 326.564 384.234 326.697 385.588C326.83 386.941 328.227 386.431 329.113 386.276C332.462 385.699 335.765 384.833 339.136 384.523C348.271 383.702 357.384 382.481 366.43 381.172C365.416 380.836 364.322 380.828 363.304 381.15Z" fill="#3A3C51"/>
<path fill-rule="evenodd" clip-rule="evenodd" d="M329.841 381.905C331.77 381.905 333.677 381.395 335.606 381.284C343.968 380.858 352.302 379.992 360.573 378.688C352.967 378.932 345.362 379.619 337.712 379.686C334.981 379.767 332.257 380.004 329.553 380.396C328.533 380.529 326.582 380.196 326.826 381.616C327.069 383.037 328.777 381.949 329.841 381.905Z" fill="#3A3C51"/>
<path fill-rule="evenodd" clip-rule="evenodd" d="M328.331 378.442C328.845 378.515 329.368 378.515 329.883 378.442C333.94 377.532 338.065 377.177 342.166 376.645C348.197 375.846 354.184 374.847 360.215 373.938C353.738 374.142 347.276 374.697 340.858 375.602C336.756 376.001 332.632 376.29 328.53 376.6C327.843 376.6 327.222 376.756 327.2 377.532C327.178 378.309 327.754 378.398 328.331 378.442Z" fill="#3A3C51"/>
<path fill-rule="evenodd" clip-rule="evenodd" d="M385.312 324.987C384.403 325.187 384.758 326.119 385.001 326.94C385.172 327.302 385.229 327.708 385.166 328.104C385.102 328.5 384.921 328.867 384.647 329.159C384.2 329.686 383.637 330.101 383.002 330.372C382.366 330.642 381.677 330.761 380.988 330.718C380.299 330.675 379.629 330.471 379.033 330.123C378.436 329.776 377.929 329.293 377.551 328.715C377.197 328.249 376.82 327.628 376.088 327.938C375.356 328.249 375.622 328.604 375.733 329.07C376.021 330.133 376.581 331.102 377.359 331.881C378.137 332.659 379.106 333.22 380.168 333.508C381.122 333.666 382.1 333.575 383.009 333.245C383.917 332.914 384.726 332.355 385.356 331.622C386.125 331.012 386.639 330.138 386.799 329.17C386.958 328.202 386.753 327.209 386.221 326.385C386.021 325.919 386.332 324.765 385.312 324.987Z" fill="#3A3C51"/>
<path fill-rule="evenodd" clip-rule="evenodd" d="M381.066 328.604C381.595 328.468 382.054 328.141 382.357 327.687C382.66 327.232 382.785 326.682 382.707 326.141C382.508 324.943 381.887 323.678 380.49 323.745C378.516 323.745 379.026 325.609 378.916 326.718C378.805 327.828 379.692 328.538 381.066 328.604Z" fill="#3A3C51"/>
<path fill-rule="evenodd" clip-rule="evenodd" d="M411.018 155.482C410.064 155.482 409.71 156.236 409.288 156.902C408.025 159.299 407.648 162.065 408.224 164.713C408.357 165.867 408.734 167.242 410.109 167.154C410.714 167.126 411.299 166.925 411.795 166.575C412.29 166.225 412.674 165.741 412.903 165.179C413.469 163.418 413.628 161.551 413.368 159.72C413.384 159.032 413.183 158.356 412.792 157.79L412.548 157.368L412.37 157.057C412.082 156.414 412.215 155.326 411.018 155.482Z" fill="#3A3C51"/>
<path fill-rule="evenodd" clip-rule="evenodd" d="M468.113 160.518C468.261 159.204 468.093 157.874 467.622 156.639C467.152 155.403 466.392 154.299 465.407 153.417C458.046 146.761 440.352 131.073 438.224 129.919C436.98 129.258 435.547 129.046 434.166 129.32C429.732 130.061 425.406 131.343 421.284 133.136C418.512 134.268 415.807 132.36 413.279 133.824C413.195 133.839 413.108 133.833 413.026 133.806C412.945 133.779 412.872 133.732 412.814 133.669C411.483 131.117 409.621 132.692 408.024 133.136C405.91 133.775 403.714 134.096 401.505 134.09C399.11 134.046 396.722 134.384 394.432 135.089C390.131 136.398 385.874 137.774 381.461 138.661C377.426 139.482 372.814 139.66 369.71 142.234C367.093 144.453 364.632 143.876 362.104 144.009C356.073 144.342 349.976 144.009 343.945 144.431C339.111 144.763 334.61 142.877 329.865 143.033C329.333 143.033 329.266 142.877 329.155 142.323C328.67 140.568 328.549 138.733 328.801 136.931C329.374 132.039 330.451 127.221 332.016 122.552C332.903 120.333 333.657 117.626 331.861 115.895C327.559 111.723 323.28 107.374 317.337 105.377C316.229 105 315.541 104.734 314.699 105.954C311.722 110.487 308.456 114.823 304.921 118.935C304.667 119.32 304.503 119.757 304.441 120.214C304.38 120.672 304.422 121.137 304.566 121.575C305.395 125.004 306.813 128.263 308.756 131.206C310.94 134.812 312.675 138.672 313.923 142.7C314.144 143.543 315.297 144.919 313.391 145.518C307.842 147.205 302.406 149.243 297.116 151.62C286.029 156.213 274.943 160.296 263.857 164.934C252.038 169.838 240.043 174.364 228.557 180.045C227.005 180.822 224.722 180.799 223.968 182.419C221.75 187.301 217.005 190.208 214.5 194.868C214.167 195.511 213.214 195.91 213.48 196.798C213.746 197.686 214.921 197.486 215.697 197.73C216.382 197.896 217.097 197.896 217.781 197.73C219.814 197.342 221.91 197.447 223.893 198.038C225.876 198.629 227.689 199.688 229.178 201.125C230.198 202.079 231.107 203.166 232.105 204.143C235.858 207.402 239.426 210.869 242.792 214.527C246.572 218.857 250.639 222.927 254.965 226.71C260.166 231.593 265.075 236.78 269.666 242.242C272.726 245.815 274.1 250.43 276.074 254.646C280.133 262.723 283.271 271.23 285.431 280.009C286.428 284.447 288.601 288.685 289.865 293.167C290.038 294.404 290.505 295.582 291.226 296.601C291.948 297.621 292.903 298.452 294.012 299.025C296.65 300.29 297.027 306.193 295.12 308.389C294.034 309.632 292.903 310.875 291.794 312.117C290.686 313.36 288.734 315.157 289.045 317.309C289.422 319.906 288.047 322.191 288.491 324.854C288.934 327.517 287.936 329.869 288.091 332.443C288.779 343.981 287.604 355.498 287.338 367.036C287.182 373.427 286.406 379.817 285.852 386.208C285.852 387.273 286.85 388.937 284.477 389.048C283.967 389.048 284.145 390.025 284.699 390.224C287.182 391.068 286.118 392.643 285.298 393.819C284.921 394.352 284.743 394.662 285.098 395.062C286.695 396.97 285.298 397.17 283.812 397.458C280.907 398.057 278.025 398.745 275.12 399.389C274.544 399.522 273.701 399.389 274.056 400.387C274.278 401.009 274.721 400.742 275.298 400.565C277.833 399.818 280.549 399.991 282.97 401.053C285.795 401.805 288.681 402.31 291.595 402.562C293.812 403.006 295.83 404.559 298.247 404.47L299.311 404.315C298.962 404.403 298.606 404.456 298.247 404.47C295.763 404.847 293.302 405.003 290.863 405.158C290.375 405.158 289.599 405.158 289.688 405.846C289.777 406.534 290.486 406.8 291.129 406.534C294.189 405.225 297.426 406.267 300.553 405.801C300.974 405.801 301.794 405.801 301.639 406.134C300.619 408.154 302.371 406.867 302.703 407C303.036 407.133 304.056 406.6 304.921 407.266C302.955 407.781 300.964 408.196 298.956 408.509C298.003 408.509 297.515 408.952 297.759 409.707C298.003 410.461 298.668 410.128 299.4 409.973C302.415 409.307 305.497 408.975 308.557 408.509C304.3 410.728 299.267 410.262 294.721 412.503C327.138 409.085 359.133 404.603 391.062 399.366C388.205 399.712 385.316 399.712 382.459 399.366C394.787 397.747 406.406 393.087 418.889 391.578C418.091 390.801 417.115 391.689 416.428 390.69C422.17 388.76 428.091 387.85 433.833 386.252L424.698 387.029C428.135 385.232 431.66 386.008 434.676 384.167C432.791 383.723 431.195 384.921 429.199 384.011C434.122 382.835 438.889 382.48 442.858 379.573C441.638 379.329 440.507 380.15 438.933 379.573C440.751 378.375 442.658 378.752 444.654 377.82C440.973 377.11 438.002 379.285 434.964 378.686C434.964 378.065 435.452 378.042 435.851 377.887C440.302 376.223 444.857 374.852 449.487 373.782C449.886 373.782 450.663 374.181 450.507 373.138C450.352 372.096 449.753 372.561 449.288 372.606C448.401 372.606 447.514 372.85 446.627 373.005C448.844 371.297 451.505 371.541 453.811 370.631C453.612 369.322 452.303 370.631 452.082 369.433C454.521 368.834 457.514 368.146 459.376 367.635V367.436C458.423 367.436 456.627 367.68 455.23 367.813C458.645 366.948 461.128 364.085 464.587 363.53C459.598 364.418 454.498 363.53 449.62 365.039C448.357 365.416 447.847 365.039 447.403 363.774C445.186 358.804 443.678 353.545 441.439 348.552C436.738 338.079 433.079 327.139 427.625 317.021C423.612 309.565 420.774 301.488 416.539 294.21C416.2 293.493 415.722 292.85 415.132 292.32C414.541 291.791 413.851 291.384 413.102 291.126C412.037 290.793 411.128 290.327 410.995 289.062C410.631 286.8 410.401 284.518 410.308 282.228C410.308 279.831 411.261 277.612 411.217 275.216C411.04 268.337 411.062 261.458 410.818 254.58C410.463 244.883 409.975 235.186 409.488 225.489C409.199 220.119 408.645 214.749 408.446 209.379C408.157 200.992 408.445 192.604 408.645 184.239C408.822 178.314 409.199 178.048 414.654 175.518C417.159 174.364 419.998 172.966 420.796 169.86C421.208 168.075 422.021 166.409 423.174 164.986C424.327 163.563 425.788 162.422 427.448 161.65C428.606 161.448 429.797 161.546 430.907 161.934C432.016 162.323 433.009 162.988 433.789 163.869C434.809 166.033 435.433 168.363 435.629 170.747C435.952 174.711 436.063 178.688 435.962 182.663C435.696 187.279 435.962 198.884 435.962 199.816C436.278 214.026 435.782 228.244 434.476 242.398C434.188 246.591 434.476 250.896 431.283 254.38C430.241 255.578 429.421 256.976 428.423 258.197C427.115 259.772 426.915 261.103 428.911 262.279C429.421 262.59 429.754 263.189 430.241 263.522C433.168 265.519 432.991 269.602 435.785 271.754C436.503 272.169 437.035 272.844 437.27 273.64C437.736 275.748 438.889 275.859 440.463 274.129C445.43 269.047 449.133 262.834 454.676 258.285C455.208 257.841 455.563 257.198 454.986 256.71C453.855 255.711 454.521 254.491 454.631 253.537C455.031 249.72 456.161 246.037 456.849 242.22C459.066 227.176 462.503 212.286 464.21 197.131C464.787 189.72 467.093 169.394 468.113 160.518ZM318.18 110.747C320.796 112.322 321.883 114.963 324.122 116.361C323.147 117.692 321.351 117.204 320.153 118.18C319.532 118.691 319.244 117.692 319.133 117.093C318.845 115.096 318.557 113.166 318.18 110.747ZM321.506 140.215C320.974 142.145 323.147 143.898 320.331 144.653C319.643 144.83 318.646 145.385 318.535 144.653C318.18 142.855 319.488 141.768 321.506 140.215ZM317.071 142.012C317.537 139.793 317.537 139.793 320.397 137.042C320.198 139.793 318.557 140.525 317.071 142.012ZM314.011 128.432C314.946 126.409 316.213 124.556 317.759 122.951C318.402 126.235 315.719 126.99 314.056 128.432H314.011ZM310.087 117.004C311.728 114.785 313.036 112.3 314.876 109.26C315.741 112.655 316.362 115.318 317.093 117.936C317.426 119.09 316.96 119.246 315.985 119.334C314.416 119.584 312.826 119.673 311.24 119.601C308.668 119.29 308.535 119.223 310.131 117.004H310.087ZM224.189 195.267C229.112 191.517 233.502 186.879 239.112 184.527C243.576 182.487 248.323 181.133 253.191 180.511C254.094 180.511 254.984 180.734 255.78 181.16C256.577 181.585 257.256 182.201 257.759 182.952C258.668 184.017 257.471 184.35 256.939 184.683C253.012 187.044 248.793 188.879 244.389 190.141C239.82 191.249 235.331 192.665 230.952 194.379C228.823 195.422 226.429 194.668 224.189 195.267ZM262.526 197.331C259.121 199.752 255.246 201.431 251.151 202.257L261.639 196.021C261.972 195.822 262.46 195.467 262.748 196.021C262.83 196.12 262.891 196.235 262.924 196.358C262.958 196.482 262.965 196.612 262.944 196.738C262.923 196.865 262.874 196.985 262.802 197.091C262.73 197.197 262.636 197.287 262.526 197.353V197.331ZM262.992 200.504C260.42 201.192 258.202 202.878 254.877 203.433C257.196 201.717 259.676 200.231 262.282 198.995C262.792 198.728 263.28 198.729 263.457 199.483C263.635 200.237 263.59 200.371 262.992 200.526V200.504ZM248.047 200.97L261.772 193.27C258.326 197.474 253.427 200.23 248.047 200.992V200.97ZM247.471 198.307C252.038 195.844 256.34 192.737 261.262 191.073C257.447 194.754 252.663 197.271 247.471 198.329V198.307ZM243.036 198.307L242.659 197.641L260.398 187.833L260.819 188.566C255.58 192.945 249.53 196.248 243.014 198.285L243.036 198.307ZM239.733 196.088L246.894 193.048C244.96 194.931 242.406 196.044 239.71 196.177L239.733 196.088ZM258.402 187.212C253.035 190.23 247.295 192.528 241.329 194.046C239.666 194.579 238.313 195.955 236.007 195.777C239.001 193.558 242.371 192.959 245.387 191.672C249.599 189.897 253.546 187.589 257.759 185.836C258.335 185.592 259.134 184.838 259.577 185.836C260.021 186.835 258.934 186.901 258.402 187.234V187.212ZM240.664 199.061C239.088 199.852 237.301 200.116 235.564 199.816C237.205 199.15 238.823 198.462 240.486 197.863C240.686 197.863 241.129 198.107 241.285 198.351C241.795 199.106 241.041 198.995 240.73 199.106L240.664 199.061ZM251.174 204.143C248.956 206.162 246.118 206.362 243.502 207.116C245.828 205.609 248.44 204.597 251.174 204.143V204.143ZM245.542 209.091C250.974 206.073 257.005 204.653 262.415 201.635C260.242 204.564 249.178 208.936 245.52 209.047L245.542 209.091ZM247.493 214.394C249.8 212.991 252.338 212.007 254.987 211.487C253.999 212.45 252.824 213.2 251.535 213.692C250.247 214.185 248.871 214.408 247.493 214.35V214.394ZM255.12 212.397C257.085 210.667 259.336 209.293 261.772 208.337C262.216 208.137 262.615 208.004 262.859 208.536C263.103 209.069 262.859 209.646 262.57 209.668C259.888 209.912 258.047 212.175 255.12 212.353V212.397ZM264.788 214.794C264.5 215.814 263.191 215.282 262.216 215.681C262.105 214.727 264.743 213.462 261.728 213.618C261.595 213.618 261.262 213.218 261.307 213.085C261.573 212.242 262.415 212.087 263.08 211.709C263.166 211.648 263.266 211.609 263.37 211.596C263.475 211.583 263.581 211.595 263.68 211.632C263.778 211.67 263.866 211.731 263.936 211.81C264.005 211.889 264.054 211.984 264.078 212.087C264.389 213.019 264.987 213.973 264.788 214.749V214.794ZM264.034 205.319C260.043 208.847 255.165 209.934 250.109 211.022C253.202 208.561 256.677 206.627 260.398 205.297C261.373 204.964 262.371 204.875 262.859 203.721C262.907 203.571 262.995 203.437 263.113 203.333C263.232 203.229 263.377 203.16 263.532 203.132C263.687 203.105 263.847 203.12 263.994 203.177C264.141 203.234 264.27 203.33 264.367 203.455C264.743 203.943 264.899 204.498 264.034 205.274V205.319ZM264.189 179.401C263.768 179.401 263.191 179.579 263.103 179.024C263.085 178.811 263.111 178.597 263.18 178.394C263.248 178.192 263.358 178.006 263.502 177.848C264.706 176.433 266.101 175.193 267.648 174.165C268.575 173.676 269.452 173.096 270.264 172.434C270.797 171.968 271.706 171.347 271.107 170.481C270.508 169.616 269.799 170.171 268.89 170.304C262.548 171.302 256.806 174.387 250.375 175.208C246.789 176.046 243.313 177.305 240.021 178.958C237.205 180.045 234.433 181.177 231.639 182.308C227.67 183.884 225.187 187.39 221.396 189.187C223.613 186.768 225.209 183.595 228.402 182.064C238.313 177.338 248.513 173.188 258.557 168.861C272.149 162.87 286.229 158.122 299.932 152.375C304.896 149.998 310.163 148.318 315.586 147.382C312.947 155.348 309.111 162.338 307.027 170.037C308.357 167.419 309.732 164.823 310.952 162.138C311.439 161.073 312.171 160.873 313.169 160.585C314.499 160.207 314.011 161.916 314.921 161.872C314.921 162.626 314.322 162.693 313.834 162.781C312.393 163.048 310.952 163.136 312.881 165C313.546 165.644 313.612 166.82 312.038 166.886C311.686 166.872 311.333 166.917 310.996 167.02C310.22 167.33 308.779 167.308 309.023 168.351C309.266 169.394 310.353 169.061 311.24 168.662C312.127 168.262 312.459 169.083 312.969 169.549C312.969 169.705 312.969 169.904 312.77 169.993C311.861 170.592 310.02 169.993 309.976 171.413C309.976 172.412 311.883 172.234 312.57 173.211C310.959 174.227 309.141 174.872 307.249 175.097C295.652 177.071 283.945 178.203 272.26 179.424C269.57 179.538 266.877 179.515 264.189 179.357V179.401ZM336.761 154.993C330.724 157.682 324.432 159.756 317.98 161.184C324.233 159.076 330.22 156.235 336.761 154.993V154.993ZM320.065 158.144L328.402 155.592C325.909 157.192 323.025 158.075 320.065 158.144V158.144ZM356.472 167.02L344.455 170.437C351.395 167.619 358.202 164.49 365.652 163.381C367.241 163.195 368.845 163.552 370.206 164.394C371.566 165.236 372.602 166.513 373.146 168.018C374.956 175.092 376.099 182.321 376.561 189.609C376.875 194.624 377.564 199.608 378.623 204.52C380.042 211.865 379.732 219.343 380.84 226.71C381.639 231.902 381.794 237.183 382.459 242.398C383.447 247.478 383.356 252.71 382.193 257.753C381.393 260.182 381.347 262.797 382.06 265.253C382.774 262.899 383.271 260.485 383.545 258.041C383.741 258.917 383.867 259.808 383.922 260.704C383.922 267.472 384.676 274.262 383.368 281.03C382.703 284.536 379.621 288.219 376.317 287.354C372.304 286.311 368.934 288.618 365.231 287.709C369.067 286.178 373.302 286.222 377.248 284.957C373.501 284.158 369.909 285.401 365.94 285.889C370.375 283.936 374.809 283.67 379.044 282.272C374.144 282.139 369.443 283.537 364.565 283.715L378.29 279.765V279.432C376.105 279.639 373.935 279.988 371.794 280.475C369.624 280.876 367.494 281.47 365.43 282.25C364.92 282.494 363.967 282.96 363.679 281.873C363.39 280.785 364.41 280.896 365.009 280.808C369.089 280.075 372.991 278.456 377.16 278.101C377.758 278.101 378.579 278.101 378.401 277.213C378.224 276.325 377.514 276.858 377.027 276.88C372.858 277.124 368.956 278.744 364.809 279.232C364.166 279.232 363.124 280.319 362.925 278.899C362.792 277.923 363.878 277.834 364.632 277.635C369.067 276.414 373.346 275.038 377.78 273.995C372.415 273.53 367.559 276.037 362.26 276.348C366.694 274.129 371.86 273.84 376.45 271.91C373.628 271.708 370.796 272.101 368.135 273.064C366.406 273.485 364.699 273.907 362.969 274.284C362.149 274.461 361.373 274.506 361.151 273.374C360.929 272.242 361.794 272.109 362.548 271.932L374.898 269.025C375.194 269.01 375.479 268.907 375.716 268.729C375.953 268.552 376.131 268.307 376.228 268.026C371.483 268.026 367.115 269.868 362.57 270.623C361.616 270.778 360.574 271.555 360.22 270.09C359.865 268.626 361.328 269.003 361.993 268.848C366.428 267.893 370.486 266.007 375.053 265.918C374.854 264.41 373.967 264.987 373.39 265.009C369.554 265.231 365.985 266.784 362.304 267.228C361.483 267.228 360.197 268.337 359.865 266.873C359.532 265.408 361.173 265.541 362.082 265.297C366.228 264.143 370.286 262.612 374.543 261.791C369.333 260.948 364.765 264.143 359.665 264.166C363.324 262.346 367.581 262.213 371.217 260.327L371.018 259.661C367.537 260.504 364.078 261.37 360.574 262.168C359.931 262.324 358.845 262.901 358.601 261.769C358.357 260.637 359.377 260.793 360.064 260.615C363.767 259.594 367.359 258.197 371.151 257.331C366.583 256.111 362.636 259.439 358.268 259.728L358.069 258.973L371.373 254.89C370.996 253.692 370.02 254.225 369.443 254.469C365.918 255.911 362.104 256.244 358.512 257.442C358.002 257.597 357.603 257.664 357.448 257.154C357.293 256.643 357.825 256.444 358.202 256.266C361.829 254.671 365.591 253.401 369.443 252.472L369.288 251.762C366.871 252.383 364.455 252.96 362.06 253.625C360.796 253.981 359.554 254.491 358.313 254.912C357.825 255.068 357.226 255.312 356.894 254.713C356.561 254.114 357.115 253.537 357.67 253.315C359.887 252.472 362.104 251.606 364.322 250.941C365.719 250.513 367.071 249.948 368.357 249.254C364.344 249.498 361.461 251.318 358.246 251.828C357.404 251.961 356.495 252.76 356.029 251.407C355.563 250.053 356.894 250.319 357.515 250.075C360.415 248.804 363.439 247.837 366.539 247.19C367.423 247.022 368.213 246.532 368.756 245.815C366.295 246.436 363.789 246.902 361.395 247.701C359.872 248.146 358.325 248.501 356.761 248.766C355.918 248.943 355.231 249.121 355.098 247.834C354.965 246.547 355.098 246.369 356.295 246.014C360.087 244.883 363.812 243.507 367.559 242.242C368.069 242.065 368.623 241.998 368.69 241.244C364.388 241.865 360.486 243.862 356.251 244.661C355.43 244.816 354.632 245.704 354.233 244.284C353.834 242.864 353.9 242.22 355.541 241.776C359.266 240.8 362.903 239.557 366.938 238.226C363.056 238.557 359.221 239.301 355.497 240.445C354.588 240.645 353.568 241.577 353.28 239.846C353.146 238.736 352.592 237.449 354.61 237.05C358.557 236.273 362.215 234.343 366.184 233.61C366.53 233.511 366.829 233.29 367.027 232.989C363.294 233.376 359.623 234.218 356.095 235.497C355.442 235.772 354.757 235.966 354.056 236.074C353.523 236.074 352.703 236.872 352.481 235.696C352.413 235.515 352.386 235.32 352.401 235.127C352.416 234.933 352.473 234.746 352.568 234.576C352.663 234.407 352.793 234.261 352.951 234.148C353.108 234.035 353.289 233.957 353.479 233.921C356.65 232.856 359.776 231.702 362.903 230.504C363.959 230.131 364.982 229.671 365.962 229.128C362.597 229.746 359.295 230.667 356.095 231.88C354.876 232.346 352.836 233.566 352.215 231.88C351.373 229.661 354.078 230.215 355.076 229.905C358.332 228.828 361.492 227.477 364.521 225.866L354.765 228.729C354.521 228.729 354.299 229.062 354.056 229.084C353.146 229.217 351.838 230.06 351.439 229.084C350.951 227.664 352.592 228.041 353.368 227.73L365.874 222.738C362.38 223.274 358.959 224.205 355.674 225.511C354.566 225.844 353.457 226.221 352.393 226.599C351.727 226.843 351.107 227.264 350.774 226.11C350.441 224.957 350.774 224.602 351.506 224.402C354.353 223.218 357.262 222.189 360.22 221.317C361.46 221.143 362.636 220.655 363.634 219.897C359.151 220.631 354.743 221.767 350.464 223.292L350.242 222.671L362.725 218.411L362.526 217.767L353.479 220.43C352.827 220.687 352.151 220.88 351.461 221.007C350.863 221.007 349.909 222.183 349.688 220.563C349.532 219.476 349.688 218.943 350.974 218.499C355.275 217.057 359.51 215.348 363.767 213.751C364.009 213.698 364.226 213.567 364.386 213.379C364.546 213.191 364.641 212.955 364.654 212.708C360.02 214.195 355.475 215.659 350.885 217.146C350.264 217.346 349.444 218.3 349 217.146C348.557 215.992 349.333 215.57 350.286 215.215C353.102 214.195 355.896 213.13 358.712 212.109C359.813 211.877 360.809 211.293 361.55 210.445L349.998 213.928C349.399 214.106 348.579 214.838 348.291 213.684C348.002 212.53 348.867 212.575 349.577 212.286C353.656 210.711 357.825 209.379 362.016 208.07C358.982 208.154 355.984 208.747 353.146 209.823C351.86 210.134 350.641 210.666 349.399 211.066C348.845 211.243 348.18 211.754 347.936 210.755C347.692 209.757 348.535 209.49 349.133 209.269C351.35 208.448 353.812 207.737 356.14 207.05C357.293 206.695 359.466 206.073 359.288 205.74C358.424 204.187 357.226 205.851 356.229 206.051C353.501 206.584 350.841 207.56 348.002 207.937L361.084 203.011C358.49 202.301 356.65 203.788 354.699 204.187C352.66 204.723 350.654 205.375 348.69 206.14C348.224 206.295 347.648 207.116 347.204 206.14C347.137 205.997 347.102 205.841 347.101 205.684C347.1 205.526 347.133 205.37 347.199 205.226C347.264 205.083 347.36 204.955 347.48 204.852C347.599 204.749 347.74 204.674 347.892 204.631C349.266 204.032 350.663 203.499 352.082 202.989C354.48 201.959 356.938 201.078 359.444 200.348C356.934 200.425 354.457 200.943 352.127 201.879C350.783 202.253 349.465 202.713 348.18 203.255C347.67 203.455 347.093 203.766 346.805 203.255C346.517 202.745 347.071 202.212 347.714 201.968C351.905 200.393 356.073 198.795 360.197 197.064C355.297 197.619 350.974 200.149 346.029 200.748C350.197 197.442 355.519 196.909 360.33 195.112C356.572 195.338 352.871 196.138 349.355 197.486C348.313 197.907 346.472 199.128 345.918 197.686C345.364 196.243 347.47 196.021 348.579 195.467C350.441 194.712 352.348 194.091 354.699 193.248C350.974 192.959 348.246 195.089 345.031 195.134C348.379 192.138 353.146 191.961 356.495 188.987C353.435 190.119 350.375 191.339 347.271 192.338C346.45 192.604 345.053 194.002 344.521 191.983C343.989 189.964 345.297 190.23 346.428 189.919C349.311 189.143 352.149 188.299 354.987 187.301C351.949 187.301 349.178 188.566 346.118 188.899C345.342 188.899 344.211 189.875 343.9 188.521C343.59 187.168 344.943 187.123 345.829 186.879C349.685 185.972 353.471 184.793 357.16 183.351L343.723 186.613L343.435 185.792L355.896 181.643C352.273 182.092 348.712 182.941 345.275 184.172C344.61 184.394 343.523 185.348 343.058 184.172C342.393 182.53 344.011 182.974 344.765 182.708C346.273 182.153 347.803 181.665 349.909 180.955C347.426 180.577 345.829 181.776 344.078 181.753C343.546 181.753 342.703 182.286 342.548 181.354C342.393 180.422 343.191 180.422 343.79 180.222C346.41 179.436 348.961 178.434 351.417 177.227L342.26 179.734C345.696 177.515 349.643 176.761 353.834 175.296C349.399 175.296 345.962 177.959 341.838 177.404L353.28 173.432V173.055L343.679 175.607C343.435 175.607 343.213 175.873 342.969 175.895C342.725 175.918 341.727 176.65 341.417 175.74C341.107 174.83 341.772 174.631 342.437 174.52C344.81 174.165 346.872 172.611 349.089 172.301C349.88 172.097 350.582 171.636 351.084 170.992L341.195 174.12L340.996 173.543L356.517 167.286L356.472 167.02ZM384.809 163.824C385.319 163.602 385.874 163.58 386.029 164.335C386.184 165.089 385.807 165.089 385.341 165.222L378.357 167.308L378.18 166.864C380.375 165.91 382.57 164.867 384.787 163.869L384.809 163.824ZM377.914 165.023C380.006 163.425 382.501 162.442 385.12 162.182C382.636 163.048 380.641 165.023 377.914 165.067V165.023ZM379.621 172.012C382.37 171.702 384.255 169.793 386.494 168.24C386.849 170.459 382.703 172.878 378.423 173.1C378.401 172.323 379.022 172.123 379.621 172.057V172.012ZM387.226 172.012C385.218 173.756 382.657 174.731 379.998 174.764L387.226 172.012ZM387.581 174.498C385.147 176.384 382.222 177.532 379.155 177.804C382.282 177.515 384.388 174.675 387.559 174.498H387.581ZM379.976 183.04C382.494 181.714 385.158 180.687 387.913 179.978L388.18 180.733C385.585 181.909 383.013 183.085 380.419 184.217C380.265 184.265 380.101 184.274 379.942 184.243C379.783 184.212 379.635 184.142 379.51 184.039C379.155 183.529 379.576 183.24 379.976 183.04V183.04ZM380.951 185.659C383.137 184.818 385.22 183.731 387.16 182.419C387.559 182.131 388.313 181.598 388.645 182.53C388.739 182.833 388.713 183.161 388.572 183.446C388.432 183.73 388.189 183.951 387.891 184.061C385.231 185.259 382.57 186.413 379.865 187.612C379.399 186.28 380.33 185.925 380.951 185.659V185.659ZM383.168 190.252C384.721 189.276 386.317 188.41 387.913 187.501C388.29 187.279 388.756 187.123 389.022 187.656C389.072 187.757 389.1 187.867 389.103 187.98C389.106 188.092 389.085 188.204 389.04 188.307C388.996 188.411 388.93 188.503 388.846 188.578C388.763 188.654 388.664 188.71 388.556 188.743C386.206 189.897 383.878 191.073 381.506 192.16C380.175 192.76 380.131 191.65 379.843 190.296C380.302 190.707 380.898 190.93 381.514 190.922C382.13 190.913 382.72 190.675 383.168 190.252V190.252ZM383.59 193.048C385.097 192.636 386.452 191.796 387.492 190.629C387.689 190.389 387.949 190.209 388.243 190.111C388.538 190.013 388.854 190 389.155 190.075C389.31 190.075 389.554 190.43 389.576 190.651C389.576 191.473 388.956 191.583 388.401 191.828L380.175 195.733C380.514 195.063 380.996 194.476 381.585 194.012C382.175 193.548 382.859 193.219 383.59 193.048ZM384.477 204.365C383.59 204.875 383.013 205.763 382.038 205.541C381.395 205.385 381.882 204.631 381.727 204.165C381.628 203.917 381.584 203.65 381.599 203.383C381.614 203.116 381.688 202.856 381.815 202.621C381.942 202.386 382.119 202.181 382.334 202.023C382.549 201.864 382.796 201.754 383.058 201.702C384.603 200.838 386.282 200.238 388.024 199.927C386.738 201.458 384.942 201.569 383.59 202.456C383.146 202.745 382.237 202.612 382.437 203.588C382.636 204.564 383.59 204.143 384.388 204.387L384.477 204.365ZM383.058 197.486C382.503 197.752 381.639 198.085 382.282 198.728C382.925 199.372 382.836 199.927 382.082 200.193C380.885 200.637 381.195 199.505 381.129 199.35C380.641 197.863 380.796 196.976 381.971 196.598C384.268 195.814 386.452 194.732 388.468 193.381C388.778 193.181 389.066 192.56 389.488 193.181C389.909 193.802 389.798 194.091 389.133 194.402C387.115 195.267 385.098 196.376 383.058 197.486ZM387.625 208.448C386.849 208.803 386.095 209.224 385.408 209.513C384.721 209.801 383.545 209.934 383.9 210.844C384.255 211.754 385.253 211.554 386.117 211.155C388.446 210.178 390.862 209.402 393.235 208.492C393.436 208.401 393.659 208.367 393.878 208.394C394.097 208.422 394.304 208.509 394.477 208.647C392.769 209.911 390.887 210.92 388.889 211.643C387.027 212.73 385.075 213.64 383.124 214.638C381.661 209.379 382.104 208.714 387.625 208.359V208.448ZM411.35 319.262C412.592 319.418 412.437 319.617 412.348 320.483C412.259 321.348 412.348 322.302 411.461 322.435C410.574 322.568 410.596 321.481 410.308 320.904C409.621 319.595 409.022 318.219 408.446 316.999C408.472 316.411 408.539 315.825 408.645 315.246C408.8 314.625 408.645 313.715 409.576 313.582C409.842 313.582 410.197 313.848 410.441 314.07C411.306 314.846 410.33 315.268 410.042 315.801C409.177 317.31 409.909 318.952 411.35 319.151V319.262ZM406.783 309.876H406.672C404.454 312.827 400.995 314.558 398.29 317.021C397.536 317.709 397.27 316.888 396.938 316.4C396.273 315.468 397.071 315.157 397.647 314.824C400.641 313.16 403.678 311.518 406.694 309.876C407.825 309.232 408.911 308.589 410.086 307.99C410.53 307.746 411.151 307.546 411.505 308.123C411.86 308.7 411.261 309.011 410.907 309.366C410.552 309.721 409.066 310.031 406.783 309.787V309.876ZM403.39 319.728C403.39 319.861 403.08 319.883 402.947 320.017C402.126 320.904 400.042 320.971 400.729 322.79C401.417 324.61 402.947 322.591 403.944 322.99C403.944 324.122 402.791 324.166 402.193 324.699C401.594 325.231 400.929 325.631 400.109 326.207C398.822 321.415 398.8 321.37 402.858 318.774C403.545 318.33 404.61 316.91 405.075 317.798C406.006 319.085 403.878 318.841 403.39 319.639V319.728ZM406.051 324.166C405.297 326.518 403.213 327.206 402.281 328.87C402.06 329.292 401.528 329.247 401.128 328.87C400.375 328.271 400.951 327.628 401.306 327.317C402.663 325.911 404.273 324.775 406.051 323.966V324.166ZM398.202 319.062L407.071 312.228C405.519 316.067 401.905 317.554 398.202 318.907V319.062ZM408.978 307.369L397.492 313.759C397.071 314.003 396.583 314.669 396.184 314.048C395.785 313.426 396.339 313.049 396.938 312.672C400.596 310.453 404.233 308.234 407.869 306.015C408.179 305.775 408.543 305.613 408.929 305.544C409.315 305.474 409.712 305.499 410.086 305.616C410.197 306.548 409.576 306.88 409 307.213L408.978 307.369ZM396.539 311.451C396.162 311.696 395.607 311.851 395.452 311.252C395.297 310.653 396.007 309.943 396.561 309.632C399.377 308.079 402.171 306.481 405.075 305.194C406.295 304.639 407.293 303.397 409.51 303.441C405.164 306.836 400.596 308.611 396.561 311.296L396.539 311.451ZM395.563 256.998L387.093 261.259C386.738 259.861 386.894 259.04 388.446 258.529C390.667 257.726 392.83 256.769 394.92 255.667C395.63 255.312 396.117 255.267 396.428 255.978C396.738 256.688 396.051 256.621 395.585 256.843L395.563 256.998ZM396.694 261.747C394.901 263.215 392.705 264.104 390.397 264.299C392.272 262.93 394.432 262.004 396.716 261.592L396.694 261.747ZM394.077 304.595C398.059 302.075 402.323 300.034 406.783 298.515C405.319 300.734 402.836 301.444 400.796 302.775C398.756 304.107 397.16 304.883 395.297 305.86C394.876 306.082 394.277 306.437 393.922 305.86C393.822 305.762 393.746 305.643 393.701 305.511C393.655 305.378 393.642 305.237 393.661 305.099C393.681 304.96 393.733 304.829 393.813 304.714C393.893 304.599 393.999 304.505 394.122 304.44L394.077 304.595ZM395.186 239.868C392.836 241.549 390.241 242.859 387.492 243.751C389.628 241.673 392.313 240.249 395.23 239.646L395.186 239.868ZM385.874 237.649L394.432 233.389C394.721 233.255 395.053 232.923 395.275 233.389C395.335 233.479 395.374 233.581 395.388 233.689C395.403 233.796 395.393 233.905 395.358 234.008C395.324 234.111 395.267 234.205 395.191 234.282C395.115 234.359 395.022 234.418 394.92 234.454C392.082 235.63 389.377 237.427 385.807 237.427L385.874 237.649ZM394.1 229.284C391.329 231.007 388.192 232.056 384.942 232.346L393.568 228.085C394.033 227.863 394.632 227.508 394.92 228.085C395.208 228.662 394.543 228.773 394.144 229.084L394.1 229.284ZM396.893 306.215C399.992 304.227 403.265 302.526 406.672 301.133C407.137 300.956 407.514 300.334 407.869 301.133C408.224 301.932 407.692 301.91 407.27 302.132L394.676 309.011C394.454 306.836 395.94 306.814 396.893 306.215ZM383.59 219.675C386.819 217.502 390.48 216.056 394.321 215.437C391.064 217.554 387.414 218.996 383.59 219.675ZM383.59 215.814C384.593 215.131 385.637 214.508 386.716 213.951C388.661 213.196 390.544 212.291 392.348 211.243C392.747 210.933 393.834 210.223 394.277 211.465C394.499 212.109 394.654 212.885 393.767 213.263L384.898 217.19C384.055 217.301 383.59 217.545 383.346 216.968C383.229 216.771 383.189 216.537 383.234 216.311C383.279 216.086 383.406 215.885 383.59 215.748V215.814ZM384.299 221.983C387.403 220.008 390.951 219.431 394.255 217.878L394.543 218.544L384.765 222.982C384.388 223.159 383.9 223.381 383.656 222.782C383.412 222.183 383.9 222.138 384.277 221.894L384.299 221.983ZM394.41 223.847L394.831 224.757C391.614 226.842 388.111 228.449 384.432 229.528L384.144 228.928L394.41 223.847ZM394.1 230.659C394.499 230.46 394.876 230.171 395.164 230.659C395.452 231.147 395.164 231.458 394.698 231.702C391.646 233.593 388.232 234.825 384.676 235.319L394.1 230.659ZM394.698 244.306C395.142 244.04 395.497 244.062 395.585 244.683C395.674 245.304 395.585 245.948 394.831 246.17C392.073 247.057 389.395 248.178 386.827 249.52C386.472 249.698 385.874 249.831 385.696 249.298C385.65 249.172 385.63 249.037 385.637 248.903C385.643 248.768 385.676 248.636 385.734 248.515C385.792 248.393 385.873 248.284 385.973 248.194C386.073 248.103 386.19 248.034 386.317 247.989L394.698 244.306ZM373.102 298.226C372.526 293.944 372.614 293.944 377.071 293.966C379.233 293.693 381.424 293.753 383.568 294.144C384.477 294.432 385.785 294.299 386.117 295.142C386.237 295.705 386.196 296.29 386 296.832C385.804 297.373 385.461 297.848 385.009 298.204C382.348 300.579 378.734 301.178 375.585 302.642C374.366 303.197 373.368 300.734 373.368 299.314C373.256 298.927 373.167 298.535 373.102 298.138V298.226ZM328.712 168.639L341.461 165.311C337.47 167.463 330.752 169.283 328.712 168.639ZM325.32 168.262C329.108 166.552 333.081 165.286 337.16 164.49C333.382 166.237 329.406 167.518 325.32 168.307V168.262ZM327.537 169.416C325.94 171.014 323.767 170.592 321.838 171.08C323.441 169.857 325.44 169.272 327.448 169.438L327.537 169.416ZM317.071 166.909C324.158 164.203 331.455 162.088 338.889 160.585C331.803 163.289 324.505 165.404 317.071 166.909V166.909ZM325.94 162.271L334.566 159.764C331.958 161.335 328.984 162.192 325.94 162.249V162.271ZM333.923 158.366C327.916 160.689 321.732 162.521 315.43 163.847C321.394 161.352 327.609 159.507 333.967 158.344L333.923 158.366ZM281.595 227.686C279.998 227.486 277.892 228.041 278.18 225.223C278.178 224.893 278.288 224.573 278.491 224.313C279.333 223.647 282.77 225.045 282.925 226.244C283.08 227.442 282.859 227.863 281.595 227.686ZM284.233 229.905C284.588 231.014 283.768 230.926 283.169 230.859C281.595 230.859 279.998 231.347 279.355 229.439C279.299 229.338 279.281 229.22 279.303 229.106C279.326 228.993 279.388 228.891 279.478 228.819C279.569 228.747 279.682 228.71 279.797 228.713C279.913 228.717 280.024 228.762 280.109 228.84C281.329 229.683 283.413 227.442 284.189 229.905H284.233ZM279.222 232.124C280.244 232.353 281.304 232.353 282.326 232.124C284.189 232.124 284.233 232.124 285.409 234.343C283.014 234.343 280.974 234.343 278.89 234.099C278.424 234.099 277.249 234.431 277.448 233.145C277.648 231.858 278.38 231.769 279.178 232.079L279.222 232.124ZM284.122 224.313C286.561 224.313 285.187 226.687 286.672 227.486C284.1 228.152 284.012 226.599 283.723 225.267C283.59 224.712 283.369 224.291 284.078 224.269L284.122 224.313ZM278.712 235.208C282.171 235.474 285.652 235.474 289.134 235.674C289.843 235.674 291.196 235.297 291.107 236.695C291.018 238.093 289.843 237.227 289.111 237.582C285.63 237.582 282.083 237.582 278.513 237.582C277.803 237.582 276.961 237.849 277.249 236.65C277.426 235.763 277.448 235.008 278.712 235.208ZM277.87 238.98C282.495 238.531 287.156 238.575 291.772 239.113C292.016 239.113 292.193 239.624 292.659 240.223C289.579 240.52 286.479 240.572 283.391 240.378C281.661 240.378 279.91 240.511 278.18 240.378C277.87 240.378 277.205 240.378 277.138 239.846C277.119 239.733 277.123 239.618 277.15 239.507C277.177 239.396 277.227 239.292 277.295 239.201C277.363 239.11 277.45 239.033 277.548 238.976C277.647 238.919 277.757 238.883 277.87 238.869V238.98ZM293.59 243.241C288.202 243.884 283.191 242.198 278.069 241.71C283.28 241.865 288.712 240.511 293.612 243.108L293.59 243.241ZM272.593 221.894C273.236 221.428 273.701 220.718 274.81 220.829C276.207 220.985 276.229 222.072 276.916 223.048C275.63 223.337 275.32 221.939 274.389 222.582C274.115 222.76 273.802 222.867 273.477 222.895C273.152 222.922 272.825 222.868 272.526 222.738C272.171 222.671 272.26 222.161 272.593 221.894ZM276.562 224.446C276.052 225.999 276.717 227.886 274.588 227.686C273.125 227.553 274.854 225.667 273.546 225.201C274.278 224.113 275.32 224.579 276.562 224.468V224.446ZM276.85 246.636C276.628 244.261 279.067 246.325 280.198 245.77C285.098 243.551 290.043 245.482 294.965 245.77C293.856 246.858 292.615 246.103 291.462 246.369C291.462 247.457 292.548 246.725 293.058 247.501C288.912 247.501 284.987 247.812 281.107 247.501C279.688 247.546 277.16 248.921 276.85 246.725V246.636ZM278.158 250.563C278.047 249.587 278.823 249.609 279.378 249.631C281.728 249.764 284.056 249.964 286.406 250.142L291.284 250.541C290.486 249.498 289.51 249.853 288.158 249.476C291.107 248.588 293.479 249.476 295.83 249.476C296.428 249.476 296.961 249.875 296.672 250.741C296.384 251.606 296.539 252.161 295.519 252.072C290.115 251.392 284.659 251.214 279.222 251.54C279.099 251.569 278.97 251.571 278.846 251.545C278.722 251.519 278.604 251.466 278.503 251.39C278.401 251.314 278.318 251.216 278.258 251.104C278.198 250.992 278.164 250.868 278.158 250.741V250.563ZM297.581 254.158L286.251 253.182C290.058 252.649 293.936 253.006 297.581 254.225V254.158ZM279.222 253.803C285.364 253.803 291.262 254.691 297.67 255.046C294.344 256.222 280.287 255.179 279.222 253.892V253.803ZM287.692 271.555C286.872 271.266 285.608 272.442 285.187 270.867C285.032 270.312 285.187 269.846 285.83 269.779C286.754 269.625 287.701 269.84 288.468 270.379C288.601 271.288 288.247 271.777 287.692 271.555V271.555ZM288.158 267.405C286.761 267.916 285.275 268.737 284.389 266.873C283.967 265.985 285.098 265.963 285.564 266.029C286.805 266.185 288.513 265.231 289.111 267.006C289.444 268.004 288.646 267.76 288.247 267.405H288.158ZM288.158 260.904C288.158 260.305 287.958 259.728 287.271 259.506C287.781 260.66 288.424 261.614 286.14 261.592C282.216 261.592 282.216 261.592 280.087 256.532C285.139 256.348 290.198 256.668 295.187 257.486C291.501 257.867 287.786 257.867 284.1 257.486C283.302 257.486 282.46 257.131 282.06 258.108C282.018 258.266 282.016 258.432 282.055 258.591C282.094 258.75 282.172 258.897 282.282 259.018C282.925 259.417 283.657 259.883 284.499 259.373C285.342 258.862 286.34 259.373 287.249 259.528C288.247 259.328 289.466 258.285 290.087 259.927C290.309 260.504 290.996 261.525 289.932 261.902C289.754 261.967 289.564 261.991 289.376 261.973C289.188 261.954 289.007 261.894 288.845 261.796C288.683 261.698 288.546 261.565 288.442 261.407C288.338 261.248 288.272 261.069 288.247 260.881L288.158 260.904ZM294.632 260.904C294.632 261.769 294.233 262.146 293.59 261.813C292.947 261.481 290.663 262.745 290.686 260.26C290.686 259.173 291.24 259.173 292.326 259.239C293.413 259.306 294.655 258.907 294.721 260.815L294.632 260.904ZM306.229 314.38C302.522 314.991 298.724 314.717 295.142 313.582C299.776 308.944 302.792 314.048 306.317 314.292L306.229 314.38ZM293.369 315.734C293.369 315.246 293.834 314.78 293.967 314.758C296.894 315.224 299.355 315.623 301.794 316.045C302.057 316.093 302.291 316.239 302.451 316.453C302.612 316.667 302.686 316.933 302.659 317.199C302.659 318.02 301.994 317.975 301.528 317.909C299.133 317.554 296.739 317.154 294.344 316.71C293.945 316.555 293.302 316.355 293.457 315.667L293.369 315.734ZM293.236 318.33C294.477 317.287 302.592 319.262 303.568 321.015C300.131 320.549 296.916 320.128 293.612 319.617C292.881 319.417 292.681 318.796 293.324 318.264L293.236 318.33ZM292.681 322.014C292.681 321.592 292.925 321.392 293.258 321.237C296.571 321.168 299.877 321.564 303.08 322.413C303.215 322.566 303.328 322.738 303.413 322.923C303.701 323.944 303.413 324.233 302.504 324.122L293.435 322.857C293.323 322.855 293.212 322.829 293.111 322.781C293.01 322.732 292.92 322.663 292.848 322.576C292.777 322.49 292.725 322.389 292.696 322.28C292.667 322.171 292.662 322.058 292.681 321.947V322.014ZM292.371 325.098C292.371 324.321 292.703 324.011 293.524 324.122C296.384 324.499 299.244 324.854 302.127 325.187C302.925 325.187 303.435 325.586 303.524 326.474C303.612 327.361 302.969 327.029 302.349 326.984C299.267 327.539 296.251 325.52 292.992 326.074C292.681 326.052 292.393 325.608 292.459 325.031L292.371 325.098ZM293.036 327.317C296.428 327.628 299.821 327.96 303.213 328.316C303.834 328.316 303.745 328.848 303.657 329.314C303.502 330.113 302.903 330.179 301.927 330.157C299.156 329.758 296.029 329.314 292.925 328.826C292.504 328.826 292.06 328.493 292.083 327.983C292.105 327.472 292.681 327.206 293.125 327.25L293.036 327.317ZM298.291 330.867C299.682 330.876 301.07 331.01 302.437 331.267C302.992 331.267 303.59 331.489 303.479 332.132C303.368 332.776 302.659 332.465 302.216 332.398L292.193 330.889C294.699 329.58 296.517 330.934 298.38 330.801L298.291 330.867ZM291.639 333.663C291.639 332.887 291.994 331.977 292.703 332.088C296.162 332.554 299.599 333.175 303.036 333.796C303.701 333.907 303.657 334.595 303.59 335.106C303.59 335.993 302.725 335.35 302.415 335.571C299.089 335.327 295.874 335.061 292.659 334.861C291.972 334.728 291.794 334.262 291.794 333.597L291.639 333.663ZM291.639 336.792C291.639 335.527 292.615 335.749 293.346 335.793C296.384 336.037 299.422 336.392 302.459 336.57C303.723 336.57 303.768 337.48 303.989 338.678C304.211 339.876 303.546 339.788 302.548 339.677C299.377 339.299 296.184 338.922 293.014 338.611C291.972 338.412 291.75 337.702 291.772 336.725L291.639 336.792ZM291.639 340.653C291.883 339.1 292.814 339.943 293.612 340.009C296.648 340.104 299.676 340.37 302.681 340.808C303.834 341.03 304.255 341.274 304.012 342.361C304.632 343.604 303.701 343.493 303.058 343.427C299.865 343.072 296.65 342.694 293.479 342.251C292.681 342.073 291.484 342.073 291.706 340.586L291.639 340.653ZM291.639 344.359C291.639 343.981 291.639 343.671 292.216 343.826C295.985 344.137 299.71 344.425 303.457 344.758C304.366 344.758 304.366 345.623 304.433 346.333C304.499 347.044 303.723 347.243 303.191 347.177C299.732 346.711 296.295 346.156 292.836 345.712C291.994 345.535 291.728 345.113 291.772 344.292L291.639 344.359ZM291.351 348.375C291.55 346.888 292.615 347.554 293.369 347.687C296.384 348.175 299.466 347.687 302.504 348.197C303.989 348.419 304.388 348.974 304.588 350.239C304.876 349.662 304.699 349.063 305.364 348.796C305.009 350.305 307.382 349.706 307.138 351.015C306.894 352.325 306.162 351.437 305.697 351.282C303.479 350.527 300.575 351.814 298.867 349.218C297.581 350.816 296.961 350.061 296.539 348.575C295.541 349.151 294.677 350.061 293.346 349.551C292.681 349.218 291.262 350.106 291.484 348.375H291.351ZM292.016 354.721C293.157 354.599 294.311 354.775 295.364 355.231C295.364 355.875 295.098 356.518 294.81 356.43C293.679 356.052 292.282 356.43 291.395 355.52C291.129 355.032 291.75 354.655 292.149 354.655L292.016 354.721ZM292.637 357.672C293.524 358.005 295.009 357.095 295.165 358.981C295.165 359.78 294.632 360.069 294.3 359.825C293.324 359.159 291.573 360.468 291.218 358.671C291.173 357.717 291.972 357.473 292.681 357.606L292.637 357.672ZM291.44 377.044C291.24 378.286 291.018 379.507 290.708 381.482C289.621 379.529 290.353 378.198 290.131 376.911C290.131 376.378 290.331 376.09 290.885 376.156C291.44 376.223 291.661 376.511 291.595 376.977L291.44 377.044ZM292.681 363.908C291.794 364.196 291.75 364.995 292.681 365.35C293.612 365.705 293.524 365.882 293.413 366.459C293.395 366.567 293.355 366.67 293.295 366.761C293.235 366.852 293.156 366.93 293.064 366.988C292.972 367.047 292.868 367.085 292.76 367.101C292.652 367.117 292.542 367.11 292.437 367.081C291.839 367.081 290.841 367.081 290.841 366.482C290.863 364.826 290.989 363.173 291.218 361.533C291.218 361.356 291.218 360.956 291.75 361.2C292.326 361.911 293.79 361.2 294.1 362.399C294.411 363.597 293.524 363.641 292.681 363.908ZM301.218 385.032C300.375 386.119 299.222 385.165 298.136 385.187C298.801 384.322 298.867 382.569 300.619 383.501C301.395 383.878 301.55 384.633 301.24 385.032H301.218ZM301.55 375.624C300.553 375.402 299.156 376.09 298.646 374.625C298.446 374.048 298.801 373.449 299.444 373.649C300.087 373.848 301.661 373.161 302.038 374.98C302.06 375.002 302.127 375.757 301.55 375.624ZM301.55 371.541C300.597 371.119 299.178 371.94 298.668 370.52C298.628 370.401 298.613 370.274 298.626 370.149C298.638 370.023 298.677 369.902 298.74 369.793C298.803 369.684 298.888 369.589 298.991 369.516C299.093 369.442 299.21 369.391 299.333 369.366C300.309 369.877 301.75 369.122 302.238 370.587C302.415 371.097 302.26 371.874 301.55 371.563V371.541ZM301.395 368.456C300.53 368.124 299.178 368.767 298.89 367.28C298.757 366.459 299.133 365.86 300.02 366.016C300.907 366.171 302.238 365.838 302.371 367.081C302.504 368.323 302.193 368.767 301.417 368.479L301.395 368.456ZM304.366 363.797C304.255 364.018 304.1 364.462 304.034 364.44C302.526 364.152 301.085 365.017 299.599 364.573C298.114 364.129 299.599 362.865 298.513 362.51C297.759 362.842 298.513 364.729 296.894 364.174C296.273 363.952 296.318 363.286 296.517 362.82C296.566 362.588 296.668 362.369 296.815 362.182C296.962 361.995 297.15 361.845 297.364 361.742C297.578 361.639 297.813 361.587 298.051 361.589C298.288 361.591 298.522 361.648 298.734 361.755C300.315 362.189 301.934 362.471 303.568 362.598C304.499 362.598 304.433 363.264 304.411 363.885C304.965 362.088 306.317 363.109 307.337 363.109C308.357 363.109 307.914 363.908 307.781 364.329C307.648 364.751 307.781 365.527 306.983 365.261C306.184 364.995 304.189 365.993 304.388 363.908L304.366 363.797ZM296.362 358.626C296.14 357.939 296.628 357.805 297.027 357.85C298.801 358.05 300.553 358.338 302.304 358.626C302.436 358.63 302.566 358.663 302.684 358.722C302.802 358.781 302.906 358.866 302.989 358.969C303.071 359.073 303.13 359.193 303.161 359.322C303.192 359.45 303.195 359.584 303.169 359.714C303.169 360.379 302.748 360.868 302.349 360.912C300.397 360.69 298.757 360.557 297.116 360.313C296.207 360.18 296.584 359.248 296.384 358.649L296.362 358.626ZM309.533 368.345C309.533 369.078 309.533 369.788 308.513 369.721C307.958 369.455 306.805 370.121 306.805 368.856C306.805 368.257 306.495 367.125 307.87 367.303C308.579 367.325 309.51 367.014 309.533 368.345ZM310.952 377.377C309.776 376.977 310.264 376.112 309.732 375.646C308.845 375.646 309.178 377.11 308.113 376.999C307.692 376.223 307.36 375.246 308.113 374.78C308.463 374.628 308.841 374.549 309.222 374.549C309.604 374.549 309.981 374.628 310.331 374.78C311.639 375.002 310.974 376.178 310.974 377.221L310.952 377.377ZM312.615 361.356C312.615 361.8 313.058 362.709 311.639 362.243C310.22 361.777 307.892 363.464 307.027 360.779C306.916 360.979 306.783 361.156 306.694 361.378C306.317 362.221 305.785 361.6 305.431 361.378C305.076 361.156 304.921 360.49 305.031 360.002C305.142 359.514 305.475 359.292 305.674 359.337C307.737 359.603 309.799 359.958 311.861 360.291C312.348 360.313 312.637 360.668 312.637 361.245L312.615 361.356ZM310.397 358.893C308.18 358.138 305.408 358.893 303.745 356.674C303.375 357.014 302.922 357.25 302.432 357.359C301.941 357.468 301.431 357.446 300.952 357.295C300.043 357.295 299.067 357.184 299.156 355.919C299.244 354.655 300.397 355.076 300.996 355.165C304.61 355.631 308.224 356.208 311.816 356.74C312.326 356.74 312.637 357.007 312.681 357.606C312.649 357.854 312.557 358.091 312.414 358.297C312.271 358.502 312.08 358.67 311.857 358.785C311.635 358.901 311.388 358.961 311.138 358.96C310.888 358.96 310.641 358.898 310.419 358.782L310.397 358.893ZM312.615 354.588C312.615 355.919 311.728 355.808 310.996 355.631C307.005 354.61 302.725 355.098 298.89 353.212C298.247 352.902 296.894 354.322 296.672 352.458C295.32 353.745 293.812 352.458 292.371 352.635C292.193 352.635 291.839 352.325 291.861 352.258C291.883 352.191 292.193 351.859 292.371 351.57C293.701 352.369 295.564 350.15 296.805 352.857C296.85 352.644 296.937 352.442 297.061 352.263C297.185 352.084 297.344 351.932 297.528 351.816C297.712 351.7 297.918 351.622 298.133 351.588C298.348 351.553 298.567 351.562 298.779 351.615C302.992 352.058 307.049 353.39 311.329 353.279C311.595 353.234 312.637 353.19 312.637 354.477L312.615 354.588ZM312.504 350.549C312.171 351.06 313.08 352.28 311.728 352.302C311.04 352.302 310.02 352.302 310.109 351.038C310.109 350.328 309.843 349.307 311.151 349.373C311.794 349.285 312.637 349.262 312.459 350.438L312.504 350.549ZM322.925 391.023C322.925 391.489 323.169 392.532 322.238 392.31C321.306 392.088 320.175 392.31 320.02 391.134C319.821 390.202 320.464 390.18 321.218 390.269C321.971 390.358 322.881 389.226 322.881 390.912L322.925 391.023ZM292.415 186.147C295.054 184.86 297.537 186.147 299.754 185.038C299.244 184.505 298.601 184.217 298.091 184.483C296.672 185.282 295.453 183.529 294.034 184.305C293.524 184.572 293.258 183.839 293.213 183.506C293.169 183.174 293.768 182.93 294.145 182.907C296.584 182.907 298.934 181.776 301.439 182.197C301.775 182.29 302.133 182.253 302.441 182.092C302.75 181.932 302.986 181.66 303.102 181.332C300.385 181.538 297.652 181.351 294.987 180.777C302.171 179.446 308.712 179.557 315.164 178.824C305.386 178.048 295.719 179.557 285.985 180.356C299.998 177.537 314.3 176.561 328.646 171.924C327.803 173.61 326.007 174.808 328.801 175.208C329.754 175.341 329.266 177.427 329.643 178.78C331.321 183.801 332.618 188.941 333.524 194.157C333.524 194.335 333.524 194.601 333.524 194.668C334.92 195.689 330.841 197.175 333.923 198.44C334.699 198.751 333.923 202.079 334.499 203.255C336.821 209.438 338.515 215.838 339.555 222.36C341.772 233.056 344.965 243.574 345.829 254.535C346.539 263.411 347.226 272.487 348.313 281.429C348.65 284.328 348.394 287.265 347.559 290.061C347.45 290.743 347.196 291.394 346.814 291.97C346.431 292.545 345.93 293.031 345.343 293.396C344.756 293.76 344.098 293.993 343.413 294.08C342.728 294.167 342.032 294.106 341.373 293.9C337.093 292.723 332.881 293.544 328.646 293.9C326.894 293.9 325.098 293.589 323.368 293.9L338.579 291.681C338.446 290.726 338.579 291.481 338.579 291.37L322.548 292.524V291.681C327.312 290.855 332.115 290.27 336.938 289.928C337.537 289.928 338.801 290.749 338.734 289.284C338.668 287.82 337.47 288.707 336.872 288.752C332.437 289.129 328.003 289.617 323.413 290.039C322.681 290.039 321.639 290.527 321.462 289.373C321.284 288.219 322.548 288.552 323.124 288.441C327.781 287.531 332.592 287.398 337.005 285.246L326.251 286.865C324.943 287.065 323.634 287.265 322.304 287.398C321.639 287.398 320.708 287.686 320.619 286.688C320.53 285.689 321.417 285.911 321.972 285.8C324.928 285.025 327.989 284.726 331.04 284.913C331.595 284.913 332.437 285.157 332.526 284.291C332.614 283.426 331.861 283.337 331.062 283.426C327.736 283.803 324.411 284.092 321.107 284.425C320.597 284.425 320.065 284.735 319.51 284.047C321.037 283.154 322.739 282.602 324.499 282.428C327.158 281.773 329.864 281.328 332.592 281.096C333.08 281.096 333.723 281.407 333.634 280.519C333.546 279.632 332.925 279.987 332.437 280.053C328.934 280.63 325.453 281.296 321.949 281.74C320.974 281.873 319.355 283.049 319 281.54C318.756 280.453 320.619 280.675 321.55 280.43C325.992 279.351 330.493 278.536 335.031 277.99C334.876 277.413 334.743 277.013 334.322 277.08C330.097 277.562 325.906 278.303 321.772 279.299C321.365 279.479 320.93 279.584 320.486 279.609C319.688 279.609 318.468 280.009 318.269 278.833C318.069 277.657 319.422 277.834 320.153 277.679C324.854 276.703 329.399 275.016 334.144 274.084C330.974 273.596 328.047 275.105 324.61 275.216C325.924 274.471 327.345 273.932 328.823 273.618C329.71 273.485 331.218 273.396 331.04 272.22C330.863 271.044 329.444 271.688 328.535 271.821L317.204 273.529C324.078 271.643 330.508 270.8 336.694 268.492L336.495 267.649L328.623 269.646C324.99 270.705 321.285 271.499 317.537 272.021C316.273 272.154 316.229 271.577 316.029 270.845C315.83 270.112 316.207 269.691 317.049 269.447C321.107 268.337 325.408 268.115 329.244 266.096C325.187 266.717 321.129 267.339 317.071 267.938C316.295 267.938 315.275 268.714 315.009 267.205C314.743 265.697 315.985 266.029 316.717 265.83C320.523 264.475 324.518 263.727 328.557 263.611C328.069 262.013 327.027 262.657 326.34 262.768C322.997 263.131 319.685 263.732 316.428 264.565C315.697 264.765 314.566 265.253 314.388 264.232C314.211 263.211 315.475 263.367 316.162 263.234C319.799 262.523 323.169 260.748 326.96 260.615C323.501 259.35 319.954 262.501 316.074 260.216C320.351 258.769 324.731 257.649 329.178 256.865C329.178 256.199 328.823 255.911 328.313 256.044C324.233 257.176 319.976 257.464 315.985 258.951C315.408 259.173 314.743 259.106 314.167 259.306C312.814 259.728 312.792 258.751 312.526 257.908C312.26 257.065 312.371 256.31 313.568 256.044C317.448 255.179 321.284 254.202 325.142 253.248L327.359 252.671L327.226 252.028C325.586 252.272 323.923 252.449 322.304 252.782C319.2 253.426 316.096 254.114 313.014 255.001C312.238 255.201 311.816 255.001 311.572 254.38C311.329 253.759 311.728 253.359 312.504 253.248C317.825 252.449 322.903 250.63 328.158 249.476C328.756 249.343 329.643 249.476 329.422 248.611C329.2 247.745 328.357 248.322 327.825 248.433C322.792 249.587 317.781 250.807 312.748 251.961C311.972 252.139 310.952 252.56 310.708 251.14C310.464 249.72 311.617 250.12 312.238 249.942C316.052 248.556 320.128 248.04 324.167 248.433C324.61 248.433 324.898 248.433 324.965 248.056C325.031 247.679 324.544 247.279 324.122 247.279C322.646 247.179 321.164 247.179 319.688 247.279C316.606 247.656 313.546 248.189 310.442 248.5C315.586 246.281 321.24 246.059 326.473 244.239C322.925 244.772 319.399 245.282 315.852 245.859C314.189 246.125 312.57 246.569 310.929 246.902C310.065 247.08 309.422 246.902 309.244 245.859C309.067 244.816 309.732 244.75 310.442 244.594L325.963 241.066C323.169 240.023 321.129 241.31 319.089 241.554C316.084 241.758 313.111 242.286 310.22 243.13C309.51 243.374 308.579 243.64 308.335 242.442C308.091 241.244 309.089 241.222 309.799 241.155C314.233 240.733 318.402 238.936 323.102 238.692C322.415 237.161 321.328 237.804 320.508 237.96C316.938 238.603 313.391 239.38 309.843 240.045C309.045 240.201 307.936 240.689 307.626 239.38C307.315 238.071 308.579 238.204 309.333 238.071C312.607 237.336 315.938 236.883 319.289 236.717C319.732 236.717 320.242 236.85 320.153 236.162C320.065 235.474 319.577 235.763 319.067 235.763C315.469 235.949 311.889 236.402 308.357 237.116C307.87 237.116 307.315 237.405 306.827 236.362C311.661 235.068 316.636 234.382 321.639 234.321C321.262 232.856 320.198 233.1 319.156 233.233C315.386 233.744 311.617 234.143 307.87 234.787C306.162 235.075 305.896 234.21 305.652 232.989C305.408 231.769 306.495 231.636 307.493 231.502C310.885 231.059 314.278 230.504 317.648 229.994V229.328L306.561 230.415C305.608 230.415 304.876 230.593 304.632 229.306C304.388 228.019 305.453 227.863 306.207 227.775C310.397 227.286 314.477 225.755 318.779 226.532C319.377 226.532 319.666 226.532 319.688 226.022C319.688 224.957 319 225.289 318.424 225.312C314.707 225.43 311.002 225.808 307.337 226.443C306.73 226.563 306.115 226.645 305.497 226.687C304.765 226.687 303.679 227.331 303.502 226.177C303.324 225.023 304.61 225.378 305.231 225.267C310.365 224.406 315.55 223.887 320.752 223.714C321.129 223.714 321.439 223.714 321.439 222.915C319.004 222.659 316.545 222.711 314.122 223.07C310.708 223.359 307.293 223.67 303.878 224.069C303.28 224.069 302.859 224.357 302.725 223.581C302.592 222.804 302.592 222.471 303.546 222.316C308.18 221.562 312.615 219.298 317.47 220.652C317.936 220.785 318.158 220.652 318.158 220.186C318.159 220.029 318.127 219.874 318.063 219.73C317.999 219.587 317.905 219.46 317.787 219.356C317.669 219.253 317.53 219.177 317.38 219.132C317.229 219.088 317.071 219.076 316.916 219.099L312.482 219.365C309.247 219.556 306.039 220.061 302.903 220.874C301.728 221.207 301.816 220.874 301.639 220.186C301.462 219.498 301.085 218.81 302.304 218.655C304.317 218.443 306.301 218.019 308.224 217.39L300.885 217.59C300.885 216.547 301.661 216.48 302.26 216.458C306.184 216.236 309.976 214.394 314.034 215.437C314.16 215.485 314.296 215.504 314.43 215.493C314.565 215.482 314.695 215.441 314.812 215.373C314.929 215.305 315.029 215.211 315.105 215.1C315.182 214.988 315.232 214.861 315.253 214.727C315.364 213.928 314.677 214.017 314.167 213.973C311.186 214.004 308.216 214.324 305.298 214.927C304.121 215.146 302.919 215.199 301.728 215.082C307.114 213.673 312.568 212.54 318.069 211.687C313.707 211.713 309.355 212.091 305.054 212.819C303.442 213.085 301.803 213.145 300.176 212.996C299.913 212.985 299.665 212.872 299.483 212.682C299.301 212.492 299.2 212.239 299.2 211.976C299.2 211.332 299.821 211.598 300.198 211.487C304.778 210.15 309.529 209.492 314.3 209.535C314.3 208.647 313.945 208.514 313.014 208.536C308.558 208.714 304.117 209.144 299.71 209.823C298.357 210.001 298.269 209.246 297.847 208.581C297.798 208.507 297.768 208.422 297.76 208.333C297.752 208.244 297.766 208.155 297.802 208.074C297.837 207.992 297.892 207.92 297.962 207.866C298.032 207.811 298.115 207.774 298.202 207.76C303.191 207.382 308.025 205.541 313.147 206.073C313.59 206.073 314.189 206.45 314.721 205.43C312.312 205.156 309.88 205.156 307.47 205.43C305.253 205.541 302.903 206.029 300.619 206.229C300.153 206.229 299.2 206.517 299.111 205.629C299.023 204.742 299.976 204.942 300.486 204.853C304.824 204.017 309.22 203.513 313.635 203.344C313.967 203.344 314.278 202.989 314.61 202.767C309.156 202.368 303.745 203.632 298.18 202.545L314.344 199.705C310.83 199.512 307.306 199.705 303.834 200.282C302.171 200.481 300.508 200.681 298.823 200.814C298.335 200.814 297.692 201.236 297.471 200.526C297.249 199.816 297.98 199.483 298.557 199.416C302.789 198.501 307.091 197.944 311.417 197.752C312.406 197.86 313.402 197.642 314.255 197.131C309.439 196.996 304.621 197.315 299.865 198.085C299.178 198.196 298.468 198.285 297.759 198.418C297.591 198.475 297.413 198.495 297.237 198.475C297.061 198.455 296.891 198.396 296.741 198.303C296.59 198.209 296.462 198.083 296.366 197.935C296.27 197.786 296.208 197.617 296.185 197.442C295.874 196.265 296.85 196.399 297.471 196.31C301.528 195.799 305.541 194.512 309.732 195.156C305.12 193.891 300.486 195.555 295.874 195.156C301.248 193.908 306.712 193.085 312.215 192.693C306.229 192.205 300.176 192.848 294.278 191.162C297.998 190.945 301.701 190.493 305.364 189.808C303.87 189.167 302.223 188.966 300.619 189.231C298.89 189.231 297.138 189.409 295.386 189.231C294.632 189.231 293.369 189.919 293.435 188.388C293.502 186.857 294.743 187.589 295.519 187.501C298.646 187.146 301.75 186.569 304.921 186.458C300.952 185.459 296.85 187.19 292.415 186.147ZM345.896 308.434C343.945 308.434 341.617 310.053 341.328 306.215C340.907 300.645 340.641 300.445 344.166 300.268C345.741 300.268 348.335 298.049 348.978 301C350.331 307.679 350.109 307.879 345.896 308.434ZM334.81 308.256C333.368 306.037 334.189 303.818 334.433 301.466C335.079 303.678 335.208 306.009 334.81 308.278V308.256ZM328.002 301.977C329.222 301.821 332.038 300.179 332.437 303.219C332.592 304.883 334.3 307.901 331.439 308.256C327.493 308.722 327.98 309.632 327.359 305.394C327.736 304.395 325.785 302.265 328.025 301.999L328.002 301.977ZM324.81 303.308C324.81 304.883 324.81 306.459 324.81 308.034C324.81 308.611 324.544 309.144 323.901 309.033C323.258 308.922 323.435 308.389 323.568 307.923C323.435 306.437 323.28 304.972 323.169 303.485C323.169 302.908 322.925 302.198 323.901 302.11C324.876 302.021 324.832 302.709 324.832 303.33L324.81 303.308ZM317.448 314.403C317.448 314.403 318.158 314.736 318.446 315.002C318.734 315.268 318.446 315.512 318.446 315.69C317.537 317.021 314.455 316.599 313.501 315.002C314.743 314.425 316.295 315.756 317.47 314.491L317.448 314.403ZM300.841 233.255C300.641 232.545 300.553 231.946 301.462 231.835C302.881 231.68 302.859 232.789 303.102 233.677C303.346 234.565 303.59 235.097 302.437 235.164C301.284 235.23 301.351 233.943 300.863 233.344L300.841 233.255ZM370.131 384.322C370.396 387.853 370.87 391.365 371.55 394.84C371.927 397.436 371.306 398.213 368.756 398.168C362.952 398.129 357.154 398.552 351.417 399.433C343.147 400.609 334.81 401.319 326.495 402.207C326.273 402.207 326.029 402.207 325.763 401.696C338.269 399.633 350.929 398.545 363.346 396.371C362.592 393.309 360.175 394.152 358.135 394.152C351.107 394.818 344.1 395.639 337.093 396.371C334.141 396.598 331.176 396.598 328.224 396.371C340.042 394.019 352.082 393.176 363.9 390.801C351.107 391.667 338.402 393.597 325.541 393.619L364.011 387.784C363.501 387.784 362.659 387.628 361.794 387.784C352.703 388.915 343.59 390.002 334.499 391.156C332.149 391.445 329.776 391.689 327.426 391.844C326.628 391.844 325.386 392.821 325.209 391.068C325.031 389.315 326.295 389.936 327.049 389.803C334.787 388.405 342.57 387.806 350.464 387.073C355.275 386.63 359.998 385.431 364.876 385.431C362.546 384.901 360.134 384.841 357.781 385.254C347.67 386.141 337.581 387.318 327.426 387.761C325.453 387.761 325.054 387.34 325.209 385.542C325.29 383.081 325.164 380.616 324.832 378.175C324.521 375.956 325.364 375.357 327.271 375.047C334.854 373.826 342.481 373.072 350.087 372.206C354.521 371.718 358.801 371.43 363.169 371.119C361.409 370.554 359.542 370.402 357.714 370.675C351.772 370.542 345.962 371.962 339.976 372.273C335.541 372.517 331.107 373.094 326.539 373.493C325.896 373.493 324.965 374.093 324.743 373.094C324.521 372.095 325.652 372.295 326.229 372.162C332.459 370.786 338.801 370.298 345.098 369.388C350.052 368.333 355.076 367.643 360.131 367.325C356.201 366.795 352.206 367.013 348.357 367.968C340.951 369.233 333.435 369.499 325.985 370.187C325.43 370.187 324.521 370.786 324.477 369.566C324.433 368.345 325.076 368.501 325.83 368.345C329.938 367.683 334.086 367.305 338.246 367.214C345.411 366.459 352.531 365.326 359.577 363.819V363.175C354.787 363.908 349.998 364.595 345.209 365.394C339 366.393 332.703 366.082 326.473 366.57C325.851 366.591 325.231 366.517 324.632 366.348C324.078 366.215 324.167 365.661 324.167 365.261C324.16 365.172 324.173 365.083 324.204 364.999C324.235 364.915 324.284 364.839 324.347 364.776C324.41 364.713 324.486 364.664 324.57 364.633C324.653 364.601 324.743 364.589 324.832 364.595C329.155 364.817 333.124 362.82 337.426 362.776C340.907 362.776 344.388 362.177 347.869 361.822C348.313 361.822 348.778 361.822 348.845 360.912C341.341 361.116 333.856 361.761 326.428 362.842C325.763 362.842 324.632 363.908 324.455 362.842C324.277 361.777 325.697 361.999 326.45 361.844C336.096 359.78 345.985 359.292 355.696 357.406L324.477 359.625V358.959C335.496 356.323 346.694 354.506 357.98 353.523C352.396 353.265 346.801 353.652 341.306 354.677C335.696 355.498 330.02 355.431 324.388 356.341C326.015 354.798 328.156 353.912 330.397 353.856C339.266 352.502 348.135 351.304 357.115 350.039C357.625 350.039 358.135 349.795 359.067 349.573C353.679 349.573 348.823 350.727 343.9 350.993C337.952 351.417 332.031 352.157 326.162 353.212C325.342 353.345 324.277 353.723 323.945 352.436C323.59 350.794 325.031 351.104 325.83 350.927C334.233 348.885 342.903 348.575 351.395 347.221L354.122 346.799V346.289L333.324 348.508C330.685 348.774 328.047 348.93 325.408 349.152C324.787 349.152 324.1 349.329 323.967 348.464C323.834 347.598 324.61 347.643 325.187 347.576C332.637 346.666 340.065 345.712 347.515 344.847C350.253 344.779 352.971 344.369 355.608 343.626L323.923 345.845L323.79 344.691C333.435 341.94 343.479 341.674 353.39 340.475C343.413 339.965 333.435 341.474 323.634 342.006L346.406 338.545C346.416 338.405 346.416 338.264 346.406 338.123C338.823 338.611 331.173 338.7 323.59 339.188C323.59 338.989 323.59 339.188 323.457 338.19L346.428 334.706C346.428 334.706 346.428 334.706 346.428 334.551C342.104 334.906 337.803 335.505 333.479 335.816C330.508 336.037 327.559 336.237 324.61 336.415C323.967 336.415 323.28 336.526 323.191 335.705C323.102 334.884 323.634 334.64 324.477 334.462C329.754 333.353 335.142 333.264 340.441 332.376C342.465 332.147 344.449 331.647 346.339 330.889C342.481 331.178 338.623 331.466 334.765 331.799C331.328 332.088 327.892 332.487 324.455 332.798C323.878 332.798 323.08 333.153 322.903 332.287C322.725 331.422 323.634 331.289 324.277 331.178C330.081 330.064 335.974 329.485 341.883 329.447C342.64 329.415 343.388 329.265 344.1 329.003C336.872 327.983 329.688 329.691 322.459 329.003C330.774 325.941 339.665 326.54 348.158 324.565C344.976 324.473 341.793 324.666 338.645 325.142C333.812 325.32 329 325.897 324.189 326.163C323.657 326.163 322.215 327.162 322.193 325.453C322.171 323.744 323.413 325.009 324.034 324.854C329.577 323.456 335.297 323.012 340.907 322.102C342.372 322.08 343.815 321.747 345.142 321.126C337.249 321.681 329.754 322.191 322.238 322.968C325.586 321.259 329.289 321.348 332.881 320.749C336.473 320.15 340.065 319.662 343.657 318.796L322.637 320.372C329.289 317.531 336.384 318.286 343.124 316.244L322.77 317.753L322.659 316.954C327.958 315.224 333.612 315.024 338.956 313.471C337.291 313.656 335.61 313.656 333.945 313.471C335.056 312.725 336.35 312.298 337.687 312.236C339.023 312.173 340.352 312.477 341.528 313.116C341.677 313.187 341.84 313.223 342.005 313.223C342.17 313.223 342.332 313.187 342.481 313.116C346.583 309.965 351.617 310.897 356.206 310.253C358.202 309.965 356.206 312.228 356.406 313.338C356.406 313.715 354.876 313.937 355.43 315.024C355.985 316.111 357.027 315.024 357.758 315.357C356.14 319.417 356.14 319.418 358.49 320.305C358.002 321.17 354.654 322.125 358.49 323.057C358.002 323.634 357.559 324.122 357.204 324.632C356.849 325.142 357.315 325.742 357.581 325.608C360.153 324.166 359.554 327.117 360.397 327.827C361.705 328.937 359.754 329.292 359.089 329.869C358.801 330.113 358.158 329.98 358.202 330.623C358.208 330.802 358.283 330.971 358.411 331.095C358.539 331.22 358.711 331.289 358.889 331.289C359.798 331.289 361.439 330.801 361.395 331.91C361.395 333.574 362.747 334.884 361.993 336.703C361.594 337.635 359.776 339.699 362.88 340.032C362.88 340.032 363.102 340.143 363.08 340.187C362.215 343.604 365.297 346.245 364.92 349.617C364.92 350.239 364.721 350.549 364.078 350.683C363.435 350.816 362.348 350.461 362.659 351.637C362.858 352.413 363.767 352.325 364.499 352.258C364.852 352.28 365.201 352.339 365.541 352.436C364.499 353.39 361.683 354.544 365.541 355.143C365.863 355.586 366.009 356.133 365.951 356.678C365.894 357.223 365.637 357.727 365.231 358.094C364.543 358.582 364.211 359.47 365.031 359.758C366.761 360.379 366.672 361.755 366.583 362.998C366.361 365.771 367.958 368.345 367.315 371.23C367.093 372.206 368.667 373.094 368.446 374.559C367.67 378.175 370.064 381.016 370.153 384.411L370.131 384.322ZM326.606 398.878L361.417 394.973V395.727C349.909 397.602 338.284 398.677 326.628 398.945L326.606 398.878ZM367.293 357.428L378.911 355.675C375.053 356.252 371.417 358.16 367.448 358.183C367.404 358.005 367.315 357.495 367.315 357.495L367.293 357.428ZM412.171 386.43C404.72 388.205 397.536 390.868 389.998 392.111C385.741 392.798 381.572 394.041 377.359 394.995C377.096 395.024 376.846 395.124 376.635 395.284C376.424 395.445 376.261 395.659 376.162 395.905C375.829 396.837 375.031 396.548 374.388 396.571C373.745 396.593 373.812 396.082 373.9 395.794C374.1 395.15 374.676 394.951 375.319 394.795C380.803 393.449 386.28 392.081 391.749 390.69C396.406 389.492 401.062 388.249 405.652 386.718C394.92 388.671 384.344 391.4 373.523 392.932C383.146 389.159 393.479 387.717 403.102 384.056L380.397 388.915C378.335 389.359 376.228 389.67 374.144 390.069C373.634 390.069 373.08 390.402 372.925 389.603C372.769 388.804 373.213 388.671 373.767 388.516C376.317 387.806 378.823 386.874 381.417 386.297C388.846 385.236 396.184 383.611 403.368 381.437C403.723 381.304 404.188 381.77 404.521 381.304C403.59 380.372 402.747 381.304 401.86 381.304L374.255 386.341C373.169 386.541 372.437 386.63 372.193 385.187C371.949 383.745 372.969 384.255 373.679 384.034C381.04 381.815 388.645 380.639 396.162 379.063C396.824 378.866 397.432 378.516 397.936 378.042C391.975 378.711 386.054 379.696 380.197 380.994C377.537 381.437 374.721 381.238 372.304 382.724C371.86 382.991 371.838 382.724 371.772 382.502C371.705 382.281 371.417 381.615 371.772 381.282C372.469 380.752 373.282 380.394 374.144 380.239C379.525 379.162 384.846 377.807 390.086 376.178C388.564 375.82 386.968 375.944 385.519 376.533C381.226 377.579 376.881 378.401 372.503 378.996C371.749 379.174 370.752 379.44 370.663 378.242C370.574 377.044 371.661 377.488 372.237 377.31C376.613 376.038 381.054 375.001 385.541 374.204C386.095 374.204 386.583 373.937 386.605 372.939C381.129 373.738 375.851 375.513 370.286 375.624C375.275 372.917 381.217 373.405 386.273 370.587C384.313 370.788 382.366 371.099 380.441 371.519C377.426 372.214 374.377 372.755 371.306 373.138C370.73 373.138 369.776 373.804 369.643 372.606C369.51 371.408 370.552 371.985 371.151 371.785C376.251 370.01 381.727 369.566 387.426 367.635L369.222 370.409C374.708 367.893 380.512 366.138 386.472 365.195C383.671 365.032 380.86 365.241 378.113 365.816C375.408 366.149 372.858 367.502 369.71 366.903C375.164 364.351 380.973 363.663 386.273 361.555C381.838 361.555 377.692 363.22 373.412 364.063C372.193 364.307 370.996 364.573 369.776 364.795C369.089 364.928 368.357 365.106 368.246 363.974C368.135 362.842 368.8 362.865 369.51 362.687C373.25 361.726 376.99 360.742 380.729 359.736C381.753 359.493 382.718 359.048 383.568 358.427L369.82 360.49C369.133 360.49 368.069 361.445 367.825 360.268C367.581 359.092 368.911 359.248 369.599 359.048C374.854 357.539 380.109 356.119 385.519 354.61C383.811 353.146 381.993 354.899 380.308 354.344C381.018 353.323 382.525 354.144 383.523 352.458C378.279 353.651 372.934 354.349 367.559 354.544V353.9L381.705 350.838C376.605 350.439 371.772 352.058 366.65 351.725L380.796 347.776C380.129 347.44 379.392 347.265 378.645 347.265C377.898 347.265 377.162 347.44 376.494 347.776C373.587 348.697 370.625 349.438 367.625 349.995C367.004 350.15 366.384 350.505 366.162 349.573C365.94 348.641 366.761 348.708 367.315 348.552L382.215 344.536C376.805 341.674 371.838 345.135 366.694 344.359L382.947 339.521C379.177 338.966 375.741 340.919 372.06 340.564C375.065 339.767 377.984 338.675 380.774 337.302L364.699 340.52L364.499 339.654C369.222 337.613 374.499 337.147 379.443 334.64C374.779 334.181 370.072 334.466 365.497 335.483C367.869 334.018 370.796 334.285 373.213 332.998C372.259 332.354 371.106 332.642 369.998 332.132L374.055 331.333C370.931 330.873 367.744 331.108 364.721 332.021C364.011 332.177 362.991 332.642 362.747 331.511C362.503 330.379 363.568 330.424 364.322 330.224C367.905 329.368 371.424 328.264 374.854 326.918L364.299 328.515C363.435 328.648 362.082 329.469 361.86 328.027C361.639 326.585 363.146 326.718 364.078 326.518C367.076 325.96 370.038 325.219 372.947 324.299L369.067 324.565C371.191 323.709 373.359 322.969 375.563 322.347C370.73 321.526 366.007 322.746 361.284 323.19L361.129 322.457L371.173 319.639C367.625 319.351 364.122 320.505 360.53 319.95C363.656 318.042 367.359 317.953 371.262 316.311C368.118 316.307 364.992 316.786 361.993 317.731L361.838 316.999C364.854 316.089 367.936 315.512 370.951 314.58C370.951 314.447 370.951 314.58 370.951 314.58L360.397 316.178C360.242 315.246 360.286 315.557 360.242 315.401C363.457 314.602 366.65 313.626 369.887 312.827C366.694 312.028 363.612 313.537 359.843 313.071L370.574 310.475V309.965C367.625 310.409 364.676 310.875 361.705 311.274C360.929 311.274 359.687 311.984 359.488 310.719C359.288 309.454 360.641 309.765 361.395 309.632C365.608 308.877 369.976 308.5 374.033 307.413C378.091 306.326 382.747 305.616 386.96 304.129C387.381 303.974 387.869 303.596 388.157 303.951C389.687 305.86 390.375 305.527 390.752 302.687C391.109 304.78 391.034 306.925 390.53 308.988C391.794 309.765 391.816 308.234 392.503 308.034C393.59 309.033 393.457 310.475 394.011 311.673C394.565 312.872 393.058 313.049 392.481 313.626C391.905 314.203 391.749 314.159 392.06 314.691C392.37 315.224 392.592 315.046 392.969 314.957C393.346 314.869 394.499 313.848 395.009 314.957C395.519 316.067 393.789 315.978 393.612 317.176C395.63 315.956 395.829 317.176 396.317 318.641C398.557 324.211 400.417 329.927 401.882 335.749C404.676 347.199 408.091 358.471 410.242 370.076C411.151 374.936 412.348 379.751 413.567 384.544C413.59 385.764 413.457 386.208 412.193 386.519L412.171 386.43ZM408.357 344.27C407.78 344.603 406.849 344.98 407.27 345.823C407.692 346.666 408.667 346.245 409.288 345.823C410.441 345.091 411.505 344.225 412.636 343.449C413.057 343.16 413.567 342.406 414.077 343.449C414.16 343.58 414.214 343.727 414.234 343.881C414.254 344.035 414.241 344.191 414.194 344.339C414.148 344.487 414.069 344.623 413.965 344.737C413.861 344.852 413.733 344.942 413.59 345.002L407.226 348.974C405.009 344.825 405.009 344.736 408.911 342.317C411.993 340.364 415.142 338.545 418.246 336.659C418.712 336.393 419.155 335.527 419.687 336.481C420.219 337.435 419.687 337.635 419.022 337.968C415.474 340.143 411.927 342.251 408.379 344.381L408.357 344.27ZM418.712 340.83C418.845 343.049 416.228 342.339 415.851 343.56C414.853 344.004 414.676 343.427 414.743 343.094C415.053 341.341 416.672 341.008 417.958 340.298C418.645 339.987 418.712 340.586 418.734 340.919L418.712 340.83ZM412.547 350.816C412.969 350.594 413.19 350.816 413.412 351.171C413.634 351.526 413.301 351.881 412.991 352.125C411.474 353.379 409.758 354.369 407.913 355.054C408.945 353.184 410.59 351.726 412.57 350.927L412.547 350.816ZM407.669 351.592C408.92 349.887 410.616 348.56 412.57 347.754C412.104 350.594 409.554 350.594 407.692 351.703L407.669 351.592ZM413.146 353.811C413.501 353.501 413.922 353.412 414.21 353.989C414.334 354.223 414.364 354.496 414.294 354.751C414.224 355.007 414.059 355.226 413.833 355.365C412.37 356.407 410.84 357.384 409.399 358.382L408.8 357.783C410.197 356.563 411.683 355.209 413.168 353.9L413.146 353.811ZM416.073 336.393C412.969 338.301 409.865 340.231 406.716 342.073C406.25 342.339 405.43 342.783 405.031 342.073C404.632 341.363 405.497 341.097 405.918 340.808C408.778 338.811 411.705 336.925 414.565 334.906C415.43 334.284 416.051 333.907 416.605 335.305C416.692 335.529 416.688 335.778 416.592 335.998C416.497 336.219 416.318 336.392 416.095 336.481L416.073 336.393ZM415.097 356.23C415.519 355.986 416.073 355.365 416.45 355.942C417.071 356.851 415.896 356.652 415.607 357.029C413.963 358.716 411.93 359.973 409.687 360.69C411.705 359.47 413.124 357.495 415.142 356.319L415.097 356.23ZM415.097 361.311C413.634 362.243 412.193 363.242 410.53 364.351C410.375 363.486 409.842 362.776 410.907 362.421C412.158 361.995 413.264 361.226 414.1 360.202C414.41 359.847 414.876 359.07 415.474 359.802C416.073 360.535 415.763 360.979 415.097 361.4V361.311ZM410.907 367.058C410.751 366.592 410.219 365.749 411.151 365.616C412.88 365.35 414.011 364.041 415.452 363.397C415.763 363.242 416.006 362.909 416.317 363.264C416.627 363.619 416.583 363.841 416.494 363.908C414.986 365.306 413.434 366.681 412.06 367.99C411.084 368.345 411.04 367.569 410.907 367.169V367.058ZM417.559 371.896C418.024 371.519 418.534 371.496 418.845 372.118C419.155 372.739 419.221 373.116 418.712 373.538C418.202 373.959 418.002 374.026 417.647 374.292C413.412 377.599 413.412 377.599 412.237 371.541C414.233 374.448 415.918 373.382 417.581 372.007L417.559 371.896ZM413.745 380.528C415.142 377.621 417.403 376.6 419.022 374.958C419.399 374.559 419.665 374.825 419.82 375.158C419.958 375.39 420.002 375.665 419.945 375.929C419.887 376.193 419.732 376.424 419.51 376.578C417.818 378.221 415.88 379.591 413.767 380.638L413.745 380.528ZM420.685 379.174C418.867 380.55 417.47 382.525 415.031 382.991C416.328 381.149 417.916 379.53 419.731 378.198C420.131 377.865 420.463 377.754 420.818 378.198C420.892 378.269 420.949 378.355 420.985 378.451C421.021 378.547 421.036 378.649 421.027 378.751C421.019 378.853 420.988 378.952 420.936 379.041C420.884 379.129 420.814 379.205 420.729 379.263L420.685 379.174ZM416.627 348.641C416.797 348.253 417.074 347.922 417.425 347.687C418.23 346.831 419.226 346.178 420.33 345.779C420.518 346.053 420.619 346.378 420.618 346.711C420.064 348.331 418.401 348.486 417.248 349.507C417.156 349.505 417.065 349.484 416.982 349.443C416.9 349.402 416.827 349.344 416.77 349.272C416.712 349.199 416.672 349.115 416.651 349.025C416.63 348.936 416.63 348.842 416.649 348.752L416.627 348.641ZM419.975 351.282C419.761 351.614 419.452 351.874 419.088 352.028C418.725 352.182 418.323 352.224 417.935 352.147C417.802 352.147 417.692 351.903 417.647 351.748C417.315 350.838 418.002 350.394 418.601 350.128C419.643 349.64 420.397 348.441 421.771 348.73C421.882 348.73 421.949 349.018 422.082 349.262C421.993 350.594 420.641 350.594 420.02 351.393L419.975 351.282ZM424.077 333.796C424.077 335.793 422.17 335.749 421.217 336.548C420.485 336.548 419.731 336.193 420.042 335.86C421.076 334.862 422.213 333.977 423.434 333.219C423.811 333.108 424.122 333.552 424.122 333.907L424.077 333.796ZM421.86 330.69C422.259 330.468 422.769 330.446 422.924 331C423.08 331.555 422.924 331.844 422.924 331.955C421.261 333.042 419.532 334.174 417.825 335.128C417.292 335.128 417.026 334.839 416.805 334.484C416.583 334.129 416.805 333.663 417.204 333.419C418.822 332.598 420.397 331.688 421.993 330.801L421.86 330.69ZM420.751 326.829C419.148 328.319 417.368 329.609 415.452 330.668C412.082 333.042 408.645 335.327 405.253 337.657C404.787 337.968 404.344 338.367 403.9 337.835C403.836 337.743 403.793 337.639 403.771 337.53C403.75 337.42 403.752 337.308 403.777 337.199C403.802 337.09 403.85 336.988 403.917 336.899C403.984 336.81 404.069 336.735 404.166 336.681L420.352 326.252L420.751 326.829ZM403.013 334.817C407.625 330.068 413.878 327.872 419.421 324.521C414.456 328.641 409.006 332.136 403.191 334.928L403.013 334.817ZM417.381 322.48C417.78 322.213 418.135 322.058 419.022 322.635C415.763 324.632 412.703 326.54 409.621 328.382C407.669 329.551 405.681 330.66 403.656 331.711C403.124 331.999 402.259 332.642 401.838 331.711C401.239 330.379 402.614 331.023 403.057 330.69C407.647 327.428 413.013 325.697 417.581 322.591L417.381 322.48ZM392.459 148.669C390.076 150.747 387.257 152.263 384.211 153.107C383.435 153.306 382.836 154.283 382.149 154.904C378.734 157.944 374.388 158.943 370.175 160.074C363.036 162.005 355.829 163.758 348.668 165.599C347.559 165.888 346.45 166.354 345.652 164.978C345.347 164.522 345.184 163.985 345.184 163.436C345.184 162.887 345.347 162.35 345.652 161.894C345.942 161.452 346.096 160.935 346.096 160.407C346.096 159.879 345.942 159.362 345.652 158.92C345.076 157.789 344.344 159.497 343.701 159.231C342.985 158.933 342.352 158.467 341.854 157.872C341.356 157.277 341.009 156.571 340.841 155.814C340.841 154.261 337.958 153.329 340.042 151.376C340.464 150.999 338.956 150.732 338.446 150.999C334.971 152.555 331.393 153.867 327.736 154.926C324.034 156.235 320.198 157.145 316.007 158.255C316.273 157.663 316.685 157.148 317.205 156.76C317.725 156.371 318.335 156.122 318.978 156.036C322.082 155.304 325.054 154.216 328.269 153.684C330.58 153.322 332.823 152.611 334.92 151.576C335.719 151.154 336.517 150.599 335.608 149.113C334.535 147.763 333.38 146.481 332.149 145.274C336.471 146.069 340.859 146.448 345.253 146.406C350.419 146.272 355.608 146.095 360.774 146.006C366.672 145.895 372.548 146.783 378.512 146.006C382.958 145.71 387.424 145.941 391.816 146.694C392.392 146.694 393.368 146.694 393.545 147.515C393.723 148.336 392.925 148.314 392.459 148.669ZM402.37 143.011C402.947 150.266 402.126 156.79 402.614 163.314C402.193 160.585 401.727 157.855 401.395 155.104C401.295 153.885 401.295 152.661 401.395 151.443C401.616 146.694 399.332 144.209 394.188 144.12C389.476 144.09 384.772 143.734 380.109 143.055C377.891 142.7 375.674 144.408 373.124 143.987C372.659 143.987 372.104 144.342 371.616 143.61C372.895 142.568 374.424 141.88 376.051 141.613C383.435 139.66 390.862 137.796 398.224 136.154C401.727 135.377 405.408 135.466 408.978 134.8C411.749 134.29 412.281 134.8 411.904 137.552C411.771 138.55 412.171 139.771 411.239 140.681C410.286 140.015 411.439 138.972 410.508 138.084L409.488 143.743H408.911L408.335 137.774C407.403 140.237 406.117 142.545 405.208 145.252L404.477 142.7C403.745 145.451 404.72 148.003 404.033 150.755C403.013 148.358 404.321 145.718 402.392 143.033L402.37 143.011ZM415.94 154.438C416.399 158.571 416.562 162.731 416.428 166.886C416.459 167.505 416.293 168.117 415.954 168.636C415.616 169.154 415.122 169.551 414.543 169.771C412.725 170.637 411.062 171.835 409.288 172.811C408.312 173.344 407.625 173.211 407.559 171.879C407.492 170.548 407.27 169.261 407.204 167.952C407.204 165.955 405.94 164.29 405.807 162.227C405.54 160.99 405.541 159.711 405.809 158.475C406.076 157.239 406.605 156.074 407.359 155.059C409.778 151.544 412.438 148.2 415.319 145.052C415.233 148.201 415.449 151.352 415.962 154.46L415.94 154.438ZM455.629 175.873C455.496 174.875 456.161 174.32 457.026 174.009C457.891 173.699 457.802 174.387 457.891 174.897C457.955 175.086 457.973 175.287 457.943 175.484C457.913 175.681 457.836 175.868 457.718 176.029C457.601 176.19 457.446 176.32 457.268 176.409C457.09 176.498 456.893 176.542 456.694 176.539C456.206 176.606 455.629 176.872 455.651 175.873H455.629ZM450.108 177.515C450.441 177.382 450.951 177.071 451.15 177.759C451.727 179.756 449.842 179.734 448.933 180.644C448.725 180.38 448.589 180.067 448.537 179.735C448.486 179.402 448.521 179.063 448.639 178.748C448.757 178.433 448.954 178.154 449.212 177.939C449.469 177.723 449.778 177.577 450.108 177.515V177.515ZM450.64 228.551C452.037 226.332 454.255 226.465 455.962 225.6C454.496 227.082 452.632 228.107 450.596 228.551H450.64ZM455.674 223.67C454.21 224.424 452.702 225.112 450.862 225.889C450.862 224.091 451.172 223.004 452.902 222.782C453.572 222.592 454.203 222.284 454.765 221.872C456.494 220.94 456.25 220.03 454.498 219.099C455.151 218.68 455.825 218.295 456.516 217.945C456.893 217.767 457.359 217.678 457.625 218.233C457.611 220.222 456.905 222.144 455.629 223.67H455.674ZM454.942 216.88C455.762 214.949 456.028 213.24 458.113 213.063C458.822 215.615 456.76 215.77 454.898 216.857L454.942 216.88ZM454.942 212.087C455.607 210.245 457.159 209.757 459.088 209.446C458.011 210.792 456.497 211.718 454.809 212.064L454.942 212.087ZM459.753 202.39C458.494 203.504 456.965 204.269 455.319 204.609C455.208 204.143 455.141 204.032 455.164 203.987C456.312 202.803 457.814 202.024 459.443 201.768C459.443 201.768 459.709 202.279 459.62 202.39H459.753ZM460.662 195.733C460.662 196.399 460.197 196.798 459.399 196.643C459 196.643 458.467 196.865 458.223 196.376C458.18 196.273 458.158 196.162 458.158 196.05C458.158 195.938 458.18 195.827 458.224 195.724C458.267 195.621 458.331 195.527 458.41 195.449C458.49 195.37 458.585 195.308 458.689 195.267C461.239 194.024 459.487 193.514 458.246 192.87C458.933 192.16 460.108 191.828 460.463 192.249C461.372 193.048 460.507 194.512 460.529 195.711L460.662 195.733Z" fill="#3A3C51"/>
</svg>
