<svg xmlns="http://www.w3.org/2000/svg" width="469" height="413" fill="#3a3c51" fill-rule="evenodd" xmlns:v="https://vecta.io/nano"><path d="M363.304 381.15l-13.947 1.33-20.576 1.753c-.865 0-2.217 0-2.084 1.354s1.53.843 2.416.688c3.35-.577 6.652-1.443 10.023-1.753 9.135-.82 18.248-2.042 27.294-3.35-1.014-.336-2.108-.344-3.126-.022zm-33.464.755c1.93 0 3.836-.5 5.765-.62 8.362-.426 16.696-1.292 24.967-2.596-7.606.244-15.2.93-22.86.998a71.68 71.68 0 0 0-8.159.71c-1.02.133-2.97-.2-2.727 1.22s1.95.333 3.015.3zm-1.5-3.463c.514.073 1.037.073 1.552 0 4.057-.9 8.182-1.265 12.283-1.797 6.03-.8 12.018-1.798 18.05-2.707a179.22 179.22 0 0 0-19.357 1.664c-4.102.4-8.226.688-12.328.998-.687 0-1.308.156-1.33.932s.554.866 1.13.9zm56.982-53.455c-.9.2-.554 1.132-.3 1.953a2 2 0 0 1 .165 1.164 2.01 2.01 0 0 1-.519 1.055c-.447.527-1 .942-1.645 1.213s-1.325.4-2.014.346-1.36-.247-1.955-.595-1.104-.83-1.482-1.408c-.354-.466-.73-1.087-1.463-.777s-.466.666-.355 1.132c.288 1.063.848 2.032 1.626 2.8a6.31 6.31 0 0 0 2.809 1.627 5.63 5.63 0 0 0 2.841-.263 5.73 5.73 0 0 0 2.347-1.623 3.95 3.95 0 0 0 .865-5.237c-.2-.466.1-1.62-.9-1.398zm-4.246 3.617c.53-.136.988-.463 1.3-.917a2.22 2.22 0 0 0 .35-1.546c-.2-1.198-.82-2.463-2.217-2.396-1.974 0-1.464 1.864-1.574 2.973s.776 1.82 2.15 1.886zm29.952-173.122c-.954 0-1.308.754-1.73 1.42a11.51 11.51 0 0 0-1.064 7.811c.133 1.154.5 2.53 1.885 2.44a3.18 3.18 0 0 0 1.686-.579 3.17 3.17 0 0 0 1.108-1.396c.566-1.76.725-3.628.465-5.46a3.26 3.26 0 0 0-.576-1.93l-.244-.422-.178-.3c-.288-.643-.155-1.73-1.352-1.575zm57.095 5.036a8.3 8.3 0 0 0-.49-3.88 8.27 8.27 0 0 0-2.215-3.222c-7.36-6.656-25.055-22.344-27.183-23.498-1.244-.66-2.677-.873-4.058-.6a55.04 55.04 0 0 0-12.882 3.816c-2.772 1.132-5.477-.776-8.005.688a.52.52 0 0 1-.253-.018.51.51 0 0 1-.212-.137c-1.33-2.552-3.193-.977-4.8-.533-2.114.64-4.3.96-6.52.954a22.63 22.63 0 0 0-7.073.999c-4.3 1.3-8.558 2.685-12.97 3.572-4.035.82-8.647 1-11.75 3.573-2.617 2.22-5.078 1.642-7.606 1.775-6.03.333-12.128 0-18.16.422-4.834.332-9.335-1.554-14.08-1.398-.532 0-.6-.156-.7-.7a13.32 13.32 0 0 1-.354-5.392 71.36 71.36 0 0 1 3.215-14.379c.887-2.22 1.64-4.926-.155-6.657-4.302-4.172-8.58-8.52-14.524-10.518-1.108-.377-1.796-.643-2.638.577a126.08 126.08 0 0 1-9.778 12.981 3.07 3.07 0 0 0-.48 1.279 3.06 3.06 0 0 0 .125 1.361 30.48 30.48 0 0 0 4.19 9.631 51.75 51.75 0 0 1 5.167 11.494c.22.843 1.374 2.22-.532 2.818a136.71 136.71 0 0 0-16.275 6.102l-33.26 13.314c-11.82 4.904-23.814 9.43-35.3 15.1-1.552.777-3.835.754-4.6 2.374-2.218 4.882-6.963 7.8-9.468 12.45-.333.643-1.286 1.042-1.02 1.93s1.44.688 2.217.932c.685.166 1.4.166 2.084 0a12.92 12.92 0 0 1 6.112.308 12.93 12.93 0 0 1 5.285 3.087c1.02.954 1.93 2.04 2.927 3.018 3.753 3.26 7.32 6.726 10.687 10.384a128.07 128.07 0 0 0 12.173 12.183c5.2 4.883 10.1 10.07 14.7 15.532 3.06 3.573 4.434 8.188 6.408 12.404a120.65 120.65 0 0 1 9.357 25.363c.997 4.438 3.17 8.676 4.434 13.158a7.82 7.82 0 0 0 1.361 3.434 7.8 7.8 0 0 0 2.786 2.424c2.638 1.265 3.015 7.168 1.108 9.364l-3.326 3.728c-1.108 1.243-3.06 3.04-2.75 5.192.377 2.597-.998 4.882-.554 7.545s-.555 5.015-.4 7.6c.688 11.538-.487 23.055-.753 34.593-.156 6.4-.932 12.78-1.486 19.172 0 1.065.998 2.73-1.375 2.84-.5 0-.332.977.222 1.176 2.483.844 1.42 2.42.6 3.595-.377.533-.555.843-.2 1.243 1.597 1.908.2 2.108-1.286 2.396-2.905.6-5.787 1.287-8.692 1.93-.576.133-1.42 0-1.064.998.222.622.665.355 1.242.178a11.21 11.21 0 0 1 7.672.488 50.5 50.5 0 0 0 8.625 1.51c2.217.444 4.235 1.997 6.652 1.908l1.064-.155c-.35.088-.705.14-1.064.155-2.484.377-4.945.533-7.384.688-.488 0-1.264 0-1.175.688s.798.954 1.44.688c3.06-1.3 6.297-.267 9.424-.733.42 0 1.24 0 1.086.333-1.02 2.02.732.733 1.064.866s1.353-.4 2.218.266a60.02 60.02 0 0 1-5.965 1.243c-.953 0-1.44.443-1.197 1.198s.9.42 1.64.266c3.015-.666 6.097-.998 9.157-1.464-4.257 2.22-9.3 1.753-13.836 3.994 32.417-3.418 64.412-7.9 96.34-13.137a35.78 35.78 0 0 1-8.603 0c12.328-1.62 23.947-6.28 36.43-7.788-.798-.777-1.774.1-2.46-.888 5.742-1.93 11.663-2.84 17.405-4.438l-9.135.777c3.437-1.797 6.962-1.02 9.978-2.862-1.885-.444-3.48.754-5.477-.156 4.923-1.176 9.7-1.53 13.66-4.438-1.22-.244-2.35.577-3.925 0 1.818-1.198 3.725-.82 5.72-1.753-3.68-.7-6.652 1.465-9.7.866 0-.62.488-.644.887-.8 4.45-1.664 9.006-3.035 13.636-4.105.4 0 1.176.4 1.02-.644s-.754-.577-1.22-.532c-.887 0-1.774.244-2.66.4 2.217-1.708 4.878-1.464 7.184-2.374-.2-1.3-1.508 0-1.73-1.198l7.294-1.798v-.2c-.953 0-2.75.244-4.146.377 3.415-.865 5.898-3.728 9.357-4.283-5 .888-10.1 0-14.967 1.5-1.263.377-1.773 0-2.217-1.265-2.217-4.97-3.725-10.23-5.964-15.222-4.7-10.473-8.36-21.413-13.814-31.53-4.013-7.456-6.85-15.533-11.086-22.8a5.97 5.97 0 0 0-1.407-1.89 5.92 5.92 0 0 0-2.03-1.194c-1.065-.333-1.974-.8-2.107-2.064a57.77 57.77 0 0 1-.687-6.834c0-2.397.953-4.616.9-7.012l-.4-20.636-1.33-29.1-1.042-16.1c-.3-8.387-.001-16.775.2-25.14.177-5.925.554-6.2 6-8.72 2.505-1.154 5.344-2.552 6.142-5.658a12.04 12.04 0 0 1 2.378-4.874 12.03 12.03 0 0 1 4.274-3.336 6.9 6.9 0 0 1 3.46.284 6.88 6.88 0 0 1 2.882 1.935c1.02 2.164 1.644 4.494 1.84 6.878a111.76 111.76 0 0 1 .333 11.916c-.266 4.616 0 16.22 0 17.153a373.17 373.17 0 0 1-1.486 42.582c-.288 4.193 0 8.498-3.193 11.982-1.042 1.198-1.862 2.596-2.86 3.817-1.308 1.575-1.508 2.906.488 4.082.5.3.843.9 1.33 1.243 2.927 1.997 2.75 6.08 5.544 8.232a3.24 3.24 0 0 1 1.485 1.886c.466 2.108 1.62 2.22 3.193.5 4.967-5.082 8.67-11.295 14.213-15.844.532-.444.887-1.087.3-1.575-1.13-1-.465-2.22-.355-3.173.4-3.817 1.53-7.5 2.218-11.317 2.217-15.044 5.654-29.934 7.36-45.1.577-7.4 2.883-27.737 3.903-36.613zm-149.933-49.77c2.616 1.575 3.703 4.216 5.942 5.614-.975 1.33-2.77.843-3.97 1.82-.62.5-.9-.488-1.02-1.087l-.953-6.346zm3.326 29.468c-.532 1.93 1.64 3.683-1.175 4.438-.688.177-1.685.732-1.796 0-.355-1.798.953-2.885 2.97-4.438zm-4.435 1.797c.466-2.22.466-2.22 3.326-4.97-.2 2.75-1.84 3.483-3.326 4.97zm-3.06-13.58a19.99 19.99 0 0 1 3.748-5.481c.643 3.284-2.04 4.04-3.703 5.48h-.045zm-3.924-11.428c1.64-2.22 2.95-4.704 4.8-7.744l2.217 8.676c.333 1.154-.133 1.3-1.108 1.398a23.41 23.41 0 0 1-4.745.267c-2.572-.3-2.705-.378-1.1-2.597h-.044zm-85.898 78.263c4.923-3.75 9.313-8.388 14.923-10.74 4.464-2.04 9.2-3.394 14.08-4.016a5.49 5.49 0 0 1 2.589.649c.797.425 1.476 1.04 1.98 1.792.9 1.065-.288 1.398-.82 1.73-3.927 2.36-8.146 4.196-12.55 5.458a104.31 104.31 0 0 0-13.437 4.238c-2.13 1.043-4.523.3-6.763.888zm38.337 2.064a29.8 29.8 0 0 1-11.375 4.926l10.488-6.236c.333-.2.82-.554 1.1 0a.9.9 0 0 1 .176.337.92.92 0 0 1 .02.38c-.02.126-.07.247-.142.353s-.166.196-.276.262v-.022zm.466 3.173c-2.572.688-4.8 2.374-8.115 2.93a44.61 44.61 0 0 1 7.405-4.438c.5-.267.998-.266 1.175.488s.133.888-.465 1.043v-.022zm-14.945.466l13.725-7.7a21.68 21.68 0 0 1-13.725 7.722v-.022zm-.576-2.663c4.567-2.463 8.87-5.57 13.8-7.234a27.88 27.88 0 0 1-13.791 7.256v-.022zm-4.435 0l-.377-.666 17.74-9.808.42.733a51.92 51.92 0 0 1-17.805 9.719l.022.022zm-3.303-2.22l7.16-3.04a11.08 11.08 0 0 1-7.184 3.129l.023-.1zm18.67-8.876c-5.367 3.018-11.107 5.316-17.073 6.834-1.663.533-3.016 1.9-5.322 1.73 2.994-2.22 6.364-2.818 9.38-4.105 4.212-1.775 8.16-4.083 12.372-5.836.576-.244 1.375-.998 1.818 0s-.643 1.065-1.175 1.398v-.022zm-17.738 11.85a8.24 8.24 0 0 1-5.1.755c1.64-.666 3.26-1.354 4.922-1.953a1.31 1.31 0 0 1 .8.488c.5.755-.244.644-.555.755l-.066-.045zm10.5 5.082c-2.218 2.02-5.056 2.22-7.672 2.973a20.18 20.18 0 0 1 7.672-2.973h0zm-5.632 4.948c5.432-3.018 11.463-4.438 16.873-7.456-2.173 2.93-13.237 7.3-16.895 7.412l.022.044zm1.95 5.303a22.92 22.92 0 0 1 7.494-2.907 10.11 10.11 0 0 1-3.452 2.205c-1.288.493-2.664.716-4.042.658v.044zm7.627-1.997c1.965-1.73 4.216-3.104 6.652-4.06.444-.2.843-.333 1.087.2s0 1.1-.3 1.132c-2.682.244-4.523 2.507-7.45 2.685v.044zm9.668 2.397c-.288 1.02-1.597.488-2.572.887-.1-.954 2.527-2.22-.488-2.063-.133 0-.466-.4-.42-.533.266-.843 1.108-.998 1.773-1.376a.64.64 0 0 1 .29-.113.6.6 0 0 1 .3.036.66.66 0 0 1 .256.178.64.64 0 0 1 .142.277c.3.932.9 1.886.7 2.662v.045zm-.754-9.475c-4 3.528-8.87 4.615-13.925 5.703a35.98 35.98 0 0 1 10.29-5.725c.975-.333 1.973-.422 2.46-1.576a.87.87 0 0 1 .673-.589c.155-.027.315-.012.462.045a.87.87 0 0 1 .373.278c.376.488.532 1.043-.333 1.82v.045zm.155-25.918c-.42 0-.998.178-1.086-.377a1.55 1.55 0 0 1 .077-.63 1.54 1.54 0 0 1 .322-.546 19.92 19.92 0 0 1 4.146-3.683 15.83 15.83 0 0 0 2.616-1.731c.533-.466 1.442-1.087.843-1.953s-1.308-.3-2.217-.177c-6.342.998-12.084 4.083-18.515 4.904a46.82 46.82 0 0 0-10.354 3.75l-8.382 3.35c-3.97 1.576-6.452 5.082-10.243 6.88 2.217-2.42 3.813-5.592 7.006-7.123 9.9-4.726 20.1-8.876 30.155-13.203 13.592-6 27.672-10.74 41.375-16.486a59.79 59.79 0 0 1 15.654-4.993c-2.64 7.966-6.475 14.956-8.56 22.655 1.33-2.618 2.705-5.214 3.925-7.9.487-1.065 1.22-1.265 2.217-1.553 1.33-.378.842 1.33 1.752 1.287 0 .754-.6.82-1.087.9-1.44.267-2.882.355-.953 2.22.665.644.73 1.82-.843 1.886a3.14 3.14 0 0 0-1.042.134c-.776.3-2.217.288-1.973 1.33s1.33.7 2.217.3 1.22.42 1.73.887c0 .156 0 .355-.2.444-.9.6-2.75 0-2.794 1.42 0 1 1.907.82 2.594 1.798a12.83 12.83 0 0 1-5.32 1.886c-11.597 1.974-23.304 3.106-35 4.327a80.13 80.13 0 0 1-8.07-.067v.044zm72.572-24.408a98.44 98.44 0 0 1-18.781 6.191c6.253-2.108 12.24-4.95 18.78-6.2h0zm-16.696 3.15l8.337-2.552a16.13 16.13 0 0 1-8.337 2.552h0zm36.407 8.876l-12.017 3.417c6.94-2.818 13.747-5.947 21.197-7.056a7.08 7.08 0 0 1 4.554 1.013 7.1 7.1 0 0 1 2.94 3.624c1.8 7.074 2.953 14.303 3.415 21.6a100.57 100.57 0 0 0 2.062 14.911c1.42 7.345 1.1 14.823 2.217 22.2.8 5.192.954 10.473 1.62 15.688.988 5.08.897 10.312-.266 15.355a12.68 12.68 0 0 0-.133 7.5c.714-2.354 1.2-4.768 1.485-7.212a16.96 16.96 0 0 1 .377 2.663c0 6.768.754 13.558-.554 20.326-.665 3.506-3.747 7.2-7.05 6.324-4.013-1.043-7.383 1.264-11.086.355 3.836-1.53 8.07-1.487 12.017-2.752-3.747-.8-7.34.444-11.308.932 4.435-1.953 8.87-2.22 13.104-3.617-4.9-.133-9.6 1.265-14.48 1.443l13.725-3.95v-.333a50.96 50.96 0 0 0-6.496 1.043c-2.17.4-4.3.995-6.364 1.775-.5.244-1.463.7-1.75-.377s.73-.977 1.33-1.065c4.08-.733 7.982-2.352 12.15-2.707.598 0 1.42 0 1.24-.888s-.887-.355-1.374-.333c-4.17.244-8.07 1.864-12.218 2.352-.643 0-1.685 1.087-1.884-.333-.133-.976.953-1.065 1.707-1.264 4.435-1.22 8.714-2.597 13.148-3.64-5.365-.465-10.22 2.042-15.52 2.353 4.434-2.22 9.6-2.508 14.2-4.438-2.822-.202-5.654.2-8.315 1.154l-5.166 1.22c-.82.177-1.596.222-1.818-.9s.643-1.265 1.397-1.442l12.35-2.907a1.49 1.49 0 0 0 .818-.296 1.48 1.48 0 0 0 .512-.703c-4.745 0-9.113 1.842-13.658 2.597-.954.155-1.996.932-2.35-.533s1.108-1.087 1.773-1.242c4.435-.955 8.493-2.84 13.06-2.93-.2-1.508-1.086-.93-1.663-.9-3.836.222-7.405 1.775-11.086 2.22-.82 0-2.107 1.1-2.44-.355s1.308-1.332 2.217-1.576c4.146-1.154 8.204-2.685 12.46-3.506-5.2-.843-9.778 2.352-14.878 2.375 3.66-1.82 7.916-1.953 11.552-3.84l-.2-.666-10.444 2.507c-.643.156-1.73.733-1.973-.4s.776-.976 1.463-1.154c3.703-1.02 7.295-2.418 11.087-3.284-4.568-1.22-8.515 2.108-12.883 2.397l-.2-.755 13.304-4.083c-.377-1.198-1.353-.665-1.93-.42-3.525 1.442-7.34 1.775-10.93 2.973-.5.155-.9.222-1.064-.288s.377-.7.754-.888c3.627-1.595 7.4-2.865 11.24-3.794l-.155-.7-7.228 1.863c-1.264.356-2.506.866-3.747 1.287-.488.156-1.087.4-1.42-.2s.22-1.176.776-1.398c2.217-.843 4.434-1.7 6.652-2.374 1.397-.428 2.75-.993 4.035-1.687-4.013.244-6.896 2.064-10.1 2.574-.842.133-1.75.932-2.217-.42s.865-1.088 1.486-1.332a45.78 45.78 0 0 1 9.024-2.885 3.63 3.63 0 0 0 2.217-1.375c-2.46.62-4.967 1.087-7.36 1.886-1.523.445-3.07.8-4.634 1.065-.843.177-1.53.355-1.663-.932s0-1.465 1.197-1.82c3.792-1.13 7.517-2.507 11.264-3.772.5-.177 1.064-.244 1.13-.998-4.302.62-8.204 2.618-12.44 3.417-.82.155-1.62 1.043-2.018-.377s-.333-2.064 1.308-2.508c3.725-.976 7.362-2.22 11.397-3.55a54.82 54.82 0 0 0-11.441 2.219c-.9.2-1.93 1.132-2.217-.6-.134-1.1-.688-2.397 1.33-2.796 3.947-.777 7.605-2.707 11.574-3.44.346-.1.645-.32.843-.62-3.733.387-7.404 1.23-10.932 2.508-.653.275-1.338.47-2.04.577-.533 0-1.353.798-1.575-.378a1.33 1.33 0 0 1-.08-.569 1.34 1.34 0 0 1 .167-.551 1.32 1.32 0 0 1 .383-.428 1.33 1.33 0 0 1 .528-.227c3.17-1.065 6.297-2.22 9.424-3.417 1.056-.373 2.08-.833 3.06-1.376a56.85 56.85 0 0 0-9.867 2.752c-1.22.466-3.26 1.686-3.88 0-.842-2.22 1.863-1.665 2.86-1.975a60.73 60.73 0 0 0 9.445-4.039l-9.756 2.863c-.244 0-.466.333-.7.355-.9.133-2.218.976-2.617 0-.488-1.42 1.153-1.043 1.93-1.354l12.506-4.992a46.83 46.83 0 0 0-10.2 2.773c-1.108.333-2.217.7-3.28 1.088-.666.244-1.286.665-1.62-.5s0-1.508.732-1.708c2.847-1.184 5.756-2.213 8.714-3.085a7.33 7.33 0 0 0 3.414-1.42c-4.483.734-8.9 1.87-13.17 3.395l-.222-.62 12.483-4.26-.2-.644-9.047 2.663c-.652.257-1.328.45-2.018.577-.598 0-1.552 1.176-1.773-.444-.156-1.087 0-1.62 1.286-2.064 4.3-1.442 8.536-3.15 12.793-4.748a1.13 1.13 0 0 0 .887-1.043l-13.77 4.438c-.62.2-1.44 1.154-1.885 0s.333-1.576 1.286-1.93l8.426-3.106a5.19 5.19 0 0 0 2.838-1.664L350 213.957c-.6.178-1.42.9-1.707-.244s.576-1.1 1.286-1.398c4.08-1.575 8.248-2.907 12.44-4.216a27.14 27.14 0 0 0-8.87 1.753c-1.286.3-2.505.843-3.747 1.243-.554.177-1.22.688-1.463-.3s.6-1.265 1.197-1.486c2.217-.82 4.68-1.532 7.007-2.22 1.153-.355 3.326-.977 3.148-1.3-.864-1.553-2.062.1-3.06.3-2.728.533-5.388 1.5-8.227 1.886l13.082-4.926c-2.594-.7-4.434.777-6.385 1.176a55.27 55.27 0 0 0-6.009 1.953c-.466.155-1.042.976-1.486 0a1.09 1.09 0 0 1-.103-.456 1.08 1.08 0 0 1 .098-.458 1.09 1.09 0 0 1 .28-.374c.12-.104.26-.178.412-.22 1.374-.6 2.77-1.132 4.2-1.642 2.398-1.03 4.856-1.9 7.362-2.64a21.39 21.39 0 0 0-7.317 1.531 32.74 32.74 0 0 0-3.947 1.376c-.5.2-1.087.5-1.375 0s.266-1.043.9-1.287l12.483-4.904c-4.9.555-9.223 3.085-14.168 3.684 4.168-3.306 9.5-3.84 14.3-5.636a36.83 36.83 0 0 0-10.975 2.374c-1.042.42-2.883 1.642-3.437.2s1.552-1.665 2.66-2.22c1.862-.755 3.77-1.376 6.12-2.22-3.725-.3-6.453 1.84-9.668 1.886 3.348-2.996 8.115-3.173 11.464-6.147-3.06 1.132-6.12 2.352-9.224 3.35-.82.266-2.218 1.664-2.75-.355s.776-1.753 1.907-2.064c2.883-.776 5.72-1.62 8.56-2.618-3.038 0-5.8 1.265-8.87 1.598-.776 0-1.907.976-2.218-.378s1.043-1.398 1.93-1.642a83.87 83.87 0 0 0 11.331-3.528l-13.437 3.262-.288-.82 12.46-4.15a49.58 49.58 0 0 0-10.621 2.529c-.665.222-1.752 1.176-2.217 0-.665-1.642.953-1.198 1.707-1.464 1.508-.555 3.038-1.043 5.144-1.753-2.483-.378-4.08.82-5.83.798-.532 0-1.375.533-1.53-.4s.643-.932 1.242-1.132a49.62 49.62 0 0 0 7.627-2.995l-9.157 2.507c3.436-2.22 7.383-2.973 11.574-4.438-4.435 0-7.872 2.663-11.996 2.108l11.442-3.972v-.377l-9.6 2.552c-.244 0-.466.266-.7.288s-1.242.755-1.552-.155.355-1.1 1.02-1.22c2.373-.355 4.435-1.9 6.652-2.22.8-.204 1.493-.665 1.995-1.3l-9.9 3.128-.2-.577 15.52-6.257-.045-.266zm28.337-3.196c.5-.222 1.065-.244 1.22.5s-.222.754-.688.887l-6.984 2.086-.177-.444c2.195-.954 4.4-1.997 6.607-2.995l.022-.045zm-6.895 1.2c2.092-1.598 4.587-2.58 7.206-2.84-2.484.866-4.48 2.84-7.206 2.885v-.044zm1.707 7c2.75-.3 4.634-2.22 6.873-3.772.355 2.22-3.8 4.638-8.07 4.86-.022-.777.6-.977 1.198-1.043v-.045zm7.605 0a11.23 11.23 0 0 1-7.228 2.752l7.228-2.752zm.355 2.486a16.08 16.08 0 0 1-8.426 3.306c3.127-.3 5.233-3.13 8.404-3.306h.022zm-7.605 8.542c2.518-1.326 5.182-2.353 7.937-3.062l.267.755-7.76 3.484c-.154.048-.318.057-.477.026a.97.97 0 0 1-.432-.204c-.355-.5.066-.8.466-1h0zm.975 2.62a30.87 30.87 0 0 0 6.209-3.24c.4-.288 1.153-.82 1.485.1a1.24 1.24 0 0 1-.754 1.531l-8.026 3.55c-.466-1.332.465-1.687 1.086-1.953h0zm2.217 4.593c1.553-.976 3.15-1.842 4.745-2.75.377-.222.843-.378 1.1.155.05.1.078.2.08.324s-.018.224-.063.327a.76.76 0 0 1-.194.271c-.083.076-.182.132-.3.165l-7.05 3.417c-1.33.6-1.375-.5-1.663-1.864a2.46 2.46 0 0 0 3.324-.044h0zm.422 2.796a8.08 8.08 0 0 0 3.902-2.419 1.65 1.65 0 0 1 .75-.518c.293-.098.6-.1.912-.036.155 0 .4.355.42.576 0 .822-.62.932-1.175 1.177l-8.226 3.905c.34-.67.82-1.257 1.4-1.72s1.274-.793 2.005-.964zm.887 11.317c-.887.5-1.464 1.398-2.44 1.176-.643-.156-.156-.9-.3-1.376-.1-.248-.143-.515-.128-.782a1.83 1.83 0 0 1 .216-.762 1.81 1.81 0 0 1 1.243-.919 15.9 15.9 0 0 1 4.966-1.775c-1.286 1.53-3.082 1.642-4.434 2.53-.444.3-1.353.156-1.153 1.132s1.153.555 1.95.8l.1-.022zm-1.42-6.88c-.555.266-1.42.6-.776 1.242s.554 1.2-.2 1.465c-1.197.444-.887-.688-.953-.843-.488-1.487-.333-2.374.842-2.752 2.297-.784 4.48-1.866 6.497-3.217.3-.2.598-.82 1.02-.2s.3.9-.355 1.22c-2.018.865-4.035 1.974-6.075 3.084zm4.567 10.962c-.776.355-1.53.776-2.217 1.065s-1.863.42-1.508 1.33 1.353.7 2.217.3c2.33-.977 4.745-1.753 7.118-2.663a1.21 1.21 0 0 1 .643-.098c.22.027.426.115.6.253-1.708 1.264-3.6 2.273-5.588 2.996-1.862 1.087-3.814 1.997-5.765 2.995-1.463-5.26-1.02-5.924 4.5-6.28v.1zm23.725 110.814c1.242.156 1.087.355.998 1.22s0 1.82-.887 1.952-.865-.954-1.153-1.53c-.687-1.3-1.286-2.685-1.862-3.905a12.75 12.75 0 0 1 .2-1.753c.155-.62 0-1.53.93-1.664.266 0 .62.266.865.488.865.776-.1 1.198-.4 1.73-.865 1.5-.133 3.15 1.308 3.35v.1zm-4.567-9.386h-.1c-2.218 2.95-5.677 4.682-8.382 7.145-.754.688-1.02-.133-1.352-.62-.665-.932.133-1.243.7-1.576l9.047-4.948c1.13-.644 2.217-1.287 3.392-1.886.444-.244 1.065-.444 1.42.133s-.244.888-.598 1.243-1.84.665-4.124.42v.1zm-3.393 9.852c0 .133-.3.155-.443.3-.82.887-2.905.954-2.218 2.773s2.218-.2 3.215.2c0 1.132-1.153 1.176-1.75 1.7s-1.264.932-2.084 1.508c-1.287-4.792-1.3-4.837 2.75-7.433.687-.444 1.752-1.864 2.217-.976.93 1.287-1.197 1.043-1.685 1.84v.1zm2.66 4.438c-.754 2.352-2.838 3.04-3.77 4.704-.22.422-.753.377-1.153 0-.753-.6-.177-1.242.178-1.553 1.357-1.406 2.967-2.542 4.745-3.35v.2zm-7.85-5.104l8.87-6.834c-1.552 3.84-5.166 5.326-8.87 6.68v.155zm10.776-11.693l-11.486 6.4c-.42.244-.9.9-1.308.3s.155-1 .754-1.376l10.93-6.657a2.43 2.43 0 0 1 1.06-.471c.386-.07.783-.045 1.157.072.1.932-.5 1.264-1.086 1.597l-.022.156zm-12.44 4.082c-.377.245-.932.4-1.087-.2s.555-1.3 1.1-1.62c2.816-1.553 5.6-3.15 8.514-4.438 1.22-.555 2.218-1.797 4.435-1.753-4.346 3.395-8.914 5.17-12.95 7.855l-.022.155zM395.55 257l-8.47 4.26c-.355-1.398-.2-2.22 1.353-2.73 2.22-.803 4.384-1.76 6.474-2.862.7-.355 1.197-.4 1.508.3s-.377.643-.843.865l-.022.155zm1.13 4.75c-1.793 1.468-4 2.357-6.297 2.552a15.33 15.33 0 0 1 6.319-2.707l-.022.155zm-2.617 42.848a59.83 59.83 0 0 1 12.706-6.08c-1.464 2.22-3.947 2.93-5.987 4.26s-3.636 2.108-5.5 3.085c-.42.222-1.02.577-1.375 0a.89.89 0 0 1-.109-1.146.86.86 0 0 1 .31-.274l-.045.155zm1.1-64.727a28.17 28.17 0 0 1-7.694 3.883c2.136-2.078 4.82-3.502 7.738-4.105l-.044.222zm-9.312-2.22l8.558-4.26c.3-.134.62-.466.843 0a.74.74 0 0 1 .113.3.69.69 0 0 1-.03.319c-.034.103-.1.197-.167.274s-.17.136-.27.172c-2.838 1.176-5.543 2.973-9.113 2.973l.067.222zm8.226-8.365a20.85 20.85 0 0 1-9.158 3.062l8.626-4.26c.465-.222 1.064-.577 1.352 0s-.377.688-.776 1l-.044.2zm2.793 76.93a60.55 60.55 0 0 1 9.779-5.082c.465-.177.842-.8 1.197 0s-.177.777-.6 1l-12.594 6.88c-.222-2.175 1.264-2.197 2.217-2.796zm-13.303-86.54a26.88 26.88 0 0 1 10.731-4.238 28.98 28.98 0 0 1-10.73 4.238zm0-3.86c1.003-.683 2.047-1.306 3.126-1.863 1.945-.755 3.828-1.66 5.632-2.708.4-.3 1.486-1.02 1.93.222.222.644.377 1.42-.5 1.798l-8.87 3.927c-.843.1-1.308.355-1.552-.222a.93.93 0 0 1 .244-1.22v.066zm.7 6.17c3.104-1.975 6.652-2.552 9.956-4.105l.288.666-9.778 4.438c-.377.177-.865.4-1.1-.2s.244-.644.62-.888l.022.1zm10.1 1.864l.42.9a39.58 39.58 0 0 1-10.4 4.77l-.288-.6 10.266-5.08zm-.3 6.812c.4-.2.776-.488 1.064 0s0 .8-.466 1.043a25.76 25.76 0 0 1-10.022 3.617l9.424-4.66zm.598 13.647c.444-.266.8-.244.887.377s0 1.265-.754 1.487a50.99 50.99 0 0 0-8.004 3.35c-.355.178-.953.3-1.13-.222a1 1 0 0 1-.059-.395 1 1 0 0 1 .097-.388 1.02 1.02 0 0 1 .239-.321 1.01 1.01 0 0 1 .344-.205l8.38-3.683zm-21.596 53.92c-.576-4.282-.488-4.282 3.97-4.26 2.162-.273 4.353-.213 6.497.178.9.288 2.217.155 2.55.998a3.08 3.08 0 0 1-1.108 3.062c-2.66 2.375-6.275 2.974-9.424 4.438-1.22.555-2.217-1.908-2.217-3.328a10.35 10.35 0 0 1-.266-1.176v.088zm-44.4-129.587l12.75-3.328c-4 2.152-10.7 3.972-12.75 3.328zm-3.392-.377a53.84 53.84 0 0 1 11.84-3.772 51.45 51.45 0 0 1-11.84 3.817v-.045zm2.217 1.154c-1.597 1.598-3.77 1.176-5.7 1.664 1.603-1.223 3.602-1.808 5.6-1.642l.1-.022zm-10.466-2.507a137.72 137.72 0 0 1 21.818-6.324 137.9 137.9 0 0 1-21.818 6.324h0zm8.87-4.638l8.626-2.507c-2.608 1.57-5.582 2.428-8.626 2.485v.022zm7.983-3.905a119.32 119.32 0 0 1-18.493 5.48c5.964-2.495 12.18-4.34 18.537-5.503l-.044.022zm-52.328 69.32c-1.597-.2-3.703.355-3.415-2.463a1.42 1.42 0 0 1 .31-.9c.842-.666 4.28.732 4.434 1.93s-.066 1.62-1.33 1.442zm2.638 2.22c.355 1.1-.465 1.02-1.064.954-1.574 0-3.17.488-3.814-1.42-.056-.1-.074-.22-.052-.333a.49.49 0 0 1 .175-.287c.1-.072.204-.1.32-.106a.49.49 0 0 1 .312.127c1.22.843 3.304-1.398 4.08 1.065h.044zm-5 2.22a7.1 7.1 0 0 0 3.104 0c1.863 0 1.907 0 3.083 2.22-2.395 0-4.435 0-6.52-.244-.466 0-1.64.332-1.442-.954s.932-1.376 1.73-1.066l.044.045zm4.9-7.8c2.44 0 1.065 2.374 2.55 3.173-2.572.666-2.66-.887-2.95-2.22-.133-.555-.354-.976.355-.998l.044.044zm-5.4 10.895c3.46.266 6.94.266 10.422.466.7 0 2.062-.377 1.973 1.02s-1.264.532-1.996.887H278.51c-.7 0-1.552.267-1.264-.932.177-.887.2-1.642 1.463-1.442zm-.842 3.772a65.46 65.46 0 0 1 13.902.133c.244 0 .42.5.887 1.1-3.08.297-6.18.35-9.268.155-1.73 0-3.48.133-5.2 0-.3 0-.975 0-1.042-.532a.84.84 0 0 1 .012-.339c.027-.1.077-.215.145-.306a.85.85 0 0 1 .253-.225.87.87 0 0 1 .322-.107v.1zm15.72 4.26c-5.388.643-10.4-1.043-15.52-1.53 5.2.155 10.643-1.2 15.543 1.398l-.022.133zM272.59 221.9c.643-.466 1.108-1.176 2.217-1.065 1.397.156 1.42 1.243 2.106 2.22-1.286.3-1.596-1.1-2.527-.466-.274.178-.587.285-.912.313a1.96 1.96 0 0 1-.95-.157c-.355-.067-.266-.577.067-.844zm3.97 2.552c-.5 1.553.155 3.44-1.974 3.24-1.463-.133.266-2.02-1.042-2.485.732-1.088 1.774-.622 3.016-.733v-.022zm.288 22.2c-.222-2.375 2.217-.3 3.348-.866 4.9-2.22 9.845-.288 14.767 0-1.1 1.088-2.35.333-3.503.6 0 1.088 1.086.356 1.596 1.132-4.146 0-8.07.3-11.95 0-1.42.045-3.947 1.42-4.257-.776v-.1zm1.308 3.927c-.1-.976.665-.954 1.22-.932l7.028.5 4.878.4c-.798-1.043-1.774-.688-3.126-1.065 2.95-.888 5.32 0 7.672 0 .598 0 1.13.4.842 1.265s-.133 1.42-1.153 1.33a88.24 88.24 0 0 0-16.297-.532c-.123.03-.252.03-.376.005a.87.87 0 0 1-.343-.155c-.102-.076-.185-.174-.245-.286s-.094-.236-.1-.363v-.178zm19.423 3.595l-11.33-.976c3.807-.533 7.685-.176 11.33 1.043v-.067zm-18.36-.355c6.142 0 12.04.888 18.448 1.243-3.326 1.176-17.383.133-18.448-1.154v-.1zm8.47 17.752c-.82-.3-2.084.887-2.505-.688-.155-.555 0-1.02.643-1.088.924-.154 1.87.06 2.638.6.133.9-.22 1.398-.776 1.176h0zm.466-4.15c-1.397.5-2.883 1.332-3.77-.532-.422-.888.7-.9 1.175-.844 1.24.156 2.95-.798 3.547.977.333.998-.465.754-.864.4h-.1zm0-6.5c0-.6-.2-1.176-.887-1.398.5 1.154 1.153 2.108-1.13 2.086-3.924 0-3.924 0-6.053-5.06 5.052-.184 10.1.136 15.1.954-3.686.38-7.4.38-11.087 0-.798 0-1.64-.355-2.04.622-.042.158-.044.324-.005.483s.117.306.227.427c.643.4 1.375.865 2.217.355s1.84 0 2.75.155c.998-.2 2.217-1.243 2.838.4.222.577.9 1.598-.155 1.975a1.27 1.27 0 0 1-1.49-.495 1.26 1.26 0 0 1-.195-.526l-.1.023zm6.474 0c0 .865-.4 1.242-1.042.9s-2.927.932-2.904-1.553c0-1.087.554-1.087 1.64-1.02s2.33-.332 2.395 1.576l-.1.1zm11.597 53.476a23.87 23.87 0 0 1-11.087-.798c4.634-4.638 7.65.466 11.175.7l-.088.088zm-12.86 1.354c0-.488.465-.954.598-.976l7.827 1.287c.263.048.497.194.657.408a1.06 1.06 0 0 1 .208.746c0 .82-.665.776-1.13.7a198.85 198.85 0 0 1-7.184-1.2c-.4-.155-1.042-.355-.887-1.043l-.088.067zm-.133 2.596c1.24-1.043 9.356.932 10.332 2.685l-9.956-1.398c-.73-.2-.93-.82-.288-1.353l-.088.066zm-.555 3.684c0-.422.244-.622.577-.777a35.41 35.41 0 0 1 9.822 1.176c.135.153.248.325.333.5.288 1.02 0 1.3-.9 1.2l-9.07-1.265a.79.79 0 0 1-.324-.076.82.82 0 0 1-.263-.205.78.78 0 0 1-.167-.629v.067zm-.3 3.084c0-.777.332-1.087 1.153-.976l8.603 1.065c.798 0 1.308.4 1.397 1.287s-.555.555-1.175.5c-3.082.555-6.098-1.464-9.357-.9-.3-.022-.6-.466-.533-1.043l-.088.067zm.665 2.22l10.177 1c.62 0 .532.532.444.998-.155.8-.754.865-1.73.843l-9.002-1.33c-.42 0-.865-.333-.842-.843s.598-.777 1.042-.733l-.1.067zm5.255 3.55a23.35 23.35 0 0 1 4.146.4c.555 0 1.153.222 1.042.865s-.82.333-1.263.266l-10.023-1.5c2.506-1.3 4.324.045 6.187-.088l-.1.066zm-6.652 2.796c0-.776.355-1.686 1.064-1.575 3.46.466 6.896 1.087 10.333 1.708.665.1.62.8.554 1.3 0 .887-.865.244-1.175.465l-9.756-.7c-.687-.133-.865-.6-.865-1.264l-.155.066zm0 3.13c0-1.265.976-1.043 1.707-1l9.113.777c1.264 0 1.3.9 1.53 2.108s-.443 1.1-1.44 1l-9.534-1.066c-1.042-.2-1.264-.9-1.242-1.886l-.133.067zm0 3.86c.244-1.553 1.175-.7 1.973-.644 3.036.095 6.064.36 9.07.8 1.153.222 1.574.466 1.33 1.553.62 1.243-.3 1.132-.954 1.066l-9.58-1.176c-.798-.178-1.995-.178-1.773-1.665l-.067.067zm0 3.706c0-.378 0-.688.577-.533l11.24.932c.9 0 .9.865.976 1.575s-.7.9-1.242.844l-10.355-1.465c-.842-.177-1.108-.6-1.064-1.42l-.133.067zm-.288 4.016c.2-1.487 1.264-.82 2.018-.688 3.015.488 6.097 0 9.135.5 1.485.222 1.884.777 2.084 2.042.288-.577.1-1.176.776-1.443-.355 1.5 2.018.9 1.774 2.22s-.976.422-1.44.267c-2.218-.755-5.122.532-6.83-2.064-1.286 1.598-1.906.843-2.328-.643-.998.576-1.862 1.486-3.193.976-.665-.333-2.084.555-1.862-1.176h-.133zm.665 6.346a6.65 6.65 0 0 1 3.348.51c0 .644-.266 1.287-.554 1.2-1.13-.378-2.528 0-3.415-.9-.266-.488.355-.865.754-.865l-.133.066zm.62 2.95c.887.333 2.372-.577 2.528 1.3 0 .8-.533 1.088-.865.844-.976-.666-2.727.643-3.082-1.154-.045-.954.754-1.198 1.463-1.065l-.044.066zm-1.197 19.372l-.732 4.438c-1.087-1.953-.355-3.284-.577-4.57 0-.533.2-.82.754-.755s.776.355.7.82l-.155.067zm1.24-13.136c-.887.288-.93 1.087 0 1.442s.843.532.732 1.1a.78.78 0 0 1-.118.302.77.77 0 0 1-.231.227c-.092.06-.196.097-.304.113s-.218.01-.323-.02c-.598 0-1.596 0-1.596-.6a39.59 39.59 0 0 1 .377-4.949c0-.177 0-.577.532-.333.576.7 2.04 0 2.35 1.2s-.576 1.242-1.42 1.5zm8.537 21.124c-.843 1.087-1.996.133-3.082.155.665-.865.73-2.618 2.483-1.686.776.377.93 1.132.62 1.53h-.022zm.332-9.408c-.997-.222-2.394.466-2.904-1-.2-.577.155-1.176.798-.976s2.217-.488 2.594 1.33c.022.022.1.777-.488.644zm0-4.083c-.953-.422-2.372.4-2.882-1.02a.88.88 0 0 1-.042-.371.86.86 0 0 1 .114-.356c.064-.11.148-.204.25-.277a.88.88 0 0 1 .342-.15c.976.5 2.417-.244 2.905 1.22.177.5.022 1.287-.688.976v-.022zm-.155-3.085c-.865-.332-2.217.3-2.505-1.176-.133-.82.243-1.42 1.13-1.264s2.218-.178 2.35 1.065-.178 1.686-.954 1.398l-.022-.023zm2.97-4.66c-.1.22-.266.665-.332.643-1.508-.288-2.95.577-4.435.133s0-1.708-1.086-2.063c-.754.332 0 2.22-1.62 1.664-.62-.222-.576-.888-.377-1.354a1.56 1.56 0 0 1 .298-.638 1.55 1.55 0 0 1 .55-.44 1.56 1.56 0 0 1 .687-.153c.237.002.47.06.683.166a25.82 25.82 0 0 0 4.834.843c.93 0 .865.666.843 1.287.554-1.797 1.906-.776 2.926-.776s.577.8.444 1.22 0 1.198-.798.932-2.794.732-2.595-1.353l-.022-.1zm-8.004-5.17c-.222-.687.266-.82.665-.776 1.774.2 3.526.488 5.277.776.132.004.262.037.38.096s.222.144.305.247a.91.91 0 0 1 .18.745c0 .665-.42 1.154-.82 1.198-1.952-.222-3.592-.355-5.233-.6-.9-.133-.532-1.065-.732-1.664l-.022-.023zm13.17 9.72c0 .733 0 1.443-1.02 1.376-.555-.266-1.708.4-1.708-.865 0-.6-.3-1.73 1.065-1.553.7.022 1.64-.3 1.663 1.042zm1.42 9.032c-1.176-.4-.688-1.265-1.22-1.73-.887 0-.554 1.464-1.62 1.353-.42-.776-.753-1.753 0-2.22.35-.152.728-.23 1.1-.23a2.82 2.82 0 0 1 1.11.23c1.308.222.643 1.398.643 2.44l-.022.156zm1.663-16.02c0 .444.443 1.353-.976.887s-3.747 1.22-4.612-1.464c-.1.2-.244.377-.333.6-.377.843-.9.222-1.263 0s-.5-.888-.4-1.376.444-.7.643-.665c2.063.266 4.125.62 6.187.954.487.022.776.377.776.954l-.022.1zm-2.218-2.463c-2.217-.755-5 0-6.652-2.22-.37.34-.823.576-1.313.685a2.86 2.86 0 0 1-1.48-.064c-.9 0-1.885-.1-1.796-1.376s1.24-.843 1.84-.754c3.614.466 7.228 1.043 10.82 1.575.5 0 .82.267.865.866-.032.248-.124.485-.267.7a1.54 1.54 0 0 1-1.276.663 1.56 1.56 0 0 1-.72-.178l-.022.1zm2.218-4.305c0 1.33-.887 1.22-1.62 1.043-4-1.02-8.27-.533-12.106-2.42-.643-.3-1.996 1.1-2.218-.754-1.352 1.287-2.86 0-4.3.177-.178 0-.532-.3-.5-.377s.332-.4.5-.688c1.33.8 3.193-1.42 4.434 1.287a1.64 1.64 0 0 1 .256-.594c.124-.18.283-.33.467-.447s.4-.194.605-.228a1.6 1.6 0 0 1 .646.027c4.213.443 8.27 1.775 12.55 1.664.266-.045 1.308-.1 1.308 1.198l-.022.1zm-.1-4.04c-.333.5.576 1.73-.776 1.753-.688 0-1.708 0-1.62-1.264 0-.7-.266-1.73 1.042-1.665.643-.088 1.486-.1 1.308 1.065l.045.1zm10.42 40.474c0 .466.244 1.5-.687 1.287s-2.063 0-2.218-1.176c-.2-.932.444-.954 1.198-.865s1.663-1.043 1.663.643l.044.1zm-30.5-204.876c2.64-1.287 5.122 0 7.34-1.1-.5-.533-1.153-.82-1.663-.555-1.42.8-2.638-.954-4.057-.178-.5.267-.776-.466-.82-.8s.555-.576.932-.6c2.44 0 4.8-1.13 7.294-.7a1.37 1.37 0 0 0 1.663-.865 28.36 28.36 0 0 1-8.115-.555c7.184-1.33 13.725-1.22 20.177-1.953-9.778-.776-19.445.733-29.18 1.532 14.013-2.82 28.315-3.795 42.66-8.432-.843 1.686-2.64 2.884.155 3.284.953.133.465 2.22.842 3.572a105.44 105.44 0 0 1 3.881 15.377v.5c1.396 1.02-2.683 2.507.4 3.772.776.3 0 3.64.576 4.815 2.322 6.183 4.016 12.583 5.056 19.105 2.217 10.696 5.4 21.214 6.274 32.175l2.484 26.894a21.49 21.49 0 0 1-.754 8.632 4.86 4.86 0 0 1-.745 1.91 4.82 4.82 0 0 1-1.47 1.426 4.81 4.81 0 0 1-3.97.504c-4.28-1.177-8.492-.356-12.727 0-1.752 0-3.548-.3-5.278 0l15.2-2.22c-.133-.955 0-.2 0-.3l-16.03 1.154v-.843a143.89 143.89 0 0 1 14.4-1.753c.6 0 1.863.82 1.796-.644s-1.264-.577-1.862-.532l-13.46 1.287c-.732 0-1.774.488-1.95-.666s1.086-.82 1.662-.932c4.657-.9 9.468-1.043 13.88-3.195l-10.754 1.62c-1.308.2-2.617.4-3.947.533-.665 0-1.596.288-1.685-.7s.798-.777 1.353-.888c2.956-.775 6.017-1.074 9.068-.887.555 0 1.397.244 1.486-.622s-.665-.954-1.464-.865l-9.955 1c-.5 0-1.042.3-1.597-.378 1.527-.893 3.23-1.445 5-1.62a52.4 52.4 0 0 1 8.093-1.332c.488 0 1.13.3 1.042-.577s-.7-.532-1.197-.466c-3.503.577-6.984 1.243-10.488 1.687-.975.133-2.594 1.3-2.95-.2-.244-1.087 1.62-.865 2.55-1.1 4.442-1.08 8.943-1.894 13.48-2.44-.155-.577-.288-.977-.7-.9a103.82 103.82 0 0 0-12.55 2.219 3.69 3.69 0 0 1-1.286.31c-.798 0-2.018.4-2.217-.776s1.153-1 1.884-1.154c4.7-.976 9.246-2.663 14-3.595-3.17-.488-6.097 1.02-9.534 1.132a14.76 14.76 0 0 1 4.213-1.598c.887-.133 2.395-.222 2.217-1.398s-1.596-.532-2.505-.4l-11.33 1.708c6.874-1.886 13.304-2.73 19.5-5.037l-.2-.843-7.872 1.997c-3.633 1.06-7.338 1.853-11.086 2.375-1.264.133-1.308-.444-1.508-1.176s.178-1.154 1.02-1.398c4.058-1.1 8.36-1.332 12.195-3.35l-12.173 1.842c-.776 0-1.796.776-2.062-.733s.976-1.176 1.708-1.375a38.63 38.63 0 0 1 11.84-2.22c-.488-1.598-1.53-.954-2.217-.843-3.343.363-6.655.964-9.912 1.797-.73.2-1.862.688-2.04-.333s1.087-.865 1.774-.998c3.637-.7 7.007-2.486 10.798-2.62-3.46-1.265-7.006 1.886-10.886-.4 4.277-1.447 8.657-2.567 13.104-3.35 0-.666-.355-.954-.865-.82-4.08 1.132-8.337 1.42-12.328 2.907-.577.222-1.242.155-1.818.355-1.353.422-1.375-.555-1.64-1.398s-.155-1.598 1.042-1.864c3.88-.865 7.716-1.842 11.574-2.796l2.217-.577-.133-.643c-1.64.244-3.303.42-4.922.754-3.104.644-6.208 1.332-9.3 2.22-.776.2-1.198 0-1.442-.62s.156-1.02.932-1.132c5.32-.8 10.4-2.618 15.654-3.772.598-.133 1.485 0 1.264-.865s-1.065-.3-1.597-.178l-15.077 3.528c-.776.178-1.796.6-2.04-.82s.9-1.02 1.53-1.198a27.21 27.21 0 0 1 11.929-1.509c.443 0 .73 0 .798-.377s-.42-.777-.843-.777c-1.476-.1-2.958-.1-4.434 0l-9.246 1.22c5.144-2.22 10.798-2.44 16.03-4.26l-10.62 1.62c-1.663.266-3.282.7-4.923 1.043-.864.178-1.507 0-1.685-1.043s.488-1.1 1.198-1.265l15.52-3.528c-2.794-1.043-4.834.244-6.874.488a41.73 41.73 0 0 0-8.869 1.576c-.7.244-1.64.5-1.885-.688s.754-1.22 1.464-1.287c4.434-.422 8.603-2.22 13.303-2.463-.687-1.53-1.774-.888-2.594-.732l-10.665 2.085c-.798.156-1.907.644-2.217-.665s.953-1.176 1.707-1.3c3.274-.735 6.605-1.188 9.956-1.354.443 0 .953.133.864-.555s-.576-.4-1.086-.4a73.1 73.1 0 0 0-10.71 1.353c-.487 0-1.042.3-1.53-.754a60.11 60.11 0 0 1 14.812-2.041c-.377-1.465-1.44-1.22-2.483-1.088-3.77.5-7.54.9-11.286 1.554-1.708.288-1.974-.577-2.218-1.798s.843-1.353 1.84-1.487c3.392-.443 6.785-.998 10.155-1.508v-.666l-11.087 1.087c-.953 0-1.685.178-1.93-1.1s.82-1.443 1.575-1.53c4.2-.5 8.27-2.02 12.572-1.243.598 0 .887 0 .9-.5 0-1.065-.688-.733-1.264-.7-3.717.118-7.422.496-11.087 1.13-.607.12-1.222.202-1.84.244-.732 0-1.818.644-1.995-.5s1.108-.8 1.73-.9a117.44 117.44 0 0 1 15.521-1.553c.377 0 .687 0 .687-.8a29.14 29.14 0 0 0-7.317.155l-10.244 1c-.598 0-1.02.288-1.153-.488s-.133-1.1.82-1.265c4.634-.754 9.07-3.018 13.924-1.664.466.133.688 0 .688-.466a1.09 1.09 0 0 0-.095-.456c-.065-.144-.158-.27-.276-.374a1.1 1.1 0 0 0-.407-.224c-.15-.044-.3-.056-.464-.033l-4.434.266c-3.235.2-6.443.696-9.58 1.5-1.175.333-1.087 0-1.264-.688s-.554-1.376.665-1.53c2.013-.212 3.997-.636 5.92-1.265l-7.34.2c0-1.043.776-1.1 1.375-1.132 3.924-.222 7.716-2.064 11.774-1.02.126.048.262.067.396.056a.91.91 0 0 0 .675-.393.91.91 0 0 0 .148-.373c.1-.8-.576-.7-1.086-.754a46.2 46.2 0 0 0-8.869.954 12.72 12.72 0 0 1-3.57.155 163.4 163.4 0 0 1 16.34-3.395 80.87 80.87 0 0 0-13.015 1.132 19.2 19.2 0 0 1-4.878.177 1.02 1.02 0 0 1-.976-1.02c0-.644.62-.378.998-.5a48.75 48.75 0 0 1 14.102-1.952c0-.888-.355-1.02-1.286-1-4.456.178-8.897.608-13.304 1.287-1.353.178-1.44-.577-1.863-1.242a.52.52 0 0 1-.087-.248.52.52 0 0 1 .202-.467c.07-.055.153-.092.24-.106 5-.378 9.823-2.22 14.945-1.687.443 0 1.042.377 1.574-.643-2.4-.274-4.84-.274-7.25 0-2.217.1-4.567.6-6.85.8-.466 0-1.42.288-1.508-.6s.865-.687 1.375-.776a87.09 87.09 0 0 1 13.149-1.509c.332 0 .643-.355.975-.577-5.454-.4-10.865.865-16.43-.222l16.164-2.84a47.91 47.91 0 0 0-10.5.577l-5 .532c-.488 0-1.13.422-1.352-.288s.5-1.043 1.086-1.1c4.232-.915 8.534-1.472 12.86-1.664a4.56 4.56 0 0 0 2.838-.621 76.77 76.77 0 0 0-14.4.954l-2.106.333a1.2 1.2 0 0 1-1.018-.115 1.21 1.21 0 0 1-.375-.368 1.2 1.2 0 0 1-.181-.493c-.3-1.177.665-1.043 1.286-1.132 4.057-.5 8.07-1.798 12.26-1.154-4.612-1.265-9.246.4-13.858 0a105.32 105.32 0 0 1 16.341-2.463c-5.986-.488-12.04.155-17.937-1.53a88.28 88.28 0 0 0 11.086-1.354c-1.494-.64-3.14-.842-4.745-.577-1.73 0-3.48.178-5.233 0-.754 0-2.017.688-1.95-.843s1.308-.8 2.084-.887c3.127-.355 6.23-.932 9.402-1.043-3.97-1-8.07.732-12.506-.3zM345.9 308.45c-1.95 0-4.28 1.62-4.568-2.22-.42-5.57-.687-5.77 2.838-5.947 1.575 0 4.17-2.22 4.812.732 1.353 6.68 1.13 6.88-3.082 7.434zm-11.086-.178c-1.442-2.22-.62-4.438-.377-6.8.646 2.212.775 4.543.377 6.812v-.022zm-6.808-6.28c1.22-.156 4.036-1.798 4.435 1.242.155 1.664 1.863 4.682-.998 5.037-3.946.466-3.46 1.376-4.08-2.862.377-1-1.574-3.13.666-3.395l-.023-.022zm-3.192 1.33v4.726c0 .577-.266 1.1-.9 1s-.466-.644-.333-1.1l-.4-4.438c0-.577-.244-1.287.732-1.375s.93.6.93 1.22l-.022-.022zm-7.362 11.095s.7.333.998.6 0 .5 0 .688c-.9 1.33-4 .9-4.945-.688 1.242-.577 2.794.754 3.97-.5l-.022-.088zm-16.607-81.148c-.2-.7-.288-1.3.62-1.42 1.42-.155 1.397.954 1.64 1.842s.488 1.42-.665 1.487-1.086-1.22-1.574-1.82l-.022-.1zm69.3 151.067a89.74 89.74 0 0 0 1.419 10.518c.377 2.596-.244 3.373-2.794 3.328a109.39 109.39 0 0 0-17.339 1.265c-8.27 1.176-16.607 1.886-24.922 2.774-.222 0-.466 0-.732-.5 12.506-2.063 25.166-3.15 37.583-5.325-.754-3.062-3.17-2.22-5.2-2.22l-21.042 2.22a57.84 57.84 0 0 1-8.869 0c11.818-2.352 23.858-3.195 35.676-5.57-12.793.866-25.498 2.796-38.36 2.818l38.47-5.835c-.5 0-1.352-.156-2.217 0l-27.295 3.372c-2.35.3-4.723.533-7.073.688-.798 0-2.04.977-2.217-.776s1.086-1.132 1.84-1.265c7.738-1.398 15.52-1.997 23.415-2.73 4.8-.443 9.534-1.642 14.412-1.642-2.33-.53-4.742-.6-7.095-.177-10.1.887-20.2 2.064-30.355 2.507-1.973 0-2.372-.42-2.217-2.22.08-2.46-.045-4.926-.377-7.367-.3-2.22.532-2.818 2.44-3.128 7.583-1.22 15.2-1.975 22.816-2.84 4.434-.488 8.714-.776 13.082-1.087-1.76-.565-3.627-.717-5.455-.444-5.942-.133-11.752 1.287-17.738 1.598-4.435.244-8.87.82-13.437 1.22-.643 0-1.574.6-1.796-.4s.9-.8 1.486-.932c6.23-1.376 12.572-1.864 18.87-2.774a103.31 103.31 0 0 1 15.033-2.063c-3.93-.53-7.925-.312-11.774.643-7.406 1.265-14.922 1.53-22.372 2.22-.555 0-1.464.6-1.508-.62s.6-1.065 1.353-1.22c4.108-.662 8.256-1.04 12.416-1.13a204.4 204.4 0 0 0 21.331-3.395v-.644l-14.368 2.22c-6.2 1-12.506.688-18.736 1.176-.622.02-1.242-.053-1.84-.222-.554-.133-.465-.687-.465-1.087-.007-.1.006-.178.037-.262a.62.62 0 0 1 .366-.366c.083-.032.173-.044.262-.038 4.323.222 8.292-1.775 12.594-1.82 3.48 0 6.962-.6 10.443-.954.444 0 .9 0 .976-.9a192.06 192.06 0 0 0-22.417 1.93c-.665 0-1.796 1.066-1.973 0s1.242-.843 1.995-.998c9.646-2.064 19.535-2.552 29.246-4.438l-31.22 2.22v-.666a229.67 229.67 0 0 1 33.503-5.436 72.7 72.7 0 0 0-16.674 1.154c-5.6.82-11.286.754-16.918 1.664a9.06 9.06 0 0 1 6.01-2.485l26.718-3.817c.5 0 1.02-.244 1.952-.466-5.388 0-10.244 1.154-15.167 1.42a167.33 167.33 0 0 0-17.738 2.22c-.82.133-1.885.5-2.217-.776-.355-1.642 1.086-1.332 1.885-1.5 8.403-2.042 17.073-2.352 25.565-3.706l2.727-.422v-.5l-20.798 2.22c-2.64.266-5.277.422-7.916.644-.62 0-1.308.177-1.44-.688s.643-.82 1.22-.888l22.328-2.73a32.89 32.89 0 0 0 8.093-1.22l-31.685 2.22-.133-1.154c9.645-2.75 19.7-3.017 29.6-4.216-9.977-.5-19.955 1-29.756 1.53l22.772-3.46a2.97 2.97 0 0 0 0-.422c-7.583.488-15.233.577-22.816 1.065 0-.2 0 0-.133-.998l22.97-3.484v-.155c-4.324.355-8.625.954-12.95 1.265l-8.87.6c-.643 0-1.33.1-1.42-.7s.443-1.065 1.286-1.243c5.277-1.1 10.665-1.198 15.964-2.086a22.7 22.7 0 0 0 5.898-1.487l-11.574.9-10.3 1c-.577 0-1.375.355-1.552-.5s.73-.998 1.374-1.1a96.7 96.7 0 0 1 17.606-1.731c.757-.032 1.505-.182 2.217-.444-7.228-1.02-14.412.688-21.64 0 8.315-3.062 17.206-2.463 25.7-4.438-3.182-.092-6.365.1-9.513.577-4.833.178-9.645.755-14.456 1.02-.532 0-1.974 1-1.996-.7s1.22-.444 1.84-.6c5.543-1.398 11.263-1.842 16.873-2.752a10.36 10.36 0 0 0 4.235-.976l-22.904 1.842c3.348-1.7 7.05-1.62 10.643-2.22s7.184-1.087 10.776-1.953l-21.02 1.576c6.652-2.84 13.747-2.086 20.487-4.128l-20.354 1.5-.1-.8c5.3-1.73 10.953-1.93 16.297-3.483a22.69 22.69 0 0 1-5.011 0 7.32 7.32 0 0 1 3.742-1.235 7.31 7.31 0 0 1 3.84.88 1.11 1.11 0 0 0 .477.107c.165 0 .327-.036.476-.107 4.102-3.15 9.136-2.22 13.725-2.863 1.996-.288 0 1.975.2 3.085 0 .377-1.53.6-.976 1.686s1.597 0 2.328.333c-1.618 4.06-1.618 4.06.732 4.948-.488.865-3.836 1.82 0 2.752-.488.577-.93 1.065-1.286 1.575s.1 1.1.377.976c2.572-1.442 1.973 1.5 2.816 2.22 1.308 1.1-.643 1.465-1.308 2.042-.288.244-.93.1-.887.754a.69.69 0 0 0 .209.472c.128.125.3.194.478.194.9 0 2.55-.488 2.506.62 0 1.664 1.352 2.974.598 4.793-.4.932-2.217 2.996.887 3.33 0 0 .222.1.2.155-.865 3.417 2.217 6.058 1.84 9.43 0 .622-.2.932-.842 1.066s-1.73-.222-1.42.954c.2.776 1.108.688 1.84.62a4.91 4.91 0 0 1 1.042.178c-1.042.954-3.858 2.108 0 2.707a2.21 2.21 0 0 1 .41 1.535 2.22 2.22 0 0 1-.72 1.416c-.688.488-1.02 1.376-.2 1.664 1.73.62 1.64 1.997 1.552 3.24-.222 2.773 1.375 5.347.732 8.232-.222.976 1.352 1.864 1.13 3.33-.776 3.616 1.618 6.457 1.707 9.852l-.022-.1zm-43.525 14.556l34.8-3.905v.754c-11.508 1.875-23.133 2.95-34.8 3.218l-.022-.067zm40.687-41.45l11.618-1.753c-3.858.577-7.494 2.485-11.463 2.508-.044-.178-.133-.688-.133-.688l-.022-.067zm44.878 29.002c-7.45 1.775-14.635 4.438-22.173 5.68-4.257.687-8.426 1.93-12.64 2.884-.263.03-.513.13-.724.3a1.47 1.47 0 0 0-.473.621c-.333.932-1.13.643-1.774.666s-.576-.5-.488-.777c.2-.644.776-.843 1.42-1l16.43-4.105c4.657-1.198 9.313-2.44 13.903-3.972-10.732 1.953-21.308 4.682-32.13 6.214 9.623-3.773 19.956-5.215 29.58-8.876l-22.705 4.86c-2.062.444-4.17.755-6.253 1.154-.5 0-1.064.333-1.22-.466s.288-.932.842-1.087c2.55-.7 5.056-1.642 7.65-2.22a147.86 147.86 0 0 0 21.95-4.86c.355-.133.82.333 1.153-.133-.93-.932-1.774 0-2.66 0l-27.605 5.037c-1.086.2-1.818.3-2.062-1.154s.776-.932 1.486-1.153c7.36-2.22 14.966-3.395 22.483-4.97a4.44 4.44 0 0 0 1.774-1.021 169.2 169.2 0 0 0-17.739 2.952c-2.66.443-5.476.244-7.893 1.73-.444.267-.466 0-.532-.222s-.355-.887 0-1.22a5.54 5.54 0 0 1 2.372-1.043 158.45 158.45 0 0 0 15.942-4.061 7.54 7.54 0 0 0-4.567.355 127.54 127.54 0 0 1-13.016 2.463c-.754.178-1.75.444-1.84-.754s.998-.754 1.574-.932a127.38 127.38 0 0 1 13.304-3.106c.554 0 1.042-.267 1.064-1.265-5.476.8-10.754 2.574-16.32 2.685 5-2.707 10.93-2.22 15.987-5.037-1.96.2-3.907.512-5.832.932a90.57 90.57 0 0 1-9.135 1.619c-.576 0-1.53.666-1.663-.532s.9-.62 1.508-.82c5.1-1.775 10.576-2.22 16.275-4.15l-18.204 2.774a66.2 66.2 0 0 1 17.25-5.214 31.79 31.79 0 0 0-8.359.621c-2.705.333-5.255 1.686-8.403 1.087 5.454-2.552 11.263-3.24 16.563-5.348-4.435 0-8.58 1.665-12.86 2.508l-3.636.732c-.687.133-1.42.3-1.53-.82s.554-1.1 1.264-1.287l11.22-2.95c1.024-.243 2-.688 2.84-1.3L369.82 360.5c-.687 0-1.75.955-1.995-.222s1.086-1.02 1.774-1.22l15.92-4.438c-1.708-1.464-3.526.3-5.2-.266.7-1.02 2.217-.2 3.215-1.886a86.12 86.12 0 0 1-15.964 2.086v-.644l14.146-3.062c-5.1-.4-9.933 1.22-15.055.887l14.146-3.95a4.78 4.78 0 0 0-2.151-.511 4.79 4.79 0 0 0-2.15.51 74.23 74.23 0 0 1-8.869 2.219c-.62.155-1.24.5-1.463-.422s.6-.865 1.153-1.02l14.9-4.016c-5.4-2.862-10.377.6-15.52-.177l16.253-4.838c-3.77-.555-7.206 1.398-10.887 1.043 3.005-.797 5.924-1.9 8.714-3.262l-16.077 3.21-.2-.866c4.723-2.04 10-2.507 14.944-5.014a44.28 44.28 0 0 0-13.946.843c2.372-1.465 5.3-1.198 7.716-2.485-.954-.644-2.107-.356-3.215-.866l4.057-.8a21.47 21.47 0 0 0-9.334.688c-.7.156-1.73.62-1.974-.5s.82-1.087 1.575-1.287a79.22 79.22 0 0 0 10.532-3.306l-10.555 1.597c-.864.133-2.217.954-2.44-.488s1.286-1.3 2.218-1.5a74.81 74.81 0 0 0 8.869-2.219l-3.88.266c2.124-.856 4.292-1.596 6.496-2.218-4.833-.82-9.556.4-14.28.843l-.155-.733 10.044-2.818c-3.548-.288-7.05.866-10.643.3 3.126-1.908 6.83-1.997 10.732-3.64a30.71 30.71 0 0 0-9.269 1.42l-.155-.732c3.016-.9 6.098-1.487 9.113-2.42 0-.133 0 0 0 0l-10.554 1.598c-.155-.932-.1-.62-.155-.777 3.215-.8 6.408-1.775 9.645-2.574-3.193-.8-6.275.7-10.044.244l10.73-2.596v-.5l-8.87 1.3c-.776 0-2.018.7-2.217-.555s1.153-.954 1.907-1.087c4.213-.755 8.58-1.132 12.638-2.22s8.714-1.797 12.927-3.284c.42-.155.9-.533 1.197-.178 1.53 1.9 2.218 1.576 2.595-1.264a15.54 15.54 0 0 1-.222 6.301c1.264.777 1.286-.754 1.973-.954 1.087 1 .954 2.44 1.508 3.64s-.953 1.376-1.53 1.953-.732.533-.42 1.065.532.355.9.266 1.53-1.1 2.04 0-1.22 1.02-1.397 2.22c2.018-1.22 2.217 0 2.705 1.465 2.24 5.57 4.1 11.286 5.565 17.108 2.794 11.45 6.2 22.722 8.36 34.327.9 4.86 2.106 9.675 3.325 14.468.023 1.22-.1 1.664-1.374 1.975l-.022-.1zm-3.814-42.16c-.577.333-1.508.7-1.087 1.553s1.397.422 2.018 0c1.153-.732 2.217-1.598 3.348-2.374.42-.3.93-1.043 1.44 0 .083.13.137.278.157.432a1.06 1.06 0 0 1-.269.856c-.104.115-.232.205-.375.265l-6.364 3.972c-2.217-4.15-2.217-4.238 1.685-6.657 3.082-1.953 6.23-3.772 9.335-5.658.466-.266.9-1.132 1.44-.178s0 1.154-.665 1.487l-10.643 6.413-.022-.1zm10.355-3.44c.133 2.22-2.484 1.5-2.86 2.73-.998.444-1.175-.133-1.108-.466.3-1.753 1.93-2.086 3.215-2.796.687-.3.754.288.776.62l-.022-.1zm-6.165 9.986c.422-.222.643 0 .865.355s-.1.7-.42.954a17.59 17.59 0 0 1-5.078 2.93 9.29 9.29 0 0 1 4.657-4.127l-.023-.1zm-4.878.776a11.53 11.53 0 0 1 4.901-3.838c-.466 2.84-3.016 2.84-4.878 3.95l-.023-.1zm5.477 2.22c.355-.3.776-.4 1.064.178a1.04 1.04 0 0 1 .084.762c-.07.256-.235.475-.46.614-1.463 1.042-2.993 2.02-4.434 3.017l-.6-.6 4.368-3.883-.022-.1zm2.927-17.418l-9.357 5.68c-.466.266-1.286.7-1.685 0s.466-.976.887-1.265l8.647-5.902c.865-.622 1.486-1 2.04.4a.91.91 0 0 1-.51 1.176l-.022-.088zm-.976 19.837c.422-.244.976-.865 1.353-.288.62.9-.554.7-.843 1.087a14.38 14.38 0 0 1-5.92 3.661c2.018-1.22 3.437-3.195 5.455-4.37l-.045-.1zm0 5.08c-1.463.932-2.904 1.93-4.567 3.04-.155-.865-.688-1.575.377-1.93a7.06 7.06 0 0 0 3.193-2.219c.3-.355.776-1.132 1.374-.4s.3 1.177-.377 1.598v-.1zm-4.2 5.747c-.156-.466-.688-1.3.244-1.442 1.73-.266 2.86-1.575 4.3-2.22.3-.155.554-.488.865-.133s.266.577.177.644L412.06 368c-.976.355-1.02-.42-1.153-.82v-.1zm6.652 4.838c.465-.377.975-.4 1.286.222s.376.998-.133 1.42-.7.488-1.065.754c-4.235 3.307-4.235 3.307-5.4-2.75 1.996 2.907 3.68 1.84 5.344.466l-.022-.1zm-3.814 8.632c1.397-2.907 3.658-3.928 5.277-5.57.377-.4.643-.133.798.2.138.232.182.507.125.77a1.07 1.07 0 0 1-.435.65c-1.692 1.643-3.63 3.013-5.743 4.06l-.022-.1zm6.94-1.354c-1.818 1.376-3.215 3.35-5.654 3.817a20.8 20.8 0 0 1 4.7-4.793c.4-.333.732-.444 1.087 0a.68.68 0 0 1 .209.553.68.68 0 0 1-.091.29c-.052.088-.122.164-.207.222l-.044-.1zm-4.058-30.533a2.22 2.22 0 0 1 .798-.954c.805-.856 1.8-1.5 2.905-1.908a1.64 1.64 0 0 1 .288.932c-.554 1.62-2.217 1.775-3.37 2.796a.63.63 0 0 1-.478-.235.64.64 0 0 1-.12-.247.63.63 0 0 1-.002-.273l-.022-.1zm3.348 2.64c-.214.332-.523.592-.887.746a1.97 1.97 0 0 1-1.153.119c-.133 0-.243-.244-.288-.4-.332-.9.355-1.354.954-1.62 1.042-.488 1.796-1.687 3.17-1.398.1 0 .178.288.3.532-.1 1.332-1.44 1.332-2.062 2.13l-.045-.1zm4.102-17.486c0 1.997-1.907 1.953-2.86 2.752-.732 0-1.486-.355-1.175-.688 1.034-.998 2.17-1.883 3.392-2.64.377-.1.688.333.688.688l-.045-.1zm-2.217-3.106c.4-.222.9-.244 1.064.3s0 .844 0 .955c-1.663 1.087-3.392 2.22-5.1 3.173-.533 0-.8-.3-1.02-.644s0-.82.4-1.065c1.618-.82 3.193-1.73 4.8-2.618l-.133-.1zm-1.1-3.86c-1.603 1.5-3.383 2.78-5.3 3.84l-10.2 7c-.466.3-.9.7-1.353.178-.064-.092-.107-.196-.13-.305a.75.75 0 0 1 .006-.33c.026-.108.073-.2.14-.3a.8.8 0 0 1 .249-.218l16.186-10.43.4.577zm-17.738 7.988c4.612-4.75 10.865-6.945 16.408-10.296a78.88 78.88 0 0 1-16.23 10.407l-.178-.1zm14.368-12.337c.4-.267.754-.422 1.64.155l-9.4 5.747a112.24 112.24 0 0 1-5.965 3.329c-.532.288-1.397.93-1.818 0-.6-1.332.776-.688 1.22-1.02 4.6-3.262 9.956-4.993 14.524-8.1l-.2-.1zM392.46 148.67c-2.383 2.078-5.202 3.594-8.248 4.438-.776.2-1.375 1.176-2.062 1.797-3.415 3.04-7.76 4.04-11.974 5.17L348.67 165.6c-1.1.3-2.218.755-3.016-.62-.305-.456-.468-.993-.468-1.542s.163-1.086.468-1.542a2.71 2.71 0 0 0 0-2.974c-.576-1.13-1.308.577-1.95.3a4.81 4.81 0 0 1-1.847-1.36 4.84 4.84 0 0 1-1.013-2.058c0-1.553-2.883-2.485-.8-4.438.422-.377-1.086-.644-1.596-.377a82.05 82.05 0 0 1-10.71 3.927c-3.702 1.3-7.538 2.22-11.73 3.33.266-.592.678-1.107 1.198-1.495a3.8 3.8 0 0 1 1.773-.724c3.104-.732 6.076-1.82 9.3-2.352a23.11 23.11 0 0 0 6.651-2.108c.8-.422 1.597-.977.688-2.463a41.81 41.81 0 0 0-3.459-3.839 68.8 68.8 0 0 0 13.104 1.132l15.52-.4c5.898-.1 11.774.777 17.738 0 4.446-.296 8.912-.065 13.304.688.576 0 1.552 0 1.73.82s-.62.8-1.086 1.154zm9.9-5.658c.577 7.255-.244 13.78.244 20.303l-1.22-8.2c-.1-1.22-.1-2.443 0-3.66.22-4.75-2.063-7.234-7.207-7.323a102.22 102.22 0 0 1-14.079-1.065c-2.218-.355-4.435 1.353-6.985.932-.465 0-1.02.355-1.508-.377a9.44 9.44 0 0 1 4.435-1.997c7.384-1.953 14.8-3.817 22.173-5.46 3.503-.777 7.184-.688 10.754-1.354 2.77-.5 3.303 0 2.926 2.752-.133.998.267 2.22-.665 3.13-.953-.666.2-1.7-.73-2.597l-1.02 5.66h-.577l-.576-5.97c-.932 2.463-2.218 4.77-3.127 7.478l-.73-2.552c-.732 2.75.243 5.303-.444 8.055-1.02-2.397.288-5.037-1.64-7.722l-.022-.022zm13.57 11.427a87.14 87.14 0 0 1 .488 12.448 2.93 2.93 0 0 1-.474 1.75c-.338.518-.832.915-1.4 1.135-1.818.866-3.48 2.064-5.255 3.04-.976.533-1.663.4-1.73-.932s-.3-2.618-.355-3.927c0-1.997-1.264-3.662-1.397-5.725a8.87 8.87 0 0 1 1.552-7.168 92.48 92.48 0 0 1 7.96-10.007 49.48 49.48 0 0 0 .643 9.408l-.022-.022zm39.7 21.435c-.133-.998.532-1.553 1.397-1.864s.776.378.865.888c.064.2.082.4.052.587s-.107.384-.225.545a1.26 1.26 0 0 1-.45.38 1.24 1.24 0 0 1-.574.13c-.488.067-1.065.333-1.043-.666h-.022zm-5.52 1.642c.333-.133.843-.444 1.042.244.577 1.997-1.308 1.975-2.217 2.885a1.96 1.96 0 0 1-.396-.909c-.05-.333-.016-.672.102-.987s.315-.594.573-.8a1.96 1.96 0 0 1 .896-.424h0zm.532 51.036c1.397-2.22 3.615-2.086 5.322-2.95a10.78 10.78 0 0 1-5.366 2.951h.044zm5.034-4.88c-1.464.754-2.972 1.442-4.812 2.22 0-1.798.3-2.885 2.04-3.107a5.85 5.85 0 0 0 1.863-.91c1.73-.932 1.485-1.842-.267-2.773.653-.42 1.327-.804 2.018-1.154.377-.178.843-.267 1.1.288a8.57 8.57 0 0 1-1.996 5.437h.045zm-.732-6.8c.82-1.93 1.086-3.64 3.17-3.817.7 2.552-1.353 2.707-3.215 3.794l.044.023zm0-4.793c.665-1.842 2.217-2.33 4.146-2.64-1.077 1.346-2.6 2.272-4.28 2.618l.133.023zm4.8-9.697a9.63 9.63 0 0 1-4.434 2.219c-.1-.466-.178-.577-.155-.622a7.61 7.61 0 0 1 4.28-2.22s.266.5.177.622h.133zm.9-6.657c0 .666-.465 1.065-1.263.9-.4 0-.932.222-1.176-.267-.043-.103-.065-.214-.065-.326a.83.83 0 0 1 .066-.326c.043-.103.107-.197.186-.275a.83.83 0 0 1 .279-.182c2.55-1.243.798-1.753-.443-2.397.687-.7 1.862-1.042 2.217-.62.9.8.044 2.263.066 3.462l.133.022z"/></svg>