<svg xmlns="http://www.w3.org/2000/svg" width="130" height="121" fill="none" xmlns:v="https://vecta.io/nano"><path d="M114.715 76.345c.582-13.247 4.198-26.05 6.706-39.03.483-.578.807-1.273.94-2.014s.07-1.505-.182-2.215c.136-.64.22-1.3.318-1.95.095-.78-.12-1.567-.6-2.2s-1.185-1.032-1.963-1.14a6.44 6.44 0 0 0-2.529.211c-1.55-2.606-5.104-3.944-8.002-5.03-6.516-2.462-13.45-3.875-20.234-5.378-9.087-2.017-18.08-4.507-27.06-6.85-9.932-2.593-20.432-6.114-30.82-7.247a1.24 1.24 0 0 0-.717-1.371 1.24 1.24 0 0 0-1.495.4l-.11.17c-.242-.025-.487.01-.712.103s-.424.24-.58.428l-1.27-.06c-1.81-.055-2.704 2.434-.853 3.207.282.117.574.22.864.337C10.922 32.314 6.937 64.97 2.073 93.846a2.71 2.71 0 0 0 .28 1.674c-.017.38.065.756.24 1.093a2.16 2.16 0 0 0 1.819 1.165 2.16 2.16 0 0 0 1.092-.239c15.623 5.597 32.995 2.723 49.274 3.425 15.616.674 35.406 1.438 48.673 10.56 1.512 1.04 3.953.98 5.04-.7 6.397-9.998 5.728-23.052 6.225-34.47zM108 72.323c-.804 9.262.26 21.19-3.378 30.307a11.56 11.56 0 0 0-.376-.774c-2.633-5.272-4.792-10.77-6.45-16.424-3.17-10.1-4.79-22.937-10.934-31.946 1.924-1.042 3.877-2.03 5.865-2.922 4.288-1.918 8.863-3.098 13.275-4.65a74.16 74.16 0 0 0 7.95-3.244c-2.316 9.843-5.07 19.593-5.95 29.654zM56.27 15.035C65.28 17.48 74.258 20.2 83.35 22.34c9.724 2.282 22.702 3.225 30.805 9.745.125.348.356.647.66.857s.666.318 1.035.312l.177.038c-4.187 4.813-11.372 6.436-17.385 8.383-10.167 3.353-19 8.952-28.443 13.9-2.107 1.108-2.032 1.665-3.225 1.015-1.928-1.056-4.06-4.335-5.327-6.034-3.896-5.18-6.628-11.056-9.736-16.68-4.83-8.744-11.27-16.49-17.38-24.41 7.17 2.125 14.653 3.64 21.736 5.56zm-27.246-6.46c2.813 5.95 6.844 11.215 10.56 16.598 4.61 6.68 8.047 13.82 11.936 20.926l.135.24c-9.19 5.877-17.318 13.368-24.994 21.076-5.9 5.93-11.957 12.13-17.416 18.673 4.172-26.54 8.81-52.834 19.78-77.512zm31.1 85.81C43.88 93.21 26.035 97.25 10.128 92.795c6.564-7.26 12.708-14.972 19.557-22.017 7.39-7.645 15.387-14.678 23.912-21.032a56.01 56.01 0 0 0 9.019 11.606c2.96 2.834 5.202 2.723 8.783.83 4.096-2.113 8.042-4.507 12.047-6.8 1.654 8.85 5.038 17.76 7.46 26.372 1.658 6.416 3.827 12.688 6.487 18.756-11.696-4.42-25.133-5.252-37.262-6.126z" fill="#3a3c51"/></svg>