<svg xmlns="http://www.w3.org/2000/svg" width="170" height="303" fill="none" xmlns:v="https://vecta.io/nano"><path d="M96.553 146.606c-6.503-13.02-14.996-24.742-22.833-36.93-.85-1.346-1.868-2.57-2.67-3.94C66.636 98.01 60.517 91.41 53.168 86.45c-15.7-10.572-21.8-27.116-24.046-45.226-1.383-10.9 0-21.854-.29-32.77-.218-6.877 6.212-10.9 12.812-6.828a55.33 55.33 0 0 1 12.327 10.181C64.092 22.79 71.4 36.1 75.224 50.598c3.497 12.605 2.136 26.078-3.8 37.713a6.45 6.45 0 0 0 0 7.562c11.67 17.45 23.73 34.703 33.437 53.425 2.038-.98 1.14-2.448 1.14-3.745 0-10.23.437-20.263-2.936-30.47-4.707-14.194-3.712-29.05-.29-43.635 2.62-11.233 5.24-22.466 8.638-33.48a27.73 27.73 0 0 1 1.869-5.017c.395-.948 1.05-1.763 1.887-2.35s1.824-.92 2.842-.96a5.33 5.33 0 0 1 2.91.728c.88.517 1.598 1.276 2.067 2.19a43.02 43.02 0 0 1 4.659 10.279c5.41 17.865 8.662 36.024 5.8 54.722-1.844 12.016-7.28 21.805-19.12 26.92-.734.248-1.376.716-1.84 1.34s-.728 1.378-.757 2.16c-1.335 10.083-1.553 20.24-1.94 30.37a9.84 9.84 0 0 0 1.383 4.527c8.342 18.732 13.847 38.623 16.33 59.005 2.063.195 2.014-1.59 2.427-2.668 3.046-6.665 5.632-13.533 7.74-20.557a3.46 3.46 0 0 0 .3-2.159c-.136-.733-.505-1.4-1.052-1.904-3.872-4.59-5.96-10.444-5.872-16.47a67.47 67.47 0 0 1 4.246-26.382c4.125-11.82 8.978-23.347 13.758-34.898.57-1.506 1.32-2.936 2.233-4.26.483-.82 1.17-1.502 1.993-1.975s1.755-.72 2.702-.72a5.42 5.42 0 0 1 2.701.721 5.48 5.48 0 0 1 1.994 1.975 16.14 16.14 0 0 1 2.208 4.21c5.97 17.13 8.857 34.653 6.14 52.812-.964 6.733-3.392 13.168-7.11 18.844a21.78 21.78 0 0 1-6.352 6.998c-2.6 1.835-5.567 3.072-8.693 3.624-1.243.115-2.417.624-3.355 1.455s-1.59 1.942-1.862 3.17c-3.057 8.8-6.308 17.62-12.617 24.742-1.092 1.224-.728 2.62-.655 3.965a125.18 125.18 0 0 1-3.3 34.972c-2.427 9.936-3.93 20.24-8.81 29.367a15.79 15.79 0 0 1-4.125 6.217c-.728-2.325.63-3.916 1.238-5.53 7.158-19.61 10.766-40.36 10.652-61.256a9.14 9.14 0 0 0-.646-4.302 9.08 9.08 0 0 0-2.557-3.505c-3.615-3.06-6.867-6.56-10.215-9.79-.583.244-1.068.293-1.238.538-4.368 6.388-9.536 7.146-17.18 3.916-6.015-2.57-11.528-6.2-16.282-10.72L52.634 190.3a21.96 21.96 0 0 1-2.427-2.619 3.3 3.3 0 0 1-.795-1.23c-.17-.466-.234-.963-.188-1.457s.203-.97.457-1.395a3.29 3.29 0 0 1 1.011-1.057c1.854-1.796 4.24-2.93 6.794-3.23 16.055-2.182 32.312 2.148 45.205 12.04 6.503 4.895 11.186 11.356 9.512 20.435a3.16 3.16 0 0 0 .184 2.018c.28.633.762 1.154 1.37 1.482a46.95 46.95 0 0 1 8.517 7.44c.6-1.96.6-4.06 0-6.02a198.71 198.71 0 0 0-17.81-55.407 12.21 12.21 0 0 0-4.562-5.237c-9.366-5.922-19.145-11.1-28.802-16.495-1.456-.807-2.427-1.346-4.174 0-6.042 4.895-13.006 5.042-20.164 3.182-4.2-1.117-8.24-2.84-11.963-5.115-10.924-6.793-21.236-14.54-30.816-23.15-6.188-5.556-5.096-10 2.8-12.947a36.88 36.88 0 0 1 13.321-2.447c12.885.14 25.545 3.415 36.907 9.545 7.474 3.94 12.35 10.034 12.666 18.795a10.29 10.29 0 0 0 1.74 6.058 10.15 10.15 0 0 0 4.933 3.878c6.406 3.035 12.52 6.73 18.757 10.132.5.636 1.14 1.174 1.844.49s.12-.954-.388-1.37zM56.055 84.15c.437.612.97 1.2 1.65.465.17-.17-.267-.906-.412-1.395a242.35 242.35 0 0 1-12.885-51.858c2.693.416 2.887 2.3 3.373 3.622 1.844 5.025 3.56 10.1 5.144 15.222 3.47 11.184 6.43 22.564 11.574 33.136.625 2.044 1.82 3.862 3.446 5.237 3.907-7.71 6.673-15.49 5.75-23.788C70.93 40.124 58.87 20.74 39.53 5.764c-.898-.88-1.962-1.566-3.13-2.02a9.22 9.22 0 0 0-3.664-.622c-1.577 15.76-3.252 31.423.946 46.866C37.298 63.642 43.39 76.22 56.055 84.15zm98.977 29.196a9.94 9.94 0 0 0-1.335 1.615c-6.423 13.207-11.89 26.866-16.354 40.87-2.185 6.836-3.074 14.026-2.62 21.194.412 5.482 1.116 10.915 5.63 15.37 3.398-7.856 4.32-16.324 9.05-23.225-.437 9.79-3.712 18.697-5.75 27.972 5.023 1.077 8.6-1.223 11.648-4.576 4.917-5.513 8.064-12.398 9.026-19.75 3.01-18.795-.606-36.71-6.31-54.55a8.85 8.85 0 0 0-2.984-4.919zm-42.61 9.642a4.77 4.77 0 0 0 1.48 0c.54-.234 1.054-.53 1.528-.88 3.7-2.535 6.77-5.87 9.016-9.762a30.37 30.37 0 0 0 3.966-12.728c2.195-19.445.005-39.138-6.406-57.61a19.61 19.61 0 0 0-5.387-9.3c-6.818 27.067-16.233 52.935-9.317 80.76 1.26-3.89 1.722-7.953 2.863-11.82s1.068-8.125 6.163-10.744l-3.906 32.084zm-70.005-1.64c.648-.358 1.38-.526 2.118-.487s1.45.283 2.056.707c5.455 2.406 10.644 5.383 15.48 8.884.946.734 1.966 1.492 3.203.832s.534-2.13.46-3.133c-.388-7.073-4.392-11.698-10.337-14.83a83.08 83.08 0 0 0-38.557-9.789c-4.428-.41-8.877.508-12.788 2.643.494 1.625 1.532 3.026 2.936 3.965a289.21 289.21 0 0 0 25.454 19.823 67.17 67.17 0 0 0 15.141 7.978 22.72 22.72 0 0 0 9.46 1.582c3.23-.152 6.39-.99 9.273-2.463-7.79-5.898-16.646-9.373-23.9-15.71zm67.942 90.794c-.388-4.133-1.812-8.098-4.138-11.523s-5.478-6.197-9.16-8.055a62.96 62.96 0 0 0-23.367-7.88c-6.68-.954-13.453-1.077-20.164-.367-.083.487-.037.988.134 1.452s.46.875.837 1.19c8.888 9.01 18.524 17.24 28.802 24.595 4.366 3.454 9.292 6.12 14.56 7.88 3.712 1.053 7.28 1.395 10.628-2.447-3.907-4.283-9.197-7.17-13.176-12.8 6.017 1.1 9.56 5.212 15.117 7.953h-.073z" fill="#3a3c51"/></svg>