<svg xmlns="http://www.w3.org/2000/svg" width="242" height="232" fill="#fff" fill-rule="evenodd" xmlns:v="https://vecta.io/nano"><path d="M83.113 191.122c.556-.133 1.02-.35 1.247.277-.528.297-.938.146-1.247-.277zm62.474-2.493c.522.14.457.367.912 1.028l1.744 2.133.2.225c.4.474-.274-.32.126.152l.127.15c.23.268.325.343.502.607-.92.767-2.597-2.1-3.16-2.936-.285-.42-.735-.816-.443-1.358zm-57.486-1.8l-.077.298.077-.298zm.138-.277l-.138.277.138-.277zm53.33-3.74c1.05.702 2.233 2.644 2.93 3.868.2.352.215.244.118.702-.595-.16-1.307-1.594-1.62-2.12l-.735-1.204c-.27-.406-.57-.712-.694-1.245zm0 0l-.138-.138.138.138zm-.277-.415l.14.277-.14-.277zm-.415-.693l.138.277-.138-.277zm-.14-.277l.14.277-.14-.277zm-52.5 5.124c.055-.665 1.5-4.495 1.854-5.486l.937-2.665c.2-.505.738-2.25 1.088-2.652-.074.874-2.92 10.1-3.88 10.803zm3.88-10.803l.076-.297-.076.297zm.138-.692l.04.042c-.003-.003-.055-.028-.04-.042zm-29.1-19.805l.138.277-.138-.277zm-.14-.277l.14.277-.14-.277zm61.505-3.185c.094.1.07.06.17.246l3.06 6.9c2.645 5.26 5.184 11.48 7.803 16.712 1.966 3.925 3.567 6.287 5.734 9.918.222.372.465.7.713 1.087.5.782.932 1.437 1.358 2.243-1.165.616-1.36.494-2.055-.577-.726-1.118-2.6-5.544-3.44-7.225l-2.4-4.663c-.203-.406-.406-.752-.62-1.18-.25-.5-.413-.765-.612-1.188l-2.276-4.788c-2.05-4.425-3.58-7.512-5.476-12.252-.364-.914-1.9-4.53-1.96-5.244zm0 0l-.16-.27.16.27zm-.277-.554c0-.354.22-.022.082 0-.001 0-.082.387-.082 0zm-.14-.415l.04.04c-.002-.002-.055-.026-.04-.04zm-1.108-19.4c0-.355.22-.023.083 0-.002 0-.083.386-.083 0zm17.73 49.996c-.422-.3-1.707-2.7-2.072-3.33l-7.07-14.675c-.607-1.202-1.13-2.4-1.755-3.646-2.268-4.532-4.642-10.372-6.555-15.2-.928-2.335-2.905-7.436-3.633-9.94-.198-.675-.44-1.374-.68-2.1l-2.562-8.24c-.545-1.648-.33-1.308.63-2.87.277-.45.135-.528.704-.68.07.845 2.193 6.657 2.612 7.777l2.74 7.785c1.5 4.406 3.66 11.784 5.236 15.68.518 1.282.916 2.432 1.425 3.7l.75 1.883c.242.663.485 1.196.756 1.875l1.502 3.762.793 1.837c2.024 5.03 4.348 9.312 6.4 14.503l.77 1.86zm-37.54-36.7l2.198-7.08c.196-.607.327-1.195.512-1.844l.525-1.83a100.41 100.41 0 0 0 .997-3.711c.737-2.972 2.04-8.167 3-11 .225-.676.858-2.968 1.367-3.342l1.47 3.8c1.23 3.657 1.196 2.518-1.286 7.473-.6 1.22-1.08 2.355-1.662 3.602l-3.418 7.1c-.33.66-.62 1.122-.925 1.706l-2.768 5.126zm15.653-25.622c0-.283.427-.483.693-.554l3.462 12.603c-.242-.278-.187-.215-.335-.634-.104-.294-.146-.46-.237-.732l-3.583-10.683zm-6.096-5.955l.533-.44c.814.242 1.768 1.855 2.148 2.606l1.475 3.234-.987 1.507c-.22.3-.113.32-.537.432-.016-.77-1.186-5.764-1.992-6.733-.363-.435-.34-.2-.64-.607zm83.53-3.462l-4.616 9.65-.694 1.383-5.912 12.37c-1.44 2.92-3.032 6.92-4.477 9.928-.447.93-.837 1.837-1.24 2.776-2.366 5.493-6.707 14.388-9.288 19.52l-2.583 5.588c-1.76 3.915-3.257 7.335-5.174 11.17-.487.973-.907 1.67-1.386 2.63-.267.54-.425.848-.726 1.352-1.553 2.593-1.654 3.396-3.876 6.373-1.272 1.704-2.076 2.67-3.53 1.605-.207-.15-.977-.802-1.103-.974 2.438-3.64 3.017-6.448 5.172-10.756l5.4-10.664c1.255-2.33 3.148-5.446 4.247-7.664l9.93-18.048 4.385-7.665c.25-.47.426-.748.692-1.247l7.112-12.833c.27-.502.43-.875.7-1.387l5.543-10.524c.32-.643.983-2.256 1.43-2.585zm0 0c.053-.643-.148-.242.277-.554-.1.382-.067.312-.277.554zm.415-.83l-.138.277.138-.277zm.14-.277l-.14.277.14-.277zm.138-.277l-.138.277.138-.277zm.14-.277l-.14.277.14-.277zm.138-.277l-.138.277.138-.277zm.14-.277l-.14.277.14-.277zm.138-.277l-.138.277.138-.277zm.14-.277l-.14.277.14-.277zm.14-.277l-.14.277.14-.277zm.138-.415c.014-.014.042.02.042.04-.003-.003-.055-.028-.042-.04zm.14-.277l.04.04c-.002-.003-.055-.028-.04-.04zm.138-.277l.042.04c-.003-.003-.055-.028-.042-.04zm.14-.277c.014-.014.04.02.04.04-.002-.003-.055-.028-.04-.04zm.138-.277l.042.04c-.003-.003-.055-.028-.042-.04zm.277-.554c.014-.014.042.02.042.04-.003-.003-.055-.028-.042-.04zm-46.68-4.433l-.83-.138 4.016-2.908.56 1.106c-.505.267-.407.248-.816.576-.623.5-2.095 1.364-2.928 1.364zm7.202-5.262c-.518.773-1.435 1.554-2.216 2.077-.14-.524-.27-.35-.416-.97.823-1.227 1.78-1.108 2.632-1.108zm47.8-6.924l.04.04c-.003-.002-.055-.027-.04-.04zm.416-.554l-.14.277.14-.277zm.138-.277l-.138.277.138-.277zm-144.62 67.86c-.5-.366-5.824-9.864-6.093-10.387l-8.617-14.514c-.9-1.4-1.645-2.697-2.5-4.14-.438-.73-.834-1.337-1.245-2.078l-3.603-6.23c-.8-1.46-1.486-2.9-2.338-4.3l-13.4-26.34c.505.37 3.24 4.8 3.96 5.872a49.45 49.45 0 0 1 1.296 2.028l2.457 4.193c1.12 1.862 3.948 6.438 4.893 8.264.392.757.736 1.38 1.187 2.137.444.747.753 1.403 1.193 2.13l4.187 7.447a12.35 12.35 0 0 1 .588 1.074c.378.768.732 1.32 1.1 2.077 1.36 2.73 3.227 5.752 4.663 8.633.2.418.333.7.553 1.1l1.73 3.257c1.75 2.874 6.48 12.46 7.877 15.255l2.124 4.523zm144.758-68.138l-.14.277.14-.277zm.138-.277l-.138.277.138-.277zm.14-.277l-.14.277.14-.277zm.138-.277l-.138.277.138-.277zm.14-.277l-.14.277.14-.277zm-148.636.138l-.277-.138.277.138zm148.774-.415l-.138.277.138-.277zm-149.05.277l-.14-.14.14.14zm149.2-.554l-.14.277.14-.277zM84.776 98.747c-.974-.227-2.4-1.607-3.358-2.46-.714-.63-.853-1-1.905-1.695.3-.412 1.22-.98 1.7-1.486.34-.357.416-.545.757-.904 1.57-1.648 3.454-4.625 4.685-6.673.5-.833 3.42-5.893 3.8-6.172l-1.072 5.16c-.57 2.892-2.63 12.5-4.608 14.23zM210 79.22c-.28 1.2-15 30.444-17.9 35.712l-5.15 9.67c-2.665 4.76-5.248 9.9-8.156 14.697l-7.703 13.765c-.7 1.15-1.243 2.3-1.94 3.462l-5.75 10.317c-1.4 2.538-3.476 6.1-4.758 8.677-.332.665-.575 1.192-.925 1.846-.33.615-.628 1.114-.923 1.707-.305.614-.58 1.212-.926 1.845l-1.752 3.65c-.673 1.514-2.65 6.587-3.555 7.25-.672-.45-1.572-1.553-2.08-2.215-2.4-3.15-2.247-2.06.096-6l2.075-3.326c.648-1.197 1.275-2.118 1.893-3.37.33-.665.622-1.1.926-1.707 1.968-4 4.713-8.306 6.647-12.05.28-.546.66-1.144.963-1.67l4.935-8.5c1.108-1.874 2.762-4.952 3.938-6.727l28.258-46.673c.354-.534.634-1.074.997-1.635.374-.578.647-1.007 1-1.642l5.903-10.163c.673-1.164 1.225-2.3 1.9-3.5.342-.6 1.613-3.146 1.984-3.418zm.138-.277l-.138.277.138-.277zm.14-.277l-.14.277.14-.277zm.138-.277l-.138.277.138-.277zm.14-.277l-.14.277.14-.277zm.138-.415c.015-.015.042.022.042.04l-.042-.04zm.14-.277l.042.04c-.003-.002-.055-.027-.042-.04zm-28.12-4.293l-.138.138.138-.138zm.14-.14l-.14.14.14-.14zm.138-.138l-.138.138.138-.138zm.556-.416l-.14.14.14-.14zm.138-.138l-.138.138.138-.138zm.14-.14l-.14.14.14-.14zm.138-.138l-.138.138.138-.138zm0 0c.207-.3.02-.183.416-.277-.208.298-.02.18-.416.277zm.554-.416l-.138.14.138-.14zm.14-.138l-.14.138.14-.138zm.138-.14l-.138.14.138-.14zm0 0c.242-.363.07-.286.554-.415-.243.362-.07.286-.554.415zm.693-.554l-.14.14.14-.14zm.138-.138l-.138.138.138-.138zm0 0c.242-.363.07-.286.554-.416-.243.363-.07.286-.554.416zm.693-.554l-.14.138.14-.138zm.138-.14l-.138.14.138-.14zm0 0c.236-.353.237-.433.693-.554-.237.354-.238.433-.693.554zm-92.118-.83l-.077.298.077-.298zm-78-.692l.16.27-.16-.27zm170.8.97c.245-.364.352-.433.7-.695.346-.27.4-.435.833-.55-.244.365-.352.433-.7.695-.347.27-.4.436-.834.55zm-50.007-1.938c.285.2.872 1.24 1.136 1.633l2.216 3.463c3.187 4.72 6.405 11.134 9.64 15.982.48.72 4.115 6.5 4.184 7.312-.4.105-.682.405-1 .654-.75.57-2.3 1.78-3.147 1.98-.7-.507-2.252-4.192-2.817-5.354-.353-.725-.463-1.235-.73-2.04-1.02-3.08-1.406-4.227-2.605-7.1-.164-.392-.274-.553-.438-.947-.546-1.314-1.078-2.453-1.674-3.727-1.247-2.668-2.68-6.852-4.017-9.835-.2-.467-.7-1.55-.74-2.03zm0 0l-.16-.27.16.27zM59.287 85.6c-.597-.14-1.37-.797-1.912-1.135L43.83 75.837c-4.564-2.808-8.943-5.6-13.138-8.885-.48-.376-1.465-1.03-1.742-1.443l21.195 13.43 7.36 5.244c.4.308 1.546 1.084 1.78 1.405zM28.95 65.5l-.277-.14.277.14zm-.277-.14l-.14-.138.14.138zm4.432-2.215l.04.04c-.003-.002-.055-.027-.04-.04zm-.415-.278l.04.042c-.003-.002-.056-.027-.04-.042zm-.693-.415l.04.042c-.003-.003-.055-.028-.04-.042zm-5.125 0c1.68.4 8.015 4.235 9.93 5.306 3.077 1.72 14.116 8.458 15.774 9.7 1.962 1.483 3.938 2.756 5.988 4.123l3.075 2.05c3.415 2.277 5.528 3.657 8.624 6.752 1.122 1.122 3.978 4.467 5.644 4.605-.402.6-.953.73-1.8.408-.4-.16-1.25-.7-1.635-1-1.004-.755-1.914-1.454-2.844-2.28s-1.858-1.507-2.77-2.355c-.457-.425-.954-.773-1.445-1.186l-4.317-3.44c-1-.757-1.9-1.475-2.93-2.197-.495-.348-.893-.673-1.44-1.05-.34-.236-.38-.293-.72-.528-.327-.226-.507-.322-.83-.556L38.14 69.478c-1.208-.654-11.053-6.723-11.267-7.017zm4.848-.138l.04.04c-.003-.002-.055-.027-.04-.04zm-4.848.138l-.298-.076.298.076zm4.433-.415l.04.04c-.002-.002-.055-.027-.04-.04zm-.278-.14l.042.04c-.002-.003-.055-.028-.042-.04zm-.415-.277l.04.04c-.003-.003-.055-.028-.04-.04zm-.277-.138l.04.04c-.003-.002-.055-.027-.04-.04zm-.416-.277l.04.04c-.002-.002-.055-.027-.04-.04zm-.277-.14l.04.04c-.002-.003-.055-.028-.04-.04zm-.277-.138l-.277-.14.277.14zm7.48 34.208c-.022-.025-.052-.1-.06-.078s-.048-.063-.06-.08l-4.498-8.244-2.213-4.297L21.287 65c-.587-1.1-1.932-3.4-2.032-4.616.93.216 3.196 1.924 4 2.5.87.637.843.857 1.3 1.875 1.925 4.188 3.126 7.2 4.883 11.6L34 88.02c.418 1.05 2.8 6.532 2.85 7.124zm-20.5-26.73l-.12-.157c-1.28-1.946-2.8-6.293-2.8-8.43.02.028.044.04.05.087 0 .004 2.784 7.603 2.858 8.5zm12.33-7.895l-.277-.138.277.138zm-.277-.138l-.277-.14.277.14zm-.277-.14c-.395-.094-.2.02-.416-.277.395.094.2-.02.416.277zm-.416-.277l-.277-.138.277.138zm62.06 117.028c-.054.643-2.324 5.34-2.77 6.233-.716 1.428-2.32 4.772-3.463 5.54-3.172-2.756-4.322-5.543-6.4-8.976-.213-.35-.338-.652-.533-1-.216-.374-.367-.607-.594-1.068L69.677 165.5c-1.958-3.914-3.872-8.434-5.956-12.603l-2.078-4.155-4.154-8.3-8-15.14c-.234-.42-.4-.638-.6-1.062-.354-.716-.7-1.238-1.06-1.986l-5.528-9.985c-1.637-2.76-4.02-7.24-5.656-9.717-.446-.675-.8-1.32-1.198-1.988l-13.2-20.876c-2.08-3.5-2.826-7.5-4.13-11.382-.25-.74-.457-1.516-.726-2.32L15.1 58.86c2.8 0 2.126 1.047 2.927 3.17.245.646.658 1.367.998 2.048l3.72 6.945c.154.32.3.613.5 1.034l1.98 4.116c1.032 2.043 1.78 3.93 3.04 6.1l13.866 25.745c2.37 3.96 3.195 5.306 5.44 9.795l2.078 4.016c.873 1.745 2.115 4.4 3.113 6.03.396.65.7 1.27 1.093 1.954 1.48 2.645 2.998 5.05 4.555 7.634l2.32 3.775c1.154 1.952 3.462 5.168 4.832 7.357l10.304 17.12c1.345 2.206 4.723 7.258 6.256 8.98.934 1.047 1.818 2.3 3.126 2.968 1.915.96 3.195.244 4.53-.65zM20.365 58.58c2.654.618 3.22 1.167 4.155 1.385-.618.844-1.383.434-2.172-.044-.56-.338-1.685-.896-1.983-1.34zm-5.68-1.523l.042.04c-.003-.003-.056-.028-.042-.04zM79.8 92.1c.047-.56.087-.406.462-1.2 1.973-4.18 3.9-8.325 5.692-12.6l3.9-9.385 6.004-13.94-4.24 19.028c-.146.518-.315.687-.564 1.098l-5.6 9.347c-1.507 2.504-2.305 3.705-4.05 5.924L79.8 92.1zm-78-39.195c0-1.144 2.5-.504 3.205-.296 1.63.483 3.118 1.037 4.597 1.774 2.698 1.347 2.677.645 3.28 3.23-.835 1.246-1.55 1.38-.8 4.815.362 1.652.935 3.228 1.63 4.603 1.377 2.725 5.712 10.636 6.392 12.444 1.112 2.95 2.486 5.88 3.907 8.698 1.403 2.783 3.674 7.764 5.223 10.428 1.148 1.976 2.152 4.192 3.17 6.25.213.43.236.573.504 1.02l4.954 9.3c.375.758.702 1.323 1.108 2.08.37.7.755 1.232 1.1 1.936 2.415 4.797 7.683 12.8 10.612 17.642l9.168 16.06c.793 1.314 1.526 2.686 2.374 3.997l4.728 7.738c.798 1.342 1.596 2.52 2.353 3.88 1.9 3.415 3.566 6.98 5.313 10.476l5.3 10.48c-1.05-.703-1.654-1.557-2.414-2.572-3.156-4.212-5.594-8.934-8.296-13.45l-3.67-6.303-2.514-4.274c-2.066-3.586-3.9-7.233-5.92-10.84l-4.85-8.584c-1.773-3.188-3.774-6.257-5.806-9.3l-2.02-3.103-2.66-4c-1.988-2.968-6.284-9.553-7.797-12.286-1.574-2.845-3.4-5.595-5.058-8.377L20.408 91.5c-1.194-2.216-2.24-4.437-3.503-6.608-.416-.715-.698-1.456-1.14-2.183-1.02-1.672-6.03-11.86-7.065-13.988l-.85-1.642-.556-1.107c-.204-.427-.314-.773-.504-1.158-1-2.026-5-10.512-5-11.91zm103.062-1.66c0 1.387-2 9.107-2.465 10.968l-2.92 10.652c-1.85 6.34-3.695 10.8-5.75 16.688l-4.573 11.215c-1.23 2.06-1.708 1.352-3.155.22-.325-.254-.42-.306-.53-.717 2.5-.584 4.22-9.8 4.768-12.267.338-1.524 2.655-12.984 3.17-14.003l10.05-19.867c.226-.56.4-.877.668-1.4.295-.6.38-1.068.737-1.478zm83.806 16.896c.304-.453.703-.703 1.152-1.064l17.845-14.43c.502-.4.93-.872 1.366-.988-.4.584-6.536 5.466-7.45 6.263-.85.742-1.727 1.367-2.62 2.1-.446.36-.767.64-1.23.987l-8.3 6.65c-.388.3-.3.368-.755.492zm20.363-16.48c.237-.353.238-.433.693-.554-.236.353-.238.433-.693.554zm-104.17-.415l.075-.298-.075.298zm104.862-.14c.243-.363.07-.286.554-.415-.243.362-.07.286-.554.415zm.692-.554l-.138.14.138-.14zm.14-.138l-.14.138.14-.138zm0 0c.208-.3.02-.183.415-.277-.206.298-.02.182-.415.277zm.554-.416l-.14.14.14-.14zm.138-.138l-.138.138.138-.138zm.554-.416l-.138.14.138-.14zm.14-.138l-.14.138.14-.138zm-84.5-1.524l.042.04c-.004-.002-.055-.027-.042-.04zm-.14-.277c.015-.013.042.023.042.04l-.042-.04zM27.15 66.063c1.876 1.255 3.8 3 5.93 4.457 5.873 3.977 10.26 6.442 16.068 10.112l8.005 5.014c2.13 1.428 4.42 2.578 6.596 3.932 1.816 1.13 3.546 2.465 5.128 3.874 2.178 1.94 6.642 6.25 8.833 2.1a7.81 7.81 0 0 1 1.004.797l2.9 2.63c1.204 1.205 4.252 4.826 6.066 4.885 2.03.067 2.963-2.35 3.688-3.788 1.294-2.567 2.193-5.207 3.147-7.933.65-1.86 1.214-3.616 1.927-5.415a137.79 137.79 0 0 0 3.729-11.09l2.464-8.478.782-2.958 1.108-4.292c1.206-4.494 2.1-9.14 3.062-13.697.56-2.627.727-3.267 1.756-5.723l2.85-6.3c.22-.447.353-.856.598-1.34.445-.883.76-1.704 1.2-2.54.426.312 9.43 15.597 11.055 18.032s4.533 6.447 5.66 8.88c.223.48.315.777.553 1.248l6.1 13.854c.643 1.8 1.424 3.525 2.1 5.23l6.097 15.65c.672 1.9 1.12 5.23 2.6 6.53.693.606.493.018 1.533 1.098 2.365 2.458 5.56-.343 6.957-1.277 1.418.95 2.03 2.824 5.292.86 2.963-1.785 7.63-6.707 10.256-9.136.396-.366.635-.486 1.042-.897 2.267-2.293 4.854-4.286 7.133-6.58l6.12-5.655c1.153-.9 2.058-1.958 3.2-2.904l.077-.062.15-.126c2.7-2.275 5.173-4.815 7.962-6.997a23.49 23.49 0 0 0 1.132-.946l17.256-14.047c1.448-1.165 2.723-2.467 4.17-3.586 1.008-.78 3.287-3.157 4.235-3.66-.115.495-.332.7-.58 1.08l-7.308 11.4c-.405.68-.87 1.287-1.338 1.987l-8.637 13.385-.672 1.128-9.225 14.46-1.385 2.077-16.057 24.803-7.392 12.967c-3.28 5.86-5.94 12.132-9.047 18.1l-1.154 2.17c-.23.462-.37.63-.603 1.06l-5.403 9.97c-1.986 3.7-3.768 7.5-5.63 11.265-.4.827-.8 1.456-1.202 2.262-.382.77-.75 1.357-1.153 2.17-.417.837-.823 1.494-1.202 2.262-.538 1.095-1.248 2.17-1.992 3.133-.4.516-.518.46-1.055.745-.4-.58-.664-1.073-1.05-1.72-2.483-4.17-4.2-9.494-6.157-13.925-.578-1.318-1.054-2.655-1.6-4.08-1.622-4.23-2.767-8.824-4.197-13.115l-2.84-8.656-1.42-4.26c-1.247-3.708-1.973-7.583-3.084-11.32-.617-2.08-1.38-7.7-3.08-8.42-1.107-.468-1.468.208-2.2.403-.3-1.326-3.173-8.104-5.922-5.644-.253.226-.714.906-.867 1.212-1.06 2.14-1.46-.728-3.5 7.173-1.595 6.207-3.195 14.507-5.113 20.5-1.002 3.136-4.772 16.128-6.3 19.176l-2.724 5.862c-1.3 2.946-2.223 6.064-3.925 8.818-1.55 2.512-3.423 2.424-5.208.547-.246-.26-.222-.26-.437-.534s-.314-.347-.515-.593c-2.26-2.774-4.163-5.836-6.103-8.857a78.95 78.95 0 0 1-1.643-2.65l-6.4-10.645c-2.72-4.348-5.703-8.576-8.407-12.93-.648-1.045.085-.525-.24-1.543-.148-.466-.645-.986-.878-1.35-1.1-1.727-2.07-3.567-3.2-5.257l-1.7-2.603-1.592-2.703c-1.453-2.903-2.585-5.717-4.243-8.5-1.177-1.977-1.996-3.3-3.05-5.398l-1.432-2.863c-3.878-7.755-4.657-10.06-7.883-17.74-.86-2.048-1.603-3.992-2.415-6.034l-1.186-3.106c-.407-1.068-.737-2.147-1.17-3.125-1.34-3.03-2.45-6.126-3.68-9.202-.266-.666-1.12-2.555-1.167-3.126zm197.673-20.36l-.14.14.14-.14zm-16.207 39.47l1.443-3.127c1.248-2.587 2.734-5.338 3.878-7.895.267-.598.507-1.046.773-1.58l1.524-3.047 9.947-18.17c2.8-4.64 4.005-6.9 7.205-11.633l1.965-2.744c-.203.868-2.634 4.865-3.233 6.048L214.4 74.466c-.762 1.358-5.27 10.338-5.774 10.708zm26.735-48.196c.094-.394-.02-.208.277-.415-.095.395.02.2-.277.415zm.277-.415l.076-.298-.076.298zM110.126 34.9l-.077.298.077-.298zm35.6 150.543c-.456-.305-.957-1.098-1.108-1.662 2.648-1.772 4.6-6.812 6.188-9.74.233-.435.397-.798.6-1.202l5.3-10.757c.242-.45.425-.7.648-1.152 1.843-3.736 4.236-7.943 6.23-11.775l16.063-30.475 5.453-8.95c.895-1.5 1.85-2.852 2.734-4.33.432-.723.933-1.418 1.434-2.166.288-.43.42-.655.695-1.106.27-.445.47-.644.747-1.054l7.783-11.746c.25-.377.488-.655.738-1.062l1.4-2.203c.255-.42.458-.667.714-1.086.274-.45.408-.676.696-1.105l22.54-34.8c.915-1.548 1.844-2.873 2.77-4.432.57-.966 3.272-4.337.65-4.337-.623 0-1.296.945-1.662 1.385-1.862 2.233-4.3 4.338-6.477 6.266L208.06 57.9c-.386.3-.727.603-1.14.94l-13.15 10.813c-.668.533-1.36 1.27-2.024 1.855L180.25 81.896c-.418.42-.597.617-1.085.994-.414.32-.633.587-1 .947-.42.423-.7.557-1.113.965-.343.34-.6.657-.968.97-.42.37-.62.476-1.037.902-1.2 1.228-3.663 3.234-5.195 4.78l-.942.858c-1.564 1.307-8.43 8.947-10.32 6.73-.157-.183-.412-.498-.547-.7.602-.404 1.083-1.064 1.637-1.548l.604-.504c2.127-1.856 6.373-6.383 8.734-8.717.427-.423.74-.588 1.18-1.034l3.483-3.443c.022-.02.05-.048.072-.067l3.16-2.934c.43-.426.74-.583 1.182-1.035l2.355-2.077c.197-.186.277-.3.5-.48 3.787-3.185 7.73-6.22 11.563-9.352l12.2-9.695 4.9-3.827c2.082-1.548 4.025-3.255 6.043-4.898 2.84-2.312 5.386-4.85 8.265-7.1 1.205-.945 8.8-7.03 10.2-7.4l-1.247 2.492c-1.638 3.3-3.57 6.355-5.447 9.512l-19.164 33.2c-3 5.642-6.13 11.267-9.44 16.737-.25.415-.384.72-.66 1.14a26.96 26.96 0 0 0-.74 1.197l-11.4 18.646c-.5.833-.864 1.533-1.4 2.34-1.637 2.474-4.043 6.805-5.578 9.38l-25.672 43.442c-.24.464-.437.827-.686 1.254l-2.663 4.817c-.92 1.52-3.945 5.698-4.27 7.088zm90.872-153.45c-.128.545-.153.562-.554.83.015-.742.067-.574.554-.83zM110.126 34.9c0-.8 1.04-4.7 1.227-5.835.1-.54.26-1.694.435-2.06.428.287.93 1.2 1.246 1.662l-2.908 6.232zm5.402-7.617c0-.57 2.104-4.53 2.583-5.588.192-.423.13-.538.465-.782.04.472.294 1.18.432 1.646 1.207 4.098 1.918 7.7 3.394 12.117a131.09 131.09 0 0 0 2.31 6.416l1.286 3.148 1.305 3.126c-.353-.26-5.02-8.92-5.758-10.17l-2.94-4.954c-.438-.7-3.075-4.446-3.075-4.96zM94.334 69.1c0-1 .438-2.378.634-3.38.483-2.463 1.607-7.636 2.258-9.93.307-1.086.496-2.082.8-3.216.867-3.237 1.616-6.703 2.574-9.754.3-.922.74-1.955 1.093-2.924 1.76-4.858 3.825-10.113 5.296-15.064l2.03-6.142c.403.295 3.408 6.274 3.463 6.5-.035-.01-1.88-1.064-2.323.724l-.527 3.35c-.416 2.226-.925 4.388-1.416 6.478-.515 2.193-.85 4.302-1.356 6.538-.435 1.925-4.194 9.98-5.276 12.314L94.334 69.1zm25.212-50.412c0-.335.57-1.135.692-1.662h.277c.257 1.102 4.255 8.364 4.822 9.305l1.33 2.134 2.688 4.375 1.33 2.27 4.836 9.3c1.55 3.097 3.082 6.745 4.525 9.603 3.886 7.695 11.013 24.945 13.35 32.494.533 1.722 1.523 4.94 2.43 6.433.273.45.462.64.704 1.098l-.83.554c-1.52-2.87-4.766-7.823-6.677-10.776-1.97-3.04-4.307-7.516-6.54-10.912l-6.096-9.556c-1.234-1.882-2.27-3.68-3.088-5.777-5.5-14.12-7.968-15.797-12.314-33.252-.27-1.082-1.44-5.037-1.44-5.623zm-4.988-14.68c0 5.346 3.116 13.264 3.142 14.144.01.366-.75 1.995-.97 2.43l-2.172 4.892c-.6-.44-2.23-4.045-2.724-5.032l-1.3-2.6c-.748-1.442-1.117-.62-.36-2.57l4.156-10.94c.167-.328.05-.143.218-.335zM77.434 92.792l-5.562-3.995c-.674-.5-1.263-.857-1.974-1.35l-4.413-3.483C63.087 81.83 54.32 75.157 51.67 73.402l-3.88-2.63c-3.144-2.233-6.782-4.133-9.795-6.273-1.917-1.36-4.004-2.457-5.97-3.727-1.32-.853-2.594-1.58-3.965-2.406l-2-1.196-6.306-3.528c-1.475-.738-3.256-1.707-5.22-1.707-1.27 0-2.216.933-2.216 2.216-2.695-1.43-6.783-3.45-9.825-3.45-3.468 0-2.606 2.977-1.618 4.94 1.383 2.745 2.475 5.602 3.833 8.356l.602 1.198 5.864 11.588c.756 1.512 1.532 3.305 2.375 4.7l4.874 9.114c1.9 3.8 4.1 7.55 6.227 11.225l3.878 6.648c1.727 2.884 3.415 5.9 5.272 8.717l6.123 9.53c3.36 5.007 10.26 15.278 12.8 20.43l2.512 4.552c1.768 2.923 3.177 6.15 4.883 9.107l10.355 17.622c.9 1.472 1.658 2.905 2.546 4.38.904 1.5 1.797 2.858 2.77 4.293.248.366.434.594.706.957 3.462 4.607 3.586 2.963 5.108 3.756.352.183 2.62 3.103 4.355.104.26-.45.232-.648.6-.912.322-.224.56-.28.953-.572 2.35-1.755 3.4-5.12 4.328-7.86 1.017-3.03 1.863-6.424 2.873-9.453 1.6-4.766 3.078-9.297 4.342-14.22.897-3.496 1.825-5.58 3.34-8.846 1.3-2.78 2.8-5.43 4.157-8.17l2.077-4.017c.36-.72.628-1.35 1.036-2 .78-1.27 1.378-2.826 2.057-4.175.37-.73.6-1.346.97-2.077.423-.836 1.816-3.52 1.984-4.247h.277c.015.617.418 1.663.603 2.306 1.074 3.73 2.267 7.508 3.22 11.322l4.887 15.472c1.77 4.88 3.898 9.514 6.206 14.155l4.8 9.742c.993 1.985 1.998 3.77 2.9 5.815.944 2.116 2.104 6.972 4.802 6.972.822 0 1.3-.496 1.8-.83.334.245.616.785.887 1.2 1.233 1.853 1.985 3.38 3.684 3.38.892 0 1.104-.4 1.8-.554 1.155.773 1.896 1.8 3.602 1.8 2.268 0 4.72-4.462 5.68-6.232.242-.445.462-.776.694-1.245.237-.478.433-.9.718-1.36.525-.86.915-1.77 1.36-2.658.87-1.74 1.903-3.56 2.672-5.36.417-.977.793-1.808 1.253-2.764 1.304-2.714 2.287-5.58 3.648-8.263l5.17-10.895c.45-.896.825-1.788 1.293-2.724 1.793-3.584 3.448-7.222 5-10.927 1.562-3.73 3.307-7.383 5.02-11.048l10.436-21.697 7.295-14.6 10.342-19.852c1.437-2.567 2.695-5.317 4.224-7.827l3.516-6.317c.286-.472.432-.864.724-1.353l2.943-5.1c2.297-4.318 4.947-8.452 7.394-12.7l5.785-10.282c.66-1.1 2.66-4.182 2.66-5.374 0-.4-.578-.83-.97-.83-.653 0-2.038 1.508-2.686 1.885-.986.574-.878-.232-4.335 2.6-1.708 1.393-3.66 2.546-5.425 3.855l-20.048 14.995-16.74 13.455a26.14 26.14 0 0 0-1.291 1.064l-7.635 6.354c-1.496 1.208-2.874 2.603-4.394 3.78-.313.243-.377.35-.646.6l-4.282 3.753c-1.302 1.04-2.337 2.37-3.62 3.44-1.47 1.227-2.776 2.685-4.222 3.95l-7.8 6.34c-1.673-2.497-2.272-4.725-3.274-7.668l-3.02-8.06c-.963-2.403-2.148-5.643-3.173-7.906-1.534-3.386-2.748-6.975-4.384-10.298l-2.403-5.075c-2.088-4.123-3.888-8.328-5.957-12.465l-1.834-3.567c-2.582-5.347-6.25-10.066-8.878-15.36l-1.202-2.4c-.638-1.265-1.587-4.145-2.657-4.824-.884-.56-2.03-.182-2.282.76h-.277c-.027-1.2-.73-2.63-1.028-3.82-.358-1.427-.66-2.52-.95-4.036-.38-1.985-.482-4.65-.66-6.678-.086-.975-.42-1.392-1.38-1.392-.77 0-2.095 4.797-2.413 5.62l-3.746 10.38c-.66 1.088-.73-.243-2.204 3.9l-5.1 15.27-2.672 9.516c-.65 2.243-2.634 6.646-3.507 8.682l-7.3 17.075c-1.58 3.775-3.117 7.664-4.835 11.37l-2.632 5.54-1.34 2.678-.998 2.05-.387.72zM70.24 226.854c2.154.5 1.788.986 5.593.986.977 0 1.685-.147 2.468-.33-1.1 1.656-6.905.92-8.06-.656zm-3.454-2.14l.2.32-.2-.32zm0 0c-.76-.874-1.152-3.23-1.152-4.276h.165c0 .95.297 1.382.495 2.136.156.594.44 1.52.492 2.14zm9.376.987c-2.03 0-4.276.004-5.876-1.36-1.584-1.353-2.184-2.16-2.184-4.23 0-2.13.962-5.634 2-6.87 1.128-1.33 8.407-1.345 12.1 4.43 1.006 1.57.127 5.1-.53 5.998-.7.943-3.834 2.036-5.532 2.036zm1.974-15.8c4.792 0 9.706 3.3 9.706 7.566 0 1.496-.003 2.76-.85 4.084-.392.6-1.244 1.804-1.782 2.166.405-1.74.987-.72.987-4.112 0-1.438-1.25-3.408-2.112-4.467l-3.276-3.467c-1.15-1.006-1.743-.963-2.672-1.77zm-6.416 21.874c6.4 0 6.817-1.105 10.787-3.525 4.326-2.638 8.106-6.07 7.266-11.728-.752-5.067-6.164-8.43-11.308-8.43-3.25 0-2.36.167-4.603.332-1.14.084-1.302.37-2.438.522-5.717.775-8.454 2.8-9.2 8.728-.107.84-.203 2.157-.06 2.594.417 1.274.58-.365.674 2.297.088 2.504 1.904 6.313 4.24 7.767 1.154.718 2.835 1.443 4.642 1.443zm90.474-4.932c-.72 0-1.512.068-2.138-.33 2.492-.58 4.74-2.375 6.456-4.07 1.903-1.88 2.6-4.195 2.6-7.936.9.602 2.303 2.297 2.303 3.947 0 4.932-5.17 8.388-9.212 8.388zm6.744-14.967l-.164-.164.164.164zm-.164-.164l-.33-.165.33.165zm-.33-.165l-.165-.164.165.164zm-.165-.164c-.47-.113-.247.025-.493-.33.48.115.237-.022.493.33zm-8.554-.658c1.797 0 6.1.956 6.8 2.237 1.295 2.306.357 5.86-1.4 7.94-1.176 1.392-2.764 2.33-4.42 3.147-1 .5-2.634.985-4.116.985-.742 0-1.93-1.874-2.27-2.5-2.475-4.516.053-10.988 1.613-10.988 3.84 0 2.325 2.138 4.277 2.138.4 0 .823-.38.823-.986 0-.944-.87-1.306-1.317-1.974zm-11.843 9.045c0 1.936.7 3.192 1.572 4.35 1.112 1.48 1.538 1.308 3.075 2.846 2.987 2.992 5.235 3.495 9.664 3.495 3.37 0 7.474-2.4 9.088-4.236 1.85-2.094 3.414-6.905 3.414-10.072a8.24 8.24 0 0 0-1.181-4.083c-2.816-4.338-7.72-5.977-13.018-5.33-.93.113-.77-.14-1.55-.084-2.433.178-4.2 1.07-5.92 2.637-.544.492-3.127 4.296-3.635 5.08-.815 1.26-1.5 3.366-1.5 5.397zm-22.86-6.74c2.515.67 3.587 6.35 1.48 7.894.922-3.96-.1-5.283-1.48-7.894zm0 0l-.165-.165.165.165zm2.302-.987l-.164-.165.164.165zm-10.393-1.148c3.764-.004 7.762 3.5 7.762 6.904 0 2.285-.054 3.002-1.5 4.752-.445.538-.428.424-.925.883-5.033 4.64-11.558 2.185-11.558-4.483 0-1.65.364-3.86.926-4.995.784-1.586 1.586-2.325 3.35-2.736 0 3.318 2.226 1.994 2.14 1.316l-.195-1.64zm-5.727-.168c-.223.333-2.2 1.85-2.933 2.988-1.234 1.9-1.055 2.157-1.548 3.716-.12.38-.04.247-.3.532 0-2.86.678-4.715 2.677-6.204.542-.406 1.3-.966 2.094-1.032zm15.956 1.15c-1.97-1.042-1.36-1.067-4.665-2.57l-.658-.33a.63.63 0 0 1-.105-.06c2.014 0 5.054 1.558 5.428 2.96zm-5.428-2.96l-.354-.1.354.1zM106.6 220.604l1.06 3.708c.727 2.208 2.475 4.145 4.55 5 4.7 1.914 10.2.494 13.593-2.983.702-.716.855-.763 1.68-1.283.547-.345 1.22-.902 1.74-1.384 2.23-2.06 2.196-4.557 1.372-7.14-.346-1.08-.18-1.206-.326-2.47-.14-1.223-1.123-3.174-1.83-3.927-2.9-3.1-7.603-4.07-11.583-2.776-2.036.66-.7.47-3.198.75-2.845.317-5.367 1.155-6.95 3.083-2.4 2.932-1.892 5.1-1.924 7.8-.03 2.7 1.354 1.747 1.815 1.64z"/></svg>