<svg width="242" height="232" viewBox="0 0 242 232" fill="none" xmlns="http://www.w3.org/2000/svg">
<path fill-rule="evenodd" clip-rule="evenodd" d="M83.1134 191.122C83.6695 190.989 84.1332 190.773 84.3605 191.399C83.8324 191.696 83.4226 191.545 83.1134 191.122ZM145.587 188.629C146.109 188.769 146.044 188.996 146.499 189.657L148.243 191.79C148.343 191.903 148.323 191.885 148.434 192.015C148.833 192.489 148.16 191.696 148.56 192.167C148.586 192.198 148.661 192.286 148.687 192.316C148.918 192.584 149.012 192.659 149.189 192.923C148.27 193.69 146.592 190.813 146.03 189.987C145.745 189.568 145.295 189.171 145.587 188.629ZM88.1007 186.829L88.0239 187.127L88.1007 186.829ZM88.2387 186.552L88.1007 186.829L88.2387 186.552ZM141.57 182.813C142.619 183.515 143.803 185.457 144.5 186.681C144.701 187.033 144.715 186.925 144.618 187.383C144.023 187.224 143.311 185.789 142.999 185.262C142.735 184.816 142.524 184.448 142.264 184.058C141.993 183.652 141.694 183.346 141.57 182.813ZM141.57 182.813L141.432 182.675L141.57 182.813ZM141.293 182.398L141.432 182.675L141.293 182.398ZM140.878 181.705L141.016 181.982L140.878 181.705ZM140.739 181.428L140.878 181.705L140.739 181.428ZM88.2387 186.552C88.2937 185.887 89.7493 182.057 90.0927 181.066C90.4206 180.12 90.6862 179.317 91.0296 178.401C91.2184 177.896 91.7673 176.152 92.1179 175.749C92.0443 176.623 89.1984 185.85 88.2387 186.552ZM92.1179 175.749L92.1937 175.452L92.1179 175.749ZM92.2559 175.057L92.2974 175.099C92.2943 175.096 92.2425 175.071 92.2559 175.057ZM63.1662 155.252L63.3042 155.529L63.1662 155.252ZM63.0272 154.975L63.1662 155.252L63.0272 154.975ZM124.532 151.79C124.626 151.899 124.601 151.85 124.702 152.036L127.763 158.947C130.408 164.206 132.947 170.428 135.566 175.659C137.532 179.584 139.133 181.946 141.3 185.577C141.522 185.949 141.765 186.267 142.013 186.664C142.503 187.446 142.945 188.101 143.371 188.907C142.206 189.523 142.01 189.401 141.316 188.33C140.59 187.212 138.717 182.786 137.876 181.105C137.063 179.478 136.271 178.042 135.476 176.442C135.273 176.036 135.07 175.69 134.855 175.262C134.604 174.761 134.442 174.497 134.243 174.074L131.967 169.286C129.916 164.861 128.386 161.774 126.491 157.034C126.127 156.12 124.591 152.504 124.532 151.79ZM124.532 151.79L124.373 151.52L124.532 151.79ZM124.255 151.236C124.255 150.882 124.474 151.214 124.337 151.236C124.336 151.236 124.255 151.623 124.255 151.236ZM124.116 150.821L124.157 150.861C124.155 150.859 124.102 150.835 124.116 150.821ZM123.008 131.432C123.008 131.077 123.228 131.409 123.091 131.432C123.089 131.432 123.008 131.818 123.008 131.432ZM140.739 181.428C140.317 181.118 139.032 178.727 138.667 178.098L131.597 163.423C130.99 162.221 130.466 161.024 129.842 159.777C127.574 155.245 125.2 149.405 123.287 144.587C122.359 142.252 120.382 137.151 119.654 134.647C119.456 133.972 119.213 133.273 118.973 132.558L116.411 124.317C115.866 122.669 116.08 123.009 117.04 121.448C117.317 120.997 117.175 120.92 117.744 120.767C117.815 121.612 119.937 127.424 120.356 128.544L123.096 136.329C124.596 140.735 126.757 148.113 128.332 152.008C128.85 153.29 129.248 154.44 129.757 155.707L130.506 157.59C130.748 158.253 130.991 158.786 131.262 159.465C131.796 160.803 132.207 161.905 132.764 163.227C133.043 163.892 133.296 164.414 133.557 165.064C135.581 170.093 137.905 174.376 139.968 179.567L140.739 181.428ZM103.2 144.727L105.398 137.647C105.594 137.04 105.725 136.452 105.91 135.803C106.108 135.112 106.237 134.652 106.435 133.973C106.801 132.709 107.113 131.54 107.432 130.262C108.169 127.29 109.473 122.095 110.421 119.262C110.646 118.586 111.279 116.294 111.788 115.92L113.259 119.711C114.49 123.368 114.455 122.229 111.973 127.184C111.362 128.404 110.894 129.539 110.311 130.786L106.893 137.895C106.563 138.556 106.272 139.017 105.968 139.601L103.2 144.727ZM118.853 119.105C118.853 118.822 119.28 118.622 119.546 118.551L123.008 131.154C122.766 130.876 122.821 130.939 122.673 130.52C122.569 130.226 122.527 130.06 122.436 129.788L118.853 119.105ZM112.757 113.15L113.29 112.711C114.104 112.953 115.058 114.566 115.438 115.317L116.913 118.551L115.926 120.058C115.707 120.369 115.813 120.377 115.389 120.49C115.373 119.721 114.203 114.726 113.397 113.757C113.034 113.322 113.056 113.558 112.757 113.15ZM196.287 109.688L191.671 119.338C191.414 119.851 191.236 120.205 190.977 120.721L185.065 133.091C183.625 136.011 182.033 140.011 180.588 143.019C180.141 143.948 179.751 144.856 179.348 145.795C176.982 151.288 172.641 160.183 170.06 165.316L167.477 170.904C165.718 174.819 164.22 178.239 162.303 182.074C161.816 183.047 161.396 183.744 160.917 184.705C160.65 185.244 160.492 185.553 160.191 186.057C158.638 188.65 158.537 189.453 156.315 192.43C155.043 194.134 154.239 195.099 152.786 194.035C152.579 193.885 151.809 193.233 151.683 193.061C154.121 189.422 154.7 186.613 156.855 182.305C158.66 178.695 160.358 175.165 162.256 171.641C163.511 169.31 165.404 166.195 166.503 163.977L176.434 145.929C177.895 143.297 179.407 140.909 180.819 138.264C181.07 137.793 181.245 137.516 181.511 137.017L188.623 124.184C188.894 123.682 189.053 123.309 189.313 122.797C191.075 119.326 192.983 116.018 194.856 112.273C195.177 111.63 195.839 110.017 196.287 109.688ZM196.287 109.688C196.34 109.045 196.139 109.446 196.564 109.134C196.475 109.516 196.497 109.446 196.287 109.688ZM196.702 108.857L196.564 109.134L196.702 108.857ZM196.841 108.58L196.702 108.857L196.841 108.58ZM196.979 108.303L196.841 108.58L196.979 108.303ZM197.118 108.026L196.979 108.303L197.118 108.026ZM197.256 107.749L197.118 108.026L197.256 107.749ZM197.395 107.472L197.256 107.749L197.395 107.472ZM197.533 107.195L197.395 107.472L197.533 107.195ZM197.672 106.918L197.533 107.195L197.672 106.918ZM197.811 106.641L197.672 106.918L197.811 106.641ZM197.949 106.226C197.963 106.212 197.991 106.247 197.991 106.267C197.988 106.264 197.936 106.239 197.949 106.226ZM198.088 105.949L198.129 105.99C198.127 105.987 198.074 105.962 198.088 105.949ZM198.226 105.672L198.268 105.713C198.265 105.71 198.213 105.685 198.226 105.672ZM198.365 105.395C198.379 105.381 198.406 105.416 198.406 105.436C198.404 105.433 198.351 105.408 198.365 105.395ZM198.503 105.118L198.545 105.159C198.542 105.156 198.49 105.131 198.503 105.118ZM198.78 104.564C198.794 104.55 198.822 104.585 198.822 104.605C198.819 104.602 198.767 104.577 198.78 104.564ZM152.099 100.131L151.268 99.9933L155.284 97.0852L155.843 98.1912C155.338 98.4578 155.436 98.4391 155.027 98.767C154.404 99.2681 152.932 100.131 152.099 100.131ZM159.301 94.8691C158.783 95.642 157.866 96.4232 157.085 96.9461C156.945 96.4222 156.814 96.5976 156.669 95.9771C157.492 94.7497 158.448 94.8691 159.301 94.8691ZM207.092 87.9447L207.133 87.9851C207.13 87.9831 207.078 87.9582 207.092 87.9447ZM207.508 87.3907L207.369 87.6677L207.508 87.3907ZM207.646 87.1137L207.508 87.3907L207.646 87.1137ZM63.0272 154.975C62.5271 154.609 57.2036 145.111 56.9339 144.588L48.3173 130.074C47.4188 128.685 46.6719 127.377 45.8066 125.935C45.3687 125.204 44.9724 124.598 44.5616 123.857L40.9583 117.626C40.1469 116.165 39.4725 114.715 38.6207 113.316L25.2109 86.9746C25.7162 87.345 28.4511 91.7731 29.1721 92.847C29.6359 93.539 30.0644 94.205 30.468 94.8753C31.3104 96.2728 32.0647 97.6361 32.9248 99.0679C34.0443 100.93 36.8726 105.506 37.8177 107.332C38.2099 108.089 38.5533 108.711 39.0046 109.469C39.4487 110.216 39.7579 110.872 40.1978 111.6L44.3852 119.047C44.6352 119.464 44.7504 119.669 44.9734 120.121C45.3511 120.889 45.7049 121.44 46.0825 122.198C47.4427 124.928 49.3092 127.95 50.7451 130.831C50.9536 131.249 51.0781 131.531 51.2981 131.94L53.0266 135.197C54.7769 138.071 59.5058 147.657 60.9034 150.452L63.0272 154.975ZM207.785 86.8367L207.646 87.1137L207.785 86.8367ZM207.923 86.5596L207.785 86.8367L207.923 86.5596ZM208.062 86.2826L207.923 86.5596L208.062 86.2826ZM208.2 86.0056L208.062 86.2826L208.2 86.0056ZM208.339 85.7286L208.2 86.0056L208.339 85.7286ZM59.703 85.8666L59.426 85.7286L59.703 85.8666ZM208.477 85.4515L208.339 85.7286L208.477 85.4515ZM59.426 85.7286L59.2869 85.5895L59.426 85.7286ZM208.616 85.1745L208.477 85.4515L208.616 85.1745ZM84.7755 98.7473C83.8012 98.5201 82.3861 97.1402 81.4171 96.2874C80.7033 95.6586 80.5642 95.2966 79.5122 94.5921C79.813 94.1802 80.7333 93.6106 81.2127 93.1063C81.5519 92.7494 81.6287 92.5616 81.97 92.2027C83.5408 90.5551 85.4239 87.5774 86.6554 85.5294C87.1566 84.6962 90.0741 79.6363 90.4548 79.3572L89.3831 84.5178C88.8124 87.4093 86.753 97.0281 84.7755 98.7473ZM210.001 79.2192C209.721 80.4206 194.991 109.663 192.112 114.931L186.962 124.601C184.297 129.36 181.714 134.492 178.806 139.298L171.103 153.063C170.403 154.212 169.86 155.372 169.163 156.525L163.413 166.842C162.004 169.38 159.937 172.951 158.655 175.519C158.323 176.184 158.08 176.711 157.73 177.365C157.401 177.98 157.102 178.479 156.807 179.072C156.502 179.686 156.227 180.284 155.881 180.917L154.129 184.566C153.456 186.08 151.478 191.153 150.574 191.815C149.902 191.365 149.002 190.262 148.495 189.6C146.084 186.45 146.248 187.54 148.591 183.599L150.666 180.273C151.314 179.076 151.941 178.155 152.559 176.903C152.888 176.238 153.181 175.812 153.485 175.196C155.453 171.205 158.198 166.89 160.132 163.146C160.413 162.6 160.793 162.002 161.095 161.477L166.03 152.978C167.138 151.104 168.792 148.026 169.968 146.251L198.226 99.5783C198.58 99.044 198.86 98.5045 199.223 97.9432C199.597 97.3653 199.87 96.9358 200.213 96.3008L206.116 86.1374C206.789 84.9733 207.341 83.8465 208.017 82.6368C208.359 82.0267 209.63 79.491 210.001 79.2192ZM210.139 78.9422L210.001 79.2192L210.139 78.9422ZM210.278 78.6652L210.139 78.9422L210.278 78.6652ZM210.416 78.3882L210.278 78.6652L210.416 78.3882ZM210.555 78.1112L210.416 78.3882L210.555 78.1112ZM210.693 77.6962C210.708 77.6816 210.735 77.7179 210.735 77.7366L210.693 77.6962ZM210.832 77.4191L210.874 77.4596C210.871 77.4575 210.819 77.4326 210.832 77.4191ZM182.711 73.1259L182.573 73.2639L182.711 73.1259ZM182.85 72.9869L182.711 73.1259L182.85 72.9869ZM182.988 72.8489L182.85 72.9869L182.988 72.8489ZM183.544 72.4329L183.404 72.5719L183.544 72.4329ZM183.682 72.2949L183.544 72.4329L183.682 72.2949ZM183.821 72.1559L183.682 72.2949L183.821 72.1559ZM183.959 72.0179L183.821 72.1559L183.959 72.0179ZM183.959 72.0179C184.166 71.7191 183.979 71.8353 184.375 71.7409C184.167 72.0387 184.354 71.9224 183.959 72.0179ZM184.513 71.6018L184.375 71.7409L184.513 71.6018ZM184.652 71.4638L184.513 71.6018L184.652 71.4638ZM184.79 71.3248L184.652 71.4638L184.79 71.3248ZM184.79 71.3248C185.032 70.9616 184.86 71.0384 185.344 70.9098C185.101 71.2719 185.274 71.1961 184.79 71.3248ZM185.483 70.7708L185.344 70.9098L185.483 70.7708ZM185.621 70.6328L185.483 70.7708L185.621 70.6328ZM185.621 70.6328C185.863 70.2696 185.691 70.3464 186.175 70.2167C185.932 70.5799 186.105 70.5031 185.621 70.6328ZM186.314 70.0787L186.175 70.2167L186.314 70.0787ZM186.452 69.9397L186.314 70.0787L186.452 69.9397ZM186.452 69.9397C186.688 69.587 186.689 69.5071 187.145 69.3857C186.908 69.7395 186.907 69.8183 186.452 69.9397ZM94.3341 69.1087L94.2573 69.4065L94.3341 69.1087ZM16.3453 68.4167L16.5041 68.6864L16.3453 68.4167ZM187.145 69.3857C187.39 69.0216 187.497 68.9531 187.835 68.6906C188.181 68.4208 188.234 68.2558 188.668 68.1396C188.424 68.5048 188.316 68.5723 187.979 68.8347C187.632 69.1045 187.579 69.2706 187.145 69.3857ZM137.138 67.4476C137.423 67.6561 138.01 68.6874 138.274 69.0807L140.49 72.5438C143.677 77.2625 146.895 83.6774 150.131 88.5257C150.611 89.2457 154.246 95.0154 154.315 95.8381C153.925 95.9429 153.633 96.2427 153.305 96.4917C152.554 97.0613 151.014 98.2711 150.158 98.4703C149.467 97.963 147.906 94.2787 147.341 93.1167C146.988 92.3914 146.878 91.882 146.611 91.0759C145.592 87.9966 145.205 86.8491 144.006 83.9856C143.842 83.5934 143.732 83.4326 143.568 83.0383C143.022 81.7248 142.49 80.5857 141.894 79.3116C140.647 76.6441 139.215 72.4599 137.877 69.477C137.668 69.0101 137.177 67.9259 137.138 67.4476ZM137.138 67.4476L136.978 67.1769L137.138 67.4476ZM59.2869 85.5895C58.6904 85.4505 57.9164 84.7927 57.3748 84.4545L43.8311 75.8369C39.2671 73.0294 34.8878 70.2261 30.6931 66.9517C30.2127 66.5761 29.2281 65.9215 28.9511 65.5085L50.1454 78.9412L57.5066 84.1848C57.9174 84.4929 59.0524 85.269 59.2869 85.5895ZM28.9511 65.5085L28.6741 65.3695L28.9511 65.5085ZM28.6741 65.3695L28.5351 65.2315L28.6741 65.3695ZM33.1064 63.1544L33.1479 63.1949C33.1448 63.1928 33.0929 63.1679 33.1064 63.1544ZM32.6914 62.8764L32.7329 62.9179C32.7297 62.9158 32.6768 62.8909 32.6914 62.8764ZM31.9983 62.4613L32.0398 62.5029C32.0367 62.4998 31.9848 62.4748 31.9983 62.4613ZM26.873 62.4613C28.5538 62.8525 34.8878 66.6964 36.8041 67.7671C39.8813 69.4863 50.9205 76.225 52.5784 77.4783C54.5403 78.9609 56.5168 80.2339 58.5669 81.6013C59.621 82.3037 60.6129 82.9646 61.6421 83.6504C65.0576 85.9277 67.17 87.3076 70.2659 90.4025C71.3875 91.5241 74.2437 94.8691 75.91 95.0071C75.5084 95.6068 74.9565 95.7385 74.1203 95.4148C73.7104 95.2561 72.87 94.7052 72.4851 94.4157C71.4808 93.6604 70.5709 92.9621 69.6413 92.1352C68.7076 91.3041 67.7831 90.6277 66.8711 89.78C66.4136 89.3546 65.9166 89.0071 65.4259 88.5942L61.1088 85.1548C60.0983 84.3974 59.2081 83.6795 58.1799 82.9574C57.685 82.6098 57.2866 82.284 56.7388 81.9064C56.3974 81.6709 56.3591 81.6138 56.0198 81.3783C55.693 81.1521 55.5125 81.0566 55.1898 80.8222L38.1404 69.478C36.9327 68.8244 27.0878 62.755 26.873 62.4613ZM31.7213 62.3233L31.7628 62.3638C31.7597 62.3617 31.7078 62.3368 31.7213 62.3233ZM26.873 62.4613L26.5752 62.3856L26.873 62.4613ZM31.3063 62.0463L31.3468 62.0868C31.3447 62.0847 31.2918 62.0598 31.3063 62.0463ZM31.0282 61.9073L31.0697 61.9488C31.0677 61.9457 31.0147 61.9208 31.0282 61.9073ZM30.6132 61.6303L30.6547 61.6718C30.6516 61.6686 30.5997 61.6438 30.6132 61.6303ZM30.3362 61.4923L30.3777 61.5327C30.3746 61.5307 30.3227 61.5058 30.3362 61.4923ZM29.9202 61.2153L29.9617 61.2557C29.9596 61.2537 29.9067 61.2288 29.9202 61.2153ZM29.6432 61.0763L29.6847 61.1177C29.6826 61.1146 29.6297 61.0898 29.6432 61.0763ZM29.3661 60.9383L29.0891 60.7992L29.3661 60.9383ZM36.8466 95.1461C36.8248 95.1212 36.7947 95.0475 36.7864 95.0683C36.7781 95.089 36.7387 95.005 36.7273 94.9883L32.2297 86.7443C31.4764 85.2347 30.8124 83.9036 30.0166 82.4469L21.287 65.0001C20.6998 63.9107 19.3552 61.6002 19.2545 60.3842C20.1841 60.6 22.4501 62.3078 23.2531 62.895C24.1236 63.532 24.0956 63.752 24.5635 64.7698C26.4881 68.9582 27.6895 71.9805 29.446 76.3702L33.9976 88.0225C34.4157 89.0735 36.7978 94.5547 36.8466 95.1461ZM16.3453 68.4167L16.225 68.26C14.9447 66.3136 13.4362 61.9675 13.4362 59.8302C13.4559 59.8582 13.4798 59.8696 13.487 59.9173C13.487 59.9215 16.2706 67.5203 16.3453 68.4167ZM28.6741 60.5222L28.3971 60.3842L28.6741 60.5222ZM28.3971 60.3842L28.1201 60.2452L28.3971 60.3842ZM28.1201 60.2452C27.7248 60.1508 27.9116 60.2659 27.7041 59.9682C28.0994 60.0626 27.9126 59.9474 28.1201 60.2452ZM27.7041 59.9682L27.427 59.8302L27.7041 59.9682ZM89.7628 176.996C89.7089 177.639 87.4388 182.335 86.9926 183.229C86.2768 184.657 84.6738 188.001 83.5294 188.768C80.3578 186.012 79.2071 183.225 77.1301 179.792C76.9174 179.441 76.7919 179.14 76.5968 178.803C76.381 178.429 76.2295 178.196 76.0023 177.735L69.6766 165.501C67.7188 161.587 65.8046 157.067 63.7202 152.898C63.0272 151.513 62.3352 150.128 61.6421 148.743C60.257 145.974 58.8636 143.206 57.4879 140.432L49.497 125.293C49.2625 124.874 49.1068 124.655 48.8973 124.231C48.5435 123.515 48.2063 122.993 47.8359 122.245L42.3081 112.26C40.6709 109.501 38.2888 105.02 36.6526 102.543C36.2065 101.868 35.8537 101.223 35.4543 100.555L22.2581 79.6779C20.1769 76.168 19.432 72.1787 18.1278 68.2963C17.8788 67.5576 17.6703 66.7805 17.4015 65.9764L15.0983 58.8601C17.8892 58.8601 17.2242 59.907 18.0251 62.0287C18.27 62.6751 18.6829 63.3962 19.0232 64.0768L22.7437 71.0218C22.8973 71.3403 23.0529 71.635 23.2324 72.0562L25.2109 76.1721C26.2432 78.215 26.9913 80.1032 28.2519 82.2727L42.1182 108.018C44.4879 111.979 45.3137 113.324 47.5589 117.813C48.2748 119.243 48.9274 120.411 49.6371 121.829C50.5096 123.574 51.7525 126.218 52.7496 127.858C53.1459 128.508 53.4603 129.129 53.8421 129.812C55.3216 132.457 56.8405 134.861 58.3967 137.446L60.7166 141.221C61.8704 143.173 64.1788 146.389 65.5483 148.578L75.8519 165.698C77.1965 167.904 80.5746 172.956 82.108 174.678C83.0418 175.725 83.9258 176.989 85.2341 177.646C87.1493 178.607 88.4286 177.89 89.7628 176.996ZM20.3626 58.5831C23.0166 59.2015 23.583 59.7503 24.5178 59.9682C23.8995 60.8127 23.1348 60.4019 22.3453 59.9246C21.784 59.5864 20.6604 59.0282 20.3626 58.5831ZM14.6833 57.0601L14.7248 57.1015C14.7217 57.0984 14.6688 57.0736 14.6833 57.0601ZM79.7892 92.0989C79.8359 91.5387 79.8764 91.6932 80.2509 90.8995C82.2242 86.7204 84.1498 82.5746 85.9427 78.3083L89.8541 68.923C90.4019 67.6915 95.4722 55.426 95.8582 54.983L91.6179 74.011C91.4716 74.5287 91.3025 74.6978 91.0535 75.1087L85.4426 84.4556C83.9351 86.9591 83.1373 88.1605 81.3932 90.3797L79.7892 92.0989ZM1.80047 52.9048C1.80047 51.7604 4.30089 52.4006 5.00536 52.6091C6.63529 53.0926 8.12309 53.6456 9.60258 54.3832C12.3001 55.7299 12.2793 55.0286 12.8821 57.6141C12.0469 58.8602 11.3311 58.9951 12.0833 62.4292C12.4454 64.0809 13.0181 65.6568 13.7121 67.0326C15.0889 69.7581 19.4237 77.6682 20.1043 79.4765C21.2165 82.4272 22.5901 85.3551 24.0115 88.174C25.4142 90.9566 27.6854 95.9377 29.2344 98.602C30.3829 100.578 31.3862 102.794 32.404 104.851C32.6167 105.282 32.6405 105.424 32.9082 105.87L37.8623 115.181C38.2369 115.939 38.5647 116.504 38.9704 117.26C39.3408 117.95 39.7257 118.492 40.0805 119.196C42.4958 123.993 47.7633 131.985 50.6922 136.838L59.8493 152.89C60.6419 154.204 61.3755 155.576 62.2231 156.887L66.951 164.625C67.7489 165.967 68.5467 167.144 69.3041 168.505C71.2038 171.92 72.8701 175.486 74.6172 178.981L79.9272 189.46C78.8772 188.757 78.2734 187.903 77.5129 186.888C74.3568 182.676 71.9186 177.954 69.2169 173.439L65.5483 167.136C65.0918 166.373 64.7048 165.718 64.267 164.954C63.88 164.277 63.4287 163.546 63.0344 162.862C60.9687 159.276 59.1344 155.629 57.1154 152.022L52.2651 143.438C50.492 140.25 48.4906 137.181 46.4591 134.147L44.438 131.044C43.5271 129.678 42.7013 128.435 41.7779 127.055C39.79 124.087 35.4937 117.502 33.981 114.769C32.4071 111.924 30.5925 109.174 28.9231 106.392L20.4083 91.4992C19.2141 89.2831 18.1672 87.0618 16.9056 84.8913C16.4896 84.1765 16.2074 83.4357 15.7644 82.7084C14.7455 81.036 9.73434 70.8486 8.69891 68.7207L7.84919 67.0783C7.63858 66.657 7.4964 66.3956 7.29305 65.9713C7.08866 65.5448 6.9787 65.1983 6.78883 64.8134C5.79075 62.7882 1.80047 54.3023 1.80047 52.9048ZM104.862 51.2438C104.862 52.6309 102.861 60.351 102.397 62.2123L99.476 72.8644C97.6271 79.2047 95.7814 83.6754 93.7261 89.5529L89.1527 100.768C87.9222 102.828 87.445 102.12 85.9977 100.987C85.6729 100.733 85.5775 100.681 85.4685 100.27C87.9772 99.6862 89.6881 90.4689 90.2369 88.0028C90.5752 86.4787 92.8919 75.0183 93.4065 73.9995L103.457 54.1322C103.683 53.573 103.857 53.2555 104.125 52.7222C104.42 52.1329 104.504 51.6546 104.862 51.2438ZM188.668 68.1396C188.972 67.6862 189.371 67.4362 189.82 67.0751L207.665 52.6465C208.167 52.246 208.596 51.775 209.031 51.6588C208.64 52.2429 202.495 57.1244 201.582 57.9222C200.733 58.6641 199.855 59.2896 198.963 60.0117C198.517 60.3728 198.196 60.6509 197.732 60.9985L189.423 67.6479C189.035 67.9591 189.132 68.0161 188.668 68.1396ZM209.031 51.6588C209.268 51.306 209.269 51.2261 209.724 51.1047C209.488 51.4575 209.486 51.5374 209.031 51.6588ZM104.862 51.2438L104.937 50.946L104.862 51.2438ZM209.724 51.1047C209.967 50.7416 209.794 50.8184 210.278 50.6897C210.035 51.0518 210.208 50.9761 209.724 51.1047ZM210.416 50.5507L210.278 50.6897L210.416 50.5507ZM210.555 50.4127L210.416 50.5507L210.555 50.4127ZM210.555 50.4127C210.763 50.1139 210.575 50.2301 210.97 50.1357C210.764 50.4335 210.95 50.3173 210.555 50.4127ZM211.109 49.9967L210.97 50.1357L211.109 49.9967ZM211.247 49.8587L211.109 49.9967L211.247 49.8587ZM211.801 49.4426L211.663 49.5817L211.801 49.4426ZM211.94 49.3047L211.801 49.4426L211.94 49.3047ZM127.441 47.7806L127.483 47.8221C127.479 47.82 127.428 47.7951 127.441 47.7806ZM127.302 47.5035C127.317 47.4901 127.344 47.5263 127.344 47.545L127.302 47.5035ZM27.15 66.0625C29.0258 67.3179 30.9401 69.0713 33.0804 70.5197C38.9538 74.4965 43.3394 76.9616 49.1484 80.6313L57.1538 85.6456C59.2838 87.0732 61.5736 88.2238 63.7493 89.5778C65.5649 90.7087 67.2955 92.0429 68.8777 93.4518C71.0554 95.3909 75.5198 99.7008 77.7111 95.5611C78.0358 95.779 78.4135 96.0684 78.7154 96.3579L81.6246 98.9891C82.8281 100.194 85.8763 103.815 87.6909 103.874C89.7223 103.941 90.6541 101.525 91.3793 100.086C92.673 97.5188 93.5725 94.8794 94.526 92.1528C95.1755 90.2926 95.7399 88.5371 96.4527 86.7381C97.6064 83.8237 99.3639 78.604 100.182 75.6481L102.646 67.1706C102.904 66.1891 103.128 65.2356 103.428 64.2127L104.536 59.9205C105.742 55.426 106.625 50.78 107.598 46.2233C108.158 43.5963 108.325 42.9561 109.354 40.5003L112.205 34.2109C112.426 33.7638 112.558 33.355 112.803 32.8695C113.248 31.9865 113.562 31.1658 114.004 30.3306C114.43 30.6429 123.434 45.9276 125.059 48.3626C126.681 50.7935 129.592 54.8097 130.72 57.2437C130.943 57.7241 131.035 58.0208 131.273 58.4918L137.363 72.3457C138.006 74.1551 138.787 75.8702 139.473 77.5769L145.57 93.2256C146.242 95.117 146.689 98.4557 148.179 99.7567C148.872 100.363 148.672 99.7744 149.712 100.855C152.077 103.313 155.273 100.512 156.669 99.5783C158.087 100.527 158.699 102.402 161.961 100.437C164.924 98.6519 169.59 93.7298 172.217 91.301C172.613 90.9348 172.852 90.8155 173.259 90.4036C175.526 88.1107 178.113 86.1177 180.392 83.8248L186.511 78.1693C187.664 77.2781 188.569 76.2115 189.7 75.2653C189.723 75.2466 189.754 75.2217 189.777 75.203L189.928 75.0774C192.628 72.8022 195.101 70.2624 197.89 68.0805C198.276 67.7786 198.663 67.4539 199.022 67.1343L216.278 53.0875C217.726 51.9223 219.001 50.6202 220.449 49.5018C221.457 48.7205 223.736 46.3447 224.684 45.8425C224.569 46.3374 224.352 46.5335 224.104 46.9236L216.796 58.3144C216.391 58.993 215.925 59.6009 215.458 60.3012L206.821 73.6862C206.59 74.0701 206.398 74.4197 206.149 74.8139L196.924 89.2737C196.426 90.0197 196.037 90.6049 195.539 91.3509L179.482 116.154L172.09 129.121C168.81 134.98 166.151 141.253 163.043 147.222L161.889 149.391C161.658 149.853 161.518 150.02 161.286 150.451L155.883 160.422C153.897 164.112 152.115 167.931 150.252 171.687C149.841 172.514 149.451 173.143 149.05 173.949C148.668 174.72 148.301 175.306 147.897 176.119C147.48 176.956 147.074 177.613 146.695 178.381C146.157 179.476 145.447 180.551 144.703 181.514C144.304 182.03 144.185 181.974 143.648 182.259C143.259 181.679 142.984 181.186 142.598 180.538C140.115 176.367 138.388 171.044 136.441 166.613C135.863 165.295 135.387 163.958 134.842 162.533C133.22 158.304 132.075 153.709 130.645 149.418C129.677 146.515 128.778 143.683 127.804 140.762C127.309 139.278 126.884 137.987 126.385 136.503C125.138 132.795 124.412 128.92 123.301 125.183C122.684 123.104 121.922 117.483 120.222 116.763C119.115 116.295 118.754 116.971 118.021 117.166C117.712 115.84 114.848 109.062 112.099 111.522C111.846 111.748 111.385 112.428 111.232 112.734C110.171 114.874 109.772 112.006 107.741 119.907C106.146 126.114 104.546 134.414 102.628 140.416C101.626 143.552 97.8564 156.544 96.3188 159.592L93.5943 165.454C92.2839 168.4 91.371 171.518 89.6695 174.272C88.1184 176.784 86.2467 176.696 84.4611 174.819C84.2152 174.56 84.2391 174.56 84.0243 174.285C83.8085 174.009 83.71 173.938 83.5097 173.692C81.25 170.918 79.3462 167.856 77.4071 164.835C76.825 163.927 76.3167 163.108 75.7637 162.185L69.3726 151.54C66.6512 147.192 63.6694 142.964 60.9656 138.611C60.3172 137.566 61.0507 138.086 60.726 137.068C60.5776 136.602 60.0806 136.082 59.8482 135.718C58.7474 133.991 57.7794 132.151 56.6568 130.461C56.081 129.594 55.5415 128.769 54.9667 127.858L53.3752 125.155C51.9227 122.252 50.7897 119.438 49.1318 116.656C47.9552 114.679 47.1356 113.365 46.0815 111.258C45.5773 110.249 45.1539 109.404 44.6497 108.395C40.7715 100.64 39.9923 98.3344 36.7667 90.6557C35.9066 88.6077 35.1638 86.6634 34.3514 84.6215C33.9447 83.5975 33.5712 82.5829 33.1655 81.5153C32.7588 80.4477 32.4289 79.3687 31.9962 78.3903C30.6558 75.3608 29.5477 72.2648 28.3172 69.1886C28.0516 68.5225 27.1977 66.6332 27.15 66.0625ZM224.823 45.7034L224.684 45.8425L224.823 45.7034ZM208.616 85.1745L210.059 82.0475C211.307 79.461 212.793 76.7095 213.937 74.152C214.204 73.5544 214.444 73.1062 214.71 72.5719C215.219 71.5562 215.726 70.5405 216.234 69.5247L226.181 51.3548C228.972 46.714 230.186 44.446 233.386 39.7222L235.351 36.978C235.148 37.8464 232.717 41.8429 232.118 43.0256L214.39 74.4664C213.628 75.8245 209.121 84.8042 208.616 85.1745ZM235.351 36.978C235.445 36.5837 235.33 36.7705 235.628 36.563C235.533 36.9583 235.648 36.7715 235.351 36.978ZM235.628 36.563L235.704 36.2652L235.628 36.563ZM110.126 34.9009L110.049 35.1986L110.126 34.9009ZM145.726 185.444C145.27 185.139 144.769 184.346 144.618 183.782C147.266 182.01 149.229 176.97 150.806 174.043C151.039 173.608 151.203 173.245 151.406 172.841L156.715 162.084C156.957 161.633 157.14 161.384 157.363 160.932C159.206 157.196 161.599 152.989 163.594 149.157L179.657 118.682L185.11 109.731C186.005 108.22 186.961 106.879 187.844 105.401C188.276 104.678 188.777 103.983 189.278 103.235C189.566 102.804 189.698 102.58 189.973 102.129C190.243 101.684 190.442 101.485 190.72 101.075L198.503 89.3287C198.753 88.9521 198.991 88.674 199.241 88.2663C199.738 87.4581 200.14 86.8834 200.64 86.0637C200.895 85.6446 201.098 85.3965 201.354 84.9774C201.628 84.5281 201.762 84.301 202.05 83.8725L224.591 49.0713C225.506 47.5233 226.435 46.1983 227.36 44.6389C227.931 43.673 230.632 40.3022 228.009 40.3022C227.386 40.3022 226.713 41.2473 226.347 41.6872C224.485 43.9199 222.058 46.0251 219.87 47.9528L208.061 57.8901C207.675 58.191 207.334 58.4929 206.922 58.829L193.773 69.642C193.105 70.1752 192.412 70.9119 191.749 71.497L180.253 81.8846C179.835 82.3058 179.656 82.5019 179.168 82.8785C178.754 83.1981 178.535 83.4658 178.177 83.8258C177.756 84.2491 177.476 84.3829 177.064 84.7906C176.721 85.1309 176.453 85.4474 176.096 85.7618C175.677 86.1311 175.476 86.238 175.059 86.6633C173.859 87.8917 171.396 89.8973 169.864 91.4422L168.922 92.3001C167.358 93.6074 160.493 101.247 158.602 99.0305C158.445 98.8479 158.19 98.5325 158.055 98.3312C158.657 97.9276 159.138 97.2667 159.692 96.7832L160.22 96.3423C160.242 96.3236 160.274 96.2978 160.296 96.278C162.423 94.4219 166.669 89.8952 169.03 87.5608C169.457 87.1375 169.77 86.9726 170.211 86.5265L173.694 83.0839C173.716 83.0642 173.745 83.0362 173.766 83.0165L176.925 80.0824C177.356 79.656 177.664 79.4994 178.107 79.047L180.462 76.9699C180.659 76.7842 180.739 76.669 180.952 76.4905C184.739 73.3054 188.682 70.2697 192.515 67.1385C196.537 63.8527 200.699 60.7349 204.706 57.4439L209.605 53.6166C211.687 52.0686 213.63 50.3619 215.648 48.7185C218.488 46.4069 221.034 43.8691 223.913 41.6084C225.118 40.6632 232.723 34.5772 234.104 34.2089L232.857 36.701C231.219 39.992 229.288 43.0557 227.41 46.2128L208.246 79.4039C205.236 85.0459 202.116 90.6713 198.805 96.1411C198.554 96.5561 198.421 96.8621 198.144 97.2802C197.857 97.7149 197.643 98.0739 197.404 98.4775L185.993 117.123C185.492 117.956 185.129 118.656 184.594 119.464C182.957 121.938 180.551 126.269 179.016 128.843L153.344 172.285C153.103 172.749 152.907 173.112 152.658 173.539L149.995 178.356C149.074 179.877 146.05 184.054 145.726 185.444ZM236.598 31.9927C236.47 32.5374 236.445 32.5551 236.044 32.8238C236.059 32.0819 236.111 32.25 236.598 31.9927ZM110.126 34.9009C110.126 34.0896 111.165 30.2113 111.353 29.0659C111.443 28.5254 111.613 27.3716 111.788 27.0064C112.216 27.2938 112.719 28.1975 113.034 28.6686L110.126 34.9009ZM115.528 27.2835C115.528 26.715 117.632 22.7547 118.111 21.6954C118.303 21.2721 118.241 21.157 118.576 20.9132C118.615 21.3852 118.87 22.0918 119.008 22.5587C120.215 26.6569 120.926 30.2498 122.402 34.6758C123.16 36.9521 123.869 38.9285 124.711 41.0917C125.158 42.2351 125.53 43.1273 125.997 44.2395L127.302 47.3655C126.949 47.1062 122.282 38.445 121.544 37.1969C120.527 35.4788 119.647 33.909 118.603 32.2428C118.165 31.5435 115.528 27.7971 115.528 27.2835ZM94.3341 69.1087C94.3341 68.12 94.7719 66.7307 94.968 65.7274C95.4505 63.2643 96.5751 58.0913 97.2256 55.7963C97.5327 54.7101 97.7215 53.7141 98.0255 52.5801C98.8929 49.343 99.641 45.8767 100.599 42.8264C100.889 41.9041 101.34 40.8718 101.692 39.9028C103.453 35.0451 105.517 29.7901 106.988 24.8391L109.017 18.697C109.42 18.9916 112.425 24.9709 112.48 25.2064C112.445 25.197 110.599 24.1419 110.157 25.9306L109.63 29.2817C109.214 31.5072 108.705 33.6693 108.214 35.7599C107.699 37.9532 107.364 40.0615 106.858 42.2984C106.423 44.2229 102.664 52.2792 101.582 54.6125L94.3341 69.1087ZM119.546 18.697C119.546 18.3619 120.115 17.562 120.238 17.0349H120.515C120.772 18.1368 124.77 25.3993 125.337 26.3403C125.789 27.0905 126.177 27.7317 126.666 28.4745L129.354 32.8497C129.833 33.6413 130.202 34.297 130.685 35.1198L135.521 44.4107C137.07 47.5076 138.603 51.1556 140.046 54.0139C143.932 61.7092 151.059 78.9588 153.397 86.5077C153.93 88.23 154.92 91.4473 155.827 92.9403C156.1 93.3895 156.289 93.5815 156.531 94.038C156.251 94.2258 155.98 94.4043 155.7 94.5921C154.181 91.7223 150.934 86.7692 149.023 83.8165C147.054 80.7755 144.716 76.3007 142.484 72.905L136.388 63.3494C135.154 61.4674 134.119 59.6694 133.3 57.5726C127.79 43.4531 125.332 41.7754 120.986 24.3203C120.717 23.2382 119.546 19.2832 119.546 18.697ZM114.558 4.01732C114.558 9.36362 117.674 17.2818 117.7 18.1616C117.711 18.5279 116.949 20.1568 116.73 20.5916L114.558 25.4834C113.958 25.0435 112.328 21.4381 111.834 20.4514C111.381 19.5467 110.988 18.7177 110.544 17.8628C109.796 16.4207 109.427 17.2435 110.184 15.293L114.34 4.35238C114.507 4.02453 114.391 4.20926 114.558 4.01732ZM77.4341 92.7919L71.872 88.7965C71.1976 88.2954 70.6093 87.9396 69.8976 87.4467L65.485 83.9638C63.0874 81.8286 54.3204 75.1574 51.6695 73.4019C50.3633 72.5377 49.0581 71.6723 47.7892 70.7718C44.6456 68.539 41.007 66.6383 37.9941 64.499C36.0768 63.1378 33.9903 62.0422 32.0253 60.7722C30.7066 59.9194 29.4315 59.1922 28.0599 58.3663C27.3388 57.9326 26.761 57.6037 26.07 57.17L19.764 53.6425C18.2886 52.9048 16.5082 51.9358 14.5442 51.9358C13.2754 51.9358 12.3281 52.8685 12.3281 54.1519C9.62333 52.7212 5.53452 50.6897 2.49253 50.6897C-0.97587 50.6897 -0.113733 53.6664 0.875016 55.6304C2.25802 58.3756 3.35051 61.2329 4.70758 63.9865C4.90989 64.3984 5.08526 64.7366 5.30937 65.1848L11.1734 76.7728C11.9297 78.2845 12.7058 80.0783 13.5482 81.4623L18.4224 90.5758C20.3117 94.3772 22.5331 98.1248 24.6496 101.801L28.5278 108.449C30.2543 111.333 31.9423 114.359 33.7994 117.166L39.9228 126.695C43.2843 131.702 50.1818 141.973 52.732 147.126L55.2438 151.678C57.0117 154.601 58.4206 157.828 60.1263 160.785L70.4817 178.407C71.3708 179.879 72.1396 181.312 73.0277 182.787C73.9314 184.288 74.8247 185.645 75.7979 187.08C76.0459 187.446 76.2316 187.674 76.5034 188.037C79.9656 192.644 80.089 191 81.6111 191.793C81.9628 191.976 84.2318 194.896 85.9665 191.897C86.2269 191.446 86.1989 191.249 86.5776 190.985C86.8993 190.761 87.1379 190.706 87.5301 190.413C89.8801 188.658 90.9404 185.294 91.8586 182.554C92.8753 179.524 93.7219 176.13 94.7314 173.101C96.3199 168.335 97.8097 163.804 99.0734 158.882C99.9709 155.386 100.898 153.303 102.414 150.036C103.703 147.257 105.223 144.607 106.571 141.865L108.648 137.848C109.009 137.128 109.276 136.499 109.684 135.837C110.464 134.566 111.062 133.011 111.741 131.662C112.111 130.931 112.341 130.316 112.712 129.585C113.135 128.749 114.528 126.064 114.696 125.338H114.973C114.988 125.955 115.391 127.001 115.576 127.644C116.65 131.375 117.843 135.152 118.797 138.966L123.684 154.438C125.454 159.318 127.582 163.952 129.89 168.593L134.69 178.335C135.683 180.32 136.688 182.105 137.6 184.15C138.544 186.266 139.704 191.122 142.402 191.122C143.224 191.122 143.703 190.626 144.202 190.291C144.536 190.536 144.818 191.076 145.089 191.482C146.322 193.335 147.074 194.861 148.773 194.861C149.665 194.861 149.877 194.47 150.574 194.307C151.729 195.08 152.47 196.108 154.176 196.108C156.444 196.108 158.896 191.646 159.855 189.876C160.097 189.431 160.317 189.1 160.549 188.631C160.786 188.153 160.982 187.74 161.267 187.271C161.792 186.41 162.182 185.501 162.626 184.613C163.496 182.874 164.529 181.053 165.298 179.252C165.715 178.275 166.091 177.444 166.551 176.488C167.855 173.774 168.838 170.908 170.199 168.225L175.37 157.33C175.82 156.434 176.195 155.542 176.663 154.606C178.456 151.022 180.111 147.384 181.663 143.679C183.225 139.95 184.97 136.296 186.682 132.631L197.118 110.934C199.41 106.351 202.005 100.819 204.413 96.3454L214.755 76.4937C216.192 73.9269 217.45 71.1764 218.979 68.6667L222.495 62.3493C222.781 61.8772 222.927 61.485 223.219 60.9964L226.162 55.9064C228.459 51.5883 231.109 47.4548 233.556 43.2165L239.341 32.9348C240 31.8351 242 28.7526 242 27.5605C242 27.1694 241.422 26.7294 241.03 26.7294C240.377 26.7294 238.992 28.2369 238.344 28.6146C237.358 29.1883 237.466 28.3822 234.009 31.2053C232.301 32.5987 230.348 33.7514 228.584 35.0607L208.536 50.0558C202.893 54.4569 197.424 59.0874 191.796 63.5103C191.334 63.8724 190.931 64.1961 190.505 64.5748L182.87 70.9285C181.374 72.1362 179.996 73.5316 178.476 74.7071C178.163 74.9499 178.099 75.0568 177.83 75.3078L173.548 79.0605C172.246 80.0991 171.211 81.4291 169.927 82.5019C168.458 83.7293 167.151 85.187 165.705 86.4517L157.916 92.7919C156.243 90.2947 155.644 88.0671 154.642 85.1237L151.623 77.0622C150.66 74.6593 149.475 71.4193 148.45 69.1564C146.916 65.77 145.702 62.1812 144.066 58.858L141.663 53.7825C139.575 49.6594 137.775 45.4544 135.706 41.3179L133.872 37.7509C131.29 32.4036 127.621 27.685 124.994 22.3906C124.568 21.5336 124.223 20.8447 123.792 19.9908C123.154 18.7261 122.205 15.846 121.135 15.1664C120.251 14.6062 119.105 14.9848 118.853 15.9268H118.576C118.549 14.7181 117.847 13.2958 117.548 12.1068C117.19 10.6802 116.889 9.58765 116.598 8.07081C116.218 6.08605 116.116 3.41963 115.937 1.39233C115.851 0.417072 115.518 0 114.558 0C113.787 0 112.463 4.79745 112.145 5.62019L108.399 16.0016C107.74 17.0899 107.67 15.7588 106.195 19.8923L101.105 35.1613L98.4333 44.6773C97.7828 46.9204 95.7991 51.3236 94.9265 53.3592L87.6255 70.4346C86.0444 74.2101 84.5088 78.0988 82.7907 81.8048L80.1585 87.344C79.6875 88.2829 79.2694 89.1212 78.8191 90.0218L77.8211 92.0709C77.6789 92.3313 77.5648 92.545 77.4341 92.7919Z" fill="white"/>
<path fill-rule="evenodd" clip-rule="evenodd" d="M70.239 226.854C72.3929 227.355 72.0266 227.84 75.8322 227.84C76.8096 227.84 77.5171 227.693 78.3005 227.51C77.1914 229.166 71.3959 228.431 70.239 226.854ZM66.7851 224.715L66.974 225.036L66.7851 224.715ZM66.7851 224.715C66.0247 223.841 65.6335 221.485 65.6335 220.439H65.7984C65.7984 221.388 66.0952 221.821 66.2933 222.575C66.449 223.169 66.7333 224.094 66.7851 224.715ZM76.1611 225.702C74.1317 225.702 71.8856 225.706 70.2847 224.341C68.7004 222.988 68.1007 222.18 68.1007 220.11C68.1007 217.98 69.0625 214.476 70.1114 213.239C71.2392 211.908 78.5184 211.894 82.2223 217.668C83.2287 219.237 82.3489 222.769 81.6931 223.666C81.0032 224.609 77.8595 225.702 76.1611 225.702ZM78.1355 209.913C82.9278 209.913 87.8414 213.223 87.8414 217.479C87.8414 218.975 87.8383 220.238 86.9917 221.563C86.5995 222.174 85.7478 223.367 85.2093 223.729C85.6139 221.99 86.1959 223.008 86.1959 219.617C86.1959 218.179 84.9468 216.209 84.0836 215.15L80.8071 211.683C79.6565 210.677 79.0641 210.72 78.1355 209.913ZM71.7196 231.787C78.1106 231.787 78.537 230.682 82.5065 228.262C86.833 225.624 90.6126 222.192 89.7723 216.534C89.0201 211.467 83.6084 208.104 78.4644 208.104C75.2149 208.104 76.104 208.271 73.8609 208.436C72.7207 208.52 72.5589 208.805 71.4228 208.958C65.7061 209.733 62.9692 211.767 62.2222 217.686C62.1153 218.527 62.0188 219.843 62.162 220.28C62.5791 221.554 62.743 219.915 62.8364 222.577C62.9246 225.081 64.7402 228.89 67.0777 230.344C68.2314 231.062 69.9122 231.787 71.7196 231.787Z" fill="white"/>
<path fill-rule="evenodd" clip-rule="evenodd" d="M162.194 226.853C161.474 226.853 160.682 226.921 160.056 226.523C162.548 225.943 164.797 224.148 166.512 222.454C168.415 220.575 169.103 218.259 169.103 214.518C170.002 215.12 171.406 216.815 171.406 218.465C171.406 223.397 166.237 226.853 162.194 226.853ZM168.938 211.886L168.774 211.722L168.938 211.886ZM168.774 211.722L168.445 211.557L168.774 211.722ZM168.445 211.557L168.28 211.393L168.445 211.557ZM168.28 211.393C167.811 211.28 168.033 211.418 167.787 211.064C168.268 211.179 168.024 211.042 168.28 211.393ZM159.726 210.735C161.523 210.735 165.815 211.691 166.536 212.972C167.831 215.278 166.893 218.831 165.136 220.912C163.96 222.304 162.372 223.241 160.717 224.059C159.726 224.549 158.083 225.044 156.601 225.044C155.859 225.044 154.672 223.17 154.33 222.545C151.855 218.029 154.383 211.557 155.943 211.557C159.782 211.557 158.268 213.695 160.22 213.695C160.621 213.695 161.043 213.314 161.043 212.709C161.043 211.765 160.174 211.403 159.726 210.735ZM147.883 219.78C147.883 221.716 148.584 222.972 149.455 224.13C150.567 225.61 150.993 225.438 152.53 226.976C155.517 229.968 157.765 230.471 162.194 230.471C165.565 230.471 169.668 228.061 171.282 226.235C173.133 224.141 174.696 219.33 174.696 216.163C174.696 214.658 174.121 213.015 173.515 212.08C170.699 207.742 165.795 206.103 160.497 206.749C159.567 206.862 159.728 206.608 158.948 206.665C156.515 206.843 154.757 207.736 153.028 209.302C152.484 209.794 149.901 213.598 149.393 214.383C148.578 215.644 147.883 217.749 147.883 219.78Z" fill="white"/>
<path fill-rule="evenodd" clip-rule="evenodd" d="M125.023 213.039C127.538 213.71 128.61 219.39 126.504 220.933C127.426 216.973 126.405 215.65 125.023 213.039ZM125.023 213.039L124.858 212.874L125.023 213.039ZM127.325 212.052L127.161 211.887L127.325 212.052ZM116.932 210.904C120.696 210.9 124.694 214.405 124.694 217.808C124.694 220.093 124.64 220.81 123.195 222.56C122.75 223.098 122.767 222.984 122.27 223.443C117.237 228.082 110.712 225.628 110.712 218.96C110.712 217.309 111.076 215.101 111.638 213.965C112.422 212.379 113.224 211.64 114.988 211.229C114.988 214.547 117.214 213.223 117.127 212.545L116.932 210.904ZM111.205 210.736C110.982 211.069 109.006 212.587 108.272 213.724C107.038 215.634 107.217 215.881 106.724 217.44C106.603 217.82 106.683 217.687 106.434 217.972C106.434 215.111 107.112 213.257 109.111 211.768C109.653 211.362 110.411 210.802 111.205 210.736ZM127.161 211.887C125.192 210.845 125.8 210.82 122.496 209.316L121.838 208.986C121.815 208.975 121.765 208.95 121.733 208.927C123.747 208.927 126.787 210.485 127.161 211.887ZM121.733 208.927L121.379 208.837L121.733 208.927ZM106.599 220.604L107.66 224.312C108.387 226.52 110.135 228.457 112.21 229.302C116.91 231.216 122.399 229.796 125.803 226.319C126.505 225.603 126.658 225.556 127.482 225.036C128.029 224.691 128.702 224.134 129.223 223.652C131.453 221.592 131.419 219.095 130.595 216.513C130.249 215.433 130.414 215.307 130.269 214.043C130.128 212.82 129.146 210.869 128.439 210.116C125.538 207.026 120.836 206.045 116.856 207.34C114.82 208.001 116.165 207.809 113.658 208.091C110.813 208.408 108.291 209.246 106.708 211.174C104.298 214.106 104.816 216.265 104.784 218.964C104.754 221.653 106.138 220.711 106.599 220.604Z" fill="white"/>
</svg>
