<svg xmlns="http://www.w3.org/2000/svg" width="468" height="286" fill="none" xmlns:v="https://vecta.io/nano"><g clip-path="url(#A)" fill="#3a3c51"><path d="M188.717 70.4c2.645-22.773 15.137-44.258 12.98-67.654-.267-2.955-4.6-3.9-5.813-1.044-5.28 12.4-8.9 25.673-13.18 38.48-1.223 3.677-2.4 7.343-3.468 11.03a30.94 30.94 0 0 1-3.723-3.333c-4.856-5.343-8.68-11.642-12.947-17.44-6.668-9.1-13.103-17.64-18.67-27.428a1.28 1.28 0 0 0-1.478-.456c-10.513 5.4 4.446 27.317 8.102 33.47 4.3 7.132 14.036 26.66 25.083 31.894-.222 1.733-.422 3.477-.522 5.243-.734 11.864.1 23.995.5 35.87.4 12.076.878 23.873 6.812 34.57 1.112 2.078 4.312.967 4.724-1.1 4.8-23.64-1.156-48.28 1.6-72.097zm31.33-23.75a3.6 3.6 0 0 0-1.956.644C206.6 46.47 197.2 72.276 195.198 79.797c-4.045 15.153-.144 46.435 21.794 45.035 19.46-1.244 24.927-30.77 25.172-45.546.266-16.386-2.28-33.438-22.116-32.627zm12.036 34.038c-.845 7.388-7.157 36.738-18.482 28.528-10.002-7.265-6.48-26.272-3.98-36.18.96-4.277 2.3-8.456 4.035-12.487a56.08 56.08 0 0 1 3.478-6.288c.722 1.366 2.778 1.5 3.968.766 6.168-3.866 10.813 5.166 11.413 9.765a66.83 66.83 0 0 1-.456 15.919l.023-.022zm84.228 23.238c-.412-2.7-3.223-5.244-6.402-3.1-3.712 2.5-8.346 14.264-12.702 11.1s-3.335-15.497-3.335-20.43c-.077-15.452-2.645-31.338-.3-46.658a1.17 1.17 0 0 0-.115-.643 1.18 1.18 0 0 0-1.696-.468c-8.835 5.755-10.002 20.563-10.636 29.994-.4 5.4-.8 11.1-.9 16.82-2.612 3.644-5.034 7.432-7.78 10.932-2.223 2.8-7.046 10.92-10.958 7.7-2.223-1.844-1.512-8.73-1.623-11.386-.4-9.554-.656-19.152-.6-28.728 0-5.954.867-12.62-.878-18.407-.8-2.7-4.523-2.455-5.7-.244-5.713 10.72-7.124 25.384-7.78 37.26-.544 10.83-1.633 25.396 6.824 33.883 6.957 6.976 16.17 4.5 22.938-1.378a37.46 37.46 0 0 0 7.48-9.142c2.522 9.064 9.224 18.252 19.87 16.352 10.413-1.855 14.447-14.23 14.447-23.54l-.144.067zM136.85 75.252c-5.9-1.744-16.17-4-19.382 3.233a3.23 3.23 0 0 0-.254 1.61 3.24 3.24 0 0 0 .563 1.53 3.23 3.23 0 0 0 1.238 1.06c.496.242 1.047.353 1.6.322a56.14 56.14 0 0 1 15.147 2.222c3.88 1.2 9.17 5.143 13.336 4.555a3.61 3.61 0 0 0 2.044-.913c.567-.513.957-1.193 1.113-1.942.633-7.176-10.125-10.1-15.404-11.675zm10.158 25.786c-8.602-11.565-38.397 4-31.262 16.785a3.23 3.23 0 0 0 2.069 1.28 3.24 3.24 0 0 0 2.376-.524c3.768-2.955 6.08-7.066 10.38-9.654 3.634-2.222 9.058-4.366 13.336-3.044 2.68.822 4.6-2.833 3.1-4.843zm-.312 15.417c-4.868-2.144-10.813 2.455-13.936 5.854-4.08 4.444-7.535 9.998-7.3 16.153.1 2.622 3.7 4.543 5.8 2.688 3.857-3.4 5.346-7.776 8.013-12.02 1.145-1.92 2.466-3.733 3.945-5.4 1.48-1.6 3.28-2.733 4.446-4.6a2.03 2.03 0 0 0 .063-1.53 2.02 2.02 0 0 0-1.03-1.135zm204.778-55.5c-8.513-2.977-24.872 3.2-27.784 12.364-.2.6.3 1.377 1 1.1a79.68 79.68 0 0 1 12.869-4.444c4.446-1.1 9.402-1.255 13.692-2.9 2.434-.966 3.068-5.12.234-6.12zm-.988 29.104c-1.578-11.53-22.505-6.4-26.673.855-.5.878.6 2.144 1.534 1.666 2.878-1.455 8-1.166 11.113-1 3.635.178 7.113 1.044 10.68 1.5a2.85 2.85 0 0 0 2.407-.681 2.86 2.86 0 0 0 .737-1.05c.162-.4.23-.835.2-1.268zm-7.406 10.366c-5.012-1.3-12.035-1.477-16.725.934a1.4 1.4 0 0 0-.627.489c-.157.22-.247.482-.26.752a1.39 1.39 0 0 0 .775 1.314c5.045 2.632 11.235 2.444 16.47 4.9 2.367 1.1 8.768 6.02 10.313 1.1 1.6-5.033-6.357-8.565-9.947-9.5zM264.5 222.67c-1.534-6.2-7.335-8.532-13.08-6.1-6.9 2.933-11.57 11.7-10.002 18.974.156.722 1.3.7 1.556.067 1.567-3.844 2.778-7.855 5.812-10.876 1.834-1.822 6.668-5.288 9.258-2.633 2.967 3.055 0 11.753-1.2 15.086-1.445 4.1-3.4 8.032-5.213 11.998-3.4 7.432-6.923 14.875-9.935 22.473-1.2 2.988-3.256 7-2.967 10.443-4.335-5.444-10.002-9.82-14.237-15.353-4.823-6.243-9.435-12.898-12.413-20.252-2.812-6.943-5.102-16.796 2.678-21.473 9.513-5.7 15.66 4.232 16.76 12.553.028.264.132.515.3.72a1.39 1.39 0 0 0 .646.44 1.37 1.37 0 0 0 .782.012 1.35 1.35 0 0 0 .66-.417c5.913-6.432-2.322-18.007-8.968-20.362-8.3-2.933-18.126 2.788-20.905 10.82-3.645 10.52 2.7 22.83 8.102 31.538 6 9.643 15.214 21.918 26.428 25.55a1.48 1.48 0 0 0 .792.016c.26-.067.497-.203.686-.394.1.1.167.222.267.322a.82.82 0 0 0 .391.184.81.81 0 0 0 .431-.04c4.057-1.7 4.557-6.82 6.1-10.5 2.5-6.054 5.246-12.008 7.835-18.018 4.446-10.32 12.27-23.04 9.436-34.77zm203.2-15.065c-6.134-12.12-25.883-25.262-39.008-15.552a1.67 1.67 0 0 0-.133.133c-1.846-.206-3.707-.23-5.557-.067-.623 0-1.278.145-1.956.267 6-8.354 10.6-17.63 15.66-26.662 16.603-7.698 33.085-31.827 29.662-49.7-.3-1.5-1.512-3.066-3.268-2.777-20.26 3.332-38.263 31.45-31.495 51.467-4.935 7.777-9.17 16.142-14.592 23.44v-3.166a1.89 1.89 0 0 0 0-1.033c0-.322 0-.655-.067-.977 6.224-7.966 7.08-21.64 6.946-31.228-.1-6.665-1.178-19.93-8.2-23.884l.256-.322a1.06 1.06 0 0 0 .216-.484 1.04 1.04 0 0 0-.05-.527c-.06-.168-.165-.318-.3-.435a1.04 1.04 0 0 0-.476-.232c-15.715-3.477-7.913 52.624-1.8 59.833a2.3 2.3 0 0 0 .49.422 22.83 22.83 0 0 1 .134 1.445l.133 4.177-.267.333a84.82 84.82 0 0 1-33.34 23.006c.533-.888 1.1-1.8 1.578-2.732 10.113-1.1 13.725-13.264 13.258-22.03a58.1 58.1 0 0 0-12.125-31.705 2.68 2.68 0 0 0-2.068-1.095c-.405-.014-.808.062-1.18.225a2.7 2.7 0 0 0-.965.715c-11.206 14.94-9.726 33.07-1.536 49.1a2.12 2.12 0 0 0 .978.966c-.243.243-.426.54-.535.865a2.2 2.2 0 0 0-.094 1.012c.047.34.173.665.367.948a2.22 2.22 0 0 0 .751.685l-1.323 4.1c-4.97 1.782-10.066 3.185-15.247 4.2a106.76 106.76 0 0 1-28.495 1.844c3.334-1.944 6.757-4.866 8.157-8.265 6.4-3.177 11.336-7 13.192-14.72 2.1-8.832 1.3-19.463-4.057-26.984a1.82 1.82 0 0 0-.617-.53 1.83 1.83 0 0 0-1.586-.056c-.252.1-.475.278-.653.487-9.235 10.32-22.66 29.472-13.503 43.58a1.06 1.06 0 0 0 .21.223l-.1.144a55.69 55.69 0 0 0-4.868 5.766 89.07 89.07 0 0 1-29.061-8.532c-5.857-2.866-11.658-5.966-17.27-9.276-3.723-2.222-12.636-6-14.87-10.065-.086-.123-.203-.22-.34-.285s-.287-.1-.437-.076a.87.87 0 0 0-.417.153.86.86 0 0 0-.284.341c-3.478 8.888 19.67 19.308 25.384 22.43a98.5 98.5 0 0 0 43.564 12.33c2.268 1.604 4.388 3.407 6.335 5.388-6.2 2.055.467 13.442 3 16.408 5.968 7 13.514 14.275 21.615 18.785 2.123 1.178 4.446-.877 4.335-3.02-.323-9.92-2.067-21.107-8.9-28.706-3.534-3.92-10.7-10.264-15.66-5.1v.067a34.38 34.38 0 0 0-3.656-3.744 113.85 113.85 0 0 0 11.37-.855c10.686-1.324 21.134-4.136 31.04-8.354l3.256 1.433c-6.946 4.532 3.4 13.608 7.846 15.963 8.957 4.722 19.704 7.566 29.662 9.254a3.5 3.5 0 0 0 1.987-.274 3.51 3.51 0 0 0 1.512-1.316c.366-.576.556-1.247.546-1.93a3.51 3.51 0 0 0-.6-1.913c-6.668-9.276-9.324-20.84-21.416-24.44-3.334-.977-14.914-2.577-17.637 1.6-.3-.122-.578-.256-.9-.367a89.29 89.29 0 0 0 20.449-13.619 65.24 65.24 0 0 0 4.901-4.91c2.796-1.425 5.858-2.253 9-2.433-1.2 8.765 5.98 13.253 13.68 15.12 6.946 1.677 20.004 3.333 26.383-.9.067 0 .1-.1.178-.167 1.8.4 3.945-1.077 2.878-3.2zM3.233 210.87c.067 0 .1.123.178.167 6.346 4.233 19.438 2.588 26.383.9 7.702-1.866 14.892-6.354 13.68-15.12a22.66 22.66 0 0 1 8.991 2.433 65.26 65.26 0 0 0 4.901 4.91 89.29 89.29 0 0 0 20.426 13.564c-.3.1-.6.244-.9.366-2.712-4.188-14.347-2.588-17.637-1.6-12.092 3.588-14.725 15.152-21.416 24.44a3.51 3.51 0 0 0-.6 1.913c-.01.683.18 1.353.546 1.93a3.51 3.51 0 0 0 1.513 1.317c.623.283 1.312.377 1.987.273C51.3 244.675 62 241.83 70.96 237.1c4.445-2.355 14.792-11.43 7.846-15.964l3.256-1.433a115.4 115.4 0 0 0 31.04 8.354c3.773.48 7.567.766 11.37.855a34.47 34.47 0 0 0-3.656 3.744v-.067c-4.968-5.143-12.125 1.2-15.66 5.1-6.857 7.62-8.613 18.785-8.9 28.705-.067 2.133 2.223 4.2 4.334 3.022 8.102-4.5 15.648-11.787 21.616-18.785 2.534-2.967 9.2-14.353 3-16.408 1.947-1.98 4.067-3.784 6.334-5.388 15.283-.673 30.2-4.895 43.565-12.33 5.713-3.122 28.895-13.53 25.383-22.43-.063-.137-.16-.255-.283-.34a.85.85 0 0 0-.417-.153.84.84 0 0 0-.437.076.85.85 0 0 0-.341.285c-2.222 4.054-11.113 7.865-14.87 10.064-5.623 3.333-11.413 6.4-17.27 9.276a89.03 89.03 0 0 1-29.062 8.543 55.66 55.66 0 0 0-4.867-5.766l-.1-.144a1.03 1.03 0 0 0 .21-.222c9.157-14.1-4.268-33.26-13.503-43.58-.175-.2-.395-.377-.643-.5a1.84 1.84 0 0 0-.793-.164 1.82 1.82 0 0 0-1.409.711c-5.368 7.52-6.168 18.163-4.057 26.984 1.845 7.72 6.802 11.542 13.192 14.72 1.4 3.4 4.812 6.3 8.157 8.265a106.76 106.76 0 0 1-28.472-1.866c-5.182-1.014-10.28-2.418-15.248-4.2l-1.323-4.1a2.22 2.22 0 0 0 1.118-1.633 2.23 2.23 0 0 0-.094-1.013 2.22 2.22 0 0 0-.535-.864c.424-.205.768-.545.978-.967 8.2-16.02 9.67-34.15-1.534-49.1a2.68 2.68 0 0 0-.964-.715c-.37-.163-.774-.24-1.18-.225a2.69 2.69 0 0 0-1.16.31 2.7 2.7 0 0 0-.909.784 58.11 58.11 0 0 0-11.925 31.772c-.467 8.765 3.145 20.907 13.258 22.03a92.93 92.93 0 0 0 1.578 2.733 84.81 84.81 0 0 1-33.34-23.007l-.267-.333.133-4.177c0-.478.078-.966.133-1.444a2.35 2.35 0 0 0 .49-.422c6.113-7.2 13.914-63.32-1.8-59.833a1.05 1.05 0 0 0-.476.231 1.03 1.03 0 0 0-.3.436c-.06.17-.078.35-.05.527s.104.343.216.483l.256.323c-7.013 3.954-8.102 17.185-8.2 23.884-.133 9.587.722 23.262 6.946 31.227 0 .333 0 .655-.067.978a1.87 1.87 0 0 0 0 1.033v3.166c-5.423-7.3-9.658-15.686-14.592-23.44 6.768-19.996-11.225-48.08-31.496-51.468-1.756-.3-2.978 1.278-3.267 2.777-3.423 17.875 13.058 42.003 29.662 49.702 5.068 9.02 9.647 18.296 15.66 26.66a22.05 22.05 0 0 0-1.956-.266 28.04 28.04 0 0 0-5.557.066 1.83 1.83 0 0 0-.122-.133c-13.15-9.736-32.887 3.406-39.022 15.57-1.367 2.1.778 3.588 2.656 3.243z"/></g><defs><clipPath id="A"><path fill="#fff" d="M0 0h468v286H0z"/></clipPath></defs></svg>