<svg xmlns="http://www.w3.org/2000/svg" width="304" height="149" fill="none" xmlns:v="https://vecta.io/nano"><g clip-path="url(#A)" fill="#3a3c51"><path d="M292.56 34.84a1.66 1.66 0 0 0-1.975-1.199c-7.83 1.766-14.75 6.392-22.53 7.736 6.894-4.8 13.717-11.866 13.028-20.147-.13-1.515-2.356-2.613-3.184-.906-6.994 14.4-25.817 12.916-39.188 11.052-9.894-1.375-19.6-3.756-29.552-4.643-11.082-.984-44.837-4.124-42.73 14.693-.443 7.48 2.07 15.762 4.652 22.8-10.04 3.9-20.233 6.8-31.103 7.995-5.078.555-10.187.986-15.302 1.2-.83-5.22-1.427-10.848-2.692-16.156l.024-.06c2.754-9.238-6.965-14.664-14.54-15.14-16.085-.973-32.042 6.6-47.354 10.4-19.308 4.752-39.47 9.27-54.423-7.15-.7-.748-2.353-.23-2.244.912 1.86 17.404 16.814 25.35 32.57 27.468C28.18 79.7 16.67 80.8 7.354 82.77a1.57 1.57 0 0 0-.632.325c-.183.155-.328.35-.423.57s-.14.46-.128.698a1.58 1.58 0 0 0 .193.683c6.817 10.9 22.595 10.1 33.76 8.95 6.17-.634 12.326-1.46 18.218-3.458 8.174-2.74 17.76-7.92 26.383-4.246.2.1.42.133.64.126a1.47 1.47 0 0 0 .632-.166c2.547 7.587 4.294 15.325 3.07 23.6-.01.4.114.8.35 1.112a1.8 1.8 0 0 0 .958.664c5.515 1.28 10.76 3.894 16.424 4.523 7.022.772 14.332-.945 21.325-1.38 14.036-.865 28.1-1.205 41.785-4.7 10.985-2.874 21.75-6.532 32.2-10.946 6.313-2.624 13.405-5.893 17.27-11.714 1.143-.148 2.145-1.288 1.38-2.5.153-.344.307-.682.435-1.04.368-1.006-.97-1.662-1.678-1.067a39.36 39.36 0 0 1-4.05-13.189c12.407.067 24.93 1.354 37.02-2.15 6.3-1.85 12.44-4.14 18.408-6.85 9.402-4.186 25.994-12.928 21.655-25.8zM169.7 43.938c6.97.416 13.788-.276 20.7-1.353 3.495-.556 7.016-1.06 10.464-1.85 1.493-.344 2.964-.797 4.467-1.08l2.973-.417c3.154 2.973 3.282 4.726.382 5.258-.932.378-1.092 1.384-.77 2.213-8.536 5.505-17.872 9.3-27.247 13.48l-5.96 2.55c-2.08-6.142-3.037-12.682-5-18.803zm-121.256 45.2c-10.75 1.928-29.676 5.756-38.044-3.83 10.4-2.106 22.46-3.83 30.02-11.668a1.45 1.45 0 0 0-.952-2.46c-14.022-1.054-29.066-6.8-32.7-21.112 11.274 10.297 24.8 10.86 39.953 8.218 11.627-2.012 23.002-5 34.323-8.317 8.295-2.44 16.842-5.48 25.626-5.157 4.57.16 9.08 1.162 11.18 5.648a12.42 12.42 0 0 1 .524 1.318 43.53 43.53 0 0 0 .033 4.792 5.46 5.46 0 0 1-1.396 1.802c-3.86 3.45-11.163 3.485-15.964 3.98-3.516.357-22.53-.598-22.507 5.2a1.31 1.31 0 0 0 .936 1.269l.208.073c1.484 4.466 3.252 8.882 4.88 13.326-11.958-3.916-24.42 4.808-36.1 6.9l-.02.02zm72.4-15.607c-3.355.063-6.726.027-10.076-.157-9.76-.533-18-2.692-26.695-6.325 1.54-.155 3.084-.362 4.64-.44 4.852-.245 9.715-.2 14.556-.633 4.523-.372 11.447-1.137 15.566-4.403.58 4.038 1.374 8.076 2.028 11.94l-.02.02zm96.235 12.596c-4.993 5.676-13.138 8.882-19.902 11.454-10.363 3.935-20.927 7.76-31.758 10.162-12.646 2.8-25.58 2.947-38.45 3.777-5.935.384-11.984 1.777-17.932 1.445-5.66-.316-10.827-2.83-16.22-4.37 1.535-13.695-3.84-29.498-10.758-41.193l.055-.01c6.007 5.714 16.328 7.44 24.092 8.258a127.95 127.95 0 0 0 15.895.599c.42.14.873.132 1.287-.02 5.585-.154 11.153-.585 16.7-1.146 13.534-1.38 26.3-5.223 38.737-10.644 10.624-4.615 23.74-8.735 32.73-16.672-1.443 5.425-.357 13.1.026 17.27.556 6.07 1.138 15.972 5.522 21.075l-.014.014zm48.06-27.3a113.45 113.45 0 0 1-16.001 5.543c-11.103 2.735-22.736 1.643-34.066 1.853-.638-7.538-.057-15.348.393-22.218a.81.81 0 0 0-.05-.312c.084-.24.073-.503-.033-.735 1.312-3.112.085-6.52-5.247-7.46-5.096-.9-11.127 1.63-16.132 2.397a156.19 156.19 0 0 1-23.923 2.039c-1.46-15.668 39.844-9.957 48.62-8.377 15.875 2.862 42.986 10.393 56.72-2.008-3.28 5.258-9.42 9.586-13.964 12.36-.286.17-.5.425-.638.73a1.53 1.53 0 0 0-.074.967c.08.322.262.6.52.82a1.54 1.54 0 0 0 .906.346c10.034.276 18.16-5.225 27.572-7.596 1.74 11.224-16.494 18.316-24.602 21.65zM98.97 127.452c-8.37 11.588-21.44 5.14-31.886.537a61.7 61.7 0 0 0-14.348-4.551c2.4-5.557 3.787-11.506 4.062-17.555a1.24 1.24 0 0 0-1.013-1.324c.027-.3-.034-.58-.175-.833s-.355-.46-.614-.6a1.45 1.45 0 0 0-1.613.213c-4.805 4.245-11.332 12.367-18.613 10.672-2.214-.517-4.324-2.182-4.744-4.508-.47-2.6 1.452-4.06 3.68-4.576a12.94 12.94 0 0 1 .377 2.372c.1 1.774 2.86 1.838 2.77.06a20.95 20.95 0 0 0-.776-4.316 1.4 1.4 0 0 0-.469-.744 1.41 1.41 0 0 0-.82-.317c-3.3.358-6.642 1.8-7.44 5.353-.675 3.02.977 6.144 3.427 7.862 8.265 5.803 17.1-3.057 23.192-8.65a46.59 46.59 0 0 1-4.11 16.482 33.08 33.08 0 0 0-15.92 2.173c-5.57 2.248-19.013 9.4-13.9 17.556 4.58 7.32 15.525 1.7 20.2-2.222a45.34 45.34 0 0 0 11.347-14.639c7.954 1.308 15.22 5.247 22.764 8.2 4.612 1.806 9.624 3.312 14.634 2.717 5.3-.614 9.33-3.754 12.388-7.984 1.013-1.422-1.375-2.825-2.408-1.388zm-57.656 8.278c-3.305 3.446-7.496 6.825-12.364 7.57-2.615.416-6.498-.087-7.088-3.272-.707-3.8 3.75-7.177 6.48-8.877 5-3.14 10.764-5.395 16.72-5.647a30.69 30.69 0 0 1 3.537.054 45.09 45.09 0 0 1-7.284 10.17zM283.668 85.5a33.08 33.08 0 0 0-15.809 2.873 47.51 47.51 0 0 1-6.613-9.205c6.352 3.367 15.807 1.908 21.12-2.316 2.4-1.92 5.606-5.482 4.818-8.888-1.03-4.466-7.198-2.936-10.13-2.004a1.46 1.46 0 0 0-1.062 1.29c-.225 1.655.495 2.163 1.5 3.22 1.2 1.304 3.2-.636 1.974-1.94a3.33 3.33 0 0 0-.368-.339c2.248-.643 5.793-1.347 5.325 1.317s-3.3 5.104-5.514 6.38c-6.1 3.555-17.22 3.73-20.53-3.646-.7-1.57-2.938-.38-2.488 1.147a1.31 1.31 0 0 0 .052.816 49.83 49.83 0 0 0 9.307 15.43 61.75 61.75 0 0 0-12.228 8.777c-8.52 7.62-18.943 17.803-30.48 9.382-1.434-1.045-3.27 1.03-1.83 2.078 4.22 3.073 9 4.8 14.254 3.747 4.944-1.005 9.238-3.985 13.07-7.122 6.254-5.148 11.94-11.147 19.097-14.858a45.34 45.34 0 0 0 15.328 10.397c5.668 2.27 17.818 4.223 19.902-4.157C304.65 88.53 289.65 85.91 283.668 85.5zm10.34 15.646c-4.858.806-9.9-1.106-14.103-3.362-3.692-2-7.088-4.482-10.1-7.408 1.095-.452 2.215-.84 3.355-1.16 5.735-1.607 11.9-1.25 17.647.18 3.125.78 8.404 2.587 8.914 6.43.42 3.206-3.12 4.9-5.733 5.323l.01-.002zm-167.092 2.6c-2.766-2.44-3.107-6.203-4.997-9.204-.36-.573-.787-1.102-1.272-1.575 1.18-3.553 2.16-7.17 2.94-10.83.4-1.745-2.254-2.5-2.662-.76-.706 3.032-1.466 6.583-2.605 9.998a9.21 9.21 0 0 0-4.906-.728c-7.376.842-9.92 9.47-7.917 15.675a1.42 1.42 0 0 0 .631.843c.3.2.683.252 1.04.174 6.2-1.356 9.866-5.963 12.3-11.43a19.72 19.72 0 0 1 1.695 3.603c.927 2.302 1.876 4.5 3.785 6.168 1.335 1.2 3.324-.753 1.98-1.935zm-19.036.534c-.936-5.423 1.962-12.704 8.674-10.667.3.088.57.203.84.343-1.915 4.676-4.774 8.74-9.515 10.318v.006zm29.083-17.477c-.9-.176-1.808-.118-2.667.17s-1.63.793-2.233 1.468c-1.2 1.36-1.562 3.124-1.567 4.9-.816.924-1.4 2.034-1.673 3.233a7.47 7.47 0 0 0 .051 3.639c.727 3.1 3.343 6.418 6.86 5.96 4.56-.6 7.23-6.85 7.365-10.862.132-3.787-2.182-7.8-6.136-8.496zm3.35 7.52c.087 1.952-.384 3.9-1.355 5.585-.663 1.266-1.607 2.88-3.044 3.4-1.914.696-3.473-1.3-4.075-2.878a5.67 5.67 0 0 1-.174-3.733 1.54 1.54 0 0 0 .68-.07 1.53 1.53 0 0 0 .581-.359c.163-.162.288-.36.365-.576a1.53 1.53 0 0 0 .077-.678c-.03-.18-.06-.377-.06-.585.34-.252.714-.458 1.1-.613 1.65-.62 1-3.316-.654-2.698l-.116.046c.148-.54.484-1 .948-1.327s1.026-.455 1.583-.393c2.393.197 3.943 2.68 4.136 4.88zm24.934-14.73a1.41 1.41 0 0 0-1.537-.675c-8.48 1.208-7.148 9.437-8.23 15.8-.148.87-.6 3.3-1.925 3.237-1.13-.05-1.644-2.54-1.865-3.37-.845-3.23-.962-6.545-1.444-9.82-.28-1.76-2.95-1.095-2.7.654.488 3.313 1.205 19.425 8.173 14.5 5.88-4.158-.34-15.572 7.207-17.96-.132.422-.3.837-.47 1.24-.6 1.686 2.07 2.434 2.66.76s.84-2.617.13-4.36zM189.953 77c.893 7.766-7.428 19.038-15.988 15.86a6.38 6.38 0 0 1-2.454-1.538c6.493-1.492 13.44-7.182 11.868-14.218-.072-.292-.237-.553-.47-.744a1.4 1.4 0 0 0-.821-.317c-5.175.083-10.223 3.184-12.977 7.523a8.63 8.63 0 0 0-1.33 3.15 8.65 8.65 0 0 0-.008 3.419 1.35 1.35 0 0 0 .044.742 1.36 1.36 0 0 0 .428.607c.714 1.45 1.887 2.625 3.336 3.342 11.1 5.797 22.28-8.027 21.067-18.483-.208-1.766-2.893-1.087-2.694.658zm-18.144 7.48a13.66 13.66 0 0 1 9.032-5.595c.197 5.013-5.738 9.028-10.478 9.872a6.64 6.64 0 0 1 1.446-4.277z"/></g><defs><clipPath id="A"><path fill="#fff" transform="matrix(.987589 -.157058 .157058 .987589 0 45.7031)" d="M0 0h291v104H0z"/></clipPath></defs></svg>