<svg xmlns="http://www.w3.org/2000/svg" width="139" height="71" fill="#3a3c51" xmlns:v="https://vecta.io/nano"><path d="M24.36 41.228c-3.35-1.244-7.318 2.928-9.603 4.628-3.622 2.742-8.1 4.183-11.877 6.746-7.254 4.935 1.018 12.427 4.912 17.2.04.052.08.104.122.15l.2.237c.036.05.082.1.137.118s.114.043.176.044c1.683 1.007 4.24-.608 5.785-1.504 5.207-3.008 11.026-5.276 15.747-9 5.652-4.414-.156-16.616-5.588-18.63zM3.643 53.916c4.472-3.4 9.904-5.172 14.405-8.592a18.24 18.24 0 0 1 3.91-2.436 3.44 3.44 0 0 1 .874-.237c-2.517 4.692-1.678 12.948-7.457 14.07a46.74 46.74 0 0 1-8.897.58c-1.37 0-3.338-.63-4.674-.312a4.21 4.21 0 0 1 1.84-3.072zm4.76 14.857c-1.87-3.026-5.878-7.006-6.543-10.5 1.377 1.157 4.888 1.157 8.1.937l-.73 5.976c-.098.972-.578 2.73-.278 3.9a1.9 1.9 0 0 1-.48-.272.44.44 0 0 0-.07-.052zm19.4-9.46c-3.1 2.418-6.994 3.8-10.413 5.676-1.44.793-4.45 3.57-6.832 4.137.382-.995.25-2.494.347-3.344a42.58 42.58 0 0 0 .393-6.688 75.41 75.41 0 0 0 4.536-.613c3.002-.486 4.628-2.586 5.664-5.242 1.32.636 2.667 1.232 4 1.817s2.806 1.597 4.24 1.77a6.37 6.37 0 0 1-1.944 2.488zm2.43-4.154c-.984-.735-2.488-1.093-3.552-1.498-1.556-.578-3.14-1.157-4.75-1.602.972-3.06 1.383-6.607 2.273-9.257 1.574.58 2.702 2.46 3.558 3.876 1.504 2.5 2.858 5.652 2.47 8.482zM138.78 8.273c-.533-1.238-2.1-1.695-3.263-2.158-.1-.046-.226-.075-.336-.116l.58-.36a.82.82 0 0 0 .381-.503.83.83 0 0 0-.086-.625.81.81 0 0 0-.503-.38.83.83 0 0 0-.625.086l-1.915.914c.428-1.417 1.06-2.893.93-4.264-.005-.153-.05-.302-.128-.433s-.2-.24-.323-.316a.89.89 0 0 0-.435-.118.88.88 0 0 0-.438.11c-1.8.885-3.084 4.183-3.47 6.023a1.97 1.97 0 0 0 0 .816l-.88.405a11.95 11.95 0 0 0-.416-3.57 1.2 1.2 0 0 0-.428-.641c-.2-.16-.465-.248-.73-.248a1.2 1.2 0 0 0-1.157.889c-.55 1.794-.885 3.645-1.348 5.462l-5.646 2.893c-5.988-4.443-17-4.35-20.12 2.58-3.9-8.25-19.883-6.625-21.3 3.003-.665 4.5 2.94 8.5 6.462 11.745-2.673 1.556-5.293 3.223-7.856 4.953a13.92 13.92 0 0 0-2.123-2.152.51.51 0 0 0-.247-.11c-.09-.014-.183-.002-.268.034a1.03 1.03 0 0 0-.283 0c-1 .185-1.533 1.655-2.048 2.418-.953 1.42-2.085 2.7-3.367 3.842-1.076.95.3 2.418 1.44 1.87 2.606-1.246 5.594-1.435 8.336-.526.88.278 1.8-.822 1.244-1.614l-1.626-2.35c2.77-1.65 5.64-3.176 8.26-5.05l2.273 2.013c3.47 3.188 8.07 10.524 13.728 7.307 3.408-1.938 6.44-4.4 9.893-6.266a40.95 40.95 0 0 0 8.481-5.786c4.003-3.7 4.628-9.373 1.33-13.746-.08-.1-.185-.203-.277-.312l4.05-2.106c.1.106.213.2.336.278 1.244.7 2.383 1.556 3.64 2.228 2.175 1.157 4.107-2.117 1.932-3.3-.694-.382-1.342-.822-2.002-1.255l2.436-1.348 3.164 1.036c1.157.4 2.048 1.157 3.263 1.273 1.452.156 1.932-1.475 1.487-2.5zm-33.293 26.284c-2.465 1.655-5.647 5.207-9.135 3.7-1.903-.822-3.57-2.893-4.98-4.333-2.748-2.84-5.72-5.444-8.435-8.314-5.154-5.456-3.928-12.7 4-13.52 3.922-.405 8.926.955 10.853 4.63 0 .075-.035.145-.052.226-.23 1.296 1.736 1.846 1.978.544 1.33-7.7 11.05-7.463 16.724-4.1a38.76 38.76 0 0 0-6.184 4.721c-.113.12-.18.28-.187.445a.7.7 0 0 0 .145.46c.102.13.246.223.4.257a.7.7 0 0 0 .478-.069 126.5 126.5 0 0 1 7.474-4.206c8.903 8.6-7.787 15.968-13.103 19.544h.006z"/></svg>