<svg width="270" height="118" viewBox="0 0 270 118" fill="none" xmlns="http://www.w3.org/2000/svg">
<path d="M202.574 54.404L189.87 96.1943C189.421 97.6914 188.886 99.1671 188.48 100.686C188.146 102.306 187.429 103.822 186.386 105.106C185.344 106.39 184.008 107.405 182.491 108.064C180.893 108.757 179.397 109.663 178.043 110.759C169.937 117.432 160.398 117.581 150.796 116.555C140.444 115.507 140.573 115.122 139.653 104.856C138.969 97.0925 138.519 89.3077 138.049 81.3303C135.91 81.8222 135.91 83.469 135.29 84.5597C131.511 93.0646 124.907 100.001 116.598 104.193C112.32 106.332 108.492 108.92 104.407 111.229C100.914 113.203 97.0447 114.42 93.0507 114.801C89.4229 115.301 85.7276 114.825 82.3446 113.423C78.9616 112.021 76.0132 109.743 73.8023 106.824C73.5745 106.377 73.2431 105.991 72.8358 105.699C72.4285 105.406 71.9571 105.215 71.4611 105.142C70.965 105.069 70.4586 105.115 69.9841 105.278C69.5096 105.44 69.0809 105.713 68.7336 106.075C64.6915 108.791 60.4782 111.208 56.2008 113.518C53.9114 114.779 51.3679 115.51 48.7581 115.656C36.0756 116.298 23.4145 116.94 10.732 117.367C3.67432 117.603 0.851229 114.865 0.680133 107.765C0.188232 88.3025 -0.453379 68.6478 0.466263 49.0145C0.958164 38.321 0.466263 27.7986 1.57839 17.212C1.57247 16.2147 1.85364 15.2367 2.38836 14.3949C2.92307 13.553 3.68873 12.8827 4.59396 12.4641C8.65749 10.2399 12.721 7.88729 16.7846 5.4064C18.5305 4.25532 20.599 3.69323 22.6874 3.80237C29.6168 4.27289 36.6103 4.14457 43.4969 5.19253C47.9027 5.87691 48.9079 6.7324 49.0362 11.2023C49.25 19.201 48.8009 27.1998 48.3518 35.1771C47.7957 44.9082 47.3252 54.6179 46.8547 64.349C46.7647 65.909 46.7647 67.4728 46.8547 69.0328C46.9616 70.6154 47.6674 71.6848 49.5067 71.4067H50.02C53.4633 71.0218 57.5268 71.642 60.2216 70.0166C63.3227 68.1345 61.4406 63.6005 61.7615 60.3924C62.4928 49.0719 65.7133 38.0522 71.1931 28.1194C75.2474 20.9487 81.417 15.2049 88.8588 11.6728C92.7512 9.78123 96.5162 7.63799 100.13 5.25669C110.353 -1.37328 123.827 -1.15941 132.659 12.3786C133.301 13.3838 134.028 14.3248 135.333 16.1855C134.992 14.5848 135.236 12.9151 136.021 11.479C136.806 10.043 138.079 8.93564 139.61 8.35781C143.888 6.21911 148.165 3.67405 152.442 1.42842C153.576 0.712219 154.852 0.251329 156.181 0.0777482C157.511 -0.0958328 158.862 0.0220548 160.142 0.423225C163.115 1.38135 166.185 2.01243 169.295 2.30528C174.664 3.03244 176.546 5.0856 176.952 10.4751C177.166 13.1699 176.952 15.9074 176.952 19.2866C183.026 16.2924 188.394 13.9184 193.463 11.0312C195.003 10.0265 196.783 9.44784 198.62 9.35393C200.457 9.26002 202.286 9.65424 203.921 10.4965C209.824 13.619 215.021 12.6352 220.346 9.21329C227.896 4.29428 236.429 3.05383 245.283 3.16076C248.919 3.16076 252.576 2.73302 256.212 2.51915C257.252 2.46402 258.295 2.46402 259.335 2.51915C266.628 2.86135 268.51 4.65786 269.151 11.8225C269.536 16.0999 269.707 20.5056 269.964 24.8472C270.111 26.4074 269.806 27.977 269.085 29.3687C268.365 30.7604 267.259 31.9155 265.901 32.6962C261.11 35.9043 255.656 37.8505 250.801 41.251C254.052 46.5122 253.132 52.0515 251.528 57.4838C250.716 60.1785 248.107 61.2693 245.433 61.7612C244.396 61.8799 243.348 61.8799 242.311 61.7612C239.808 61.6115 238.44 62.4456 238.397 65.2473C238.058 69.2313 238.158 73.2405 238.696 77.2026C239.316 80.2182 239.937 80.6245 242.974 79.8118C247.996 78.3915 253.176 77.6013 258.394 77.4593C265.323 77.4593 267.098 79.0847 267.098 86.0141C267.276 90.7134 266.939 95.418 266.093 100.044C265.9 101.363 265.416 102.623 264.676 103.733C263.936 104.843 262.959 105.774 261.816 106.46C256.02 109.604 250.652 113.518 244.3 115.635C242.844 116.204 241.305 116.529 239.744 116.597C229.051 116.597 218.528 116.491 208.091 114.159C200.798 112.534 199.537 111.315 200.157 103.894C201.183 89.329 202.509 74.7859 203.707 60.2213C203.835 58.6601 203.878 57.1202 203.964 55.5589L204.926 46.0417C204.37 48.6082 202.638 51.2815 202.574 54.404ZM90.6125 13.4479L89.5432 14.7098C82.4427 17.6612 81.5658 18.4097 79.7693 23.2646C82.3144 21.6819 84.7311 20.3773 86.9126 18.7519C88.2386 17.7681 90.1206 16.8485 89.4576 14.4745C90.6981 15.0306 90.4414 14.0468 90.4842 13.4479H90.6981H90.6125ZM255.977 35.8615C252.555 34.8777 249.924 36.6314 246.716 38.2569C250.673 39.369 253.132 37.273 255.827 35.776L256.234 35.006C256.234 35.006 255.998 35.006 255.956 35.006C255.464 35.2413 255.571 35.5621 255.977 35.8401V35.8615ZM173.231 110.909C169.295 110.909 165.724 112.448 161.446 113.454C163.455 114.027 165.577 114.085 167.614 113.621C169.651 113.158 171.539 112.188 173.102 110.802L173.958 110.181C173.808 110.181 173.594 110.181 173.551 110.181C173.429 110.416 173.321 110.659 173.231 110.909ZM141.77 10.5179C145.468 9.68887 148.874 7.87881 151.63 5.27808C147.937 6.12731 144.553 7.98581 141.856 10.6462C141 10.4323 140.166 10.5179 139.845 11.3948C139.739 11.7156 140.337 12.2716 140.615 12.7208C139.845 14.4531 137.279 16.1855 140.615 17.9392C140.209 19.4577 138.669 20.8478 140.295 22.6657C143.695 21.2114 147.16 19.6715 150.689 18.2386C152.057 17.6825 152.827 16.7201 152.186 15.4583C151.544 14.1965 150.453 15.0947 149.577 15.4583C146.604 16.549 143.909 18.4953 140.508 18.0889C141.086 16.1641 143.032 15.9502 144.401 15.1161C146.652 13.8851 148.964 12.7714 151.33 11.7797C151.493 11.7348 151.645 11.6559 151.775 11.5482C151.905 11.4406 152.011 11.3066 152.086 11.1551C152.16 11.0037 152.202 10.8381 152.208 10.6693C152.215 10.5005 152.185 10.3323 152.122 10.1757C151.822 9.40577 151.074 9.46993 150.411 9.72658C149.482 10.1382 148.532 10.5022 147.566 10.8173C145.235 11.4589 143.289 13.6832 140.573 12.7421C139.888 11.4162 141.749 11.4589 141.77 10.5179ZM26.6654 113.561C27.4062 114.001 28.2522 114.234 29.1142 114.234C29.9761 114.234 30.8221 114.001 31.563 113.561C34.6641 111.871 37.6369 109.989 40.6739 108.192C35.0918 107.936 31.1994 111.55 26.6654 113.603V113.774V113.561ZM215.791 16.8271C216.924 15.0519 219.084 15.1803 220.667 14.2392C221.544 13.7259 222.806 13.8115 223.319 12.7849C223.64 12.2075 224.046 11.5445 223.469 10.9029C223.281 10.7277 223.041 10.6199 222.785 10.5967C222.529 10.5735 222.273 10.636 222.057 10.7745C218.956 12.1647 216.261 14.2606 212.989 15.4155C211.385 15.993 212.754 17.2334 213.866 17.7681C213.866 19.4363 209.589 18.7733 211.834 21.8958C215.513 19.9282 219.705 18.9444 223.276 16.1213C220.389 14.9236 218.379 18.3455 215.791 16.8271ZM76.1121 30.5148L78.0584 30.3437C78.593 32.1402 76.9462 32.076 76.0694 32.4824C74.8533 32.8712 73.794 33.6399 73.0472 34.6755C72.3004 35.711 71.9054 36.9588 71.9203 38.2355C72.8613 39.3048 74.059 37.1447 75 38.6632C74.1231 40.588 70.8509 40.31 70.7226 43.8389C74.2588 42.1595 77.6189 40.1319 80.7531 37.7863H76.989C76.3688 35.7973 78.2295 35.6476 79.1277 35.2413C80.193 34.8033 81.0931 34.0404 81.6998 33.0612C82.3065 32.0821 82.5889 30.9365 82.5069 29.7876C80.7317 29.1888 79.7052 31.9263 77.93 30.5148C78.9994 28.3761 81.3947 27.9483 83.0415 26.5582C84.2606 25.5102 85.8005 24.6547 84.8808 22.5588C77.2029 25.9379 77.2029 25.9379 75.2781 29.7662C74.8931 30.1726 73.9734 30.6431 74.337 31.0922C74.7006 31.5413 75.7272 31.4772 76.1121 30.5148ZM9.04246 40.9516C8.10143 39.8395 9.23494 39.4973 9.83378 39.1123C11.9725 37.8291 13.9829 36.6956 16.0146 35.391C16.3172 35.2512 16.583 35.0426 16.7906 34.7819C16.9983 34.5212 17.1422 34.2155 17.2107 33.8894C17.2793 33.5632 17.2707 33.2255 17.1855 32.9032C17.1004 32.5809 16.9411 32.283 16.7204 32.0332C13.3326 33.6909 10.0538 35.5625 6.90376 37.6366C6.65943 37.7273 6.43659 37.8677 6.24936 38.049C6.06212 38.2302 5.91457 38.4484 5.81606 38.6897C5.71754 38.9309 5.6702 39.19 5.67704 39.4505C5.68388 39.7111 5.74475 39.9673 5.85579 40.2031C6.39047 41.2938 7.3315 40.5667 7.99449 40.2031C8.65749 39.8395 8.76442 40.5666 9.06384 40.8661C8.70026 42.4915 6.92514 42.2562 6.04827 43.3042C5.55637 43.9672 5.10725 44.8441 5.77024 45.6354C6.43324 46.4267 6.9893 45.8706 7.58814 45.5284L15.6083 40.9088C16.6776 40.2886 17.5545 39.5187 16.8273 37.8719C13.9401 38.1071 12.0153 40.973 9.04246 40.9516ZM69.9313 62.5311C68.6695 63.8999 66.0816 64.6698 67.9423 67.7495C70.8082 66.4236 73.7382 65.0548 76.6682 63.7288C78.593 62.8519 78.4219 61.5901 77.652 59.9861C74.8289 60.4566 72.6902 62.6594 69.7816 62.638C71.1076 60.1572 73.8451 59.7722 76.0266 58.6387C78.2081 57.5052 78.7 56.5 77.6306 54.2329C74.5081 55.5589 71.6636 56.7566 68.8192 57.9971C67.2365 58.7028 67.2151 60.1358 67.429 61.5259C67.6429 62.9161 69.1186 62.1675 69.9313 62.5311ZM208.84 80.1326C209.332 81.8864 207.685 81.3945 206.979 81.8008C206.644 81.9214 206.342 82.1185 206.097 82.3765C205.851 82.6344 205.669 82.946 205.566 83.2866C205.462 83.6271 205.439 83.9872 205.499 84.3382C205.558 84.6891 205.699 85.0213 205.91 85.3083C209.695 84.2389 213.096 82.1002 216.988 81.3303C218.079 81.1164 218.079 80.0257 217.801 79.1916C217.523 78.3575 216.753 78.6783 216.112 78.9136C215.154 79.3197 214.158 79.6278 213.139 79.8332C211.706 80.0257 210.38 82.1216 208.861 80.1968C211.438 78.5144 214.238 77.204 217.181 76.3044C218.379 75.9408 218.207 75.0425 218.143 74.1657C218.143 72.8824 217.117 73.0535 216.283 73.3102C213.481 74.1656 210.679 75.0853 207.856 75.9194C207.479 76.0266 207.13 76.2134 206.831 76.4673C206.533 76.7212 206.292 77.0362 206.126 77.391C205.96 77.7458 205.872 78.1322 205.868 78.524C205.864 78.9158 205.944 79.3039 206.102 79.6621C206.316 80.9026 207.856 80.0685 208.819 80.1326H208.84ZM14.2181 26.4298C13.9401 25.553 14.4534 25.2535 15.1805 25.0611C17.8325 24.3339 18.0036 22.5588 17.0626 20.0993C13.3626 22.238 9.76962 24.1414 6.21937 26.216C6.04083 26.3187 5.88541 26.4572 5.76283 26.6227C5.64025 26.7882 5.55315 26.9773 5.50698 27.178C5.46081 27.3788 5.45656 27.5869 5.4945 27.7893C5.53244 27.9918 5.61175 28.1843 5.72747 28.3547C6.26215 29.1674 6.90376 28.5044 7.52398 28.3547C9.81239 27.7558 11.4806 25.1038 14.3037 26.216C12.6996 28.5899 10.0263 29.4454 7.78062 31.0067C6.28353 32.0546 4.82922 32.9529 6.19798 35.391L15.9291 29.8945C16.5028 29.6608 16.9636 29.2139 17.2149 28.6476C17.4661 28.0814 17.4882 27.4398 17.2765 26.8576C16.6348 25.2108 15.1805 26.6865 14.1326 26.4084L14.2181 26.4298ZM47.7316 110.866C45.764 108.941 49.3356 109.133 48.9292 107.294C44.2455 108.278 40.6311 110.93 36.3537 113.518C40.7594 113.646 40.6311 113.518 43.668 111.914C44.9299 111.208 45.9137 109.048 47.9454 110.78C47.4108 112.213 47.7102 112.919 49.4425 112.919C54.7037 112.919 58.5106 109.903 62.9377 106.503C59.7867 106.16 56.6053 106.771 53.8055 108.257C52.0492 109.651 49.9524 110.552 47.7316 110.866ZM14.3037 14.7739C13.6407 12.9132 15.4158 13.0843 16.2285 12.6352C17.64 11.7156 18.7736 10.7959 17.8753 8.89248C5.91995 14.0254 5.91995 14.0254 5.57776 17.7467C7.71646 17.7467 9.08523 15.4797 11.2881 15.608C11.6303 18.2386 9.14939 18.0675 7.84478 18.923C6.1766 19.9923 4.38009 20.7837 5.70608 23.6281L16.1857 18.2814C16.5112 18.1491 16.8043 17.9481 17.0448 17.692C17.2854 17.436 17.4678 17.1309 17.5795 16.7978C17.6912 16.4647 17.7296 16.1114 17.6921 15.7621C17.6545 15.4128 17.5419 15.0757 17.362 14.7739C16.6348 13.2554 15.373 15.3514 14.3037 14.7739ZM90.6339 110.631C90.6339 111.7 89.5004 113.154 91.9599 113.133C97.6489 113.133 101.905 110.074 105.99 106.717C105.99 106.717 105.776 106.161 105.541 105.54C103.616 106.54 101.639 107.432 99.6165 108.214C96.6223 109.198 93.9917 111.55 90.5056 110.823C93.4142 108.214 97.5419 107.679 101.477 104.407C94.0986 103.637 89.586 108.235 83.7901 109.026C86.2924 113.518 86.2924 113.518 90.6339 110.631ZM7.22456 104.214C7.58814 105.99 5.08586 105.605 5.08586 107.209C5.08586 108.085 4.97892 109.026 5.64192 109.604C6.30492 110.181 6.90376 109.754 7.54537 109.433L16.2499 105.006C16.5493 104.856 16.8487 104.664 17.1268 104.471C18.303 103.765 18.0892 102.803 17.5973 101.819C17.1054 100.835 16.1643 101.284 15.4586 101.52C12.6782 102.354 10.5823 105.198 7.22456 104.3C8.84997 102.161 11.502 101.477 13.6407 100.023C14.6672 99.3809 15.7794 98.8249 16.7418 98.1191C17.1055 97.7818 17.3406 97.3285 17.407 96.8369C17.4733 96.3454 17.3667 95.846 17.1054 95.4243C16.5707 94.2908 15.6724 94.9324 14.9667 95.1891C13.0204 95.8093 11.4164 97.3278 9.17078 97.3278C9.87655 94.5689 12.6782 94.6116 14.5389 93.6278C17.2123 92.2163 18.025 90.6978 16.6776 87.9175C14.5389 88.11 12.8921 89.6285 10.9673 90.2273C9.61991 90.655 8.50778 92.1735 6.86098 91.1256C9.31032 89.2315 12.0091 87.6842 14.8811 86.5273C17.0198 85.3083 17.7897 83.7684 16.314 81.1378C12.8921 82.6777 9.4702 84.2176 6.04827 85.7788C4.16622 86.6557 4.76505 88.4094 4.76505 89.8637C4.76505 91.318 6.02689 91.0614 6.90376 90.9972C7.39566 92.2377 6.06966 92.1521 5.66331 92.7296C4.31593 94.633 3.52461 96.5151 6.0055 98.1833C5.5136 99.8087 4.3587 101.199 4.70089 103.166C5.04309 105.134 6.19798 104.321 7.22456 104.236V104.214ZM214.679 33.787C214.294 31.3916 216.518 31.8621 217.63 31.1564C219.084 30.2367 220.774 29.702 222.164 28.7182C222.497 28.4354 222.718 28.0418 222.784 27.6097C222.851 27.1777 222.76 26.736 222.528 26.3657C222.036 25.5957 221.266 25.9593 220.667 26.1518C218.229 27.0073 215.855 28.1408 213.353 28.7396C212.83 28.7718 212.322 28.9219 211.865 29.1788C211.409 29.4357 211.017 29.7926 210.719 30.2228C210.42 30.653 210.223 31.1453 210.142 31.6626C210.061 32.1799 210.099 32.7088 210.251 33.2095C211.813 34.8135 213.395 31.2847 214.721 33.68C214.208 34.7494 213.053 34.8349 212.176 35.0274C209.589 35.6049 209.589 37.38 209.589 39.262C209.589 42.021 212.198 39.262 212.797 40.7591C206.937 43.1759 209.225 48.159 208.519 52.9925C212.476 51.4099 215.834 50.1053 219.213 48.7151C221.009 47.9666 221.351 46.5764 220.368 44.9938C217.395 45.2076 214.935 47.5174 211.813 46.8544C212.668 45.4429 214.101 45.2076 215.299 44.7157L219.961 42.4059C220.206 42.3117 220.43 42.1694 220.619 41.9875C220.808 41.8055 220.959 41.5875 221.063 41.3464C221.166 41.1052 221.221 40.8458 221.222 40.5833C221.224 40.3209 221.174 40.0607 221.073 39.8181C220.56 38.321 219.619 38.9412 218.635 39.3904C217.455 39.9925 216.104 40.1736 214.807 39.9037C215.32 37.7649 217.395 38.1071 218.806 37.4655C222.207 35.8829 222.25 35.9471 221.48 31.7552C219.084 32.0332 217.074 33.7014 214.614 33.8084L214.679 33.787ZM205.739 108.299C207.171 109.396 208.831 110.157 210.597 110.527C212.362 110.898 214.188 110.867 215.94 110.438C220.477 109.163 224.946 107.657 229.329 105.925C223.447 103.915 223.233 104.043 218.122 105.07C214.957 105.712 211.856 107.209 208.498 106.567C210.636 104.428 213.759 104.279 216.432 103.273C217.288 102.953 218.186 102.568 217.865 101.541C217.544 100.514 216.988 99.5948 215.727 99.9584L212.732 100.771C211.019 101.505 209.097 101.597 207.321 101.028C209.781 99.2098 212.583 98.889 214.957 97.6914C215.812 97.2422 217.095 97.0284 216.817 95.5527C216.539 94.077 215.149 94.8683 214.272 94.9966C211.984 95.3602 209.995 96.9 207.428 96.1515C209.396 94.0128 212.347 94.0128 214.786 92.8151C216.539 91.9596 217.737 91.0186 216.432 88.8585L206.445 91.9169C206.107 91.9991 205.789 92.1479 205.51 92.3546C205.231 92.5613 204.995 92.8217 204.818 93.1206C204.641 93.4194 204.525 93.7506 204.477 94.0948C204.43 94.439 204.452 94.7892 204.541 95.1249C204.862 97.1353 206.53 95.5741 207.471 96.0873C207.15 97.8625 203.964 96.3654 204.242 99.0388C204.37 100.322 204.434 101.349 205.782 101.84C203.9 102.076 203.985 103.444 204.135 104.813C204.285 106.182 204.092 107.7 205.739 108.299ZM180.802 20.2704C179.688 20.8486 178.653 21.5674 177.722 22.4091C180.802 23.7351 177.893 24.4195 177.551 25.3391C177.367 25.8163 177.28 26.3251 177.294 26.8362C177.551 33.3592 177.829 39.9037 178.128 46.6406C180.032 45.8279 181.871 45.3573 181.743 43.5181C181.743 41.9996 179.454 44.2666 179.026 42.684C179.24 40.7164 181.785 40.8233 182.17 39.2193C181.4 38.0216 180.032 39.369 179.497 38.043C180.802 36.0754 184.245 36.332 184.437 33.3378C183.047 32.1402 181.529 34.7922 180.331 32.9743C181.657 30.8356 185.614 31.0922 185.849 27.5206C183.004 27.2853 181.058 29.809 177.722 28.8252C180.524 27.157 182.748 25.831 184.951 24.5478C186.234 23.7565 188.308 23.0721 187.389 21.19C186.469 19.308 185.1 22.131 183.839 21.3611C183.703 21.255 183.581 21.1329 183.475 20.9975C184.63 18.4525 188.672 19.0941 189.463 15.5011C186.344 16.6266 183.421 18.2361 180.802 20.2704ZM212.882 58.767L212.112 57.8687C213.903 56.8255 215.823 56.0203 217.823 55.4734C221.287 54.9815 220.196 53.2278 219.747 51.0463C216.454 52.2012 213.566 53.3775 210.572 54.1902C210.185 54.2323 209.81 54.3516 209.47 54.5412C209.13 54.7309 208.832 54.9868 208.592 55.294C208.353 55.6012 208.178 55.9533 208.077 56.3294C207.976 56.7056 207.952 57.0981 208.006 57.4838C208.178 61.2394 207.847 65.0013 207.022 68.6692C215.171 66.7016 218.101 65.1189 218.721 62.4028C215.213 62.4028 212.305 65.3756 208.434 64.5415C208.891 63.6919 209.656 63.0493 210.572 62.745C213.438 61.6542 216.261 60.4566 219.127 59.2803C219.94 58.9381 219.918 58.1895 219.705 57.5266C219.491 56.8636 218.892 57.1844 218.421 57.2699C216.582 57.6976 214.957 58.8739 212.946 58.7456L212.882 58.767ZM238.867 31.3061C239.038 32.2257 237.819 34.0436 240.257 33.4448C241.679 33.154 242.964 32.4022 243.915 31.3061H238.739C239.723 28.1622 242.631 28.5899 244.898 28.1408C251.51 27.1448 258.252 27.4499 264.746 29.0391C265.444 22.6803 265.372 16.2606 264.532 9.91906C264.232 6.60407 262.842 5.64166 259.356 5.10698C258.156 4.89229 256.939 4.79204 255.72 4.80756C248.085 5.12837 240.429 5.38501 232.793 5.87691C227.981 6.19772 227.575 6.83933 227.361 11.5659C226.698 27.7558 225.094 43.9458 223.554 60.0502C222.528 70.7437 221.587 81.4372 220.753 92.2591C220.261 98.6752 221.244 99.9584 227.575 100.985C237.905 102.653 248.363 102.589 258.779 103.252C259.111 103.313 259.453 103.305 259.782 103.229C260.112 103.153 260.422 103.011 260.694 102.81C260.967 102.61 261.195 102.356 261.366 102.064C261.537 101.773 261.646 101.449 261.687 101.113C262.495 97.5485 263.06 93.9329 263.377 90.2915C264.446 81.3731 262.757 79.598 253.945 80.3679C249.668 80.7956 245.39 81.6297 241.113 82.5066C236.344 83.3621 235.659 82.9771 235.317 78.0153C235.039 74.2084 235.082 70.3801 235.06 66.5519C234.943 65.1415 235.315 63.7337 236.113 62.5651C236.912 61.3966 238.088 60.5387 239.445 60.1358C240.933 59.6497 242.456 59.2779 244 59.0236C248.491 58.2109 248.534 58.2323 248.941 53.7197C249.051 52.5102 249.051 51.2933 248.941 50.0839C248.47 45.1007 248.213 44.8441 243.038 44.1597C242.631 43.5608 243.487 42.2776 242.14 42.2348C240.792 42.1921 239.466 41.4649 238.226 42.2348C237.99 42.3845 238.033 43.1545 238.226 43.5822C238.632 45.1007 240.129 44.6088 241.134 45.0365C240.814 45.3787 240.536 45.8706 240.151 46.0631C235.873 47.9238 234.889 47.4105 234.569 42.9834C234.357 40.6009 234.444 38.2013 234.825 35.8401C235.082 33.5089 235.723 31.028 238.931 31.2847L238.867 31.3061ZM155.458 3.16076C155.779 6.90349 156.164 9.98322 156.292 13.0843C157.076 31.4201 157.832 49.8557 158.559 68.3912C158.944 77.7801 159.222 87.169 159.671 96.5365C159.971 102.696 161.339 104.043 167.627 104.407C171.434 104.642 175.284 104.557 179.112 104.599C184.052 104.599 183.924 104.599 185.528 100.065C193.698 74.9356 199.75 49.2498 207.45 24.0131C208.049 22.0455 208.156 19.9068 208.819 17.9606C209.353 16.3779 208.819 15.5438 207.493 15.1589C204.52 14.2392 201.483 13.4265 198.467 12.6352C197.984 12.4311 197.462 12.3386 196.938 12.3645C196.414 12.3904 195.903 12.5341 195.443 12.7849C194.982 13.0356 194.585 13.387 194.279 13.8129C193.973 14.2387 193.767 14.728 193.677 15.2444C192.5 19.0513 191.132 22.8154 189.912 26.6223C187.132 35.4124 185.357 44.4591 183.282 53.4416C182.969 56.0409 182.022 58.5233 180.524 60.6704C179.497 61.8467 178.214 63.0658 176.546 62.6167C174.877 62.1675 175.113 60.478 174.899 59.0878C174.264 53.9084 173.963 48.6934 174.001 43.4753C173.722 33.402 173.509 23.3073 173.124 13.234C172.888 7.41678 171.605 6.09078 165.831 4.93589C162.537 4.23011 159.329 3.80237 155.458 3.13938V3.16076ZM138.113 49.1428C138.294 39.7393 136.698 30.3862 133.408 21.575C131.342 15.4299 127.493 10.0394 122.351 6.09078C114.652 0.572935 109.519 1.27871 103.231 5.62027C100.79 7.29607 98.6556 9.37967 96.9217 11.7797C90.3213 21.434 86.1603 32.5447 84.7953 44.1597C83.3383 56.087 83.946 68.1762 86.5918 79.8974C87.0837 82.421 88.7305 84.0251 89.5646 86.2065C91.7826 92.493 96.0351 97.8594 101.648 101.455C103.861 103.035 106.511 103.885 109.23 103.885C111.949 103.885 114.599 103.035 116.812 101.455C121.246 98.365 124.936 94.3246 127.612 89.6285C135.098 76.946 137.728 63.301 138.113 49.1428ZM21.8961 47.496C21.3828 67.4074 21.0192 81.8222 21.618 96.1943C21.9602 104.279 23.885 105.99 31.7982 105.583C39.7114 105.177 47.0472 104.749 54.7037 104.386C58.1684 104.172 61.6117 103.808 65.0764 103.551C66.3597 103.551 67.4932 103.338 67.6857 101.691C68.9004 93.2546 68.8572 84.685 67.5573 76.2616C67.4292 75.3925 67.0028 74.595 66.3512 74.0058C65.6995 73.4166 64.8633 73.0724 63.9857 73.0321C61.7704 72.6373 59.5151 72.5152 57.2702 72.6686C53.8055 73.0108 50.3408 73.2246 46.8761 73.3957C42.3848 73.6096 41.8074 73.0749 41.7218 68.4553C41.7218 66.3166 41.7218 64.1779 41.8929 62.2103C42.9623 47.3249 44.0601 32.4325 45.1865 17.5328C45.4331 15.6374 45.4331 13.718 45.1865 11.8225C44.5235 8.16533 43.9461 7.5451 40.2461 6.86072C35.2429 6.27419 30.2036 6.0526 25.1683 6.19772C21.8961 6.19772 21.7891 6.19772 21.9174 9.74796C22.4307 24.1842 22.2596 38.599 21.8961 47.3891V47.496ZM144.764 101.199C147.946 99.4316 151.318 98.0324 154.816 97.0284C155.993 96.6434 156.698 95.8521 156.228 94.74C155.757 93.6278 154.752 94.2053 153.939 94.3764C150.945 95.0394 148.101 96.5151 144.615 96.0018C145.855 93.8631 147.951 93.8631 149.619 93.2215C151.287 92.5799 152.913 92.1521 154.517 91.5105C154.769 91.4451 155.003 91.3229 155.201 91.1532C155.399 90.9836 155.555 90.771 155.658 90.5316C155.762 90.2923 155.809 90.0326 155.796 89.7723C155.784 89.512 155.712 89.258 155.586 89.0296C155.094 87.8533 154.239 88.3452 153.448 88.5591L149.405 89.5643C147.344 89.8414 145.334 90.4178 143.438 91.2753C140.979 92.8151 143.203 95.3816 142.989 97.4775C142.685 101.078 142.785 104.7 143.289 108.278C143.802 112.406 144.7 112.555 148.571 111.229C151.672 110.117 154.859 109.283 158.003 108.278C159.158 107.914 160.27 107.38 161.639 106.824C160.937 106.168 160.079 105.704 159.147 105.475C158.214 105.247 157.238 105.262 156.313 105.519L150.731 106.802C149.975 107.176 149.148 107.388 148.305 107.425C147.462 107.462 146.62 107.323 145.834 107.016C148.759 105.271 151.932 103.981 155.244 103.188C156.57 102.76 157.383 102.076 156.784 100.514C156.185 98.9532 155.372 99.2526 154.303 99.4879C151.223 100.518 148.01 101.095 144.764 101.199ZM141.877 76.283C145.919 74.8073 149.427 73.4813 152.977 72.2408C154.752 71.6206 154.731 70.2732 154.453 68.8831C154.068 66.9155 152.613 67.8137 151.63 68.1131C149.05 69.0855 146.366 69.7531 143.631 70.1021C141.984 70.2091 141.599 71.0859 141.642 72.4547C141.706 73.4599 141.77 74.4865 141.877 76.283ZM94.8258 102.311L94.6761 100.964C88.7733 98.8249 84.3675 104.086 78.8925 104.407C80.4323 108.684 80.7959 109.091 83.1699 107.979C87.1692 106.203 90.9761 104.214 94.8044 102.311H94.8258ZM21.7891 107.936C18.9874 106.161 18.9233 105.99 17.8325 106.503C13.7903 108.105 9.86043 109.977 6.06966 112.106C7.93033 114.245 9.81239 115.999 12.4858 114.416C15.651 112.47 18.6452 110.139 21.7891 107.936ZM86.8912 95.2319L76.989 98.333C75.7272 98.7179 74.5509 99.2526 75.5347 100.857C76.3046 102.097 76.8393 103.808 79.0422 102.717C82.1433 101.177 85.3299 99.8087 88.5166 98.4399C89.3293 98.0763 90.2703 97.7769 89.9068 96.6862C89.5432 95.5954 88.5594 94.9966 86.8912 95.2319ZM155.137 86.0568C155.552 84.4175 155.409 82.6869 154.731 81.1378C151.116 82.1216 147.481 83.0626 143.866 84.1106C141.727 84.7094 142.006 86.3776 142.412 87.8961C142.818 89.4146 144.337 88.8799 145.363 88.5377C148.509 87.3193 151.791 86.4863 155.137 86.0568ZM142.54 82.6777C146.604 81.8008 150.133 79.5766 154.004 78.2934C155.073 77.9298 155.094 77.0743 154.923 76.1546C154.752 75.235 153.875 74.9356 152.977 75.1708C150.175 75.9408 147.374 76.7963 144.572 77.5234C141.77 78.2506 141.15 80.0257 142.54 82.6777ZM254.116 107.273C246.567 106.011 241.755 110.395 236.023 111.55C242.61 113.967 247.935 111.165 254.116 107.294V107.273ZM153.982 56.5855C153.982 55.3023 153.255 54.8104 151.972 55.2168C149.192 56.0936 146.368 56.8422 143.652 57.8901C142.797 58.2109 142.219 59.2803 141.514 60.0288C141.263 60.2671 141.103 60.5848 141.06 60.9279C141.017 61.2709 141.094 61.6183 141.278 61.9109C141.663 62.5953 142.455 62.4883 143.118 62.2317C146.326 61.034 149.534 59.7936 152.742 58.5959C153.17 58.4893 153.54 58.2192 153.772 57.8435C154.004 57.4678 154.079 57.0163 153.982 56.5855ZM151.844 20.5056C148.55 21.6819 145.427 22.7513 142.455 23.9062C139.482 25.0611 139.354 25.1466 140.765 29.2529C143.93 27.9269 147.031 26.5154 150.24 25.2963C152.4 24.505 152.827 23.2004 151.844 20.5056ZM16.0788 50.8966C13.3412 52.1156 10.6893 53.4202 7.97311 54.4254C7.40975 54.5505 6.8827 54.8035 6.43269 55.1648C5.98268 55.5261 5.62177 55.986 5.37784 56.509C5.13391 57.032 5.0135 57.6041 5.02592 58.181C5.03833 58.758 5.18324 59.3243 5.44944 59.8363C9.45257 58.2849 13.1901 56.1204 16.5279 53.4202C16.9557 53.0994 16.8701 52.2012 16.0788 50.8966ZM16.5065 43.7961C13.1488 45.3573 10.0904 46.7689 7.03208 48.2446C6.42548 48.5393 5.91408 48.9988 5.55637 49.5706C5.27989 49.9043 5.12859 50.3242 5.12859 50.7576C5.12859 51.191 5.27989 51.6108 5.55637 51.9445C6.13382 52.522 6.79682 52.1798 7.41704 51.9445C9.85516 50.7041 12.2719 49.4209 14.7528 48.2446C16.4638 47.4105 17.2123 46.3411 16.5065 43.8175V43.7961ZM220.902 110.844C228.131 112.983 234.098 109.668 240.257 107.016C233.243 105.626 227.254 109.026 220.902 110.866V110.844ZM141.877 68.6906C145.784 67.4994 149.56 65.9158 153.148 63.964C153.55 63.7974 153.873 63.482 154.048 63.0836C154.223 62.6851 154.238 62.2344 154.089 61.8253C153.704 60.5207 152.785 61.1196 151.951 61.3548C149.32 62.2103 146.732 63.1727 144.08 63.9427C141.428 64.7126 140.958 66.2525 141.877 68.6906ZM17.2551 68.3912C12.8493 69.8027 10.1974 71.9628 7.11763 72.9038C4.03789 73.8448 4.67951 75.4489 5.27834 78.2506C9.17078 74.8073 15.3302 75.3847 17.2551 68.3912ZM16.2499 75.8338C15.9291 75.8338 15.5655 75.6627 15.3089 75.8338C12.6141 76.946 10.0049 78.272 7.24595 79.213C4.48702 80.154 4.27315 81.9933 5.10725 84.3886C14.3678 80.539 16.2285 79.0847 16.2499 75.8338ZM222.848 20.5912C222.72 20.4842 222.549 20.249 222.442 20.2918C219.32 21.2542 216.218 22.4305 213.053 23.2218C210.358 23.9703 210.145 25.5102 211.043 27.7772C220.902 24.0773 221.608 23.6281 222.848 20.5912ZM206.979 74.4651C210.572 73.0963 214.101 71.7703 217.673 70.3801C217.927 70.3134 218.163 70.1903 218.363 70.0199C218.564 69.8496 218.723 69.6365 218.83 69.3962C218.937 69.1559 218.988 68.8947 218.98 68.6319C218.973 68.3691 218.906 68.1114 218.785 67.8779C218.25 66.8085 217.352 67.4715 216.646 67.7282C214.425 68.6197 212.117 69.2791 209.76 69.6958C206.338 69.9952 206.102 71.5778 206.979 74.4651ZM86.2496 91.5747C85.9502 90.3984 85.3513 89.714 84.1109 90.2487C80.8408 91.8157 77.4682 93.1591 74.0162 94.2694C72.9255 94.5475 72.8185 95.5313 73.0752 96.4081C73.3318 97.285 74.4012 97.4989 75.2139 97.1567C78.6507 96.0365 82.0028 94.6714 85.2444 93.0718C85.8005 92.6227 86.2924 92.4088 86.271 91.5961L86.2496 91.5747ZM5.42805 66.1241L15.095 61.2693C16.8487 60.3924 17.2337 59.1306 15.9932 57.3341C12.9777 58.7242 10.069 60.2641 7.01069 61.419C4.74367 62.2959 4.80783 63.7288 5.42805 66.1241ZM217.737 85.073L217.352 83.9609L205.504 86.8695C204.37 87.1476 204.434 88.0458 204.648 89.0082C204.862 89.9707 204.969 91.1469 205.974 90.7406C209.952 88.9013 214.443 88.1314 217.737 85.073ZM78.7214 42.299C75.6202 45.2932 68.3487 43.4753 68.8406 51.3029C72.7116 48.2232 77.9087 47.8596 78.7214 42.1921V42.299ZM15.8649 114.395C22.281 115.828 26.3446 111.422 31.9907 107.979C25.0399 108.043 20.955 112.213 15.8649 114.395ZM152.507 28.8466C152.507 27.7558 151.929 27.1784 150.86 27.542C147.887 28.5044 144.957 29.5523 142.006 30.5361C140.658 30.9853 140.765 32.0118 140.958 33.0598C141.15 34.1078 141.492 35.0702 142.476 34.6852C145.883 33.4268 149.128 31.7684 152.143 29.7448C152.378 29.531 152.4 29.0818 152.507 28.7824V28.8466ZM143.481 39.9892C146.283 38.706 149.427 37.3158 152.485 35.7118C153.127 35.391 153.127 34.5355 152.87 33.8511C152.613 33.1667 152.378 32.7818 151.801 32.9956C148.571 34.1719 145.385 35.3054 142.219 36.6956C141.492 37.0164 141.77 38.2782 141.984 39.1123C142.198 39.9464 142.54 39.9464 143.481 39.925V39.9892ZM16.1857 63.0444L8.55056 66.4236L6.64711 67.2576C4.50841 68.1559 4.67951 69.8027 5.21418 71.535C13.2343 68.3912 16.0146 66.3594 16.1857 63.0444ZM238.375 35.9257L238.675 37.0378C244.278 38.2569 248.534 34.5141 253.41 32.9956L253.068 31.7124L238.375 35.9257ZM153.084 40.032C153.084 39.369 152.635 38.8985 152.207 39.0268C149.149 40.0106 146.069 41.0158 143.096 42.2348C142.348 42.5343 142.369 43.7319 142.775 44.5446C143.182 45.3573 143.93 45.0579 144.529 44.8013C146.896 43.846 149.263 42.8693 151.63 41.8713C152.039 41.7644 152.403 41.5271 152.665 41.1952C152.927 40.8633 153.074 40.455 153.084 40.032ZM79.1277 49.5064C72.7116 50.255 68.7122 52.7786 68.1562 56.3289C71.9845 54.3613 76.0266 53.185 79.1277 49.5064ZM67.1938 69.8883C71.9845 72.2194 74.9359 69.3322 78.2295 68.4553C79.0208 68.2414 78.9138 67.279 78.6358 66.6802C78.5731 66.5192 78.4779 66.3729 78.3563 66.2502C78.2347 66.1275 78.0892 66.0311 77.9288 65.9669C77.7684 65.9027 77.5965 65.8722 77.4238 65.8772C77.2511 65.8821 77.0813 65.9225 76.9249 65.9958L67.1938 69.8883ZM74.2943 92.4302L83.2768 88.1528C83.5147 88.059 83.7139 87.8875 83.842 87.6662C83.9702 87.4449 84.0197 87.1867 83.9826 86.9337C83.9659 86.7601 83.9123 86.5921 83.8251 86.441C83.738 86.29 83.6195 86.1593 83.4776 86.058C83.3357 85.9566 83.1737 85.8869 83.0026 85.8535C82.8314 85.8201 82.6551 85.8238 82.4855 85.8643C79.7123 86.7718 76.9981 87.8503 74.3584 89.0938C73.5457 89.4574 73.6099 90.8689 74.2943 92.4302ZM143.075 55.5589C146.262 54.2757 149.491 53.0353 152.549 51.7307C152.713 51.6746 152.864 51.5849 152.991 51.4672C153.118 51.3494 153.219 51.2064 153.288 51.0472C153.356 50.888 153.391 50.7162 153.389 50.543C153.387 50.3697 153.349 50.1987 153.276 50.0411C153.157 49.8139 152.956 49.6409 152.713 49.5574C152.471 49.4739 152.206 49.4862 151.972 49.592C149.341 50.4047 146.668 51.1318 144.059 51.9873C142.305 52.4578 142.348 53.7411 143.075 55.5589ZM74.2729 86.8054C76.5792 85.9551 78.7934 84.873 80.8814 83.5759C81.7583 83.1268 82.3572 82.6991 82.0363 81.6939C81.7155 80.6887 80.9028 80.7101 79.8976 81.095C78.4861 81.6725 77.0104 82.1644 75.6202 82.6991C73.8237 83.3621 73.5457 84.6881 74.2729 86.8054ZM163.221 109.775C158.116 110.381 153.094 111.558 148.251 113.283C155.201 114.309 155.201 114.309 163.221 109.775ZM143.973 49.7417C146.925 48.5868 150.004 47.4319 153.02 46.1487C153.255 46.1487 153.255 45.229 153.191 44.7585C153.127 44.288 152.635 44.288 152.442 44.3521C149.363 45.4429 146.283 46.4909 143.246 47.7527C143.032 47.7527 143.032 48.6723 143.096 49.1428C143.16 49.6134 143.46 49.485 143.909 49.7631L143.973 49.7417ZM74.4012 80.7529L78.9994 78.8066C79.3173 78.6653 79.6128 78.4779 79.8763 78.2506C80.4109 77.7801 80.8601 77.2026 80.5393 76.4754C80.2185 75.7483 79.8976 75.4275 79.5768 75.4489C77.8674 75.6755 76.2305 76.2821 74.7861 77.224C73.4388 77.9512 73.7168 79.0847 74.4012 80.7529ZM74.1659 74.8073C75.3636 74.8073 79.1705 72.6686 79.2346 71.7275C79.2331 71.5588 79.1939 71.3924 79.1199 71.2407C79.0459 71.089 78.939 70.9558 78.8069 70.8507C76.7794 70.8035 74.8011 71.4781 73.2249 72.7541C73.129 72.9481 73.0775 73.161 73.0743 73.3774C73.0711 73.5937 73.1162 73.8081 73.2064 74.0048C73.2966 74.2015 73.4295 74.3756 73.5955 74.5145C73.7615 74.6533 73.9564 74.7533 74.1659 74.8073ZM178.235 56.2006C179.56 54.2337 180.383 51.9719 180.63 49.6134C180.63 48.9076 180.759 48.0735 179.967 47.9452C179.752 47.9021 179.529 47.9091 179.317 47.9658C179.105 48.0224 178.908 48.1272 178.743 48.2719C178.578 48.4166 178.448 48.5974 178.363 48.8004C178.279 49.0033 178.242 49.2229 178.257 49.4423C178.192 51.4099 178.235 53.3133 178.235 56.2861V56.2006Z" fill="#3A3C51"/>
<path d="M126.182 48.1161C126.383 54.0469 125.242 59.9466 122.846 65.3754C120.493 70.4655 117.093 74.4007 111.04 75.2562C108.89 75.6708 106.665 75.4031 104.674 74.4904C102.684 73.5778 101.029 72.0658 99.9403 70.1661C97.002 65.4052 95.3717 59.9534 95.2138 54.3611C94.6186 45.9937 96.3195 37.6226 100.133 30.151C101.332 27.412 103.515 25.222 106.249 24.0129C112.131 21.7031 117.884 22.195 121.52 28.5897C124.719 34.5925 126.324 41.3156 126.182 48.1161ZM118.333 63.9852C114.676 62.317 112.174 65.354 109.179 66.3378C108.281 66.6372 108.025 67.9632 109.179 69.054C112.045 67.1077 116.023 67.1291 118.29 63.9852L118.012 63.0656L117.606 63.5789L118.333 63.9852ZM109.5 42.7265C110.014 43.4965 109.5 43.86 108.966 44.3092C108.61 44.5199 108.346 44.8569 108.227 45.2532C108.108 45.6495 108.143 46.076 108.324 46.4479C109.115 47.7311 110.078 46.8328 110.912 46.4479C112.493 45.7431 114.022 44.9284 115.489 44.0098C116.943 43.0046 120.215 42.3416 119.36 40.7162C118.098 38.2994 115.981 41.1011 114.205 41.5289C112.43 41.9566 111.489 44.0311 109.479 42.7479C111.318 39.9248 114.655 39.1977 117.114 37.2301C117.927 36.5885 118.718 36.0538 118.055 34.7492C117.392 33.4446 116.43 33.9579 115.574 34.4284C113.029 35.8399 110.505 37.2728 107.96 38.7058C107.041 39.2191 106.185 39.6896 106.421 41.0156C106.741 42.9404 108.174 42.7265 109.5 42.7265ZM103.426 64.8621C105.22 56.7509 104.272 48.2737 100.732 40.7589C98.9779 50.3189 99.8334 58.2749 103.426 64.8621ZM120.686 46.7259C120.686 45.7635 120.279 44.8652 119.167 45.3357C116.002 46.6831 112.751 48.0733 109.8 49.6131C108.773 50.1478 108.923 51.4738 109.351 52.4362C109.778 53.3987 110.741 52.9495 111.489 52.5859C113.97 51.3669 116.451 50.1478 118.911 48.9074C119.766 48.4796 120.835 48.0733 120.664 46.7259H120.686ZM105.715 37.2728C108.859 35.1341 112.323 32.9954 115.745 30.6643C115.841 30.58 115.917 30.4763 115.97 30.3601C116.022 30.244 116.049 30.118 116.049 29.9906C116.049 29.8631 116.022 29.7371 115.97 29.621C115.917 29.5048 115.841 29.4012 115.745 29.3169C115.275 28.8677 114.719 28.1192 114.034 28.7394C111.19 31.3486 107.49 32.4822 104.325 34.5139C103.64 34.963 103.341 35.4336 103.769 36.1821C103.899 36.5506 104.154 36.8616 104.49 37.0609C104.827 37.2603 105.222 37.3353 105.608 37.2728H105.715ZM109.757 58.0396C116.922 55.9009 119.937 53.8906 120.857 50.2334C116.857 53.6125 111.211 52.5004 109.65 58.0396H109.757ZM104.645 31.8405L113.35 26.2585C109.073 23.9701 107.105 25.0395 104.645 31.8405ZM109.415 63.3008C118.226 60.4564 119.338 59.665 119.317 56.457C116.023 59.0021 111.019 58.5957 109.415 63.3008ZM107.575 71.6632C111.853 74.0799 111.853 74.0585 113.992 69.9094C111.733 69.9451 109.519 70.5481 107.554 71.6632H107.575ZM114.868 69.2892C114.868 69.2892 114.697 69.5031 114.719 69.5672C114.74 69.6314 114.933 69.888 114.975 69.8667C115.36 69.7169 115.424 69.5031 115.168 69.3106C114.911 69.1181 114.954 69.2892 114.847 69.2892H114.868Z" fill="#3A3C51"/>
<path d="M240.879 45.0136C241.029 43.4951 242.184 43.8801 243.018 43.8587C242.932 45.313 241.799 44.8639 240.879 45.0136Z" fill="#3A3C51"/>
<path d="M212.942 58.7459C212.573 59.2206 212.043 59.5437 211.452 59.654C210.861 59.7644 210.25 59.6544 209.734 59.3447C210.226 58.254 211.231 58.1043 212.172 57.8477L212.942 58.7459Z" fill="#3A3C51"/>
<path d="M181.488 20.9975L183.627 20.8691C184.247 22.409 182.665 22.2379 182.044 22.7512C181.424 23.2645 180.74 23.5425 180.547 22.5801C180.398 22.1524 181.125 21.5321 181.488 20.9975Z" fill="#3A3C51"/>
<path d="M178.641 33.9372L179.026 33.873L178.983 34.1511L178.641 33.9372Z" fill="#3A3C51"/>
<path d="M212.707 40.8456C212.707 39.0704 213.712 39.2415 214.846 39.6907C214.974 41.6369 213.391 40.3964 212.707 40.8456Z" fill="#3A3C51"/>
<path d="M208.65 106.504C208.479 107.915 207.26 107.252 206.512 107.573C206.833 106.418 207.816 106.589 208.65 106.504Z" fill="#3A3C51"/>
<path d="M9.19204 97.1576C9.05643 97.4535 8.86091 97.718 8.61784 97.9344C8.37477 98.1509 8.08944 98.3145 7.77988 98.415C7.47033 98.5155 7.14329 98.5507 6.81944 98.5183C6.49559 98.486 6.18198 98.3867 5.89844 98.227C6.88224 97.4998 7.65217 96.1952 9.19204 97.1576Z" fill="#3A3C51"/>
<path d="M76.9864 37.6373C76.7511 39.0061 75.6604 38.6853 74.8477 38.7708C74.8477 36.9529 75.5962 36.5466 76.9864 37.6373Z" fill="#3A3C51"/>
<path d="M11.1367 15.714C12.035 14.773 12.7835 13.3614 14.4089 14.6446C13.5321 15.714 12.8263 17.2966 11.1367 15.714Z" fill="#3A3C51"/>
<path d="M213.738 17.8535C213.845 16.2708 215 16.6558 215.877 16.6986C216.005 18.5165 214.786 18.0887 213.738 17.8535Z" fill="#3A3C51"/>
</svg>
