<svg width="381" height="138" viewBox="0 0 381 138" fill="none" xmlns="http://www.w3.org/2000/svg">
<path d="M18.3516 29.858H18.1142C18.0386 29.858 17.9199 29.858 17.9631 29.858C18.0063 29.858 17.9631 29.858 17.9631 29.858C17.8034 29.9056 17.651 29.9746 17.5098 30.0631C17.1173 30.3115 16.7551 30.6049 16.4306 30.9374C15.6212 31.7493 14.8979 32.6427 14.2723 33.6035C12.9553 35.6607 11.818 37.8275 10.8728 40.0799C8.90929 44.6628 7.48596 49.4588 6.63156 54.371C6.19876 56.7266 6.061 59.127 6.22147 61.5166C6.28482 62.5171 6.54136 63.4957 6.9769 64.3986C7.09027 64.6699 7.28033 64.9023 7.52378 65.0672C7.76723 65.2321 8.0535 65.3223 8.34748 65.3269C9.84756 65.4456 11.5851 64.1719 13.0312 62.3801C14.4716 60.4654 15.6646 58.3765 16.5817 56.1628C18.52 51.5496 19.9669 46.745 20.8985 41.8285C21.3934 39.4036 21.7215 36.9476 21.8806 34.4778C21.9127 33.9206 21.9127 33.362 21.8806 32.8047C21.8697 32.6267 21.8444 32.4498 21.805 32.2758C21.805 32.2758 21.805 32.2758 22.0209 32.632C22.3013 32.9448 22.6839 33.1476 23.1001 33.2041C23.2221 33.2162 23.345 33.2162 23.467 33.2041C23.3267 33.2041 23.8771 33.2041 23.7907 33.2041C23.9082 33.1781 24.021 33.1345 24.1253 33.0746H24.2008L24.0929 33.1933C23.9605 33.36 23.8414 33.5368 23.7368 33.7222C23.4778 34.1741 23.2576 34.6471 23.0785 35.1362C22.7043 36.0662 22.5102 37.0589 22.5065 38.0614C22.5014 38.2737 22.5458 38.4844 22.636 38.6766H22.582H22.7763C23.7203 38.5832 24.6349 38.2967 25.4635 37.8347C26.5269 37.2935 27.5543 36.6842 28.5392 36.0105C32.641 33.0876 36.5155 29.8581 40.1297 26.35C40.4226 26.0739 40.7899 25.8896 41.1863 25.8198C41.5827 25.7501 41.9909 25.7979 42.3604 25.9575C42.7299 26.117 43.0447 26.3813 43.2658 26.7176C43.4869 27.054 43.6047 27.4478 43.6047 27.8503V28.3576C44.1183 28.5935 44.6095 28.8753 45.0724 29.1996C45.3651 29.3974 45.6332 29.6293 45.871 29.8904C46.0116 30.0277 46.1121 30.2008 46.1615 30.391C46.211 30.5812 46.2076 30.7813 46.1516 30.9698L45.6552 32.999C45.407 34.3267 45.1696 35.6435 44.9753 36.9712C44.5729 39.5401 44.3386 42.1326 44.2738 44.732C44.2269 45.8953 44.2629 47.0604 44.3818 48.2185C44.4376 48.9579 44.6012 49.6852 44.8674 50.3773C44.8674 50.4744 44.7919 50.3233 44.5113 50.183C44.3907 50.1326 44.2635 50.0999 44.1335 50.0858C44.0148 50.0858 44.2199 50.0858 44.4465 50.0858C44.7667 49.9674 45.0683 49.8039 45.3422 49.6001C46.1738 48.98 46.9211 48.2543 47.5654 47.4413C48.3421 46.476 49.0627 45.4669 49.7238 44.419C51.146 42.1664 52.4186 39.8226 53.5333 37.403C54.7528 34.9635 55.8752 32.4377 56.922 29.8472C57.4472 28.5591 57.9544 27.2638 58.4437 25.9614C58.9725 24.6769 59.5228 23.3493 59.9545 22.0756L60.138 21.579C60.3366 21.0835 60.7188 20.6837 61.2049 20.463C61.691 20.2423 62.2435 20.2178 62.7472 20.3946C63.2509 20.5713 63.667 20.9357 63.9087 21.4117C64.1505 21.8878 64.1992 22.4388 64.0447 22.9499C63.3324 26.8141 62.7496 30.7863 62.3395 34.7153C61.8755 38.5863 61.7383 42.4895 61.9295 46.3835C61.9906 47.2903 62.1132 48.1918 62.2964 49.082C62.4267 49.8147 62.6822 50.5194 63.0518 51.1652C63.1258 51.3017 63.2335 51.4169 63.3648 51.4998C63.3648 51.4998 63.4187 51.4998 63.6022 51.4998C64.221 51.3447 64.7943 51.0451 65.2749 50.6255C66.6843 49.4484 67.9487 48.1077 69.0413 46.6318C70.2177 45.1098 71.3184 43.5015 72.3653 41.8393C74.46 38.4962 76.3694 35.0405 78.085 31.4879C79.8248 27.9701 81.3248 24.3387 82.5744 20.6184C82.8658 19.7009 83.1248 18.7834 83.3299 17.8983C83.5269 17.1371 83.6213 16.353 83.6105 15.5668C83.6105 15.4589 83.6105 15.3833 83.6105 15.5021C83.7657 15.7948 84.029 16.0155 84.3443 16.1173C84.5026 16.1657 84.6717 16.1657 84.8299 16.1173C84.736 16.1516 84.6456 16.195 84.5602 16.2468C84.4846 16.2468 84.1177 16.5059 84.0529 16.5599C83.9037 16.6604 83.7596 16.7685 83.6213 16.8837C83.353 17.0959 83.1104 17.3386 82.8982 17.6069C82.5234 18.1131 82.3044 18.7177 82.268 19.3465C82.2316 19.9754 82.3793 20.6012 82.6931 21.1473C83.4512 22.6174 84.564 23.8751 85.9307 24.8064C88.9437 26.8653 92.4727 28.0393 96.1183 28.1957C96.5824 28.1957 97.0356 28.1957 97.4997 28.1957H98.9782C99.4103 28.1919 99.8413 28.239 100.262 28.336C100.805 28.4628 101.313 28.7059 101.752 29.0484C102.25 29.4552 102.624 29.9938 102.831 30.6028C102.992 31.0713 103.069 31.5647 103.058 32.06C103.036 32.7605 102.916 33.4545 102.701 34.1216C102.53 34.6755 102.328 35.2196 102.097 35.7515C101.665 36.7769 101.18 37.716 100.683 38.6335C98.6868 42.2818 96.5068 45.6603 94.4132 49.082C92.3196 52.5037 90.2475 55.9038 88.3481 59.3902C86.4359 62.8268 84.7523 66.3857 83.3083 70.0438C81.8679 73.5753 80.9763 77.3064 80.6643 81.1076C80.3263 84.6738 81.2506 88.2455 83.2759 91.1999C85.5384 94.0701 88.5645 96.2438 92.0066 97.4712C92.4212 97.718 92.7379 98.1004 92.9032 98.5537C93.0684 99.0071 93.072 99.5037 92.9133 99.9594C92.7547 100.415 92.4435 100.802 92.0325 101.055C91.6215 101.307 91.1358 101.41 90.6576 101.346H90.5389C88.4543 100.67 86.4524 99.7609 84.5709 98.637C82.5913 97.4287 80.8382 95.8835 79.3908 94.0711C77.9109 92.1852 76.8113 90.0296 76.1532 87.7243C75.5132 85.4715 75.2114 83.1361 75.2575 80.7946C75.4209 76.3856 76.288 72.031 77.826 67.8958C79.2367 63.9301 80.9058 60.0612 82.8226 56.3139C84.6897 52.6116 86.6754 49.0064 88.715 45.52C90.7547 42.0336 92.8915 38.5903 94.5967 35.3089C95.0175 34.4994 95.3953 33.6898 95.6758 32.9882C95.798 32.6925 95.9025 32.3897 95.9888 32.0815C96.0536 31.8657 96.0428 31.6822 95.9888 31.9844C95.9831 32.3189 96.0379 32.6517 96.1507 32.9667C96.3815 33.6308 96.7925 34.2175 97.3378 34.6613C97.7137 34.9704 98.1517 35.195 98.622 35.3197H98.7947H98.8918C98.978 35.3279 99.0647 35.3279 99.1509 35.3197H98.471H97.5644C96.9601 35.3197 96.3557 35.3197 95.7406 35.3197C90.715 35.1808 85.8303 33.6283 81.6463 30.8402C79.1891 29.1908 77.2001 26.9337 75.8726 24.2883C75.0073 22.579 74.6515 20.6569 74.8474 18.751C75.107 16.7122 76.0915 14.8348 77.6209 13.462C78.2717 12.8874 78.9978 12.4044 79.7793 12.0264C80.1462 11.8429 80.4592 11.7134 80.8585 11.5299C81.0215 11.4529 81.1913 11.3915 81.3657 11.3464H81.56H81.6571C81.6571 11.3464 81.6571 11.3464 81.7866 11.2924H81.8622C82.3428 11.1041 82.8371 10.9526 83.3407 10.8391C84.2532 10.6293 85.2061 10.6778 86.0926 10.9794C86.7154 11.2014 87.2747 11.5719 87.7222 12.0588C88.0723 12.4308 88.3537 12.8621 88.5532 13.3325C88.7922 13.8941 88.931 14.4932 88.9633 15.1027C89.0132 15.8455 88.977 16.5917 88.8553 17.3262C88.7582 17.9523 88.6395 18.5352 88.4992 19.0856C88.2186 20.165 87.8949 21.2444 87.5387 22.2375C86.1065 26.1451 84.4082 29.9498 82.4557 33.6251C80.5585 37.2815 78.4617 40.8309 76.1748 44.2571C75.0201 45.9733 73.8006 47.6464 72.4948 49.3087C71.1649 51.0531 69.6284 52.6297 67.919 54.004C66.8512 54.8822 65.5706 55.4631 64.2066 55.6879C63.2904 55.8042 62.3606 55.6385 61.5409 55.213C60.7966 54.8058 60.1688 54.215 59.7171 53.4967C59.0621 52.4193 58.612 51.2299 58.3897 49.9887C58.1795 48.9199 58.0425 47.838 57.9796 46.7505C57.8131 42.6117 57.9538 38.4663 58.4005 34.3483C58.8214 30.279 59.3826 26.2744 60.0193 22.2159L64.1094 23.0902C63.7641 24.5258 63.3972 25.8966 63.0302 27.2782C62.6633 28.6599 62.2316 30.0307 61.8107 31.4015C60.9582 34.1432 60.0085 36.8633 58.9509 39.551C57.8919 42.2719 56.659 44.9218 55.26 47.4845C54.5356 48.801 53.7282 50.07 52.8426 51.284C51.9137 52.5804 50.826 53.7553 49.6051 54.7812C48.1963 56.0034 46.4428 56.7577 44.5868 56.94C43.5134 57.0351 42.4345 56.8335 41.4679 56.3571C40.512 55.8587 39.7071 55.1133 39.1369 54.1983C38.2216 52.6696 37.6473 50.9612 37.4533 49.1899C37.2421 47.6847 37.1447 46.1656 37.162 44.6457C37.2032 41.7226 37.4376 38.8055 37.8634 35.9134C38.0649 34.4742 38.2951 33.035 38.5541 31.5958C38.8131 30.171 39.0937 28.7786 39.4283 27.3322L42.9033 29.3399C40.9068 31.0237 38.8779 32.6536 36.8382 34.2943C34.7642 35.9426 32.6026 37.4775 30.363 38.8925C29.2197 39.611 28.034 40.2598 26.8125 40.8354C25.481 41.5432 24.0031 41.9313 22.4957 41.9688C22.0169 41.9555 21.5448 41.853 21.1035 41.6666C20.6173 41.453 20.1911 41.1231 19.8625 40.7059C19.3327 39.9741 19.0458 39.0944 19.0423 38.1909C19.0349 36.7357 19.3174 35.2937 19.8733 33.9489C20.1276 33.2868 20.4381 32.6476 20.8014 32.0384C20.9961 31.7121 21.2162 31.4017 21.4597 31.1101C21.5995 30.9414 21.7509 30.7826 21.9129 30.6352C22.0124 30.5497 22.1169 30.4704 22.2259 30.3977L22.4202 30.279L22.7655 30.1386H22.9382H23.154C23.2473 30.1288 23.3413 30.1288 23.4346 30.1386C23.7682 30.1991 24.07 30.3748 24.2872 30.6352C24.4891 30.8846 24.6329 31.1759 24.7081 31.4879C24.8049 31.8733 24.8628 32.2674 24.8807 32.6644C24.9215 33.351 24.9215 34.0395 24.8807 34.7261C24.6667 37.3419 24.3064 39.9437 23.8015 42.5193C23.3123 45.0811 22.7008 47.5996 21.9669 50.0751C21.2399 52.5946 20.3789 55.0735 19.3876 57.5013C18.3925 59.9927 17.0833 62.3469 15.4917 64.5065C14.6757 65.6666 13.6814 66.6903 12.5455 67.5396C11.2576 68.4729 9.7112 68.9822 8.12085 68.9968C7.19972 68.9862 6.29537 68.749 5.48761 68.306C4.69654 67.8394 4.02717 67.1921 3.53427 66.4171C2.70679 65.0931 2.12547 63.6304 1.81836 62.0995C1.2011 59.2796 0.954404 56.3912 1.0845 53.5075C1.12603 52.1267 1.25218 50.7496 1.46222 49.3842C1.56295 48.7078 1.67446 48.0314 1.79677 47.355C1.92627 46.6857 2.09895 46.0273 2.27162 45.3581C2.59091 44.0289 2.99095 42.7204 3.46952 41.4399C3.95516 40.1662 4.41921 38.8709 5.02356 37.6296C5.62791 36.3883 6.26463 35.1578 6.98769 33.9597C7.73915 32.7453 8.56825 31.5807 9.46984 30.4733C10.4433 29.2829 11.5596 28.217 12.7938 27.2998C13.5086 26.7847 14.2889 26.3673 15.114 26.0585C15.5871 25.8609 16.0843 25.7266 16.5925 25.6592C16.9104 25.6107 17.2314 25.5855 17.553 25.5836C17.6672 25.5632 17.7841 25.5632 17.8983 25.5836L18.1466 25.6376L18.6862 25.7563C19.1631 25.8735 19.5826 26.1572 19.869 26.5564C20.1553 26.9555 20.2898 27.4437 20.2482 27.9332C20.2065 28.4227 19.9915 28.8812 19.6418 29.2262C19.2921 29.5712 18.8307 29.7799 18.3408 29.8148L18.3516 29.858Z" fill="#3A3C51"/>
<path d="M3.5077 80.2549C2.95243 80.2549 2.41991 80.0343 2.02727 79.6416C1.63464 79.2489 1.41406 78.7162 1.41406 78.1609C1.41406 77.6055 1.63464 77.0729 2.02727 76.6802C2.41991 76.2875 2.95243 76.0668 3.5077 76.0668L65.7664 74.4909C66.0413 74.4838 66.315 74.531 66.5717 74.6297C66.8284 74.7284 67.0632 74.8767 67.2626 75.0661C67.462 75.2555 67.6222 75.4824 67.734 75.7337C67.8457 75.9851 67.9069 76.256 67.914 76.531C67.9211 76.806 67.8739 77.0797 67.7753 77.3364C67.6766 77.5932 67.5283 77.828 67.3389 78.0275C67.1495 78.2269 66.9227 78.3872 66.6714 78.4989C66.4201 78.6107 66.1492 78.6719 65.8743 78.679L3.56166 80.2549H3.5077Z" fill="#3A3C51"/>
<path d="M69.7915 12.8347L2.09364 12.5865C1.53837 12.5865 1.00584 12.3659 0.613212 11.9732C0.220579 11.5805 0 11.0478 0 10.4925C0 9.93709 0.220579 9.40447 0.613212 9.01176C1.00584 8.61906 1.53837 8.39844 2.09364 8.39844L69.7915 8.6467C70.3467 8.6467 70.8793 8.86731 71.2719 9.26002C71.6645 9.65272 71.8851 10.1853 71.8851 10.7407C71.8851 11.2961 71.6645 11.8287 71.2719 12.2214C70.8793 12.6141 70.3467 12.8347 69.7915 12.8347Z" fill="#3A3C51"/>
<path d="M121.072 28.1519C120.511 30.03 119.993 31.9837 119.432 33.9158L117.867 39.7446C116.852 43.6376 115.896 47.5414 114.996 51.456C114.111 55.3634 113.291 59.2816 112.59 63.1998C111.877 67.0455 111.365 70.9258 111.057 74.8248C110.924 76.6214 110.924 78.4253 111.057 80.2218C111.112 80.93 111.234 81.6313 111.424 82.3158C111.5 82.5641 111.575 82.7368 111.575 82.7584C111.575 82.78 111.424 82.6397 111.144 82.5533H110.939H110.679H110.777H110.96H110.679C110.644 82.5425 110.607 82.5425 110.572 82.5533C110.485 82.5533 110.572 82.5533 110.755 82.5533C111.322 82.2408 111.832 81.8358 112.266 81.3552C113.486 80.0275 114.571 78.5812 115.503 77.0376C117.527 73.6533 119.329 70.1415 120.899 66.5243C121.72 64.6965 122.507 62.8472 123.263 60.9762C124.018 59.1197 124.752 57.2199 125.421 55.3526C125.604 54.8655 125.962 54.464 126.424 54.2261C126.887 53.9882 127.421 53.9311 127.924 54.0658C128.426 54.2005 128.86 54.5174 129.142 54.9548C129.423 55.3922 129.532 55.9188 129.447 56.432C128.821 58.9578 128.238 61.5591 127.688 64.1389C127.137 66.7186 126.608 69.3199 126.188 71.9105C125.237 77.0616 124.609 82.2673 124.31 87.4969C124.149 90.0199 124.258 92.5527 124.633 95.0527C124.775 96.0838 125.115 97.0774 125.637 97.9778C125.786 98.221 125.999 98.4189 126.252 98.5499C126.504 98.6432 126.776 98.6656 127.04 98.6147C128.529 98.4528 130.224 96.607 131.519 94.5454C132.854 92.3629 134.03 90.0866 135.037 87.7344C137.195 82.9419 139.019 77.9551 141.059 73.0007C143.049 67.9613 145.315 63.0354 147.847 58.2454C149.141 55.8241 150.583 53.4846 152.164 51.2401C153.783 48.944 155.635 46.8208 157.689 44.9041C159.806 42.9214 162.239 41.3054 164.887 40.1223C167.591 38.9382 170.505 38.307 173.456 38.2658C174.315 38.25 175.145 38.5761 175.763 39.1722C176.381 39.7684 176.737 40.5858 176.753 41.4446C176.769 42.3034 176.443 43.1333 175.847 43.7517C175.251 44.3701 174.434 44.7264 173.575 44.7421H173.51C171.416 44.7221 169.339 45.1222 167.402 45.9187C165.372 46.7811 163.5 47.9778 161.866 49.4591C158.319 52.8252 155.342 56.7438 153.049 61.0626C150.537 65.6118 148.278 70.2963 146.282 75.0947C144.188 79.9412 142.224 84.8956 139.936 89.8716C138.777 92.4484 137.431 94.9375 135.911 97.3194C135.055 98.6406 134.052 99.8609 132.922 100.957C132.27 101.585 131.546 102.132 130.763 102.587C129.862 103.096 128.874 103.432 127.849 103.58C126.643 103.779 125.405 103.618 124.29 103.117C123.174 102.616 122.232 101.797 121.579 100.763C121.069 99.9809 120.673 99.1304 120.403 98.2369C120.16 97.4714 119.976 96.6883 119.853 95.8946C119.453 93.0342 119.366 90.1387 119.594 87.2595C119.996 81.8208 120.742 76.413 121.828 71.0686C122.338 68.4204 122.896 65.7867 123.5 63.1674C124.105 60.5445 124.741 57.9539 125.443 55.3202L129.479 56.3996C128.853 58.4073 128.206 60.3394 127.526 62.2823C126.846 64.2252 126.123 66.1573 125.367 68.0786C123.875 71.9714 122.134 75.7643 120.155 79.4339C119.119 81.3481 117.897 83.1558 116.507 84.8308C115.715 85.7861 114.779 86.6126 113.734 87.281C113.073 87.6912 112.34 87.9731 111.575 88.1122C111.359 88.1122 111.165 88.177 110.917 88.1877C110.665 88.2028 110.413 88.2028 110.161 88.1877H109.967H109.87H109.665H109.579C109.347 88.1329 109.12 88.0607 108.899 87.9719C108.085 87.627 107.377 87.072 106.848 86.3636C106.427 85.8017 106.086 85.1841 105.834 84.5286C105.415 83.4215 105.125 82.2697 104.971 81.0961C104.691 78.9494 104.583 76.7837 104.647 74.6198C104.785 70.4658 105.145 66.3222 105.726 62.2067C106.255 58.1158 106.913 54.0681 107.636 50.0312C108.359 45.9942 109.158 41.9789 110.01 37.9743C110.863 33.9698 111.759 29.9868 112.73 25.9823V25.7988C113.002 24.6852 113.705 23.7252 114.684 23.1301C115.664 22.535 116.84 22.3534 117.953 22.6254C119.067 22.8973 120.026 23.6005 120.621 24.5803C121.216 25.56 121.398 26.736 121.126 27.8496L121.072 28.1519Z" fill="#3A3C51"/>
<path d="M148.068 87.7661L150.831 84.1178C152.579 81.7755 155.051 78.4186 157.921 74.3385C159.357 72.2876 160.878 70.0209 162.443 67.6786C164.008 65.3363 165.594 62.7566 167.062 60.1229C167.796 58.8132 168.445 57.4576 169.005 56.0643C169.24 55.4969 169.403 54.9022 169.49 54.2941C169.49 54.0998 169.404 54.0459 169.631 54.4452C169.76 54.6387 169.944 54.7891 170.159 54.877H170.267H170.451H170.332H170.181H170.31H170.397C170.332 54.9009 170.27 54.9336 170.213 54.9741C169.994 55.1128 169.792 55.2757 169.609 55.4599C169.123 55.9528 168.686 56.4914 168.303 57.0682C167.445 58.3688 166.695 59.7369 166.058 61.1591C164.72 64.086 163.637 67.1232 162.821 70.2368C162.037 73.2409 161.542 76.3132 161.342 79.4116C161.052 82.0869 161.377 84.7931 162.292 87.3236C162.499 87.7915 162.772 88.2277 163.101 88.6188C163.243 88.7894 163.403 88.945 163.576 89.083C163.658 89.1511 163.744 89.2124 163.835 89.2665L163.965 89.3528L163.846 89.2881L163.965 89.342L164.418 89.5687C164.526 89.5687 164.537 89.5687 164.591 89.5687C164.651 89.5815 164.714 89.5815 164.774 89.5687C164.85 89.5687 164.925 89.5687 165.001 89.5687C165.337 89.5692 165.668 89.4955 165.972 89.3528C166.798 88.9432 167.532 88.3704 168.13 87.669C168.774 86.9428 169.358 86.1669 169.879 85.3483C170.766 83.9398 171.556 82.472 172.242 80.9551C172.825 79.6815 173.235 78.6452 173.505 77.9436L173.893 76.8642C174.084 76.3641 174.46 75.9561 174.942 75.7241C175.424 75.4921 175.977 75.4536 176.487 75.6167C176.997 75.7798 177.425 76.1319 177.683 76.6008C177.941 77.0698 178.01 77.6198 177.876 78.1379V78.2027L177.53 79.444C177.282 80.232 176.969 81.3977 176.386 82.8225C175.706 84.586 174.901 86.2993 173.98 87.9496C173.371 89.034 172.675 90.0666 171.897 91.0367C170.887 92.3239 169.605 93.3709 168.141 94.1022C167.131 94.587 166.024 94.8379 164.904 94.8362C164.604 94.8383 164.304 94.8166 164.008 94.7714C163.686 94.7437 163.368 94.6822 163.058 94.5879C162.745 94.5015 162.335 94.3612 162.109 94.2641L161.645 94.059H161.526L161.278 93.9295H161.191L160.835 93.7136C160.599 93.569 160.372 93.4104 160.155 93.2387C159.726 92.9179 159.328 92.5564 158.968 92.1593C158.289 91.3863 157.722 90.5214 157.285 89.5903C156.516 87.9057 156.021 86.1094 155.817 84.2689C155.603 82.5397 155.549 80.7945 155.655 79.0554C155.85 75.5925 156.389 72.1576 157.263 68.8012C158.154 65.3587 159.342 62 160.814 58.7628C161.547 57.0317 162.54 55.4228 163.76 53.9919C164.443 53.1849 165.218 52.4605 166.069 51.8331C166.583 51.4633 167.133 51.1451 167.71 50.8832C168.057 50.7234 168.418 50.5969 168.789 50.5055C168.998 50.4494 169.211 50.4098 169.426 50.3867H169.771H170.246H170.721H170.872H170.947C170.947 50.3867 171.368 50.4623 171.228 50.4407L171.649 50.6026C172.266 50.8776 172.785 51.3329 173.138 51.9087C173.574 52.6905 173.697 53.6084 173.483 54.4776C173.25 55.4465 172.887 56.3796 172.404 57.2517C171.649 58.8384 170.861 60.2632 170.073 61.6664C168.465 64.4404 166.771 66.9878 165.195 69.4272L160.652 76.2058L156.788 81.9158L153.864 86.3521C153.043 87.5718 152.396 88.5109 151.986 89.2125L151.327 90.2919C150.995 90.6644 150.54 90.9058 150.046 90.9727C149.551 91.0395 149.049 90.9274 148.63 90.6564C148.21 90.3855 147.901 89.9737 147.759 89.4952C147.616 89.0167 147.65 88.503 147.852 88.0468L147.939 87.9172L148.068 87.7661Z" fill="#3A3C51"/>
<path d="M196.688 65.2409L196.796 64.4961C196.882 63.9672 196.936 63.4167 197.001 62.5208C197.191 60.1065 196.799 57.6817 195.857 55.4508C195.283 54.0854 194.242 52.9684 192.921 52.2989C192.24 52.0135 191.492 51.9238 190.763 52.0399C189.898 52.2082 189.084 52.578 188.389 53.1193C186.598 54.5658 185.174 56.415 184.234 58.5162C183 61.0507 181.958 63.6737 181.115 66.3634C180.167 69.312 179.396 72.3144 178.805 75.3548C178.138 78.5229 177.834 81.7568 177.899 84.9938C177.932 85.7562 178.03 86.5145 178.19 87.2605C178.298 87.8559 178.522 88.4242 178.849 88.9336C179.129 89.279 179.194 89.3006 179.539 89.3329C180.115 89.3019 180.676 89.1395 181.18 88.858C181.526 88.6928 181.861 88.5053 182.183 88.2967C182.356 88.1888 182.518 88.0916 182.691 87.9621L183.133 87.6491L183.673 87.2065L184.04 86.8503C184.288 86.5913 184.59 86.2783 184.849 85.9652C185.97 84.5886 186.977 83.1229 187.86 81.5829C189.751 78.288 191.448 74.8858 192.943 71.3934C194.508 67.8422 195.954 64.1723 197.346 60.4376C200.12 52.9682 202.634 45.2613 204.9 37.4788C207.205 29.786 209.093 21.9742 210.555 14.0776C210.893 12.2238 211.095 10.3479 211.16 8.46474C211.167 8.10339 211.142 7.7421 211.084 7.38534C211.084 7.26661 211.019 7.20185 211.084 7.38534C211.124 7.45145 211.175 7.50994 211.235 7.55805C211.345 7.67486 211.472 7.77327 211.613 7.84948C211.773 7.92152 211.939 7.97931 212.109 8.02219C212.27 8.05065 212.434 8.05065 212.595 8.02219C212.666 8.03469 212.739 8.03469 212.811 8.02219H212.908L212.973 7.96822L212.703 8.21648C212.606 8.30283 212.638 8.31362 212.584 8.3568C212.53 8.39998 212.412 8.58348 212.304 8.7238C212.196 8.86412 212.088 9.05841 211.98 9.22032C211.093 10.8047 210.353 12.4667 209.768 14.1855C209.131 15.9449 208.57 17.7475 208.062 19.5825C206.137 26.5888 204.613 33.6991 203.497 40.8789C202.418 47.7331 201.652 54.2634 201.339 60.308C200.904 65.6342 201.063 70.9922 201.814 76.2831C201.996 77.3235 202.282 78.3432 202.666 79.327C202.869 79.9686 203.242 80.5432 203.746 80.9892C203.821 80.9892 203.875 81.0648 203.94 81.0648H204.328C204.536 81.0428 204.742 81.0031 204.944 80.946C205.534 80.7037 206.064 80.3354 206.498 79.8666C207.455 78.8784 208.263 77.7546 208.893 76.5313C209.413 75.5689 209.878 74.5779 210.286 73.563C210.62 72.7319 210.847 72.0734 210.998 71.6417L211.203 71.0048C211.374 70.5019 211.73 70.0828 212.198 69.8324C212.667 69.582 213.213 69.5191 213.726 69.6563C214.239 69.7935 214.681 70.1207 214.962 70.5715C215.243 71.0223 215.342 71.563 215.239 72.0842V72.1382L215.045 72.9477C214.915 73.4658 214.721 74.2106 214.408 75.1821C214.034 76.3961 213.576 77.5826 213.037 78.7333C212.268 80.4434 211.238 82.0238 209.983 83.4179C209.047 84.4469 207.888 85.2481 206.595 85.7601C206.193 85.9139 205.777 86.0295 205.354 86.1055C204.845 86.197 204.327 86.2332 203.81 86.2135H203.422H203.271H202.958L202.537 86.1271C201.979 85.9959 201.442 85.7889 200.94 85.5119C199.384 84.5323 198.164 83.1014 197.443 81.4102C196.84 80.0888 196.38 78.7065 196.073 77.2869C194.953 71.4972 194.54 65.5929 194.842 59.7036C195.046 52.969 195.633 46.2514 196.601 39.5837C197.076 36.0325 197.681 32.4165 198.447 28.725C199.213 25.0334 200.033 21.2663 201.091 17.4129C201.545 15.4048 202.345 13.4909 203.454 11.7569C204.723 9.88511 206.137 8.11659 207.685 6.46786C207.901 6.23039 208.084 6.01452 208.321 5.77705C208.559 5.53958 208.731 5.3345 209.098 4.99988C209.249 4.87036 209.455 4.67607 209.552 4.60051L209.854 4.38463C209.768 4.46019 210.048 4.22272 210.102 4.20114L210.275 4.0932L210.631 3.88811L210.825 3.79097L211.138 3.67223C211.346 3.5998 211.559 3.54209 211.775 3.49953C212.097 3.45068 212.424 3.45068 212.746 3.49953C213.079 3.54304 213.399 3.65712 213.685 3.83415C213.962 3.98888 214.213 4.18549 214.43 4.41701C214.571 4.58827 214.701 4.76855 214.818 4.95671C215.092 5.41799 215.275 5.9272 215.358 6.45707C215.463 7.10265 215.503 7.7572 215.476 8.41077C215.36 10.5301 215.082 12.6374 214.645 14.7144C213.847 18.7514 212.832 22.7019 211.742 26.6417C210.652 30.5815 209.584 34.5213 208.321 38.4395C207.059 42.3577 205.85 46.2435 204.533 50.1078C203.217 53.972 201.922 57.8146 200.519 61.5925C199.116 65.3704 197.616 69.0943 196.062 72.7427C194.536 76.3743 192.799 79.9135 190.86 83.3423C189.885 85.0682 188.77 86.7108 187.525 88.2535C187.202 88.6529 186.867 89.0091 186.446 89.4085L185.831 89.9914L185.291 90.4339C184.47 91.0845 183.588 91.6555 182.658 92.1394C181.616 92.7127 180.448 93.0204 179.259 93.0352C178.536 93.0227 177.827 92.8416 177.187 92.5064C176.568 92.1738 176.028 91.714 175.6 91.1571C174.92 90.232 174.435 89.1779 174.176 88.0592C173.938 87.0984 173.775 86.1203 173.69 85.1341C173.414 81.5542 173.548 77.9544 174.089 74.4049C174.542 71.1308 175.191 67.8868 176.032 64.6904C176.802 61.6874 177.834 58.7581 179.118 55.9365C180.397 52.9781 182.388 50.3823 184.914 48.3807C186.336 47.3323 187.985 46.6335 189.727 46.3407C191.497 46.0684 193.307 46.3159 194.939 47.0531C196.333 47.7016 197.567 48.6487 198.555 49.8271C199.352 50.8052 200 51.8965 200.476 53.0653C201.676 56.1183 201.99 59.4482 201.382 62.6719C201.277 63.4696 201.103 64.2567 200.864 65.025L200.638 65.7482L200.54 66.0612C200.381 66.5571 200.042 66.9754 199.59 67.2336C199.137 67.4918 198.605 67.5711 198.097 67.456C197.589 67.3408 197.143 67.0395 196.846 66.6115C196.549 66.1835 196.423 65.6598 196.493 65.1437L196.688 65.2409Z" fill="#3A3C51"/>
<path d="M232.624 56.6267C232.573 54.2314 232.018 51.8739 230.995 49.7077C229.915 47.7972 228.836 47.4842 226.678 48.3153C225.748 48.7915 224.934 49.4657 224.293 50.2906C223.494 51.2426 222.772 52.2569 222.134 53.3237C220.789 55.5537 219.627 57.8893 218.659 60.3074C217.666 62.7369 216.844 65.2328 216.199 67.7768C215.531 70.2062 215.2 72.7159 215.217 75.2354C215.182 76.0938 215.403 76.9432 215.853 77.6748C215.972 77.7612 215.951 77.7828 216.231 77.8044C216.64 77.7811 217.042 77.6861 217.418 77.5237C219.318 76.8437 221.044 74.9332 222.652 72.9255C225.814 68.661 228.592 64.1241 230.951 59.3683C233.412 54.5866 235.657 49.6538 237.75 44.7102C239.844 39.7665 241.787 34.6934 243.535 29.5986C245.319 24.5396 246.825 19.3868 248.046 14.1633C248.656 11.6869 249.018 9.1558 249.125 6.60755C249.135 6.08946 249.088 5.57184 248.985 5.06402C248.96 4.94095 248.92 4.82135 248.866 4.70782C248.947 4.80166 249.051 4.87242 249.168 4.9129C249.362 4.98846 249.492 4.9129 249.362 4.97766C249.233 5.04243 249.362 4.97766 249.362 4.97766L249.19 5.07481C248.823 5.34533 248.5 5.66913 248.229 6.03547C246.817 8.10406 245.702 10.3604 244.916 12.7385C244.02 15.2103 243.265 17.7685 242.585 20.2943C241.26 25.4958 240.208 30.7633 239.434 36.075C238.634 41.388 238.101 46.7377 237.837 52.104C237.505 57.3865 237.719 62.6891 238.473 67.9279C238.68 69.1648 238.979 70.3844 239.369 71.5763C239.685 72.6234 240.19 73.6038 240.858 74.469C241.099 74.7644 241.401 75.0038 241.743 75.1707C241.88 75.2353 242.025 75.279 242.175 75.3002H242.488C242.488 75.3002 242.488 75.3002 242.542 75.3002C243.373 75.0366 244.097 74.5101 244.603 73.7998C246.128 71.825 247.367 69.6447 248.283 67.3235C249.308 64.9056 250.172 62.3906 250.97 59.8433C252.534 54.7139 253.834 49.508 254.866 44.246C254.963 43.715 255.261 43.2418 255.698 42.9253C256.135 42.6087 256.678 42.4732 257.212 42.547C257.747 42.6208 258.232 42.8982 258.567 43.3214C258.902 43.7445 259.061 44.2807 259.01 44.8181C259.516 45.1189 259.93 45.5517 260.208 46.0702C260.399 46.4352 260.481 46.8472 260.446 47.2575L260.316 49.5998C260.244 51.1613 260.194 52.7264 260.165 54.2952C260.095 57.3671 260.189 60.4405 260.446 63.5024C260.563 64.9233 260.783 66.3338 261.104 67.7228C261.233 68.2747 261.414 68.8132 261.644 69.3311C261.704 69.4579 261.772 69.5805 261.849 69.6981C261.753 69.6258 261.652 69.5608 261.547 69.5038C261.4 69.4344 261.243 69.3906 261.082 69.3743C261.007 69.3673 260.931 69.3673 260.856 69.3743H260.705H260.532H260.683H260.759C260.688 69.3821 260.619 69.4003 260.554 69.4283C260.807 69.2438 261.023 69.0131 261.19 68.7483C261.902 67.6514 262.488 66.4784 262.939 65.251C264.018 62.5094 264.838 59.4439 265.755 56.346C266.219 54.7917 266.684 53.2158 267.255 51.5967C267.841 49.7694 268.692 48.0382 269.781 46.4588C270.198 45.8983 270.701 45.4066 271.27 45.0016C271.647 44.7402 272.057 44.5297 272.49 44.3755C272.731 44.2881 272.981 44.2231 273.234 44.1813H273.428H273.526H273.72H273.893C274.51 44.159 275.124 44.2695 275.695 44.5051C276.146 44.6941 276.565 44.9527 276.936 45.2714C277.473 45.737 277.926 46.2921 278.274 46.9121C278.772 47.8069 279.157 48.7606 279.418 49.7509C279.654 50.6111 279.845 51.483 279.99 52.3631C280.261 54.0292 280.449 55.708 280.551 57.393C280.648 59.0553 280.67 60.6312 280.648 62.3798L276.58 61.7538C277.918 57.9867 279.342 54.3168 280.896 50.6576C282.424 46.9581 284.171 43.3536 286.131 39.8637C286.649 38.9786 287.21 38.0935 287.814 37.2192C288.462 36.2733 289.215 35.4042 290.059 34.6286C290.621 34.1158 291.277 33.7163 291.991 33.4521C292.54 33.2503 293.13 33.1842 293.711 33.2594C294.291 33.3345 294.845 33.5488 295.325 33.8838C295.473 33.9852 295.614 34.0971 295.746 34.2185L296.07 34.5423L296.286 34.8121C296.534 35.1455 296.741 35.5079 296.901 35.8915C297.147 36.5255 297.307 37.19 297.376 37.8668C297.523 40.0342 297.385 42.2116 296.966 44.3432C296.631 46.3508 296.221 48.2937 295.8 50.2151C295.379 52.1364 294.958 54.0469 294.591 55.9359C294.209 57.7796 293.924 59.6424 293.739 61.5163C293.67 62.3785 293.67 63.2447 293.739 64.1069C293.75 64.7311 293.905 65.3442 294.192 65.8987C294.249 65.9895 294.332 66.061 294.43 66.1037H294.289H294.462H294.527H294.451H294.311H294.203C294.645 65.7777 295.012 65.3621 295.282 64.884C296.229 63.3519 297.01 61.7237 297.613 60.0267C298.282 58.2673 298.865 56.4432 299.405 54.6298C299.944 52.8164 300.484 50.9167 300.894 49.0385C301.304 47.1604 301.779 45.2499 302.157 43.3933C302.288 42.8721 302.615 42.4214 303.069 42.1345C303.523 41.8475 304.07 41.7462 304.597 41.8516C305.124 41.957 305.591 42.261 305.9 42.7007C306.209 43.1404 306.337 43.6821 306.258 44.2136C305.858 46.1997 305.427 48.1102 304.952 50.0532C304.477 51.9961 303.97 53.9066 303.409 55.8279C302.847 57.7492 302.232 59.6598 301.509 61.5703C300.796 63.5727 299.866 65.491 298.736 67.2911C298.397 67.8025 298.015 68.2829 297.592 68.7267C297.049 69.3037 296.391 69.7598 295.66 70.0651C295.168 70.2547 294.644 70.3464 294.117 70.335C293.951 70.3469 293.785 70.3469 293.62 70.335H293.361H293.242H293.07L292.886 70.2702H292.811L292.66 70.2054C291.86 69.8409 291.176 69.2618 290.685 68.5324C289.877 67.2688 289.446 65.801 289.444 64.3012C289.358 63.2235 289.358 62.1407 289.444 61.063C289.641 59.0332 289.948 57.0154 290.361 55.0184C290.75 53.0539 291.17 51.1325 291.591 49.222C292.012 47.3115 292.401 45.4118 292.671 43.5444C293.016 41.8113 293.147 40.0421 293.059 38.277C293.033 37.9747 292.968 37.6772 292.865 37.3919C292.839 37.331 292.806 37.2731 292.768 37.2192L292.832 37.2839C292.962 37.3703 292.757 37.2192 292.681 37.1652C292.752 37.2262 292.834 37.2712 292.924 37.2973C293.013 37.3234 293.107 37.3299 293.199 37.3163C293 37.4127 292.818 37.5402 292.66 37.6941C291.447 38.9398 290.415 40.3496 289.595 41.8821C287.724 45.2298 286.056 48.6865 284.598 52.2335C283.098 55.7955 281.684 59.4547 280.389 63.0275C280.228 63.4888 279.91 63.8791 279.491 64.1307C279.072 64.3823 278.578 64.4793 278.095 64.405C277.612 64.3307 277.17 64.0897 276.846 63.7237C276.522 63.3578 276.336 62.89 276.321 62.4014C276.267 60.8903 276.148 59.3036 275.986 57.7708C275.824 56.2381 275.608 54.6946 275.306 53.2266C275.076 51.8845 274.643 50.5852 274.022 49.3731C273.939 49.2249 273.833 49.0902 273.709 48.9738C273.811 49.0034 273.92 49.0034 274.022 48.9738C273.877 49.0919 273.75 49.23 273.644 49.3839C272.914 50.5567 272.347 51.8242 271.961 53.151C271.486 54.5974 271.065 56.1193 270.655 57.6521C269.824 60.7284 269.047 63.8694 267.914 67.0536C267.345 68.7458 266.565 70.3596 265.594 71.8569C264.986 72.7754 264.192 73.5552 263.262 74.1452C262.983 74.3097 262.691 74.4505 262.388 74.5662C262.216 74.631 262 74.6957 261.806 74.7497L261.471 74.8145C261.053 74.878 260.627 74.878 260.208 74.8145C259.794 74.7598 259.39 74.6433 259.01 74.469C258.366 74.154 257.801 73.6963 257.359 73.1306C257.014 72.6925 256.718 72.2184 256.474 71.7166C256.07 70.8653 255.752 69.9758 255.525 69.0613C255.116 67.4009 254.831 65.7124 254.672 64.0097C254.37 60.7411 254.244 57.4586 254.294 54.1764C254.294 52.5501 254.334 50.9275 254.413 49.3084C254.478 47.6785 254.564 46.0702 254.683 44.4295L258.827 44.98C257.575 50.377 256.248 55.6876 254.672 60.9982C253.863 63.6427 252.956 66.2656 251.931 68.8994C250.919 71.668 249.505 74.2721 247.733 76.6278C247.19 77.2958 246.571 77.8972 245.887 78.4196C245.058 79.0563 244.089 79.4856 243.06 79.6717C242.725 79.7274 242.385 79.7527 242.046 79.7473H241.743H241.517H241.42C240.869 79.6749 240.332 79.526 239.822 79.3047C238.875 78.8892 238.028 78.2744 237.34 77.5021C236.243 76.2305 235.39 74.7666 234.826 73.1846C234.31 71.774 233.884 70.3319 233.552 68.867C232.436 63.2824 231.85 57.6047 231.804 51.9097C231.714 46.307 231.933 40.7036 232.462 35.1251C232.689 32.3295 233.088 29.5555 233.541 26.7814C233.995 24.0074 234.621 21.2441 235.236 18.4701C235.807 15.6223 236.747 12.861 238.031 10.2559C238.764 8.90799 239.601 7.61956 240.535 6.40246C241.541 5.07063 242.649 3.81841 243.848 2.65696C244.58 1.92769 245.403 1.29638 246.298 0.778822C246.579 0.6254 246.871 0.491944 247.172 0.379443C247.355 0.314679 247.452 0.271503 247.711 0.185152L248.057 0.0880101H248.218C249.107 -0.082606 250.026 -0.00416121 250.873 0.314682C251.787 0.679898 252.549 1.34635 253.032 2.20362C253.341 2.74862 253.563 3.33861 253.69 3.95223C253.867 4.82926 253.94 5.72423 253.906 6.61834C253.729 9.53966 253.245 12.4341 252.46 15.2535C251.057 20.6505 249.222 25.8531 247.366 31.0342C245.51 36.2153 243.351 41.2453 241.247 46.2969C239.142 51.3484 236.811 56.3244 234.286 61.2033C231.807 66.1673 228.889 70.8995 225.566 75.3434C224.683 76.4923 223.716 77.5746 222.674 78.5815C222.124 79.1171 221.532 79.608 220.904 80.0495C220.753 80.1574 220.548 80.287 220.364 80.4057L220.138 80.5352L219.987 80.6216L219.857 80.6863C219.506 80.8703 219.146 81.036 218.778 81.1829C217.949 81.5291 217.064 81.7229 216.166 81.755C215.599 81.7639 215.035 81.6608 214.507 81.4515C213.979 81.2422 213.498 80.9308 213.091 80.5352C212.404 79.8226 211.903 78.9513 211.634 77.9987C211.395 77.2147 211.24 76.408 211.17 75.5916C210.989 72.6568 211.214 69.711 211.839 66.8377C212.385 64.0402 213.139 61.2873 214.094 58.602C215.058 55.878 216.284 53.2536 217.753 50.7656C218.526 49.4493 219.419 48.2064 220.418 47.0524C221.571 45.6179 223.052 44.4814 224.735 43.7387C225.62 43.3749 226.549 43.1317 227.498 43.0155C228.59 42.8894 229.697 43.0112 230.736 43.3717C231.788 43.7484 232.738 44.3656 233.509 45.1743C234.168 45.8665 234.72 46.6522 235.149 47.5058C235.876 48.9578 236.347 50.5243 236.542 52.1364C236.769 53.6289 236.837 55.1413 236.747 56.6483V56.7994C236.709 57.3274 236.472 57.8214 236.085 58.182C235.697 58.5427 235.188 58.7431 234.658 58.7431C234.129 58.7431 233.62 58.5427 233.232 58.182C232.845 57.8214 232.608 57.3274 232.57 56.7994L232.624 56.6267Z" fill="#3A3C51"/>
<path d="M320.609 43.9125L320.674 42.8331C320.674 42.4554 320.674 42.1315 320.674 41.689C320.662 41.1655 320.623 40.6431 320.555 40.1239C320.413 38.7777 320.049 37.4645 319.476 36.238C319.173 35.5642 318.757 34.9473 318.246 34.4139C317.815 33.9231 317.265 33.5514 316.648 33.3345C316.124 33.1744 315.565 33.1744 315.04 33.3345C314.269 33.5946 313.576 34.0436 313.022 34.6405C312.159 35.4885 311.431 36.4641 310.864 37.5333C310.681 37.814 310.54 38.1594 310.368 38.4724L310.249 38.7098V38.7746C310.249 38.8502 310.249 38.7746 310.249 38.7746L310.184 38.9257L309.914 39.5194L309.634 40.1131L309.407 40.642C309.256 40.9982 309.094 41.3328 308.943 41.7214C307.639 45.0213 306.677 48.4466 306.072 51.9432C305.721 53.8251 305.505 55.7297 305.425 57.6424C305.317 59.5236 305.429 61.411 305.759 63.2661C305.897 63.973 306.152 64.6517 306.515 65.2737C306.655 65.4248 306.731 65.576 306.795 65.6084C306.86 65.6407 306.882 65.6083 306.925 65.6947C306.968 65.781 307.065 65.6947 307.195 65.6947C307.937 65.5732 308.638 65.269 309.234 64.8096C310.032 64.1728 310.756 63.4487 311.393 62.6508C314.315 58.8263 316.823 54.7013 318.872 50.3457C321.168 45.6863 323.224 40.9128 325.034 36.0438C325.94 33.5396 326.825 30.9994 327.689 28.4232L328.336 26.4803L328.498 25.9946V25.8651C328.789 25.9406 327.904 25.5197 329.2 25.9298C329.2 26.0809 329.2 26.1241 329.135 26.2213C329.038 26.5559 328.962 26.8797 328.897 27.2143C328.638 28.542 328.422 29.9128 328.196 31.2728C327.764 34.0037 327.257 36.7561 326.879 39.541L325.681 47.9603C324.991 53.6271 324.257 59.3694 323.458 65.155C322.66 70.9405 321.818 76.7693 320.868 82.6088C320.426 85.534 319.789 88.4483 319.239 91.3627L318.321 95.6803L317.242 99.9978C315.849 105.821 314.13 111.562 312.094 117.193C309.936 122.805 307.583 128.407 303.461 133.481C302.361 134.872 301.019 136.053 299.5 136.967C299.059 137.227 298.593 137.441 298.108 137.604C297.592 137.79 297.056 137.913 296.511 137.971C295.404 138.078 294.288 137.896 293.273 137.442C293.1 137.356 292.971 137.312 292.755 137.194C292.539 137.075 292.226 136.87 291.967 136.697C291.517 136.39 291.107 136.028 290.748 135.618C290.435 135.223 290.154 134.804 289.906 134.366C289.692 133.944 289.508 133.508 289.356 133.06C288.873 131.459 288.69 129.783 288.816 128.116C289.067 125.151 289.687 122.228 290.661 119.416C291.516 116.71 292.521 114.054 293.672 111.461C297.954 101.645 303.143 92.2492 309.17 83.3968C312.04 79.1763 314.997 75.1934 318.008 71.4587C321.019 67.724 324.127 64.2699 327.149 61.0101C332.645 54.9974 338.766 49.5878 345.409 44.8732C350.59 41.1921 356.251 38.2394 362.234 36.0977C366.192 34.7518 370.326 33.9882 374.504 33.831H376.447C377.008 33.831 377.526 33.885 377.86 33.9065L379.015 33.9821C379.289 33.9991 379.556 34.0698 379.802 34.1902C380.049 34.3107 380.269 34.4784 380.45 34.6839C380.631 34.8893 380.77 35.1285 380.859 35.3878C380.948 35.647 380.985 35.9213 380.968 36.1949C380.951 36.4684 380.881 36.736 380.76 36.9822C380.64 37.2285 380.472 37.4486 380.267 37.63C380.061 37.8114 379.822 37.9506 379.563 38.0396C379.304 38.1285 379.03 38.1656 378.756 38.1486H378.454L377.439 38.0838C377.105 38.0838 376.695 38.019 376.198 38.019H374.482C370.718 38.1765 366.999 38.9044 363.453 40.1778C357.879 42.2315 352.613 45.0427 347.805 48.5323C341.458 53.11 335.616 58.3493 330.376 64.162C324.031 71.0087 318.256 78.3622 313.109 86.1492C310.378 90.2941 307.713 94.6548 305.285 99.2315C302.775 103.849 300.523 108.602 298.54 113.469C297.56 115.91 296.717 118.403 296.014 120.938C295.292 123.299 294.853 125.738 294.708 128.202C294.664 129.117 294.77 130.032 295.021 130.912C295.021 131.095 295.14 131.138 295.173 131.279C295.218 131.34 295.257 131.405 295.291 131.473L295.226 131.419C295.17 131.4 295.11 131.4 295.054 131.419C295.119 131.419 295.356 131.549 295.496 131.613C295.637 131.678 295.496 131.613 295.561 131.678C295.626 131.743 295.561 131.678 295.701 131.678C295.817 131.651 295.926 131.603 296.025 131.538C296.838 131.013 297.547 130.343 298.119 129.562C299.695 127.454 301.037 125.182 302.123 122.784C303.32 120.28 304.4 117.646 305.36 114.958C307.378 109.561 309.116 104.002 310.756 98.3788C313.994 87.1207 316.713 75.7115 319.185 64.3347C320.408 58.6642 321.566 53.0334 322.66 47.4422L325.778 30.8411C326.027 29.4594 326.253 28.1426 326.555 26.6854L326.674 26.1457L326.804 25.6276V25.5305C326.804 25.5305 326.804 25.3793 326.804 25.6492C334.725 27.9807 329.113 26.027 330.829 26.6746V26.761L330.689 27.2251L330.095 29.1788C329.297 31.7909 328.476 34.3743 327.635 36.9289C325.962 42.0344 324.138 46.9672 322.239 51.7921C321.289 54.1992 320.296 56.563 319.206 58.8621C318.123 61.2106 316.856 63.4699 315.418 65.6191C314.628 66.7974 313.709 67.8835 312.677 68.8573L312.224 69.2459L311.717 69.6345C311.404 69.872 311.037 70.0662 310.702 70.2821C309.911 70.7463 309.052 71.0815 308.155 71.2752C307.618 71.3778 307.072 71.4248 306.526 71.4155C305.93 71.3842 305.342 71.2716 304.777 71.0809C303.72 70.7151 302.768 70.0963 302.004 69.2783C300.926 68.0588 300.12 66.6238 299.64 65.0687C298.894 62.6706 298.505 60.1756 298.486 57.664C298.444 55.4204 298.563 53.1767 298.842 50.9502C299.329 46.8671 300.274 42.8517 301.658 38.9797C301.81 38.5263 302.004 38.0514 302.187 37.5765L302.468 36.8749L302.727 36.2704L302.997 35.6768L303.18 35.299L303.353 34.9644C303.59 34.5218 303.784 34.0793 304.054 33.6583C305.035 31.8935 306.288 30.2943 307.767 28.9198C309.361 27.4632 311.312 26.4541 313.422 25.9946C314.488 25.7856 315.582 25.7527 316.659 25.8974C317.686 26.0579 318.681 26.3822 319.605 26.8581C321.185 27.6696 322.536 28.8646 323.534 30.3338C324.326 31.5036 324.924 32.794 325.304 34.1548C325.844 36.1362 325.995 38.2038 325.746 40.2426C325.672 40.9425 325.56 41.6379 325.412 42.3258C325.3 42.8253 325.163 43.3188 325.001 43.8046L324.624 44.884C324.412 45.3124 324.063 45.6583 323.634 45.8674C323.204 46.0765 322.717 46.1371 322.249 46.0395C321.781 45.942 321.359 45.6919 321.048 45.3284C320.738 44.965 320.557 44.5087 320.534 44.0313L320.609 43.9125Z" fill="#3A3C51"/>
</svg>
