<svg xmlns="http://www.w3.org/2000/svg" width="374" height="96" fill="none" xmlns:v="https://vecta.io/nano"><path d="M372.186 22.003c-2.6-.47-5.22-.26-7.65-.757a31.69 31.69 0 0 1-3.184-.835c3.013-.91 5.72-2.624 7.83-4.96 2.167-2.428 4.307-6.213 2.61-9.502s-6.057-2.193-8.432 0c-1.68 1.538-3.146 3.294-4.36 5.22-1.514-5.952-4.594-13.914-9.45-10.233-2.35 1.8-1.906 6.213-1.436 8.745a16.66 16.66 0 0 0 4.099 8.354C302.616 51.7 241.48 52.702 183.552 51.292c-55.97-1.357-115.332-.6-164.644-30.673a11.28 11.28 0 0 0 3.837-6.422c.223-1.522-.047-3.075-.77-4.433s-1.862-2.448-3.25-3.112a5.64 5.64 0 0 0-4.393.368 5.64 5.64 0 0 0-1.741 1.425c-.48.587-.834 1.265-1.045 1.992l-.157.392c-.21-.313-.392-.653-.626-.966C8.7 7.253 4.393 4.8 1.47 7.593s-.992 6.5 1.514 8.432a29.97 29.97 0 0 0 8.745 4.568c0 .392.157.783.235 1.175a1.12 1.12 0 0 0 .365.6 36.55 36.55 0 0 0-3.106 6.344c-1.193 2.504-2.112 5.13-2.74 7.832a1.2 1.2 0 0 0 .874 1.321 1.2 1.2 0 0 0 1.423-.694c.992-2.428 1.566-5.012 2.428-7.492s1.906-4.62 2.61-7.022a1.8 1.8 0 0 0 .888.548 16.03 16.03 0 0 0-.991 6.904c.18 2.346.875 4.624 2.035 6.67.705 1.15 2.767.418 2.27-.966a25.64 25.64 0 0 1-1.827-6.317 27.39 27.39 0 0 1 .366-6.526.6.6 0 0 0 0-.339l.705-.574a132.26 132.26 0 0 0 17.386 10.599c-4.502 12.743-10.302 25-17.307 36.547-.914 1.436.6 2.872 2 2.61a61.11 61.11 0 0 0 23.86-8.667c2.222 7.298 5.297 14.307 9.163 20.884.16.26.38.473.646.622s.564.226.868.226.603-.078.868-.226.488-.363.646-.622c7.153-11.512 15.193-23.286 20.884-35.633.12-.22.18-.467.18-.718s-.062-.497-.18-.718l4.046.835c-.066.087-.12.184-.157.287-4.254 13.415-7.2 27.21-8.797 41.194-.157 1.358 1.566 2.062 2.61 1.488 7.414-4.142 14.662-8.545 21.745-13.21 5.22 5.743 11 11.173 16.602 16.63.25.24.563.4.903.462s.7.026 1.008-.107.592-.356.786-.642.3-.622.305-.967c.366-13.052 2.324-26.314 1.958-39.314-.003-.266-.095-.523-.26-.73l11.2.73c-1.253 13.053.287 26.6.783 39.627a1.68 1.68 0 0 0 .218.882c.153.268.377.49.647.637a1.67 1.67 0 0 0 1.746-.083 163.41 163.41 0 0 0 16.994-13.444 89.47 89.47 0 0 0 13.236 13.757c.86.73 2.6.627 2.845-.757 2.062-13.053 3.864-26.836 9.006-39.158h2.48c2.062 12.713 5.378 25.27 8.536 37.748.075.262.217.5.412.7s.436.326.7.395.54.067.803-.004.503-.2.696-.402a55.59 55.59 0 0 0 12.322-15.193c5.795 4.908 11.877 9.476 17.934 14.044 1.096.81 2.6-.313 2.6-1.462.287-11.434 1.67-24.017-.26-35.346h5.064c2.61 12.06 6.736 23.938 10.286 35.738.084.255.23.484.424.67a1.62 1.62 0 0 0 1.483.4c.26-.06.503-.186.703-.364l13.784-16.525v-.13a88.94 88.94 0 0 0 19.422 12.426c1.044.496 2.74 0 2.6-1.488-1.122-11.095-1.044-23.495-3.915-34.145l6.343-.966c3.028 11.147 8.72 22.163 13.314 32.736a1.69 1.69 0 0 0 1.224.79 1.7 1.7 0 0 0 .744-.069c.24-.078.46-.208.642-.382 5.7-4.86 10.71-10.45 14.932-16.63a1.42 1.42 0 0 0 0-.261c7.607 4.284 15.683 7.674 24.07 10.103a1.75 1.75 0 0 0 .787.023c.26-.052.505-.163.717-.324a1.75 1.75 0 0 0 .689-1.37c-.235-6.082-2.924-11.617-5.012-17.255l-7.075-19.135c-.056-.12-.126-.235-.21-.34a169.67 169.67 0 0 0 34.328-18.273c.57 2.38 1.867 4.527 3.7 6.14s4.14 2.615 6.576 2.866a1.33 1.33 0 0 0 .871-.328c.242-.21.4-.5.443-.82a1.33 1.33 0 0 0-.949-1.464 12.82 12.82 0 0 1-5.9-3.002c-.667-.697-1.214-1.5-1.618-2.376 4.19 2.152 8.91 3.058 13.6 2.6.318.02.632-.086.872-.296a1.21 1.21 0 0 0 .407-.826c.02-.32-.086-.632-.297-.872a1.2 1.2 0 0 0-.826-.407zM3.14 10.438c.425-.446.986-.74 1.595-.834s1.232.015 1.773.312a7.23 7.23 0 0 1 1.436 1.227c.81.873 1.465 1.88 1.932 2.976.198.452.372.914.522 1.383a11.41 11.41 0 0 0 .183 1.932c-4.23-2-8.902-4.725-7.44-6.996zm12.504 9.137l-1.28-.522c-.238-1.67-.64-3.315-1.2-4.908a10.03 10.03 0 0 1 .209-1.096c.705-2.376 2.976-5.587 5.456-2.845 2.95 3.368-.444 6.97-3.185 9.372zm57.875 27.4C66.236 57.427 60.154 68.86 53.836 79.773c-3.394-6.135-6.29-12.478-9.346-18.796-.05-.107-.12-.204-.21-.283a.89.89 0 0 0-.652-.227.89.89 0 0 0-.34.092 1.62 1.62 0 0 0-1.384 0 129.3 129.3 0 0 1-19.396 7.127c6.592-10.397 11.27-21.89 13.8-33.936 12 5.797 24.614 10.178 37.617 13.053a1.75 1.75 0 0 0-.418.183zm41.22 6.187c-2.6 11.434-2.6 23.86-2.845 35.686-4.75-4.464-9.764-9.006-14.88-13.157a1.62 1.62 0 0 0-.882-1.495 1.62 1.62 0 0 0-1.728.164c-6.265 4.15-12.687 8.04-19.24 11.747 1.62-12.504 3.968-24.852 6.58-37.2.034-.155.034-.315 0-.47 10.992 2.022 22.086 3.452 33.232 4.28-.123.16-.204.35-.235.548v-.104zm46.99 37.2c-3.994-3.446-7.832-7.048-11.565-10.78 1.306-1.4-.81-3.446-2.323-2.14-5.064 4.412-10.18 8.615-15.663 12.53-.313-12.034 0-24.54-2.062-36.364 13.496.705 26.914.966 39.967 1.2-4.62 11.434-6.553 23.494-8.406 35.66l.052-.105zm55.055-2.82c-5.22-3.916-10.598-7.832-16.106-11.356.038-.323-.04-.65-.218-.922a1.38 1.38 0 0 0-.759-.566c-.312-.094-.646-.074-.945.055s-.543.36-.69.65a1.2 1.2 0 0 0-.339.522c-3.083 4.92-6.737 9.46-10.886 13.522-2.845-11.46-5.456-23.025-8.823-34.354h5.455c11.226.287 22.58.47 33.937.34-1.462 10.468-.627 21.563-.627 32.11zm53.202-4.333c-6.506-3.262-12.77-6.988-18.743-11.147-.146-.09-.312-.14-.483-.147a1.02 1.02 0 0 0-.495.103c-.153.076-.285.188-.383.328a1.01 1.01 0 0 0-.179.472c-.105.066-.202.145-.287.235l-11.957 14.384c-3.237-10.73-6.343-21.615-10.442-32.083a386.19 386.19 0 0 0 40.124-3.028c-.444 10.05 1.618 20.754 2.87 30.882h-.026zm48.06-43.073l6.11 16.577a88.06 88.06 0 0 1 5.587 16.446c-8.015-2.61-15.663-5.64-23.495-8.693-.122-.045-.253-.06-.382-.046a.84.84 0 0 0-.363.13.83.83 0 0 0-.265.279c-.066.112-.104.238-.112.368-.314.107-.587.307-.784.574-3.682 5.195-7.928 9.967-12.66 14.227-3.772-10.1-8.265-19.913-13.444-29.368 13.607-2.267 26.97-5.807 39.915-10.572l-.105.078zm37.983-22.45c-.208-.353-.536-.62-.925-.748s-.81-.114-1.19.043c-2.376-3.472-4.908-8.406-3.3-12.348 1.802-4.438 4.543 2.872 5.22 4.542s1.02 3.63 1.436 5.456c-.48.992-.897 2.012-1.253 3.054zm3.76-2.87a28.35 28.35 0 0 1 2.611-3.837 22.14 22.14 0 0 1 2.61-2.611c1.462-1.253 4.516-2.245 4.334.574-.287 4.5-5.22 7.492-9.398 8.797a.96.96 0 0 0 .13-.574c0-.574-.13-1.384-.287-2.35z" fill="#d6a8c6"/></svg>