<svg xmlns="http://www.w3.org/2000/svg" width="214" height="170" fill="none" xmlns:v="https://vecta.io/nano"><path d="M134.416 91.186c5.822-6.23 10.915-13.302 17.464-18.89 4.502-4.187 9.91-7.276 15.806-9.023 7.335-1.834 11.38.96 12.34 8.412.757 6.578.03 13.24-2.125 19.502-3.202 9.897-8.936 18.338-14.35 27.04a240.52 240.52 0 0 1-16.503 20.957 4.86 4.86 0 0 0-2.911 2.911l-.757.815h.844c.204 0 .233-.612-.262-.874 2.067 1.34 3.6 0 5.24-.99 12.427-3.87 25.325-6.014 38.335-6.375a90.23 90.23 0 0 1 19.094 1.339 10.08 10.08 0 0 1 5.181 2.096c2.91 2.736 2.91 5.268-.175 7.626a78.61 78.61 0 0 1-11.381 7.248c-18.6 9.198-37.84 16.212-58.912 16.824-9.94.686-19.92-.44-29.457-3.32a9.84 9.84 0 0 0-6.112-.349c-5.084 1.226-10.4 1.116-15.427-.32-1.994-.642-4.1-.854-6.183-.623a14.83 14.83 0 0 0-5.897 1.962 19.32 19.32 0 0 1-8.732 2.212c-17.25 1.417-34.54-2.17-49.802-10.333-16.97-9.198-31.436-21.627-45.465-34.55a5.82 5.82 0 0 1-2.088-3.172c-.322-1.26-.212-2.594.312-3.785 1.164-3.202 3.784-3.202 6.462-2.91 16.44 2.232 32.535 6.515 47.9 12.75 6.374 2.445 12.603 5.385 18.89 8.063.61.757 1.397 1.28 2.212.495s0-1.194-.466-1.66c-9.233-11.39-17.527-23.508-24.8-36.24a103.59 103.59 0 0 1-12.574-35.947c-.255-2.584-.255-5.187 0-7.772 1.135-16.242 18.338-20.84 28.38-15.98a43.66 43.66 0 0 1 13.36 10.391A110.43 110.43 0 0 1 62.58 62.865c1.368 2.096 2.91 4.104 4.28 6.054 2.65-1.193 1.688-2.91 1.513-4.424-1.64-11.49-2.36-23.092-2.154-34.696.16-4.26.646-8.504 1.455-12.69.648-3.748 2.076-7.318 4.19-10.48 6.23-9.198 16.94-8.732 22.15.815A88.59 88.59 0 0 1 102.98 41.5c.845 8.47 1.165 17 1.805 25.498a8.47 8.47 0 0 0 1.455 6.083 21.76 21.76 0 0 0 2.329-7.888c2.757-14.433 8.123-28.242 15.834-40.75 2.525-4.028 6.222-7.187 10.595-9.052 5.007-2.067 7.946-.93 10.45 3.93a24.57 24.57 0 0 1 2.154 9.722c.93 12.05-1.98 23.548-5.56 34.93-2.183 6.957-3.61 14.175-7.218 20.666a13.29 13.29 0 0 0-.583 4.861 2.65 2.65 0 0 0-1.164 2.212c0 .582.38.902.7.64a3.22 3.22 0 0 0 .64-1.164zm-32.25 69.857a16.67 16.67 0 0 0 7.066-.326c2.304-.612 4.45-1.712 6.295-3.225a60.24 60.24 0 0 1 13.331-8.062 43.42 43.42 0 0 0 11.642-8.18 132.35 132.35 0 0 0 27.128-37.839 51.27 51.27 0 0 0 5.21-25.148 17.05 17.05 0 0 0-1.484-6.898c-.564-1.454-1.66-2.64-3.065-3.315a6.14 6.14 0 0 0-4.503-.324 14.21 14.21 0 0 0-6.229 3.173 84.79 84.79 0 0 0-11.235 11.817c-6.287 7.713-11.876 15.95-17.464 24.217-1.63 2.445-3.202 5.065-7.306 5.2l9.605-28.554c3.33-9.105 6.053-18.42 8.15-27.885 1.834-9.81 3.347-19.676.553-29.544-.815-2.91-1.717-6.607-5.123-7.015-2.9-.35-3.638 3.23-5.18 5.2-.69.924-1.314 1.896-1.863 2.91-8.1 15.32-13.507 31.92-15.98 49.075-1.543 9.08-2.91 18.22-4.163 27.36-.32 2.067-1.222 4.017-3.29 4.017-2.91 0-1.6-2.736-2.008-4.308a16.37 16.37 0 0 1-.262-3.522 545.82 545.82 0 0 0-4.541-55.304 106.24 106.24 0 0 0-8.528-30.592c-1.378-3.25-3.352-6.21-5.82-8.732-1.92-1.863-3.668-1.863-5.152.61a38.45 38.45 0 0 0-4.628 13.331c-1.776 11.482-2.02 23.15-.728 34.696a214.78 214.78 0 0 0 12.079 53.732c1.106 3.114 1.92 6.345 2.91 9.518.233.873.204 2.066-.873 2.328-.45.088-.916.085-1.366-.01s-.876-.28-1.254-.543a6.78 6.78 0 0 1-1.921-2.91c-2.937-7.493-6.4-14.768-10.362-21.772C66.023 81.78 59.064 69.9 51.024 58.76 46.83 52.663 41.42 47.5 35.132 43.596c-12.02-6.666-17.3-4.046-18.63 9.896-.388 7.123.743 14.247 3.318 20.9 10.39 30.796 29.573 55.304 54.052 75.94a8.04 8.04 0 0 0 3.05 2.287 8.03 8.03 0 0 0 3.761.624 238.76 238.76 0 0 1-21.132-30.679c-4.363-7.316-8.14-14.966-11.294-22.878-.553-1.397-1.66-2.91.437-4.424 2.91.553 4.017 3.085 5.356 5.18l12.167 19.997c7.053 11.253 15.32 21.697 24.654 31.145 1 .99 1.892 2.9 4.512 1.455C90 133.1 90.96 112.9 93.986 92.642c3.347 17.784 3.347 35.89 5.996 55.303 3.43-7 6.376-14.225 8.82-21.626 2.3-6.58 3.23-13.7 7.8-19.415-.932 15.136-5.822 29.282-10.712 44.156 3.038-1.314 5.788-3.213 8.092-5.59 5.943-5.46 11.533-11.295 16.736-17.464 1.718-1.95 3.493-3.842 5.385-5.647.187-.23.42-.42.684-.554s.553-.214.85-.23a2.13 2.13 0 0 1 .87.134c.277.105.53.267.74.475.96.874.32 1.718 0 2.562a7.99 7.99 0 0 1-.902 1.921c-9.43 14.175-20.492 26.546-36.18 34.52v-.146zm-120.3-39.47l-.844 1.28c.93.96 1.834 1.98 2.91 2.91 8.44 8.062 17.814 14.96 26.895 22.296 14.554 11.642 31.348 15.135 49.016 16.765 2.91.262 5.82 0 8.732 0-9.198-3.522-18.396-6.345-27.186-10.216s-18.046-7.277-26.022-12.982c5.588-.67 10.304 1.717 15.107 3.522s9.17 3.813 13.797 5.618 9.664 3.813 14.554 5.326a41.6 41.6 0 0 0 15.31 2.911 194.28 194.28 0 0 0-92.269-37.432zm228.2 19.676c-24.973-7.422-70.264 1.572-86.04 16.94 17.173-2.154 33.182-6.462 49.686-7.772-15.747 7.568-33.182 9.11-49.715 13.7 31.377 4.162 58.738-6.58 86.07-22.88zM68.197 69.647c-.145.145-.466.32-.437.437.1.325.236.638.407.93.145-.145.466-.35.437-.466-.102-.315-.238-.618-.407-.902z" fill="#3a3c51"/></svg>