<svg xmlns="http://www.w3.org/2000/svg" width="76" height="32" fill="#3a3c51" xmlns:v="https://vecta.io/nano"><path d="M75.223 6.913C74.053 2.838 70.795-.264 66.27.018c-4.23.3-7.177 3.314-9 6.853-1.833-8.094-14.96-9.278-18.8-2.06-1.153-1.423-2.63-2.55-4.305-3.3S30.64.452 28.8.56a11.55 11.55 0 0 0-5.184 1.58c-1.578.93-2.9 2.224-3.9 3.772C15.958-1.392 5.37-2.3 1.25 5.56-4.4 16.3 10.403 27.387 18.468 31.63a.68.68 0 0 0 .346.095c.122 0 .24-.033.345-.095.128.18.32.306.538.35s.443.005.633-.1a61.68 61.68 0 0 0 16.13-13l1.086-1.27a32.69 32.69 0 0 0 16.92 13.903.75.75 0 0 0 .564 0c10.505-1.875 23.506-12.902 20.192-24.6zM35.12 17.53a61.91 61.91 0 0 1-15.736 12.69.88.88 0 0 0-.183.155C13.63 26.695 6.27 21.6 3.366 15.273c-5.1-11.1 9.66-18.9 15.5-7.967a.65.65 0 0 0 .677.324.65.65 0 0 0 .804-.254c3.13-4.54 9.25-6.937 14.185-3.652a9.51 9.51 0 0 1 3.13 3.215v.17a.52.52 0 0 0 .409.606c1.227 3.187-.282 6.726-2.96 9.814zm19.952 12.324c-6.6-2.866-12.36-7.405-16.68-13.17 2.1-2.735 3.328-5.5 1.664-9.278a12.49 12.49 0 0 0-.649-1.241C44.018-.35 54.664.384 55.962 9.423a.62.62 0 0 0 .437.465.51.51 0 0 0 .289.09.46.46 0 0 0 .29-.1c.17-.04.32-.132.432-.264s.178-.297.2-.47V8.93c2.707-4.385 7.05-9 12.7-6.416 5.26 2.397 4.004 10.9 1.748 14.904-3.5 6.2-10.547 10.04-16.963 12.437zM71.5 8.013a5.95 5.95 0 0 1-1.029-1.269l-.846-1.086c-.254-.353-.832 0-.578.338L69.9 7.25a5.72 5.72 0 0 1 .86 1.41c.254.733 1.467-.085.72-.65zM67.782 2.98c-.578.07-.62.945 0 .945.785-.003 1.552.233 2.2.677.65.45.93 1.128 1.48 1.636.338.3 1.043.127 1-.4-.183-2.016-2.947-3.06-4.68-2.848zM13.418 23.62l-3.47-2.284a18.75 18.75 0 0 1-2.693-2.82c-.338-.423-1.043.127-.747.578a13.92 13.92 0 0 0 6.472 5.64c.65.14.945-.747.437-1.114zm2.8-.688a18.72 18.72 0 0 0-2.453-1.481 13.63 13.63 0 0 1-2.355-2.129c-.296-.338-.902.113-.635.494.64.888 1.383 1.698 2.214 2.4a6.29 6.29 0 0 0 2.665 1.678c.522.085 1.015-.536.564-.973z"/></svg>