<svg xmlns="http://www.w3.org/2000/svg" width="325" height="268" fill="#3a3c51" xmlns:v="https://vecta.io/nano"><path d="M6.7 153.472c10.796-5.278 12.967-10.414 9.397-21.427a170.09 170.09 0 0 0-8.14-19.202C1 98.3-1.268 83.397 3.16 67.562c4.77-17.12 12.253-26.42 35.36-30.358 10.997-1.855 21.707.628 32.104 4.422a256.41 256.41 0 0 0 33.417 9.672 80.06 80.06 0 0 0 36.589-.399 10.97 10.97 0 0 0 5.883-3.424c7.855-8.845 13.824-18.574 14.624-30.815.287-4.642 1.25-9.217 2.856-13.58.372-1 .886-2.3 2.342-2.1.573.1 1.108.366 1.55.747a3.3 3.3 0 0 1 .965 1.422 19.31 19.31 0 0 1 .571 4.08 171.14 171.14 0 0 0 2.571 18.603c3.913 16.15 15.166 23.1 31.418 18.717 9.826-2.682 19.508-5.992 29.2-9.16a119.76 119.76 0 0 1 37.131-5.706 76.82 76.82 0 0 1 13.195.942c20.794 3.48 32.16 17.12 38.445 35.98 4.8 14.437 2.456 28.532-3.456 42.028a138.11 138.11 0 0 0-7.883 19.972c-1.28 3.887-1.28 8.082-.001 11.97a19.14 19.14 0 0 0 7.113 9.63l5.94 4.822c1.942 1.626 1.77 3.3-.286 4.48-8.34 4.765-9.14 13.068-9.54 21.142-.485 9.73 0 19.488 0 29.246a88.5 88.5 0 0 1-2.856 22.825c-3.856 14-13.595 22.684-26.134 28.533-7.055 3.338-14.538 2.454-21.88.884-11.967-2.54-22.65-8.16-33.275-13.924-11.625-6.305-23.25-12.696-36.417-15.35-1.142-.228-2.256-.485-3.427-.656-9.768-1.256-11.625 0-15.3 8.93a96.33 96.33 0 0 1-4.942 11.412c-2.685 4.708-4.94 4.68-7.9 0-3.388-5.622-8.354-10.126-14.28-12.953-3.524-1.84-7.5-2.635-11.46-2.297a20.93 20.93 0 0 0-10.904 4.208l-10.168 7.333c-13.388 9.538-28.787 15.883-45.014 18.546a42.6 42.6 0 0 1-25.192-3.623c-16.68-7.96-25.706-19.63-24.792-44.825a64.66 64.66 0 0 1 4.541-20.914 68.63 68.63 0 0 0 4.142-15.407c1.142-8.56-.2-17.804-11.853-22.54-3.712-1.243-6.985-3.532-9.426-6.6zm310.757 6.45c-1.44-1.98-3.315-3.6-5.484-4.737-9.882-7-11.996-13.296-9.025-25.25 1.77-7.076 5.398-13.296 8.054-19.972 4.656-11.698 6.912-23.682 3.256-36.008-6.398-21.6-20.736-37.634-44.128-39.546a106.11 106.11 0 0 0-24.335.628 211.79 211.79 0 0 0-35.618 9.701 58.63 58.63 0 0 1-19.736 3.709c-11.653-.228-18.537-4.88-22.993-15.72-.77-1.855-.6-4.194-2.856-5.706-1.942 3.7-3.656 7.36-5.712 10.842-4.342 7.36-9.74 13.78-18.394 16.092-11.08 3.428-22.74 4.573-34.275 3.367A233.72 233.72 0 0 1 59.913 44.85C52.02 42 43.65 40.712 35.264 41.055c-11.853.485-19.308 6.534-23.65 17.32a58.71 58.71 0 0 0-4.698 25.448c.346 8.726 2.634 17.266 6.698 24.997 2.856 5.707 5.484 11.242 7.94 17.12 5.056 11.87 2.085 20.172-8.57 26.563-.343.2-.428.77-.6 1.085 2.856 1.084 5.712 2.025 8.397 3.252 3.98 1.477 7.348 4.252 9.556 7.876s3.128 7.886 2.612 12.097c-.297 5.562-1.256 11.07-2.856 16.406a94.27 94.27 0 0 0-5.227 22.312c-.686 11.584.514 22.826 7.912 32.384 3.497 4.366 7.855 7.97 12.802 10.585a40.95 40.95 0 0 0 15.96 4.623c15.852 1.912 29.648-4.023 43.214-10.842a186.77 186.77 0 0 0 20.879-13.81c13.853-9.5 26.763-5.878 36.73 6.42 1.143 1.398 1.486 3.48 3.685 4.194l2.542-6.363a23.74 23.74 0 0 1 10.484-12.57 23.79 23.79 0 0 1 16.136-2.809 79.3 79.3 0 0 1 25.135 7.875l25.4 13.04a76.04 76.04 0 0 0 31.904 9.158 21.24 21.24 0 0 0 11.701-2.308c3.6-1.87 6.587-4.734 8.607-8.25a50.43 50.43 0 0 0 6.57-21.056c1.2-12.04.486-24.1.714-36.18.23-11.47 2.057-22.198 12.14-29.674l.086-.028zM163.053 128.82l5.398-7.903a27.79 27.79 0 0 1 14.281-10.471c7.77-2.083 12.853 1.683 13.196 9.615a31.72 31.72 0 0 1-2.113 12.269c-5.897 15.374-13.7 29.944-23.25 43.37a13.91 13.91 0 0 1-6.255 5.335c-4.94 2.026-6.94 1.627-10.054-2.853a246.97 246.97 0 0 1-25.335-45.452c-1.26-2.98-2.153-6.104-2.656-9.3-1.17-7.22.428-11.64 5.313-13.753 6.683-2.853 13.138-3.566 17.822 2.254l10.797 13.582c.885 1.198 1.257 2.682 2.856 3.3zM43.977 182.805a5.71 5.71 0 0 1 2.926 2.603 5.7 5.7 0 0 1 .559 3.874c-.1 3.903-.874 7.76-2.256 11.412a120.06 120.06 0 0 0-5.941 17.12 27.93 27.93 0 0 0-.6 10.357c1.828 11.07 8.57 16.948 22.593 18.83 6.973.615 14-.472 20.45-3.167l24.392-8.274c2.37-.963 4.963-1.24 7.483-.8.572 1.626-.828 2.026-1.656 2.5-11.894 7.3-25.048 12.342-38.788 14.836a37.16 37.16 0 0 1-26.726-6.53 37.1 37.1 0 0 1-14.89-23.114 24.71 24.71 0 0 1 .171-10.385 46.14 46.14 0 0 1 2.37-7.276l9.9-21.998zm-18.77-67.025c-5.603-12.12-9.137-25.1-10.454-38.375a25.67 25.67 0 0 1 1.427-11.325c1.32-3.62 3.44-6.898 6.2-9.6 2.467-2.654 5.56-4.646 9-5.793s7.1-1.4 10.68-.77a52.54 52.54 0 0 1 14.652 4.308 200.48 200.48 0 0 0 40.558 14.437c1.4.342 3.37 0 4 3.167a78.17 78.17 0 0 1-16.938-.542c-10.1-1.757-19.88-4.937-29.076-9.444a43.12 43.12 0 0 0-17.337-4.68 21.5 21.5 0 0 0-10.768 2.283c-7.77 4.052-10.797 9.473-9.568 18.146A155.07 155.07 0 0 0 22.24 98.63c1.6 5.62 3.6 11.07 2.97 17.148zm216.706-71.728a122.65 122.65 0 0 0 13.71-2.026l4.8-.742c34.903-3.48 48.984 23.996 46.327 48.762-1.306 10.802-3.747 21.436-7.283 31.728a38.01 38.01 0 0 1-.4-11.784c.543-7.847 1.743-15.636 1.57-23.54-.57-27.4-24.02-46.45-50.07-41.258-3.142.628-6.54 0-9.483 1.683l.828-2.825zm54.756 157.153c.856 10.7 2.484 21.456-1.686 31.785-2.597 5.772-7.16 10.436-12.876 13.163a26.79 26.79 0 0 1-18.342 1.73c-5.378-1.52-10.458-3.942-15.024-7.162-6.198-4.365-11.94-9.387-19.137-12.297a56.66 56.66 0 0 1 19.594 4.166c8.026 3.053 15.9 6.505 24.02 9.273 9.054 3.08 13.653.513 17.137-8.56 3.285-8.4 2.857-17.3 4.056-26.022.43-2.054.114-4.394 2.257-6.077z"/></svg>