<svg width="216" height="51" viewBox="0 0 216 51" fill="none" xmlns="http://www.w3.org/2000/svg">
<path d="M5.00555 39.47C4.96555 39.37 4.92555 39.27 4.88555 39.17C4.86555 39.07 4.83555 38.97 4.79555 38.87C4.67555 38.79 4.52555 38.68 4.34555 38.54C4.18555 38.4 4.02555 38.25 3.86555 38.09C3.70555 37.93 3.56555 37.77 3.44555 37.61C3.32555 37.43 3.26555 37.28 3.26555 37.16C3.26555 36.76 3.18555 36.4 3.02555 36.08C2.86555 35.74 2.78555 35.4 2.78555 35.06C2.78555 34.96 2.80555 34.86 2.84555 34.76C2.88555 34.64 2.90555 34.53 2.90555 34.43C2.90555 34.13 2.83555 33.93 2.69555 33.83C2.55555 33.71 2.48555 33.6 2.48555 33.5C2.48555 33.44 2.51555 33.37 2.57555 33.29C2.63555 33.19 2.66555 33.1 2.66555 33.02C2.66555 32.92 2.64555 32.82 2.60555 32.72C2.56555 32.6 2.52555 32.49 2.48555 32.39C2.50555 32.29 2.53555 32.21 2.57555 32.15C2.63555 32.07 2.66555 31.98 2.66555 31.88C2.66555 31.7 2.63555 31.52 2.57555 31.34C2.53555 31.16 2.51555 30.98 2.51555 30.8C2.51555 30.68 2.52555 30.56 2.54555 30.44C2.56555 30.3 2.57555 30.17 2.57555 30.05C2.57555 29.93 2.56555 29.82 2.54555 29.72C2.54555 29.6 2.54555 29.49 2.54555 29.39C2.54555 29.25 2.57555 29.13 2.63555 29.03C2.69555 28.91 2.75555 28.8 2.81555 28.7C2.89555 28.6 2.96555 28.5 3.02555 28.4C3.08555 28.3 3.11555 28.17 3.11555 28.01C3.09555 27.91 3.08555 27.82 3.08555 27.74C3.08555 27.66 3.08555 27.57 3.08555 27.47C3.08555 27.09 3.13555 26.79 3.23555 26.57C3.35555 26.33 3.41555 26.07 3.41555 25.79C3.41555 25.71 3.40555 25.64 3.38555 25.58C3.38555 25.5 3.38555 25.42 3.38555 25.34C3.38555 25.08 3.45555 24.86 3.59555 24.68C3.73555 24.48 3.80555 24.24 3.80555 23.96C3.80555 23.78 3.77555 23.61 3.71555 23.45C3.67555 23.29 3.65555 23.14 3.65555 23C3.65555 22.84 3.71555 22.71 3.83555 22.61C3.95555 22.51 4.01555 22.39 4.01555 22.25C4.01555 22.05 4.07555 21.89 4.19555 21.77C4.31555 21.63 4.44555 21.49 4.58555 21.35C4.74555 21.19 4.88555 21.01 5.00555 20.81C5.12555 20.59 5.18555 20.3 5.18555 19.94C5.18555 19.76 5.21555 19.6 5.27555 19.46C5.33555 19.32 5.40555 19.19 5.48555 19.07C5.58555 18.95 5.68555 18.83 5.78555 18.71C5.88555 18.59 5.96555 18.45 6.02555 18.29C6.06555 18.13 6.14555 18 6.26555 17.9C6.38555 17.78 6.50555 17.67 6.62555 17.57C6.74555 17.47 6.85555 17.37 6.95555 17.27C7.05555 17.15 7.10555 17 7.10555 16.82C7.18555 16.62 7.28555 16.39 7.40555 16.13C7.52555 15.87 7.65555 15.63 7.79555 15.41C7.95555 15.17 8.12555 14.97 8.30555 14.81C8.48555 14.65 8.67555 14.57 8.87555 14.57C9.19555 14.57 9.54555 14.61 9.92555 14.69C10.3255 14.75 10.6655 14.86 10.9455 15.02C11.2655 15.2 11.5455 15.31 11.7855 15.35C12.0455 15.39 12.2655 15.43 12.4455 15.47C12.6255 15.51 12.7655 15.58 12.8655 15.68C12.9655 15.76 13.0155 15.94 13.0155 16.22C13.0155 16.44 12.9755 16.68 12.8955 16.94C12.8355 17.2 12.7555 17.46 12.6555 17.72C12.5755 17.96 12.4955 18.2 12.4155 18.44C12.3555 18.68 12.3255 18.89 12.3255 19.07C12.3255 19.11 12.3255 19.17 12.3255 19.25C12.3255 19.33 12.3055 19.38 12.2655 19.4C12.1655 19.5 12.0855 19.63 12.0255 19.79C11.9655 19.95 11.9055 20.11 11.8455 20.27C11.8055 20.43 11.7555 20.57 11.6955 20.69C11.6355 20.79 11.5655 20.84 11.4855 20.84C11.2455 20.84 11.0855 20.66 11.0055 20.3C10.9455 19.94 10.9055 19.55 10.8855 19.13C10.8855 18.69 10.8755 18.29 10.8555 17.93C10.8355 17.57 10.7455 17.39 10.5855 17.39C10.4255 17.39 10.2755 17.44 10.1355 17.54C10.0155 17.64 9.90555 17.76 9.80555 17.9C9.70555 18.04 9.60555 18.17 9.50555 18.29C9.42555 18.41 9.34555 18.5 9.26555 18.56C9.16555 18.62 9.05555 18.72 8.93555 18.86C8.81555 19 8.69555 19.16 8.57555 19.34C8.47555 19.5 8.38555 19.67 8.30555 19.85C8.22555 20.01 8.18555 20.16 8.18555 20.3C8.18555 20.36 8.19555 20.4 8.21555 20.42C8.13555 20.66 7.99555 20.93 7.79555 21.23C7.61555 21.53 7.42555 21.82 7.22555 22.1C7.02555 22.36 6.84555 22.59 6.68555 22.79C6.54555 22.97 6.47555 23.07 6.47555 23.09C6.47555 23.13 6.47555 23.18 6.47555 23.24C6.49555 23.3 6.50555 23.35 6.50555 23.39C6.50555 23.51 6.46555 23.67 6.38555 23.87C6.30555 24.05 6.21555 24.25 6.11555 24.47C6.03555 24.69 5.95555 24.92 5.87555 25.16C5.81555 25.4 5.78555 25.63 5.78555 25.85C5.78555 25.89 5.78555 25.93 5.78555 25.97C5.80555 25.99 5.81555 26.02 5.81555 26.06C5.81555 26.46 5.78555 26.82 5.72555 27.14C5.66555 27.44 5.59555 27.75 5.51555 28.07C5.45555 28.37 5.39555 28.71 5.33555 29.09C5.27555 29.45 5.24555 29.87 5.24555 30.35C5.24555 30.47 5.25555 30.6 5.27555 30.74C5.29555 30.88 5.30555 31.02 5.30555 31.16C5.30555 31.26 5.28555 31.36 5.24555 31.46C5.22555 31.56 5.21555 31.66 5.21555 31.76C5.21555 31.86 5.23555 31.95 5.27555 32.03C5.33555 32.09 5.36555 32.16 5.36555 32.24C5.36555 32.3 5.35555 32.36 5.33555 32.42C5.33555 32.46 5.33555 32.51 5.33555 32.57C5.33555 33.01 5.39555 33.45 5.51555 33.89C5.63555 34.31 5.69555 34.73 5.69555 35.15C5.69555 35.35 5.73555 35.58 5.81555 35.84C5.89555 36.08 6.01555 36.32 6.17555 36.56C6.33555 36.78 6.54555 36.97 6.80555 37.13C7.06555 37.27 7.36555 37.34 7.70555 37.34C7.86555 37.34 8.11555 37.25 8.45555 37.07C8.79555 36.89 9.04555 36.7 9.20555 36.5C9.28555 36.4 9.37555 36.33 9.47555 36.29C9.59555 36.23 9.70555 36.19 9.80555 36.17C9.90555 36.13 9.99555 36.09 10.0755 36.05C10.1555 36.01 10.1955 35.94 10.1955 35.84C10.1955 35.8 10.1855 35.75 10.1655 35.69C10.1655 35.63 10.1655 35.57 10.1655 35.51C10.1655 35.35 10.2455 35.22 10.4055 35.12C10.5855 35.02 10.7255 34.92 10.8255 34.82C10.9655 34.7 11.0855 34.55 11.1855 34.37C11.3055 34.17 11.4055 33.99 11.4855 33.83C11.5655 33.65 11.6355 33.5 11.6955 33.38C11.7755 33.24 11.8655 33.17 11.9655 33.17C12.1055 33.17 12.1955 33.12 12.2355 33.02C12.2955 32.9 12.3455 32.77 12.3855 32.63C12.4455 32.49 12.5155 32.35 12.5955 32.21C12.6755 32.05 12.8055 31.92 12.9855 31.82C13.0055 31.82 13.0355 31.89 13.0755 32.03C13.1155 32.15 13.1455 32.29 13.1655 32.45C13.1855 32.61 13.2055 32.78 13.2255 32.96C13.2455 33.12 13.2555 33.24 13.2555 33.32C13.2555 33.38 13.2455 33.48 13.2255 33.62C13.2055 33.74 13.1455 33.8 13.0455 33.8C12.9655 33.8 12.8955 33.71 12.8355 33.53C12.7955 33.35 12.7555 33.2 12.7155 33.08C12.4155 33.6 12.2455 34.02 12.2055 34.34C12.1855 34.66 12.1255 34.9 12.0255 35.06C11.8855 35.28 11.7655 35.53 11.6655 35.81C11.5655 36.07 11.4555 36.33 11.3355 36.59C11.2155 36.83 11.0755 37.04 10.9155 37.22C10.7755 37.38 10.5855 37.46 10.3455 37.46C10.3055 37.46 10.2655 37.45 10.2255 37.43C10.1855 37.41 10.1455 37.4 10.1055 37.4C10.0655 37.4 10.0455 37.42 10.0455 37.46C10.0455 37.5 10.0555 37.55 10.0755 37.61C10.0955 37.67 10.1055 37.73 10.1055 37.79C10.1055 37.85 10.0555 37.96 9.95555 38.12C9.87555 38.28 9.76555 38.44 9.62555 38.6C9.48555 38.78 9.31555 38.93 9.11555 39.05C8.91555 39.19 8.71555 39.27 8.51555 39.29C8.35555 39.29 8.23555 39.34 8.15555 39.44C8.07555 39.56 7.95555 39.62 7.79555 39.62C7.63555 39.62 7.49555 39.64 7.37555 39.68C7.25555 39.74 7.12555 39.82 6.98555 39.92C6.80555 39.82 6.61555 39.73 6.41555 39.65C6.23555 39.59 6.03555 39.56 5.81555 39.56C5.77555 39.56 5.72555 39.56 5.66555 39.56C5.60555 39.58 5.54555 39.59 5.48555 39.59C5.40555 39.59 5.32555 39.57 5.24555 39.53C5.16555 39.51 5.08555 39.49 5.00555 39.47ZM5.30555 26.81C5.30555 26.83 5.28555 26.86 5.24555 26.9L5.30555 26.96C5.34555 26.92 5.36555 26.9 5.36555 26.9C5.36555 26.88 5.34555 26.85 5.30555 26.81ZM4.40555 30.95C4.42555 30.93 4.43555 30.89 4.43555 30.83L4.40555 30.8C4.38555 30.8 4.37555 30.79 4.37555 30.77C4.33555 30.81 4.31555 30.84 4.31555 30.86C4.31555 30.94 4.32555 30.98 4.34555 30.98C4.34555 30.98 4.36555 30.97 4.40555 30.95ZM10.6155 36.83C10.5955 36.81 10.5855 36.8 10.5855 36.8C10.5855 36.78 10.5755 36.76 10.5555 36.74C10.5555 36.76 10.5455 36.78 10.5255 36.8C10.5055 36.8 10.4955 36.81 10.4955 36.83C10.4955 36.91 10.5155 36.95 10.5555 36.95C10.5555 36.97 10.5655 36.97 10.5855 36.95V36.92C10.5855 36.9 10.5855 36.89 10.5855 36.89C10.6055 36.87 10.6155 36.85 10.6155 36.83ZM16.1955 27.8C16.1955 28.16 16.1155 28.49 15.9555 28.79C15.7955 29.07 15.5655 29.21 15.2655 29.21C15.1855 29.21 15.1255 29.19 15.0855 29.15C15.0655 29.11 15.0055 29.03 14.9055 28.91C14.9255 28.89 14.9255 28.88 14.9055 28.88C14.9055 28.86 14.9155 28.84 14.9355 28.82C15.1355 28.64 15.2855 28.44 15.3855 28.22C15.4855 28 15.5855 27.79 15.6855 27.59C15.7855 27.37 15.9055 27.18 16.0455 27.02C16.1855 26.84 16.3955 26.71 16.6755 26.63C16.8155 26.63 16.9155 26.68 16.9755 26.78C17.0355 26.88 17.0655 26.99 17.0655 27.11C17.0655 27.33 16.9855 27.48 16.8255 27.56C16.6855 27.64 16.4755 27.72 16.1955 27.8ZM14.6955 31.19C14.6355 31.15 14.5855 31.12 14.5455 31.1C14.5055 31.06 14.4855 31.01 14.4855 30.95C14.5255 30.79 14.5655 30.6 14.6055 30.38C14.6455 30.16 14.7355 30.02 14.8755 29.96C14.9355 29.96 14.9655 30.06 14.9655 30.26C14.9655 30.42 14.9555 30.59 14.9355 30.77C14.9355 30.95 14.8555 31.09 14.6955 31.19ZM13.5255 31.16C13.5255 31.04 13.5455 30.94 13.5855 30.86C13.6255 30.78 13.6555 30.71 13.6755 30.65C13.7155 30.57 13.7855 30.53 13.8855 30.53C13.9655 30.53 14.0055 30.59 14.0055 30.71C14.0255 30.81 14.0355 30.89 14.0355 30.95C14.0355 31.19 13.9455 31.4 13.7655 31.58L13.7955 31.61L13.5255 31.34V31.16ZM13.7655 31.58C13.7655 31.7 13.7655 31.86 13.7655 32.06C13.7655 32.24 13.7255 32.35 13.6455 32.39C13.5655 32.33 13.4955 32.22 13.4355 32.06C13.3755 31.88 13.3455 31.75 13.3455 31.67C13.3455 31.55 13.4055 31.44 13.5255 31.34H13.4955C13.5555 31.38 13.6055 31.42 13.6455 31.46C13.6855 31.5 13.7255 31.54 13.7655 31.58ZM28.3242 25.88C28.2642 25.86 28.1942 25.85 28.1142 25.85C28.0342 25.85 27.9842 25.9 27.9642 26C27.9642 26.1 27.9642 26.21 27.9642 26.33C27.9642 26.45 27.9542 26.56 27.9342 26.66C27.9342 26.76 27.9042 26.81 27.8442 26.81C27.7642 26.81 27.7142 26.74 27.6942 26.6C27.6742 26.46 27.6642 26.34 27.6642 26.24C27.5242 26.32 27.4542 26.41 27.4542 26.51C27.4542 26.57 27.4642 26.63 27.4842 26.69C27.5042 26.75 27.5142 26.81 27.5142 26.87C27.5142 27.03 27.4542 27.17 27.3342 27.29C27.2342 27.39 27.1842 27.52 27.1842 27.68C27.1842 27.74 27.1942 27.8 27.2142 27.86C27.2342 27.92 27.2442 27.98 27.2442 28.04C27.2442 28.22 27.1642 28.39 27.0042 28.55C26.7442 28.81 26.5742 29.09 26.4942 29.39C26.4142 29.67 26.2642 29.92 26.0442 30.14C26.0042 30.18 25.9242 30.43 25.8042 30.89C25.7042 31.35 25.6042 31.78 25.5042 32.18C25.5042 32.22 25.4342 32.34 25.2942 32.54C25.1742 32.74 25.0242 32.95 24.8442 33.17C24.6842 33.39 24.5142 33.59 24.3342 33.77C24.1542 33.95 24.0042 34.04 23.8842 34.04C23.8442 34.04 23.7842 34.03 23.7042 34.01C23.6442 33.97 23.5842 33.95 23.5242 33.95C23.4842 33.95 23.4442 33.96 23.4042 33.98C23.3642 33.98 23.3242 33.98 23.2842 33.98C22.8842 33.98 22.5242 33.86 22.2042 33.62C21.8842 33.36 21.6042 33.05 21.3642 32.69C21.1242 32.31 20.9242 31.91 20.7642 31.49C20.6242 31.05 20.5142 30.64 20.4342 30.26C20.3742 29.96 20.3242 29.59 20.2842 29.15C20.2442 28.69 20.1942 28.26 20.1342 27.86C20.0942 27.46 20.0442 27.12 19.9842 26.84C19.9242 26.54 19.8442 26.39 19.7442 26.39C19.6242 26.39 19.4842 26.57 19.3242 26.93C19.1842 27.27 19.0342 27.7 18.8742 28.22C18.7342 28.72 18.5942 29.26 18.4542 29.84C18.3342 30.4 18.2342 30.9 18.1542 31.34C18.0542 31.8 17.9642 32.37 17.8842 33.05C17.8042 33.71 17.7042 34.35 17.5842 34.97C17.4642 35.59 17.3242 36.13 17.1642 36.59C17.0242 37.03 16.8442 37.25 16.6242 37.25C16.5642 37.25 16.4742 37.24 16.3542 37.22C16.2542 37.18 16.1442 37.13 16.0242 37.07C15.9042 37.01 15.7942 36.94 15.6942 36.86C15.6142 36.76 15.5742 36.65 15.5742 36.53C15.5742 36.19 15.5842 35.82 15.6042 35.42C15.6442 35.02 15.6942 34.63 15.7542 34.25C15.8142 33.85 15.8842 33.47 15.9642 33.11C16.0442 32.75 16.1342 32.45 16.2342 32.21C16.3342 31.99 16.3742 31.74 16.3542 31.46C16.3542 31.16 16.4042 30.94 16.5042 30.8C16.6842 30.48 16.7742 30.14 16.7742 29.78C16.7942 29.42 16.8942 29.08 17.0742 28.76C17.1142 28.7 17.1342 28.63 17.1342 28.55C17.1342 28.47 17.1442 28.39 17.1642 28.31C17.2242 27.91 17.3642 27.5 17.5842 27.08C17.8042 26.66 17.9642 26.23 18.0642 25.79C18.1242 25.49 18.2542 25.19 18.4542 24.89C18.6542 24.59 18.7842 24.27 18.8442 23.93C18.8842 23.73 18.9542 23.51 19.0542 23.27C19.1542 23.03 19.2842 22.81 19.4442 22.61C19.6242 22.39 19.8242 22.21 20.0442 22.07C20.2842 21.91 20.5542 21.83 20.8542 21.83C21.3542 21.83 21.7442 21.9 22.0242 22.04C22.3042 22.16 22.5142 22.33 22.6542 22.55C22.8142 22.77 22.9142 23.04 22.9542 23.36C22.9942 23.68 23.0142 24.03 23.0142 24.41C23.0142 24.63 22.9842 24.86 22.9242 25.1C22.8842 25.32 22.8642 25.54 22.8642 25.76C22.8642 25.86 22.8742 25.96 22.8942 26.06C22.9142 26.16 22.9242 26.26 22.9242 26.36C22.9242 26.52 22.8842 26.69 22.8042 26.87C22.7442 27.05 22.7142 27.22 22.7142 27.38C22.7142 27.78 22.7642 28.13 22.8642 28.43C22.9642 28.73 23.0142 29.02 23.0142 29.3C23.0142 29.42 22.9842 29.54 22.9242 29.66C22.8642 29.78 22.8342 29.89 22.8342 29.99C22.8342 30.09 22.8942 30.2 23.0142 30.32C23.1542 30.42 23.2742 30.5 23.3742 30.56C23.8342 30.1 24.2442 29.58 24.6042 29C24.9842 28.42 25.3342 27.87 25.6542 27.35C25.9942 26.83 26.3242 26.38 26.6442 26C26.9642 25.6 27.3042 25.36 27.6642 25.28C27.6642 24.8 27.7442 24.48 27.9042 24.32C28.0642 24.14 28.2642 23.93 28.5042 23.69C28.6642 23.53 28.8242 23.35 28.9842 23.15C29.1442 22.95 29.3142 22.76 29.4942 22.58C29.6742 22.4 29.8642 22.25 30.0642 22.13C30.2642 22.01 30.4942 21.95 30.7542 21.95C31.2342 21.95 31.6542 22.12 32.0142 22.46C32.3942 22.8 32.5842 23.34 32.5842 24.08C32.5842 24.4 32.5242 24.75 32.4042 25.13C32.3042 25.51 32.1842 25.9 32.0442 26.3C31.9242 26.68 31.8042 27.05 31.6842 27.41C31.5842 27.77 31.5342 28.1 31.5342 28.4C31.5342 28.5 31.5342 28.6 31.5342 28.7C31.5342 28.8 31.5442 28.9 31.5642 29C31.5642 29.18 31.5042 29.31 31.3842 29.39C31.2642 29.47 31.2042 29.56 31.2042 29.66C31.2042 29.98 31.1342 30.25 30.9942 30.47C30.8742 30.69 30.8142 31 30.8142 31.4C30.8142 31.6 30.8242 31.79 30.8442 31.97C30.8842 32.15 30.9042 32.33 30.9042 32.51C30.9042 32.79 30.8342 33.11 30.6942 33.47C30.5542 33.81 30.4842 34.15 30.4842 34.49C30.4842 34.79 30.5042 35.09 30.5442 35.39C30.5842 35.69 30.6042 35.99 30.6042 36.29C30.6042 36.57 30.5942 36.9 30.5742 37.28C30.5742 37.64 30.5442 37.99 30.4842 38.33C30.4442 38.67 30.3642 38.95 30.2442 39.17C30.1242 39.41 29.9542 39.53 29.7342 39.53C29.5342 39.53 29.3142 39.4 29.0742 39.14C28.8342 38.88 28.6942 38.61 28.6542 38.33C28.6542 38.03 28.6242 37.76 28.5642 37.52C28.5042 37.26 28.4342 37.02 28.3542 36.8C28.2942 36.56 28.2342 36.33 28.1742 36.11C28.1142 35.89 28.0842 35.67 28.0842 35.45C28.0842 35.21 28.1342 34.98 28.2342 34.76C28.3342 34.52 28.3842 34.26 28.3842 33.98C28.3842 33.7 28.3842 33.41 28.3842 33.11C28.3842 32.81 28.4342 32.51 28.5342 32.21C28.6942 31.71 28.7642 31.2 28.7442 30.68C28.7442 30.14 28.7942 29.61 28.8942 29.09C28.9942 28.57 29.0542 28.04 29.0742 27.5C29.1142 26.96 29.1342 26.46 29.1342 26C29.1342 25.78 29.1042 25.63 29.0442 25.55C28.9842 25.47 28.8642 25.43 28.6842 25.43C28.5842 25.43 28.4642 25.58 28.3242 25.88ZM51.5269 26.09C51.7269 26.25 51.8269 26.43 51.8269 26.63C51.8269 26.83 51.7169 27.01 51.4969 27.17C51.2969 27.33 51.0069 27.41 50.6269 27.41C50.5269 27.41 50.4369 27.41 50.3569 27.41C50.2769 27.39 50.1869 27.37 50.0869 27.35C48.9669 27.69 47.9369 28.14 46.9969 28.7C46.6769 28.9 46.5069 29.16 46.4869 29.48C46.4669 29.78 46.4469 30.05 46.4269 30.29C46.3869 30.63 46.3069 30.92 46.1869 31.16C46.0669 31.4 46.0069 31.69 46.0069 32.03C46.0069 32.27 45.9169 32.46 45.7369 32.6C45.5769 32.74 45.4969 32.94 45.4969 33.2C45.4969 33.24 45.4969 33.29 45.4969 33.35C45.5169 33.39 45.5269 33.43 45.5269 33.47C45.5269 33.75 45.4669 33.99 45.3469 34.19C45.2469 34.37 45.1069 34.59 44.9269 34.85C44.8869 34.99 44.7569 35.23 44.5369 35.57C44.3369 35.89 44.0969 36.22 43.8169 36.56C43.5369 36.9 43.2369 37.2 42.9169 37.46C42.6169 37.72 42.3469 37.85 42.1069 37.85C41.9869 37.85 41.8069 37.94 41.5669 38.12C41.3469 38.3 41.1169 38.45 40.8769 38.57C40.4169 38.47 39.9869 38.35 39.5869 38.21C39.2069 38.07 38.8569 37.85 38.5369 37.55C38.2969 37.27 38.0669 36.95 37.8469 36.59C37.6269 36.21 37.4369 35.83 37.2769 35.45C37.1369 35.05 37.0169 34.66 36.9169 34.28C36.8369 33.9 36.7969 33.55 36.7969 33.23C36.7969 32.87 36.8369 32.53 36.9169 32.21C36.9969 31.87 37.0369 31.54 37.0369 31.22C37.0369 31.1 37.0669 30.94 37.1269 30.74C37.2069 30.54 37.2869 30.34 37.3669 30.14C37.4469 29.92 37.5169 29.7 37.5769 29.48C37.6569 29.26 37.6969 29.07 37.6969 28.91C37.6969 28.77 37.6469 28.59 37.5469 28.37C37.4669 28.15 37.3669 27.91 37.2469 27.65C37.1469 27.39 37.0469 27.13 36.9469 26.87C36.8669 26.61 36.8269 26.36 36.8269 26.12C36.8269 25.34 36.8969 24.73 37.0369 24.29C37.1969 23.85 37.4169 23.52 37.6969 23.3C37.9969 23.06 38.3369 22.91 38.7169 22.85C39.1169 22.79 39.5569 22.76 40.0369 22.76H41.4169C41.5969 22.76 41.9069 22.84 42.3469 23C42.7869 23.14 43.2569 23.36 43.7569 23.66C44.2569 23.96 44.7169 24.34 45.1369 24.8C45.5569 25.26 45.8369 25.8 45.9769 26.42C46.0169 26.62 46.0869 26.83 46.1869 27.05C46.3069 27.27 46.4769 27.38 46.6969 27.38C46.7769 27.38 46.8369 27.37 46.8769 27.35C47.6569 27.07 48.4169 26.8 49.1569 26.54C49.8969 26.28 50.6869 26.13 51.5269 26.09ZM44.8669 30.5C44.8269 30.34 44.7969 30.18 44.7769 30.02C44.7769 29.84 44.6969 29.75 44.5369 29.75C44.4569 29.75 44.3369 29.77 44.1769 29.81C43.6769 29.99 43.1769 30.17 42.6769 30.35C42.1769 30.53 41.6469 30.62 41.0869 30.62C40.8469 30.62 40.6669 30.8 40.5469 31.16C40.4269 31.5 40.3369 31.89 40.2769 32.33C40.2169 32.75 40.1769 33.16 40.1569 33.56C40.1569 33.96 40.1569 34.21 40.1569 34.31C40.1569 34.71 40.2569 35.11 40.4569 35.51C40.6569 35.89 40.9269 36.08 41.2669 36.08C41.6469 36.08 42.0069 35.89 42.3469 35.51C42.7069 35.11 43.0269 34.67 43.3069 34.19C43.6069 33.71 43.8569 33.26 44.0569 32.84C44.2769 32.42 44.4369 32.17 44.5369 32.09C44.6569 31.89 44.7269 31.63 44.7469 31.31C44.7869 30.99 44.8269 30.72 44.8669 30.5ZM38.5369 26.03C38.5569 26.15 38.5769 26.34 38.5969 26.6C38.6369 26.86 38.7369 26.99 38.8969 26.99C38.9769 26.99 39.0469 26.96 39.1069 26.9C39.1669 26.82 39.2269 26.75 39.2869 26.69C39.3469 26.61 39.4069 26.54 39.4669 26.48C39.5469 26.4 39.6369 26.36 39.7369 26.36C39.7369 26.36 39.8569 26.39 40.0969 26.45C40.3569 26.51 40.6369 26.6 40.9369 26.72C41.2369 26.84 41.5169 26.99 41.7769 27.17C42.0369 27.33 42.1669 27.51 42.1669 27.71C42.1669 27.83 42.1069 28 41.9869 28.22C41.8669 28.42 41.7769 28.59 41.7169 28.73C41.7169 28.87 41.7569 28.96 41.8369 29C41.9369 29.04 42.0069 29.06 42.0469 29.06C42.2469 29.06 42.4869 29.04 42.7669 29C43.0669 28.94 43.3469 28.86 43.6069 28.76C43.8869 28.66 44.1269 28.54 44.3269 28.4C44.5269 28.24 44.6269 28.06 44.6269 27.86C44.6269 27.46 44.4969 27.02 44.2369 26.54C43.9969 26.06 43.6769 25.62 43.2769 25.22C42.8769 24.8 42.4369 24.46 41.9569 24.2C41.4769 23.92 41.0169 23.78 40.5769 23.78C39.9369 23.78 39.4369 24.02 39.0769 24.5C38.7169 24.98 38.5369 25.49 38.5369 26.03ZM71.8491 33.5C71.8291 33.54 71.7791 33.66 71.6991 33.86C71.6391 34.04 71.5691 34.24 71.4891 34.46C71.4291 34.66 71.3591 34.85 71.2791 35.03C71.2191 35.21 71.1791 35.32 71.1591 35.36C71.0791 35.62 70.9791 35.83 70.8591 35.99C70.7591 36.13 70.6491 36.27 70.5291 36.41C70.4291 36.55 70.3391 36.71 70.2591 36.89C70.1991 37.07 70.1691 37.31 70.1691 37.61C70.1691 38.01 70.0891 38.42 69.9291 38.84C69.7691 39.28 69.6591 39.7 69.5991 40.1C69.5191 40.26 69.4191 40.44 69.2991 40.64C69.1791 40.86 69.0291 41.06 68.8491 41.24C68.6691 41.44 68.4391 41.61 68.1591 41.75C67.8991 41.89 67.5791 41.96 67.1991 41.96C66.9791 41.96 66.7691 41.91 66.5691 41.81C66.3691 41.71 66.1891 41.58 66.0291 41.42C65.8691 41.28 65.7391 41.12 65.6391 40.94C65.5391 40.76 65.4891 40.58 65.4891 40.4C65.4891 40.36 65.5191 40.23 65.5791 40.01C65.4191 39.73 65.2691 39.46 65.1291 39.2C64.9891 38.94 64.9191 38.68 64.9191 38.42C64.9191 38.3 64.9291 38.17 64.9491 38.03C64.9891 37.91 65.0191 37.75 65.0391 37.55C65.0791 37.33 65.1091 37.06 65.1291 36.74C65.1691 36.4 65.1891 35.97 65.1891 35.45C65.1891 35.15 65.2691 34.87 65.4291 34.61C65.5891 34.35 65.6691 34.1 65.6691 33.86C65.6691 33.7 65.6391 33.55 65.5791 33.41C65.5391 33.27 65.5191 33.13 65.5191 32.99C65.5991 32.91 65.6791 32.84 65.7591 32.78C65.8391 32.72 65.9191 32.65 65.9991 32.57C65.8591 32.29 65.7891 32.05 65.7891 31.85C65.7891 31.53 65.8291 31.2 65.9091 30.86C66.0091 30.52 66.1091 30.2 66.2091 29.9C66.3091 29.6 66.3991 29.34 66.4791 29.12C66.5791 28.88 66.6291 28.69 66.6291 28.55C66.6291 28.45 66.6191 28.36 66.5991 28.28C66.5791 28.18 66.5691 28.08 66.5691 27.98C66.5691 27.82 66.5791 27.66 66.5991 27.5C66.6391 27.34 66.6591 27.18 66.6591 27.02C66.6591 26.94 66.6491 26.87 66.6291 26.81C66.6091 26.73 66.5991 26.65 66.5991 26.57C66.5991 26.51 66.5991 26.45 66.5991 26.39C66.6191 26.33 66.6291 26.27 66.6291 26.21C66.6291 26.11 66.6091 26.02 66.5691 25.94C66.5291 25.84 66.5091 25.74 66.5091 25.64C66.5091 25.46 66.5591 25.29 66.6591 25.13L66.5991 25.07L66.6591 25.13C66.6191 25.13 66.5691 25.13 66.5091 25.13C66.4691 25.11 66.4291 25.1 66.3891 25.1C66.2891 25.1 66.1791 25.14 66.0591 25.22C65.9391 25.28 65.8291 25.34 65.7291 25.4C65.6691 25.74 65.5591 25.96 65.3991 26.06C65.2391 26.14 65.0491 26.25 64.8291 26.39C64.7691 26.67 64.6991 26.93 64.6191 27.17C64.5391 27.41 64.4191 27.64 64.2591 27.86C63.9791 28.2 63.7191 28.67 63.4791 29.27C63.2391 29.85 62.8991 30.41 62.4591 30.95C62.3191 31.11 62.2191 31.35 62.1591 31.67C62.1191 31.99 62.0391 32.27 61.9191 32.51C61.6791 32.97 61.4991 33.4 61.3791 33.8C61.2591 34.18 61.1391 34.51 61.0191 34.79C60.8991 35.07 60.7591 35.29 60.5991 35.45C60.4591 35.59 60.2391 35.66 59.9391 35.66C59.4991 35.6 59.0991 35.44 58.7391 35.18C58.4391 34.96 58.1591 34.62 57.8991 34.16C57.6591 33.68 57.5391 33.01 57.5391 32.15V31.67C57.5391 31.47 57.5191 31.29 57.4791 31.13C57.4591 30.95 57.3991 30.86 57.2991 30.86C57.1991 30.86 57.0891 30.88 56.9691 30.92C56.7291 31.46 56.4491 32.03 56.1291 32.63C55.8291 33.23 55.4491 33.86 54.9891 34.52C54.8491 34.74 54.7191 34.95 54.5991 35.15C54.4791 35.35 54.3491 35.53 54.2091 35.69C54.0891 35.83 53.9291 35.95 53.7291 36.05C53.5491 36.15 53.3191 36.2 53.0391 36.2C52.8191 36.2 52.5991 36.12 52.3791 35.96C52.1791 35.78 51.9891 35.56 51.8091 35.3C51.6491 35.02 51.5091 34.7 51.3891 34.34C51.2891 33.98 51.2391 33.61 51.2391 33.23C51.2391 33.11 51.2491 32.99 51.2691 32.87C51.2891 32.75 51.2991 32.62 51.2991 32.48C51.2991 32.28 51.2891 32.09 51.2691 31.91C51.2491 31.73 51.2391 31.54 51.2391 31.34C51.2391 31.08 51.2491 30.83 51.2691 30.59C51.3091 30.33 51.3491 30.08 51.3891 29.84C51.3891 29.66 51.4691 29.4 51.6291 29.06C51.8091 28.72 51.8991 28.35 51.8991 27.95C51.8991 27.85 51.8791 27.76 51.8391 27.68C51.7991 27.6 51.7791 27.51 51.7791 27.41C51.8391 27.01 51.9291 26.61 52.0491 26.21C52.1091 26.01 52.1491 25.79 52.1691 25.55C52.2091 25.29 52.2491 25.05 52.2891 24.83C52.3291 24.59 52.3891 24.39 52.4691 24.23C52.5691 24.07 52.7091 23.99 52.8891 23.99C53.0091 23.99 53.1891 24.03 53.4291 24.11C53.6691 24.17 53.9091 24.26 54.1491 24.38C54.3891 24.5 54.5891 24.64 54.7491 24.8C54.9291 24.96 55.0191 25.13 55.0191 25.31C55.0191 25.35 54.9991 25.41 54.9591 25.49C54.7991 25.83 54.6891 26.17 54.6291 26.51C54.5691 26.83 54.5391 27.17 54.5391 27.53C54.5391 27.79 54.4991 28.05 54.4191 28.31C54.3591 28.55 54.2791 28.81 54.1791 29.09C54.0991 29.35 54.0191 29.62 53.9391 29.9C53.8791 30.16 53.8491 30.44 53.8491 30.74C53.8491 30.96 53.8691 31.19 53.9091 31.43C53.9691 31.67 53.9991 31.9 53.9991 32.12C53.9991 32.2 53.9791 32.28 53.9391 32.36C53.8991 32.44 53.8791 32.52 53.8791 32.6C53.8791 32.78 53.9591 32.87 54.1191 32.87C54.2191 32.83 54.2991 32.78 54.3591 32.72C54.4391 32.66 54.4991 32.59 54.5391 32.51C54.8191 32.07 55.1191 31.61 55.4391 31.13C55.7791 30.65 56.1291 30.21 56.4891 29.81C56.8691 29.39 57.2591 29.05 57.6591 28.79C58.0791 28.53 58.5091 28.4 58.9491 28.4C59.1691 28.4 59.3591 28.48 59.5191 28.64C59.6991 28.78 59.7891 28.96 59.7891 29.18C59.7891 29.64 59.7691 30.08 59.7291 30.5C59.7091 30.92 59.6991 31.35 59.6991 31.79C59.6991 31.81 59.7191 31.84 59.7591 31.88C59.8391 31.88 59.9391 31.82 60.0591 31.7C60.1791 31.58 60.2891 31.44 60.3891 31.28C60.5091 31.12 60.6091 30.95 60.6891 30.77C60.7691 30.59 60.8291 30.44 60.8691 30.32C60.9091 30.16 61.0191 30 61.1991 29.84C61.3991 29.68 61.5591 29.49 61.6791 29.27C61.7991 29.05 61.8891 28.89 61.9491 28.79C62.0091 28.67 62.0891 28.53 62.1891 28.37C62.3091 28.19 62.4691 27.95 62.6691 27.65C62.8891 27.35 63.2091 26.9 63.6291 26.3C63.7291 26.16 63.8291 26.06 63.9291 26C64.0291 25.92 64.1191 25.86 64.1991 25.82C64.2791 25.76 64.3491 25.69 64.4091 25.61C64.4891 25.53 64.5491 25.41 64.5891 25.25C64.6491 25.03 64.7691 24.86 64.9491 24.74C65.1491 24.6 65.2991 24.43 65.3991 24.23C65.4391 24.15 65.5291 24.01 65.6691 23.81C65.8091 23.59 65.9991 23.37 66.2391 23.15C66.4991 22.91 66.7991 22.7 67.1391 22.52C67.4791 22.34 67.8791 22.25 68.3391 22.25C68.5591 22.25 68.7991 22.33 69.0591 22.49C69.3391 22.65 69.4791 22.86 69.4791 23.12C69.4791 23.16 69.4691 23.2 69.4491 23.24C69.4491 23.26 69.4491 23.29 69.4491 23.33C69.4491 23.47 69.4691 23.6 69.5091 23.72C69.5691 23.84 69.5991 23.97 69.5991 24.11C69.5991 24.57 69.5391 25.1 69.4191 25.7C69.2991 26.28 69.2391 26.83 69.2391 27.35C69.2391 27.57 69.1591 27.76 68.9991 27.92C68.8591 28.06 68.7891 28.19 68.7891 28.31C68.7891 28.45 68.8491 28.56 68.9691 28.64C69.0891 28.72 69.1491 28.8 69.1491 28.88C69.1491 29.08 69.0891 29.23 68.9691 29.33C68.8691 29.41 68.8191 29.53 68.8191 29.69C68.8191 29.75 68.8191 29.82 68.8191 29.9C68.8391 29.96 68.8491 30.02 68.8491 30.08C68.8491 30.3 68.8191 30.51 68.7591 30.71C68.7191 30.89 68.6891 31.09 68.6691 31.31C68.6291 31.45 68.5591 31.57 68.4591 31.67C68.3791 31.77 68.3391 31.89 68.3391 32.03C68.3391 32.05 68.3391 32.07 68.3391 32.09C68.3591 32.09 68.3691 32.1 68.3691 32.12C68.3691 32.34 68.2991 32.56 68.1591 32.78C68.0191 32.98 67.9491 33.22 67.9491 33.5C67.9491 33.98 67.9291 34.45 67.8891 34.91C67.8491 35.35 67.8291 35.82 67.8291 36.32C67.8291 36.6 67.8491 36.87 67.8891 37.13C67.9491 37.37 68.0891 37.49 68.3091 37.49C68.4091 37.49 68.5391 37.38 68.6991 37.16C68.8791 36.94 69.0591 36.67 69.2391 36.35C69.4391 36.03 69.6291 35.69 69.8091 35.33C69.9891 34.95 70.1491 34.6 70.2891 34.28C70.4491 33.96 70.5691 33.7 70.6491 33.5C70.7491 33.3 70.7991 33.21 70.7991 33.23C70.7991 33.19 70.8091 33.12 70.8291 33.02C70.8491 32.9 70.8791 32.78 70.9191 32.66C70.9591 32.54 70.9991 32.44 71.0391 32.36C71.0991 32.26 71.1491 32.21 71.1891 32.21C71.2091 32.21 71.2491 32.28 71.3091 32.42C71.3891 32.54 71.4591 32.69 71.5191 32.87C71.5991 33.03 71.6691 33.18 71.7291 33.32C71.7891 33.44 71.8291 33.5 71.8491 33.5ZM64.6491 20.6C63.9091 20.66 63.1991 20.77 62.5191 20.93C61.8591 21.09 61.2391 21.31 60.6591 21.59C60.1591 21.83 59.6891 22.02 59.2491 22.16C58.8091 22.3 58.3291 22.37 57.8091 22.37C57.3091 22.37 56.8191 22.28 56.3391 22.1C55.8791 21.92 55.4691 21.67 55.1091 21.35C54.7491 21.03 54.4591 20.67 54.2391 20.27C54.0191 19.85 53.9091 19.4 53.9091 18.92C53.9091 18.82 53.9291 18.73 53.9691 18.65C54.0091 18.57 54.0791 18.53 54.1791 18.53C54.4391 18.53 54.6691 18.6 54.8691 18.74C55.0891 18.88 55.2991 19.04 55.4991 19.22C55.7191 19.38 55.9291 19.53 56.1291 19.67C56.3291 19.81 56.5491 19.88 56.7891 19.88C56.9291 19.88 57.0391 19.87 57.1191 19.85C57.6191 19.73 58.1091 19.61 58.5891 19.49C59.0691 19.35 59.5591 19.23 60.0591 19.13C60.5591 19.01 61.0691 18.91 61.5891 18.83C62.1091 18.75 62.6691 18.71 63.2691 18.71C63.2891 18.71 63.4491 18.72 63.7491 18.74C64.0691 18.74 64.4191 18.78 64.7991 18.86C65.1791 18.92 65.5191 19.03 65.8191 19.19C66.1391 19.33 66.2991 19.54 66.2991 19.82C66.2991 19.84 66.2691 19.9 66.2091 20C66.1691 20.08 66.0991 20.18 65.9991 20.3C65.8991 20.4 65.7591 20.49 65.5791 20.57C65.3991 20.65 65.1791 20.69 64.9191 20.69C64.8191 20.69 64.7291 20.66 64.6491 20.6ZM68.4291 33.23C68.3891 33.15 68.3691 33.09 68.3691 33.05C68.3891 33.05 68.3991 33.05 68.3991 33.05C68.4191 33.03 68.4391 33.02 68.4591 33.02C68.4391 33.06 68.4291 33.13 68.4291 33.23ZM68.4291 33.23C68.4091 33.19 68.3791 33.17 68.3391 33.17C68.3391 33.17 68.3291 33.18 68.3091 33.2H68.3991L68.4291 33.23ZM66.6591 25.13L66.5991 25.07L66.6591 25.13ZM75.0659 28.52C75.1259 28.52 75.1859 28.52 75.2459 28.52C75.3059 28.5 75.3559 28.49 75.3959 28.49C75.5359 28.49 75.6759 28.39 75.8159 28.19C75.9559 27.99 76.1059 27.76 76.2659 27.5C76.4459 27.22 76.6359 26.95 76.8359 26.69C77.0359 26.43 77.2559 26.24 77.4959 26.12C77.6359 25.94 77.8459 25.71 78.1259 25.43C78.4059 25.13 78.7259 24.84 79.0859 24.56C79.4659 24.26 79.8859 24.01 80.3459 23.81C80.8259 23.61 81.3259 23.51 81.8459 23.51C82.0459 23.51 82.2359 23.54 82.4159 23.6C82.5959 23.64 82.7759 23.69 82.9559 23.75C83.1159 23.79 83.2159 23.88 83.2559 24.02C83.2959 24.14 83.3959 24.2 83.5559 24.2C83.6959 24.24 83.8259 24.33 83.9459 24.47C84.0659 24.61 84.1659 24.77 84.2459 24.95C84.3459 25.11 84.4159 25.28 84.4559 25.46C84.5159 25.62 84.5459 25.74 84.5459 25.82C84.5459 26.24 84.4859 26.74 84.3659 27.32C84.2659 27.88 84.1059 28.39 83.8859 28.85C83.7059 29.23 83.4959 29.59 83.2559 29.93C83.0359 30.25 82.8459 30.61 82.6859 31.01C82.5859 31.31 82.4159 31.57 82.1759 31.79C81.9559 32.01 81.7359 32.25 81.5159 32.51C81.4159 32.61 81.3259 32.74 81.2459 32.9C81.1659 33.04 81.0759 33.18 80.9759 33.32C80.8759 33.46 80.7659 33.59 80.6459 33.71C80.5259 33.81 80.3859 33.87 80.2259 33.89C80.0659 33.89 79.9659 33.93 79.9259 34.01C79.8859 34.09 79.8659 34.18 79.8659 34.28C79.8659 34.42 79.7059 34.58 79.3859 34.76C79.0659 34.92 78.6959 35.08 78.2759 35.24C77.8559 35.38 77.4359 35.5 77.0159 35.6C76.6159 35.7 76.3159 35.75 76.1159 35.75C75.9759 35.75 75.8359 35.72 75.6959 35.66C75.5759 35.58 75.4459 35.54 75.3059 35.54C75.1659 35.54 75.0459 35.65 74.9459 35.87C74.8459 36.07 74.7559 36.32 74.6759 36.62C74.6159 36.92 74.5659 37.22 74.5259 37.52C74.5059 37.82 74.4959 38.06 74.4959 38.24C74.4959 38.4 74.5059 38.56 74.5259 38.72C74.5659 38.9 74.5859 39.07 74.5859 39.23C74.5859 39.39 74.5759 39.54 74.5559 39.68C74.5559 39.82 74.5559 39.97 74.5559 40.13C74.5559 40.31 74.6059 40.45 74.7059 40.55C74.8259 40.65 74.9059 40.77 74.9459 40.91C75.0059 41.07 75.0459 41.24 75.0659 41.42C75.0859 41.6 75.0959 41.78 75.0959 41.96C75.0959 42.16 75.1059 42.33 75.1259 42.47C75.1859 42.73 75.2559 42.95 75.3359 43.13C75.4159 43.31 75.4559 43.51 75.4559 43.73C75.4559 43.85 75.4559 43.98 75.4559 44.12C75.4559 44.26 75.4159 44.39 75.3359 44.51C75.2759 44.63 75.1659 44.73 75.0059 44.81C74.8459 44.89 74.6059 44.93 74.2859 44.93C74.1059 44.93 73.9359 44.84 73.7759 44.66C73.6159 44.5 73.4759 44.28 73.3559 44C73.2359 43.72 73.1359 43.39 73.0559 43.01C72.9959 42.65 72.9659 42.27 72.9659 41.87C72.9659 41.71 72.9959 41.54 73.0559 41.36C73.1359 41.18 73.1759 41.03 73.1759 40.91C73.0359 40.65 72.9259 40.4 72.8459 40.16C72.7659 39.96 72.6959 39.75 72.6359 39.53C72.5759 39.33 72.5459 39.18 72.5459 39.08C72.5459 38.98 72.5759 38.88 72.6359 38.78C72.6959 38.68 72.7259 38.58 72.7259 38.48C72.7259 38.38 72.7059 38.29 72.6659 38.21C72.6259 38.13 72.6059 38.04 72.6059 37.94C72.6059 37.88 72.6159 37.82 72.6359 37.76C72.6759 37.68 72.6959 37.6 72.6959 37.52C72.6959 37.42 72.6859 37.34 72.6659 37.28C72.6459 37.2 72.6359 37.11 72.6359 37.01C72.6359 36.95 72.6559 36.86 72.6959 36.74C72.6959 36.58 72.6559 36.42 72.5759 36.26C72.4959 36.1 72.4559 35.94 72.4559 35.78C72.4559 35.5 72.5059 35.19 72.6059 34.85C72.7259 34.49 72.7859 34.22 72.7859 34.04C72.7859 34 72.7759 33.97 72.7559 33.95C72.7359 33.91 72.7259 33.87 72.7259 33.83C72.7259 33.75 72.7459 33.69 72.7859 33.65C72.8459 33.59 72.8759 33.52 72.8759 33.44C72.8759 33.32 72.8159 33.21 72.6959 33.11C72.5959 32.99 72.5459 32.89 72.5459 32.81C72.5459 32.75 72.6059 32.67 72.7259 32.57C72.8459 32.47 72.9059 32.37 72.9059 32.27C72.9059 32.19 72.8759 32.08 72.8159 31.94C72.7559 31.8 72.7259 31.66 72.7259 31.52C72.7259 31.28 72.7559 31.09 72.8159 30.95C72.8759 30.81 72.9459 30.7 73.0259 30.62C73.1059 30.54 73.1759 30.48 73.2359 30.44C73.2959 30.38 73.3259 30.31 73.3259 30.23C73.3259 30.13 73.2859 30.05 73.2059 29.99C73.1259 29.93 73.0559 29.8 72.9959 29.6C73.0759 29.42 73.1559 29.22 73.2359 29C73.3359 28.76 73.3859 28.54 73.3859 28.34C73.3859 28.14 73.3159 27.94 73.1759 27.74C73.0359 27.54 72.9659 27.29 72.9659 26.99C72.9659 26.85 73.0259 26.66 73.1459 26.42C73.2859 26.16 73.3559 25.88 73.3559 25.58C73.3559 25.36 73.3259 25.14 73.2659 24.92C73.2259 24.68 73.2059 24.45 73.2059 24.23C73.2059 24.01 73.2759 23.8 73.4159 23.6C73.5759 23.4 73.6559 23.17 73.6559 22.91C73.6559 22.77 73.6459 22.64 73.6259 22.52C73.6059 22.38 73.5959 22.25 73.5959 22.13C73.5959 21.97 73.6059 21.79 73.6259 21.59C73.6459 21.39 73.6859 21.2 73.7459 21.02C73.8059 20.84 73.8859 20.69 73.9859 20.57C74.0859 20.43 74.2159 20.36 74.3759 20.36C74.5159 20.36 74.6959 20.39 74.9159 20.45C75.1559 20.51 75.3759 20.61 75.5759 20.75C75.7759 20.87 75.9459 21.04 76.0859 21.26C76.2459 21.46 76.3259 21.71 76.3259 22.01C76.3259 22.21 76.2759 22.44 76.1759 22.7C76.0959 22.96 75.9959 23.23 75.8759 23.51C75.7559 23.77 75.6459 24.03 75.5459 24.29C75.4659 24.55 75.4259 24.78 75.4259 24.98C75.4259 25.44 75.3659 25.85 75.2459 26.21C75.1259 26.55 75.0459 26.92 75.0059 27.32C75.0059 27.42 75.0359 27.51 75.0959 27.59C75.1559 27.67 75.1859 27.75 75.1859 27.83C75.1859 27.91 75.1459 27.98 75.0659 28.04C75.0059 28.1 74.9759 28.18 74.9759 28.28C74.9759 28.32 75.0159 28.4 75.0959 28.52C74.9159 28.6 74.7859 28.69 74.7059 28.79C74.6259 28.87 74.5559 28.97 74.4959 29.09C74.4559 29.21 74.4159 29.35 74.3759 29.51C74.3559 29.65 74.2959 29.82 74.1959 30.02L74.2559 30.08C74.3559 30.08 74.4359 30.04 74.4959 29.96C74.5559 29.88 74.6059 29.79 74.6459 29.69C74.6859 29.57 74.7159 29.46 74.7359 29.36C74.7559 29.26 74.7659 29.18 74.7659 29.12C74.7659 28.96 74.7259 28.81 74.6459 28.67C74.7259 28.63 74.7959 28.61 74.8559 28.61C74.9359 28.59 75.0059 28.56 75.0659 28.52ZM78.0959 27.41C78.0959 27.63 78.0659 27.8 78.0059 27.92C77.9459 28.02 77.8759 28.12 77.7959 28.22C77.7359 28.3 77.6659 28.39 77.5859 28.49C77.5059 28.57 77.4459 28.69 77.4059 28.85C77.3259 29.11 77.2059 29.34 77.0459 29.54C76.8859 29.74 76.7259 29.95 76.5659 30.17C76.5059 30.25 76.4159 30.42 76.2959 30.68C76.1959 30.92 76.0859 31.2 75.9659 31.52C75.8659 31.82 75.7759 32.13 75.6959 32.45C75.6159 32.77 75.5759 33.04 75.5759 33.26C75.5759 33.4 75.5859 33.58 75.6059 33.8C75.6459 34 75.7459 34.1 75.9059 34.1C75.9459 34.1 76.1459 34.07 76.5059 34.01C76.8859 33.93 77.3059 33.81 77.7659 33.65C78.2259 33.49 78.6759 33.27 79.1159 32.99C79.5559 32.69 79.8659 32.31 80.0459 31.85C80.2059 31.65 80.3559 31.45 80.4959 31.25C80.6159 31.09 80.7459 30.93 80.8859 30.77C81.0259 30.61 81.1459 30.48 81.2459 30.38C81.3259 30.32 81.4259 30.1 81.5459 29.72C81.6859 29.32 81.8159 28.87 81.9359 28.37C82.0759 27.87 82.1859 27.37 82.2659 26.87C82.3659 26.35 82.4159 25.94 82.4159 25.64C82.4159 25.4 82.3559 25.25 82.2359 25.19C82.1159 25.13 81.9659 25.1 81.7859 25.1C81.4459 25.1 81.1159 25.21 80.7959 25.43C80.4759 25.65 80.1559 25.9 79.8359 26.18C79.5359 26.46 79.2359 26.73 78.9359 26.99C78.6559 27.23 78.3759 27.37 78.0959 27.41ZM73.7759 30.47C73.6959 30.51 73.6559 30.59 73.6559 30.71C73.6559 30.77 73.6659 30.81 73.6859 30.83C73.7059 30.85 73.7159 30.88 73.7159 30.92C73.7359 30.88 73.7559 30.85 73.7759 30.83C73.7959 30.81 73.8159 30.78 73.8359 30.74C73.8359 30.68 73.8159 30.59 73.7759 30.47ZM74.1659 39.8L74.2559 39.83L74.1959 39.71L74.1659 39.8ZM73.7459 38.27C73.7859 38.15 73.8059 38.08 73.8059 38.06L73.7459 38C73.7059 38.08 73.6859 38.15 73.6859 38.21L73.7459 38.27ZM88.1126 27.44C88.2726 27.16 88.4126 26.88 88.5326 26.6C88.6726 26.32 88.7926 26.03 88.8926 25.73C88.9526 25.49 89.0826 25.25 89.2826 25.01C89.5026 24.77 89.7226 24.56 89.9426 24.38C90.1626 24.18 90.3526 24.03 90.5126 23.93C90.6926 23.81 90.7826 23.76 90.7826 23.78C90.9426 23.56 91.1326 23.45 91.3526 23.45C91.5926 23.45 91.8226 23.43 92.0426 23.39C92.3826 23.39 92.7226 23.49 93.0626 23.69C93.4026 23.89 93.7726 24 94.1726 24.02C94.2926 24.1 94.4426 24.19 94.6226 24.29C94.8226 24.39 95.0126 24.52 95.1926 24.68C95.3726 24.84 95.5226 25.03 95.6426 25.25C95.7826 25.47 95.8526 25.73 95.8526 26.03C95.8526 26.31 95.7726 26.62 95.6126 26.96C95.4726 27.28 95.2726 27.61 95.0126 27.95C94.7726 28.27 94.4926 28.58 94.1726 28.88C93.8726 29.18 93.5626 29.44 93.2426 29.66C93.0626 29.78 92.8926 29.92 92.7326 30.08C92.5726 30.24 92.4126 30.4 92.2526 30.56C92.0926 30.7 91.9226 30.83 91.7426 30.95C91.5626 31.05 91.3426 31.11 91.0826 31.13C90.5626 31.19 90.2326 31.41 90.0926 31.79C89.9726 32.15 89.9126 32.83 89.9126 33.83C89.9126 34.35 89.9726 34.82 90.0926 35.24C90.2126 35.64 90.4826 35.84 90.9026 35.84C90.9826 35.84 91.1826 35.76 91.5026 35.6C91.8226 35.42 92.1726 35.21 92.5526 34.97C92.9326 34.71 93.3026 34.44 93.6626 34.16C94.0226 33.86 94.2926 33.6 94.4726 33.38C94.6526 33.32 94.8126 33.23 94.9526 33.11C95.0926 32.97 95.2326 32.84 95.3726 32.72C95.5126 32.58 95.6526 32.47 95.7926 32.39C95.9326 32.29 96.0826 32.24 96.2426 32.24C96.3826 32.24 96.5026 32.29 96.6026 32.39C96.7226 32.49 96.7826 32.6 96.7826 32.72C96.7826 32.8 96.7226 32.94 96.6026 33.14C96.4826 33.32 96.3326 33.51 96.1526 33.71C95.9726 33.91 95.7826 34.09 95.5826 34.25C95.4026 34.41 95.2526 34.51 95.1326 34.55C94.9326 34.61 94.7826 34.72 94.6826 34.88C94.5826 35.04 94.4326 35.15 94.2326 35.21C94.1726 35.25 94.0726 35.38 93.9326 35.6C93.8126 35.82 93.6526 36 93.4526 36.14C93.3526 36.22 93.2426 36.34 93.1226 36.5C93.0026 36.66 92.8626 36.82 92.7026 36.98C92.5626 37.14 92.3826 37.28 92.1626 37.4C91.9626 37.52 91.7126 37.58 91.4126 37.58C91.2726 37.58 91.1226 37.57 90.9626 37.55C90.8026 37.51 90.6426 37.49 90.4826 37.49C90.4226 37.49 90.3626 37.5 90.3026 37.52C90.2426 37.52 90.1826 37.52 90.1226 37.52C89.9426 37.52 89.7526 37.48 89.5526 37.4C89.3526 37.32 89.1626 37.22 88.9826 37.1C88.8026 36.96 88.6526 36.82 88.5326 36.68C88.4126 36.52 88.3526 36.37 88.3526 36.23C88.3526 36.15 88.3226 36.09 88.2626 36.05C88.2226 36.01 88.1726 35.98 88.1126 35.96C88.0726 35.92 88.0226 35.88 87.9626 35.84C87.9226 35.8 87.9026 35.72 87.9026 35.6C87.9026 35.38 87.8126 35.17 87.6326 34.97C87.4526 34.75 87.3626 34.5 87.3626 34.22C87.3626 34.16 87.4126 33.96 87.5126 33.62C87.6326 33.28 87.6926 32.97 87.6926 32.69C87.6926 32.55 87.6126 32.35 87.4526 32.09C87.3126 31.83 87.2426 31.64 87.2426 31.52C87.2426 31.3 87.2526 31.08 87.2726 30.86C87.3126 30.64 87.3326 30.42 87.3326 30.2C87.3326 30.14 87.3226 30.08 87.3026 30.02C87.3026 29.96 87.3026 29.9 87.3026 29.84C87.4226 29.56 87.5626 29.27 87.7226 28.97C87.8826 28.67 87.9626 28.38 87.9626 28.1C87.9626 28.06 87.9526 28.03 87.9326 28.01C87.9326 27.99 87.9326 27.96 87.9326 27.92C87.9326 27.82 87.9626 27.74 88.0226 27.68C88.1026 27.6 88.1426 27.53 88.1426 27.47L88.1126 27.44ZM90.3026 29.48C90.3026 29.48 90.4626 29.39 90.7826 29.21C91.1026 29.01 91.4526 28.78 91.8326 28.52C92.2126 28.24 92.5526 27.96 92.8526 27.68C93.1726 27.38 93.3326 27.11 93.3326 26.87C93.3326 26.85 93.3226 26.78 93.3026 26.66C93.2826 26.52 93.2526 26.38 93.2126 26.24C93.1926 26.08 93.1526 25.95 93.0926 25.85C93.0326 25.73 92.9626 25.67 92.8826 25.67C92.7426 25.67 92.5826 25.75 92.4026 25.91C92.2426 26.05 92.0726 26.23 91.8926 26.45C91.7126 26.65 91.5426 26.85 91.3826 27.05C91.2426 27.25 91.1126 27.4 90.9926 27.5C90.9926 27.5 90.9526 27.57 90.8726 27.71C90.7926 27.83 90.7026 27.99 90.6026 28.19C90.5026 28.37 90.4026 28.56 90.3026 28.76C90.2226 28.96 90.1826 29.11 90.1826 29.21C90.1826 29.27 90.2226 29.36 90.3026 29.48ZM88.1726 27.47C88.1326 27.47 88.1126 27.46 88.1126 27.44L88.1726 27.47ZM119.503 33.5C119.483 33.54 119.433 33.66 119.353 33.86C119.293 34.04 119.223 34.24 119.143 34.46C119.083 34.66 119.013 34.85 118.933 35.03C118.873 35.21 118.833 35.32 118.813 35.36C118.733 35.62 118.633 35.83 118.513 35.99C118.413 36.13 118.303 36.27 118.183 36.41C118.083 36.55 117.993 36.71 117.913 36.89C117.853 37.07 117.823 37.31 117.823 37.61C117.823 38.01 117.743 38.42 117.583 38.84C117.423 39.28 117.313 39.7 117.253 40.1C117.173 40.26 117.073 40.44 116.953 40.64C116.833 40.86 116.683 41.06 116.503 41.24C116.323 41.44 116.093 41.61 115.813 41.75C115.553 41.89 115.233 41.96 114.853 41.96C114.633 41.96 114.423 41.91 114.223 41.81C114.023 41.71 113.843 41.58 113.683 41.42C113.523 41.28 113.393 41.12 113.293 40.94C113.193 40.76 113.143 40.58 113.143 40.4C113.143 40.36 113.173 40.23 113.233 40.01C113.073 39.73 112.923 39.46 112.783 39.2C112.643 38.94 112.573 38.68 112.573 38.42C112.573 38.3 112.583 38.17 112.603 38.03C112.643 37.91 112.673 37.75 112.693 37.55C112.733 37.33 112.763 37.06 112.783 36.74C112.823 36.4 112.843 35.97 112.843 35.45C112.843 35.15 112.923 34.87 113.083 34.61C113.243 34.35 113.323 34.1 113.323 33.86C113.323 33.7 113.293 33.55 113.233 33.41C113.193 33.27 113.173 33.13 113.173 32.99C113.253 32.91 113.333 32.84 113.413 32.78C113.493 32.72 113.573 32.65 113.653 32.57C113.513 32.29 113.443 32.05 113.443 31.85C113.443 31.53 113.483 31.2 113.563 30.86C113.663 30.52 113.763 30.2 113.863 29.9C113.963 29.6 114.053 29.34 114.133 29.12C114.233 28.88 114.283 28.69 114.283 28.55C114.283 28.45 114.273 28.36 114.253 28.28C114.233 28.18 114.223 28.08 114.223 27.98C114.223 27.82 114.233 27.66 114.253 27.5C114.293 27.34 114.313 27.18 114.313 27.02C114.313 26.94 114.303 26.87 114.283 26.81C114.263 26.73 114.253 26.65 114.253 26.57C114.253 26.51 114.253 26.45 114.253 26.39C114.273 26.33 114.283 26.27 114.283 26.21C114.283 26.11 114.263 26.02 114.223 25.94C114.183 25.84 114.163 25.74 114.163 25.64C114.163 25.46 114.213 25.29 114.313 25.13L114.253 25.07L114.313 25.13C114.273 25.13 114.223 25.13 114.163 25.13C114.123 25.11 114.083 25.1 114.043 25.1C113.943 25.1 113.833 25.14 113.713 25.22C113.593 25.28 113.483 25.34 113.383 25.4C113.323 25.74 113.213 25.96 113.053 26.06C112.893 26.14 112.703 26.25 112.483 26.39C112.423 26.67 112.353 26.93 112.273 27.17C112.193 27.41 112.073 27.64 111.913 27.86C111.633 28.2 111.373 28.67 111.133 29.27C110.893 29.85 110.553 30.41 110.113 30.95C109.973 31.11 109.873 31.35 109.813 31.67C109.773 31.99 109.693 32.27 109.573 32.51C109.333 32.97 109.153 33.4 109.033 33.8C108.913 34.18 108.793 34.51 108.673 34.79C108.553 35.07 108.413 35.29 108.253 35.45C108.113 35.59 107.893 35.66 107.593 35.66C107.153 35.6 106.753 35.44 106.393 35.18C106.093 34.96 105.813 34.62 105.553 34.16C105.313 33.68 105.193 33.01 105.193 32.15V31.67C105.193 31.47 105.173 31.29 105.133 31.13C105.113 30.95 105.053 30.86 104.953 30.86C104.853 30.86 104.743 30.88 104.623 30.92C104.383 31.46 104.103 32.03 103.783 32.63C103.483 33.23 103.103 33.86 102.643 34.52C102.503 34.74 102.373 34.95 102.253 35.15C102.133 35.35 102.003 35.53 101.863 35.69C101.743 35.83 101.583 35.95 101.383 36.05C101.203 36.15 100.973 36.2 100.693 36.2C100.473 36.2 100.253 36.12 100.033 35.96C99.8334 35.78 99.6434 35.56 99.4634 35.3C99.3034 35.02 99.1634 34.7 99.0434 34.34C98.9434 33.98 98.8934 33.61 98.8934 33.23C98.8934 33.11 98.9034 32.99 98.9234 32.87C98.9434 32.75 98.9534 32.62 98.9534 32.48C98.9534 32.28 98.9434 32.09 98.9234 31.91C98.9034 31.73 98.8934 31.54 98.8934 31.34C98.8934 31.08 98.9034 30.83 98.9234 30.59C98.9634 30.33 99.0034 30.08 99.0434 29.84C99.0434 29.66 99.1234 29.4 99.2834 29.06C99.4634 28.72 99.5534 28.35 99.5534 27.95C99.5534 27.85 99.5334 27.76 99.4934 27.68C99.4534 27.6 99.4334 27.51 99.4334 27.41C99.4934 27.01 99.5834 26.61 99.7034 26.21C99.7634 26.01 99.8034 25.79 99.8234 25.55C99.8634 25.29 99.9034 25.05 99.9434 24.83C99.9834 24.59 100.043 24.39 100.123 24.23C100.223 24.07 100.363 23.99 100.543 23.99C100.663 23.99 100.843 24.03 101.083 24.11C101.323 24.17 101.563 24.26 101.803 24.38C102.043 24.5 102.243 24.64 102.403 24.8C102.583 24.96 102.673 25.13 102.673 25.31C102.673 25.35 102.653 25.41 102.613 25.49C102.453 25.83 102.343 26.17 102.283 26.51C102.223 26.83 102.193 27.17 102.193 27.53C102.193 27.79 102.153 28.05 102.073 28.31C102.013 28.55 101.933 28.81 101.833 29.09C101.753 29.35 101.673 29.62 101.593 29.9C101.533 30.16 101.503 30.44 101.503 30.74C101.503 30.96 101.523 31.19 101.563 31.43C101.623 31.67 101.653 31.9 101.653 32.12C101.653 32.2 101.633 32.28 101.593 32.36C101.553 32.44 101.533 32.52 101.533 32.6C101.533 32.78 101.613 32.87 101.773 32.87C101.873 32.83 101.953 32.78 102.013 32.72C102.093 32.66 102.153 32.59 102.193 32.51C102.473 32.07 102.773 31.61 103.093 31.13C103.433 30.65 103.783 30.21 104.143 29.81C104.523 29.39 104.913 29.05 105.313 28.79C105.733 28.53 106.163 28.4 106.603 28.4C106.823 28.4 107.013 28.48 107.173 28.64C107.353 28.78 107.443 28.96 107.443 29.18C107.443 29.64 107.423 30.08 107.383 30.5C107.363 30.92 107.353 31.35 107.353 31.79C107.353 31.81 107.373 31.84 107.413 31.88C107.493 31.88 107.593 31.82 107.713 31.7C107.833 31.58 107.943 31.44 108.043 31.28C108.163 31.12 108.263 30.95 108.343 30.77C108.423 30.59 108.483 30.44 108.523 30.32C108.563 30.16 108.673 30 108.853 29.84C109.053 29.68 109.213 29.49 109.333 29.27C109.453 29.05 109.543 28.89 109.603 28.79C109.663 28.67 109.743 28.53 109.843 28.37C109.963 28.19 110.123 27.95 110.323 27.65C110.543 27.35 110.863 26.9 111.283 26.3C111.383 26.16 111.483 26.06 111.583 26C111.683 25.92 111.773 25.86 111.853 25.82C111.933 25.76 112.003 25.69 112.063 25.61C112.143 25.53 112.203 25.41 112.243 25.25C112.303 25.03 112.423 24.86 112.603 24.74C112.803 24.6 112.953 24.43 113.053 24.23C113.093 24.15 113.183 24.01 113.323 23.81C113.463 23.59 113.653 23.37 113.893 23.15C114.153 22.91 114.453 22.7 114.793 22.52C115.133 22.34 115.533 22.25 115.993 22.25C116.213 22.25 116.453 22.33 116.713 22.49C116.993 22.65 117.133 22.86 117.133 23.12C117.133 23.16 117.123 23.2 117.103 23.24C117.103 23.26 117.103 23.29 117.103 23.33C117.103 23.47 117.123 23.6 117.163 23.72C117.223 23.84 117.253 23.97 117.253 24.11C117.253 24.57 117.193 25.1 117.073 25.7C116.953 26.28 116.893 26.83 116.893 27.35C116.893 27.57 116.813 27.76 116.653 27.92C116.513 28.06 116.443 28.19 116.443 28.31C116.443 28.45 116.503 28.56 116.623 28.64C116.743 28.72 116.803 28.8 116.803 28.88C116.803 29.08 116.743 29.23 116.623 29.33C116.523 29.41 116.473 29.53 116.473 29.69C116.473 29.75 116.473 29.82 116.473 29.9C116.493 29.96 116.503 30.02 116.503 30.08C116.503 30.3 116.473 30.51 116.413 30.71C116.373 30.89 116.343 31.09 116.323 31.31C116.283 31.45 116.213 31.57 116.113 31.67C116.033 31.77 115.993 31.89 115.993 32.03C115.993 32.05 115.993 32.07 115.993 32.09C116.013 32.09 116.023 32.1 116.023 32.12C116.023 32.34 115.953 32.56 115.813 32.78C115.673 32.98 115.603 33.22 115.603 33.5C115.603 33.98 115.583 34.45 115.543 34.91C115.503 35.35 115.483 35.82 115.483 36.32C115.483 36.6 115.503 36.87 115.543 37.13C115.603 37.37 115.743 37.49 115.963 37.49C116.063 37.49 116.193 37.38 116.353 37.16C116.533 36.94 116.713 36.67 116.893 36.35C117.093 36.03 117.283 35.69 117.463 35.33C117.643 34.95 117.803 34.6 117.943 34.28C118.103 33.96 118.223 33.7 118.303 33.5C118.403 33.3 118.453 33.21 118.453 33.23C118.453 33.19 118.463 33.12 118.483 33.02C118.503 32.9 118.533 32.78 118.573 32.66C118.613 32.54 118.653 32.44 118.693 32.36C118.753 32.26 118.803 32.21 118.843 32.21C118.863 32.21 118.903 32.28 118.963 32.42C119.043 32.54 119.113 32.69 119.173 32.87C119.253 33.03 119.323 33.18 119.383 33.32C119.443 33.44 119.483 33.5 119.503 33.5ZM112.303 20.6C111.563 20.66 110.853 20.77 110.173 20.93C109.513 21.09 108.893 21.31 108.313 21.59C107.813 21.83 107.343 22.02 106.903 22.16C106.463 22.3 105.983 22.37 105.463 22.37C104.963 22.37 104.473 22.28 103.993 22.1C103.533 21.92 103.123 21.67 102.763 21.35C102.403 21.03 102.113 20.67 101.893 20.27C101.673 19.85 101.563 19.4 101.563 18.92C101.563 18.82 101.583 18.73 101.623 18.65C101.663 18.57 101.733 18.53 101.833 18.53C102.093 18.53 102.323 18.6 102.523 18.74C102.743 18.88 102.953 19.04 103.153 19.22C103.373 19.38 103.583 19.53 103.783 19.67C103.983 19.81 104.203 19.88 104.443 19.88C104.583 19.88 104.693 19.87 104.773 19.85C105.273 19.73 105.763 19.61 106.243 19.49C106.723 19.35 107.213 19.23 107.713 19.13C108.213 19.01 108.723 18.91 109.243 18.83C109.763 18.75 110.323 18.71 110.923 18.71C110.943 18.71 111.103 18.72 111.403 18.74C111.723 18.74 112.073 18.78 112.453 18.86C112.833 18.92 113.173 19.03 113.473 19.19C113.793 19.33 113.953 19.54 113.953 19.82C113.953 19.84 113.923 19.9 113.863 20C113.823 20.08 113.753 20.18 113.653 20.3C113.553 20.4 113.413 20.49 113.233 20.57C113.053 20.65 112.833 20.69 112.573 20.69C112.473 20.69 112.383 20.66 112.303 20.6ZM116.083 33.23C116.043 33.15 116.023 33.09 116.023 33.05C116.043 33.05 116.053 33.05 116.053 33.05C116.073 33.03 116.093 33.02 116.113 33.02C116.093 33.06 116.083 33.13 116.083 33.23ZM116.083 33.23C116.063 33.19 116.033 33.17 115.993 33.17C115.993 33.17 115.983 33.18 115.963 33.2H116.053L116.083 33.23ZM114.313 25.13L114.253 25.07L114.313 25.13ZM129.358 33.86C129.278 33.88 129.198 33.89 129.118 33.89C129.058 33.89 129.028 33.92 129.028 33.98C129.028 34.08 129.038 34.17 129.058 34.25C129.078 34.31 129.088 34.38 129.088 34.46C129.088 34.5 129.038 34.64 128.938 34.88C128.858 35.1 128.748 35.34 128.608 35.6C128.488 35.86 128.348 36.1 128.188 36.32C128.048 36.52 127.918 36.62 127.798 36.62C127.758 36.62 127.708 36.61 127.648 36.59C127.608 36.55 127.558 36.51 127.498 36.47C127.358 36.47 127.218 36.59 127.078 36.83C126.958 37.05 126.798 37.3 126.598 37.58C126.418 37.84 126.188 38.08 125.908 38.3C125.628 38.52 125.278 38.63 124.858 38.63C124.678 38.63 124.498 38.59 124.318 38.51C124.158 38.45 123.988 38.42 123.808 38.42C123.768 38.42 123.728 38.42 123.688 38.42C123.668 38.44 123.638 38.45 123.598 38.45C123.478 38.45 123.398 38.4 123.358 38.3C123.338 38.2 123.308 38.09 123.268 37.97C123.248 37.85 123.198 37.74 123.118 37.64C123.058 37.54 122.948 37.49 122.788 37.49C122.708 37.49 122.628 37.5 122.548 37.52C122.488 37.52 122.428 37.52 122.368 37.52C122.208 37.52 122.108 37.44 122.068 37.28C122.028 37.1 121.998 36.93 121.978 36.77C121.878 36.43 121.718 36.02 121.498 35.54C121.298 35.06 121.188 34.56 121.168 34.04C121.168 33.98 121.198 33.95 121.258 33.95C121.338 33.95 121.388 34.01 121.408 34.13C121.428 34.25 121.468 34.31 121.528 34.31C121.648 34.31 121.718 34.21 121.738 34.01C121.778 33.81 121.798 33.61 121.798 33.41C121.798 33.19 121.758 33.05 121.678 32.99C121.598 32.93 121.508 32.89 121.408 32.87C121.308 32.83 121.218 32.79 121.138 32.75C121.058 32.71 121.018 32.61 121.018 32.45C121.018 32.37 121.038 32.24 121.078 32.06C121.118 31.88 121.158 31.7 121.198 31.52C121.238 31.34 121.278 31.18 121.318 31.04C121.358 30.88 121.378 30.78 121.378 30.74C121.378 30.22 121.438 29.71 121.558 29.21C121.698 28.71 121.818 28.19 121.918 27.65C121.978 27.33 122.088 27.04 122.248 26.78C122.408 26.52 122.488 26.28 122.488 26.06C122.488 25.96 122.508 25.82 122.548 25.64C122.588 25.46 122.638 25.27 122.698 25.07C122.758 24.87 122.828 24.67 122.908 24.47C122.988 24.27 123.058 24.1 123.118 23.96C123.258 23.56 123.418 23.31 123.598 23.21C123.798 23.11 124.018 23.06 124.258 23.06C124.398 23.06 124.578 23.07 124.798 23.09C125.018 23.11 125.218 23.16 125.398 23.24C125.598 23.3 125.768 23.41 125.908 23.57C126.048 23.73 126.118 23.95 126.118 24.23C126.118 24.59 126.078 24.95 125.998 25.31C125.938 25.65 125.868 25.99 125.788 26.33C125.708 26.67 125.628 26.99 125.548 27.29C125.488 27.59 125.458 27.86 125.458 28.1C125.458 28.26 125.468 28.37 125.488 28.43C125.488 28.69 125.438 28.95 125.338 29.21C125.258 29.45 125.218 29.68 125.218 29.9C125.218 30.12 125.368 30.28 125.668 30.38C125.968 30.46 126.288 30.53 126.628 30.59C126.988 30.65 127.318 30.72 127.618 30.8C127.918 30.88 128.068 31.02 128.068 31.22C128.068 31.28 128.028 31.35 127.948 31.43C127.888 31.51 127.858 31.57 127.858 31.61C127.858 31.61 127.878 31.64 127.918 31.7C127.958 31.76 128.008 31.84 128.068 31.94C128.128 32.02 128.198 32.1 128.278 32.18C128.358 32.24 128.428 32.27 128.488 32.27C128.608 32.27 128.668 32.2 128.668 32.06C128.668 31.92 128.688 31.77 128.728 31.61C128.848 31.81 128.928 31.97 128.968 32.09C129.008 32.21 129.048 32.32 129.088 32.42C129.128 32.52 129.178 32.63 129.238 32.75C129.318 32.87 129.438 33.03 129.598 33.23C129.598 33.39 129.568 33.51 129.508 33.59C129.448 33.67 129.398 33.76 129.358 33.86ZM124.888 32.66C124.868 32.7 124.838 32.73 124.798 32.75C124.778 32.77 124.768 32.8 124.768 32.84C124.768 33.14 124.778 33.46 124.798 33.8C124.818 34.14 124.868 34.46 124.948 34.76C125.028 35.04 125.148 35.28 125.308 35.48C125.468 35.66 125.678 35.75 125.938 35.75C126.078 35.75 126.268 35.65 126.508 35.45C126.768 35.25 126.898 35.03 126.898 34.79C126.898 34.75 126.888 34.73 126.868 34.73C126.868 34.71 126.868 34.68 126.868 34.64C126.748 34.42 126.638 34.19 126.538 33.95C126.438 33.71 126.318 33.5 126.178 33.32C126.038 33.12 125.858 32.96 125.638 32.84C125.438 32.72 125.188 32.66 124.888 32.66ZM129.328 33.86C129.408 33.9 129.478 33.96 129.538 34.04C129.618 34.1 129.658 34.18 129.658 34.28C129.658 34.34 129.598 34.37 129.478 34.37C129.418 34.37 129.368 34.33 129.328 34.25C129.308 34.17 129.298 34.11 129.298 34.07C129.298 34.01 129.318 33.94 129.358 33.86H129.328ZM144.086 23.84C144.146 23.3 144.276 22.85 144.476 22.49C144.676 22.11 144.776 21.71 144.776 21.29C144.776 20.93 144.856 20.58 145.016 20.24C145.196 19.9 145.286 19.63 145.286 19.43C145.286 19.33 145.246 19.22 145.166 19.1C145.106 18.98 145.076 18.9 145.076 18.86C145.076 18.8 145.136 18.72 145.256 18.62C145.456 18.42 145.576 18.23 145.616 18.05C145.656 17.87 145.676 17.64 145.676 17.36C145.676 17.26 145.666 17.16 145.646 17.06C145.626 16.96 145.616 16.86 145.616 16.76C145.616 16.42 145.686 16.16 145.826 15.98C145.966 15.8 146.036 15.58 146.036 15.32C146.036 15.18 146.056 15.08 146.096 15.02C146.136 14.94 146.176 14.88 146.216 14.84C146.256 14.8 146.296 14.76 146.336 14.72C146.376 14.68 146.396 14.62 146.396 14.54C146.396 14.44 146.386 14.35 146.366 14.27C146.346 14.19 146.336 14.11 146.336 14.03C146.336 14.01 146.386 13.88 146.486 13.64C146.606 13.38 146.726 13.09 146.846 12.77C146.966 12.45 147.076 12.13 147.176 11.81C147.296 11.49 147.356 11.25 147.356 11.09C147.356 11.05 147.346 11.01 147.326 10.97C147.306 10.91 147.296 10.86 147.296 10.82C147.296 10.42 147.386 10.14 147.566 9.98C147.746 9.8 147.836 9.62 147.836 9.44C147.836 9.38 147.826 9.31 147.806 9.23C147.806 9.15 147.806 9.08 147.806 9.02C147.846 8.78 147.946 8.6 148.106 8.48C148.266 8.34 148.346 8.21 148.346 8.09C148.346 7.81 148.386 7.55 148.466 7.31C148.566 7.05 148.686 6.77 148.826 6.47C148.966 6.15 149.126 5.79 149.306 5.39C149.486 4.99 149.676 4.5 149.876 3.92C150.056 3.38 150.286 2.95 150.566 2.63C150.866 2.31 151.186 1.92 151.526 1.46C151.666 1.46 151.826 1.42 152.006 1.34C152.206 1.26 152.436 1.17 152.696 1.07C152.956 0.969998 153.256 0.879999 153.596 0.8C153.956 0.719998 154.376 0.679998 154.856 0.679998C155.256 0.679998 155.626 0.809998 155.966 1.07C156.306 1.33 156.596 1.67 156.836 2.09C157.076 2.49 157.266 2.95 157.406 3.47C157.546 3.97 157.616 4.48 157.616 5C157.616 5.38 157.556 5.74 157.436 6.08C157.316 6.42 157.256 6.78 157.256 7.16C157.256 7.28 157.256 7.4 157.256 7.52C157.276 7.64 157.286 7.77 157.286 7.91C157.286 8.17 157.246 8.44 157.166 8.72C157.106 8.98 157.036 9.24 156.956 9.5C156.876 9.74 156.796 9.97 156.716 10.19C156.656 10.39 156.626 10.55 156.626 10.67C156.626 10.95 156.586 11.19 156.506 11.39C156.446 11.57 156.366 11.76 156.266 11.96C156.146 12.2 156.046 12.47 155.966 12.77C155.906 13.05 155.836 13.34 155.756 13.64C155.676 13.94 155.566 14.24 155.426 14.54C155.286 14.82 155.086 15.08 154.826 15.32C154.706 15.44 154.616 15.58 154.556 15.74C154.496 15.88 154.436 16.04 154.376 16.22C154.336 16.4 154.276 16.6 154.196 16.82C154.116 17.02 153.986 17.24 153.806 17.48C153.726 17.56 153.666 17.69 153.626 17.87C153.626 18.03 153.566 18.23 153.446 18.47C153.346 18.69 153.216 18.93 153.056 19.19C152.916 19.43 152.766 19.68 152.606 19.94C152.466 20.2 152.336 20.43 152.216 20.63C151.956 21.11 151.706 21.52 151.466 21.86C151.246 22.2 151.046 22.49 150.866 22.73C150.686 22.97 150.526 23.18 150.386 23.36C150.266 23.54 150.186 23.72 150.146 23.9C150.146 23.98 150.056 24.1 149.876 24.26C149.696 24.42 149.486 24.59 149.246 24.77C149.026 24.93 148.796 25.08 148.556 25.22C148.336 25.34 148.186 25.41 148.106 25.43C148.026 25.45 147.886 25.48 147.686 25.52C147.506 25.56 147.306 25.62 147.086 25.7C146.886 25.78 146.706 25.88 146.546 26C146.386 26.1 146.306 26.23 146.306 26.39C146.306 26.45 146.316 26.52 146.336 26.6C146.356 26.66 146.366 26.72 146.366 26.78C146.366 26.9 146.326 27.05 146.246 27.23C146.166 27.41 146.126 27.59 146.126 27.77C146.126 27.99 146.136 28.22 146.156 28.46C146.176 28.7 146.196 28.95 146.216 29.21C146.216 29.39 146.166 29.54 146.066 29.66C145.986 29.78 145.946 29.89 145.946 29.99C145.946 30.07 145.956 30.15 145.976 30.23C145.996 30.29 146.016 30.36 146.036 30.44C146.036 30.52 146.026 30.6 146.006 30.68C145.986 30.74 145.976 30.8 145.976 30.86C145.976 30.98 146.006 31.06 146.066 31.1C146.126 31.12 146.206 31.13 146.306 31.13C146.446 31.13 146.586 31.13 146.726 31.13C146.886 31.11 147.046 31.1 147.206 31.1C147.506 31.1 147.766 31.18 147.986 31.34C148.206 31.5 148.436 31.58 148.676 31.58C149.156 31.58 149.516 31.71 149.756 31.97C150.016 32.23 150.296 32.53 150.596 32.87C150.816 33.11 151.056 33.38 151.316 33.68C151.576 33.98 151.706 34.38 151.706 34.88C151.706 35 151.666 35.08 151.586 35.12C151.526 35.14 151.496 35.17 151.496 35.21C151.496 35.27 151.546 35.36 151.646 35.48C151.766 35.6 151.826 35.7 151.826 35.78C151.826 35.9 151.776 36.02 151.676 36.14C151.576 36.24 151.526 36.36 151.526 36.5C151.526 36.6 151.486 36.87 151.406 37.31C151.326 37.75 151.146 38.21 150.866 38.69C150.586 39.19 150.176 39.64 149.636 40.04C149.096 40.44 148.366 40.64 147.446 40.64C146.866 40.64 146.346 40.46 145.886 40.1C145.426 39.74 145.096 39.33 144.896 38.87C144.836 38.75 144.756 38.64 144.656 38.54C144.556 38.46 144.446 38.38 144.326 38.3C144.226 38.24 144.136 38.16 144.056 38.06C143.996 37.98 143.966 37.87 143.966 37.73C143.966 37.51 144.046 37.35 144.206 37.25C144.366 37.15 144.446 36.99 144.446 36.77C144.446 36.75 144.446 36.7 144.446 36.62C144.446 36.54 144.436 36.46 144.416 36.38C144.396 36.28 144.356 36.2 144.296 36.14C144.256 36.06 144.196 36.02 144.116 36.02C144.016 36.02 143.916 36.06 143.816 36.14C143.716 36.2 143.646 36.23 143.606 36.23C143.526 36.23 143.486 36.19 143.486 36.11C143.486 35.93 143.586 35.69 143.786 35.39C143.986 35.09 144.086 34.8 144.086 34.52C144.086 34.42 144.046 34.33 143.966 34.25C143.886 34.15 143.846 34.05 143.846 33.95C143.846 33.87 143.856 33.8 143.876 33.74C143.896 33.66 143.906 33.58 143.906 33.5C143.906 33.32 143.826 33.2 143.666 33.14C143.526 33.06 143.456 32.92 143.456 32.72C143.456 32.52 143.476 32.31 143.516 32.09C143.576 31.85 143.606 31.62 143.606 31.4C143.606 31.24 143.576 31.07 143.516 30.89C143.476 30.69 143.456 30.5 143.456 30.32C143.456 30.06 143.516 29.81 143.636 29.57C143.776 29.33 143.846 29.07 143.846 28.79C143.846 28.55 143.826 28.36 143.786 28.22C143.766 28.06 143.656 27.86 143.456 27.62L143.486 27.65C143.666 27.59 143.776 27.51 143.816 27.41C143.876 27.29 143.906 27.16 143.906 27.02C143.906 26.92 143.896 26.83 143.876 26.75C143.876 26.65 143.876 26.55 143.876 26.45C143.876 26.25 143.936 26.07 144.056 25.91C144.176 25.77 144.236 25.55 144.236 25.25C144.236 24.93 144.256 24.65 144.296 24.41C144.296 24.29 144.266 24.19 144.206 24.11C144.166 24.03 144.126 23.94 144.086 23.84ZM145.916 23.39C145.956 23.27 145.976 23.2 145.976 23.18C145.976 23.16 145.966 23.14 145.946 23.12C145.946 23.12 145.936 23.14 145.916 23.18C145.916 23.22 145.936 23.28 145.976 23.36C145.956 23.34 145.926 23.33 145.886 23.33C145.906 23.33 145.916 23.33 145.916 23.33C145.916 23.31 145.926 23.3 145.946 23.3C145.946 23.32 145.936 23.34 145.916 23.36C145.916 23.36 145.916 23.37 145.916 23.39ZM146.486 37.64C146.486 37.58 146.506 37.51 146.546 37.43C146.546 37.41 146.546 37.38 146.546 37.34C146.546 37.3 146.526 37.28 146.486 37.28C146.486 37.3 146.476 37.32 146.456 37.34C146.456 37.36 146.456 37.39 146.456 37.43C146.456 37.47 146.456 37.51 146.456 37.55C146.476 37.57 146.486 37.6 146.486 37.64C146.486 37.6 146.506 37.58 146.546 37.58C146.546 37.6 146.556 37.61 146.576 37.61L146.606 37.64C146.606 37.66 146.596 37.68 146.576 37.7V37.73H146.546C146.506 37.73 146.486 37.7 146.486 37.64ZM156.056 5.57C155.976 5.23 155.926 4.96 155.906 4.76C155.906 4.54 155.866 4.3 155.786 4.04C155.746 3.94 155.686 3.79 155.606 3.59C155.546 3.37 155.436 3.16 155.276 2.96C155.136 2.74 154.956 2.55 154.736 2.39C154.516 2.23 154.246 2.15 153.926 2.15C153.766 2.15 153.586 2.26 153.386 2.48C153.206 2.68 153.026 2.94 152.846 3.26C152.666 3.56 152.496 3.88 152.336 4.22C152.176 4.54 152.066 4.82 152.006 5.06C151.966 5.18 151.906 5.35 151.826 5.57C151.746 5.79 151.656 6.01 151.556 6.23C151.476 6.43 151.386 6.61 151.286 6.77C151.206 6.93 151.136 7.03 151.076 7.07C150.916 7.23 150.776 7.43 150.656 7.67C150.556 7.91 150.456 8.18 150.356 8.48C150.276 8.76 150.196 9.05 150.116 9.35C150.036 9.65 149.956 9.92 149.876 10.16C149.716 10.68 149.476 11.32 149.156 12.08C148.856 12.84 148.486 13.87 148.046 15.17C148.046 15.21 148.046 15.25 148.046 15.29C148.066 15.31 148.076 15.34 148.076 15.38C148.076 15.88 147.986 16.34 147.806 16.76C147.646 17.16 147.566 17.5 147.566 17.78C147.566 18.28 147.516 18.77 147.416 19.25C147.316 19.73 147.196 20.21 147.056 20.69C146.936 21.15 146.826 21.62 146.726 22.1C146.626 22.58 146.576 23.06 146.576 23.54C146.576 23.66 146.586 23.8 146.606 23.96C146.626 24.12 146.726 24.2 146.906 24.2C147.086 24.2 147.296 24.12 147.536 23.96C147.796 23.8 148.046 23.61 148.286 23.39C148.546 23.17 148.776 22.94 148.976 22.7C149.176 22.44 149.326 22.23 149.426 22.07C149.666 21.61 149.946 21.17 150.266 20.75C150.606 20.33 150.896 19.88 151.136 19.4C151.196 19.22 151.286 19.06 151.406 18.92C151.526 18.76 151.646 18.6 151.766 18.44C151.886 18.28 151.996 18.12 152.096 17.96C152.216 17.8 152.306 17.62 152.366 17.42C152.466 17.3 152.576 17.14 152.696 16.94C152.836 16.74 152.966 16.53 153.086 16.31C153.206 16.07 153.306 15.84 153.386 15.62C153.466 15.4 153.516 15.2 153.536 15.02C153.536 15.02 153.586 14.97 153.686 14.87C153.806 14.77 153.926 14.62 154.046 14.42C154.186 14.22 154.306 13.99 154.406 13.73C154.526 13.47 154.586 13.19 154.586 12.89C154.586 12.83 154.646 12.77 154.766 12.71C154.886 12.63 154.946 12.57 154.946 12.53C155.006 12.27 155.046 12.04 155.066 11.84C155.086 11.64 155.106 11.45 155.126 11.27C155.166 11.07 155.216 10.87 155.276 10.67C155.336 10.47 155.446 10.24 155.606 9.98C155.646 9.88 155.716 9.66 155.816 9.32C155.936 8.98 155.996 8.62 155.996 8.24C155.996 8.1 155.976 7.96 155.936 7.82C155.916 7.68 155.906 7.54 155.906 7.4C155.906 7.26 155.946 7.14 156.026 7.04C156.106 6.92 156.146 6.77 156.146 6.59C156.126 6.41 156.106 6.23 156.086 6.05C156.086 5.87 156.076 5.71 156.056 5.57ZM148.886 37.25C148.886 36.95 148.826 36.63 148.706 36.29C148.606 35.93 148.456 35.59 148.256 35.27C148.056 34.93 147.816 34.63 147.536 34.37C147.256 34.09 146.956 33.87 146.636 33.71C146.596 33.71 146.546 33.72 146.486 33.74C146.426 33.74 146.396 33.77 146.396 33.83C146.456 34.15 146.526 34.57 146.606 35.09C146.686 35.61 146.796 36.12 146.936 36.62C147.096 37.12 147.286 37.55 147.506 37.91C147.746 38.27 148.046 38.45 148.406 38.45C148.666 38.45 148.806 38.32 148.826 38.06C148.866 37.8 148.886 37.53 148.886 37.25ZM145.946 36.08C145.906 36.06 145.876 36.04 145.856 36.02C145.836 35.98 145.806 35.96 145.766 35.96L145.706 36.02C145.706 36.08 145.726 36.13 145.766 36.17C145.806 36.19 145.846 36.22 145.886 36.26C145.906 36.22 145.916 36.19 145.916 36.17C145.916 36.15 145.926 36.12 145.946 36.08ZM145.376 39.05C145.376 38.87 145.336 38.78 145.256 38.78C145.196 38.78 145.166 38.84 145.166 38.96C145.166 39.02 145.216 39.07 145.316 39.11L145.376 39.05ZM143.906 30.17C143.906 30.21 143.896 30.24 143.876 30.26C143.876 30.28 143.876 30.31 143.876 30.35C143.876 30.39 143.876 30.43 143.876 30.47C143.896 30.51 143.926 30.53 143.966 30.53C144.006 30.53 144.026 30.51 144.026 30.47C144.026 30.43 144.026 30.37 144.026 30.29C144.026 30.21 143.986 30.17 143.906 30.17ZM144.926 37.85C144.906 37.87 144.896 37.89 144.896 37.91V37.94C144.916 37.98 144.936 38 144.956 38L144.986 37.97C144.986 37.97 144.996 37.95 145.016 37.91C145.016 37.87 144.986 37.85 144.926 37.85ZM156.206 11.15C156.206 11.13 156.186 11.1 156.146 11.06C156.086 11.12 156.056 11.17 156.056 11.21C156.056 11.23 156.066 11.25 156.086 11.27C156.126 11.31 156.146 11.33 156.146 11.33C156.206 11.31 156.236 11.28 156.236 11.24C156.236 11.2 156.226 11.17 156.206 11.15ZM168.755 36.68C168.595 37.26 168.365 37.69 168.065 37.97C167.785 38.23 167.395 38.43 166.895 38.57C166.635 38.39 166.345 38.2 166.025 38C165.725 37.78 165.575 37.49 165.575 37.13C165.575 36.87 165.505 36.7 165.365 36.62C165.225 36.54 165.155 36.39 165.155 36.17C165.155 36.01 165.155 35.85 165.155 35.69C165.175 35.51 165.185 35.34 165.185 35.18C165.145 34.92 165.095 34.63 165.035 34.31C164.995 33.99 164.975 33.71 164.975 33.47C164.975 33.35 164.985 33.23 165.005 33.11C165.025 32.97 165.035 32.84 165.035 32.72C165.015 32.56 164.985 32.41 164.945 32.27C164.925 32.13 164.905 31.99 164.885 31.85C164.885 31.73 164.905 31.61 164.945 31.49C165.005 31.35 165.035 31.23 165.035 31.13C165.035 31.03 165.015 30.93 164.975 30.83C164.955 30.71 164.945 30.6 164.945 30.5C164.945 30.18 164.975 29.83 165.035 29.45C165.095 29.07 165.125 28.7 165.125 28.34C165.125 28.24 165.115 28.15 165.095 28.07C165.095 27.97 165.045 27.89 164.945 27.83C164.905 27.83 164.865 27.84 164.825 27.86C164.785 27.86 164.745 27.86 164.705 27.86C164.705 27.9 164.625 28.02 164.465 28.22C164.325 28.42 164.155 28.65 163.955 28.91C163.775 29.15 163.595 29.4 163.415 29.66C163.255 29.9 163.145 30.09 163.085 30.23C163.045 30.33 162.995 30.46 162.935 30.62C162.875 30.78 162.805 30.94 162.725 31.1C162.665 31.24 162.605 31.37 162.545 31.49C162.505 31.59 162.485 31.64 162.485 31.64C162.325 31.7 162.205 31.8 162.125 31.94C162.045 32.06 161.975 32.19 161.915 32.33C161.855 32.47 161.805 32.61 161.765 32.75C161.725 32.87 161.675 32.96 161.615 33.02C161.375 33.22 161.145 33.53 160.925 33.95C160.705 34.37 160.455 34.79 160.175 35.21C159.895 35.63 159.575 36 159.215 36.32C158.855 36.64 158.415 36.8 157.895 36.8C157.415 36.8 156.935 36.63 156.455 36.29C155.975 35.95 155.705 35.43 155.645 34.73C155.605 34.39 155.525 34.06 155.405 33.74C155.285 33.4 155.225 33.07 155.225 32.75C155.225 32.21 155.245 31.66 155.285 31.1C155.345 30.54 155.425 30.01 155.525 29.51C155.525 29.49 155.545 29.35 155.585 29.09C155.625 28.81 155.655 28.47 155.675 28.07C155.715 27.65 155.745 27.18 155.765 26.66C155.805 26.14 155.825 25.61 155.825 25.07C155.825 24.95 155.805 24.83 155.765 24.71C155.745 24.57 155.735 24.44 155.735 24.32C155.735 24.22 155.775 24.13 155.855 24.05C155.955 23.97 156.055 23.93 156.155 23.93C156.515 23.97 156.865 24.08 157.205 24.26C157.545 24.42 157.715 24.68 157.715 25.04C157.615 26.24 157.505 27.41 157.385 28.55C157.265 29.67 157.205 30.83 157.205 32.03C157.205 32.25 157.205 32.5 157.205 32.78C157.225 33.06 157.245 33.33 157.265 33.59C157.305 33.85 157.355 34.07 157.415 34.25C157.495 34.43 157.595 34.52 157.715 34.52C157.895 34.52 158.135 34.32 158.435 33.92C158.755 33.52 159.095 33.04 159.455 32.48C159.835 31.92 160.205 31.35 160.565 30.77C160.925 30.17 161.245 29.67 161.525 29.27C161.685 29.05 161.845 28.89 162.005 28.79C162.185 28.67 162.305 28.48 162.365 28.22C162.445 27.94 162.605 27.68 162.845 27.44C163.105 27.18 163.325 26.95 163.505 26.75C163.625 26.63 163.785 26.43 163.985 26.15C164.185 25.87 164.405 25.59 164.645 25.31C164.885 25.03 165.125 24.79 165.365 24.59C165.605 24.37 165.805 24.26 165.965 24.26C166.105 24.26 166.255 24.25 166.415 24.23C166.595 24.21 166.775 24.2 166.955 24.2C167.635 24.2 168.115 24.41 168.395 24.83C168.695 25.23 168.845 25.72 168.845 26.3C168.845 26.88 168.775 27.45 168.635 28.01C168.495 28.57 168.425 29.08 168.425 29.54C168.425 29.64 168.425 29.75 168.425 29.87C168.445 29.97 168.455 30.08 168.455 30.2C168.455 30.62 168.415 31.03 168.335 31.43C168.255 31.83 168.215 32.23 168.215 32.63C168.255 33.09 168.305 33.56 168.365 34.04C168.425 34.52 168.455 34.97 168.455 35.39C168.455 35.43 168.445 35.47 168.425 35.51C168.425 35.53 168.425 35.56 168.425 35.6C168.425 35.8 168.455 35.99 168.515 36.17C168.575 36.35 168.655 36.52 168.755 36.68ZM186.244 30.92C186.284 31.02 186.324 31.11 186.364 31.19C186.404 31.27 186.454 31.37 186.514 31.49C186.254 31.65 185.964 31.82 185.644 32C185.344 32.16 185.074 32.35 184.834 32.57C184.734 32.57 184.574 32.63 184.354 32.75C184.134 32.87 183.914 33.05 183.694 33.29C183.474 33.51 183.274 33.77 183.094 34.07C182.934 34.37 182.854 34.7 182.854 35.06C182.854 35.1 182.854 35.14 182.854 35.18C182.874 35.2 182.884 35.23 182.884 35.27C182.884 35.37 182.864 35.46 182.824 35.54C182.604 35.88 182.434 36.17 182.314 36.41C182.194 36.63 182.134 36.92 182.134 37.28C182.134 37.42 182.134 37.56 182.134 37.7C182.154 37.82 182.164 37.94 182.164 38.06C182.164 38.98 182.014 39.86 181.714 40.7C181.594 40.92 181.534 41.15 181.534 41.39C181.534 41.65 181.454 41.89 181.294 42.11C181.174 42.27 181.114 42.47 181.114 42.71C181.134 42.97 181.084 43.15 180.964 43.25C180.844 43.35 180.754 43.46 180.694 43.58C180.654 43.72 180.624 43.85 180.604 43.97C180.584 44.11 180.564 44.23 180.544 44.33C180.544 44.43 180.514 44.51 180.454 44.57C180.334 44.63 180.244 44.7 180.184 44.78C180.144 44.88 180.114 44.98 180.094 45.08C180.094 45.18 180.084 45.28 180.064 45.38C180.064 45.5 180.044 45.61 180.004 45.71C180.004 45.71 180.024 45.7 180.064 45.68C179.984 45.76 179.904 45.87 179.824 46.01C179.744 46.15 179.654 46.29 179.554 46.43C179.454 46.59 179.344 46.76 179.224 46.94C179.224 47.32 179.184 47.55 179.104 47.63C179.024 47.73 178.844 47.83 178.564 47.93C178.564 48.47 178.424 48.9 178.144 49.22C177.864 49.54 177.534 49.78 177.154 49.94C176.794 50.12 176.434 50.24 176.074 50.3C175.714 50.36 175.464 50.39 175.324 50.39C175.164 50.39 174.944 50.33 174.664 50.21C174.384 50.11 174.104 49.96 173.824 49.76C173.564 49.56 173.324 49.32 173.104 49.04C172.904 48.76 172.804 48.45 172.804 48.11C172.804 47.65 172.834 47.17 172.894 46.67C172.954 46.19 172.994 45.72 173.014 45.26C173.014 45.02 173.064 44.76 173.164 44.48C173.264 44.22 173.364 43.94 173.464 43.64C173.584 43.36 173.694 43.06 173.794 42.74C173.894 42.44 173.964 42.14 174.004 41.84C174.024 41.66 174.084 41.47 174.184 41.27C174.284 41.07 174.384 40.88 174.484 40.7C174.604 40.54 174.704 40.39 174.784 40.25C174.884 40.13 174.934 40.04 174.934 39.98C174.994 39.64 175.124 39.33 175.324 39.05C175.524 38.79 175.734 38.53 175.954 38.27C176.254 37.87 176.584 37.44 176.944 36.98C177.324 36.52 177.744 36.03 178.204 35.51C178.364 35.35 178.534 35.24 178.714 35.18C178.914 35.12 179.064 34.98 179.164 34.76C179.284 34.48 179.474 34.24 179.734 34.04C179.994 33.82 180.254 33.61 180.514 33.41C180.774 33.21 181.004 32.99 181.204 32.75C181.404 32.51 181.504 32.22 181.504 31.88C181.504 31.78 181.524 31.63 181.564 31.43C181.604 31.23 181.654 31.02 181.714 30.8C181.774 30.58 181.824 30.37 181.864 30.17C181.904 29.97 181.924 29.81 181.924 29.69C181.924 29.59 181.914 29.49 181.894 29.39C181.874 29.29 181.864 29.19 181.864 29.09C181.864 28.87 181.884 28.62 181.924 28.34C181.984 28.04 182.024 27.75 182.044 27.47C182.044 27.45 182.024 27.43 181.984 27.41C181.944 27.39 181.904 27.38 181.864 27.38C181.624 27.42 181.414 27.56 181.234 27.8C181.054 28.04 180.814 28.2 180.514 28.28C180.494 28.28 180.434 28.32 180.334 28.4C180.254 28.46 180.154 28.54 180.034 28.64C179.934 28.72 179.844 28.82 179.764 28.94C179.684 29.04 179.644 29.14 179.644 29.24C179.644 29.4 179.574 29.54 179.434 29.66C179.314 29.78 179.104 29.85 178.804 29.87C178.804 29.91 178.774 30.01 178.714 30.17C178.654 30.33 178.574 30.5 178.474 30.68C178.394 30.86 178.284 31.02 178.144 31.16C178.024 31.3 177.894 31.37 177.754 31.37C177.694 31.37 177.614 31.44 177.514 31.58C177.414 31.7 177.314 31.85 177.214 32.03C177.114 32.19 177.024 32.37 176.944 32.57C176.864 32.75 176.814 32.9 176.794 33.02C176.714 33.42 176.484 33.72 176.104 33.92C175.744 34.12 175.384 34.22 175.024 34.22C174.784 34.22 174.514 34.21 174.214 34.19C173.914 34.15 173.634 34.03 173.374 33.83C173.114 33.61 172.894 33.27 172.714 32.81C172.534 32.35 172.444 31.7 172.444 30.86C172.444 30.38 172.514 29.94 172.654 29.54C172.814 29.14 172.894 28.75 172.894 28.37C173.094 28.01 173.254 27.68 173.374 27.38C173.494 27.08 173.634 26.79 173.794 26.51C173.974 26.21 174.204 25.91 174.484 25.61C174.784 25.29 175.204 24.95 175.744 24.59C176.204 24.25 176.664 23.97 177.124 23.75C177.584 23.51 178.054 23.39 178.534 23.39C178.854 23.39 179.184 23.42 179.524 23.48C179.864 23.54 180.164 23.64 180.424 23.78C180.684 23.9 180.894 24.05 181.054 24.23C181.234 24.41 181.324 24.62 181.324 24.86C181.324 25 181.284 25.14 181.204 25.28C181.124 25.4 181.004 25.46 180.844 25.46C180.724 25.46 180.594 25.43 180.454 25.37C180.334 25.29 180.194 25.22 180.034 25.16C179.894 25.08 179.754 25.01 179.614 24.95C179.494 24.87 179.374 24.83 179.254 24.83C179.094 24.83 178.924 24.86 178.744 24.92C178.624 24.98 178.334 25.16 177.874 25.46C177.434 25.74 176.954 26.11 176.434 26.57C175.934 27.03 175.484 27.57 175.084 28.19C174.684 28.81 174.484 29.46 174.484 30.14C174.484 30.18 174.484 30.23 174.484 30.29C174.504 30.35 174.514 30.41 174.514 30.47C174.514 30.67 174.484 30.87 174.424 31.07C174.364 31.25 174.334 31.45 174.334 31.67C174.334 31.83 174.354 32 174.394 32.18C174.434 32.34 174.524 32.42 174.664 32.42C174.764 32.42 174.914 32.33 175.114 32.15C175.314 31.97 175.534 31.76 175.774 31.52C176.014 31.26 176.254 31 176.494 30.74C176.754 30.46 176.994 30.24 177.214 30.08C177.414 30.02 177.604 29.93 177.784 29.81C177.944 29.71 178.104 29.58 178.264 29.42C178.424 29.24 178.554 29.02 178.654 28.76C178.734 28.6 178.834 28.49 178.954 28.43C179.194 28.33 179.384 28.19 179.524 28.01C179.684 27.81 179.814 27.6 179.914 27.38C179.974 27.28 180.044 27.2 180.124 27.14C180.224 27.08 180.314 27.03 180.394 26.99C180.494 26.93 180.584 26.87 180.664 26.81C180.764 26.73 180.834 26.62 180.874 26.48C180.874 26.34 180.994 26.23 181.234 26.15C181.474 26.05 181.624 25.92 181.684 25.76C181.764 25.52 181.954 25.3 182.254 25.1C182.554 24.9 182.834 24.8 183.094 24.8C183.714 24.8 184.124 24.9 184.324 25.1C184.544 25.3 184.654 25.64 184.654 26.12C184.654 26.7 184.564 27.28 184.384 27.86C184.224 28.42 184.114 28.99 184.054 29.57C184.034 29.75 183.964 29.95 183.844 30.17C183.724 30.39 183.664 30.54 183.664 30.62C183.664 30.78 183.734 30.87 183.874 30.89C184.034 30.91 184.164 30.92 184.264 30.92C184.424 30.92 184.634 30.86 184.894 30.74C185.154 30.62 185.384 30.56 185.584 30.56C185.844 30.56 186.064 30.68 186.244 30.92ZM180.874 39.29C180.914 39.21 180.934 39.15 180.934 39.11C180.934 38.91 180.844 38.77 180.664 38.69C180.504 38.61 180.424 38.5 180.424 38.36C180.424 38.2 180.464 38.02 180.544 37.82C180.644 37.6 180.714 37.41 180.754 37.25C180.734 37.21 180.724 37.14 180.724 37.04C180.724 36.9 180.744 36.77 180.784 36.65C180.844 36.53 180.894 36.4 180.934 36.26C180.934 36.12 180.864 36.05 180.724 36.05C180.684 36.05 180.654 36.06 180.634 36.08C180.334 36.32 180.064 36.59 179.824 36.89C179.604 37.17 179.384 37.46 179.164 37.76C178.964 38.04 178.754 38.31 178.534 38.57C178.334 38.85 178.094 39.11 177.814 39.35C177.554 39.57 177.384 39.82 177.304 40.1C177.224 40.4 177.074 40.69 176.854 40.97C176.694 41.17 176.514 41.48 176.314 41.9C176.114 42.32 175.924 42.77 175.744 43.25C175.564 43.73 175.404 44.21 175.264 44.69C175.144 45.19 175.084 45.62 175.084 45.98C175.044 46.2 174.984 46.38 174.904 46.52C174.824 46.68 174.784 46.86 174.784 47.06C174.784 47.14 174.784 47.26 174.784 47.42C174.804 47.6 174.834 47.77 174.874 47.93C174.914 48.11 174.974 48.26 175.054 48.38C175.134 48.52 175.234 48.59 175.354 48.59C175.494 48.59 175.644 48.56 175.804 48.5C175.964 48.46 176.104 48.39 176.224 48.29C176.344 48.15 176.504 47.98 176.704 47.78C176.924 47.6 177.144 47.4 177.364 47.18C177.584 46.96 177.774 46.74 177.934 46.52C178.094 46.3 178.174 46.08 178.174 45.86C178.174 45.78 178.214 45.67 178.294 45.53C178.374 45.39 178.454 45.23 178.534 45.05C178.634 44.87 178.724 44.69 178.804 44.51C178.904 44.33 178.974 44.15 179.014 43.97C179.014 43.95 179.054 43.89 179.134 43.79C179.234 43.69 179.334 43.58 179.434 43.46C179.534 43.36 179.624 43.25 179.704 43.13C179.784 43.03 179.824 42.95 179.824 42.89C179.824 42.81 179.764 42.74 179.644 42.68C179.524 42.62 179.424 42.56 179.344 42.5C179.344 42.5 179.394 42.37 179.494 42.11C179.614 41.87 179.734 41.59 179.854 41.27C179.994 40.97 180.114 40.67 180.214 40.37C180.314 40.09 180.364 39.9 180.364 39.8C180.364 39.72 180.354 39.65 180.334 39.59C180.334 39.55 180.334 39.51 180.334 39.47C180.334 39.41 180.344 39.36 180.364 39.32C180.384 39.28 180.414 39.24 180.454 39.2C180.514 39.2 180.564 39.23 180.604 39.29C180.664 39.35 180.714 39.38 180.754 39.38C180.774 39.38 180.814 39.35 180.874 39.29ZM189.491 27.44C189.651 27.16 189.791 26.88 189.911 26.6C190.051 26.32 190.171 26.03 190.271 25.73C190.331 25.49 190.461 25.25 190.661 25.01C190.881 24.77 191.101 24.56 191.321 24.38C191.541 24.18 191.731 24.03 191.891 23.93C192.071 23.81 192.161 23.76 192.161 23.78C192.321 23.56 192.511 23.45 192.731 23.45C192.971 23.45 193.201 23.43 193.421 23.39C193.761 23.39 194.101 23.49 194.441 23.69C194.781 23.89 195.151 24 195.551 24.02C195.671 24.1 195.821 24.19 196.001 24.29C196.201 24.39 196.391 24.52 196.571 24.68C196.751 24.84 196.901 25.03 197.021 25.25C197.161 25.47 197.231 25.73 197.231 26.03C197.231 26.31 197.151 26.62 196.991 26.96C196.851 27.28 196.651 27.61 196.391 27.95C196.151 28.27 195.871 28.58 195.551 28.88C195.251 29.18 194.941 29.44 194.621 29.66C194.441 29.78 194.271 29.92 194.111 30.08C193.951 30.24 193.791 30.4 193.631 30.56C193.471 30.7 193.301 30.83 193.121 30.95C192.941 31.05 192.721 31.11 192.461 31.13C191.941 31.19 191.611 31.41 191.471 31.79C191.351 32.15 191.291 32.83 191.291 33.83C191.291 34.35 191.351 34.82 191.471 35.24C191.591 35.64 191.861 35.84 192.281 35.84C192.361 35.84 192.561 35.76 192.881 35.6C193.201 35.42 193.551 35.21 193.931 34.97C194.311 34.71 194.681 34.44 195.041 34.16C195.401 33.86 195.671 33.6 195.851 33.38C196.031 33.32 196.191 33.23 196.331 33.11C196.471 32.97 196.611 32.84 196.751 32.72C196.891 32.58 197.031 32.47 197.171 32.39C197.311 32.29 197.461 32.24 197.621 32.24C197.761 32.24 197.881 32.29 197.981 32.39C198.101 32.49 198.161 32.6 198.161 32.72C198.161 32.8 198.101 32.94 197.981 33.14C197.861 33.32 197.711 33.51 197.531 33.71C197.351 33.91 197.161 34.09 196.961 34.25C196.781 34.41 196.631 34.51 196.511 34.55C196.311 34.61 196.161 34.72 196.061 34.88C195.961 35.04 195.811 35.15 195.611 35.21C195.551 35.25 195.451 35.38 195.311 35.6C195.191 35.82 195.031 36 194.831 36.14C194.731 36.22 194.621 36.34 194.501 36.5C194.381 36.66 194.241 36.82 194.081 36.98C193.941 37.14 193.761 37.28 193.541 37.4C193.341 37.52 193.091 37.58 192.791 37.58C192.651 37.58 192.501 37.57 192.341 37.55C192.181 37.51 192.021 37.49 191.861 37.49C191.801 37.49 191.741 37.5 191.681 37.52C191.621 37.52 191.561 37.52 191.501 37.52C191.321 37.52 191.131 37.48 190.931 37.4C190.731 37.32 190.541 37.22 190.361 37.1C190.181 36.96 190.031 36.82 189.911 36.68C189.791 36.52 189.731 36.37 189.731 36.23C189.731 36.15 189.701 36.09 189.641 36.05C189.601 36.01 189.551 35.98 189.491 35.96C189.451 35.92 189.401 35.88 189.341 35.84C189.301 35.8 189.281 35.72 189.281 35.6C189.281 35.38 189.191 35.17 189.011 34.97C188.831 34.75 188.741 34.5 188.741 34.22C188.741 34.16 188.791 33.96 188.891 33.62C189.011 33.28 189.071 32.97 189.071 32.69C189.071 32.55 188.991 32.35 188.831 32.09C188.691 31.83 188.621 31.64 188.621 31.52C188.621 31.3 188.631 31.08 188.651 30.86C188.691 30.64 188.711 30.42 188.711 30.2C188.711 30.14 188.701 30.08 188.681 30.02C188.681 29.96 188.681 29.9 188.681 29.84C188.801 29.56 188.941 29.27 189.101 28.97C189.261 28.67 189.341 28.38 189.341 28.1C189.341 28.06 189.331 28.03 189.311 28.01C189.311 27.99 189.311 27.96 189.311 27.92C189.311 27.82 189.341 27.74 189.401 27.68C189.481 27.6 189.521 27.53 189.521 27.47L189.491 27.44ZM191.681 29.48C191.681 29.48 191.841 29.39 192.161 29.21C192.481 29.01 192.831 28.78 193.211 28.52C193.591 28.24 193.931 27.96 194.231 27.68C194.551 27.38 194.711 27.11 194.711 26.87C194.711 26.85 194.701 26.78 194.681 26.66C194.661 26.52 194.631 26.38 194.591 26.24C194.571 26.08 194.531 25.95 194.471 25.85C194.411 25.73 194.341 25.67 194.261 25.67C194.121 25.67 193.961 25.75 193.781 25.91C193.621 26.05 193.451 26.23 193.271 26.45C193.091 26.65 192.921 26.85 192.761 27.05C192.621 27.25 192.491 27.4 192.371 27.5C192.371 27.5 192.331 27.57 192.251 27.71C192.171 27.83 192.081 27.99 191.981 28.19C191.881 28.37 191.781 28.56 191.681 28.76C191.601 28.96 191.561 29.11 191.561 29.21C191.561 29.27 191.601 29.36 191.681 29.48ZM189.551 27.47C189.511 27.47 189.491 27.46 189.491 27.44L189.551 27.47ZM215.302 26.09C215.502 26.25 215.602 26.43 215.602 26.63C215.602 26.83 215.492 27.01 215.272 27.17C215.072 27.33 214.782 27.41 214.402 27.41C214.302 27.41 214.212 27.41 214.132 27.41C214.052 27.39 213.962 27.37 213.862 27.35C212.742 27.69 211.712 28.14 210.772 28.7C210.452 28.9 210.282 29.16 210.262 29.48C210.242 29.78 210.222 30.05 210.202 30.29C210.162 30.63 210.082 30.92 209.962 31.16C209.842 31.4 209.782 31.69 209.782 32.03C209.782 32.27 209.692 32.46 209.512 32.6C209.352 32.74 209.272 32.94 209.272 33.2C209.272 33.24 209.272 33.29 209.272 33.35C209.292 33.39 209.302 33.43 209.302 33.47C209.302 33.75 209.242 33.99 209.122 34.19C209.022 34.37 208.882 34.59 208.702 34.85C208.662 34.99 208.532 35.23 208.312 35.57C208.112 35.89 207.872 36.22 207.592 36.56C207.312 36.9 207.012 37.2 206.692 37.46C206.392 37.72 206.122 37.85 205.882 37.85C205.762 37.85 205.582 37.94 205.342 38.12C205.122 38.3 204.892 38.45 204.652 38.57C204.192 38.47 203.762 38.35 203.362 38.21C202.982 38.07 202.632 37.85 202.312 37.55C202.072 37.27 201.842 36.95 201.622 36.59C201.402 36.21 201.212 35.83 201.052 35.45C200.912 35.05 200.792 34.66 200.692 34.28C200.612 33.9 200.572 33.55 200.572 33.23C200.572 32.87 200.612 32.53 200.692 32.21C200.772 31.87 200.812 31.54 200.812 31.22C200.812 31.1 200.842 30.94 200.902 30.74C200.982 30.54 201.062 30.34 201.142 30.14C201.222 29.92 201.292 29.7 201.352 29.48C201.432 29.26 201.472 29.07 201.472 28.91C201.472 28.77 201.422 28.59 201.322 28.37C201.242 28.15 201.142 27.91 201.022 27.65C200.922 27.39 200.822 27.13 200.722 26.87C200.642 26.61 200.602 26.36 200.602 26.12C200.602 25.34 200.672 24.73 200.812 24.29C200.972 23.85 201.192 23.52 201.472 23.3C201.772 23.06 202.112 22.91 202.492 22.85C202.892 22.79 203.332 22.76 203.812 22.76H205.192C205.372 22.76 205.682 22.84 206.122 23C206.562 23.14 207.032 23.36 207.532 23.66C208.032 23.96 208.492 24.34 208.912 24.8C209.332 25.26 209.612 25.8 209.752 26.42C209.792 26.62 209.862 26.83 209.962 27.05C210.082 27.27 210.252 27.38 210.472 27.38C210.552 27.38 210.612 27.37 210.652 27.35C211.432 27.07 212.192 26.8 212.932 26.54C213.672 26.28 214.462 26.13 215.302 26.09ZM208.642 30.5C208.602 30.34 208.572 30.18 208.552 30.02C208.552 29.84 208.472 29.75 208.312 29.75C208.232 29.75 208.112 29.77 207.952 29.81C207.452 29.99 206.952 30.17 206.452 30.35C205.952 30.53 205.422 30.62 204.862 30.62C204.622 30.62 204.442 30.8 204.322 31.16C204.202 31.5 204.112 31.89 204.052 32.33C203.992 32.75 203.952 33.16 203.932 33.56C203.932 33.96 203.932 34.21 203.932 34.31C203.932 34.71 204.032 35.11 204.232 35.51C204.432 35.89 204.702 36.08 205.042 36.08C205.422 36.08 205.782 35.89 206.122 35.51C206.482 35.11 206.802 34.67 207.082 34.19C207.382 33.71 207.632 33.26 207.832 32.84C208.052 32.42 208.212 32.17 208.312 32.09C208.432 31.89 208.502 31.63 208.522 31.31C208.562 30.99 208.602 30.72 208.642 30.5ZM202.312 26.03C202.332 26.15 202.352 26.34 202.372 26.6C202.412 26.86 202.512 26.99 202.672 26.99C202.752 26.99 202.822 26.96 202.882 26.9C202.942 26.82 203.002 26.75 203.062 26.69C203.122 26.61 203.182 26.54 203.242 26.48C203.322 26.4 203.412 26.36 203.512 26.36C203.512 26.36 203.632 26.39 203.872 26.45C204.132 26.51 204.412 26.6 204.712 26.72C205.012 26.84 205.292 26.99 205.552 27.17C205.812 27.33 205.942 27.51 205.942 27.71C205.942 27.83 205.882 28 205.762 28.22C205.642 28.42 205.552 28.59 205.492 28.73C205.492 28.87 205.532 28.96 205.612 29C205.712 29.04 205.782 29.06 205.822 29.06C206.022 29.06 206.262 29.04 206.542 29C206.842 28.94 207.122 28.86 207.382 28.76C207.662 28.66 207.902 28.54 208.102 28.4C208.302 28.24 208.402 28.06 208.402 27.86C208.402 27.46 208.272 27.02 208.012 26.54C207.772 26.06 207.452 25.62 207.052 25.22C206.652 24.8 206.212 24.46 205.732 24.2C205.252 23.92 204.792 23.78 204.352 23.78C203.712 23.78 203.212 24.02 202.852 24.5C202.492 24.98 202.312 25.49 202.312 26.03Z" fill="#3A3C51"/>
<line x1="1" y1="46.5" x2="213" y2="46.5" stroke="#3A3C51" stroke-dasharray="2 2"/>
</svg>
