<svg xmlns="http://www.w3.org/2000/svg" width="216" height="51" fill="none" xmlns:v="https://vecta.io/nano"><path d="M5.006 39.47l-.12-.3a1.71 1.71 0 0 0-.09-.3l-.45-.33-.48-.45c-.16-.16-.3-.32-.42-.48-.12-.18-.18-.33-.18-.45 0-.4-.08-.76-.24-1.08-.16-.34-.24-.68-.24-1.02 0-.1.02-.2.06-.3a1.05 1.05 0 0 0 .06-.33c0-.3-.07-.5-.2-.6-.14-.12-.2-.23-.2-.33 0-.06.03-.13.1-.2.06-.1.1-.2.1-.27 0-.1-.02-.2-.06-.3l-.12-.33a.67.67 0 0 1 .09-.24.44.44 0 0 0 .09-.27 1.7 1.7 0 0 0-.09-.54c-.04-.18-.06-.36-.06-.54 0-.12.01-.24.03-.36a2.77 2.77 0 0 0 .03-.39c0-.12-.01-.23-.03-.33v-.33c0-.14.03-.26.1-.36l.18-.33a2.73 2.73 0 0 0 .21-.3.75.75 0 0 0 .09-.39 1.39 1.39 0 0 1-.03-.27v-.27c0-.38.05-.68.15-.9a1.72 1.72 0 0 0 .18-.78c0-.08-.01-.15-.03-.2v-.24c0-.26.07-.48.2-.66.14-.2.2-.44.2-.72a1.44 1.44 0 0 0-.09-.51 1.86 1.86 0 0 1-.06-.45c0-.16.06-.3.18-.4s.18-.22.18-.36c0-.2.06-.36.18-.48l.4-.42a2.79 2.79 0 0 0 .42-.54c.12-.22.18-.5.18-.87a1.21 1.21 0 0 1 .09-.48 2.42 2.42 0 0 1 .21-.39l.3-.36a1.44 1.44 0 0 0 .24-.42.72.72 0 0 1 .24-.39l.36-.33.33-.3a.68.68 0 0 0 .15-.45l.3-.7c.12-.26.25-.5.4-.72a3.09 3.09 0 0 1 .51-.6c.18-.16.37-.24.57-.24.32 0 .67.04 1.05.12.4.06.74.17 1.02.33.32.18.6.3.84.33l.66.12c.18.04.32.1.42.2.1.08.15.26.15.54 0 .22-.04.46-.12.72-.06.26-.14.52-.24.78l-.24.72c-.06.24-.1.45-.1.63v.18c0 .08-.02.13-.06.15-.1.1-.18.23-.24.4l-.18.48c-.04.16-.1.3-.15.42-.06.1-.13.15-.2.15-.24 0-.4-.18-.48-.54a10.04 10.04 0 0 1-.12-1.17l-.03-1.2c-.02-.36-.1-.54-.27-.54a.76.76 0 0 0-.45.15 1.91 1.91 0 0 0-.33.36l-.3.4a1.09 1.09 0 0 1-.24.27c-.1.06-.2.16-.33.3s-.24.3-.36.48a4.11 4.11 0 0 0-.27.51c-.08.16-.12.3-.12.45 0 .06.01.1.03.12-.08.24-.22.5-.42.8l-.57.87-.54.7c-.14.18-.2.28-.2.3v.15c.02.06.03.1.03.15 0 .12-.04.28-.12.48l-.27.6-.24.7c-.06.24-.1.47-.1.7v.12c.02.02.03.05.03.1a5.89 5.89 0 0 1-.09 1.08l-.2.93-.18 1.02c-.06.36-.1.78-.1 1.26a2.77 2.77 0 0 0 .03.39c.02.14.03.28.03.42 0 .1-.02.2-.06.3-.02.1-.03.2-.03.3s.02.2.06.27c.06.06.1.13.1.2 0 .06-.01.12-.03.18v.15c0 .44.06.88.18 1.32.12.42.18.84.18 1.26 0 .2.04.43.12.7a3.03 3.03 0 0 0 .36.72c.16.22.37.4.63.57.26.14.56.2.9.2.16 0 .4-.1.75-.27s.6-.37.75-.57c.08-.1.17-.17.27-.2.12-.06.23-.1.33-.12l.27-.12c.08-.04.12-.1.12-.2 0-.04-.01-.1-.03-.15v-.18c0-.16.08-.3.24-.4.18-.1.32-.2.42-.3.14-.12.26-.27.36-.45l.3-.54.2-.45c.08-.14.17-.2.27-.2.14 0 .23-.05.27-.15.06-.12.1-.25.15-.4a4.11 4.11 0 0 1 .21-.42c.08-.16.2-.3.4-.4.02 0 .05.07.1.2a2.2 2.2 0 0 1 .09.42l.06.5.03.36c0 .06-.01.16-.03.3-.02.12-.08.18-.18.18-.08 0-.15-.1-.2-.27l-.12-.45c-.3.52-.47.94-.5 1.26-.02.32-.08.56-.18.72-.14.22-.26.47-.36.75l-.33.78a2.88 2.88 0 0 1-.42.63c-.14.16-.33.24-.57.24-.04 0-.08-.01-.12-.03s-.08-.03-.12-.03-.06.02-.06.06.01.1.03.15.03.12.03.18-.05.17-.15.33c-.08.16-.2.32-.33.48-.14.18-.3.33-.5.45-.2.14-.4.22-.6.24-.16 0-.28.05-.36.15-.08.12-.2.18-.36.18a1.33 1.33 0 0 0-.42.06c-.12.06-.25.14-.4.24-.18-.1-.37-.2-.57-.27a1.89 1.89 0 0 0-.6-.09h-.15c-.06.02-.12.03-.18.03-.08 0-.16-.02-.24-.06l-.24-.06zm.3-12.66c0 .02-.02.05-.06.1l.06.06.06-.06c0-.02-.02-.05-.06-.1zm-.9 4.14c.02-.02.03-.06.03-.12l-.03-.03c-.02 0-.03-.01-.03-.03-.04.04-.06.07-.06.1 0 .08.01.12.03.12l.06-.03zm6.2 5.88l-.03-.03c0-.02-.01-.04-.03-.06 0 .02-.01.04-.03.06-.02 0-.03.01-.03.03 0 .08.02.12.06.12 0 .02.01.02.03 0v-.06c.02-.02.03-.04.03-.06zm5.58-9.03a2.07 2.07 0 0 1-.24.99c-.16.28-.4.42-.7.42-.08 0-.14-.02-.18-.06-.02-.04-.08-.12-.18-.24.02-.02.02-.03 0-.03 0-.02.01-.04.03-.06a1.82 1.82 0 0 0 .45-.6l.3-.63a2.31 2.31 0 0 1 .36-.57c.14-.18.35-.3.63-.4.14 0 .24.05.3.15a.63.63 0 0 1 .09.33c0 .22-.08.37-.24.45-.14.08-.35.16-.63.24zm-1.5 3.4l-.15-.1c-.04-.04-.06-.1-.06-.15l.12-.57c.04-.22.13-.36.27-.42.06 0 .1.1.1.3a4.63 4.63 0 0 1-.03.51.47.47 0 0 1-.24.42zm-1.17-.03c0-.12.02-.22.06-.3s.07-.15.1-.2c.04-.08.1-.12.2-.12.08 0 .12.06.12.18a1.29 1.29 0 0 1 .03.24c0 .24-.1.45-.27.63l.03.03-.27-.27v-.18zm.24.42v.48c0 .18-.04.3-.12.33-.08-.06-.15-.17-.2-.33-.06-.18-.1-.3-.1-.4 0-.12.06-.23.18-.33h-.03c.06.04.1.08.15.12l.12.12zm14.56-5.7c-.06-.02-.13-.03-.2-.03s-.13.05-.15.15v.33c0 .12-.01.23-.03.33 0 .1-.03.15-.1.15-.08 0-.13-.07-.15-.2s-.03-.26-.03-.36c-.14.08-.2.17-.2.27 0 .06.01.12.03.18s.03.12.03.18c0 .16-.06.3-.18.42-.1.1-.15.23-.15.4 0 .06.01.12.03.18s.03.12.03.18c0 .18-.08.35-.24.5-.26.26-.43.54-.5.84-.08.28-.23.53-.45.75-.04.04-.12.3-.24.75l-.3 1.3c0 .04-.07.16-.2.36-.12.2-.27.4-.45.63a5.03 5.03 0 0 1-.51.6c-.18.18-.33.27-.45.27a.82.82 0 0 1-.18-.03c-.06-.04-.12-.06-.18-.06-.04 0-.08.01-.12.03h-.12c-.4 0-.76-.12-1.08-.36-.32-.26-.6-.57-.84-.93-.24-.38-.44-.78-.6-1.2l-.33-1.23a10.76 10.76 0 0 1-.15-1.11l-.15-1.3-.15-1.02c-.06-.3-.14-.45-.24-.45-.12 0-.26.18-.42.54-.14.34-.3.77-.45 1.3l-.42 1.62-.3 1.5c-.1.46-.2 1.03-.27 1.7l-.3 1.92c-.12.62-.26 1.16-.42 1.62-.14.44-.32.66-.54.66-.06 0-.15-.01-.27-.03l-.33-.15a1.85 1.85 0 0 1-.33-.21c-.08-.1-.12-.2-.12-.33l.03-1.1.15-1.17.2-1.14c.08-.36.17-.66.27-.9.1-.22.14-.47.12-.75 0-.3.05-.52.15-.66a2.05 2.05 0 0 0 .27-1.02c.02-.36.12-.7.3-1.02a.37.37 0 0 0 .06-.21c0-.08.01-.16.03-.24.06-.4.2-.8.42-1.23a5.31 5.31 0 0 0 .48-1.29c.06-.3.2-.6.4-.9a2.5 2.5 0 0 0 .39-.96c.04-.2.1-.42.2-.66s.23-.46.4-.66c.18-.22.38-.4.6-.54.24-.16.5-.24.8-.24.5 0 .9.07 1.17.2.28.12.5.3.63.5.16.22.26.5.3.8s.06.67.06 1.05c0 .22-.03.45-.1.7-.04.22-.06.44-.06.66 0 .1.01.2.03.3s.03.2.03.3c0 .16-.04.33-.12.5-.06.18-.1.35-.1.5 0 .4.05.75.15 1.05s.15.6.15.87a.8.8 0 0 1-.09.36c-.06.12-.1.23-.1.33s.06.2.18.33l.36.24c.46-.46.87-.98 1.23-1.56l1.05-1.65c.34-.52.67-.97 1-1.35.32-.4.66-.64 1.02-.72 0-.48.08-.8.24-.96l.6-.63c.16-.16.32-.34.48-.54a6.91 6.91 0 0 1 .51-.57c.18-.18.37-.33.57-.45s.43-.18.7-.18c.48 0 .9.17 1.26.5.38.34.57.88.57 1.62 0 .32-.06.67-.18 1.05l-.36 1.17-.36 1.1c-.1.36-.15.7-.15 1v.3c0 .1.01.2.03.3 0 .18-.06.3-.18.4s-.18.17-.18.27c0 .32-.07.6-.2.8-.12.22-.18.53-.18.93 0 .2.01.4.03.57.04.18.06.36.06.54 0 .28-.07.6-.2.96a2.66 2.66 0 0 0-.21 1.02c0 .3.02.6.06.9s.06.6.06.9l-.03 1a6.03 6.03 0 0 1-.09 1.05c-.04.34-.12.62-.24.84-.12.24-.3.36-.5.36-.2 0-.42-.13-.66-.4s-.38-.53-.42-.8c0-.3-.03-.57-.1-.8-.06-.26-.13-.5-.2-.72l-.18-.7a2.5 2.5 0 0 1-.09-.66 1.65 1.65 0 0 1 .15-.69c.1-.24.15-.5.15-.78v-.87a2.83 2.83 0 0 1 .15-.9c.16-.5.23-1 .2-1.53a8.4 8.4 0 0 1 .15-1.59c.1-.52.16-1.05.18-1.6l.06-1.5c0-.22-.03-.37-.1-.45s-.18-.12-.36-.12c-.1 0-.22.15-.36.45zm23.203.2c.2.16.3.34.3.54s-.1.38-.33.54c-.2.16-.5.24-.87.24h-.27l-.27-.06c-1.12.34-2.15.8-3.1 1.35-.32.2-.5.46-.5.78l-.06.8c-.04.34-.12.63-.24.87s-.18.53-.18.87c0 .24-.1.43-.27.57-.16.14-.24.34-.24.6v.15c.02.04.03.08.03.12 0 .28-.06.52-.18.72-.1.18-.24.4-.42.66-.04.14-.17.38-.4.72a9.43 9.43 0 0 1-.72.99 6.38 6.38 0 0 1-.9.9c-.3.26-.57.4-.8.4-.12 0-.3.1-.54.27a3.71 3.71 0 0 1-.69.45 10.94 10.94 0 0 1-1.29-.36c-.38-.14-.73-.36-1.05-.66-.24-.28-.47-.6-.7-.96a10.1 10.1 0 0 1-.57-1.14l-.36-1.17c-.08-.38-.12-.73-.12-1.05 0-.36.04-.7.12-1.02.08-.34.12-.67.12-1 0-.12.03-.28.1-.48l.24-.6.2-.66c.08-.22.12-.4.12-.57 0-.14-.05-.32-.15-.54l-.3-.72-.3-.78c-.08-.26-.12-.5-.12-.75 0-.78.07-1.4.2-1.83.16-.44.38-.77.66-1a2.14 2.14 0 0 1 1.02-.45 8.93 8.93 0 0 1 1.32-.09h1.38c.18 0 .5.08.93.24.44.14.9.36 1.4.66s.96.68 1.38 1.14.7 1 .84 1.62a2.91 2.91 0 0 0 .21.63c.12.22.3.33.5.33.08 0 .14-.01.18-.03l2.28-.8c.74-.26 1.53-.4 2.37-.45zm-6.66 4.4a4.05 4.05 0 0 1-.09-.48c0-.18-.08-.27-.24-.27a1.64 1.64 0 0 0-.36.06l-1.5.54c-.5.18-1.03.27-1.6.27-.24 0-.42.18-.54.54-.12.34-.2.73-.27 1.17l-.12 1.23v.75c0 .4.1.8.3 1.2.2.38.47.57.8.57.38 0 .74-.2 1.08-.57.36-.4.68-.84.96-1.32a13.62 13.62 0 0 0 .75-1.35c.22-.42.38-.67.48-.75.12-.2.2-.46.2-.78l.12-.8zm-6.33-4.47c.02.12.04.3.06.57.04.26.14.4.3.4.08 0 .15-.03.2-.1a1.96 1.96 0 0 1 .18-.21 1.96 1.96 0 0 1 .18-.21c.08-.08.17-.12.27-.12l.36.1c.26.06.54.15.84.27a4.23 4.23 0 0 1 .84.45c.26.16.4.34.4.54 0 .12-.06.3-.18.5-.12.2-.2.37-.27.5 0 .14.04.23.12.27.1.04.17.06.2.06.2 0 .44-.02.72-.06a5.15 5.15 0 0 0 .84-.24c.28-.1.52-.22.72-.36.2-.16.3-.34.3-.54 0-.4-.13-.84-.4-1.32-.24-.48-.56-.92-.96-1.32-.4-.42-.84-.76-1.32-1.02-.48-.28-.94-.42-1.38-.42-.64 0-1.14.24-1.5.72s-.54 1-.54 1.53zM71.85 33.5a7.35 7.35 0 0 0-.15.36l-.2.6c-.06.2-.13.4-.2.57l-.12.33c-.08.26-.18.47-.3.63l-.33.42c-.1.14-.2.3-.27.48-.06.18-.1.42-.1.72 0 .4-.08.8-.24 1.23-.16.44-.27.86-.33 1.26l-.3.54a2.62 2.62 0 0 1-.45.6c-.18.2-.4.37-.7.5-.26.14-.58.2-.96.2a1.39 1.39 0 0 1-.63-.15c-.2-.1-.38-.23-.54-.4a1.79 1.79 0 0 1-.39-.48c-.1-.18-.15-.36-.15-.54 0-.04.03-.17.1-.4l-.45-.8c-.14-.26-.2-.52-.2-.78a2.77 2.77 0 0 1 .03-.39c.04-.12.07-.28.1-.48a7.11 7.11 0 0 0 .09-.81 11.39 11.39 0 0 0 .06-1.29c0-.3.08-.58.24-.84s.24-.5.24-.75a1.13 1.13 0 0 0-.09-.45c-.04-.14-.06-.28-.06-.42.08-.08.16-.15.24-.2s.16-.13.24-.2c-.14-.28-.2-.52-.2-.72 0-.32.04-.65.12-1l.3-.96.27-.78c.1-.24.15-.43.15-.57 0-.1-.01-.2-.03-.27-.02-.1-.03-.2-.03-.3 0-.16.01-.32.03-.48.04-.16.06-.32.06-.48 0-.08-.01-.15-.03-.2-.02-.08-.03-.16-.03-.24v-.18c.02-.06.03-.12.03-.18 0-.1-.02-.2-.06-.27-.04-.1-.06-.2-.06-.3 0-.18.05-.35.15-.5l-.06-.06.06.06h-.15c-.04-.02-.08-.03-.12-.03-.1 0-.2.04-.33.12l-.33.18c-.06.34-.17.56-.33.66a6.56 6.56 0 0 0-.57.33 7.32 7.32 0 0 1-.21.78c-.08.24-.2.47-.36.7-.28.34-.54.8-.78 1.4-.24.58-.58 1.14-1.02 1.68-.14.16-.24.4-.3.72-.04.32-.12.6-.24.84-.24.46-.42.9-.54 1.3l-.36 1c-.12.28-.26.5-.42.66-.14.14-.36.2-.66.2-.44-.06-.84-.22-1.2-.48-.3-.22-.58-.56-.84-1.02-.24-.48-.36-1.15-.36-2v-.48a2.23 2.23 0 0 0-.06-.54c-.02-.18-.08-.27-.18-.27a1.05 1.05 0 0 0-.33.06l-.84 1.7c-.3.6-.68 1.23-1.14 1.9l-.4.63c-.12.2-.25.38-.4.54a1.51 1.51 0 0 1-.48.36c-.18.1-.4.15-.7.15-.22 0-.44-.08-.66-.24-.2-.18-.4-.4-.57-.66a5.33 5.33 0 0 1-.42-.96 4.13 4.13 0 0 1-.15-1.11c0-.12.01-.24.03-.36s.03-.25.03-.4c0-.2-.01-.4-.03-.57s-.03-.37-.03-.57l.03-.75.12-.75c0-.18.08-.44.24-.78.18-.34.27-.7.27-1.1 0-.1-.02-.2-.06-.27s-.06-.17-.06-.27c.06-.4.15-.8.27-1.2a3.23 3.23 0 0 0 .12-.66l.12-.72c.04-.24.1-.44.18-.6a.47.47 0 0 1 .42-.24c.12 0 .3.04.54.12.24.06.48.15.72.27s.44.26.6.42c.18.16.27.33.27.5a.46.46 0 0 1-.06.18c-.16.34-.27.68-.33 1.02a5.53 5.53 0 0 0-.09 1.02 2.64 2.64 0 0 1-.12.78c-.06.24-.14.5-.24.78l-.24.8a3.73 3.73 0 0 0-.09.84 4.2 4.2 0 0 0 .06.69c.06.24.1.47.1.7 0 .08-.02.16-.06.24s-.06.16-.06.24c0 .18.08.27.24.27.1-.04.18-.1.24-.15.08-.06.14-.13.18-.2l.9-1.38c.34-.48.7-.92 1.05-1.32.38-.42.77-.76 1.17-1.02.42-.26.85-.4 1.3-.4a.78.78 0 0 1 .57.24c.18.14.27.32.27.54l-.06 1.32-.03 1.3c0 .02.02.05.06.1.08 0 .18-.06.3-.18s.23-.26.33-.42c.12-.16.22-.33.3-.5l.18-.45c.04-.16.15-.32.33-.48.2-.16.36-.35.48-.57l.27-.48c.06-.12.14-.26.24-.42l.48-.72.96-1.35a1.06 1.06 0 0 1 .3-.3c.1-.08.2-.14.27-.18.08-.06.15-.13.2-.2.08-.08.14-.2.18-.36.06-.22.18-.4.36-.5.2-.14.35-.3.45-.5.04-.08.13-.22.27-.42.14-.22.33-.44.57-.66a4.25 4.25 0 0 1 .9-.63c.34-.18.74-.27 1.2-.27.22 0 .46.08.72.24.28.16.42.37.42.63 0 .04-.01.08-.03.12v.1c0 .14.02.27.06.4a.86.86 0 0 1 .09.39c0 .46-.06 1-.18 1.6-.12.58-.18 1.13-.18 1.65a.78.78 0 0 1-.24.57c-.14.14-.2.27-.2.4 0 .14.06.25.18.33s.18.16.18.24c0 .2-.06.35-.18.45-.1.08-.15.2-.15.36v.2c.02.06.03.12.03.18a2.18 2.18 0 0 1-.09.63c-.04.18-.07.38-.1.6a.82.82 0 0 1-.21.36.56.56 0 0 0-.12.36v.06c.02 0 .03.01.03.03 0 .22-.07.44-.2.66-.14.2-.2.44-.2.72l-.12 2.82a5.32 5.32 0 0 0 .06.81c.06.24.2.36.42.36.1 0 .23-.1.4-.33.18-.22.36-.5.54-.8l.57-1.02.48-1.05.36-.78.15-.27c0-.04.01-.1.03-.2a2.37 2.37 0 0 1 .09-.36 2.33 2.33 0 0 1 .12-.3c.06-.1.1-.15.15-.15.02 0 .06.07.12.2a1.89 1.89 0 0 1 .21.45l.2.45c.06.12.1.18.12.18zm-7.2-12.9c-.74.06-1.45.17-2.13.33a9.31 9.31 0 0 0-1.86.66 10.97 10.97 0 0 1-1.41.57c-.44.14-.92.2-1.44.2-.5 0-1-.1-1.47-.27-.46-.18-.87-.43-1.23-.75s-.65-.68-.87-1.08c-.22-.42-.33-.87-.33-1.35 0-.1.02-.2.06-.27s.1-.12.2-.12c.26 0 .5.07.7.2.22.14.43.3.63.48l.63.45c.2.14.42.2.66.2.14 0 .25-.01.33-.03l2.94-.72 1.53-.3c.52-.08 1.08-.12 1.68-.12a24.98 24.98 0 0 1 .48.03c.32 0 .67.04 1.05.12.38.06.72.17 1.02.33.32.14.48.35.48.63 0 .02-.03.08-.1.18-.04.08-.1.18-.2.3-.1.1-.24.2-.42.27s-.4.12-.66.12a.44.44 0 0 1-.27-.09zm3.78 12.63a.46.46 0 0 1-.06-.18h.03c.02-.02.04-.03.06-.03-.02.04-.03.1-.03.2zm0 0c-.02-.04-.05-.06-.1-.06l-.03.03h.1l.03.03zm-1.77-8.1l-.06-.06.06.06zm8.407 3.4h.18c.06-.02.1-.03.15-.03.14 0 .28-.1.42-.3l.45-.7.57-.8c.2-.26.42-.45.66-.57.14-.18.35-.4.63-.7a8.17 8.17 0 0 1 .96-.87c.38-.3.8-.55 1.26-.75a3.86 3.86 0 0 1 1.5-.3 1.79 1.79 0 0 1 .57.09c.18.04.36.1.54.15.16.04.26.13.3.27.04.12.14.18.3.18.14.04.27.13.4.27s.22.3.3.48a1.62 1.62 0 0 1 .21.51c.06.16.1.28.1.36 0 .42-.06.92-.18 1.5-.1.56-.26 1.07-.48 1.53-.18.38-.4.74-.63 1.08a5.51 5.51 0 0 0-.57 1.08 1.83 1.83 0 0 1-.51.78l-.66.72c-.1.1-.2.23-.27.4a4.94 4.94 0 0 1-.27.42 3.09 3.09 0 0 1-.33.39c-.12.1-.26.16-.42.18-.16 0-.26.04-.3.12s-.06.17-.06.27c0 .14-.16.3-.48.48a12.25 12.25 0 0 1-1.11.48l-1.26.36c-.4.1-.7.15-.9.15a1.06 1.06 0 0 1-.42-.09.69.69 0 0 0-.39-.12c-.14 0-.26.1-.36.33-.1.2-.2.45-.27.75l-.15.9-.03.72c0 .16.01.32.03.48.04.18.06.35.06.5s-.01.3-.03.45v.45c0 .18.05.32.15.42a.72.72 0 0 1 .24.36 2.11 2.11 0 0 1 .12.51c.02.18.03.36.03.54a3.68 3.68 0 0 0 .03.51 3.68 3.68 0 0 0 .21.66 1.46 1.46 0 0 1 .12.6v.4a.69.69 0 0 1-.12.39c-.06.12-.17.22-.33.3s-.4.12-.72.12c-.18 0-.35-.1-.5-.27-.16-.16-.3-.38-.42-.66s-.22-.6-.3-1a6.93 6.93 0 0 1-.09-1.14c0-.16.03-.33.1-.5.08-.18.12-.33.12-.45-.14-.26-.25-.5-.33-.75-.08-.2-.15-.4-.2-.63a1.74 1.74 0 0 1-.09-.45.58.58 0 0 1 .09-.3.58.58 0 0 0 .09-.3c0-.1-.02-.2-.06-.27s-.06-.17-.06-.27c0-.06.01-.12.03-.18.04-.08.06-.16.06-.24a.78.78 0 0 0-.03-.24c-.02-.08-.03-.17-.03-.27 0-.06.02-.15.06-.27 0-.16-.04-.32-.12-.48s-.12-.32-.12-.48c0-.28.05-.6.15-.93.12-.36.18-.63.18-.8 0-.04-.01-.07-.03-.1-.02-.04-.03-.08-.03-.12 0-.08.02-.14.06-.18.06-.06.1-.13.1-.2 0-.12-.06-.23-.18-.33-.1-.12-.15-.22-.15-.3 0-.06.06-.14.18-.24s.18-.2.18-.3a.91.91 0 0 0-.09-.33 1.06 1.06 0 0 1-.09-.42c0-.24.03-.43.1-.57s.13-.25.2-.33.15-.14.2-.18c.06-.06.1-.13.1-.2 0-.1-.04-.18-.12-.24s-.15-.2-.2-.4l.24-.6c.1-.24.15-.46.15-.66s-.07-.4-.2-.6-.2-.45-.2-.75c0-.14.06-.33.18-.57.14-.26.2-.54.2-.84a2.5 2.5 0 0 0-.09-.66 4.2 4.2 0 0 1-.06-.69c0-.22.07-.43.2-.63.16-.2.24-.43.24-.7 0-.14-.01-.27-.03-.4a2.77 2.77 0 0 1-.03-.39 5.48 5.48 0 0 1 .03-.54 2.62 2.62 0 0 1 .12-.57c.06-.18.14-.33.24-.45a.46.46 0 0 1 .39-.21c.14 0 .32.03.54.1.24.06.46.16.66.3.2.12.37.3.5.5.16.2.24.45.24.75 0 .2-.05.43-.15.7-.08.26-.18.53-.3.8l-.33.78c-.08.26-.12.5-.12.7 0 .46-.06.87-.18 1.23-.12.34-.2.7-.24 1.1a.44.44 0 0 0 .09.27c.06.08.1.16.1.24s-.04.15-.12.2c-.06.06-.1.14-.1.24 0 .04.04.12.12.24-.18.08-.3.17-.4.27a1.14 1.14 0 0 0-.21.3l-.12.42c-.02.14-.08.3-.18.5l.06.06c.1 0 .18-.04.24-.12s.1-.17.15-.27c.04-.12.07-.23.1-.33a1.29 1.29 0 0 0 .03-.24.89.89 0 0 0-.12-.45c.08-.04.15-.06.2-.06.08-.02.15-.05.2-.1zm3.03-1.1c0 .22-.03.4-.1.5a2.73 2.73 0 0 1-.21.3l-.2.27c-.08.08-.14.2-.18.36-.08.26-.2.5-.36.7l-.48.63c-.06.08-.15.25-.27.5l-.33.84-.27.93c-.08.32-.12.6-.12.8a6.2 6.2 0 0 0 .03.54c.04.2.14.3.3.3a8.67 8.67 0 0 0 .6-.09c.38-.08.8-.2 1.26-.36s.9-.38 1.35-.66a2.44 2.44 0 0 0 .93-1.14l.45-.6.4-.48.36-.4c.08-.06.18-.28.3-.66a13.99 13.99 0 0 0 .39-1.35 13.43 13.43 0 0 0 .33-1.5c.1-.52.15-.93.15-1.23 0-.24-.06-.4-.18-.45s-.27-.1-.45-.1c-.34 0-.67.1-1 .33s-.64.47-.96.75l-.9.8c-.28.24-.56.38-.84.42zm-4.32 3.06c-.08.04-.12.12-.12.24 0 .06.01.1.03.12s.03.05.03.1a.35.35 0 0 1 .06-.09.35.35 0 0 0 .06-.09c0-.06-.02-.15-.06-.27zm.4 9.33l.1.03-.06-.12-.03.1zm-.42-1.53l.06-.2-.06-.06c-.04.08-.06.15-.06.2l.06.06zm14.367-10.83c.16-.28.3-.56.42-.84.14-.28.26-.57.36-.87.06-.24.2-.48.4-.72.22-.24.44-.45.66-.63a4.21 4.21 0 0 1 .57-.45c.18-.12.27-.17.27-.15.16-.22.35-.33.57-.33a3.85 3.85 0 0 0 .69-.06c.34 0 .68.1 1.02.3s.7.3 1.1.33l.45.27c.2.1.4.23.57.4a2.1 2.1 0 0 1 .45.57c.14.22.2.48.2.78 0 .28-.08.6-.24.93-.14.32-.34.65-.6 1-.24.32-.52.63-.84.93-.3.3-.6.56-.93.78-.18.12-.35.26-.5.42l-.48.48c-.16.14-.33.27-.5.4a1.6 1.6 0 0 1-.66.18c-.52.06-.85.28-1 .66-.12.36-.18 1.04-.18 2.04 0 .52.06 1 .18 1.4.12.4.4.6.8.6.08 0 .28-.08.6-.24l1.05-.63 1.1-.8c.36-.3.63-.56.8-.78a1.42 1.42 0 0 0 .48-.27l.42-.4a2.02 2.02 0 0 1 .42-.33.76.76 0 0 1 .45-.15.49.49 0 0 1 .36.15c.12.1.18.2.18.33 0 .08-.06.22-.18.42-.12.18-.27.37-.45.57a4.81 4.81 0 0 1-.57.54c-.18.16-.33.26-.45.3-.2.06-.35.17-.45.33s-.25.27-.45.33c-.06.04-.16.17-.3.4a1.56 1.56 0 0 1-.48.54c-.1.08-.2.2-.33.36s-.26.32-.42.48c-.14.16-.32.3-.54.42-.2.12-.45.18-.75.18a3.64 3.64 0 0 1-.45-.03c-.16-.04-.32-.06-.48-.06-.06 0-.12.01-.18.03h-.18c-.18 0-.37-.04-.57-.12a3.1 3.1 0 0 1-.57-.3c-.18-.14-.33-.28-.45-.42-.12-.16-.18-.3-.18-.45 0-.08-.03-.14-.1-.18-.04-.04-.1-.07-.15-.1-.04-.04-.1-.08-.15-.12-.04-.04-.06-.12-.06-.24 0-.22-.1-.43-.27-.63a1.15 1.15 0 0 1-.27-.75c0-.06.05-.26.15-.6.12-.34.18-.65.18-.93 0-.14-.08-.34-.24-.6-.14-.26-.2-.45-.2-.57l.03-.66c.04-.22.06-.44.06-.66 0-.06-.01-.12-.03-.18v-.18l.42-.87c.16-.3.24-.6.24-.87 0-.04-.01-.07-.03-.1v-.1c0-.1.03-.18.1-.24.08-.08.12-.15.12-.2l-.03-.03zm2.2 2.04l.48-.27 1.05-.7a11.44 11.44 0 0 0 1.02-.84c.32-.3.48-.57.48-.8a2.31 2.31 0 0 0-.03-.21 3.15 3.15 0 0 0-.09-.42c-.02-.16-.06-.3-.12-.4-.06-.12-.13-.18-.2-.18-.14 0-.3.08-.48.24-.16.14-.33.32-.5.54l-.5.6c-.14.2-.27.35-.4.45l-.12.2a4.59 4.59 0 0 0-.27.48l-.3.57c-.08.2-.12.35-.12.45 0 .06.04.15.12.27zm-2.13-2c-.04 0-.06-.01-.06-.03l.06.03zm31.33 6.03a7.35 7.35 0 0 0-.15.36l-.2.6c-.06.2-.13.4-.2.57l-.12.33c-.08.26-.18.47-.3.63l-.33.42c-.1.14-.2.3-.27.48-.06.18-.1.42-.1.72 0 .4-.08.8-.24 1.23-.16.44-.27.86-.33 1.26l-.3.54a2.62 2.62 0 0 1-.45.6c-.18.2-.4.37-.7.5-.26.14-.58.2-.96.2a1.39 1.39 0 0 1-.63-.15c-.2-.1-.38-.23-.54-.4a1.79 1.79 0 0 1-.39-.48c-.1-.18-.15-.36-.15-.54 0-.04.03-.17.1-.4l-.45-.8c-.14-.26-.2-.52-.2-.78a2.77 2.77 0 0 1 .03-.39c.04-.12.07-.28.1-.48a7.11 7.11 0 0 0 .09-.81 11.39 11.39 0 0 0 .06-1.29c0-.3.08-.58.24-.84s.24-.5.24-.75a1.13 1.13 0 0 0-.09-.45c-.04-.14-.06-.28-.06-.42.08-.08.16-.15.24-.2s.16-.13.24-.2c-.14-.28-.2-.52-.2-.72 0-.32.04-.65.12-1l.3-.96.27-.78c.1-.24.15-.43.15-.57 0-.1-.01-.2-.03-.27-.02-.1-.03-.2-.03-.3 0-.16.01-.32.03-.48.04-.16.06-.32.06-.48 0-.08-.01-.15-.03-.2-.02-.08-.03-.16-.03-.24v-.18c.02-.06.03-.12.03-.18 0-.1-.02-.2-.06-.27-.04-.1-.06-.2-.06-.3 0-.18.05-.35.15-.5l-.06-.06.06.06h-.15c-.04-.02-.08-.03-.12-.03-.1 0-.2.04-.33.12l-.33.18c-.06.34-.17.56-.33.66a6.56 6.56 0 0 0-.57.33 7.32 7.32 0 0 1-.21.78c-.08.24-.2.47-.36.7-.28.34-.54.8-.78 1.4-.24.58-.58 1.14-1.02 1.68-.14.16-.24.4-.3.72-.04.32-.12.6-.24.84-.24.46-.42.9-.54 1.3l-.36 1c-.12.28-.26.5-.42.66-.14.14-.36.2-.66.2-.44-.06-.84-.22-1.2-.48-.3-.22-.58-.56-.84-1.02-.24-.48-.36-1.15-.36-2v-.48a2.23 2.23 0 0 0-.06-.54c-.02-.18-.08-.27-.18-.27a1.05 1.05 0 0 0-.33.06l-.84 1.7c-.3.6-.68 1.23-1.14 1.9l-.4.63c-.12.2-.25.38-.4.54a1.51 1.51 0 0 1-.48.36c-.18.1-.4.15-.7.15-.22 0-.44-.08-.66-.24a3.78 3.78 0 0 1-.57-.66 5.33 5.33 0 0 1-.42-.96 4.13 4.13 0 0 1-.15-1.11c0-.12.01-.24.03-.36s.03-.25.03-.4c0-.2-.01-.4-.03-.57s-.03-.37-.03-.57l.03-.75.12-.75c0-.18.08-.44.24-.78.18-.34.27-.7.27-1.1 0-.1-.02-.2-.06-.27s-.06-.17-.06-.27c.06-.4.15-.8.27-1.2a3.23 3.23 0 0 0 .12-.66l.12-.72c.04-.24.1-.44.18-.6a.47.47 0 0 1 .42-.24c.12 0 .3.04.54.12.24.06.48.15.72.27s.44.26.6.42c.18.16.27.33.27.5a.46.46 0 0 1-.06.18c-.16.34-.27.68-.33 1.02a5.53 5.53 0 0 0-.09 1.02 2.64 2.64 0 0 1-.12.78c-.06.24-.14.5-.24.78l-.24.8a3.73 3.73 0 0 0-.09.84 4.2 4.2 0 0 0 .06.69c.06.24.1.47.1.7 0 .08-.02.16-.06.24s-.06.16-.06.24c0 .18.08.27.24.27.1-.04.18-.1.24-.15.08-.06.14-.13.18-.2l.9-1.38c.34-.48.7-.92 1.05-1.32.38-.42.77-.76 1.17-1.02.42-.26.85-.4 1.3-.4a.78.78 0 0 1 .57.24c.18.14.27.32.27.54l-.06 1.32-.03 1.3c0 .02.02.05.06.1.08 0 .18-.06.3-.18s.23-.26.33-.42c.12-.16.22-.33.3-.5l.18-.45c.04-.16.15-.32.33-.48.2-.16.36-.35.48-.57l.27-.48c.06-.12.14-.26.24-.42l.48-.72.96-1.35a1.06 1.06 0 0 1 .3-.3c.1-.08.2-.14.27-.18.08-.06.15-.13.2-.2.08-.08.14-.2.18-.36.06-.22.18-.4.36-.5.2-.14.35-.3.45-.5.04-.08.13-.22.27-.42.14-.22.33-.44.57-.66a4.25 4.25 0 0 1 .9-.63c.34-.18.74-.27 1.2-.27.22 0 .46.08.72.24.28.16.42.37.42.63 0 .04-.01.08-.03.12v.1c0 .14.02.27.06.4a.86.86 0 0 1 .09.39c0 .46-.06 1-.18 1.6-.12.58-.18 1.13-.18 1.65a.78.78 0 0 1-.24.57c-.14.14-.2.27-.2.4 0 .14.06.25.18.33s.18.16.18.24c0 .2-.06.35-.18.45-.1.08-.15.2-.15.36v.2c.02.06.03.12.03.18a2.18 2.18 0 0 1-.09.63c-.04.18-.07.38-.1.6a.82.82 0 0 1-.21.36.56.56 0 0 0-.12.36v.06c.02 0 .03.01.03.03 0 .22-.07.44-.2.66-.14.2-.2.44-.2.72l-.12 2.82a5.32 5.32 0 0 0 .06.81c.06.24.2.36.42.36.1 0 .23-.1.4-.33.18-.22.36-.5.54-.8l.57-1.02.48-1.05.36-.78.15-.27c0-.04.01-.1.03-.2a2.37 2.37 0 0 1 .09-.36 2.33 2.33 0 0 1 .12-.3c.06-.1.1-.15.15-.15.02 0 .06.07.12.2a1.89 1.89 0 0 1 .21.45l.2.45c.06.12.1.18.12.18zm-7.2-12.9c-.74.06-1.45.17-2.13.33a9.31 9.31 0 0 0-1.86.66 10.97 10.97 0 0 1-1.41.57c-.44.14-.92.2-1.44.2-.5 0-1-.1-1.47-.27-.46-.18-.87-.43-1.23-.75s-.65-.68-.87-1.08c-.22-.42-.33-.87-.33-1.35 0-.1.02-.2.06-.27s.1-.12.2-.12c.26 0 .5.07.7.2.22.14.43.3.63.48l.63.45c.2.14.42.2.66.2.14 0 .25-.01.33-.03l2.94-.72 1.53-.3c.52-.08 1.08-.12 1.68-.12a24.98 24.98 0 0 1 .48.03c.32 0 .67.04 1.05.12.38.06.72.17 1.02.33.32.14.48.35.48.63 0 .02-.03.08-.1.18-.04.08-.1.18-.2.3-.1.1-.24.2-.42.27s-.4.12-.66.12a.44.44 0 0 1-.27-.09zm3.78 12.63a.46.46 0 0 1-.06-.18h.03c.02-.02.04-.03.06-.03-.02.04-.03.1-.03.2zm0 0c-.02-.04-.05-.06-.1-.06l-.03.03h.1l.03.03zm-1.77-8.1l-.06-.06.06.06zm15.045 8.73c-.08.02-.16.03-.24.03-.06 0-.1.03-.1.1 0 .1.01.2.03.27.02.06.03.13.03.2 0 .04-.05.18-.15.42a5.51 5.51 0 0 1-.33.72c-.12.26-.26.5-.42.72-.14.2-.27.3-.4.3-.04 0-.1-.01-.15-.03-.04-.04-.1-.08-.15-.12-.14 0-.28.12-.42.36-.12.22-.28.47-.48.75-.18.26-.4.5-.7.72s-.63.33-1.05.33a1.32 1.32 0 0 1-.54-.12 1.44 1.44 0 0 0-.51-.09h-.12c-.02.02-.05.03-.1.03-.12 0-.2-.05-.24-.15-.02-.1-.05-.2-.1-.33a.71.71 0 0 0-.15-.33c-.06-.1-.17-.15-.33-.15-.08 0-.16.01-.24.03h-.18c-.16 0-.26-.08-.3-.24l-.1-.5c-.1-.34-.26-.75-.48-1.23a4.3 4.3 0 0 1-.33-1.5c0-.06.03-.1.1-.1.08 0 .13.06.15.18s.06.18.12.18c.12 0 .2-.1.2-.3.04-.2.06-.4.06-.6 0-.22-.04-.36-.12-.42a.66.66 0 0 0-.27-.12l-.27-.12c-.08-.04-.12-.14-.12-.3 0-.08.02-.2.06-.4l.12-.54.12-.48.06-.3c0-.52.06-1.03.18-1.53l.36-1.56c.06-.32.17-.6.33-.87s.24-.5.24-.72a2.08 2.08 0 0 1 .06-.42l.15-.57.2-.6.2-.5c.14-.4.3-.65.48-.75.2-.1.42-.15.66-.15a6.2 6.2 0 0 1 .54.03 1.89 1.89 0 0 1 .6.15c.2.06.37.17.5.33s.2.38.2.66c0 .36-.04.72-.12 1.08l-.2 1.02-.24.96a4.17 4.17 0 0 0-.09.81c0 .16.01.27.03.33a2.16 2.16 0 0 1-.15.78 2.18 2.18 0 0 0-.12.69c0 .22.15.38.45.48l.96.2 1 .2c.3.08.45.22.45.42 0 .06-.04.13-.12.2-.06.08-.1.14-.1.18l.06.1.15.24c.06.08.13.16.2.24.08.06.15.1.2.1.12 0 .18-.07.18-.2a1.86 1.86 0 0 1 .06-.45 2.63 2.63 0 0 1 .24.48l.12.33.15.33c.08.12.2.28.36.48 0 .16-.03.28-.1.36s-.1.17-.15.27zm-4.47-1.2c-.02.04-.05.07-.1.1-.02.02-.03.05-.03.1l.03.96c.02.34.07.66.15.96a2.03 2.03 0 0 0 .36.72c.16.18.37.27.63.27.14 0 .33-.1.57-.3.26-.2.4-.42.4-.66 0-.04-.01-.06-.03-.06v-.1c-.12-.22-.23-.45-.33-.7a2.73 2.73 0 0 0-.36-.63 1.56 1.56 0 0 0-.54-.48c-.2-.12-.45-.18-.75-.18zm4.44 1.2c.08.04.15.1.2.18.08.06.12.14.12.24 0 .06-.06.1-.18.1-.06 0-.1-.04-.15-.12a.82.82 0 0 1-.03-.18c0-.06.02-.13.06-.2h-.03zm14.758-10.02c.06-.54.2-1 .4-1.35a2.54 2.54 0 0 0 .3-1.2 2.44 2.44 0 0 1 .24-1.05c.18-.34.27-.6.27-.8 0-.1-.04-.2-.12-.33-.06-.12-.1-.2-.1-.24 0-.06.06-.14.18-.24.2-.2.32-.4.36-.57a3.27 3.27 0 0 0 .06-.69c0-.1-.01-.2-.03-.3s-.03-.2-.03-.3c0-.34.07-.6.2-.78s.2-.4.2-.66c0-.14.02-.24.06-.3.04-.08.08-.14.12-.18l.12-.12c.04-.04.06-.1.06-.18 0-.1-.01-.2-.03-.27s-.03-.16-.03-.24c0-.02.05-.15.15-.4l.36-.87.33-.96c.12-.32.18-.56.18-.72 0-.04-.01-.08-.03-.12-.02-.06-.03-.1-.03-.15 0-.4.1-.68.27-.84.18-.18.27-.36.27-.54a.88.88 0 0 0-.03-.21v-.2c.04-.24.14-.42.3-.54.16-.14.24-.27.24-.4 0-.28.04-.54.12-.78l.36-.84.48-1.08c.18-.4.37-.9.57-1.47.18-.54.4-.97.7-1.3.3-.32.62-.7.96-1.17.14 0 .3-.04.48-.12l.7-.27a6.97 6.97 0 0 1 .9-.27c.36-.08.78-.12 1.26-.12.4 0 .77.13 1.1.4a3.36 3.36 0 0 1 .87 1.02c.24.4.43.86.57 1.38a5.65 5.65 0 0 1 .21 1.53 3.22 3.22 0 0 1-.18 1.08 3.22 3.22 0 0 0-.18 1.08v.36c.02.12.03.25.03.4 0 .26-.04.53-.12.8l-.2.78-.24.7c-.06.2-.1.36-.1.48 0 .28-.04.52-.12.72a4.38 4.38 0 0 1-.24.57c-.12.24-.22.5-.3.8l-.2.87c-.08.3-.2.6-.33.9a2.72 2.72 0 0 1-.6.78c-.12.12-.2.26-.27.42l-.18.48c-.04.18-.1.38-.18.6-.08.2-.2.42-.4.66-.08.08-.14.2-.18.4 0 .16-.06.36-.18.6-.1.22-.23.46-.4.72l-.45.75-.4.7a12.35 12.35 0 0 1-.75 1.23l-.6.87-.48.63c-.12.18-.2.36-.24.54 0 .08-.1.2-.27.36l-.63.5a8.18 8.18 0 0 1-.69.45c-.22.12-.37.2-.45.2l-.42.1c-.18.04-.38.1-.6.18a2.35 2.35 0 0 0-.54.3c-.16.1-.24.23-.24.4a.88.88 0 0 0 .03.21c.02.06.03.12.03.18 0 .12-.04.27-.12.45a1.32 1.32 0 0 0-.12.54l.03.7.06.75a.68.68 0 0 1-.15.45c-.08.12-.12.23-.12.33 0 .08.01.16.03.24l.06.2c0 .08-.01.16-.03.24-.02.06-.03.12-.03.18 0 .12.03.2.1.24a.78.78 0 0 0 .24.03h.42c.16-.02.32-.03.48-.03a1.29 1.29 0 0 1 .78.24c.22.16.45.24.7.24.48 0 .84.13 1.08.4l.84.9.72.8c.26.3.4.7.4 1.2 0 .12-.04.2-.12.24-.06.02-.1.05-.1.1 0 .06.05.15.15.27.12.12.18.22.18.3 0 .12-.05.24-.15.36a.49.49 0 0 0-.15.36c0 .1-.04.37-.12.8s-.26.9-.54 1.38c-.28.5-.7.95-1.23 1.35s-1.27.6-2.2.6c-.58 0-1.1-.18-1.56-.54s-.8-.77-1-1.23c-.06-.12-.14-.23-.24-.33l-.33-.24c-.1-.06-.2-.14-.27-.24-.06-.08-.1-.2-.1-.33 0-.22.08-.38.24-.48s.24-.26.24-.48v-.15c0-.08-.01-.16-.03-.24-.02-.1-.06-.18-.12-.24-.04-.08-.1-.12-.18-.12a.48.48 0 0 0-.3.12c-.1.06-.17.1-.2.1-.08 0-.12-.04-.12-.12 0-.18.1-.42.3-.72s.3-.6.3-.87c0-.1-.04-.2-.12-.27a.48.48 0 0 1-.12-.3c0-.08.01-.15.03-.2.02-.08.03-.16.03-.24 0-.18-.08-.3-.24-.36-.14-.08-.2-.22-.2-.42s.02-.4.06-.63c.06-.24.1-.47.1-.7 0-.16-.03-.33-.1-.5a2.91 2.91 0 0 1-.06-.57c0-.26.06-.5.18-.75a1.52 1.52 0 0 0 .21-.78c0-.24-.02-.43-.06-.57-.02-.16-.13-.36-.33-.6l.03.03c.18-.06.3-.14.33-.24a.86.86 0 0 0 .09-.39c0-.1-.01-.2-.03-.27v-.3c0-.2.06-.38.18-.54.12-.14.18-.36.18-.66a5.17 5.17 0 0 1 .06-.84c0-.12-.03-.22-.1-.3l-.12-.27zm1.83-.45l.06-.2c0-.02-.01-.04-.03-.06l-.03.06a.46.46 0 0 0 .06.18c-.02-.02-.05-.03-.1-.03h.03c0-.02.01-.03.03-.03 0 .02-.01.04-.03.06v.03zm.57 14.25c0-.06.02-.13.06-.2v-.1c0-.04-.02-.06-.06-.06 0 .02-.01.04-.03.06v.2c.02.02.03.05.03.1 0-.04.02-.06.06-.06 0 .02.01.03.03.03l.03.03c0 .02-.01.04-.03.06v.03h-.03c-.04 0-.06-.03-.06-.1zm9.57-32.07l-.15-.8c0-.22-.04-.46-.12-.72l-.18-.45a1.74 1.74 0 0 0-.33-.63c-.14-.22-.32-.4-.54-.57s-.5-.24-.8-.24c-.16 0-.34.1-.54.33-.18.2-.36.46-.54.78-.18.3-.35.62-.5.96a4.23 4.23 0 0 0-.33.84l-.18.5-.27.66a3.4 3.4 0 0 1-.27.54c-.08.16-.15.26-.2.3-.16.16-.3.36-.42.6l-.3.8-.24.87-.24.8c-.16.52-.4 1.16-.72 1.92l-1.1 3.1v.12c.02.02.03.05.03.1 0 .5-.1.96-.27 1.38-.16.4-.24.74-.24 1.02a7.19 7.19 0 0 1-.15 1.47l-.36 1.44-.33 1.4c-.1.48-.15.96-.15 1.44a3.44 3.44 0 0 0 .03.42c.02.16.12.24.3.24s.4-.08.63-.24a4.95 4.95 0 0 0 .75-.57 5.62 5.62 0 0 0 .69-.69l.45-.63a9.19 9.19 0 0 1 .84-1.32 7.4 7.4 0 0 0 .87-1.35 1.42 1.42 0 0 1 .27-.48l.36-.48.33-.48a1.71 1.71 0 0 0 .27-.54c.1-.12.2-.28.33-.48a6.65 6.65 0 0 0 .39-.63 6.57 6.57 0 0 0 .3-.69c.08-.22.13-.42.15-.6l.15-.15c.12-.1.24-.25.36-.45.14-.2.26-.43.36-.7a1.98 1.98 0 0 0 .18-.84c0-.06.06-.12.18-.18.12-.08.18-.14.18-.18a5.59 5.59 0 0 0 .12-.69l.06-.57.15-.6c.06-.2.17-.43.33-.7.04-.1.1-.32.2-.66a3.22 3.22 0 0 0 .18-1.08c0-.14-.02-.28-.06-.42-.02-.14-.03-.28-.03-.42a.56.56 0 0 1 .12-.36c.08-.12.12-.27.12-.45l-.06-.54c0-.18-.01-.34-.03-.48zm-7.17 31.68a2.89 2.89 0 0 0-.18-.96 3.87 3.87 0 0 0-.45-1.02 3.96 3.96 0 0 0-.72-.9c-.28-.28-.58-.5-.9-.66-.04 0-.1.01-.15.03-.06 0-.1.03-.1.1l.2 1.26a13 13 0 0 0 .33 1.53c.16.5.35.93.57 1.3.24.36.54.54.9.54.26 0 .4-.13.42-.4a5.32 5.32 0 0 0 .06-.81zm-2.94-1.17a.35.35 0 0 1-.09-.06c-.02-.04-.05-.06-.1-.06l-.06.06c0 .06.02.1.06.15a.47.47 0 0 1 .12.09.23.23 0 0 0 .03-.09.23.23 0 0 1 .03-.09zm-.57 2.97c0-.18-.04-.27-.12-.27-.06 0-.1.06-.1.18 0 .06.05.1.15.15l.06-.06zm-1.47-8.88c0 .04-.01.07-.03.1v.2c.02.04.05.06.1.06s.06-.02.06-.06v-.18c0-.08-.04-.12-.12-.12zm1.02 7.68c-.02.02-.03.04-.03.06v.03c.02.04.04.06.06.06l.03-.03.03-.06c0-.04-.03-.06-.1-.06zm11.28-26.7c0-.02-.02-.05-.06-.1-.06.06-.1.1-.1.15 0 .02.01.04.03.06l.06.06c.06-.02.1-.05.1-.1s-.01-.07-.03-.1zm12.55 25.53c-.16.58-.4 1-.7 1.3-.28.26-.67.46-1.17.6l-.87-.57c-.3-.22-.45-.5-.45-.87 0-.26-.07-.43-.2-.5s-.2-.23-.2-.45v-.48a4.63 4.63 0 0 0 .03-.51l-.15-.87a6.88 6.88 0 0 1-.06-.84c0-.12.01-.24.03-.36a2.77 2.77 0 0 0 .03-.39c-.02-.16-.05-.3-.1-.45l-.06-.42c0-.12.02-.24.06-.36.06-.14.1-.26.1-.36s-.02-.2-.06-.3a2.02 2.02 0 0 1-.03-.33 6.77 6.77 0 0 1 .09-1.05c.06-.38.1-.75.1-1.1 0-.1-.01-.2-.03-.27 0-.1-.05-.18-.15-.24-.04 0-.08.01-.12.03h-.12c0 .04-.08.16-.24.36l-.5.7-.54.75a3.88 3.88 0 0 0-.33.57l-.15.4c-.06.16-.13.32-.2.48l-.18.4-.06.15a.67.67 0 0 0-.36.3 2.42 2.42 0 0 0-.21.39c-.06.14-.1.28-.15.42-.04.12-.1.2-.15.27-.24.2-.47.5-.7.93s-.47.84-.75 1.26-.6.8-.96 1.1-.8.48-1.32.48c-.48 0-.96-.17-1.44-.5s-.75-.86-.8-1.56a4.21 4.21 0 0 0-.24-.99c-.12-.34-.18-.67-.18-1l.06-1.65.24-1.6c0-.02.02-.16.06-.42a11.39 11.39 0 0 0 .09-1.02l.1-1.4.06-1.6c0-.12-.02-.24-.06-.36a2.77 2.77 0 0 1-.03-.39c0-.1.04-.2.12-.27a.48.48 0 0 1 .3-.12 2.92 2.92 0 0 1 1.05.33c.34.16.5.42.5.78l-.33 3.5c-.12 1.12-.18 2.28-.18 3.48v.75l.06.8a4.08 4.08 0 0 0 .15.66c.08.18.18.27.3.27.18 0 .42-.2.72-.6.32-.4.66-.88 1.02-1.44l1.1-1.7.96-1.5c.16-.22.32-.38.48-.48.18-.12.3-.3.36-.57.08-.28.24-.54.48-.78l.66-.7c.12-.12.28-.32.48-.6l.66-.84a6.11 6.11 0 0 1 .72-.72c.24-.22.44-.33.6-.33a3.64 3.64 0 0 0 .45-.03c.18-.02.36-.03.54-.03.68 0 1.16.2 1.44.63.3.4.45.9.45 1.47s-.07 1.15-.2 1.7-.2 1.07-.2 1.53v.33c.02.1.03.2.03.33 0 .42-.04.83-.12 1.23s-.12.8-.12 1.2l.15 1.4c.06.48.1.93.1 1.35 0 .04-.01.08-.03.12v.1a1.79 1.79 0 0 0 .09.57c.06.18.14.35.24.5zm17.49-5.76l.12.27.15.3-.87.5c-.3.16-.57.35-.8.57-.1 0-.26.06-.48.18s-.44.3-.66.54c-.22.22-.42.48-.6.78a2.07 2.07 0 0 0-.24.99v.12c.02.02.03.05.03.1 0 .1-.02.2-.06.27l-.5.87c-.12.22-.18.5-.18.87v.42c.02.12.03.24.03.36a7.79 7.79 0 0 1-.45 2.64 1.42 1.42 0 0 0-.18.69c0 .26-.08.5-.24.72-.12.16-.18.36-.18.6.02.26-.03.44-.15.54s-.2.2-.27.33a3.56 3.56 0 0 0-.09.39l-.06.36c0 .1-.03.18-.1.24-.12.06-.2.13-.27.2a1.71 1.71 0 0 0-.09.3c0 .1-.01.2-.03.3a.88.88 0 0 1-.06.33l.06-.03c-.08.08-.16.2-.24.33a4.94 4.94 0 0 1-.27.42l-.33.5c0 .38-.04.6-.12.7-.08.1-.26.2-.54.3 0 .54-.14.97-.42 1.3a2.69 2.69 0 0 1-.99.72c-.36.18-.72.3-1.08.36l-.75.1c-.16 0-.38-.06-.66-.18-.28-.1-.56-.25-.84-.45-.26-.2-.5-.44-.72-.72-.2-.28-.3-.6-.3-.93 0-.46.03-.94.1-1.44l.12-1.4a2.33 2.33 0 0 1 .15-.78l.3-.84a9.41 9.41 0 0 0 .33-.9c.1-.3.17-.6.2-.9.02-.18.08-.37.18-.57l.3-.57c.12-.16.22-.3.3-.45.1-.12.15-.2.15-.27.06-.34.2-.65.4-.93l.63-.78 1-1.3 1.26-1.47c.16-.16.33-.27.5-.33.2-.06.35-.2.45-.42.12-.28.3-.52.57-.72l.78-.63a4.33 4.33 0 0 0 .69-.66c.2-.24.3-.53.3-.87 0-.1.02-.25.06-.45l.3-1.26a2.58 2.58 0 0 0 .06-.48c0-.1-.01-.2-.03-.3s-.03-.2-.03-.3c0-.22.02-.47.06-.75.06-.3.1-.6.12-.87 0-.02-.02-.04-.06-.06s-.08-.03-.12-.03c-.24.04-.45.18-.63.42s-.42.4-.72.48c-.02 0-.08.04-.18.12l-.3.24a1.31 1.31 0 0 0-.27.3.48.48 0 0 0-.12.3c0 .16-.07.3-.2.42-.12.12-.33.2-.63.2 0 .04-.03.14-.1.3s-.14.33-.24.5a1.58 1.58 0 0 1-.33.48c-.12.14-.25.2-.4.2-.06 0-.14.07-.24.2a2.92 2.92 0 0 0-.3.45 3.4 3.4 0 0 0-.27.54c-.08.18-.13.33-.15.45-.08.4-.3.7-.7.9-.36.2-.72.3-1.08.3a12.29 12.29 0 0 1-.81-.03 1.74 1.74 0 0 1-.84-.36c-.26-.22-.48-.56-.66-1.02s-.27-1.1-.27-1.95c0-.48.07-.92.2-1.32a3.14 3.14 0 0 0 .24-1.17c.2-.36.36-.7.48-1s.26-.6.42-.87c.18-.3.4-.6.7-.9.3-.32.72-.66 1.26-1.02a8.5 8.5 0 0 1 1.38-.84c.46-.24.93-.36 1.4-.36.32 0 .65.03 1 .1a2.98 2.98 0 0 1 .9.3c.26.12.47.27.63.45.18.18.27.4.27.63a.84.84 0 0 1-.12.42c-.08.12-.2.18-.36.18-.12 0-.25-.03-.4-.1-.12-.08-.26-.15-.42-.2a4.11 4.11 0 0 0-.42-.21c-.12-.08-.24-.12-.36-.12-.16 0-.33.03-.5.1-.12.06-.4.24-.87.54-.44.28-.92.65-1.44 1.1a8.3 8.3 0 0 0-1.35 1.62c-.4.62-.6 1.27-.6 1.95v.15c.02.06.03.12.03.18a2.08 2.08 0 0 1-.09.6 1.89 1.89 0 0 0-.09.6c0 .16.02.33.06.5.04.16.13.24.27.24.1 0 .25-.1.45-.27l.66-.63.72-.78a5.15 5.15 0 0 1 .72-.66c.2-.06.4-.15.57-.27a2.74 2.74 0 0 0 .48-.39c.16-.18.3-.4.4-.66.08-.16.18-.27.3-.33.24-.1.43-.24.57-.42.16-.2.3-.4.4-.63.06-.1.13-.18.2-.24l.27-.15.27-.18a.63.63 0 0 0 .21-.33c0-.14.12-.25.36-.33.24-.1.4-.23.45-.4.08-.24.27-.46.57-.66s.58-.3.84-.3c.62 0 1.03.1 1.23.3.22.2.33.54.33 1.02 0 .58-.1 1.16-.27 1.74-.16.56-.27 1.13-.33 1.7-.02.18-.1.38-.2.6s-.18.37-.18.45c0 .16.07.25.2.27l.4.03c.16 0 .37-.06.63-.18s.5-.18.7-.18c.26 0 .48.12.66.36zm-5.37 8.37a.46.46 0 0 0 .06-.18c0-.2-.1-.34-.27-.42-.16-.08-.24-.2-.24-.33 0-.16.04-.34.12-.54.1-.22.17-.4.2-.57-.02-.04-.03-.1-.03-.2 0-.14.02-.27.06-.4.06-.12.1-.25.15-.4 0-.14-.07-.2-.2-.2-.04 0-.07.01-.1.03a5.17 5.17 0 0 0-.81.81l-.66.87-.63.8c-.2.28-.44.54-.72.78-.26.22-.43.47-.5.75-.08.3-.23.6-.45.87-.16.2-.34.5-.54.93l-.57 1.35-.48 1.44c-.12.5-.18.93-.18 1.3-.04.22-.1.4-.18.54a1.19 1.19 0 0 0-.12.54v.36a3.86 3.86 0 0 0 .09.51c.04.18.1.33.18.45.08.14.18.2.3.2.14 0 .3-.03.45-.1a1.04 1.04 0 0 0 .42-.21l.48-.5a8.96 8.96 0 0 0 .66-.6c.22-.22.4-.44.57-.66s.24-.44.24-.66c0-.08.04-.2.12-.33s.16-.3.24-.48l.27-.54a2.01 2.01 0 0 0 .21-.54c0-.02.04-.08.12-.18l.3-.33a2.16 2.16 0 0 0 .27-.33c.08-.1.12-.18.12-.24 0-.08-.06-.15-.18-.2s-.22-.12-.3-.18l.15-.4a8.81 8.81 0 0 0 .36-.84 8.44 8.44 0 0 0 .36-.9c.1-.28.15-.47.15-.57 0-.08-.01-.15-.03-.2v-.12c0-.06.01-.1.03-.15a.47.47 0 0 1 .09-.12c.06 0 .1.03.15.1.06.06.1.1.15.1.02 0 .06-.03.12-.1zm8.617-11.85c.16-.28.3-.56.42-.84.14-.28.26-.57.36-.87.06-.24.2-.48.4-.72.22-.24.44-.45.66-.63a4.21 4.21 0 0 1 .57-.45c.18-.12.27-.17.27-.15.16-.22.35-.33.57-.33a3.85 3.85 0 0 0 .69-.06c.34 0 .68.1 1.02.3s.7.3 1.1.33l.45.27c.2.1.4.23.57.4a2.1 2.1 0 0 1 .45.57c.14.22.2.48.2.78 0 .28-.08.6-.24.93-.14.32-.34.65-.6 1-.24.32-.52.63-.84.93-.3.3-.6.56-.93.78-.18.12-.35.26-.5.42l-.48.48c-.16.14-.33.27-.5.4a1.6 1.6 0 0 1-.66.18c-.52.06-.85.28-1 .66-.12.36-.18 1.04-.18 2.04 0 .52.06 1 .18 1.4.12.4.4.6.8.6.08 0 .28-.08.6-.24l1.05-.63 1.1-.8c.36-.3.63-.56.8-.78a1.42 1.42 0 0 0 .48-.27l.42-.4a2.02 2.02 0 0 1 .42-.33.76.76 0 0 1 .45-.15.49.49 0 0 1 .36.15c.12.1.18.2.18.33 0 .08-.06.22-.18.42-.12.18-.27.37-.45.57a4.81 4.81 0 0 1-.57.54c-.18.16-.33.26-.45.3-.2.06-.35.17-.45.33s-.25.27-.45.33c-.06.04-.16.17-.3.4a1.56 1.56 0 0 1-.48.54c-.1.08-.2.2-.33.36s-.26.32-.42.48c-.14.16-.32.3-.54.42-.2.12-.45.18-.75.18a3.64 3.64 0 0 1-.45-.03c-.16-.04-.32-.06-.48-.06-.06 0-.12.01-.18.03h-.18c-.18 0-.37-.04-.57-.12a3.1 3.1 0 0 1-.57-.3c-.18-.14-.33-.28-.45-.42-.12-.16-.18-.3-.18-.45 0-.08-.03-.14-.1-.18-.04-.04-.1-.07-.15-.1-.04-.04-.1-.08-.15-.12-.04-.04-.06-.12-.06-.24 0-.22-.1-.43-.27-.63a1.15 1.15 0 0 1-.27-.75c0-.06.05-.26.15-.6.12-.34.18-.65.18-.93 0-.14-.08-.34-.24-.6-.14-.26-.2-.45-.2-.57l.03-.66c.04-.22.06-.44.06-.66 0-.06-.01-.12-.03-.18v-.18l.42-.87c.16-.3.24-.6.24-.87 0-.04-.01-.07-.03-.1v-.1c0-.1.03-.18.1-.24.08-.08.12-.15.12-.2l-.03-.03zm2.2 2.04l.48-.27 1.05-.7a11.44 11.44 0 0 0 1.02-.84c.32-.3.48-.57.48-.8a2.31 2.31 0 0 0-.03-.21 3.15 3.15 0 0 0-.09-.42c-.02-.16-.06-.3-.12-.4-.06-.12-.13-.18-.2-.18-.14 0-.3.08-.48.24-.16.14-.33.32-.5.54l-.5.6c-.14.2-.27.35-.4.45l-.12.2a4.59 4.59 0 0 0-.27.48l-.3.57c-.08.2-.12.35-.12.45 0 .06.04.15.12.27zm-2.13-2c-.04 0-.06-.01-.06-.03l.06.03zm25.75-1.38c.2.16.3.34.3.54s-.1.38-.33.54c-.2.16-.5.24-.87.24h-.27l-.27-.06c-1.12.34-2.15.8-3.1 1.35-.32.2-.5.46-.5.78l-.06.8c-.04.34-.12.63-.24.87s-.18.53-.18.87c0 .24-.1.43-.27.57-.16.14-.24.34-.24.6v.15c.02.04.03.08.03.12 0 .28-.06.52-.18.72-.1.18-.24.4-.42.66-.04.14-.17.38-.4.72a9.43 9.43 0 0 1-.72.99 6.38 6.38 0 0 1-.9.9c-.3.26-.57.4-.8.4-.12 0-.3.1-.54.27a3.71 3.71 0 0 1-.69.45 10.94 10.94 0 0 1-1.29-.36c-.38-.14-.73-.36-1.05-.66-.24-.28-.47-.6-.7-.96a10.1 10.1 0 0 1-.57-1.14l-.36-1.17c-.08-.38-.12-.73-.12-1.05 0-.36.04-.7.12-1.02.08-.34.12-.67.12-1 0-.12.03-.28.1-.48l.24-.6.2-.66c.08-.22.12-.4.12-.57 0-.14-.05-.32-.15-.54l-.3-.72-.3-.78c-.08-.26-.12-.5-.12-.75 0-.78.07-1.4.2-1.83.16-.44.38-.77.66-1a2.14 2.14 0 0 1 1.02-.45 8.93 8.93 0 0 1 1.32-.09h1.38c.18 0 .5.08.93.24.44.14.9.36 1.4.66s.96.68 1.38 1.14.7 1 .84 1.62a2.91 2.91 0 0 0 .21.63c.12.22.3.33.5.33.08 0 .14-.01.18-.03l2.28-.8c.74-.26 1.53-.4 2.37-.45zm-6.66 4.4a4.05 4.05 0 0 1-.09-.48c0-.18-.08-.27-.24-.27a1.64 1.64 0 0 0-.36.06l-1.5.54c-.5.18-1.03.27-1.6.27-.24 0-.42.18-.54.54-.12.34-.2.73-.27 1.17l-.12 1.23v.75c0 .4.1.8.3 1.2.2.38.47.57.8.57.38 0 .74-.2 1.08-.57.36-.4.68-.84.96-1.32a13.62 13.62 0 0 0 .75-1.35c.22-.42.38-.67.48-.75.12-.2.2-.46.2-.78l.12-.8zm-6.33-4.47c.02.12.04.3.06.57.04.26.14.4.3.4.08 0 .15-.03.2-.1a1.96 1.96 0 0 1 .18-.21 1.96 1.96 0 0 1 .18-.21c.08-.08.17-.12.27-.12l.36.1c.26.06.54.15.84.27a4.23 4.23 0 0 1 .84.45c.26.16.4.34.4.54 0 .12-.06.3-.18.5-.12.2-.2.37-.27.5 0 .14.04.23.12.27.1.04.17.06.2.06.2 0 .44-.02.72-.06a5.15 5.15 0 0 0 .84-.24c.28-.1.52-.22.72-.36.2-.16.3-.34.3-.54 0-.4-.13-.84-.4-1.32-.24-.48-.56-.92-.96-1.32-.4-.42-.84-.76-1.32-1.02-.48-.28-.94-.42-1.38-.42-.64 0-1.14.24-1.5.72s-.54 1-.54 1.53z" fill="#3a3c51"/><path stroke="#3a3c51" stroke-dasharray="2 2" d="M1 46.5h212"/></svg>