<svg width="318" height="66" viewBox="0 0 318 66" fill="none" xmlns="http://www.w3.org/2000/svg">
<path d="M105.222 40.9116L101.789 30.3831H103.078L105.69 38.509L108.368 30.3831H109.54L112.211 38.4896L114.831 30.3831H116.08L112.657 40.9116H111.703L108.931 32.4341L106.185 40.9116H105.222ZM150.955 39.3262L151.717 38.1965C152.462 38.7729 153.236 39.2122 154.04 39.5188C154.844 39.8216 155.641 39.9745 156.429 39.9745C157.401 39.9745 158.192 39.7692 158.797 39.3554C159.405 38.9423 159.708 38.4116 159.708 37.764C159.708 37.249 159.49 36.8261 159.054 36.4941C158.618 36.162 158.016 35.9633 157.248 35.8981C157.063 35.8786 156.796 35.8591 156.448 35.8426C154.717 35.7189 153.539 35.5173 152.908 35.231C152.42 34.9933 152.046 34.6905 151.792 34.3194C151.538 33.9446 151.411 33.5285 151.411 33.0622C151.411 32.2159 151.788 31.5195 152.546 30.9693C153.302 30.4221 154.284 30.1484 155.492 30.1484C156.37 30.1484 157.236 30.2924 158.091 30.5817C158.947 30.8718 159.761 31.3014 160.528 31.8674L159.766 32.9618C159.116 32.4371 158.436 32.0435 157.72 31.7767C157.004 31.5128 156.269 31.3793 155.514 31.3793C154.72 31.3793 154.066 31.5352 153.549 31.8448C153.035 32.1537 152.778 32.5413 152.778 33.0076C152.778 33.1897 152.82 33.3591 152.902 33.512C152.982 33.6649 153.113 33.8112 153.282 33.9446C153.714 34.2669 154.649 34.4753 156.087 34.5638C156.747 34.6027 157.262 34.6417 157.623 34.6867C158.69 34.8074 159.536 35.1492 160.161 35.716C160.782 36.2827 161.094 36.9761 161.094 37.8029C161.094 38.7857 160.668 39.5968 159.812 40.2317C158.957 40.8659 157.834 41.1852 156.448 41.1852C155.4 41.1852 154.424 41.0323 153.526 40.7294C152.625 40.4236 151.769 39.9581 150.955 39.3262ZM192.996 36.8486H197.63L195.303 32.1867L192.996 36.8486ZM189.602 40.9116L194.76 30.3831H195.847L201.062 40.9116H199.641L198.212 38.0795H192.397L191.005 40.9116H189.602ZM230.57 40.9116V30.3831H231.877V39.701H238.749V40.9116H230.57ZM272.506 39.9543C273.687 39.9543 274.666 39.551 275.444 38.7437C276.219 37.9363 276.606 36.9108 276.606 35.6702C276.606 34.4266 276.219 33.3973 275.447 32.5907C274.676 31.7834 273.693 31.3793 272.506 31.3793C271.325 31.3793 270.345 31.7864 269.568 32.5967C268.793 33.4078 268.406 34.4333 268.406 35.6702C268.406 36.9108 268.793 37.9363 269.568 38.7437C270.345 39.551 271.325 39.9543 272.506 39.9543ZM272.503 41.1852C270.924 41.1852 269.623 40.6642 268.598 39.626C267.573 38.587 267.059 37.2692 267.059 35.6702C267.059 34.0682 267.573 32.7467 268.605 31.7085C269.633 30.6695 270.931 30.1484 272.503 30.1484C274.078 30.1484 275.382 30.6695 276.42 31.7145C277.455 32.7564 277.972 34.075 277.972 35.6702C277.972 37.2692 277.455 38.587 276.423 39.626C275.392 40.6642 274.084 41.1852 272.503 41.1852ZM308.182 40.9116V30.3831H308.868L315.698 38.2519V30.3831H317.006V40.9116H316.34L309.49 33.0428V40.9116H308.182Z" fill="#A3A3A3"/>
<path fill-rule="evenodd" clip-rule="evenodd" d="M24.2162 54.3297C24.3743 54.2919 24.5061 54.2306 24.5707 54.4084C24.4206 54.4928 24.3041 54.45 24.2162 54.3297ZM41.9754 53.6209C42.1238 53.6608 42.1052 53.7253 42.2347 53.9132L42.7304 54.5196C42.7588 54.5518 42.7532 54.5464 42.7847 54.5836C42.898 54.7181 42.7069 54.4928 42.8204 54.6267C42.8278 54.6355 42.8493 54.6606 42.8567 54.6691C42.9222 54.7452 42.949 54.7665 42.9994 54.8417C42.7381 55.0596 42.2609 54.2418 42.1014 54.007C42.0203 53.8879 41.8923 53.7749 41.9754 53.6209ZM25.6339 53.1092L25.6121 53.1939L25.6339 53.1092ZM25.6732 53.0305L25.6339 53.1092L25.6732 53.0305ZM40.8335 51.9676C41.1316 52.1672 41.4682 52.7194 41.6664 53.0671C41.7236 53.1674 41.7274 53.1367 41.7 53.2667C41.5307 53.2216 41.3284 52.8137 41.2396 52.6639C41.1647 52.5371 41.1048 52.4324 41.0308 52.3215C40.9538 52.2062 40.8689 52.1192 40.8335 51.9676ZM40.8335 51.9676L40.7942 51.9283L40.8335 51.9676ZM40.7547 51.8496L40.7942 51.9283L40.7547 51.8496ZM40.6367 51.6526L40.676 51.7313L40.6367 51.6526ZM40.5972 51.5738L40.6367 51.6526L40.5972 51.5738ZM25.6732 53.0305C25.6888 52.8414 26.1026 51.7529 26.2002 51.4709C26.2934 51.2022 26.3689 50.9739 26.4665 50.7135C26.5202 50.5699 26.6762 50.0741 26.7759 49.9597C26.755 50.208 25.946 52.8308 25.6732 53.0305ZM26.7759 49.9597L26.7974 49.875L26.7759 49.9597ZM26.8151 49.763L26.8269 49.7748C26.826 49.7739 26.8113 49.7668 26.8151 49.763ZM18.5459 44.1331L18.5851 44.2118L18.5459 44.1331ZM18.5064 44.0543L18.5459 44.1331L18.5064 44.0543ZM35.9901 43.1489C36.017 43.1798 36.0099 43.166 36.0385 43.2188L36.9085 45.1833C37.6606 46.6783 38.3823 48.447 39.1267 49.934C39.6856 51.0497 40.1407 51.7213 40.7568 52.7533C40.8199 52.8591 40.8889 52.9494 40.9594 53.0624C41.0986 53.2847 41.2242 53.4708 41.3455 53.7C41.0143 53.8752 40.9585 53.8404 40.7612 53.536C40.555 53.2181 40.0224 51.9599 39.7835 51.4821C39.5523 51.0197 39.3273 50.6115 39.1011 50.1567C39.0435 50.0411 38.9857 49.9429 38.9247 49.8211C38.8533 49.6786 38.8073 49.6037 38.7507 49.4834L38.1036 48.1223C37.5205 46.8644 37.0858 45.987 36.547 44.6395C36.4434 44.3796 36.0069 43.3518 35.9901 43.1489ZM35.9901 43.1489L35.945 43.0722L35.9901 43.1489ZM35.9114 42.9914C35.9114 42.8908 35.9736 42.9852 35.9347 42.9914C35.9344 42.9914 35.9114 43.1014 35.9114 42.9914ZM35.8719 42.8734L35.8836 42.8849C35.8831 42.8843 35.868 42.8772 35.8719 42.8734ZM35.5569 37.3617C35.5569 37.2609 35.6194 37.3552 35.5805 37.3617C35.5799 37.3617 35.5569 37.4714 35.5569 37.3617ZM40.5972 51.5738C40.4772 51.486 40.1121 50.8061 40.0083 50.6274L37.9986 46.4556C37.8261 46.1141 37.6771 45.7737 37.4996 45.4192C36.8549 44.131 36.18 42.4708 35.6362 41.1012C35.3725 40.4376 34.8104 38.9874 34.6034 38.2757C34.5473 38.0837 34.478 37.885 34.4099 37.6818L33.6817 35.3391C33.5266 34.8708 33.5876 34.9675 33.8604 34.5236C33.9392 34.3953 33.8988 34.3735 34.0607 34.3301C34.0807 34.5702 34.6839 36.2224 34.803 36.5407L35.5819 38.7538C36.0084 40.0064 36.6227 42.1036 37.0705 43.2108C37.2176 43.5753 37.3309 43.9021 37.4754 44.2622L37.6883 44.7975C37.757 44.986 37.8264 45.1376 37.9033 45.3305C38.0549 45.7109 38.172 46.0241 38.3301 46.3999C38.4094 46.5889 38.4814 46.7376 38.5557 46.9222C39.1311 48.3517 39.7918 49.5692 40.3781 51.045L40.5972 51.5738ZM29.9261 41.141L30.551 39.1284C30.6068 38.9558 30.6439 38.7886 30.6964 38.6043C30.7528 38.4079 30.7896 38.2772 30.8457 38.084C30.9498 37.7248 31.0385 37.3924 31.1291 37.0291C31.3388 36.1844 31.7095 34.7077 31.9788 33.9022C32.0428 33.7099 32.2227 33.0584 32.3675 32.9522L32.7857 34.0299C33.1355 35.0695 33.1255 34.7457 32.42 36.1543C32.2463 36.5009 32.1133 36.8235 31.9475 37.178L30.976 39.1989C30.8822 39.3867 30.7994 39.518 30.7129 39.684L29.9261 41.141ZM34.3757 33.8577C34.3757 33.7772 34.4972 33.7202 34.5727 33.7002L35.5569 37.2827C35.4881 37.2037 35.5038 37.2216 35.4616 37.1025C35.4321 37.019 35.4203 36.9718 35.3944 36.8943L34.3757 33.8577ZM32.643 32.1648L32.7946 32.04C33.0258 32.1087 33.2971 32.5674 33.4051 32.7809L33.8245 33.7002L33.5437 34.1284C33.4814 34.2169 33.5115 34.2193 33.3912 34.2514C33.3865 34.0326 33.0541 32.6128 32.8249 32.3373C32.7217 32.2137 32.7279 32.2807 32.643 32.1648ZM56.3878 31.1806L55.0756 33.9238C55.0025 34.0697 54.9518 34.1703 54.8783 34.3169L53.1975 37.8333C52.7885 38.6633 52.3357 39.8005 51.9249 40.6555C51.7981 40.9195 51.6872 41.1778 51.5724 41.4448C50.9 43.0061 49.666 45.5346 48.9322 46.9939L48.1979 48.5824C47.698 49.6951 47.2721 50.6675 46.7271 51.7576C46.5887 52.0342 46.4693 52.2324 46.3333 52.5055C46.2572 52.6586 46.2124 52.7465 46.1269 52.8898C45.6854 53.6268 45.6568 53.8551 45.025 54.7016C44.6634 55.1859 44.4348 55.4601 44.0219 55.1578C43.963 55.1151 43.7441 54.9299 43.7082 54.8809C44.4012 53.8463 44.5658 53.0479 45.1784 51.8234C45.6915 50.797 46.1743 49.7936 46.7138 48.7918C47.0706 48.1291 47.6086 47.2437 47.9212 46.6131L50.7443 41.4828C51.1596 40.7346 51.5893 40.0556 51.9907 39.3039C52.062 39.17 52.1119 39.0912 52.1874 38.9493L54.2091 35.3014C54.2861 35.1586 54.3312 35.0527 54.4053 34.907C54.9061 33.9205 55.4484 32.98 55.9808 31.9156C56.0722 31.7327 56.2604 31.2741 56.3878 31.1806ZM56.3878 31.1806C56.4028 30.9978 56.3456 31.1119 56.4665 31.0231C56.4412 31.1316 56.4474 31.1119 56.3878 31.1806ZM56.5058 30.9444L56.4665 31.0231L56.5058 30.9444ZM56.5453 30.8656L56.5058 30.9444L56.5453 30.8656ZM56.5845 30.7869L56.5453 30.8656L56.5845 30.7869ZM56.624 30.7081L56.5845 30.7869L56.624 30.7081ZM56.6632 30.6294L56.624 30.7081L56.6632 30.6294ZM56.7028 30.5506L56.6632 30.6294L56.7028 30.5506ZM56.742 30.4719L56.7028 30.5506L56.742 30.4719ZM56.7815 30.3931L56.742 30.4719L56.7815 30.3931ZM56.821 30.3144L56.7815 30.3931L56.821 30.3144ZM56.8602 30.1964C56.8641 30.1926 56.8721 30.2026 56.8721 30.2082C56.8712 30.2073 56.8564 30.2003 56.8602 30.1964ZM56.8998 30.1177L56.9113 30.1295C56.9107 30.1286 56.8957 30.1215 56.8998 30.1177ZM56.939 30.0389L56.9508 30.0507C56.9499 30.0498 56.9352 30.0427 56.939 30.0389ZM56.9785 29.9602C56.9824 29.9563 56.99 29.9664 56.99 29.972C56.9894 29.9711 56.9744 29.964 56.9785 29.9602ZM57.0178 29.8814L57.0295 29.8932C57.0287 29.8924 57.0139 29.8853 57.0178 29.8814ZM57.0965 29.7239C57.1003 29.7201 57.1083 29.7301 57.1083 29.7357C57.1074 29.7349 57.0927 29.7278 57.0965 29.7239ZM43.8264 28.464L43.5902 28.4248L44.7319 27.5981L44.8908 27.9125C44.7472 27.9883 44.7752 27.983 44.659 28.0762C44.4817 28.2186 44.0632 28.464 43.8264 28.464ZM45.8738 26.9681C45.7266 27.1879 45.4659 27.4099 45.2439 27.5586C45.204 27.4096 45.1669 27.4595 45.1256 27.2831C45.3595 26.9342 45.6314 26.9681 45.8738 26.9681ZM59.4592 24.9998L59.471 25.0112C59.4701 25.0107 59.4553 25.0036 59.4592 24.9998ZM59.5774 24.8423L59.5379 24.921L59.5774 24.8423ZM59.6167 24.7635L59.5774 24.8423L59.6167 24.7635ZM18.5064 44.0543C18.3642 43.9502 16.8509 41.2501 16.7743 41.1015L14.3249 36.9757C14.0694 36.5808 13.8571 36.2092 13.6111 35.7992C13.4867 35.5913 13.374 35.419 13.2572 35.2085L12.2329 33.4371C12.0023 33.0219 11.8106 32.6095 11.5684 32.212L7.75646 24.724C7.90009 24.8293 8.67754 26.0881 8.88251 26.3933C9.01435 26.59 9.13614 26.7794 9.25087 26.9699C9.49036 27.3672 9.70477 27.7547 9.94927 28.1617C10.2675 28.6911 11.0715 29.9917 11.3402 30.5108C11.4517 30.7261 11.5493 30.9028 11.6776 31.1184C11.8038 31.3307 11.8917 31.5171 12.0167 31.7242L13.2071 33.8412C13.2781 33.9597 13.3109 34.0178 13.3743 34.1464C13.4816 34.3647 13.5822 34.5213 13.6896 34.7369C14.0762 35.5128 14.6068 36.3719 15.015 37.191C15.0743 37.3098 15.1097 37.3898 15.1722 37.5063L15.6635 38.432C16.1611 39.249 17.5054 41.9739 17.9026 42.7684L18.5064 44.0543ZM59.6562 24.6848L59.6167 24.7635L59.6562 24.6848ZM59.6954 24.606L59.6562 24.6848L59.6954 24.606ZM59.735 24.5273L59.6954 24.606L59.735 24.5273ZM59.7742 24.4485L59.735 24.5273L59.7742 24.4485ZM59.8137 24.3698L59.7742 24.4485L59.8137 24.3698ZM17.5614 24.409L17.4827 24.3698L17.5614 24.409ZM59.8529 24.291L59.8137 24.3698L59.8529 24.291ZM17.4827 24.3698L17.4431 24.3303L17.4827 24.3698ZM59.8924 24.2123L59.8529 24.291L59.8924 24.2123ZM24.6887 28.0706C24.4118 28.006 24.0095 27.6137 23.734 27.3713C23.5311 27.1926 23.4916 27.0896 23.1925 26.8894C23.278 26.7723 23.5396 26.6104 23.6759 26.467C23.7723 26.3656 23.7942 26.3122 23.8912 26.2102C24.3377 25.7418 24.873 24.8953 25.2231 24.3132C25.3656 24.0763 26.1949 22.6379 26.3031 22.5586L25.9985 24.0256C25.8363 24.8476 25.2508 27.5819 24.6887 28.0706ZM60.2862 22.5194C60.2065 22.8609 56.0194 31.1735 55.201 32.6712L53.737 35.4199C52.9793 36.7728 52.2452 38.2315 51.4185 39.5979L49.2286 43.5107C49.0299 43.8372 48.8753 44.167 48.6771 44.4949L47.0426 47.4277C46.6421 48.1491 46.0546 49.1643 45.6901 49.8942C45.5957 50.0833 45.5267 50.2331 45.4273 50.4189C45.3338 50.5938 45.2489 50.7357 45.1648 50.9044C45.0781 51.0787 44.9999 51.2488 44.9017 51.4287L44.4036 52.466C44.2122 52.8963 43.65 54.3385 43.3932 54.5267C43.202 54.3987 42.946 54.0852 42.8021 53.897C42.1167 53.0016 42.1633 53.3113 42.8293 52.1911L43.4191 51.2456C43.6034 50.9052 43.7816 50.6436 43.9574 50.2876C44.0509 50.0986 44.134 49.9774 44.2204 49.8025C44.7799 48.6679 45.5603 47.4413 46.1101 46.3769C46.19 46.2218 46.2979 46.0519 46.3838 45.9026L47.7867 43.4866C48.1017 42.9539 48.5718 42.0788 48.906 41.5742L56.939 28.3068C57.0396 28.1549 57.1192 28.0016 57.2224 27.842C57.3286 27.6777 57.4062 27.5556 57.5038 27.3751L59.1816 24.486C59.3731 24.1551 59.53 23.8348 59.7223 23.4909C59.8193 23.3175 60.1806 22.5967 60.2862 22.5194ZM60.3254 22.4406L60.2862 22.5194L60.3254 22.4406ZM60.3649 22.3619L60.3254 22.4406L60.3649 22.3619ZM60.4041 22.2831L60.3649 22.3619L60.4041 22.2831ZM60.4436 22.2044L60.4041 22.2831L60.4436 22.2044ZM60.4829 22.0864C60.487 22.0823 60.4947 22.0926 60.4947 22.0979L60.4829 22.0864ZM60.5224 22.0077L60.5342 22.0192C60.5333 22.0186 60.5186 22.0115 60.5224 22.0077ZM52.5286 20.7873L52.4894 20.8265L52.5286 20.7873ZM52.5682 20.7478L52.5286 20.7873L52.5682 20.7478ZM52.6074 20.7085L52.5682 20.7478L52.6074 20.7085ZM52.7652 20.5903L52.7256 20.6298L52.7652 20.5903ZM52.8044 20.551L52.7652 20.5903L52.8044 20.551ZM52.8439 20.5115L52.8044 20.551L52.8439 20.5115ZM52.8831 20.4723L52.8439 20.5115L52.8831 20.4723ZM52.8831 20.4723C52.9421 20.3874 52.889 20.4204 53.0014 20.3935C52.9424 20.4782 52.9955 20.4452 52.8831 20.4723ZM53.0406 20.354L53.0014 20.3935L53.0406 20.354ZM53.0801 20.3148L53.0406 20.354L53.0801 20.3148ZM53.1194 20.2753L53.0801 20.3148L53.1194 20.2753ZM53.1194 20.2753C53.1884 20.172 53.1394 20.1939 53.2768 20.1573C53.2078 20.2602 53.2571 20.2387 53.1194 20.2753ZM53.3164 20.1178L53.2768 20.1573L53.3164 20.1178ZM53.3556 20.0785L53.3164 20.1178L53.3556 20.0785ZM53.3556 20.0785C53.4246 19.9753 53.3757 19.9972 53.5131 19.9603C53.4441 20.0635 53.4933 20.0417 53.3556 20.0785ZM53.5526 19.9211L53.5131 19.9603L53.5526 19.9211ZM53.5919 19.8815L53.5526 19.9211L53.5919 19.8815ZM53.5919 19.8815C53.6591 19.7813 53.6594 19.7586 53.7889 19.7241C53.7216 19.8246 53.7213 19.847 53.5919 19.8815ZM27.4059 19.6453L27.3841 19.73L27.4059 19.6453ZM5.23628 19.4486L5.28141 19.5253L5.23628 19.4486ZM53.7889 19.7241C53.8585 19.6205 53.8891 19.6011 53.985 19.5264C54.0835 19.4498 54.0985 19.4029 54.2218 19.3698C54.1525 19.4736 54.1218 19.4928 54.026 19.5674C53.9275 19.6441 53.9124 19.6913 53.7889 19.7241ZM39.5735 19.1731C39.6546 19.2324 39.8216 19.5256 39.8965 19.6373L40.5264 20.6218C41.4325 21.9631 42.3473 23.7867 43.2672 25.1649C43.4035 25.3696 44.4369 27.0097 44.4564 27.2436C44.3455 27.2734 44.2626 27.3586 44.1694 27.4294C43.9559 27.5913 43.5182 27.9352 43.2749 27.9918C43.0785 27.8476 42.6346 26.8003 42.4739 26.47C42.3736 26.2638 42.3423 26.119 42.2665 25.8898C41.9769 25.0145 41.8669 24.6883 41.526 23.8743C41.4794 23.7628 41.4481 23.7171 41.4015 23.605C41.2464 23.2317 41.0951 22.9078 40.9255 22.5456C40.571 21.7874 40.164 20.5979 39.7838 19.75C39.7242 19.6173 39.5847 19.3091 39.5735 19.1731ZM39.5735 19.1731L39.5281 19.0961L39.5735 19.1731ZM17.4431 24.3303C17.2736 24.2907 17.0536 24.1037 16.8996 24.0076L13.0496 21.5579C11.7522 20.7598 10.5073 19.9629 9.31487 19.0321C9.17832 18.9254 8.89843 18.7393 8.81968 18.6219L14.8445 22.4403L16.9371 23.9309C17.0538 24.0185 17.3765 24.2391 17.4431 24.3303ZM8.81968 18.6219L8.74094 18.5824L8.81968 18.6219ZM8.74094 18.5824L8.70142 18.5432L8.74094 18.5824ZM10.0009 17.9527L10.0127 17.9642C10.0118 17.9636 9.99705 17.9565 10.0009 17.9527ZM9.88291 17.8737L9.89471 17.8855C9.89382 17.8849 9.87878 17.8778 9.88291 17.8737ZM9.68589 17.7557L9.69769 17.7675C9.6968 17.7666 9.68206 17.7595 9.68589 17.7557ZM8.22894 17.7557C8.70673 17.8669 10.5073 18.9596 11.052 19.2639C11.9268 19.7526 15.0648 21.6682 15.5361 22.0245C16.0939 22.446 16.6557 22.8078 17.2385 23.1965C17.5381 23.3962 17.8201 23.5841 18.1126 23.779C19.0836 24.4264 19.684 24.8187 20.5641 25.6984C20.8829 26.0173 21.6949 26.9681 22.1685 27.0074C22.0544 27.1778 21.8975 27.2153 21.6598 27.1233C21.5433 27.0781 21.3044 26.9215 21.1949 26.8392C20.9095 26.6245 20.6508 26.426 20.3866 26.191C20.1211 25.9547 19.8583 25.7624 19.5991 25.5215C19.469 25.4006 19.3277 25.3018 19.1882 25.1844L17.961 24.2067C17.6738 23.9914 17.4207 23.7873 17.1285 23.582C16.9878 23.4832 16.8745 23.3906 16.7188 23.2833C16.6218 23.2163 16.6109 23.2001 16.5144 23.1331C16.4215 23.0688 16.3702 23.0417 16.2785 22.9751L11.4319 19.7503C11.0886 19.5645 8.28999 17.8391 8.22894 17.7557ZM9.60715 17.7165L9.61894 17.7279C9.61806 17.7274 9.60332 17.7203 9.60715 17.7165ZM8.22894 17.7557L8.14429 17.7341L8.22894 17.7557ZM9.48918 17.6377L9.50068 17.6492C9.50009 17.6486 9.48505 17.6415 9.48918 17.6377ZM9.41013 17.5982L9.42194 17.61C9.42135 17.6091 9.4063 17.602 9.41013 17.5982ZM9.29216 17.5195L9.30397 17.5312C9.30308 17.5303 9.28833 17.5233 9.29216 17.5195ZM9.21342 17.4802L9.22521 17.4917C9.22433 17.4911 9.20958 17.4841 9.21342 17.4802ZM9.09516 17.4015L9.10695 17.413C9.10636 17.4124 9.09132 17.4053 9.09516 17.4015ZM9.01641 17.362L9.02821 17.3737C9.02762 17.3729 9.01258 17.3658 9.01641 17.362ZM8.93765 17.3227L8.85891 17.2832L8.93765 17.3227ZM11.0641 27.0469C11.0579 27.0398 11.0494 27.0189 11.047 27.0248C11.0446 27.0307 11.0334 27.0067 11.0302 27.002L9.75166 24.6585C9.53754 24.2294 9.34879 23.851 9.12257 23.4369L6.64104 18.4774C6.47411 18.1677 6.09187 17.5109 6.06327 17.1652C6.32752 17.2266 6.97165 17.712 7.19993 17.879C7.44737 18.06 7.43942 18.1226 7.57243 18.4119C8.11953 19.6025 8.46105 20.4617 8.96036 21.7095L10.2542 25.0219C10.3731 25.3206 11.0502 26.8788 11.0641 27.0469ZM5.23628 19.4486L5.20208 19.404C4.83813 18.8507 4.40931 17.6153 4.40931 17.0077C4.41491 17.0157 4.42169 17.0189 4.42375 17.0325C4.42375 17.0337 5.21504 19.1938 5.23628 19.4486ZM8.74094 17.2044L8.66219 17.1652L8.74094 17.2044ZM8.66219 17.1652L8.58345 17.1257L8.66219 17.1652ZM8.58345 17.1257C8.47108 17.0989 8.52417 17.1316 8.46519 17.047C8.57756 17.0738 8.52446 17.0411 8.58345 17.1257ZM8.46519 17.047L8.38643 17.0077L8.46519 17.047ZM26.1064 50.3142C26.0911 50.4968 25.4458 51.8319 25.319 52.0858C25.1155 52.4919 24.6598 53.4425 24.3345 53.6605C23.4329 52.8771 23.1058 52.0846 22.5154 51.109C22.4549 51.009 22.4192 50.9235 22.3638 50.8277C22.3024 50.7215 22.2593 50.6551 22.1948 50.5242L20.3966 47.0464C19.84 45.9339 19.2959 44.6489 18.7034 43.4638C18.5064 43.0701 18.3097 42.6764 18.1126 42.2827C17.7189 41.4955 17.3228 40.7086 16.9317 39.9203L14.6602 35.6166C14.5935 35.4975 14.5493 35.4353 14.4897 35.3146C14.3891 35.1111 14.2933 34.9628 14.188 34.7501L12.6166 31.9117C12.1512 31.1275 11.4741 29.8537 11.009 29.1494C10.8821 28.9577 10.7819 28.7743 10.6683 28.5843L6.91709 22.6498C6.32546 21.652 6.1137 20.518 5.74298 19.4144C5.67219 19.2044 5.61291 18.9835 5.53652 18.7549L4.88179 16.732C5.67515 16.732 5.4861 17.0296 5.71378 17.6327C5.78339 17.8164 5.90076 18.0214 5.9975 18.2149L7.05513 20.1891C7.09878 20.2797 7.14301 20.3634 7.19404 20.4832L7.75646 21.6532C8.04992 22.2339 8.26257 22.7707 8.62091 23.3874L12.5626 30.706C13.2363 31.8318 13.471 32.2143 14.1093 33.4902C14.3128 33.8969 14.4983 34.2287 14.7 34.6319C14.948 35.1279 15.3014 35.8794 15.5848 36.3457C15.6975 36.5306 15.7868 36.707 15.8954 36.9014C16.3159 37.6531 16.7477 38.3365 17.1901 39.0715L17.8496 40.1444C18.1775 40.6992 18.8337 41.6135 19.2231 42.2358L22.152 47.1024C22.5342 47.7294 23.4945 49.1657 23.9304 49.655C24.1959 49.9529 24.4472 50.3121 24.8191 50.4988C25.3635 50.7719 25.7271 50.5681 26.1064 50.3142ZM6.37826 16.6532C7.13269 16.829 7.29371 16.985 7.55944 17.047C7.38367 17.287 7.1663 17.1702 6.94186 17.0346C6.78231 16.9384 6.4629 16.7798 6.37826 16.6532ZM4.76382 16.2203L4.77561 16.2321C4.77473 16.2312 4.75969 16.2241 4.76382 16.2203ZM23.2713 26.1807C23.2845 26.0214 23.296 26.0653 23.4025 25.8397C23.9635 24.6517 24.5108 23.4732 25.0205 22.2605L26.1324 19.5925C26.2881 19.2424 27.7294 15.7558 27.8391 15.6298L26.6338 21.0389C26.5922 21.186 26.5441 21.2341 26.4733 21.3509L24.8783 24.0079C24.4498 24.7196 24.223 25.0611 23.7272 25.6919L23.2713 26.1807ZM1.10166 15.0391C1.10166 14.7138 1.81244 14.8957 2.0127 14.955C2.47604 15.0925 2.89897 15.2497 3.31954 15.4593C4.08636 15.8422 4.08045 15.6428 4.25181 16.3778C4.01439 16.732 3.81089 16.7703 4.02472 17.7466C4.12765 18.2161 4.29044 18.6641 4.48775 19.0551C4.87912 19.8299 6.11135 22.0785 6.30483 22.5925C6.62099 23.4313 7.01147 24.2636 7.41552 25.0649C7.81427 25.8559 8.45988 27.2719 8.90021 28.0293C9.2267 28.5911 9.51189 29.2208 9.80122 29.8056C9.86168 29.928 9.86846 29.9684 9.94455 30.0953L11.3528 32.7422C11.4593 32.9575 11.5525 33.1183 11.6678 33.333C11.7731 33.5291 11.8825 33.6834 11.9834 33.8833C12.67 35.2471 14.1674 37.5189 14.9999 38.8986L17.603 43.4615C17.8283 43.8352 18.0368 44.2251 18.2778 44.5979L19.6218 46.7975C19.8486 47.1788 20.0754 47.5135 20.2907 47.9005C20.8307 48.8711 21.3044 49.8848 21.801 50.8784L23.3105 53.8572C23.012 53.6572 22.8404 53.4145 22.6242 53.1261C21.727 51.9286 21.0339 50.5864 20.2659 49.3029L19.2231 47.5112C19.0933 47.2944 18.9833 47.108 18.8588 46.8909C18.7488 46.6984 18.6205 46.4907 18.5084 46.2964C17.9212 45.2768 17.3998 44.2401 16.8259 43.2149L15.4471 40.7747C14.943 39.8684 14.3741 38.996 13.7966 38.1336L13.2221 37.2515C12.9632 36.863 12.7284 36.5097 12.4659 36.1174C11.9008 35.2739 10.6795 33.402 10.2495 32.6249C9.80211 31.8162 9.28627 31.0346 8.81173 30.2436L6.39123 26.0102C6.05177 25.3802 5.75419 24.7488 5.39555 24.1318C5.27729 23.9286 5.19707 23.718 5.07113 23.5113C4.78151 23.0358 3.35699 20.1399 3.06265 19.535L2.82111 19.0681C2.76124 18.9484 2.72082 18.8741 2.66302 18.7534C2.60491 18.6322 2.57366 18.5337 2.51968 18.4243C2.23596 17.8486 1.10166 15.4363 1.10166 15.0391ZM30.3985 14.5669C30.3985 14.9612 29.8299 17.1558 29.6978 17.6849L28.8676 20.7129C28.342 22.5152 27.8173 23.7861 27.2331 25.4569L25.933 28.6451C25.5832 29.2305 25.4476 29.0294 25.0361 28.7073C24.9438 28.6351 24.9167 28.6203 24.8857 28.5035C25.5988 28.3375 26.0852 25.7173 26.2412 25.0163C26.3374 24.583 26.9959 21.3252 27.1422 21.0356L29.9992 15.388C30.0635 15.229 30.113 15.1388 30.1891 14.9872C30.2729 14.8197 30.2968 14.6837 30.3985 14.5669ZM54.2218 19.3698C54.3082 19.2409 54.4218 19.1699 54.5495 19.0672L59.622 14.9657C59.7647 14.8518 59.8868 14.7179 60.0104 14.6849C59.8992 14.8509 58.1524 16.2386 57.8928 16.4654C57.6516 16.6762 57.4021 16.8541 57.1484 17.0593C57.0216 17.162 56.9304 17.241 56.7986 17.3398L54.4365 19.23C54.3262 19.3185 54.3536 19.3347 54.2218 19.3698ZM60.0104 14.6849C60.0777 14.5846 60.0779 14.5619 60.2074 14.5274C60.1402 14.6277 60.1399 14.6504 60.0104 14.6849ZM30.3985 14.5669L30.4201 14.4822L30.3985 14.5669ZM60.2074 14.5274C60.2764 14.4242 60.2272 14.446 60.3649 14.4094C60.2959 14.5123 60.3449 14.4908 60.2074 14.5274ZM60.4041 14.3699L60.3649 14.4094L60.4041 14.3699ZM60.4436 14.3307L60.4041 14.3699L60.4436 14.3307ZM60.4436 14.3307C60.5026 14.2457 60.4493 14.2788 60.5616 14.2519C60.5029 14.3366 60.556 14.3035 60.4436 14.3307ZM60.6012 14.2124L60.5616 14.2519L60.6012 14.2124ZM60.6404 14.1732L60.6012 14.2124L60.6404 14.1732ZM60.7979 14.0549L60.7587 14.0944L60.7979 14.0549ZM60.8374 14.0157L60.7979 14.0549L60.8374 14.0157ZM36.8171 13.5824L36.8289 13.5942C36.828 13.5936 36.8133 13.5866 36.8171 13.5824ZM36.7776 13.5037C36.7817 13.4998 36.7894 13.5101 36.7894 13.5155L36.7776 13.5037ZM8.30769 18.7794C8.84092 19.1362 9.38507 19.6347 9.99351 20.0464C11.6631 21.1769 12.9098 21.8776 14.5611 22.9208L16.8368 24.3462C17.4423 24.752 18.0932 25.0791 18.7116 25.464C19.2278 25.7855 19.7197 26.1647 20.1695 26.5652C20.7885 27.1165 22.0576 28.3416 22.6805 27.1648C22.7728 27.2268 22.8802 27.3091 22.966 27.3913L23.793 28.1393C24.1351 28.4817 25.0016 29.511 25.5174 29.5278C26.0949 29.547 26.3598 28.8601 26.5659 28.451C26.9337 27.7214 27.1894 26.9711 27.4604 26.196C27.6451 25.6672 27.8055 25.1682 28.0081 24.6568C28.3361 23.8283 28.8357 22.3445 29.0681 21.5042L29.7686 19.0944C29.842 18.8154 29.9057 18.5443 29.9909 18.2535L30.3059 17.0334C30.6486 15.7558 30.8999 14.4351 31.1763 13.1397C31.3355 12.393 31.383 12.211 31.6756 11.5129L32.4861 9.72503C32.5489 9.59792 32.5863 9.48172 32.6559 9.3437C32.7825 9.09271 32.8718 8.8594 32.9975 8.62198C33.1184 8.71075 35.6781 13.0557 36.1399 13.7479C36.6009 14.4389 37.4285 15.5806 37.7491 16.2725C37.8125 16.409 37.8387 16.4934 37.9063 16.6273L39.6375 20.5655C39.8204 21.0798 40.0425 21.5674 40.2374 22.0525L41.9704 26.5009C42.1615 27.0386 42.2887 27.9877 42.7122 28.3575C42.9092 28.5298 42.8523 28.3625 43.1481 28.6699C43.8202 29.3685 44.7289 28.5722 45.1256 28.3068C45.5287 28.5764 45.7028 29.1096 46.63 28.551C47.4723 28.0434 48.7986 26.6443 49.5454 25.9538C49.6581 25.8497 49.7259 25.8158 49.8415 25.6987C50.4859 25.047 51.2215 24.4804 51.8692 23.8286L53.6086 22.2209C53.9366 21.9676 54.1938 21.6644 54.5153 21.3954C54.5218 21.3901 54.5306 21.383 54.5371 21.3777L54.5802 21.342C55.3476 20.6952 56.0507 19.9733 56.8435 19.353C56.9532 19.2672 57.0632 19.1749 57.1652 19.084L62.0705 15.091C62.4822 14.7598 62.8447 14.3896 63.2561 14.0717C63.5428 13.8496 64.1905 13.1742 64.46 13.0315C64.4273 13.1722 64.3657 13.2279 64.2952 13.3388L62.2177 16.5769C62.1026 16.7697 61.9702 16.9426 61.8375 17.1416L59.3822 20.9465C59.3164 21.0557 59.2619 21.155 59.1911 21.2671L56.5689 25.3776C56.4273 25.5896 56.3167 25.756 56.1751 25.968L51.6105 33.0186L49.5094 36.7049C48.5769 38.3704 47.821 40.1536 46.9376 41.8503L46.6094 42.467C46.5439 42.5982 46.5041 42.6457 46.438 42.7681L44.9023 45.6027C44.3375 46.6515 43.8311 47.7371 43.3014 48.805C43.1847 49.0401 43.0738 49.2188 42.9599 49.448C42.8511 49.6671 42.747 49.8337 42.6319 50.0647C42.5134 50.3027 42.3981 50.4894 42.2904 50.7079C42.1373 51.0191 41.9356 51.3246 41.7242 51.5983C41.6106 51.7452 41.577 51.7293 41.4242 51.8101C41.3136 51.6452 41.2355 51.5051 41.1257 51.3211C40.42 50.1352 39.9289 48.6222 39.3756 47.3625C39.211 46.988 39.076 46.6078 38.9208 46.2029C38.4599 45.0004 38.1343 43.6945 37.7279 42.4747C37.4527 41.6494 37.1973 40.8443 36.9203 40.0141C36.7796 39.592 36.6587 39.2251 36.5169 38.8034C36.1624 37.7493 35.9559 36.6477 35.6403 35.5854C35.4648 34.9943 35.2481 33.3964 34.765 33.1917C34.4503 33.0587 34.3476 33.251 34.1394 33.3064C34.0515 32.9295 33.2373 31.0028 32.456 31.702C32.384 31.7663 32.2528 31.9595 32.2094 32.0465C31.9077 32.655 31.7944 31.8395 31.217 34.0857C30.7637 35.8499 30.3089 38.2094 29.7636 39.9156C29.4787 40.8071 28.4072 44.5002 27.9701 45.3668L27.1956 47.0331C26.8231 47.8704 26.5636 48.757 26.0799 49.5397C25.639 50.2537 25.1069 50.2287 24.5993 49.6951C24.5294 49.6217 24.5362 49.6217 24.4752 49.5435C24.4138 49.4651 24.3858 49.4447 24.3289 49.3748C23.6865 48.5862 23.1453 47.7159 22.5941 46.857C22.4286 46.5989 22.2841 46.3662 22.1269 46.1038L20.3102 43.0778C19.5366 41.8417 18.6889 40.6399 17.9203 39.4024C17.736 39.1054 17.9445 39.2531 17.8522 38.9638C17.81 38.8314 17.6688 38.6836 17.6027 38.5801C17.2898 38.089 17.0146 37.5661 16.6955 37.0857C16.5318 36.8391 16.3784 36.6047 16.2151 36.3457L15.7626 35.5774C15.3497 34.7522 15.0277 33.9523 14.5564 33.1613C14.2219 32.5995 13.9889 32.2258 13.6893 31.6268C13.5459 31.3402 13.4256 31.0998 13.2823 30.8131C12.1798 28.6085 11.9583 27.9532 11.0414 25.7704C10.7969 25.1882 10.5857 24.6355 10.3548 24.0551C10.2392 23.764 10.133 23.4756 10.0177 23.1721C9.90208 22.8686 9.80829 22.5619 9.6853 22.2838C9.30425 21.4226 8.98927 20.5425 8.63948 19.668C8.56398 19.4787 8.32125 18.9416 8.30769 18.7794ZM64.4995 12.992L64.46 13.0315L64.4995 12.992ZM59.8924 24.2123L60.3027 23.3234C60.6575 22.5881 61.0798 21.8059 61.4051 21.0789C61.4809 20.9091 61.5491 20.7817 61.6249 20.6298C61.7694 20.341 61.9136 20.0523 62.0581 19.7636L64.8856 14.5985C65.679 13.2792 66.024 12.6345 66.9336 11.2917L67.4922 10.5116C67.4347 10.7585 66.7437 11.8945 66.5732 12.2308L61.5337 21.1683C61.3172 21.5544 60.0361 24.107 59.8924 24.2123ZM67.4922 10.5116C67.519 10.3995 67.4863 10.4526 67.5709 10.3936C67.5441 10.506 67.5768 10.4529 67.4922 10.5116ZM67.5709 10.3936L67.5928 10.309L67.5709 10.3936ZM31.895 9.92117L31.8732 10.0058L31.895 9.92117ZM42.015 52.7155C41.8852 52.6288 41.7427 52.4035 41.7 52.243C42.4526 51.7393 43.0106 50.3068 43.4589 49.4745C43.5253 49.3509 43.5719 49.2477 43.6294 49.133L45.1386 46.0752C45.2076 45.9469 45.2595 45.8761 45.3229 45.7475C45.8467 44.6857 46.5271 43.4898 47.0942 42.4003L51.6604 33.7374L53.2105 31.193C53.465 30.7633 53.7367 30.3822 53.9876 29.962C54.1103 29.7564 54.2528 29.5588 54.3952 29.3461C54.4772 29.2237 54.5147 29.16 54.5928 29.0317C54.6695 28.9055 54.7261 28.8489 54.8052 28.7324L57.0178 25.3932C57.0888 25.2861 57.1564 25.2071 57.2274 25.0912C57.3687 24.8614 57.4829 24.698 57.625 24.4651C57.6976 24.3459 57.7554 24.2754 57.8282 24.1562C57.9061 24.0285 57.9441 23.964 58.0258 23.8422L64.4335 13.9493C64.6936 13.5093 64.9579 13.1326 65.2206 12.6894C65.3832 12.4148 66.1509 11.4566 65.4053 11.4566C65.228 11.4566 65.0369 11.7252 64.9328 11.8503C64.4034 12.485 63.7135 13.0834 63.0915 13.6314L59.7346 16.4562C59.6249 16.5418 59.5279 16.6276 59.4108 16.7231L55.6732 19.7969C55.4832 19.9485 55.2862 20.1579 55.0978 20.3242L51.8296 23.2771C51.7111 23.3968 51.6601 23.4526 51.5214 23.5596C51.4038 23.6504 51.3415 23.7265 51.2398 23.8289C51.12 23.9492 51.0404 23.9873 50.9233 24.1032C50.8257 24.1999 50.7496 24.2899 50.6481 24.3792C50.529 24.4842 50.4718 24.5146 50.3532 24.6355C50.0123 24.9847 49.3121 25.5548 48.8765 25.994L48.6087 26.2379C48.1642 26.6095 46.2127 28.781 45.675 28.1511C45.6305 28.0992 45.558 28.0095 45.5196 27.9523C45.6907 27.8376 45.8275 27.6497 45.985 27.5123L46.1351 27.3869C46.1413 27.3816 46.1505 27.3742 46.1567 27.3686C46.7613 26.841 47.9684 25.5542 48.6394 24.8906C48.7609 24.7703 48.8497 24.7234 48.9753 24.5966L49.9654 23.618C49.9716 23.6124 49.9798 23.6044 49.9857 23.5988L50.8838 22.7648C51.0062 22.6436 51.0938 22.599 51.2197 22.4704L51.8892 21.88C51.9452 21.8272 51.9679 21.7944 52.0284 21.7437C53.1049 20.8383 54.2259 19.9753 55.3154 19.0852C56.4589 18.1512 57.6418 17.2649 58.7808 16.3294L60.1735 15.2414C60.7654 14.8014 61.3178 14.3162 61.8915 13.849C62.6987 13.1919 63.4224 12.4705 64.2409 11.8279C64.5833 11.5592 66.7451 9.82915 67.1377 9.72445L66.7835 10.4329C66.3178 11.3684 65.7689 12.2393 65.2351 13.1368L59.7871 22.5719C58.9315 24.1757 58.0447 25.7748 57.1036 27.3297C57.0322 27.4477 56.9944 27.5347 56.9157 27.6535C56.834 27.7771 56.7733 27.8791 56.7051 27.9939L53.4615 33.2941C53.319 33.5309 53.2158 33.73 53.0639 33.9597C52.5985 34.6628 51.9146 35.8942 51.4781 36.6259L44.1803 48.9749C44.1119 49.1068 44.0562 49.21 43.9854 49.3315L43.2283 50.7006C42.9667 51.1329 42.107 52.3203 42.015 52.7155ZM67.8467 9.09447C67.8104 9.24931 67.8033 9.25432 67.6892 9.33071C67.6936 9.11983 67.7084 9.16762 67.8467 9.09447ZM31.895 9.92117C31.895 9.69054 32.1903 8.58808 32.2439 8.26248C32.2693 8.10882 32.3177 7.78084 32.3675 7.67702C32.489 7.75872 32.632 8.01562 32.7217 8.14952L31.895 9.92117ZM33.4307 7.7558C33.4307 7.59417 34.0288 6.46842 34.1648 6.16729C34.2194 6.04696 34.202 6.01422 34.2969 5.94491C34.3081 6.07911 34.3807 6.27997 34.4199 6.41268C34.7629 7.57766 34.9649 8.599 35.3846 9.85717C35.6002 10.5042 35.8017 11.0661 36.0412 11.681C36.168 12.006 36.2738 12.2597 36.4066 12.5758L36.7776 13.4644C36.6773 13.3907 35.3504 10.9286 35.1407 10.5738C34.8517 10.0854 34.6016 9.63921 34.3046 9.16556C34.1801 8.96677 33.4307 7.90179 33.4307 7.7558ZM27.4059 19.6453C27.4059 19.3642 27.5303 18.9693 27.5861 18.6841C27.7232 17.9839 28.0429 16.5134 28.2278 15.861C28.3151 15.5523 28.3688 15.2691 28.4552 14.9468C28.7018 14.0266 28.9145 13.0412 29.1867 12.1741C29.2693 11.9119 29.3976 11.6185 29.4975 11.343C29.998 9.96216 30.5849 8.46833 31.0029 7.06093L31.5797 5.31493C31.6942 5.39869 32.5486 7.09838 32.5642 7.16533C32.5542 7.16268 32.0295 6.86275 31.9039 7.37121L31.754 8.32382C31.6358 8.95645 31.491 9.57107 31.3515 10.1654C31.2052 10.7888 31.1099 11.3881 30.966 12.024C30.8424 12.5711 29.7739 14.8612 29.4663 15.5245L27.4059 19.6453ZM34.5727 5.31493C34.5727 5.21967 34.7346 4.99229 34.7694 4.84247H34.8482C34.9213 5.15568 36.0577 7.22018 36.219 7.48768C36.3476 7.70092 36.4579 7.88319 36.5968 8.09436L37.361 9.33808C37.4969 9.56311 37.6019 9.7495 37.7393 9.98338L39.114 12.6245C39.5544 13.5048 39.99 14.5418 40.4002 15.3544C41.505 17.5419 43.5309 22.4454 44.1954 24.5913C44.347 25.0808 44.6283 25.9954 44.8864 26.4198C44.964 26.5475 45.0176 26.6021 45.0864 26.7319C45.0067 26.7852 44.9297 26.836 44.8501 26.8894C44.4183 26.0736 43.4955 24.6656 42.9522 23.8262C42.3925 22.9618 41.7277 21.6898 41.0933 20.7245L39.3603 18.0081C39.0096 17.4731 38.7153 16.962 38.4826 16.366C36.9162 12.3523 36.2175 11.8754 34.9821 6.91346C34.9057 6.60585 34.5727 5.48157 34.5727 5.31493ZM33.155 1.14199C33.155 2.66176 34.0406 4.91264 34.048 5.16274C34.0513 5.26686 33.8345 5.72992 33.7723 5.8535L33.155 7.24408C32.9842 7.11903 32.5209 6.09414 32.3805 5.81366C32.2519 5.55649 32.1401 5.32083 32.0139 5.07781C31.8012 4.66786 31.6962 4.90175 31.9115 4.34728L33.093 1.23724C33.1405 1.14404 33.1075 1.19655 33.155 1.14199ZM22.6018 26.3777L21.0207 25.2419C20.829 25.0994 20.6617 24.9983 20.4594 24.8582L19.2051 23.8681C18.5235 23.2611 16.0313 21.3647 15.2778 20.8657C14.9065 20.62 14.5354 20.3741 14.1747 20.1181C13.2811 19.4834 12.2468 18.9431 11.3903 18.3349C10.8453 17.948 10.2522 17.6365 9.69357 17.2755C9.31871 17.0331 8.95624 16.8264 8.56634 16.5916C8.36136 16.4683 8.1971 16.3748 8.00067 16.2515L6.20808 15.2488C5.78869 15.0391 5.28259 14.7636 4.72429 14.7636C4.36359 14.7636 4.09432 15.0288 4.09432 15.3936C3.32544 14.9869 2.16312 14.4094 1.29839 14.4094C0.312436 14.4094 0.557513 15.2556 0.838582 15.8139C1.23172 16.5943 1.54228 17.4065 1.92805 18.1892C1.98556 18.3063 2.03541 18.4025 2.09912 18.5299L3.76607 21.824C3.98107 22.2537 4.20167 22.7636 4.44115 23.157L5.82673 25.7477C6.3638 26.8283 6.99524 27.8936 7.5969 28.9385L8.69936 30.8285C9.19013 31.6484 9.66998 32.5084 10.1979 33.3064L11.9386 36.0151C12.8941 37.4384 14.8548 40.3582 15.5798 41.8232L16.2938 43.117C16.7964 43.9478 17.1969 44.8654 17.6818 45.7059L20.6254 50.7153C20.8782 51.1335 21.0967 51.5411 21.3492 51.9602C21.6061 52.387 21.86 52.7727 22.1367 53.1806C22.2072 53.2847 22.2599 53.3496 22.3372 53.4525C23.3214 54.7623 23.3565 54.2948 23.7892 54.5205C23.8891 54.5724 24.5341 55.4023 25.0273 54.55C25.1013 54.4217 25.0933 54.3656 25.201 54.2907C25.2924 54.227 25.3603 54.2114 25.4717 54.1282C26.1398 53.6292 26.4412 52.673 26.7022 51.8941C26.9912 51.0326 27.2319 50.0679 27.5188 49.2067C27.9704 47.8521 28.3939 46.5641 28.7531 45.165C29.0082 44.1711 29.2719 43.5789 29.7028 42.6501C30.0691 41.8603 30.5012 41.1071 30.8843 40.3276L31.4747 39.1856C31.5774 38.9809 31.6535 38.8022 31.7694 38.614C31.9912 38.2527 32.161 37.8106 32.3542 37.4272C32.4592 37.2193 32.5247 37.0444 32.63 36.8368C32.7503 36.5991 33.1464 35.8358 33.1942 35.6293H33.2729C33.2771 35.8048 33.3918 36.1021 33.4443 36.285C33.7495 37.3455 34.0887 38.4194 34.3597 39.5035L35.7492 43.9015C36.2523 45.2889 36.8572 46.606 37.5131 47.9253L38.8778 50.6946C39.16 51.2588 39.4458 51.7664 39.7051 52.3477C39.9732 52.9491 40.3032 54.3297 41.07 54.3297C41.3036 54.3297 41.4398 54.1887 41.5817 54.0934C41.6767 54.163 41.7569 54.3167 41.8339 54.432C42.1842 54.9587 42.3981 55.3926 42.8812 55.3926C43.1345 55.3926 43.195 55.2814 43.3932 55.2351C43.7214 55.4548 43.932 55.7471 44.4169 55.7471C45.0616 55.7471 45.7588 54.4786 46.0313 53.9755C46.1 53.8489 46.1626 53.7548 46.2286 53.6215C46.2959 53.4856 46.3516 53.3682 46.4327 53.2349C46.5819 52.9901 46.6928 52.7317 46.8191 52.4793C47.0662 51.985 47.36 51.4674 47.5785 50.9554C47.6971 50.6775 47.8041 50.4413 47.9348 50.1697C48.3055 49.3981 48.5848 48.5836 48.9718 47.8209L50.4417 44.7238C50.5697 44.469 50.6762 44.2153 50.8092 43.9493C51.3188 42.9306 51.7895 41.8963 52.2304 40.8431C52.6746 39.7831 53.1707 38.7444 53.6573 37.7027L56.624 31.5348C57.2755 30.2321 58.0132 28.6595 58.6977 27.3878L61.6375 21.7446C62.046 21.015 62.4038 20.2331 62.8382 19.5196L63.8377 17.7238C63.9191 17.5896 63.9607 17.4781 64.0436 17.3392L64.8803 15.8923C65.5333 14.6648 66.2865 13.4898 66.982 12.285L68.6265 9.36227C68.8138 9.04965 69.3824 8.17342 69.3824 7.83454C69.3824 7.72335 69.2181 7.59828 69.1066 7.59828C68.9211 7.59828 68.5274 8.02681 68.3431 8.13416C68.0629 8.29726 68.0936 8.06812 67.1109 8.87063C66.6254 9.26672 66.07 9.59439 65.5687 9.96659L59.8697 14.2292C58.2656 15.4803 56.711 16.7966 55.111 18.0539C54.9798 18.1568 54.865 18.2488 54.7441 18.3565L52.5737 20.1626C52.1484 20.5059 51.7568 20.9026 51.3247 21.2367C51.2357 21.3058 51.2174 21.3361 51.141 21.4075L49.9238 22.4743C49.5537 22.7695 49.2593 23.1476 48.8945 23.4526C48.4769 23.8015 48.1053 24.2158 47.6941 24.5753L45.4801 26.3777C45.0047 25.6678 44.8342 25.0345 44.5493 24.1978L43.6913 21.9062C43.4173 21.2232 43.0805 20.3021 42.7891 19.6589C42.3532 18.6962 42.0082 17.676 41.5431 16.7314L40.86 15.2886C40.2663 14.1165 39.7546 12.9212 39.1665 11.7453L38.6451 10.7313C37.9113 9.21127 36.8681 7.86993 36.1214 6.3649C36.0004 6.12129 35.9022 5.92546 35.7798 5.68273C35.5984 5.32321 35.3286 4.50449 35.0245 4.31131C34.7732 4.15204 34.4473 4.25967 34.3757 4.52746H34.2969C34.2893 4.18387 34.0899 3.77954 34.005 3.44155C33.9032 3.03602 33.8174 2.72545 33.7348 2.29426C33.6269 1.73006 33.5976 0.972087 33.5469 0.395794C33.5224 0.11856 33.4278 0 33.155 0C32.9358 0 32.5592 1.36375 32.469 1.59763L31.404 4.54872C31.2167 4.8581 31.1969 4.47971 30.7775 5.65471L29.3306 9.99519L28.5712 12.7003C28.3862 13.3379 27.8223 14.5896 27.5743 15.1682L25.4989 20.0222C25.0494 21.0955 24.6129 22.2009 24.1245 23.2544L23.3763 24.829C23.2424 25.0959 23.1235 25.3342 22.9955 25.5902L22.7118 26.1727C22.6714 26.2467 22.6389 26.3075 22.6018 26.3777Z" fill="#A3A3A3"/>
<path fill-rule="evenodd" clip-rule="evenodd" d="M20.5548 64.4882C21.1671 64.6307 21.063 64.7687 22.1448 64.7687C22.4226 64.7687 22.6237 64.7268 22.8464 64.6749C22.5311 65.1456 20.8837 64.9365 20.5548 64.4882ZM19.573 63.8803L19.6267 63.9715L19.573 63.8803ZM19.573 63.8803C19.3568 63.6317 19.2456 62.9622 19.2456 62.6646H19.2925C19.2925 62.9345 19.3769 63.0575 19.4332 63.2719C19.4774 63.4409 19.5583 63.7037 19.573 63.8803ZM22.2383 64.1608C21.6614 64.1608 21.0229 64.162 20.5678 63.7739C20.1174 63.3893 19.947 63.1595 19.947 62.5712C19.947 61.9657 20.2204 60.9697 20.5185 60.6181C20.8391 60.2397 22.9084 60.2356 23.9613 61.8772C24.2473 62.3231 23.9972 63.327 23.8108 63.5822C23.6147 63.8502 22.7211 64.1608 22.2383 64.1608ZM22.7995 59.6726C24.1618 59.6726 25.5586 60.6134 25.5586 61.8232C25.5586 62.2485 25.5577 62.6077 25.3171 62.9843C25.2056 63.1581 24.9634 63.4972 24.8104 63.5999C24.9254 63.1056 25.0908 63.3952 25.0908 62.4311C25.0908 62.0223 24.7357 61.4622 24.4904 61.1614L23.559 60.1757C23.2319 59.8896 23.0635 59.902 22.7995 59.6726ZM20.9757 65.8906C22.7925 65.8906 22.9137 65.5765 24.0421 64.8887C25.2719 64.1387 26.3464 63.1631 26.1075 61.5548C25.8936 60.1144 24.3553 59.1582 22.893 59.1582C21.9693 59.1582 22.2221 59.2057 21.5844 59.2526C21.2603 59.2765 21.2143 59.3576 20.8913 59.4012C19.2663 59.6215 18.4882 60.1996 18.2759 61.8822C18.2455 62.1214 18.2181 62.4953 18.2588 62.6195C18.3774 62.9817 18.424 62.5157 18.4505 63.2725C18.4756 63.9844 18.9917 65.0671 19.6562 65.4803C19.9841 65.6844 20.4619 65.8906 20.9757 65.8906Z" fill="#A3A3A3"/>
<path fill-rule="evenodd" clip-rule="evenodd" d="M46.6933 64.4879C46.4886 64.4879 46.2633 64.507 46.0854 64.3941C46.7938 64.2292 47.4332 63.719 47.9208 63.2374C48.4617 62.7033 48.6572 62.045 48.6572 60.9815C48.9126 61.1525 49.3119 61.6344 49.3119 62.1034C49.3119 63.5055 47.8426 64.4879 46.6933 64.4879ZM48.6103 60.2332L48.5637 60.1866L48.6103 60.2332ZM48.5637 60.1866L48.4702 60.1397L48.5637 60.1866ZM48.4702 60.1397L48.4233 60.0931L48.4702 60.1397ZM48.4233 60.0931C48.29 60.061 48.3531 60.1002 48.2832 59.9996C48.4198 60.0324 48.3505 59.9934 48.4233 60.0931ZM45.9916 59.9061C46.5024 59.9061 47.7226 60.1778 47.9275 60.542C48.2956 61.1974 48.029 62.2075 47.5294 62.7991C47.1952 63.1946 46.7437 63.4612 46.2733 63.6936C45.9916 63.8328 45.5245 63.9735 45.1033 63.9735C44.8924 63.9735 44.555 63.4409 44.4577 63.2633C43.7543 61.9795 44.4727 60.1397 44.9163 60.1397C46.0076 60.1397 45.5773 60.7476 46.132 60.7476C46.2462 60.7476 46.3659 60.6391 46.3659 60.4671C46.3659 60.1987 46.119 60.0961 45.9916 59.9061ZM42.625 62.4774C42.625 63.0277 42.8244 63.3846 43.0718 63.7137C43.388 64.1346 43.5092 64.0856 43.946 64.5227C44.7951 65.3733 45.4342 65.5163 46.6933 65.5163C47.6515 65.5163 48.8179 64.8312 49.2766 64.3121C49.8027 63.7169 50.2472 62.3494 50.2472 61.4489C50.2472 61.0213 50.0838 60.5541 49.9112 60.2884C49.1108 59.0553 47.717 58.5893 46.2108 58.773C45.9465 58.8052 45.9922 58.7329 45.7704 58.7491C45.0788 58.7996 44.5792 59.0535 44.0876 59.4986C43.933 59.6387 43.1986 60.7199 43.0544 60.9431C42.8226 61.3015 42.625 61.8999 42.625 62.4774Z" fill="#A3A3A3"/>
<path fill-rule="evenodd" clip-rule="evenodd" d="M36.128 60.5614C36.8429 60.7522 37.1475 62.3669 36.5488 62.8055C36.811 61.6798 36.5208 61.3037 36.128 60.5614ZM36.128 60.5614L36.0811 60.5145L36.128 60.5614ZM36.7824 60.2809L36.7358 60.234L36.7824 60.2809ZM33.8278 59.9547C34.8978 59.9535 36.0345 60.9498 36.0345 61.9172C36.0345 62.5666 36.0191 62.7707 35.6083 63.2679C35.4818 63.421 35.4865 63.3886 35.3452 63.519C33.9145 64.8379 32.0597 64.1401 32.0597 62.2446C32.0597 61.7753 32.1632 61.1477 32.3231 60.8248C32.5457 60.3738 32.7737 60.1638 33.2754 60.047C33.2754 60.9902 33.908 60.6139 33.8832 60.421L33.8278 59.9547ZM32.1998 59.9069C32.1364 60.0016 31.5748 60.4331 31.366 60.7563C31.0153 61.2993 31.0664 61.3695 30.926 61.8125C30.8918 61.9207 30.9145 61.8827 30.8437 61.9638C30.8437 61.1507 31.0363 60.6236 31.6046 60.2001C31.7589 60.0848 31.9742 59.9255 32.1998 59.9069ZM36.7358 60.234C36.176 59.9379 36.3489 59.9308 35.4095 59.5032L35.2225 59.4094C35.216 59.4061 35.2019 59.3991 35.1927 59.3926C35.7652 59.3926 36.6293 59.8355 36.7358 60.234ZM35.1927 59.3926L35.0922 59.3669L35.1927 59.3926ZM30.8906 62.712L31.1923 63.7661C31.3988 64.3937 31.8957 64.9443 32.4856 65.1844C33.8216 65.7286 35.3821 65.3251 36.3497 64.3365C36.5491 64.133 36.5928 64.1197 36.8269 63.972C36.9824 63.8737 37.1738 63.7154 37.3218 63.5785C37.9556 62.9928 37.9462 62.2829 37.7117 61.5491C37.6135 61.2421 37.6604 61.2061 37.6191 60.8469C37.579 60.4992 37.3 59.9447 37.0989 59.7306C36.2742 58.8523 34.9376 58.5733 33.8063 58.9413C33.2276 59.1295 33.6098 59.0749 32.8973 59.1549C32.0886 59.2451 31.3716 59.4834 30.9216 60.0314C30.2364 60.8649 30.3836 61.4786 30.3748 62.2457C30.3662 63.0102 30.7596 62.7424 30.8906 62.712Z" fill="#A3A3A3"/>
</svg>
