<svg xmlns="http://www.w3.org/2000/svg" width="318" height="66" fill="#a3a3a3" xmlns:v="https://vecta.io/nano"><path d="M105.222 40.912l-3.433-10.53h1.29l2.612 8.126 2.678-8.126h1.172l2.67 8.107 2.62-8.107h1.25l-3.423 10.53h-.954l-2.772-8.477-2.746 8.478h-.963zm45.733-1.585l.762-1.13c.745.576 1.52 1.016 2.323 1.322s1.6.456 2.39.456c.972 0 1.763-.205 2.368-.62s.91-.944.91-1.59c0-.515-.218-.938-.654-1.27s-1.038-.53-1.806-.596l-.8-.056c-1.73-.124-2.91-.325-3.54-.612-.488-.238-.862-.54-1.116-.912s-.38-.79-.38-1.257c0-.846.377-1.543 1.135-2.093s1.738-.82 2.946-.82c.878 0 1.744.144 2.6.433s1.67.72 2.437 1.286l-.762 1.094c-.65-.525-1.33-.918-2.046-1.185a6.33 6.33 0 0 0-2.206-.397c-.794 0-1.448.156-1.965.465s-.77.697-.77 1.163c0 .182.042.352.124.504s.21.3.38.433c.432.322 1.367.53 2.805.62l1.536.123c1.067.12 1.913.462 2.538 1.03s.933 1.26.933 2.087c0 .983-.426 1.794-1.282 2.43s-1.978.954-3.364.954c-1.048 0-2.024-.153-2.922-.456s-1.757-.77-2.57-1.403zm42.04-2.478h4.634l-2.327-4.662-2.307 4.662zm-3.394 4.063l5.158-10.53h1.087l5.215 10.53h-1.42l-1.43-2.832h-5.815l-1.392 2.832h-1.403zm40.968 0v-10.53h1.307V39.7h6.872v1.21h-8.18zm41.936-.957c1.18 0 2.16-.403 2.938-1.21s1.162-1.833 1.162-3.073-.387-2.273-1.16-3.08-1.754-1.21-2.94-1.21c-1.18 0-2.16.407-2.938 1.217s-1.162 1.837-1.162 3.074.387 2.266 1.162 3.073 1.757 1.21 2.938 1.21zm-.003 1.23c-1.58 0-2.88-.52-3.905-1.56s-1.54-2.357-1.54-3.956.514-2.924 1.546-3.962 2.326-1.56 3.898-1.56 2.88.52 3.917 1.566 1.552 2.36 1.552 3.956-.517 2.917-1.55 3.956-2.34 1.56-3.92 1.56zm35.68-.274v-10.53h.686l6.83 7.87v-7.87h1.308v10.53h-.666l-6.85-7.87v7.87h-1.308z"/><path d="M24.216 54.33c.158-.038.3-.1.354.08-.15.084-.267.042-.354-.08zm17.76-.7c.148.04.13.104.26.292l.496.606.054.064c.113.135-.078-.1.036.043l.036.042c.066.076.092.097.143.173-.26.218-.74-.6-.898-.835-.08-.12-.2-.232-.126-.386zm-16.34-.512l-.022.085.022-.085zm.04-.08l-.04.08.04-.08zm15.16-1.063c.298.2.635.752.833 1.1.057.1.06.07.034.2-.17-.045-.372-.453-.46-.603l-.2-.342c-.077-.115-.162-.202-.197-.354zm0 0l-.04-.04.04.04zm-.08-.118l.04.08-.04-.08zm-.118-.197l.04.08-.04-.08zm-.04-.08l.04.08-.04-.08zm-14.925 1.46c.016-.2.43-1.278.527-1.56l.266-.757c.054-.144.2-.64.3-.754-.02.248-.83 2.87-1.103 3.07zm1.103-3.07l.02-.085-.02.085zm.04-.197l.012.012zm-8.27-5.63l.04.08-.04-.08zm-.04-.08l.04.08-.04-.08zM36 43.15c.027.03.02.017.048.07l.87 1.965 2.218 4.75c.56 1.116 1.014 1.787 1.63 2.82l.203.3.386.638c-.33.175-.387.14-.584-.164-.206-.318-.74-1.576-.978-2.054l-.682-1.325-.176-.336-.174-.338-.647-1.36-1.557-3.483L36 43.15zm0 0l-.045-.077.045.077zm-.08-.157c0-.1.062-.006.023 0 0 0-.023.1-.023 0zm-.04-.118l.012.012zm-.315-5.512c0-.1.063-.006.024 0-.001 0-.024.1-.024 0zm5.04 14.212c-.12-.088-.485-.768-.6-.946L37.5 45.42c-.645-1.288-1.32-2.948-1.863-4.318l-1.033-2.825-.194-.594-.728-2.343c-.155-.468-.094-.372.18-.816.08-.128.038-.15.2-.194.02.24.623 1.892.742 2.2l.78 2.213 1.5 4.457.405 1.05.213.535.215.533.427 1.07.226.522 1.822 4.123.22.53zM29.926 41.14l.625-2.013.145-.524.15-.52.283-1.055.85-3.127c.064-.192.244-.844.4-.95l.418 1.078c.35 1.04.34.716-.366 2.124l-.473 1.024-.972 2.02-.263.485-.787 1.457zm4.45-7.283c0-.08.12-.138.197-.157l.984 3.582c-.07-.08-.053-.06-.095-.18l-.067-.208-1.02-3.037zm-1.733-1.693l.152-.125c.23.07.502.527.6.74l.42.92-.28.428c-.062.1-.032.1-.153.123-.005-.22-.337-1.64-.566-1.914-.103-.124-.097-.057-.182-.172zm23.745-.984l-1.312 2.743-.197.393-1.68 3.516-1.625 3.6-2.64 5.55-2.205 4.764-.394.748-.206.384c-.44.737-.47.965-1.102 1.812-.362.484-.6.758-1.003.456a2.93 2.93 0 0 1-.314-.277c.693-1.035.858-1.833 1.47-3.057l1.535-3.032 1.207-2.18 2.823-5.13 1.246-2.18 2.22-4 .196-.394 1.576-3c.1-.183.28-.642.407-.735zm0 0c.015-.183-.042-.07.08-.157-.025.108-.02.1-.08.157zm.118-.236l-.04.08.04-.08zm.04-.08l-.04.08.04-.08zm.04-.08l-.04.08.04-.08zm.04-.08l-.04.08.04-.08zm.04-.08l-.04.08.04-.08zm.04-.08l-.04.08.04-.08zm.04-.08l-.04.08.04-.08zm.04-.08l-.04.08.04-.08zm.04-.08l-.04.08.04-.08zm.04-.118zm.04-.08l.01.012zm.04-.08l.012.012zm.04-.08zm.04-.08l.012.012zm.08-.157zm-13.27-1.26l-.236-.04 1.142-.827.16.314c-.144.076-.116.07-.232.164-.177.142-.596.388-.833.388zm2.047-1.496c-.147.22-.408.442-.63.6-.04-.15-.077-.1-.118-.275.234-.35.506-.315.748-.315zM59.46 25h.012zm.118-.157l-.04.08.04-.08zm.04-.08l-.04.08.04-.08zm-41.1 19.3c-.142-.104-1.655-2.804-1.732-2.953l-2.45-4.126-.714-1.177-.354-.6-1.024-1.77-.665-1.225-3.812-7.488c.144.105.92 1.364 1.126 1.67l.368.577.698 1.192 1.4 2.35.337.608.34.606 1.2 2.117.167.305.315.6 1.325 2.454.157.315.5.926c.498.817 1.842 3.542 2.24 4.336l.604 1.286zm41.15-19.37l-.04.08.04-.08zm.04-.08l-.04.08.04-.08zm.04-.08l-.04.08.04-.08zm.04-.08l-.04.08.04-.08zm.04-.08l-.04.08.04-.08zm-42.252.04l-.08-.04.08.04zm42.292-.118l-.04.08.04-.08zm-42.37.08l-.04-.04.04.04zm42.4-.158l-.04.08.04-.08zM24.7 28.07c-.277-.065-.68-.457-.955-.7-.203-.18-.242-.282-.542-.482.085-.117.347-.28.483-.422.096-.1.118-.155.215-.257.447-.468.982-1.315 1.332-1.897l1.08-1.755-.303 1.47c-.162.822-.748 3.556-1.3 4.045zm35.598-5.55c-.08.34-4.267 8.654-5.085 10.152l-1.464 2.75c-.758 1.353-1.492 2.812-2.318 4.178l-2.2 3.913c-.2.327-.353.656-.55.984l-1.635 2.933c-.4.72-.988 1.737-1.352 2.466-.094.2-.163.34-.263.525l-.263.486c-.087.174-.165.344-.263.524l-.498 1.037c-.2.43-.754 1.873-1 2.06-.2-.128-.447-.44-.6-.63-.685-.895-.64-.586.027-1.706l.6-.945c.184-.34.362-.602.538-.958.093-.2.177-.3.263-.485.56-1.135 1.34-2.36 1.9-3.426.08-.155.188-.325.274-.474l1.403-2.416c.315-.533.785-1.408 1.12-1.912l8.033-13.267c.1-.152.18-.305.283-.465a6.3 6.3 0 0 0 .281-.467l1.678-2.9c.2-.33.348-.65.54-.995.097-.173.458-.894.564-.97zm.04-.08l-.04.08.04-.08zm.04-.08l-.04.08.04-.08zm.04-.08l-.04.08.04-.08zm.04-.08l-.04.08.04-.08zm.04-.118h0zm.04-.08l.012.012zm-7.994-1.22l-.04.04.04-.04zm.04-.04l-.04.04.04-.04zm.04-.04l-.04.04.04-.04zm.158-.118l-.04.04.04-.04zm.04-.04l-.04.04.04-.04zm.04-.04l-.04.04.04-.04zm.04-.04l-.04.04.04-.04zm0 0c.06-.085.006-.052.118-.08-.06.085-.006.052-.118.08zm.157-.118l-.04.04.04-.04zm.04-.04l-.04.04.04-.04zm.04-.04l-.04.04.04-.04zm0 0c.07-.103.02-.08.157-.118-.07.103-.02.08-.157.118zm.197-.158l-.04.04.04-.04zm.04-.04l-.04.04.04-.04zm0 0c.07-.103.02-.08.157-.118-.07.103-.02.08-.157.118zm.197-.157l-.04.04.04-.04zm.04-.04l-.04.04.04-.04zm0 0c.067-.1.067-.123.197-.157-.067.1-.068.123-.197.157zm-26.186-.236l-.022.085.022-.085zm-22.17-.197l.045.077-.045-.077zm48.553.276c.07-.104.1-.123.196-.198s.114-.123.237-.157c-.07.104-.1.123-.196.198s-.114.124-.237.157zm-14.215-.55c.08.06.248.352.323.464l.63.985c.906 1.34 1.82 3.165 2.74 4.543.136.205 1.17 1.845 1.2 2.08-.1.03-.194.115-.287.186-.214.162-.65.506-.895.562-.196-.144-.64-1.192-.8-1.522-.1-.206-.132-.35-.207-.58-.3-.875-.4-1.2-.74-2.015-.047-.112-.078-.157-.125-.27a25.3 25.3 0 0 0-.476-1.059c-.355-.758-.76-1.948-1.142-2.796-.06-.133-.2-.44-.2-.577zm0 0l-.045-.077.045.077zm-22.13 5.157c-.17-.04-.4-.227-.544-.323l-3.85-2.45c-1.297-.798-2.542-1.595-3.735-2.526-.137-.107-.416-.293-.495-.4l6.025 3.818 2.093 1.5c.117.088.44.308.506.4zm-8.635-5.7l-.08-.04.08.04zm-.08-.04l-.04-.04.04.04zm1.26-.63l.012.012zm-.118-.08l.012.012zm-.197-.118l.012.012zm-1.457 0c.478.1 2.278 1.204 2.823 1.508.875.5 4.013 2.404 4.484 2.76.558.422 1.12.783 1.702 1.172l.874.582c.97.647 1.57 1.04 2.45 1.92.32.32 1.13 1.27 1.604 1.3-.114.17-.27.208-.5.116-.117-.045-.355-.202-.465-.284-.285-.215-.544-.413-.808-.648s-.528-.43-.788-.67c-.13-.12-.27-.22-.4-.337l-1.227-.978c-.287-.215-.54-.42-.832-.625-.14-.1-.254-.2-.4-.3-.097-.067-.108-.083-.204-.15s-.144-.1-.236-.158l-4.847-3.225c-.343-.186-3.142-1.9-3.203-1.995zm1.378-.04l.012.01zm-1.378.04l-.085-.022.085.022zm1.26-.118l.01.012zm-.08-.04l.012.012zm-.118-.08l.012.012zm-.08-.04l.012.012zm-.118-.08l.012.012zm-.08-.04l.012.012zm-.08-.04l-.08-.04.08.04zm2.126 9.724c-.006-.007-.015-.028-.017-.022s-.014-.018-.017-.023l-1.28-2.343-.63-1.222-2.482-4.96c-.167-.3-.55-.966-.578-1.312.264.06.908.547 1.137.714.247.18.24.244.372.533.547 1.2.9 2.05 1.388 3.298l1.294 3.312c.12.3.796 1.857.8 2.025zm-5.822-7.6l-.034-.045c-.364-.553-.793-1.8-.793-2.396.006.008.012.01.014.025 0 .001.8 2.16.813 2.416zm3.505-2.244l-.08-.04.08.04zm-.08-.04l-.08-.04.08.04zm-.08-.04c-.112-.027-.06.006-.118-.08.112.027.06-.006.118.08zm-.118-.08l-.08-.04.08.04zm17.64 33.267c-.015.183-.66 1.518-.787 1.772-.203.406-.66 1.357-.985 1.575-.902-.783-1.23-1.576-1.82-2.55-.06-.1-.096-.186-.152-.28-.06-.106-.105-.173-.17-.303L20.39 47.05c-.557-1.112-1.1-2.398-1.693-3.583l-1.77-3.542-2.27-4.304c-.067-.12-.1-.18-.17-.302-.1-.203-.196-.352-.302-.564l-1.57-2.838c-.465-.784-1.142-2.058-1.608-2.762-.127-.192-.227-.375-.34-.565l-3.75-5.934c-.592-.998-.803-2.132-1.174-3.235-.07-.2-.13-.43-.206-.66l-.655-2.023c.793 0 .604.298.832.9.07.184.187.4.284.582l1.058 1.974c.044.1.088.174.14.294l.562 1.17c.293.58.506 1.118.864 1.734l3.942 7.32c.674 1.126.908 1.508 1.547 2.784l.6 1.142c.248.496.6 1.247.885 1.714.113.185.202.36.3.556.42.752.852 1.435 1.295 2.17l.66 1.073c.328.555.984 1.47 1.374 2.1l2.93 4.867c.382.627 1.342 2.063 1.778 2.553.266.298.517.657.9.844.544.273.908.07 1.287-.185zM6.378 16.653c.754.176.915.332 1.18.394-.176.24-.393.123-.618-.012-.16-.096-.48-.255-.564-.38zm-1.614-.433l.012.012zm18.507 9.96c.013-.16.025-.115.13-.34.56-1.188 1.108-2.367 1.618-3.58l1.112-2.668 1.707-3.963-1.205 5.4c-.042.147-.1.195-.16.312l-1.595 2.657a13.72 13.72 0 0 1-1.151 1.684l-.456.5zM1.102 15.04c0-.325.7-.143.9-.084.463.137.886.295 1.307.504.767.383.76.183.932.918-.237.354-.44.392-.227 1.37.103.47.266.918.463 1.308.4.775 1.624 3.023 1.817 3.537.316.84.707 1.67 1.1 2.472.4.8 1.044 2.207 1.485 2.964.326.562.612 1.192.9 1.776.06.122.067.163.143.3l1.408 2.647c.107.215.2.376.315.6.105.196.215.35.316.55.687 1.364 2.184 3.636 3.017 5.015L17.6 43.47c.225.374.434.764.675 1.136l1.344 2.2c.227.38.454.716.67 1.103.54.97 1.014 1.984 1.5 2.978l1.5 2.98c-.3-.2-.47-.443-.686-.73-.897-1.197-1.6-2.54-2.358-3.823l-1.043-1.792-.714-1.215c-.587-1.02-1.1-2.056-1.683-3.08l-1.38-2.44c-.504-.906-1.073-1.78-1.65-2.64l-.575-.882-.756-1.134c-.565-.844-1.786-2.715-2.216-3.493-.447-.8-.963-1.6-1.438-2.38L6.4 26c-.34-.63-.637-1.26-.996-1.878-.118-.203-.198-.414-.324-.62-.3-.476-1.714-3.37-2.008-3.976l-.242-.467-.158-.315c-.058-.12-.1-.22-.143-.33-.284-.576-1.418-2.988-1.418-3.385zm29.297-.472c0 .394-.57 2.6-.7 3.118l-.83 3.028c-.526 1.802-1.05 3.073-1.634 4.744l-1.3 3.188c-.35.585-.485.384-.897.062-.092-.072-.12-.087-.15-.204.713-.166 1.2-2.786 1.355-3.487.096-.433.755-3.7.9-3.98L30 15.388c.064-.16.114-.25.2-.4.084-.168.108-.303.2-.42zm23.823 4.803c.086-.13.2-.2.328-.303l5.072-4.1c.143-.114.265-.248.388-.28-.1.166-1.858 1.554-2.118 1.78-.24.2-.5.4-.744.594-.127.103-.218.182-.35.28l-2.362 1.9c-.1.088-.083.105-.215.14zM60 14.685c.067-.1.068-.123.197-.158-.067.1-.068.123-.197.158zm-29.6-.118l.022-.085-.022.085zm29.8-.04c.07-.103.02-.08.157-.118-.07.103-.02.08-.157.118zm.197-.158l-.04.04.04-.04zm.04-.04l-.04.04.04-.04zm0 0c.06-.085.006-.052.118-.08-.06.085-.006.052-.118.08zm.158-.118l-.04.04.04-.04zm.04-.04l-.04.04.04-.04zm.157-.118l-.04.04.04-.04zm.04-.04l-.04.04.04-.04zm-24.02-.433l.012.012zm-.04-.08h0zM8.308 18.78c.533.357 1.077.855 1.686 1.267 1.67 1.13 2.916 1.83 4.568 2.874l2.276 1.425c.605.406 1.256.733 1.875 1.118a10.92 10.92 0 0 1 1.458 1.1c.62.55 1.888 1.776 2.5.6a2.23 2.23 0 0 1 .286.227l.827.748c.342.342 1.2 1.372 1.724 1.4.578.02.842-.668 1.05-1.077.368-.73.624-1.48.895-2.255.185-.53.345-1.028.548-1.54a39.09 39.09 0 0 0 1.06-3.153l.7-2.4.222-.84.315-1.22c.343-1.278.594-2.598.87-3.894a6.83 6.83 0 0 1 .499-1.627l.8-1.788c.063-.127.1-.243.17-.38.127-.25.216-.484.342-.722.12.1 2.68 4.434 3.142 5.126s1.3 1.833 1.6 2.525a9.88 9.88 0 0 1 .157.355l1.73 3.938c.183.514.405 1.002.6 1.487L41.97 26.5c.2.538.318 1.487.742 1.857.197.172.14.005.436.312.672.7 1.58-.098 1.977-.363.403.27.577.803 1.504.244.842-.508 2.17-1.907 2.915-2.597.113-.104.18-.138.296-.255.644-.652 1.38-1.218 2.028-1.87l1.74-1.608c.328-.253.585-.556.907-.826l.022-.018.043-.036c.767-.647 1.47-1.37 2.263-2 .1-.086.22-.178.322-.27l4.905-3.993c.412-.33.774-.7 1.186-1.02.287-.222.934-.897 1.204-1.04-.033.14-.094.196-.165.307l-2.077 3.238c-.115.193-.248.366-.38.565l-2.455 3.805-.2.32-2.622 4.1-.394.6-4.565 7.05-2.1 3.686c-.932 1.665-1.688 3.45-2.572 5.145l-.328.617c-.066.13-.105.18-.17.3l-1.536 2.835c-.565 1.05-1.07 2.134-1.6 3.202-.117.235-.228.414-.342.643-.1.22-.213.386-.328.617-.12.238-.234.425-.342.643-.153.3-.355.617-.566.9-.114.147-.147.13-.3.212-.1-.165-.2-.305-.298-.5-.706-1.186-1.197-2.7-1.75-3.96-.165-.374-.3-.755-.455-1.16-.46-1.203-.786-2.508-1.193-3.728l-.808-2.46-.403-1.2c-.355-1.054-.56-2.156-.877-3.218-.176-.6-.392-2.2-.875-2.394-.315-.133-.417.06-.626.115-.088-.377-.902-2.304-1.683-1.604a1.64 1.64 0 0 0-.247.345c-.302.608-.415-.207-.992 2.04-.453 1.764-.908 4.124-1.453 5.83-.285.892-1.356 4.585-1.794 5.45l-.774 1.666c-.372.837-.632 1.724-1.116 2.507-.44.714-.973.7-1.48.155-.07-.073-.063-.073-.124-.152s-.1-.1-.146-.17c-.642-.8-1.184-1.66-1.735-2.518a28.1 28.1 0 0 1-.467-.753L20.3 43.078c-.774-1.236-1.62-2.438-2.4-3.675-.184-.297.024-.15-.068-.44-.042-.132-.183-.28-.25-.384-.313-.5-.588-1.014-.907-1.494l-.48-.74-.452-.768c-.413-.825-.735-1.625-1.206-2.416-.335-.562-.568-.935-.867-1.534l-.407-.814c-1.102-2.205-1.324-2.86-2.24-5.043-.244-.582-.456-1.135-.687-1.715L10 23.172c-.116-.303-.2-.6-.332-.888-.38-.86-.696-1.74-1.046-2.616-.075-.2-.318-.726-.332-.9zM64.5 12.992l-.04.04.04-.04zm-4.607 11.22l.4-.9c.355-.735.777-1.517 1.102-2.244.076-.17.144-.297.22-.45l.433-.866 2.827-5.165c.793-1.32 1.138-1.964 2.048-3.307l.56-.78c-.057.247-.748 1.383-.92 1.72l-5.04 8.937c-.217.386-1.498 2.94-1.64 3.044zm7.6-13.7c.027-.112-.006-.06.08-.118-.027.112.006.06-.08.118zm.08-.118l.022-.085-.022.085zM31.895 9.92l-.022.085.022-.085zm10.12 42.794a.97.97 0 0 1-.315-.472c.753-.504 1.3-1.936 1.76-2.77.066-.124.113-.227.17-.34l1.5-3.058c.07-.128.12-.2.184-.328.524-1.062 1.204-2.258 1.77-3.347l4.566-8.663 1.55-2.544c.255-.43.526-.8.777-1.23.123-.206.265-.403.408-.616.082-.122.12-.186.198-.314s.133-.183.212-.3l2.213-3.34c.07-.107.14-.186.2-.302.14-.23.255-.393.398-.626.073-.12.13-.2.203-.3.078-.128.116-.192.198-.314l6.408-9.893c.26-.44.524-.817.787-1.26.163-.275.93-1.233.185-1.233-.177 0-.368.27-.472.394-.53.635-1.22 1.233-1.84 1.78l-3.357 2.825c-.1.086-.207.17-.324.267l-3.738 3.074c-.2.152-.387.36-.575.527l-3.268 2.953c-.118.12-.17.175-.308.282-.118.1-.18.167-.282.27-.12.12-.2.158-.317.274-.098.097-.174.187-.275.276-.12.105-.176.135-.295.256-.34.35-1.04.92-1.477 1.358l-.268.244c-.444.372-2.396 2.543-2.934 1.913a2.63 2.63 0 0 1-.155-.199c.17-.115.308-.303.465-.44l.15-.125.022-.018c.605-.528 1.812-1.814 2.483-2.478.12-.12.2-.167.336-.294l1.02-1 .898-.834c.122-.12.2-.166.336-.294l.67-.6c.056-.053.08-.086.14-.136 1.077-.905 2.198-1.768 3.287-2.658l3.465-2.756 1.393-1.088c.592-.44 1.144-.925 1.718-1.392.807-.657 1.53-1.38 2.35-2.02.342-.27 2.504-2 2.897-2.103l-.354.708c-.466.935-1.015 1.806-1.548 2.704l-5.448 9.435a100.52 100.52 0 0 1-2.684 4.758c-.07.118-.1.205-.188.324a7.79 7.79 0 0 0-.211.34l-3.244 5.3c-.142.237-.246.436-.398.666-.465.703-1.15 1.935-1.586 2.666l-7.298 12.35a7.76 7.76 0 0 1-.195.357l-.757 1.37c-.262.432-1.12 1.62-1.213 2.015zm25.832-43.62c-.036.155-.043.16-.157.236.004-.2.02-.163.157-.236zm-35.952.827c0-.23.295-1.333.35-1.66.025-.154.074-.482.124-.585.12.082.264.34.354.473l-.827 1.772zm1.536-2.165c0-.162.598-1.287.734-1.6.055-.12.037-.153.132-.222.01.134.084.335.123.468.343 1.165.545 2.186.965 3.444a37.11 37.11 0 0 0 .657 1.824l.365.895.37.9c-.1-.074-1.427-2.536-1.637-2.9l-.836-1.408c-.124-.2-.874-1.264-.874-1.4zm-6.025 11.9c0-.28.124-.676.18-.96.137-.7.457-2.17.642-2.823.087-.3.14-.592.227-.914.247-.92.46-1.906.73-2.773.083-.262.2-.556.3-.83.5-1.38 1.087-2.875 1.505-4.282l.577-1.746c.114.084.97 1.783.985 1.85-.01-.003-.535-.303-.66.206l-.15.953c-.118.633-.263 1.247-.402 1.842-.146.623-.242 1.223-.386 1.86-.124.547-1.192 2.837-1.5 3.5l-2.06 4.12zm7.167-14.33c0-.095.162-.323.197-.472h.08c.073.313 1.2 2.378 1.37 2.645l.378.607.764 1.244.378.645 1.375 2.64c.44.88.876 1.917 1.286 2.73 1.105 2.187 3.13 7.1 3.795 9.237.152.5.433 1.404.7 1.828.078.128.13.182.2.312l-.236.157c-.432-.816-1.355-2.224-1.898-3.063-.56-.864-1.224-2.136-1.86-3.102l-1.733-2.716c-.35-.535-.645-1.046-.878-1.642-1.566-4.014-2.265-4.5-3.5-9.453-.076-.308-.4-1.432-.4-1.6zm-1.418-4.173c0 1.52.886 3.77.893 4.02.003.104-.214.567-.276.7l-.617 1.4c-.17-.125-.634-1.15-.775-1.43l-.367-.736c-.213-.4-.318-.176-.102-.73l1.182-3.1c.047-.093.014-.04.062-.095zM22.602 26.378l-1.58-1.136c-.192-.143-.36-.244-.56-.384l-1.254-1c-.682-.607-3.174-2.503-3.927-3.002l-1.103-.748c-.894-.635-1.928-1.175-2.784-1.783-.545-.387-1.138-.698-1.697-1.06-.375-.242-.737-.45-1.127-.684l-.57-.33-1.792-1.002c-.42-.2-.925-.485-1.484-.485a.61.61 0 0 0-.63.63c-.77-.407-1.93-.984-2.796-.984-.986 0-.74.846-.46 1.405.393.78.704 1.593 1.1 2.375l.17.34 1.667 3.294c.215.43.436.94.675 1.333l1.386 2.6c.537 1.08 1.17 2.146 1.77 3.2l1.102 1.9c.5.82.97 1.68 1.5 2.478l1.74 2.7c.956 1.423 2.916 4.343 3.64 5.808l.714 1.294c.503.83.903 1.748 1.388 2.6l2.944 5c.253.418.47.826.724 1.245a26.16 26.16 0 0 0 .788 1.22c.07.104.123.17.2.272.984 1.3 1.02.842 1.452 1.068.1.052.745.882 1.238.03.074-.128.066-.184.174-.26.1-.064.16-.08.27-.163.668-.5.97-1.455 1.23-2.234.3-.86.53-1.826.817-2.687.452-1.355.875-2.643 1.234-4.042.255-.994.52-1.586.95-2.515.366-.8.798-1.543 1.18-2.323l.6-1.142c.103-.205.18-.383.295-.572.222-.36.392-.803.585-1.187.105-.208.17-.383.276-.6.12-.238.516-1 .564-1.207h.08c.004.175.12.473.17.656.305 1.06.644 2.134.915 3.22l1.4 4.398c.503 1.387 1.108 2.705 1.764 4.024l1.365 2.77c.282.564.568 1.072.827 1.653.268.6.598 1.982 1.365 1.982.234 0 .37-.14.512-.236.095.07.175.223.252.34.35.527.564.96 1.047.96.253 0 .314-.1.512-.157.328.22.54.512 1.024.512.645 0 1.342-1.27 1.614-1.772.07-.127.13-.22.197-.354s.123-.253.204-.387c.15-.245.26-.503.386-.756.247-.494.54-1.012.76-1.524.12-.278.226-.514.356-.786.37-.772.65-1.586 1.037-2.35l1.47-3.097c.128-.255.235-.508.367-.774a50.64 50.64 0 0 0 1.421-3.106c.444-1.06.94-2.1 1.427-3.14l2.967-6.168 2.074-4.147 2.94-5.643c.408-.73.766-1.5 1.2-2.225l1-1.796c.08-.134.123-.246.206-.385l.837-1.447c.653-1.228 1.406-2.402 2.102-3.607l1.644-2.923c.187-.313.756-1.2.756-1.528 0-.1-.164-.236-.276-.236-.186 0-.58.43-.763.536-.28.163-.25-.066-1.232.736-.486.396-1.04.724-1.542 1.096l-5.7 4.263-4.76 3.825c-.13.103-.246.195-.367.303l-2.17 1.806c-.425.343-.817.74-1.25 1.074-.1.07-.107.1-.184.17l-1.217 1.067c-.37.295-.664.673-1.03.978-.418.35-.8.763-1.2 1.123l-2.214 1.802c-.475-.7-.646-1.343-.93-2.18l-.858-2.292c-.274-.683-.6-1.604-.902-2.247-.436-.963-.78-1.983-1.246-2.927l-.683-1.443c-.594-1.172-1.105-2.367-1.694-3.543l-.52-1.014c-.734-1.52-1.777-2.86-2.524-4.366l-.342-.682c-.18-.36-.45-1.178-.755-1.37-.25-.16-.577-.052-.65.216h-.08c-.008-.344-.207-.748-.292-1.086-.102-.406-.188-.716-.27-1.147-.108-.564-.137-1.322-.188-1.898C33.522.12 33.428 0 33.155 0c-.22 0-.596 1.364-.686 1.598l-1.065 2.95c-.187.3-.207-.07-.626 1.106l-1.447 4.34-.76 2.705c-.185.638-.75 1.9-.997 2.468L25.5 20.022c-.45 1.073-.886 2.18-1.374 3.232l-.748 1.575-.38.76-.384.787zm-2.047 38.1c.612.142.508.28 1.6.28a2.84 2.84 0 0 0 .702-.094c-.315.47-1.963.262-2.292-.187zm-.982-.608l.054.1-.054-.1zm0 0c-.216-.25-.327-.918-.327-1.216h.047c0 .27.084.393.14.607.044.17.125.432.14.608zm2.665.28c-.577 0-1.215.001-1.67-.387s-.62-.614-.62-1.203c0-.605.273-1.6.572-1.953.32-.378 2.4-.383 3.443 1.26.286.446.036 1.45-.15 1.705-.196.268-1.1.58-1.573.58zm.56-4.488c1.362 0 2.76.94 2.76 2.15 0 .425-.001.785-.24 1.16-.1.174-.354.513-.507.616.115-.494.28-.205.28-1.17 0-.4-.355-.97-.6-1.27l-.93-.986c-.327-.286-.495-.274-.76-.503zM20.974 65.9c1.817 0 1.938-.314 3.066-1.002 1.23-.75 2.304-1.726 2.065-3.334-.214-1.44-1.752-2.397-3.215-2.397-.924 0-.67.047-1.3.094-.324.024-.37.105-.693.15-1.625.22-2.403.798-2.615 2.48-.03.24-.058.613-.017.737.12.362.165-.104.192.653.025.712.54 1.795 1.206 2.208.328.204.806.4 1.32.4zm25.72-1.402c-.205 0-.43.02-.608-.094.708-.165 1.348-.675 1.835-1.157.54-.534.736-1.192.736-2.256.255.17.655.653.655 1.122 0 1.402-1.47 2.384-2.62 2.384zm1.917-4.255l-.047-.047.047.047zm-.047-.047l-.093-.047.093.047zm-.093-.047l-.047-.047.047.047zm-.047-.047c-.133-.032-.07.007-.14-.093.137.033.067-.006.14.093zm-2.432-.187c.5 0 1.73.272 1.936.636.368.655.102 1.666-.398 2.257-.334.395-.786.662-1.256.895a2.89 2.89 0 0 1-1.17.28c-.2 0-.548-.533-.646-.7-.703-1.284.015-3.124.46-3.124 1.1 0 .66.608 1.216.608.114 0 .234-.108.234-.28 0-.268-.247-.37-.374-.56zm-3.367 2.57c0 .55.2.907.447 1.236.316.42.437.372.874.8.85.85 1.488.994 2.747.994.958 0 2.125-.685 2.583-1.204.526-.595.97-1.963.97-2.863a2.34 2.34 0 0 0-.336-1.16c-.8-1.233-2.194-1.7-3.7-1.515-.264.032-.22-.04-.44-.024-.692.05-1.2.304-1.683.75-.155.14-.9 1.22-1.033 1.444-.232.358-.43.957-.43 1.534zm-6.496-1.915c.715.2 1.02 1.806.42 2.244.262-1.126-.028-1.502-.42-2.244zm0 0l-.047-.047.047.047zm.654-.28l-.047-.047.047.047zm-2.955-.326c1.07-.001 2.207.995 2.207 1.962 0 .65-.015.853-.426 1.35-.127.153-.122.12-.263.25-1.43 1.32-3.285.62-3.285-1.274 0-.47.104-1.097.263-1.42.223-.45.45-.66.952-.778 0 .943.633.567.608.374l-.055-.466zm-1.628-.048c-.063.095-.625.526-.834.85-.35.543-.3.613-.44 1.056-.034.108-.01.07-.082.15 0-.813.193-1.34.76-1.764.154-.115.37-.275.595-.293zm4.536.327c-.56-.296-.387-.303-1.326-.73l-.187-.094-.03-.017c.572 0 1.437.443 1.543.84zm-1.543-.84l-.1-.026.1.026zm-4.302 3.32l.302 1.054c.207.628.703 1.178 1.293 1.418 1.336.544 2.897.14 3.864-.848.2-.204.243-.217.477-.364a3.83 3.83 0 0 0 .495-.394c.634-.586.624-1.296.4-2.03-.098-.307-.05-.343-.093-.702-.04-.348-.32-.902-.52-1.116-.825-.878-2.16-1.157-3.293-.8-.58.188-.197.134-.9.214-.8.1-1.526.33-1.976.877-.685.834-.538 1.447-.547 2.214s.385.497.516.466z" fill-rule="evenodd"/></svg>