<svg width="369" height="199" viewBox="0 0 369 199" fill="none" xmlns="http://www.w3.org/2000/svg">
<g clip-path="url(#clip0)">
<path d="M-14.0012 72.0019C-11.6215 70.147 -9.94787 72.2109 -8.32654 73.2559C0.0939169 78.6117 8.64512 83.8369 16.6995 89.7413C19.9683 92.1187 22.6618 91.5701 25.7214 91.5701L26.2967 90.2115L16.2288 83.027C12.6461 80.8379 9.41856 78.1157 6.65769 74.9541C7.88774 74.7698 9.14306 74.8517 10.3387 75.1943C11.5343 75.5369 12.6422 76.1321 13.5876 76.9397C20.099 80.963 26.6628 85.0648 33.0174 89.1404C35.3448 90.6034 37.5676 92.4061 40.8625 90.8124C36.8876 84.49 29.3825 81.4594 26.0352 74.6667C28.0226 73.3866 28.9902 75.0064 30.0101 75.7901C35.5365 80.0748 41.002 84.429 46.4064 88.853C48.2916 90.5859 50.7752 91.5222 53.3363 91.4656C65.8624 91.0476 78.3885 90.8124 90.9407 90.4989C91.6206 87.4945 90.0254 85.2738 89.2932 82.9225C85.0515 70.5561 83.6134 57.4026 85.083 44.4131C86.4951 33.9628 88.2995 23.7215 95.334 15.3612C99.4036 10.574 104.494 6.75683 110.231 4.18919C115.968 1.62156 122.208 0.368497 128.493 0.521769C135.407 0.755038 141.988 3.54864 146.955 8.3595C156.138 15.9924 163.871 25.2137 169.784 35.5826C170.595 37.0195 170.857 38.8744 172.896 39.9194C176.476 32.0033 181.286 24.7024 187.148 18.2873C193.967 10.3419 202.815 4.39194 212.75 1.07041C214.512 0.45883 216.352 0.0982379 218.215 -0.000746934C241.201 -0.523262 253.074 9.8748 260.762 28.7376C265.626 40.6771 265.338 53.2436 263.377 65.784C262.208 72.5916 260.458 79.2868 258.147 85.7963C274.412 86.1882 289.998 85.7963 305.558 85.5873C321.117 85.3783 336.938 86.6585 352.629 86.5539C348.183 83.5756 342.979 82.6873 338.167 80.8063C333.356 78.9252 328.126 78.3766 323.34 74.7712C324.415 74.2622 325.589 73.9982 326.779 73.9982C327.968 73.9982 329.143 74.2622 330.218 74.7712C341.061 77.8541 351.879 80.9892 362.67 84.1765C364.117 84.5072 365.496 85.0815 366.75 85.8747C367.45 86.2624 368.025 86.8428 368.405 87.547C368.785 88.2512 368.955 89.0495 368.894 89.8472C368.833 90.645 368.545 91.4086 368.063 92.0474C367.581 92.6862 366.925 93.1734 366.174 93.4511C352.236 98.6763 338.56 104.424 324.726 109.884C323.99 110.351 323.115 110.546 322.251 110.436C321.387 110.326 320.588 109.919 319.993 109.283C329.564 101.002 341.776 98.206 352.524 93.6079C352.681 92.3016 352.524 92.1971 351.844 92.1971C322.059 92.4584 292.299 91.8314 262.514 91.0215C257.807 91.0215 255.323 92.1449 253.518 96.6646C246.85 113.281 235.501 127.18 224.36 141.078C208.543 161.416 190.491 179.915 170.543 196.23C166.071 199.783 165.313 199.966 160.736 196.413C153.852 191.022 147.943 184.492 143.268 177.106C131.448 158.191 117.85 140.53 107.154 120.779C102.996 113.124 98.5505 105.626 95.0986 97.6313C94.8338 96.6065 94.1731 95.7285 93.2613 95.1898C92.3495 94.6511 91.261 94.4956 90.2346 94.7574C79.7744 96.3511 69.0004 95.7763 58.4095 96.7691C55.7046 96.9346 53.1465 98.055 51.192 99.9303C41.3306 108.646 30.4621 116.154 18.8177 122.294C25.7998 112.601 36.2077 106.619 45.465 98.3889C44.0152 97.6402 42.3901 97.296 40.7609 97.3926C39.1317 97.4891 37.5588 98.0229 36.2077 98.9376C25.0676 105.077 13.7968 110.955 2.08135 117.226C3.99034 113.359 4.01649 113.385 13.9275 107.193C18.347 104.502 22.6095 101.42 28.2841 97.7097C21.1974 97.161 15.9411 95.8808 10.5803 99.5907C3.12737 104.816 -5.52844 107.716 -14.0273 110.929C-12.2491 107.246 -8.40499 106.331 -5.52844 104.189C-2.65188 102.047 0.643077 99.7997 3.70268 97.6313C2.65666 95.7241 0.276971 96.7691 -0.795198 95.0187C2.49976 92.4061 6.81459 93.5818 10.9464 92.0404C7.10225 87.599 2.15981 85.4567 -1.76277 82.0864C-5.68534 78.7162 -9.86942 75.2937 -13.9489 71.8974L-14.0012 72.0019ZM248.471 90.9169C245.856 90.7863 243.241 90.6557 240.417 90.4728C239.266 90.4728 238.273 89.8458 238.299 88.5918C238.325 87.3377 239.449 86.9458 240.548 86.8675C242.657 86.6208 244.779 86.4987 246.902 86.5017C250.223 86.6323 251.766 85.2215 252.708 82.0081C255.15 73.6462 256.676 65.0439 257.258 56.3526C258.408 39.6582 255.087 24.1656 243.686 11.2333C240.831 7.61982 237.007 4.89099 232.66 3.36463C228.312 1.83827 223.62 1.5772 219.13 2.61183C211.835 4.37708 205.111 7.97412 199.596 13.0621C189.136 21.8665 181.971 33.1267 175.25 44.7527C174.282 46.3986 173.995 48.75 171.667 49.6382C170.543 49.2202 170.412 48.3581 170.124 47.6004C164.31 32.6189 154.329 19.6108 141.359 10.1099C130.872 1.72355 119.157 0.939781 108.462 7.83699C102.076 12.1972 97.4438 18.6765 95.3863 26.125C90.7155 40.7851 90.0564 56.4267 93.4773 71.4271C97.0599 88.017 104.199 103.118 112.358 117.879C123.08 137.264 136.259 155.03 147.896 173.814C152.917 181.965 160.266 188.105 166.437 195.629C167.797 194.453 168.791 193.67 169.732 192.834C189.54 174.165 208.087 154.205 225.25 133.084C234.2 122.261 241.513 110.184 246.954 97.2394C248.249 95.4024 248.792 93.1406 248.471 90.9169Z" fill="#3A3C51"/>
<path d="M180.613 116.102C181.215 111.739 182.339 107.272 177.998 103.849C177.266 103.248 177.397 102.36 178.155 101.681C178.328 101.477 178.54 101.308 178.779 101.186C179.017 101.064 179.277 100.989 179.544 100.968C179.812 100.946 180.08 100.977 180.336 101.059C180.591 101.141 180.827 101.272 181.031 101.446C185.294 106.148 192.747 108.787 191.282 117.33C191.031 119.665 191.676 122.009 193.087 123.888C196.402 122.322 199.18 119.813 201.074 116.676C202.967 113.539 203.891 109.913 203.73 106.253C201.533 105.678 199.415 107.847 196.983 106.619C197.506 106.044 197.872 105.286 198.343 105.208C206.79 104.006 207.051 97.3701 207.993 91.0215C208.151 89.9737 208.151 88.9082 207.993 87.8603C207.783 86.4757 207.574 85.2478 209.509 85.2478C210.153 85.2044 210.788 85.4157 211.278 85.836C211.767 86.2564 212.071 86.8521 212.124 87.4946C212.41 90.6618 212.189 93.8542 211.471 96.9521C211.471 97.762 211.471 98.598 211.34 99.4341C214.504 100.793 216.884 97.5007 219.943 98.4413C219.364 99.3492 218.598 100.124 217.696 100.714C216.795 101.304 215.778 101.696 214.713 101.864C213.076 102.275 211.625 103.226 210.595 104.563C209.566 105.9 209.017 107.544 209.039 109.231C208.254 115.475 206.424 121.641 208.202 128.799C213.798 124.907 215.707 118.845 219.917 114.613C218.307 120.541 215.053 125.894 210.529 130.053C206.737 133.45 203.181 131.961 202.475 126.944C202.329 124.813 202.329 122.675 202.475 120.544C199.729 120.256 199.258 122.581 198.055 123.809C197.266 124.806 196.224 125.574 195.038 126.033C193.852 126.492 192.564 126.627 191.309 126.422C188.223 125.769 188.066 122.79 187.412 120.439C187.168 118.619 187.019 116.788 186.968 114.953C186.706 113.307 186.209 111.713 185.686 109.597C183.908 111.426 184.274 113.385 183.856 115.031C183.437 116.677 183.359 118.819 182.836 120.648C181.345 125.638 180.221 126.004 174.991 123.757C174.442 125.738 173.202 127.457 171.494 128.602C169.786 129.748 167.724 130.244 165.681 130.001C165.227 126.888 165.503 123.713 166.488 120.725C167.473 117.737 169.139 115.019 171.356 112.784C172.637 111.426 174.598 109.048 175.906 110.172C177.213 111.295 179.881 113.046 178.939 115.919C178.352 117.948 178.558 120.124 179.515 122.007C179.724 119.577 181.267 118.14 180.613 116.102ZM169.734 125.873C172.108 122.918 173.342 119.21 173.212 115.423C171.866 116.785 170.852 118.439 170.249 120.256C169.646 122.072 169.47 124.004 169.734 125.899V125.873ZM174.285 114.273L173.945 113.829C173.945 113.96 173.605 114.091 173.579 114.221C173.552 114.352 173.788 114.509 173.892 114.665L174.285 114.273Z" fill="#3A3C51"/>
<path d="M134.244 123.157C136.152 120.936 136.074 118.219 137.172 115.92C138.018 113.751 139.22 111.737 140.729 109.964C141.316 109.311 142.088 108.851 142.943 108.646C143.797 108.441 144.694 108.499 145.514 108.814C147.136 109.363 147.476 111.009 147.502 112.498C147.502 116.939 147.502 121.407 147.502 125.874C147.502 127.442 147.188 129.95 149.332 130.002C151.477 130.054 152.863 128.043 152.915 125.613C152.915 123.915 152.915 122.217 153.098 120.518C153.189 117.764 153.952 115.074 155.321 112.681C156.341 111.009 157.936 109.415 159.949 110.251C161.963 111.087 161.623 112.864 161.309 114.692C160.99 117.863 159.991 120.929 158.38 123.68C157.686 124.603 157.328 125.736 157.366 126.891C157.404 128.045 157.836 129.152 158.59 130.028C160.289 132.641 162.198 131.021 164.84 130.028C160.682 133.555 157.988 134.496 155.713 132.484C154.974 131.825 154.064 131.39 153.087 131.228C152.11 131.066 151.107 131.185 150.195 131.57C145.724 132.641 144.233 131.726 143.945 127.181C143.658 122.635 143.945 117.54 143.945 112.028C140.833 113.308 140.467 115.685 139.683 117.645C138.383 121.242 137.548 124.991 137.199 128.8C137.042 130.002 136.963 131.413 135.29 131.674C133.616 131.935 133.119 130.525 132.674 129.349C131.628 126.135 130.739 122.87 129.746 119.604C129.432 118.611 129.066 117.618 128.7 116.573C126.268 116.573 126.268 119.447 124.28 119.709C124.071 119.473 123.626 119.055 123.653 119.003C127.967 112.864 126.268 106.776 123.94 100.48C122.45 96.4955 121.706 92.2713 121.744 88.018C121.744 83.9162 123.234 81.3298 125.692 80.7811C127.3 80.6685 128.899 81.103 130.229 82.0138C131.558 82.9246 132.54 84.2581 133.014 85.7973C135.278 91.1556 135.4 97.177 133.354 102.622C130.582 109.728 131.864 116.103 134.244 123.157ZM129.38 103.589C130.615 100.206 131.115 96.5989 130.844 93.008C130.321 89.5855 130.582 85.5621 126.529 83.3153C125.247 90.2031 126.248 97.3205 129.38 103.589ZM157.753 117.749L157.282 116.887C157.091 117.212 156.991 117.582 156.991 117.958C156.991 118.335 157.091 118.704 157.282 119.029L157.753 117.749Z" fill="#3A3C51"/>
<path d="M176.035 95.229C171.224 91.9633 171.015 87.1039 170.256 82.4796C169.498 77.8554 168.792 72.8653 167.981 67.6402C165.131 69.7825 165.183 72.8653 164.425 75.4779C163.874 77.7421 163.455 80.0363 163.169 82.349C162.908 83.8643 162.62 85.4057 160.737 85.5625C158.855 85.7192 158.488 83.9688 158.122 82.558C157.259 78.613 156.553 74.7203 155.664 70.723C155.429 69.6258 155.664 68.1105 153.886 67.2744C151.414 73.0589 150.108 79.2733 150.042 85.5625C150.321 87.4619 150.021 89.4014 149.179 91.1273C148.713 91.8206 148.004 92.3145 147.191 92.5119C146.355 92.5119 145.753 91.702 145.57 90.866C144.707 87.1561 143.74 83.4463 143.112 79.7103C141.7 71.5591 140.314 63.4078 139.216 55.2043C138.902 52.7746 137.803 49.5089 142.144 48.3594C145.099 56.6151 144.21 65.4979 146.799 73.6752C148.97 73.4924 148.577 71.8987 148.943 70.8014C149.489 68.7574 150.189 66.7575 151.036 64.8186C151.561 63.875 152.366 63.1173 153.34 62.6494C154.314 62.1816 155.409 62.0267 156.475 62.206C158.593 62.3889 159.09 64.1393 159.534 65.7853C159.979 67.4312 160.371 69.0771 160.79 70.7753C162.646 70.5663 162.568 68.8159 163.143 67.6402C164.125 65.4938 165.88 63.7959 168.06 62.8853C168.515 62.599 169.034 62.4287 169.571 62.3893C170.108 62.3498 170.647 62.4424 171.14 62.6589C171.632 62.8755 172.065 63.2094 172.398 63.6314C172.732 64.0534 172.957 64.5508 173.054 65.0799C173.187 65.4871 173.275 65.9076 173.316 66.3339C174.257 76.0004 175.164 85.6321 176.035 95.229Z" fill="#3A3C51"/>
<path d="M194.943 103.274C190.314 105.102 189.713 104.946 188.98 101.079C188.483 98.7655 188.59 96.3633 189.291 94.1031C189.992 91.8428 191.263 89.8007 192.981 88.1729C199.127 82.5297 199.545 75.7893 198.212 68.5002C198.212 67.9515 196.564 70.2506 195.989 71.4001C194.677 74.5293 193 77.4932 190.994 80.2306C190.364 80.9709 189.545 81.5269 188.624 81.8397C187.703 82.1524 186.715 82.2103 185.764 82.0072C183.567 81.6937 183.332 79.9694 182.966 78.2712C181.931 71.9621 182.127 65.5128 183.541 59.2778C183.564 59.0132 183.639 58.7558 183.762 58.5204C183.885 58.285 184.054 58.0762 184.258 57.9062C184.462 57.7362 184.698 57.6082 184.952 57.5298C185.206 57.4513 185.473 57.4238 185.738 57.449C187.124 57.449 187.333 58.6246 187.307 59.7219C187.307 63.1183 187.045 66.5146 186.967 69.911C186.967 72.7848 186.967 75.6586 186.967 79.7081C189.712 77.7066 191.694 74.8323 192.589 71.5569C194.184 67.638 195.492 63.5885 196.852 59.5652C197.479 57.7102 198.447 56.6391 200.539 56.9526C202.631 57.2661 202.605 58.5985 202.997 60.1399C204.148 64.8948 203.285 69.7803 203.991 75.4757C208.881 70.7209 211.601 65.0254 216.491 61.394C215.132 67.5766 211.867 73.1778 207.155 77.4091C204.39 79.9644 202.706 83.4782 202.448 87.2323C201.794 92.7971 201.663 98.8061 196.93 103.038L195.91 101.889C197.425 96.7956 198.26 91.525 198.395 86.2134C194.773 88.9414 192.317 92.9352 191.517 97.3953C191.36 100.008 190.759 103.221 195.021 103.352L194.943 103.274Z" fill="#3A3C51"/>
<path d="M196.906 103.04C196.278 103.458 195.703 104.138 194.918 103.276V103.432C194.867 103.268 194.849 103.094 194.866 102.923C194.883 102.751 194.934 102.584 195.017 102.433C195.1 102.282 195.213 102.149 195.349 102.042C195.485 101.936 195.641 101.857 195.807 101.812L196.906 103.04Z" fill="#3A3C51"/>
<path d="M292.43 109.336C292.688 115.726 291.011 122.044 287.618 127.467C287.05 128.279 286.229 128.881 285.284 129.179C284.338 129.476 283.32 129.453 282.388 129.113C280.27 128.747 279.983 126.919 279.643 125.273C279.287 123.18 279.287 121.043 279.643 118.95C279.8 117.592 280.924 115.502 279.067 115.084C276.766 114.587 277.629 117.017 277.289 118.245C276.951 120.34 276.261 122.362 275.249 124.228C274.527 125.491 273.649 126.659 272.634 127.702C271.981 128.419 271.134 128.931 270.196 129.177C269.258 129.423 268.268 129.392 267.347 129.088C266.426 128.784 265.612 128.22 265.005 127.464C264.398 126.708 264.023 125.793 263.926 124.829C263.268 120.594 264.051 116.261 266.149 112.523C267.587 109.597 270.176 109.911 272.765 110.668C275.354 111.426 277.237 112.941 280.061 110.407C282.362 108.343 284.82 110.407 284.585 113.673C284.402 116.573 283.931 119.447 283.461 123.365C288.665 119.656 287.592 113.281 292.43 109.336ZM269.313 126.971C271.713 124.706 273.248 121.675 273.654 118.402C273.775 118.101 273.817 117.775 273.777 117.454C273.737 117.134 273.615 116.828 273.424 116.567C273.233 116.305 272.979 116.097 272.685 115.961C272.392 115.825 272.068 115.766 271.745 115.789C270.516 115.658 269.13 115.371 268.921 117.2C268.424 120.178 266.986 123.287 269.313 126.971Z" fill="#3A3C51"/>
<path d="M267.402 132.692C264.354 134.527 260.837 135.435 257.281 135.305C254.457 135.148 252.784 133.737 252.862 130.994C253.22 123.817 254.094 116.675 255.477 109.623C255.491 109.306 255.573 108.995 255.716 108.711C255.859 108.428 256.061 108.177 256.308 107.977C256.555 107.777 256.842 107.632 257.15 107.551C257.457 107.47 257.778 107.455 258.092 107.507C258.466 107.51 258.835 107.599 259.17 107.767C259.504 107.934 259.797 108.176 260.024 108.473C260.251 108.771 260.407 109.116 260.48 109.483C260.553 109.85 260.541 110.228 260.446 110.59C259.792 115.188 259.06 119.786 258.354 124.384C258.092 126.056 257.7 127.728 257.595 129.4C257.334 133.398 257.752 133.737 261.622 133.293C263.61 132.98 265.493 132.875 267.402 132.692Z" fill="#3A3C51"/>
<path d="M301.451 110.562L300.248 110.353C295.985 109.7 295.698 109.883 294.809 114.142C294.129 117.459 293.58 120.777 292.926 124.095C291.409 131.776 292.22 132.769 299.803 132.56H300.666L301.686 132.43C301.686 132.43 301.686 132.43 301.503 132.247C301.895 131.985 302.209 131.489 301.739 130.627C300.954 129.19 297.345 129.294 296.352 129.347C296.188 128.857 296.153 128.333 296.249 127.825C296.345 127.318 296.569 126.843 296.901 126.447C297.658 125.264 298.132 123.923 298.287 122.528C300.196 122.972 303.255 123.39 303.334 121.378C303.412 119.367 300.719 119.497 298.679 119.706C298.828 117.298 299.745 115 301.294 113.149C303.674 113.541 307.047 114.011 307.047 113.567C307.047 113.123 308.145 111.059 301.451 110.562Z" fill="#3A3C51"/>
<path d="M73.6518 137.814C68.4217 140.426 67.9771 140.269 67.0357 134.992C66.4604 131.7 66.1989 128.33 65.7805 125.012C63.5054 125.221 63.3224 126.684 63.4008 128.252C63.5194 131.66 62.7632 135.041 61.2042 138.075C60.7995 139.183 60.0314 140.122 59.0248 140.738C58.0182 141.355 56.8324 141.613 55.6603 141.471C53.0452 141.079 52.5484 138.859 52.1823 136.69C51.3989 131.625 52.2027 126.442 54.4835 121.851C55.4249 119.761 58.1969 119.238 60.7073 121.851C63.2178 124.463 63.8715 123.81 65.3621 121.616C65.6456 121.15 66.0258 120.751 66.4769 120.444C66.9279 120.138 67.4395 119.931 67.9771 119.839C69.9123 119.499 71.2983 119.578 71.2983 122.164C70.8986 125.789 70.9601 129.449 71.4813 133.059C73.2334 129.506 72.815 126.37 73.3903 123.47C73.7825 121.511 74.6455 120.205 76.6068 120.283C78.5681 120.362 78.5419 122.269 78.5681 123.653C78.5681 130.472 80.4248 137.239 79.9802 144.972C76.8945 142.856 77.0775 140.113 76.1622 137.944C76.3453 136.899 76.4237 135.332 75.6915 135.123C74.9593 134.914 74.1487 136.272 73.861 137.317C73.7811 137.478 73.7112 137.644 73.6518 137.814ZM57.3862 138.754C59.3189 136.03 60.1927 132.696 59.8443 129.375C59.8443 128.591 59.8443 127.624 58.6937 127.52C58.4866 127.494 58.2763 127.512 58.077 127.574C57.8776 127.636 57.6937 127.74 57.5377 127.878C57.3817 128.017 57.2571 128.187 57.1724 128.377C57.0876 128.568 57.0446 128.774 57.0462 128.983C56.5043 132.231 56.6288 135.555 57.4123 138.754H57.3862Z" fill="#3A3C51"/>
<path d="M44.3449 127.467C45.8616 122.712 46.9599 118.95 48.2674 115.214C48.4008 114.809 48.6666 114.46 49.0222 114.223C49.3778 113.986 49.8026 113.875 50.2287 113.908C50.438 113.939 50.6387 114.013 50.8184 114.124C50.998 114.236 51.1527 114.383 51.2729 114.557C51.393 114.731 51.4761 114.928 51.5169 115.136C51.5577 115.343 51.5554 115.557 51.5101 115.763C50.347 125.702 47.4437 135.358 42.9328 144.292C42.3608 143.219 42.0466 142.028 42.0148 140.813C41.9831 139.598 42.2346 138.392 42.7497 137.291C43.2823 136.017 43.3681 134.601 42.993 133.273C42.6179 131.945 41.804 130.783 40.6838 129.975C39.2503 128.72 37.961 127.309 36.8397 125.769C36.0029 124.698 34.3815 123.548 36.1336 122.059C37.8857 120.57 39.2978 121.249 40.5531 122.739C41.8083 124.228 42.6451 125.403 44.3449 127.467Z" fill="#3A3C51"/>
<path d="M92.3803 136.663C90.4045 134.7 88.9874 132.248 88.2747 129.557C87.9608 127.31 90.8897 126.5 92.0926 124.75C93.2955 122.999 94.1847 121.144 92.6156 119.524C90.4713 117.356 87.3855 118.035 84.7705 118.218C82.1554 118.401 81.8939 120.491 81.9724 122.477C82.1816 127.989 82.5215 133.476 82.8354 138.988C82.7627 139.799 82.881 140.616 83.1806 141.374C83.4803 142.132 83.9531 142.809 84.5613 143.351C86.1565 141.888 84.9012 139.38 86.9933 138.126C90.419 140.529 92.5633 145.964 98.7348 143.691C96.3028 141.078 94.2108 138.936 92.3803 136.663ZM86.3134 124.671C83.6983 125.768 85.4504 121.196 85.4504 121.196C92.4587 118.845 88.8238 123.574 86.3134 124.671Z" fill="#3A3C51"/>
</g>
<defs>
<clipPath id="clip0">
<rect width="383" height="199" fill="white" transform="translate(-14)"/>
</clipPath>
</defs>
</svg>
